<svg height="960" viewBox="0 0 960 960" width="960" xmlns="http://www.w3.org/2000/svg"><path d="m456.116276 3.96123455c30.860193-1.07834279 62.453272-1.24893146 94.781074-.51411939 59.288418 1.34762778 113.424509 7.61756154 160.54155 17.34742674l1.05832.2194227c34.869662 7.2584343 64.269733 16.2352838 78.452602 23.2490196 55.063304 27.2299965 93.814692 72.2072008 119.255489 129.5084378 9.677894 21.797875 17.104839 44.668641 22.823874 68.657449 4.205881 17.641801 7.055486 33.680472 9.815499 52.975186l.221031 1.552602.567399 4.079981c.052811.390095.105539.785164.158654 1.188868l.273794 2.13189.342333 2.819425.170555 1.468164.326708 2.948915.163464 1.540503.314207 3.100794.156743 1.614032.299264 3.22358.296026 3.374223.290226 3.503185.142038 1.789102.272947 3.590822.277084 3.85575.131427 1.911519.248169 3.760422.249349 3.99275.241823 4.09698.234345 4.20145.226907 4.306137.276583 5.599412.258365 5.625164.20525 4.772717.193407 4.77504.182557 4.783839.265647 7.510872.250149 7.770905.160185 5.398879.15008 5.41131.143168 5.5296.198689 8.380262.186726 8.803792.11427 5.948757.157897 9.118719.1416 9.34456.085506 6.365462.078502 6.485149.104168 9.909783.060576 6.747541.077406 10.310573.042684 7.006784.035569 7.117134.028435 7.224003.02131 7.33773.018575 11.192931.003467 7.601597-.008127 11.581918-.006821 3.609416.057355 3.865325c1.706597 140.296812-28.990233 240.926049-97.751575 301.9389l-2.116836 1.855365c-41.154534 35.630235-92.303773 58.05095-153.599966 70.898673-43.95133 9.212228-85.799453 12.858717-150.355792 15.057704l-6.834638.225236-7.132382.221166-10.49102.304363-17.00464.476257-6.623538.193214-6.529373.202207-3.232157.106051-4.725172.162719-3.096545.102426-4.502411.137194-2.216127.062181-4.386374.112672-2.158667.050121-4.273206.088871-2.102639.038424-4.146445.065561-4.080908.050669-1.930471.019089-3.982952.029137-3.88395.017474h-5.695882l-3.926067-.025462-3.682068-.032356-1.812154-.021007-3.591708-.051383-1.765644-.030284-3.375334-.067055-3.435312-.080896-3.377286-.092324-4.236803-.134093-3.960821-.144602-3.312482-.135149-1.567329-.068747-2.982669-.139172-3.184035-.160734-1.503949-.080549-2.858913-.161102-2.934759-.176427-2.888624-.184779-2.843727-.192805-2.800066-.200502-2.75764-.207873-2.716445-.214913-2.676479-.221623-2.637738-.228001-2.600221-.234049-2.563926-.239762-2.515933-.243888-2.744557-.277462-.816918-.037056c-.286037-.015057-.57199-.032137-.857843-.051241l-.857247-.063379c-41.6855-3.378341-82.602629-10.779013-121.123205-20.768453-24.940904-6.467859-47.868654-13.905807-56.979686-17.710275l-1.270736-.53373c-41.842739-17.67754-74.62467-41.734832-98.9110688-71.79482-21.3427677-26.41657-35.7705949-56.378944-45.2522488-90.522503-6.8692377-24.736215-10.3215117-46.567237-14.3467111-83.077782l-.6001206-5.508561-.2906582-2.702788c-11.96822569-111.589479-12.08682516-257.509208 3.9208597-396.081708 10.8201525-93.665987 50.7590371-163.277575 120.6270748-204.767685 8.485399-5.0389298 27.865563-13.1269305 39.962173-16.4301268 43.794929-11.9589908 92.484259-22.633438 132.531469-27.2463299l24.790738-2.9105903 32.258843-3.75141033 5.515894-.60996405c17.95892-1.94267483 32.085381-3.14038956 45.861977-3.79979679l1.835112-.08474914c10.311255-.45883972 20.399998-.60382484 30.768033-.42714926l-1.099327-.01690344zm93.872108 39.47555155c-32.816128-.7459117-64.842329-.5368845-96.07817.6303101-1.08765-.018534-2.169398-.0331759-3.245902-.0439905-32.753248 1.2858592-64.635464 3.6289791-95.645931 7.0325008-6.668007.7873782-13.686887 1.6240849-21.140445 2.5023858-9.947748 1.2630498-19.802425 2.6386932-29.565044 4.1265142l-1.757446.4311072-1.900927.4746249-2.750768.7001047-1.868262.4859651-1.835343.4872617-1.115084.3016136-1.609945.4442843-2.010577.5721677-.849877.24903-.826675.2474169-.763551.2337755-.667564.2094429-1.720673.5820563-3.130318 1.3613883-1.602368.7135517-2.234498 1.0239432c-73.401553 34.1080655-113.465959 99.6831305-123.947647 194.0180875-17.738692 159.64783-13.42326 309.963047-3.883308 402.439798l.289336 2.797191.593909 5.667407.643831 6.005237c5.299609 48.761847 13.572737 105.54908 50.28612 152.792678 26.091196 33.574733 66.951892 61.750412 130.843556 78.939308l3.66648.998323 1.148349.320246.936408.121579 3.206501.408266 4.35615.539487 3.302864.395892 2.193056.255971 4.561898.513697 2.27259.245994 2.308216.242751 3.560901.360223 2.381197.23102 2.42595.227062 2.459332.221581 2.494256.215822 2.530714.209784 2.568697.203462 2.608199.196853 2.64921.189951 2.69172.182754 2.73572.175258 2.781202.167458 3.542963.197962 3.618647.184538 2.983006.139172 4.494728.187768 3.11552.115246.749163.0259 3.951489.125235 3.226158.088457 3.285212.077623 3.375714.067056 1.635898.027913 3.498494.049937.840237.010044 4.433953.040779 3.576137.023929h5.522204l3.76743-.016415 3.879129-.028242 1.930689-.019089 3.912406-.048642 4.078409-.064536.991104-.017764 5.185859-.105874 1.020261-.023335 5.330122-.134914 2.104838-.059157 4.423335-.134848 1.471855-.04797 6.197113-.212196 3.306983-.108538 6.589834-.204102 6.696002-.19537 17.053361-.477596 10.452064-.303219 7.053032-.21876 2.799429-.090649c92.595559-3.027511 206.223645-9.817557 283.081695-76.35122 61.41447-53.164627 88.198039-146.368716 86.003049-277.189456l.006235-3.893686.0081-11.554793-.003474-7.555174-.018525-11.144836-.021199-7.287871-.028297-7.18278-.035383-7.074665-.042446-6.963013-.077029-10.253933-.060097-6.688644-.103582-9.848489-.077789-6.421312-.084838-6.312451-.140632-9.275727-.156507-9.0321-.112899-5.872984-.182896-8.6244-.198711-8.380262-.141002-5.441703-.148127-5.337849-.154917-5.222425-.245886-7.643808-.261548-7.398544-.182577-4.783838-.189714-4.680625-.196567-4.570543-.204149-4.476906-.102658-2.155437-.214388-4.311072-.220291-4.183585-.226973-4.072456-.2336-3.961028-.240166-3.849265-.248197-3.760423-.122531-1.779827-.257911-3.591408-.264547-3.481813-.129288-1.630964-.273879-3.310835-.277568-3.169169-.286417-3.087282-.137215-1.416073-.298642-2.949584-.139785-1.320838-.30771-2.780213-.141633-1.223119-.316334-2.609302-.112834-.891212c-.113273-.88451-.227864-1.748913-.343818-2.593206l-.460739-3.302356-.221055-1.552601c-7.426952-51.914366-28.161575-170.54796-130.040019-220.9233816-1.192511-.5896561-2.766022-1.2867923-4.71206-2.0728107-23.951271-9.5784201-101.55844-31.8057639-218.138847-34.4556406zm-321.245835 28.5864987-.598041.1449019c-13.70969 3.2623592-25.794809 6.3963785-34.945758 8.877796l-2.081454.5685923c-9.520369 2.6741623-24.319748 9.1090537-29.19251 11.8606617l-.433573.2506835c-59.080705 35.0842098-91.9645857 94.0215958-101.3150444 174.9649968-17.7450788 153.612466-13.4280929 298.24513-3.8847062 387.225868l.2894401 2.691445.7540744 6.90077c5.300918 47.860437 12.9258603 104.48357 50.7883351 151.347066 19.134345 23.68314 46.209206 44.574331 84.480725 60.555266 2.67321 1.116245 21.472101 8.037366 50.543679 15.625475-23.03663-14.241955-42.042125-31.222407-57.288627-50.841946-19.23898-24.757147-32.35937-52.935035-41.106864-85.314235-6.302286-23.32816-9.705592-44.775329-13.381954-78.63138l-.540044-5.040059-.596687-5.694089-.2899-2.802652c-11.798012-114.365544-11.915275-264.363146 3.900055-406.700754 9.251231-83.260868 40.714606-145.773754 94.898854-185.9884072z"/></svg>