<?xml version="1.0" encoding="UTF-8" standalone="no"?>
<svg
   xmlns:dc="http://purl.org/dc/elements/1.1/"
   xmlns:cc="http://creativecommons.org/ns#"
   xmlns:rdf="http://www.w3.org/1999/02/22-rdf-syntax-ns#"
   xmlns:svg="http://www.w3.org/2000/svg"
   xmlns="http://www.w3.org/2000/svg"
   xmlns:sodipodi="http://sodipodi.sourceforge.net/DTD/sodipodi-0.dtd"
   xmlns:inkscape="http://www.inkscape.org/namespaces/inkscape"
   inkscape:version="1.0 (4035a4fb49, 2020-05-01)"
   sodipodi:docname="learn.svg"
   xml:space="preserve"
   style="enable-background:new 0 0 667 666;"
   viewBox="0 0 667 666"
   y="0px"
   x="0px"
   id="Layer_1"
   version="1.1"><metadata
   id="metadata319"><rdf:RDF><cc:Work
       rdf:about=""><dc:format>image/svg+xml</dc:format><dc:type
         rdf:resource="http://purl.org/dc/dcmitype/StillImage" /><dc:title></dc:title></cc:Work></rdf:RDF></metadata><defs
   id="defs317"><marker
     inkscape:isstock="true"
     style="overflow:visible"
     id="Arrow1Send"
     refX="0"
     refY="0"
     orient="auto"
     inkscape:stockid="Arrow1Send"><path
       transform="matrix(-0.2,0,0,-0.2,-1.2,0)"
       style="fill:#000000;fill-opacity:1;fill-rule:evenodd;stroke:#000000;stroke-width:1.00000003pt;stroke-opacity:1"
       d="M 0,0 5,-5 -12.5,0 5,5 Z"
       id="path4714"
       inkscape:connector-curvature="0" /></marker><clipPath
     id="clipPath69-0"><path
       d="m 409.441,126.252 v -43.63 h 147.796 v 43.63"
       id="path71-2"
       inkscape:connector-curvature="0" /></clipPath><clipPath
     id="clipPath101-1"><path
       d="m 409.441,126.252 v -43.63 h 147.796 v 43.63"
       id="path103-6"
       inkscape:connector-curvature="0" /></clipPath><clipPath
     id="clipPath69"><path
       d="m 409.441,126.252 v -43.63 h 147.796 v 43.63"
       id="path71"
       inkscape:connector-curvature="0" /></clipPath><clipPath
     id="clipPath101"><path
       d="m 409.441,126.252 v -43.63 h 147.796 v 43.63"
       id="path103"
       inkscape:connector-curvature="0" /></clipPath></defs><sodipodi:namedview
   inkscape:document-rotation="0"
   inkscape:current-layer="Layer_1"
   inkscape:window-maximized="1"
   inkscape:window-y="-8"
   inkscape:window-x="-8"
   inkscape:cy="320.27635"
   inkscape:cx="392.17183"
   inkscape:zoom="1.0022655"
   showgrid="false"
   id="namedview315"
   inkscape:window-height="987"
   inkscape:window-width="1680"
   inkscape:pageshadow="2"
   inkscape:pageopacity="0"
   guidetolerance="10"
   gridtolerance="10"
   objecttolerance="10"
   borderopacity="1"
   bordercolor="#666666"
   pagecolor="#ffffff" />
<style
   id="style2"
   type="text/css">
	.st0{fill:none;stroke:#000000;stroke-width:2;stroke-linecap:round;stroke-linejoin:round;stroke-miterlimit:10;}
</style>


<g
   transform="translate(0,-76)"
   id="g884"><path
     style="fill:#000000;fill-opacity:1;fill-rule:evenodd;stroke:#000000;stroke-width:0.328272;stroke-miterlimit:4;stroke-dasharray:none;stroke-opacity:1"
     id="path884"
     sodipodi:type="arc"
     sodipodi:cx="275.78647"
     sodipodi:cy="449.70511"
     sodipodi:rx="8.337533"
     sodipodi:ry="8.337533"
     sodipodi:start="4.7154259"
     sodipodi:end="4.7152625"
     d="m 275.81179,441.36761 a 8.337533,8.337533 0 0 1 8.31217,8.36248 8.337533,8.337533 0 0 1 -8.36213,8.31252 8.337533,8.337533 0 0 1 -8.31286,-8.3618 8.337533,8.337533 0 0 1 8.36146,-8.3132"
     sodipodi:open="true"
     sodipodi:arc-type="arc" /><path
     style="fill:none;stroke:#000000;stroke-width:9.84951;stroke-linecap:butt;stroke-linejoin:miter;stroke-miterlimit:4;stroke-dasharray:none;stroke-opacity:1"
     d="m 416.03863,198.52171 c 0,110.91967 0,143.22866 0,259.85095 0,0 -10.2388,103.35474 -134.43054,103.35474 -142.05288,0 -151.23436,-110.33892 -151.23436,-110.33892 0,-95.80529 0,-149.82652 0,-248.31699 0,0 7.73019,-109.220127 138.57972,-109.220127 139.0368,0 147.08518,104.670347 147.08518,104.670347 z"
     id="path857"
     sodipodi:nodetypes="sssssss" /><path
     style="fill:none;stroke:#000000;stroke-width:6;stroke-linecap:butt;stroke-linejoin:miter;stroke-miterlimit:4;stroke-dasharray:none;stroke-opacity:1"
     d="M 365.1727,340.22921 384.12975,324.26538 365.1727,307.3038"
     id="path873" /><path
     sodipodi:nodetypes="sssssss"
     id="path875"
     d="m 558.19948,238.50729 c 0,73.41447 0,109.03926 0,170.81378 0,28.85452 -4.08552,67.94057 -53.64075,67.94057 -56.68223,0 -60.34585,-41.08068 -60.34585,-72.53163 0,-71.16818 0,-92.75319 0,-163.23191 0,-30.20739 3.08452,-71.79618 55.29637,-71.79618 55.47874,0 58.69023,38.65994 58.69023,68.80537 z"
     style="fill:none;stroke:#000000;stroke-width:9;stroke-linecap:butt;stroke-linejoin:miter;stroke-miterlimit:4;stroke-dasharray:none;stroke-opacity:1" /><path
     id="path877"
     d="M 472.53844,340.30383 455.157,324.26755 472.53844,307.229"
     style="fill:none;stroke:#000000;stroke-width:6;stroke-linecap:butt;stroke-linejoin:miter;stroke-miterlimit:4;stroke-dasharray:none;stroke-opacity:1" /></g><path
   sodipodi:arc-type="arc"
   style="fill:none;fill-opacity:1;fill-rule:evenodd;stroke:#000000;stroke-width:2.69147;stroke-miterlimit:4;stroke-dasharray:none;stroke-opacity:1"
   id="path869"
   sodipodi:type="arc"
   sodipodi:cx="277.37616"
   sodipodi:cy="618.10663"
   sodipodi:rx="20.546522"
   sodipodi:ry="22.978426"
   sodipodi:start="6.2744123"
   sodipodi:end="3.1441689"
   d="m 297.92189,617.90504 a 20.546522,22.978426 0 0 1 -10.18381,20.04391 20.546522,22.978426 0 0 1 -20.6137,0.0714 20.546522,22.978426 0 0 1 -10.29467,-19.97295"
   sodipodi:open="true" /><path
   sodipodi:arc-type="arc"
   sodipodi:open="true"
   d="m 297.92189,-555.10222 a 20.546522,22.978426 0 0 1 -19.97582,23.17117"
   sodipodi:end="1.5430552"
   sodipodi:start="6.2744123"
   sodipodi:ry="22.978426"
   sodipodi:rx="20.546522"
   sodipodi:cy="-554.90063"
   sodipodi:cx="277.37616"
   sodipodi:type="arc"
   id="path871"
   style="fill:none;fill-opacity:1;fill-rule:evenodd;stroke:#000000;stroke-width:2.69147;stroke-miterlimit:4;stroke-dasharray:none;stroke-opacity:1"
   transform="scale(1,-1)" /><path
   style="fill:none;stroke:#000000;stroke-width:2.69147;stroke-linecap:butt;stroke-linejoin:miter;stroke-miterlimit:4;stroke-dasharray:none;stroke-opacity:1"
   d="m 256.82967,554.45785 c 0,0 0,63.84056 0,63.84056 v 0"
   id="path873-0"
   inkscape:connector-curvature="0" /><path
   style="fill:none;stroke:#000000;stroke-width:2.69147;stroke-linecap:butt;stroke-linejoin:miter;stroke-miterlimit:4;stroke-dasharray:none;stroke-opacity:1"
   d="m 297.92186,554.60024 v 63.63945"
   id="path875-7"
   inkscape:connector-curvature="0" /><g
   id="g891"
   transform="matrix(0.63891212,0,0,0.84664044,61.012322,231.40756)"><path
     sodipodi:arc-type="arc"
     style="fill:none;fill-opacity:1;fill-rule:evenodd;stroke:#000000;stroke-width:3;stroke-miterlimit:4;stroke-dasharray:none;stroke-opacity:1"
     id="path879"
     sodipodi:type="arc"
     sodipodi:cx="338.64407"
     sodipodi:cy="453.50793"
     sodipodi:rx="24.219294"
     sodipodi:ry="24.219294"
     sodipodi:start="6.2744123"
     sodipodi:end="3.1441689"
     d="m 362.86244,453.29546 a 24.219294,24.219294 0 0 1 -12.00421,21.12631 24.219294,24.219294 0 0 1 -24.29848,0.0753 24.219294,24.219294 0 0 1 -12.13489,-21.05152"
     sodipodi:open="true" /><path
     sodipodi:arc-type="arc"
     sodipodi:open="true"
     d="m 362.86244,-387.10127 a 24.219294,24.219294 0 0 1 -12.00421,21.12631 24.219294,24.219294 0 0 1 -24.29848,0.0753 24.219294,24.219294 0 0 1 -12.13489,-21.05152"
     sodipodi:end="3.1441689"
     sodipodi:start="6.2744123"
     sodipodi:ry="24.219294"
     sodipodi:rx="24.219294"
     sodipodi:cy="-386.88879"
     sodipodi:cx="338.64407"
     sodipodi:type="arc"
     id="path881"
     style="fill:none;fill-opacity:1;fill-rule:evenodd;stroke:#000000;stroke-width:3;stroke-miterlimit:4;stroke-dasharray:none;stroke-opacity:1"
     transform="scale(1,-1)" /><path
     style="fill:none;stroke:#000000;stroke-width:3;stroke-linecap:butt;stroke-linejoin:miter;stroke-miterlimit:4;stroke-dasharray:none;stroke-opacity:1"
     d="m 314.42486,386.42206 c 0,0 0,67.28805 0,67.28805 v 0"
     id="path883"
     inkscape:connector-curvature="0" /><path
     style="fill:none;stroke:#000000;stroke-width:3;stroke-linecap:butt;stroke-linejoin:miter;stroke-miterlimit:4;stroke-dasharray:none;stroke-opacity:1"
     d="m 362.86244,386.57214 v 67.07607"
     id="path885"
     inkscape:connector-curvature="0" /></g><path
   style="fill:none;stroke:#000000;stroke-width:1.96102;stroke-linecap:butt;stroke-linejoin:miter;stroke-miterlimit:4;stroke-dasharray:none;stroke-opacity:1"
   d="m 275.85995,489.52269 c 0,0 0,43.68894 0,43.68894 v 0"
   id="path897"
   inkscape:connector-curvature="0" /><path
   style="fill:none;stroke:#000000;stroke-width:1.9628;stroke-linecap:butt;stroke-linejoin:miter;stroke-miterlimit:4;stroke-dasharray:none;stroke-opacity:1"
   d="m 278.8922,489.61749 v 43.6303"
   id="path899"
   inkscape:connector-curvature="0" /><path
   sodipodi:arc-type="arc"
   transform="scale(1,-1)"
   style="fill:none;fill-opacity:1;fill-rule:evenodd;stroke:#000000;stroke-width:2.69147;stroke-miterlimit:4;stroke-dasharray:none;stroke-opacity:1"
   id="path907"
   sodipodi:type="arc"
   sodipodi:cx="277.37616"
   sodipodi:cy="-554.90063"
   sodipodi:rx="20.546522"
   sodipodi:ry="22.978426"
   sodipodi:start="1.5988399"
   sodipodi:end="3.1441689"
   d="m 276.80004,-531.93124 a 20.546522,22.978426 0 0 1 -19.97033,-23.02859"
   sodipodi:open="true" /></svg>
