<?xml version="1.0" encoding="UTF-8" standalone="no"?>
<svg
   xmlns:dc="http://purl.org/dc/elements/1.1/"
   xmlns:cc="http://creativecommons.org/ns#"
   xmlns:rdf="http://www.w3.org/1999/02/22-rdf-syntax-ns#"
   xmlns:svg="http://www.w3.org/2000/svg"
   xmlns="http://www.w3.org/2000/svg"
   xmlns:sodipodi="http://sodipodi.sourceforge.net/DTD/sodipodi-0.dtd"
   xmlns:inkscape="http://www.inkscape.org/namespaces/inkscape"
   version="1.1"
   id="Layer_1"
   x="0px"
   y="0px"
   viewBox="0 0 667 666"
   style="enable-background:new 0 0 667 666;"
   xml:space="preserve"
   sodipodi:docname="icon.svg"
   inkscape:version="1.0 (4035a4fb49, 2020-05-01)"><metadata
   id="metadata319"><rdf:RDF><cc:Work
       rdf:about=""><dc:format>image/svg+xml</dc:format><dc:type
         rdf:resource="http://purl.org/dc/dcmitype/StillImage" /><dc:title /></cc:Work></rdf:RDF></metadata><defs
   id="defs317"><marker
     inkscape:stockid="Arrow1Send"
     orient="auto"
     refY="0"
     refX="0"
     id="Arrow1Send"
     style="overflow:visible"
     inkscape:isstock="true"><path
       inkscape:connector-curvature="0"
       id="path4714"
       d="M 0,0 5,-5 -12.5,0 5,5 Z"
       style="fill:#000000;fill-opacity:1;fill-rule:evenodd;stroke:#000000;stroke-width:1.00000003pt;stroke-opacity:1"
       transform="matrix(-0.2,0,0,-0.2,-1.2,0)" /></marker><clipPath
     id="clipPath69-0"><path
       inkscape:connector-curvature="0"
       id="path71-2"
       d="m 409.441,126.252 v -43.63 h 147.796 v 43.63" /></clipPath><clipPath
     id="clipPath101-1"><path
       inkscape:connector-curvature="0"
       id="path103-6"
       d="m 409.441,126.252 v -43.63 h 147.796 v 43.63" /></clipPath><clipPath
     id="clipPath69"><path
       inkscape:connector-curvature="0"
       id="path71"
       d="m 409.441,126.252 v -43.63 h 147.796 v 43.63" /></clipPath><clipPath
     id="clipPath101"><path
       inkscape:connector-curvature="0"
       id="path103"
       d="m 409.441,126.252 v -43.63 h 147.796 v 43.63" /></clipPath></defs><sodipodi:namedview
   pagecolor="#ffffff"
   bordercolor="#666666"
   borderopacity="1"
   objecttolerance="10"
   gridtolerance="10"
   guidetolerance="10"
   inkscape:pageopacity="0"
   inkscape:pageshadow="2"
   inkscape:window-width="1680"
   inkscape:window-height="987"
   id="namedview315"
   showgrid="false"
   inkscape:zoom="0.35435437"
   inkscape:cx="1177.4039"
   inkscape:cy="928.72429"
   inkscape:window-x="-8"
   inkscape:window-y="-8"
   inkscape:window-maximized="1"
   inkscape:current-layer="Layer_1"
   inkscape:document-rotation="0" />
<style
   type="text/css"
   id="style2">
	.st0{fill:none;stroke:#000000;stroke-width:2;stroke-linecap:round;stroke-linejoin:round;stroke-miterlimit:10;}
</style>


<path
   style="clip-rule:evenodd;fill-rule:evenodd;stroke-width:4.964;stroke-miterlimit:4;stroke-dasharray:none"
   d="m 418.93472,259.95297 6.72604,10.08658 c -9.6994,5.15745 -19.62714,9.9327 -29.76832,14.31083 -4.09024,-4.63625 -10.07666,-7.55998 -16.74809,-7.55998 -12.26076,0 -22.21333,9.87811 -22.33246,22.10908 -13.88394,4.37318 -28.08556,8.02658 -42.56021,10.91555 -3.82714,-6.80546 -11.11907,-11.40201 -19.48319,-11.40201 -10.66239,0 -19.5775,7.47063 -21.80131,17.46785 -12.91103,1.23105 -25.99579,1.86146 -39.22946,1.86146 -2.73509,0 -5.46026,-0.0496 -8.18045,-0.10428 l 38.45012,-57.68513 h -11.88847 c -5.63398,0 -10.4688,-2.89393 -13.12942,-7.86276 -2.66064,-4.96884 -2.38762,-10.59787 0.73961,-15.28871 l 32.75161,-49.12742 c 10.06673,4.69085 20.34689,8.99949 30.82563,12.90109 0.0844,12.26572 10.05183,22.18354 22.33741,22.18354 7.50041,0 14.13709,-3.69809 18.18761,-9.37179 29.78322,7.78831 60.83719,12.42455 92.79457,13.52654 l 6.58705,9.8781 c 3.12725,4.69085 3.40026,10.31988 0.73962,15.28872 -2.66063,4.97876 -7.49544,7.87269 -13.12944,7.87269 z m -93.29096,-66.97252 c -4.11009,0 -7.44581,3.33571 -7.44581,7.4458 0,4.11009 3.33572,7.44579 7.44581,7.44579 4.11008,0 7.44579,-3.3357 7.44579,-7.44579 0,-4.11009 -3.33571,-7.4458 -7.44579,-7.4458 z m 53.50059,98.70156 c -4.1101,0 -7.44581,3.33572 -7.44581,7.44581 0,4.11008 3.33571,7.44579 7.44581,7.44579 4.11007,0 7.44578,-3.33571 7.44578,-7.44579 0,-4.11009 -3.33571,-7.44581 -7.44578,-7.44581 z m -84.37586,21.62263 c -4.11008,0 -7.4458,3.33571 -7.4458,7.44578 0,4.1101 3.33572,7.44581 7.4458,7.44581 4.11009,0 7.44581,-3.33571 7.44581,-7.44581 0,-4.11007 -3.33572,-7.44578 -7.44581,-7.44578 z m -28.03097,79.06449 c 4.11008,0 7.44581,3.33573 7.44581,7.44581 0,4.11008 -3.33573,7.44581 -7.44581,7.44581 -4.11008,0 -7.4458,-3.33573 -7.4458,-7.44581 0,-4.11008 3.33572,-7.44581 7.4458,-7.44581 z m 81.35782,23.07207 c 4.11008,0 7.44581,3.33573 7.44581,7.4458 0,4.11009 -3.33573,7.44581 -7.44581,7.44581 -4.11009,0 -7.44581,-3.33572 -7.44581,-7.44581 0,-4.11505 3.33076,-7.4458 7.44581,-7.4458 z m 85.75083,6.11052 c 4.11009,0 7.44581,3.33571 7.44581,7.44581 0,4.11007 -3.33572,7.44579 -7.44581,7.44579 -4.11008,0 -7.44579,-3.33572 -7.44579,-7.44579 0,-4.1101 3.33571,-7.44581 7.44579,-7.44581 z m -19.00665,83.67594 c 4.11008,0 7.44581,3.33572 7.44581,7.44581 0,4.11008 -3.33573,7.4458 -7.44581,7.4458 -4.11008,0 -7.44581,-3.33572 -7.44581,-7.4458 0,-4.11009 3.33076,-7.44581 7.44581,-7.44581 z m -88.01932,16.33113 c 4.11007,0 7.44579,3.33572 7.44579,7.44581 0,4.11008 -3.33572,7.4458 -7.44579,7.4458 -4.11009,0 -7.44581,-3.33572 -7.44581,-7.4458 0,-4.11009 3.33572,-7.44581 7.44581,-7.44581 z m -93.02292,-3.21162 c 4.11009,0 7.44581,3.33572 7.44581,7.4458 0,4.11009 -3.33572,7.44581 -7.44581,7.44581 -4.11008,0 -7.44579,-3.33572 -7.44579,-7.44581 0,-4.11008 3.33571,-7.4458 7.44579,-7.4458 z M 433.96531,282.49885 c -10.57801,5.66875 -21.42406,10.90562 -32.50838,15.68088 0.01,0.31767 0.0248,0.63536 0.0248,0.95305 0,12.33521 -10.00219,22.33742 -22.33741,22.33742 -7.09337,0 -13.41734,-3.30594 -17.50756,-8.46836 -14.61861,4.61639 -29.58466,8.46836 -44.8436,11.49631 -1.78203,10.54823 -10.96518,18.5897 -22.02469,18.5897 -8.77115,0 -16.36588,-5.05818 -20.01928,-12.4196 -13.49676,1.29557 -27.17718,1.96073 -41.01148,1.96073 -6.00133,0 -11.96791,-0.15885 -17.90965,-0.40208 l -5.87722,8.81583 c -3.12723,4.69085 -3.40024,10.31989 -0.73961,15.28871 2.66064,4.96883 7.49048,7.86278 13.12943,7.86278 h 11.88847 l -6.25448,9.38667 c 7.32171,3.91649 14.77743,7.61458 22.3523,11.08929 4.0803,-4.42281 9.92278,-7.19265 16.41552,-7.19265 12.33521,0 22.33742,10.0022 22.33742,22.33741 l -0.005,0.27301 c 13.00535,4.41784 26.30354,8.20032 39.85988,11.3077 3.90657,-6.49771 11.02475,-10.84605 19.16053,-10.84605 10.8808,0 19.94482,7.77837 21.93037,18.08337 14.02789,1.73736 28.27917,2.76486 42.7141,3.04285 3.03291,-8.74138 11.33747,-15.0157 21.10637,-15.0157 9.28243,0 17.24448,5.66378 20.61495,13.72509 9.90788,-0.80911 19.71152,-1.97065 29.40595,-3.46974 l -35.14947,-52.72125 h 11.88846 c 5.63399,0 10.4688,-2.89395 13.12943,-7.86278 2.66064,-4.96882 2.38763,-10.59786 -0.73961,-15.28871 z M 280.83987,175.1403 c 8.9449,4.10511 18.06353,7.90248 27.33603,11.36727 4.09023,-5.12769 10.39434,-8.41376 17.46786,-8.41376 11.8835,0 21.59283,9.27746 22.29273,20.98227 25.27603,6.58705 51.50015,10.82123 78.42417,12.45435 L 353.86335,102.77702 c -2.8443,-4.268929 -7.25717,-6.631727 -12.38981,-6.631727 -5.13265,0 -9.54553,2.362798 -12.38982,6.631727 z m 212.0962,255.37617 c -12.37492,2.11957 -24.92855,3.708 -37.64102,4.7405 -2.70531,9.29235 -11.28287,16.08294 -21.44888,16.08294 -9.67955,0 -17.91459,-6.1552 -21.01702,-14.76255 -15.20929,-0.27799 -30.22499,-1.36507 -45.0074,-3.20667 -3.75764,7.05366 -11.17864,11.85373 -19.72641,11.85373 -11.27792,0 -20.60007,-8.35916 -22.119,-19.22011 -14.30588,-3.26622 -28.33377,-7.25717 -42.04894,-11.9232 -4.10016,4.93407 -10.27521,8.07621 -17.18988,8.07621 -12.33521,0 -22.33741,-10.0022 -22.33741,-22.33742 0,-0.48646 0.0149,-0.96796 0.0496,-1.44447 -8.41376,-3.84701 -16.6786,-7.96206 -24.78459,-12.33522 l -39.49751,59.24377 c -3.12724,4.69085 -3.40025,10.31988 -0.73963,15.28871 2.66064,4.96884 7.49049,7.86278 13.12945,7.86278 h 11.88846 l -25.19163,37.78993 c 11.48639,3.37543 23.18622,6.25945 35.06973,8.6272 3.82715,-6.80049 11.11906,-11.39703 19.47822,-11.39703 10.66239,0 19.57751,7.4706 21.80132,17.46288 12.89116,1.22608 25.96103,1.85649 39.17484,1.85649 3.55413,0 7.09835,-0.0496 10.63261,-0.13898 2.74503,-9.23281 11.29281,-15.96877 21.41414,-15.96877 8.92504,0 16.62399,5.23192 20.20294,12.79685 15.46742,-1.97065 30.66182,-4.80999 45.53854,-8.45346 0.85379,-11.56086 10.49859,-20.67452 22.27288,-20.67452 7.18768,0 13.5861,3.40024 17.67138,8.67684 17.73093,-6.3339 34.896,-13.85416 51.40086,-22.46647 l -5.41063,-8.11096 h 11.88848 c 5.63399,0 10.4688,-2.89394 13.12943,-7.86278 2.66064,-4.96883 2.38763,-10.59786 -0.73961,-15.28871 z m -0.71976,58.48927 c -17.65151,9.29733 -36.03769,17.38347 -55.0493,24.15419 -0.25813,12.11184 -10.15608,21.85094 -22.33245,21.85094 -7.61459,0 -14.33565,-3.81224 -18.37128,-9.62493 -15.65605,3.85196 -31.65459,6.8402 -47.94105,8.90021 -2.37273,9.78875 -11.19353,17.05585 -21.707,17.05585 -9.3271,0 -17.31397,-5.7134 -20.65962,-13.82933 -3.78247,0.0993 -7.57983,0.15387 -11.38712,0.15387 -13.81941,0 -27.47998,-0.66515 -40.96185,-1.95575 -3.6534,7.36141 -11.24316,12.4196 -20.01928,12.4196 -11.0595,0 -20.24266,-8.04147 -22.02469,-18.58969 -13.98322,-2.77481 -27.71825,-6.23462 -41.17034,-10.34471 l -20.22279,30.3342 c -3.12724,4.69086 -3.40025,10.31989 -0.73962,15.28872 2.67553,4.96388 7.50538,7.8578 13.14433,7.8578 h 357.39857 c 5.634,0 10.46881,-2.89392 13.12944,-7.86275 2.66064,-4.96885 2.38762,-10.59787 -0.73962,-15.28873 z"
   id="path64" /></svg>
