<?xml version="1.0" encoding="UTF-8" standalone="no"?>
<!-- Generator: Adobe Illustrator 22.1.0, SVG Export Plug-In . SVG Version: 6.00 Build 0)  -->

<svg
   xmlns:dc="http://purl.org/dc/elements/1.1/"
   xmlns:cc="http://creativecommons.org/ns#"
   xmlns:rdf="http://www.w3.org/1999/02/22-rdf-syntax-ns#"
   xmlns:svg="http://www.w3.org/2000/svg"
   xmlns="http://www.w3.org/2000/svg"
   xmlns:sodipodi="http://sodipodi.sourceforge.net/DTD/sodipodi-0.dtd"
   xmlns:inkscape="http://www.inkscape.org/namespaces/inkscape"
   version="1.1"
   id="Layer_1"
   x="0px"
   y="0px"
   viewBox="0 0 667 666"
   style="enable-background:new 0 0 667 666;"
   xml:space="preserve"
   sodipodi:docname="icon.svg"
   inkscape:version="0.92.4 (5da689c313, 2019-01-14)"><metadata
   id="metadata319"><rdf:RDF><cc:Work
       rdf:about=""><dc:format>image/svg+xml</dc:format><dc:type
         rdf:resource="http://purl.org/dc/dcmitype/StillImage" /></cc:Work></rdf:RDF></metadata><defs
   id="defs317"><marker
     inkscape:stockid="Arrow1Send"
     orient="auto"
     refY="0"
     refX="0"
     id="Arrow1Send"
     style="overflow:visible"
     inkscape:isstock="true"><path
       inkscape:connector-curvature="0"
       id="path4714"
       d="M 0,0 5,-5 -12.5,0 5,5 Z"
       style="fill:#000000;fill-opacity:1;fill-rule:evenodd;stroke:#000000;stroke-width:1.00000003pt;stroke-opacity:1"
       transform="matrix(-0.2,0,0,-0.2,-1.2,0)" /></marker><clipPath
     id="clipPath69-0"><path
       inkscape:connector-curvature="0"
       id="path71-2"
       d="m 409.441,126.252 v -43.63 h 147.796 v 43.63" /></clipPath><clipPath
     id="clipPath101-1"><path
       inkscape:connector-curvature="0"
       id="path103-6"
       d="m 409.441,126.252 v -43.63 h 147.796 v 43.63" /></clipPath><clipPath
     id="clipPath69"><path
       inkscape:connector-curvature="0"
       id="path71"
       d="m 409.441,126.252 v -43.63 h 147.796 v 43.63" /></clipPath><clipPath
     id="clipPath101"><path
       inkscape:connector-curvature="0"
       id="path103"
       d="m 409.441,126.252 v -43.63 h 147.796 v 43.63" /></clipPath><marker
     inkscape:isstock="true"
     style="overflow:visible"
     id="Arrow1Send-4"
     refX="0"
     refY="0"
     orient="auto"
     inkscape:stockid="Arrow1Send"><path
       transform="matrix(-0.2,0,0,-0.2,-1.2,0)"
       style="fill:#000000;fill-opacity:1;fill-rule:evenodd;stroke:#000000;stroke-width:1.00000003pt;stroke-opacity:1"
       d="M 0,0 5,-5 -12.5,0 5,5 Z"
       id="path4714-7"
       inkscape:connector-curvature="0" /></marker><clipPath
     id="clipPath69-0-2"><path
       d="m 409.441,126.252 v -43.63 h 147.796 v 43.63"
       id="path71-2-4"
       inkscape:connector-curvature="0" /></clipPath><clipPath
     id="clipPath101-1-9"><path
       d="m 409.441,126.252 v -43.63 h 147.796 v 43.63"
       id="path103-6-8"
       inkscape:connector-curvature="0" /></clipPath><clipPath
     id="clipPath69-9"><path
       d="m 409.441,126.252 v -43.63 h 147.796 v 43.63"
       id="path71-3"
       inkscape:connector-curvature="0" /></clipPath><clipPath
     id="clipPath101-6"><path
       d="m 409.441,126.252 v -43.63 h 147.796 v 43.63"
       id="path103-3"
       inkscape:connector-curvature="0" /></clipPath></defs><sodipodi:namedview
   pagecolor="#ffffff"
   bordercolor="#666666"
   borderopacity="1"
   objecttolerance="10"
   gridtolerance="10"
   guidetolerance="10"
   inkscape:pageopacity="0"
   inkscape:pageshadow="2"
   inkscape:window-width="1680"
   inkscape:window-height="987"
   id="namedview315"
   showgrid="false"
   inkscape:zoom="1.4174175"
   inkscape:cx="278.55741"
   inkscape:cy="389.65324"
   inkscape:window-x="-8"
   inkscape:window-y="-8"
   inkscape:window-maximized="1"
   inkscape:current-layer="Layer_1" />
<style
   type="text/css"
   id="style2">
	.st0{fill:none;stroke:#000000;stroke-width:2;stroke-linecap:round;stroke-linejoin:round;stroke-miterlimit:10;}
</style>


<path
   style="fill:none;fill-rule:evenodd;stroke-width:3;stroke:#000000;stroke-opacity:1;stroke-miterlimit:4;stroke-dasharray:none"
   id="path856"
   sodipodi:type="arc"
   sodipodi:cx="330.25183"
   sodipodi:cy="328.76401"
   sodipodi:rx="171.61122"
   sodipodi:ry="171.61122"
   sodipodi:start="2.4065996"
   sodipodi:end="2.4059364"
   sodipodi:open="true"
   d="M 202.94455,443.8434 A 171.61122,171.61122 0 0 1 215.15133,201.47581 171.61122,171.61122 0 0 1 457.52094,213.6424 171.61122,171.61122 0 0 1 445.39454,456.01403 171.61122,171.61122 0 0 1 203.0209,443.92781" /><path
   d="M 176.85173,467.43 A 206.78455,206.78455 0 0 1 191.5604,175.3869 206.78455,206.78455 0 0 1 483.60594,190.04715 206.78455,206.78455 0 0 1 468.99411,482.09511 206.78455,206.78455 0 0 1 176.94373,467.53171"
   sodipodi:open="true"
   sodipodi:end="2.4059364"
   sodipodi:start="2.4065996"
   sodipodi:ry="206.78455"
   sodipodi:rx="206.78455"
   sodipodi:cy="328.76401"
   sodipodi:cx="330.25183"
   sodipodi:type="arc"
   id="path858"
   style="fill:none;fill-rule:evenodd;stroke:#000000;stroke-width:1;stroke-miterlimit:4;stroke-dasharray:none;stroke-opacity:1" /><path
   style="fill:none;fill-rule:evenodd;stroke:#000000;stroke-width:3;stroke-miterlimit:4;stroke-dasharray:none;stroke-opacity:1"
   id="path860"
   sodipodi:type="arc"
   sodipodi:cx="330.25183"
   sodipodi:cy="328.76401"
   sodipodi:rx="224.3712"
   sodipodi:ry="224.3712"
   sodipodi:start="2.4065996"
   sodipodi:end="2.4059364"
   sodipodi:open="true"
   d="m 163.80533,479.2233 a 224.3712,224.3712 0 0 1 15.95962,-316.88085 224.3712,224.3712 0 0 1 316.88348,15.90708 224.3712,224.3712 0 0 1 -15.85454,316.88612 224.3712,224.3712 0 0 1 -316.88874,-15.802" /><path
   d="M 158.64061,336.73524 A 171.61122,171.61122 0 0 1 330.20252,165.15279 171.61122,171.61122 0 0 1 501.86301,336.63662"
   sodipodi:end="6.282443"
   sodipodi:start="3.1417603"
   sodipodi:ry="171.61122"
   sodipodi:rx="171.61122"
   sodipodi:cy="336.76401"
   sodipodi:cx="330.25183"
   sodipodi:type="arc"
   id="path862"
   style="fill:none;fill-rule:evenodd;stroke:#000000;stroke-width:1;stroke-miterlimit:4;stroke-dasharray:none;stroke-opacity:1"
   sodipodi:open="true" /><path
   style="fill:none;stroke:#000000;stroke-width:0.5;stroke-linecap:butt;stroke-linejoin:miter;stroke-opacity:1;stroke-miterlimit:4;stroke-dasharray:none"
   d="m 239.70694,474.68343 180.09201,0.7483 v -0.24943"
   id="path864"
   inkscape:connector-curvature="0" /><path
   style="fill:none;stroke:#000000;stroke-width:2;stroke-linecap:round;stroke-linejoin:miter;stroke-opacity:1;stroke-miterlimit:4;stroke-dasharray:none"
   d="m 184.49046,337.23306 286.78919,0.35276"
   id="path866"
   inkscape:connector-curvature="0" /><path
   style="fill:none;stroke:#000000;stroke-width:0.99418741px;stroke-linecap:butt;stroke-linejoin:miter;stroke-opacity:1"
   d="m 215.0288,353.107 c 0,0 -6.57931,10.87532 -9.06529,19.04873 -1.50951,4.96297 3.76082,10.91659 9.41396,10.93538 5.97526,0.0199 10.68741,-6.94438 9.76263,-10.93538 -1.72402,-7.44018 -10.1113,-19.04873 -10.1113,-19.04873 z"
   id="path868"
   inkscape:connector-curvature="0"
   sodipodi:nodetypes="csssc" /><path
   sodipodi:nodetypes="cscc"
   inkscape:connector-curvature="0"
   id="path870"
   d="m 209.78689,372.71553 c -0.5427,4.17277 1.72196,6.41002 5.62264,6.42299 4.12295,0.0137 6.2519,-3.41976 5.86323,-7.1713 z"
   style="fill:#000000;stroke:#000000;stroke-width:0.68599284px;stroke-linecap:butt;stroke-linejoin:miter;stroke-opacity:1;fill-opacity:1" /><style
   id="style2-5"
   type="text/css">
	.st0{fill:none;stroke:#000000;stroke-width:2;stroke-linecap:round;stroke-linejoin:round;stroke-miterlimit:10;}
</style><path
   sodipodi:open="true"
   d="m 217.84181,309.56208 a 6.9039345,6.9039345 0 0 1 3.00604,7.74981 6.9039345,6.9039345 0 0 1 -6.6234,5.02259 6.9039345,6.9039345 0 0 1 -6.65133,-4.98555 6.9039345,6.9039345 0 0 1 2.96275,-7.76647"
   sodipodi:end="4.1520393"
   sodipodi:start="5.2671579"
   sodipodi:ry="6.9039345"
   sodipodi:rx="6.9039345"
   sodipodi:cy="315.43057"
   sodipodi:cx="214.20518"
   sodipodi:type="arc"
   id="path864-5"
   style="fill:none;fill-opacity:1;fill-rule:evenodd;stroke:#000000;stroke-width:0.7907815;stroke-miterlimit:4;stroke-dasharray:none;stroke-opacity:1" /><path
   sodipodi:open="true"
   d="m 214.21914,310.83695 a 4.5936484,4.5936484 0 0 1 4.57967,4.60739 4.5936484,4.5936484 0 0 1 -4.6072,4.57986 4.5936484,4.5936484 0 0 1 -4.58005,-4.60702 4.5936484,4.5936484 0 0 1 4.60682,-4.58024"
   sodipodi:end="4.7152625"
   sodipodi:start="4.7154259"
   sodipodi:ry="4.5936484"
   sodipodi:rx="4.5936484"
   sodipodi:cy="315.43057"
   sodipodi:cx="214.20518"
   sodipodi:type="arc"
   id="path866-5"
   style="fill:#000000;fill-opacity:1;fill-rule:evenodd;stroke:#000000;stroke-width:0.18086436;stroke-miterlimit:4;stroke-dasharray:none;stroke-opacity:1" /><path
   style="fill:none;fill-opacity:1;fill-rule:evenodd;stroke:#000000;stroke-width:0.7907815;stroke-miterlimit:4;stroke-dasharray:none;stroke-opacity:1"
   id="path868-3"
   sodipodi:type="arc"
   sodipodi:cx="214.20518"
   sodipodi:cy="-294.45523"
   sodipodi:rx="3.8201842"
   sodipodi:ry="3.8201842"
   sodipodi:start="6.2707056"
   sodipodi:end="3.164047"
   d="m 218.02507,-294.5029 a 3.8201842,3.8201842 0 0 1 -1.90703,3.35445 3.8201842,3.8201842 0 0 1 -3.8586,-0.0192 3.8201842,3.8201842 0 0 1 -1.87348,-3.37331"
   transform="scale(1,-1)"
   sodipodi:open="true" /><path
   style="fill:none;stroke:#000000;stroke-width:0.7907815;stroke-linecap:butt;stroke-linejoin:miter;stroke-miterlimit:4;stroke-dasharray:none;stroke-opacity:1"
   d="m 210.38521,294.41455 -0.0342,15.49566"
   id="path870-3"
   inkscape:connector-curvature="0"
   sodipodi:nodetypes="cc" /><path
   style="fill:none;stroke:#000000;stroke-width:0.7907815;stroke-linecap:butt;stroke-linejoin:miter;stroke-miterlimit:4;stroke-dasharray:none;stroke-opacity:1"
   d="m 218.02536,294.44799 8.5e-4,15.44472"
   id="path872"
   inkscape:connector-curvature="0"
   sodipodi:nodetypes="cc" /><path
   style="fill:none;stroke:#000000;stroke-width:3.14766836;stroke-linecap:round;stroke-linejoin:miter;stroke-miterlimit:4;stroke-dasharray:none;stroke-opacity:1"
   d="m 214.21488,311.91525 -0.13098,-8.32176"
   id="path874"
   inkscape:connector-curvature="0" /><path
   style="fill:none;stroke:#000000;stroke-width:1.28209233;stroke-linecap:butt;stroke-linejoin:miter;stroke-miterlimit:4;stroke-dasharray:none;stroke-opacity:1"
   d="m 223.88695,295.39481 h -2.5553"
   id="path876"
   inkscape:connector-curvature="0" /><path
   inkscape:connector-curvature="0"
   id="path878"
   d="m 223.88695,298.98467 h -2.5553"
   style="fill:none;stroke:#000000;stroke-width:1.28209233;stroke-linecap:butt;stroke-linejoin:miter;stroke-miterlimit:4;stroke-dasharray:none;stroke-opacity:1" /><path
   style="fill:none;stroke:#000000;stroke-width:1.28209233;stroke-linecap:butt;stroke-linejoin:miter;stroke-miterlimit:4;stroke-dasharray:none;stroke-opacity:1"
   d="m 223.88695,302.57453 h -2.5553"
   id="path880"
   inkscape:connector-curvature="0" /><rect
   style="opacity:1;fill:#000000;fill-opacity:1;stroke:#000000;stroke-width:2.61706233;stroke-linecap:round;stroke-linejoin:miter;stroke-miterlimit:4;stroke-dasharray:none;stroke-dashoffset:0;stroke-opacity:1;paint-order:markers stroke fill"
   id="rect1009"
   width="1.135147"
   height="19.3955"
   x="305.32779"
   y="188.9236"
   ry="0.2429935" /><rect
   ry="0.19290376"
   y="192.92171"
   x="298.45471"
   height="15.397387"
   width="1.135147"
   id="rect1011"
   style="opacity:1;fill:#000000;fill-opacity:1;stroke:#000000;stroke-width:2.33177733;stroke-linecap:round;stroke-linejoin:miter;stroke-miterlimit:4;stroke-dasharray:none;stroke-dashoffset:0;stroke-opacity:1;paint-order:markers stroke fill" /><rect
   style="opacity:1;fill:#000000;fill-opacity:1;stroke:#000000;stroke-width:1.95750558;stroke-linecap:round;stroke-linejoin:miter;stroke-miterlimit:4;stroke-dasharray:none;stroke-dashoffset:0;stroke-opacity:1;paint-order:markers stroke fill"
   id="rect1013"
   width="1.135147"
   height="10.851228"
   x="291.32779"
   y="197.46786"
   ry="0.13594791" /><rect
   ry="0.085103482"
   y="201.52621"
   x="283.70197"
   height="6.7928758"
   width="1.135147"
   id="rect1015"
   style="opacity:1;fill:#000000;fill-opacity:1;stroke:#000000;stroke-width:1.54878235;stroke-linecap:round;stroke-linejoin:miter;stroke-miterlimit:4;stroke-dasharray:none;stroke-dashoffset:0;stroke-opacity:1;paint-order:markers stroke fill" /><rect
   style="opacity:1;fill:none;fill-opacity:1;stroke:#000000;stroke-width:2.02946806;stroke-linecap:round;stroke-linejoin:miter;stroke-miterlimit:4;stroke-dasharray:none;stroke-dashoffset:0;stroke-opacity:1;paint-order:markers stroke fill"
   id="rect1017"
   width="31.531969"
   height="17.980639"
   x="337.45651"
   y="190.63004"
   ry="2.2990677" /><rect
   ry="1.1814809"
   y="194.8605"
   x="368.60989"
   height="9.2401714"
   width="4.2246423"
   id="rect1019"
   style="opacity:1;fill:#000000;fill-opacity:1;stroke:#000000;stroke-width:0.53252387;stroke-linecap:round;stroke-linejoin:miter;stroke-miterlimit:4;stroke-dasharray:none;stroke-dashoffset:0;stroke-opacity:1;paint-order:markers stroke fill" /><rect
   ry="0.13594791"
   y="194.21613"
   x="341.70197"
   height="10.851228"
   width="1.135147"
   id="rect1021"
   style="opacity:1;fill:#000000;fill-opacity:1;stroke:#000000;stroke-width:1.95750558;stroke-linecap:round;stroke-linejoin:miter;stroke-miterlimit:4;stroke-dasharray:none;stroke-dashoffset:0;stroke-opacity:1;paint-order:markers stroke fill" /><rect
   style="opacity:1;fill:#000000;fill-opacity:1;stroke:#000000;stroke-width:1.95750558;stroke-linecap:round;stroke-linejoin:miter;stroke-miterlimit:4;stroke-dasharray:none;stroke-dashoffset:0;stroke-opacity:1;paint-order:markers stroke fill"
   id="rect1023"
   width="1.135147"
   height="10.851228"
   x="347.70197"
   y="194.21613"
   ry="0.13594791" /><rect
   ry="0.13594791"
   y="194.21613"
   x="353.20306"
   height="10.851228"
   width="1.135147"
   id="rect1025"
   style="opacity:1;fill:#000000;fill-opacity:1;stroke:#000000;stroke-width:1.95750558;stroke-linecap:round;stroke-linejoin:miter;stroke-miterlimit:4;stroke-dasharray:none;stroke-dashoffset:0;stroke-opacity:1;paint-order:markers stroke fill" /><rect
   style="opacity:1;fill:#000000;fill-opacity:1;stroke:#000000;stroke-width:1.95750558;stroke-linecap:round;stroke-linejoin:miter;stroke-miterlimit:4;stroke-dasharray:none;stroke-dashoffset:0;stroke-opacity:1;paint-order:markers stroke fill"
   id="rect1027"
   width="1.135147"
   height="10.851228"
   x="358.82889"
   y="194.21613"
   ry="0.13594791" /><rect
   ry="0.13594791"
   y="194.21613"
   x="364.32999"
   height="10.851228"
   width="1.135147"
   id="rect1029"
   style="opacity:1;fill:#000000;fill-opacity:1;stroke:#000000;stroke-width:1.95750558;stroke-linecap:round;stroke-linejoin:miter;stroke-miterlimit:4;stroke-dasharray:none;stroke-dashoffset:0;stroke-opacity:1;paint-order:markers stroke fill" /><path
   style="fill:#000000;stroke:none;stroke-width:1px;stroke-linecap:butt;stroke-linejoin:miter;stroke-opacity:1;fill-opacity:1"
   d="m 251.30567,237.47083 3.49209,3.24266 25.69179,-0.24944 3.42973,-3.05558 -3.36737,-3.11793 -25.87887,0.12471 z"
   id="path1031"
   inkscape:connector-curvature="0" /><path
   inkscape:connector-curvature="0"
   id="path1033"
   d="m 251.30567,237.47083 3.49209,3.24266 25.69179,-0.24944 3.42973,-3.05558 -3.36737,-3.11793 -25.87887,0.12471 z"
   style="fill:#000000;stroke:none;stroke-width:1px;stroke-linecap:butt;stroke-linejoin:miter;stroke-opacity:1;fill-opacity:1" /><path
   style="fill:#000000;fill-opacity:1;stroke:none;stroke-width:1px;stroke-linecap:butt;stroke-linejoin:miter;stroke-opacity:1"
   d="m 317.30567,237.47083 3.49209,3.24266 25.69179,-0.24944 3.42973,-3.05558 -3.36737,-3.11793 -25.87887,0.12471 z"
   id="path1047"
   inkscape:connector-curvature="0" /><path
   style="fill:#000000;fill-opacity:1;stroke:none;stroke-width:1px;stroke-linecap:butt;stroke-linejoin:miter;stroke-opacity:1"
   d="m 251.30567,278.97195 3.49209,3.24266 25.69179,-0.24944 3.42973,-3.05558 -3.36737,-3.11793 -25.87887,0.12471 z"
   id="path1049"
   inkscape:connector-curvature="0" /><path
   inkscape:connector-curvature="0"
   id="path1051"
   d="m 317.30567,278.97195 3.49209,3.24266 25.69179,-0.24944 3.42973,-3.05558 -3.36737,-3.11793 -25.87887,0.12471 z"
   style="fill:#000000;fill-opacity:1;stroke:none;stroke-width:1px;stroke-linecap:butt;stroke-linejoin:miter;stroke-opacity:1" /><path
   inkscape:connector-curvature="0"
   id="path1053"
   d="m 251.30567,320.72251 3.49209,3.24266 25.69179,-0.24944 3.42973,-3.05558 -3.36737,-3.11793 -25.87887,0.12471 z"
   style="fill:#000000;fill-opacity:1;stroke:none;stroke-width:1px;stroke-linecap:butt;stroke-linejoin:miter;stroke-opacity:1" /><path
   style="fill:#000000;fill-opacity:1;stroke:none;stroke-width:1px;stroke-linecap:butt;stroke-linejoin:miter;stroke-opacity:1"
   d="m 317.30567,320.72251 3.49209,3.24266 25.69179,-0.24944 3.42973,-3.05558 -3.36737,-3.11793 -25.87887,0.12471 z"
   id="path1055"
   inkscape:connector-curvature="0" /><path
   style="fill:#000000;fill-opacity:1;stroke:none;stroke-width:1px;stroke-linecap:butt;stroke-linejoin:miter;stroke-opacity:1"
   d="m 251.30567,353.96971 3.49209,3.24266 25.69179,-0.24944 3.42973,-3.05558 -3.36737,-3.11793 -25.87887,0.12471 z"
   id="path1057"
   inkscape:connector-curvature="0" /><path
   inkscape:connector-curvature="0"
   id="path1059"
   d="m 317.30567,353.96971 3.49209,3.24266 25.69179,-0.24944 3.42973,-3.05558 -3.36737,-3.11793 -25.87887,0.12471 z"
   style="fill:#000000;fill-opacity:1;stroke:none;stroke-width:1px;stroke-linecap:butt;stroke-linejoin:miter;stroke-opacity:1" /><path
   inkscape:connector-curvature="0"
   id="path1061"
   d="m 251.30567,395.47083 3.49209,3.24266 25.69179,-0.24944 3.42973,-3.05558 -3.36737,-3.11793 -25.87887,0.12471 z"
   style="fill:#000000;fill-opacity:1;stroke:none;stroke-width:1px;stroke-linecap:butt;stroke-linejoin:miter;stroke-opacity:1" /><path
   style="fill:#000000;fill-opacity:1;stroke:none;stroke-width:1px;stroke-linecap:butt;stroke-linejoin:miter;stroke-opacity:1"
   d="m 317.30567,395.47083 3.49209,3.24266 25.69179,-0.24944 3.42973,-3.05558 -3.36737,-3.11793 -25.87887,0.12471 z"
   id="path1063"
   inkscape:connector-curvature="0" /><path
   style="fill:#000000;fill-opacity:1;stroke:none;stroke-width:1px;stroke-linecap:butt;stroke-linejoin:miter;stroke-opacity:1"
   d="m 251.30567,437.34611 3.49209,3.24266 25.69179,-0.24944 3.42973,-3.05558 -3.36737,-3.11793 -25.87887,0.12471 z"
   id="path1065"
   inkscape:connector-curvature="0" /><path
   inkscape:connector-curvature="0"
   id="path1067"
   d="m 317.30567,437.34611 3.49209,3.24266 25.69179,-0.24944 3.42973,-3.05558 -3.36737,-3.11793 -25.87887,0.12471 z"
   style="fill:#000000;fill-opacity:1;stroke:none;stroke-width:1px;stroke-linecap:butt;stroke-linejoin:miter;stroke-opacity:1" /><path
   inkscape:connector-curvature="0"
   id="path1069"
   d="m 250.22518,435.84858 3.27361,-4.12527 -0.0208,-30.60572 -3.02494,-4.11776 -3.14777,3.97804 -0.10556,30.82724 z"
   style="fill:#000000;fill-opacity:1;stroke:none;stroke-width:1.09142518px;stroke-linecap:butt;stroke-linejoin:miter;stroke-opacity:1" /><path
   style="fill:#000000;fill-opacity:1;stroke:none;stroke-width:1.09142518px;stroke-linecap:butt;stroke-linejoin:miter;stroke-opacity:1"
   d="m 284.84878,435.84858 3.27361,-4.12527 -0.0208,-30.60572 -3.02494,-4.11776 -3.14777,3.97804 -0.10556,30.82724 z"
   id="path1071"
   inkscape:connector-curvature="0" /><path
   style="fill:#000000;fill-opacity:1;stroke:none;stroke-width:1.09142518px;stroke-linecap:butt;stroke-linejoin:miter;stroke-opacity:1"
   d="m 316.22518,435.84858 3.27361,-4.12527 -0.0208,-30.60572 -3.02494,-4.11776 -3.14777,3.97804 -0.10556,30.82724 z"
   id="path1075"
   inkscape:connector-curvature="0" /><path
   inkscape:connector-curvature="0"
   id="path1077"
   d="m 350.84878,435.84858 3.27361,-4.12527 -0.0208,-30.60572 -3.02494,-4.11776 -3.14777,3.97804 -0.10556,30.82724 z"
   style="fill:#000000;fill-opacity:1;stroke:none;stroke-width:1.09142518px;stroke-linecap:butt;stroke-linejoin:miter;stroke-opacity:1" /><path
   style="fill:#000000;fill-opacity:1;stroke:none;stroke-width:1.09142518px;stroke-linecap:butt;stroke-linejoin:miter;stroke-opacity:1"
   d="m 250.22518,393.84858 3.27361,-4.12527 -0.0208,-30.60572 -3.02494,-4.11776 -3.14777,3.97804 -0.10556,30.82724 z"
   id="path1083"
   inkscape:connector-curvature="0" /><path
   inkscape:connector-curvature="0"
   id="path1087"
   d="m 316.22518,393.84858 3.27361,-4.12527 -0.0208,-30.60572 -3.02494,-4.11776 -3.14777,3.97804 -0.10556,30.82724 z"
   style="fill:#000000;fill-opacity:1;stroke:none;stroke-width:1.09142518px;stroke-linecap:butt;stroke-linejoin:miter;stroke-opacity:1" /><path
   style="fill:#000000;fill-opacity:1;stroke:none;stroke-width:1.09142518px;stroke-linecap:butt;stroke-linejoin:miter;stroke-opacity:1"
   d="m 350.84878,393.84858 3.27361,-4.12527 -0.0208,-30.60572 -3.02494,-4.11776 -3.14777,3.97804 -0.10556,30.82724 z"
   id="path1089"
   inkscape:connector-curvature="0" /><path
   inkscape:connector-curvature="0"
   id="path1091"
   d="m 250.22518,319.84858 3.27361,-4.12527 -0.0208,-30.60572 -3.02494,-4.11776 -3.14777,3.97804 -0.10556,30.82724 z"
   style="fill:#000000;fill-opacity:1;stroke:none;stroke-width:1.09142518px;stroke-linecap:butt;stroke-linejoin:miter;stroke-opacity:1" /><path
   inkscape:connector-curvature="0"
   id="path1097"
   d="m 350.84878,319.84858 3.27361,-4.12527 -0.0208,-30.60572 -3.02494,-4.11776 -3.14777,3.97804 -0.10556,30.82724 z"
   style="fill:#000000;fill-opacity:1;stroke:none;stroke-width:1.09142518px;stroke-linecap:butt;stroke-linejoin:miter;stroke-opacity:1" /><path
   inkscape:connector-curvature="0"
   id="path1101"
   d="m 284.84878,277.84858 3.27361,-4.12527 -0.0208,-30.60572 -3.02494,-4.11776 -3.14777,3.97804 -0.10556,30.82724 z"
   style="fill:#000000;fill-opacity:1;stroke:none;stroke-width:1.09142518px;stroke-linecap:butt;stroke-linejoin:miter;stroke-opacity:1" /><path
   style="fill:#000000;fill-opacity:1;stroke:none;stroke-width:1.09142518px;stroke-linecap:butt;stroke-linejoin:miter;stroke-opacity:1"
   d="m 350.84878,277.84858 3.27361,-4.12527 -0.0208,-30.60572 -3.02494,-4.11776 -3.14777,3.97804 -0.10556,30.82724 z"
   id="path1105"
   inkscape:connector-curvature="0" /><path
   style="fill:#000000;fill-opacity:1;stroke:none;stroke-width:0.50454921px;stroke-linecap:butt;stroke-linejoin:miter;stroke-opacity:1"
   d="m 389.56831,279.57459 1.7538,1.64368 12.90287,-0.12644 1.72248,-1.54885 -1.69115,-1.58045 -12.99685,0.0632 z"
   id="path1107"
   inkscape:connector-curvature="0" /><path
   inkscape:connector-curvature="0"
   id="path1109"
   d="m 389.56831,300.61115 1.7538,1.64369 12.90287,-0.12645 1.72248,-1.54886 -1.69115,-1.58045 -12.99685,0.0632 z"
   style="fill:#000000;fill-opacity:1;stroke:none;stroke-width:0.50454921px;stroke-linecap:butt;stroke-linejoin:miter;stroke-opacity:1" /><path
   style="fill:#000000;fill-opacity:1;stroke:none;stroke-width:0.50454921px;stroke-linecap:butt;stroke-linejoin:miter;stroke-opacity:1"
   d="m 389.56831,321.83737 1.7538,1.64368 12.90287,-0.12645 1.72248,-1.54884 -1.69115,-1.58046 -12.99685,0.0632 z"
   id="path1111"
   inkscape:connector-curvature="0" /><path
   inkscape:connector-curvature="0"
   id="path1113"
   d="m 389.02568,321.07828 1.64405,-2.09106 -0.011,-15.51377 -1.51917,-2.08725 -1.58088,2.01642 -0.053,15.62606 z"
   style="fill:#000000;fill-opacity:1;stroke:none;stroke-width:0.55067778px;stroke-linecap:butt;stroke-linejoin:miter;stroke-opacity:1" /><path
   style="fill:#000000;fill-opacity:1;stroke:none;stroke-width:0.55067778px;stroke-linecap:butt;stroke-linejoin:miter;stroke-opacity:1"
   d="m 406.41426,321.07828 1.64408,-2.09106 -0.011,-15.51377 -1.51918,-2.08725 -1.58087,2.01642 -0.053,15.62606 z"
   id="path1115"
   inkscape:connector-curvature="0" /><path
   style="fill:#000000;fill-opacity:1;stroke:none;stroke-width:0.55067778px;stroke-linecap:butt;stroke-linejoin:miter;stroke-opacity:1"
   d="m 389.02568,299.78885 1.64405,-2.09107 -0.011,-15.51377 -1.51917,-2.08726 -1.58088,2.01644 -0.053,15.62605 z"
   id="path1117"
   inkscape:connector-curvature="0" /><path
   inkscape:connector-curvature="0"
   id="path1119"
   d="m 406.41426,299.78885 1.64408,-2.09107 -0.011,-15.51377 -1.51918,-2.08726 -1.58087,2.01644 -0.053,15.62605 z"
   style="fill:#000000;fill-opacity:1;stroke:none;stroke-width:0.55067778px;stroke-linecap:butt;stroke-linejoin:miter;stroke-opacity:1" /><path
   inkscape:connector-curvature="0"
   id="path1121"
   d="m 389.47265,396.32286 1.74618,1.64723 12.8469,-0.12671 1.71499,-1.55219 -1.68381,-1.58387 -12.94044,0.0633 z"
   style="fill:#000000;fill-opacity:1;stroke:none;stroke-width:0.50399721px;stroke-linecap:butt;stroke-linejoin:miter;stroke-opacity:1" /><path
   style="fill:#000000;fill-opacity:1;stroke:none;stroke-width:0.50399721px;stroke-linecap:butt;stroke-linejoin:miter;stroke-opacity:1"
   d="m 389.47265,417.40489 1.74618,1.64723 12.8469,-0.12671 1.71499,-1.5522 -1.68381,-1.58386 -12.94044,0.0634 z"
   id="path1123"
   inkscape:connector-curvature="0" /><path
   inkscape:connector-curvature="0"
   id="path1125"
   d="m 389.47265,438.67698 1.74618,1.64723 12.8469,-0.12672 1.71499,-1.55219 -1.68381,-1.58387 -12.94044,0.0633 z"
   style="fill:#000000;fill-opacity:1;stroke:none;stroke-width:0.50399721px;stroke-linecap:butt;stroke-linejoin:miter;stroke-opacity:1" /><path
   style="fill:#000000;fill-opacity:1;stroke:none;stroke-width:0.55007529px;stroke-linecap:butt;stroke-linejoin:miter;stroke-opacity:1"
   d="m 388.93236,437.91625 1.63693,-2.09558 -0.0104,-15.54731 -1.51259,-2.09176 -1.57401,2.0208 -0.0528,15.65982 z"
   id="path1127"
   inkscape:connector-curvature="0" /><path
   inkscape:connector-curvature="0"
   id="path1129"
   d="m 406.24551,437.91625 1.63694,-2.09558 -0.0104,-15.54731 -1.51257,-2.09176 -1.57401,2.0208 -0.0528,15.65982 z"
   style="fill:#000000;fill-opacity:1;stroke:none;stroke-width:0.55007529px;stroke-linecap:butt;stroke-linejoin:miter;stroke-opacity:1" /><path
   inkscape:connector-curvature="0"
   id="path1131"
   d="m 388.93236,416.58081 1.63693,-2.09559 -0.0104,-15.5473 -1.51259,-2.09176 -1.57401,2.02079 -0.0528,15.65983 z"
   style="fill:#000000;fill-opacity:1;stroke:none;stroke-width:0.55007529px;stroke-linecap:butt;stroke-linejoin:miter;stroke-opacity:1" /><path
   style="fill:#000000;fill-opacity:1;fill-rule:evenodd;stroke-width:1.10000002"
   id="path1133"
   sodipodi:type="arc"
   sodipodi:cx="370.56833"
   sodipodi:cy="315.3743"
   sodipodi:rx="3.8802965"
   sodipodi:ry="3.8802965"
   sodipodi:start="2.4065996"
   sodipodi:end="2.4059364"
   sodipodi:open="true"
   d="m 367.68979,317.97636 a 3.8802965,3.8802965 0 0 1 0.276,-5.48017 3.8802965,3.8802965 0 0 1 5.48022,0.2751 3.8802965,3.8802965 0 0 1 -0.27419,5.48025 3.8802965,3.8802965 0 0 1 -5.48031,-0.27328" /><path
   d="m 367.68979,434.54963 a 3.8802965,3.8802965 0 0 1 0.276,-5.48017 3.8802965,3.8802965 0 0 1 5.48022,0.2751 3.8802965,3.8802965 0 0 1 -0.27419,5.48026 3.8802965,3.8802965 0 0 1 -5.48031,-0.27328"
   sodipodi:open="true"
   sodipodi:end="2.4059364"
   sodipodi:start="2.4065996"
   sodipodi:ry="3.8802965"
   sodipodi:rx="3.8802965"
   sodipodi:cy="431.94757"
   sodipodi:cx="370.56833"
   sodipodi:type="arc"
   id="path1135"
   style="fill:#000000;fill-rule:evenodd;stroke-width:1.10000002;fill-opacity:1" /><path
   style="fill:none;fill-rule:evenodd;stroke:#000000;stroke-width:1.74711251;stroke-miterlimit:4;stroke-dasharray:none;stroke-opacity:1"
   id="path1137"
   sodipodi:type="arc"
   sodipodi:cx="378.50531"
   sodipodi:cy="239.43193"
   sodipodi:rx="4.0059586"
   sodipodi:ry="4.0059586"
   sodipodi:start="2.4065996"
   sodipodi:end="2.4059364"
   sodipodi:open="true"
   d="m 375.53355,242.11825 a 4.0059586,4.0059586 0 0 1 0.28494,-5.65764 4.0059586,4.0059586 0 0 1 5.65769,0.28401 4.0059586,4.0059586 0 0 1 -0.28307,5.65774 4.0059586,4.0059586 0 0 1 -5.65778,-0.28214" /><path
   style="fill:none;stroke:#000000;stroke-width:2.96751451;stroke-linecap:round;stroke-linejoin:miter;stroke-miterlimit:4;stroke-dasharray:none;stroke-opacity:1"
   d="m 406.60078,235.9926 c 0.28158,-0.17587 0,0 -14.928,0.17637 -1.36395,0.0161 -2.77408,1.69259 -2.76125,3.0866 0.25887,28.13215 0,0 0.25887,28.13215 0.0125,1.35886 1.17273,3.17479 2.50238,3.17479 14.75541,0 14.75541,0 14.75541,0"
   id="path1139"
   inkscape:connector-curvature="0"
   sodipodi:nodetypes="cssssc" /><path
   style="fill:none;fill-rule:evenodd;stroke:#000000;stroke-width:1.85237813;stroke-miterlimit:4;stroke-dasharray:none;stroke-opacity:1"
   id="path1141"
   sodipodi:type="arc"
   sodipodi:cx="389.17609"
   sodipodi:cy="363.38095"
   sodipodi:rx="5.3091531"
   sodipodi:ry="6.8202195"
   sodipodi:start="2.4065996"
   sodipodi:end="2.4059364"
   sodipodi:open="true"
   d="m 385.23757,367.95447 a 5.3091531,6.8202195 0 0 1 0.37764,-9.63224 5.3091531,6.8202195 0 0 1 7.49821,0.48353 5.3091531,6.8202195 0 0 1 -0.37515,9.6324 5.3091531,6.8202195 0 0 1 -7.49834,-0.48034" /><path
   d="m 402.20772,380.74823 a 5.3091531,6.8202195 0 0 1 0.37764,-9.63224 5.3091531,6.8202195 0 0 1 7.49822,0.48353 5.3091531,6.8202195 0 0 1 -0.37516,9.6324 5.3091531,6.8202195 0 0 1 -7.49834,-0.48034"
   sodipodi:open="true"
   sodipodi:end="2.4059364"
   sodipodi:start="2.4065996"
   sodipodi:ry="6.8202195"
   sodipodi:rx="5.3091531"
   sodipodi:cy="376.17471"
   sodipodi:cx="406.14624"
   sodipodi:type="arc"
   id="path1143"
   style="fill:none;fill-rule:evenodd;stroke:#000000;stroke-width:1.85237813;stroke-miterlimit:4;stroke-dasharray:none;stroke-opacity:1" /><path
   style="fill:none;stroke:#000000;stroke-width:2;stroke-linecap:round;stroke-linejoin:miter;stroke-opacity:1;stroke-miterlimit:4;stroke-dasharray:none"
   d="m 408.22483,356.89911 -20.98888,25.83925"
   id="path1145"
   inkscape:connector-curvature="0" /></svg>