<?xml version="1.0" encoding="UTF-8" standalone="no"?>
<svg
   xmlns:dc="http://purl.org/dc/elements/1.1/"
   xmlns:cc="http://creativecommons.org/ns#"
   xmlns:rdf="http://www.w3.org/1999/02/22-rdf-syntax-ns#"
   xmlns:svg="http://www.w3.org/2000/svg"
   xmlns="http://www.w3.org/2000/svg"
   xmlns:sodipodi="http://sodipodi.sourceforge.net/DTD/sodipodi-0.dtd"
   xmlns:inkscape="http://www.inkscape.org/namespaces/inkscape"
   inkscape:version="1.0 (4035a4fb49, 2020-05-01)"
   sodipodi:docname="learn.svg"
   xml:space="preserve"
   style="enable-background:new 0 0 667 666;"
   viewBox="0 0 667 666"
   y="0px"
   x="0px"
   id="Layer_1"
   version="1.1"><metadata
   id="metadata319"><rdf:RDF><cc:Work
       rdf:about=""><dc:format>image/svg+xml</dc:format><dc:type
         rdf:resource="http://purl.org/dc/dcmitype/StillImage" /><dc:title></dc:title></cc:Work></rdf:RDF></metadata><defs
   id="defs317"><marker
     inkscape:isstock="true"
     style="overflow:visible"
     id="Arrow1Send"
     refX="0"
     refY="0"
     orient="auto"
     inkscape:stockid="Arrow1Send"><path
       transform="matrix(-0.2,0,0,-0.2,-1.2,0)"
       style="fill:#000000;fill-opacity:1;fill-rule:evenodd;stroke:#000000;stroke-width:1.00000003pt;stroke-opacity:1"
       d="M 0,0 5,-5 -12.5,0 5,5 Z"
       id="path4714"
       inkscape:connector-curvature="0" /></marker><clipPath
     id="clipPath69-0"><path
       d="m 409.441,126.252 v -43.63 h 147.796 v 43.63"
       id="path71-2"
       inkscape:connector-curvature="0" /></clipPath><clipPath
     id="clipPath101-1"><path
       d="m 409.441,126.252 v -43.63 h 147.796 v 43.63"
       id="path103-6"
       inkscape:connector-curvature="0" /></clipPath><clipPath
     id="clipPath69"><path
       d="m 409.441,126.252 v -43.63 h 147.796 v 43.63"
       id="path71"
       inkscape:connector-curvature="0" /></clipPath><clipPath
     id="clipPath101"><path
       d="m 409.441,126.252 v -43.63 h 147.796 v 43.63"
       id="path103"
       inkscape:connector-curvature="0" /></clipPath><pattern
     id="EMFhbasepattern"
     patternUnits="userSpaceOnUse"
     width="6"
     height="6"
     x="0"
     y="0" /></defs><sodipodi:namedview
   inkscape:document-rotation="0"
   inkscape:current-layer="Layer_1"
   inkscape:window-maximized="1"
   inkscape:window-y="-8"
   inkscape:window-x="-8"
   inkscape:cy="422.48047"
   inkscape:cx="397.65518"
   inkscape:zoom="0.70870873"
   showgrid="false"
   id="namedview315"
   inkscape:window-height="987"
   inkscape:window-width="1680"
   inkscape:pageshadow="2"
   inkscape:pageopacity="0"
   guidetolerance="10"
   gridtolerance="10"
   objecttolerance="10"
   borderopacity="1"
   bordercolor="#666666"
   pagecolor="#ffffff" />
<style
   id="style2"
   type="text/css">
	.st0{fill:none;stroke:#000000;stroke-width:2;stroke-linecap:round;stroke-linejoin:round;stroke-miterlimit:10;}
</style>


<path
   sodipodi:nodetypes="ccsccccccscccacsc"
   id="path870"
   d="M 203.08407,345.56028 V 67.190924 c 0,0 58.8035,5.969415 116.73554,5.986438 96.14533,0.02825 147.66546,-5.986438 147.66546,-5.986438 v 25.941232 l -12.94182,11.585594 -92.81858,4.37824 h -75.82821 v 210.52306 c 0,0 67.19781,7.9495 128.70842,-4.9887 22.43714,-4.71945 36.95226,-9.92554 36.95226,-9.92554 l 1.33369,-16.5802 6.24274,16.56685 c 0,0 4.17884,11.41708 4.945,17.39687 1.12139,8.75232 -0.58446,26.46516 -0.58446,26.46516 0,0 -52.8558,25.61785 -124.74787,25.54611 -102.11231,-0.10189 -135.66217,-28.53932 -135.66217,-28.53932 z"
   style="fill:none;stroke:#000000;stroke-width:9;stroke-linecap:butt;stroke-linejoin:miter;stroke-miterlimit:4;stroke-dasharray:none;stroke-opacity:1" /><path
   id="path872"
   d="m 454.54325,104.71775 -1.65242,183.40686"
   style="fill:none;stroke:#000000;stroke-width:9;stroke-linecap:butt;stroke-linejoin:miter;stroke-miterlimit:4;stroke-dasharray:none;stroke-opacity:1" /><path
   d="m 233.43522,173.37549 a 5.4875679,8.0718832 0 0 1 0.39033,-11.39997 5.4875679,8.0718832 0 0 1 7.75019,0.57227 5.4875679,8.0718832 0 0 1 -0.38776,11.40016 5.4875679,8.0718832 0 0 1 -7.75032,-0.56849 l 4.06843,-5.41683 z"
   sodipodi:arc-type="slice"
   sodipodi:end="2.4059364"
   sodipodi:start="2.4065996"
   sodipodi:ry="8.0718832"
   sodipodi:rx="5.4875679"
   sodipodi:cy="167.96263"
   sodipodi:cx="237.50609"
   sodipodi:type="arc"
   id="path874"
   style="fill:#000000;fill-opacity:1;fill-rule:evenodd;stroke-width:1.04881" /><path
   style="fill:#000000;fill-opacity:1;fill-rule:evenodd;stroke-width:0.637918"
   id="path876"
   sodipodi:type="arc"
   sodipodi:cx="240.00044"
   sodipodi:cy="254.92996"
   sodipodi:rx="3.8453901"
   sodipodi:ry="4.2613912"
   sodipodi:start="2.4065996"
   sodipodi:end="2.4059364"
   sodipodi:arc-type="slice"
   d="m 237.1478,257.78757 a 3.8453901,4.2613912 0 0 1 0.27352,-6.01838 3.8453901,4.2613912 0 0 1 5.43091,0.30211 3.8453901,4.2613912 0 0 1 -0.27172,6.01849 3.8453901,4.2613912 0 0 1 -5.431,-0.30012 l 2.85093,-2.85971 z" /><path
   sodipodi:nodetypes="csc"
   id="path878"
   d="m 203.08407,67.190924 c 0,0 -9.60006,-15.503334 135.69259,-14.966094 140.96604,0.521241 128.70841,14.966094 128.70841,14.966094"
   style="fill:none;stroke:#000000;stroke-width:9;stroke-linecap:butt;stroke-linejoin:miter;stroke-miterlimit:4;stroke-dasharray:none;stroke-opacity:1" /><path
   sodipodi:nodetypes="csc"
   id="path880"
   d="m 206.07729,326.10435 c 0,0 50.75573,23.09501 127.2118,21.95028 91.97469,-1.37709 128.82947,-19.74816 128.82947,-19.74816"
   style="fill:none;stroke:#000000;stroke-width:3;stroke-linecap:butt;stroke-linejoin:miter;stroke-miterlimit:4;stroke-dasharray:none;stroke-opacity:1" /><path
   sodipodi:nodetypes="cscccc"
   id="path882"
   d="m 460.99977,321.11565 c 0,0 -41.87563,15.82723 -97.77849,18.95706 -51.83311,2.90198 -90.7943,-3.99096 -90.7943,-3.99096 l -1.99548,-243.448465 102.76718,0.997739 89.79656,-4.489828"
   style="fill:none;stroke:#000000;stroke-width:1px;stroke-linecap:butt;stroke-linejoin:miter;stroke-opacity:1" /><path
   id="path884"
   d="M 282.90324,104.60616 270.4315,92.633285"
   style="fill:none;stroke:#000000;stroke-width:1px;stroke-linecap:butt;stroke-linejoin:miter;stroke-opacity:1" /><path
   id="path886"
   d="m 285.89646,319.61905 -13.46948,16.4627"
   style="fill:none;stroke:#000000;stroke-width:1px;stroke-linecap:butt;stroke-linejoin:miter;stroke-opacity:1" /><path
   sodipodi:nodetypes="csscsccaccsac"
   id="path888"
   d="m 315.36228,376.74151 1.41102,57.85169 c 0.2308,9.46258 -23.95073,3.34512 -25.39831,12.69916 -11.83611,76.48297 -14.81567,86.77754 -14.81567,86.77754 0,0 16.95472,19.04953 59.96822,19.75423 44.09373,0.7224 57.14618,-19.75423 57.14618,-19.75423 l -16.9322,-92.42161 c 0,0 -4.04177,-3.01842 -6.34958,-2.82204 -3.37945,0.28757 -8.4661,5.64407 -8.4661,5.64407 v 4.93856 c 0,0 -16.37552,3.97109 -31.04237,4.23305 -12.74665,0.22766 -19.65884,0.90303 -22.57627,-6.34957 -1.73099,-4.30316 7.05508,-11.99365 7.05508,-11.99365"
   style="fill:none;stroke:#000000;stroke-width:9;stroke-linecap:butt;stroke-linejoin:miter;stroke-miterlimit:4;stroke-dasharray:none;stroke-opacity:1" /><path
   sodipodi:nodetypes="ccc"
   id="path890"
   d="m 361.92584,449.40888 -9.87712,-10.58263 0.70551,-62.08474"
   style="fill:none;stroke:#000000;stroke-width:9;stroke-linecap:butt;stroke-linejoin:miter;stroke-miterlimit:4;stroke-dasharray:none;stroke-opacity:1" /><path
   sodipodi:nodetypes="csccsccsc"
   id="path892"
   d="m 386.61864,495.26693 c 0,0 30.77351,2.5341 59.26271,21.16525 15.44852,10.1029 18.34322,26.80933 18.34322,26.80933 l -0.70551,28.22033 c 0,0 -33.06866,50.45465 -143.21822,42.33051 C 238.667,607.7714 206.71398,574.98939 206.71398,574.98939 l -1.41102,-33.1589 c 0,0 3.06941,-18.70011 37.39195,-33.86441 18.86243,-8.33375 40.21398,-12.69915 40.21398,-12.69915"
   style="fill:none;stroke:#000000;stroke-width:9;stroke-linecap:butt;stroke-linejoin:miter;stroke-miterlimit:4;stroke-dasharray:none;stroke-opacity:1" /><path
   sodipodi:nodetypes="csc"
   id="path894"
   d="m 205.30296,541.83049 c 0,0 45.08459,43.89163 125.58051,43.74152 124.19824,-0.23161 129.81356,-48.68008 129.81356,-48.68008"
   style="fill:none;stroke:#000000;stroke-width:2.5;stroke-linecap:butt;stroke-linejoin:miter;stroke-miterlimit:4;stroke-dasharray:none;stroke-opacity:1" /><path
   transform="rotate(84.896858)"
   sodipodi:arc-type="arc"
   style="fill:none;fill-opacity:1;fill-rule:evenodd;stroke:#000000;stroke-width:2.69147;stroke-miterlimit:4;stroke-dasharray:none;stroke-opacity:1"
   id="path869"
   sodipodi:type="arc"
   sodipodi:cx="185.66136"
   sodipodi:cy="-79.190933"
   sodipodi:rx="20.546522"
   sodipodi:ry="22.978426"
   sodipodi:start="6.2744123"
   sodipodi:end="3.1441689"
   d="m 206.20709,-79.392521 a 20.546522,22.978426 0 0 1 -10.18381,20.043911 20.546522,22.978426 0 0 1 -20.6137,0.07143 20.546522,22.978426 0 0 1 -10.29467,-19.97295"
   sodipodi:open="true" /><path
   sodipodi:arc-type="arc"
   sodipodi:open="true"
   d="m 206.20709,142.1954 a 20.546522,22.978426 0 0 1 -19.97582,23.17117"
   sodipodi:end="1.5430552"
   sodipodi:start="6.2744123"
   sodipodi:ry="22.978426"
   sodipodi:rx="20.546522"
   sodipodi:cy="142.39699"
   sodipodi:cx="185.66136"
   sodipodi:type="arc"
   id="path871"
   style="fill:none;fill-opacity:1;fill-rule:evenodd;stroke:#000000;stroke-width:2.69147;stroke-miterlimit:4;stroke-dasharray:none;stroke-opacity:1"
   transform="matrix(0.08894892,0.99603619,0.99603619,-0.08894892,0,0)" /><path
   style="fill:none;stroke:#000000;stroke-width:2.69147;stroke-linecap:butt;stroke-linejoin:miter;stroke-miterlimit:4;stroke-dasharray:none;stroke-opacity:1"
   d="m 156.96032,151.75503 c 0,0 -63.58751,5.67855 -63.58751,5.67855 v 0"
   id="path873"
   inkscape:connector-curvature="0" /><path
   style="fill:none;stroke:#000000;stroke-width:2.69147;stroke-linecap:butt;stroke-linejoin:miter;stroke-miterlimit:4;stroke-dasharray:none;stroke-opacity:1"
   d="m 160.4736,192.69701 -63.3872,5.66066"
   id="path875"
   inkscape:connector-curvature="0" /><g
   id="g891"
   transform="matrix(0.05683054,0.63637959,-0.84328452,0.07530775,461.31239,-72.021109)"><path
     sodipodi:arc-type="arc"
     style="fill:none;fill-opacity:1;fill-rule:evenodd;stroke:#000000;stroke-width:3;stroke-miterlimit:4;stroke-dasharray:none;stroke-opacity:1"
     id="path879"
     sodipodi:type="arc"
     sodipodi:cx="338.64407"
     sodipodi:cy="453.50793"
     sodipodi:rx="24.219294"
     sodipodi:ry="24.219294"
     sodipodi:start="6.2744123"
     sodipodi:end="3.1441689"
     d="m 362.86244,453.29546 a 24.219294,24.219294 0 0 1 -12.00421,21.12631 24.219294,24.219294 0 0 1 -24.29848,0.0753 24.219294,24.219294 0 0 1 -12.13489,-21.05152"
     sodipodi:open="true" /><path
     sodipodi:arc-type="arc"
     sodipodi:open="true"
     d="m 362.86244,-387.10127 a 24.219294,24.219294 0 0 1 -12.00421,21.12631 24.219294,24.219294 0 0 1 -24.29848,0.0753 24.219294,24.219294 0 0 1 -12.13489,-21.05152"
     sodipodi:end="3.1441689"
     sodipodi:start="6.2744123"
     sodipodi:ry="24.219294"
     sodipodi:rx="24.219294"
     sodipodi:cy="-386.88879"
     sodipodi:cx="338.64407"
     sodipodi:type="arc"
     id="path881"
     style="fill:none;fill-opacity:1;fill-rule:evenodd;stroke:#000000;stroke-width:3;stroke-miterlimit:4;stroke-dasharray:none;stroke-opacity:1"
     transform="scale(1,-1)" /><path
     style="fill:none;stroke:#000000;stroke-width:3;stroke-linecap:butt;stroke-linejoin:miter;stroke-miterlimit:4;stroke-dasharray:none;stroke-opacity:1"
     d="m 314.42486,386.42206 c 0,0 0,67.28805 0,67.28805 v 0"
     id="path883"
     inkscape:connector-curvature="0" /><path
     style="fill:none;stroke:#000000;stroke-width:3;stroke-linecap:butt;stroke-linejoin:miter;stroke-miterlimit:4;stroke-dasharray:none;stroke-opacity:1"
     d="m 362.86244,386.57214 v 67.07607"
     id="path885"
     inkscape:connector-curvature="0" /></g><path
   style="fill:none;stroke:#000000;stroke-width:1.96102;stroke-linecap:butt;stroke-linejoin:miter;stroke-miterlimit:4;stroke-dasharray:none;stroke-opacity:1"
   d="m 223.33079,164.93397 c 0,0 -43.51575,3.88608 -43.51575,3.88608 v 0"
   id="path897"
   inkscape:connector-curvature="0" /><path
   style="fill:none;stroke:#000000;stroke-width:1.9628;stroke-linecap:butt;stroke-linejoin:miter;stroke-miterlimit:4;stroke-dasharray:none;stroke-opacity:1"
   d="m 223.50609,167.96263 -43.45735,3.88087"
   id="path899"
   inkscape:connector-curvature="0" /><path
   sodipodi:arc-type="arc"
   transform="matrix(0.08894892,0.99603619,0.99603619,-0.08894892,0,0)"
   style="fill:none;fill-opacity:1;fill-rule:evenodd;stroke:#000000;stroke-width:2.69147;stroke-miterlimit:4;stroke-dasharray:none;stroke-opacity:1"
   id="path907"
   sodipodi:type="arc"
   sodipodi:cx="185.66136"
   sodipodi:cy="142.39699"
   sodipodi:rx="20.546522"
   sodipodi:ry="22.978426"
   sodipodi:start="1.5988399"
   sodipodi:end="3.1441689"
   d="M 185.08524,165.36638 A 20.546522,22.978426 0 0 1 165.11491,142.33779"
   sodipodi:open="true" /></svg>
