<?xml version="1.0" encoding="UTF-8" standalone="no"?>
<svg
   xmlns:dc="http://purl.org/dc/elements/1.1/"
   xmlns:cc="http://creativecommons.org/ns#"
   xmlns:rdf="http://www.w3.org/1999/02/22-rdf-syntax-ns#"
   xmlns:svg="http://www.w3.org/2000/svg"
   xmlns="http://www.w3.org/2000/svg"
   xmlns:sodipodi="http://sodipodi.sourceforge.net/DTD/sodipodi-0.dtd"
   xmlns:inkscape="http://www.inkscape.org/namespaces/inkscape"
   inkscape:version="1.0 (4035a4fb49, 2020-05-01)"
   sodipodi:docname="icon.svg"
   xml:space="preserve"
   style="enable-background:new 0 0 667 666;"
   viewBox="0 0 667 666"
   y="0px"
   x="0px"
   id="Layer_1"
   version="1.1"><metadata
   id="metadata319"><rdf:RDF><cc:Work
       rdf:about=""><dc:format>image/svg+xml</dc:format><dc:type
         rdf:resource="http://purl.org/dc/dcmitype/StillImage" /></cc:Work></rdf:RDF></metadata><defs
   id="defs317"><marker
     inkscape:isstock="true"
     style="overflow:visible"
     id="Arrow1Send"
     refX="0"
     refY="0"
     orient="auto"
     inkscape:stockid="Arrow1Send"><path
       transform="matrix(-0.2,0,0,-0.2,-1.2,0)"
       style="fill:#000000;fill-opacity:1;fill-rule:evenodd;stroke:#000000;stroke-width:1.00000003pt;stroke-opacity:1"
       d="M 0,0 5,-5 -12.5,0 5,5 Z"
       id="path4714"
       inkscape:connector-curvature="0" /></marker><clipPath
     id="clipPath69-0"><path
       d="m 409.441,126.252 v -43.63 h 147.796 v 43.63"
       id="path71-2"
       inkscape:connector-curvature="0" /></clipPath><clipPath
     id="clipPath101-1"><path
       d="m 409.441,126.252 v -43.63 h 147.796 v 43.63"
       id="path103-6"
       inkscape:connector-curvature="0" /></clipPath><clipPath
     id="clipPath69"><path
       d="m 409.441,126.252 v -43.63 h 147.796 v 43.63"
       id="path71"
       inkscape:connector-curvature="0" /></clipPath><clipPath
     id="clipPath101"><path
       d="m 409.441,126.252 v -43.63 h 147.796 v 43.63"
       id="path103"
       inkscape:connector-curvature="0" /></clipPath></defs><sodipodi:namedview
   inkscape:document-rotation="0"
   inkscape:current-layer="Layer_1"
   inkscape:window-maximized="1"
   inkscape:window-y="-8"
   inkscape:window-x="-8"
   inkscape:cy="271.4956"
   inkscape:cx="212.99554"
   inkscape:zoom="0.70870873"
   showgrid="false"
   id="namedview315"
   inkscape:window-height="987"
   inkscape:window-width="1680"
   inkscape:pageshadow="2"
   inkscape:pageopacity="0"
   guidetolerance="10"
   gridtolerance="10"
   objecttolerance="10"
   borderopacity="1"
   bordercolor="#666666"
   pagecolor="#ffffff" />
<style
   id="style2"
   type="text/css">
	.st0{fill:none;stroke:#000000;stroke-width:2;stroke-linecap:round;stroke-linejoin:round;stroke-miterlimit:10;}
</style>


<path
   sodipodi:nodetypes="cccccc"
   id="path879"
   d="m 147.66546,471.93084 -12.60061,3.37633 V 294.33319 h 80.44691 -29.93219 v -13.96836 c 10.97514,-5.98643 10.97514,-5.98643 10.97514,-5.98643"
   style="fill:none;stroke:#000000;stroke-width:5;stroke-linecap:butt;stroke-linejoin:miter;stroke-miterlimit:4;stroke-dasharray:none;stroke-opacity:1" /><path
   sodipodi:nodetypes="cccccc"
   id="path881"
   d="m 185.57957,294.33319 h 29.93219 l 117.73327,0.99774 93.78753,-0.99774 23.44688,-0.99774 0.24944,-15.96383"
   style="fill:none;stroke:#000000;stroke-width:5;stroke-linecap:butt;stroke-linejoin:miter;stroke-miterlimit:4;stroke-dasharray:none;stroke-opacity:1" /><path
   id="path883"
   d="m 303.31284,295.33093 1.99548,40.90732 -7.98191,14.9661 -96.78075,-0.99774 0.99774,52.8802 h 18.95706 l 0.99774,-17.95932 21.95027,-5.98643 15.96383,6.98417 0.99774,19.9548 -19.95479,3.99095 -19.95479,-5.98643"
   style="fill:none;stroke:#000000;stroke-width:5;stroke-linecap:butt;stroke-linejoin:miter;stroke-opacity:1;stroke-miterlimit:4;stroke-dasharray:none" /><path
   sodipodi:nodetypes="ccccccsascccccccc"
   id="path885"
   d="m 260.41004,396.10263 c 12.97062,0 12.97062,-0.99774 12.97062,-0.99774 l 31.92766,-28.93445 25.94123,-23.94575 165.60192,-12.26226 m 22.74158,-1.56242 30.16148,-2.13915 c 8.93255,-0.63353 24.06789,1.06531 24.94349,9.97739 0.7757,7.89525 -12.03451,12.51685 -19.95479,12.97062 l -191.56601,10.97513 -23.94575,9.9774 -18.95705,17.95931 -23.94575,22.94801 -13.96836,6.98418 -12.97061,0.99774 -8.97966,-12.97061 v 0"
   style="fill:none;stroke:#000000;stroke-width:5;stroke-linecap:butt;stroke-linejoin:miter;stroke-miterlimit:4;stroke-dasharray:none;stroke-opacity:1" /><path
   id="path887"
   d="m 287.84788,293.83432 1.49661,33.92315 -19.95479,19.95479 -68.84404,2.49435 -2.49435,70.34064"
   style="fill:none;stroke:#000000;stroke-width:5;stroke-linecap:butt;stroke-linejoin:miter;stroke-opacity:1;stroke-miterlimit:4;stroke-dasharray:none" /><path
   id="path889"
   d="m 196.55471,404.58342 -55.37455,0.49887 0.99774,19.45592 h -6.48531"
   style="fill:none;stroke:#000000;stroke-width:5;stroke-linecap:butt;stroke-linejoin:miter;stroke-opacity:1;stroke-miterlimit:4;stroke-dasharray:none" /><path
   id="path891"
   d="m 142.1779,424.53821 5.98643,-0.49887"
   style="fill:none;stroke:#000000;stroke-width:5;stroke-linecap:butt;stroke-linejoin:miter;stroke-opacity:1;stroke-miterlimit:4;stroke-dasharray:none" /><path
   id="path893"
   d="m 147.66546,405.08229 -0.49887,100.7717 3.99096,61.85985 -0.99774,6.48531 5.48757,3.99096 41.90507,-0.49887 6.4853,-3.99096 -4.48983,-3.99096 7.48305,-16.96157 -12.47174,-0.49887 99.27509,-1.99548 5.48757,-3.99096 39.90958,-0.49887 5.98644,-13.46948 1.99548,-17.46045 0.49887,-24.94349 -4.9887,-18.45818 -4.48983,-16.96157 -6.98418,-8.97966 -40.40845,0.99774 11.97288,24.44462 39.90958,-0.99774 v 2.99322 l -38.91185,0.99774 2.49435,37.41524 39.90959,-0.99774 0.49887,4.48982 -41.4062,0.49887 -5.48756,30.92993"
   style="fill:none;stroke:#000000;stroke-width:5;stroke-linecap:butt;stroke-linejoin:miter;stroke-opacity:1;stroke-miterlimit:4;stroke-dasharray:none" /><path
   id="path895"
   d="m 290.8411,446.48848 -8.97966,-3.49209 -17.95931,0.99774 5.48757,-3.99096 v -20.95253"
   style="fill:none;stroke:#000000;stroke-width:5;stroke-linecap:butt;stroke-linejoin:miter;stroke-opacity:1;stroke-miterlimit:4;stroke-dasharray:none" /><path
   id="path897"
   d="m 269.3897,419.05064 -16.96158,-1.49661 v 25.44236 l 11.47401,0.99774"
   style="fill:none;stroke:#000000;stroke-width:5;stroke-linecap:butt;stroke-linejoin:miter;stroke-opacity:1;stroke-miterlimit:4;stroke-dasharray:none" /><path
   id="path899"
   d="m 263.90213,443.99413 -19.95479,13.96836 -24.94349,-9.47853 -17.46045,1.49661 0.49887,-22.44914 16.96158,1.49661 -0.49887,19.95479"
   style="fill:none;stroke:#000000;stroke-width:5;stroke-linecap:butt;stroke-linejoin:miter;stroke-opacity:1;stroke-miterlimit:4;stroke-dasharray:none" /><path
   id="path901"
   d="m 219.00385,429.02804 22.44914,4.48983 10.47626,-2.99322"
   style="fill:none;stroke:#000000;stroke-width:5;stroke-linecap:butt;stroke-linejoin:miter;stroke-opacity:1;stroke-miterlimit:4;stroke-dasharray:none" /><path
   id="path903"
   d="m 252.42812,417.55403 -17.95931,2.99322 -15.46496,-4.48983 v 12.97062"
   style="fill:none;stroke:#000000;stroke-width:5;stroke-linecap:butt;stroke-linejoin:miter;stroke-opacity:1;stroke-miterlimit:4;stroke-dasharray:none" /><path
   id="path905"
   d="m 219.00385,416.05742 -13.46949,-6.48531 14.9661,-5.48756"
   style="fill:none;stroke:#000000;stroke-width:5;stroke-linecap:butt;stroke-linejoin:miter;stroke-opacity:1;stroke-miterlimit:4;stroke-dasharray:none" /><path
   id="path907"
   d="m 202.04227,427.53143 -3.99096,-6.98418 v 0 l -5.48756,4.48983 v 21.4514 l 0.49887,66.34969 1.49661,39.41071 4.98869,17.46044"
   style="fill:none;stroke:#000000;stroke-width:5;stroke-linecap:butt;stroke-linejoin:miter;stroke-opacity:1;stroke-miterlimit:4;stroke-dasharray:none" /><path
   id="path909"
   d="m 194.55923,552.24888 -40.90733,2.99322 -1.99548,7.48305 5.48757,2.99322 -6.98418,8.48078"
   style="fill:none;stroke:#000000;stroke-width:5;stroke-linecap:butt;stroke-linejoin:miter;stroke-opacity:1;stroke-miterlimit:4;stroke-dasharray:none" /><path
   id="path911"
   d="m 157.14399,565.71837 39.90959,-0.49887"
   style="fill:none;stroke:#000000;stroke-width:5;stroke-linecap:butt;stroke-linejoin:miter;stroke-opacity:1;stroke-miterlimit:4;stroke-dasharray:none" /><path
   id="path913"
   d="m 163.6293,414.06194 16.96157,1.99548 v 0.49887"
   style="fill:none;stroke:#000000;stroke-width:5;stroke-linecap:butt;stroke-linejoin:miter;stroke-opacity:1;stroke-miterlimit:4;stroke-dasharray:none" /><path
   id="path915"
   d="m 162.13269,421.04612 17.95931,2.99322"
   style="fill:none;stroke:#000000;stroke-width:5;stroke-linecap:butt;stroke-linejoin:miter;stroke-opacity:1;stroke-miterlimit:4;stroke-dasharray:none" /><path
   id="path917"
   d="m 161.13495,427.53143 18.45818,3.49209"
   style="fill:none;stroke:#000000;stroke-width:5;stroke-linecap:butt;stroke-linejoin:miter;stroke-opacity:1;stroke-miterlimit:4;stroke-dasharray:none" /><path
   id="path919"
   d="m 159.63834,435.01448 18.95705,3.49208"
   style="fill:none;stroke:#000000;stroke-width:5;stroke-linecap:butt;stroke-linejoin:miter;stroke-opacity:1;stroke-miterlimit:4;stroke-dasharray:none" /><path
   id="path921"
   d="m 160.13721,441.00091 17.95931,3.99096"
   style="fill:none;stroke:#000000;stroke-width:5;stroke-linecap:butt;stroke-linejoin:miter;stroke-opacity:1;stroke-miterlimit:4;stroke-dasharray:none" /><path
   id="path923"
   d="m 160.63608,447.98509 16.4627,3.99096"
   style="fill:none;stroke:#000000;stroke-width:5;stroke-linecap:butt;stroke-linejoin:miter;stroke-opacity:1;stroke-miterlimit:4;stroke-dasharray:none" /><path
   sodipodi:nodetypes="cc"
   id="path925"
   d="m 134.19598,467.93988 13.96835,-1.99548"
   style="fill:none;stroke:#000000;stroke-width:5;stroke-linecap:butt;stroke-linejoin:miter;stroke-opacity:1;stroke-miterlimit:4;stroke-dasharray:none" /><path
   d="m 225.04212,332.49843 a 16.462704,16.462704 0 0 1 -23.24468,-1.19007 16.462704,16.462704 0 0 1 1.17679,-23.24536 16.462704,16.462704 0 0 1 23.24603,1.16352 16.462704,16.462704 0 0 1 -1.15024,23.24669"
   sodipodi:arc-type="arc"
   sodipodi:open="true"
   sodipodi:end="0.83455187"
   sodipodi:start="0.83683651"
   sodipodi:ry="16.462704"
   sodipodi:rx="16.462704"
   sodipodi:cy="320.27441"
   sodipodi:cx="214.01515"
   sodipodi:type="arc"
   id="path929"
   style="fill:none;fill-rule:evenodd;stroke:#000000;stroke-opacity:1;stroke-width:5;stroke-miterlimit:4;stroke-dasharray:none" /><path
   style="fill:none;fill-rule:evenodd;stroke:#000000;stroke-width:5;stroke-opacity:1;stroke-miterlimit:4;stroke-dasharray:none"
   id="path931"
   sodipodi:type="arc"
   sodipodi:cx="214.01515"
   sodipodi:cy="320.27441"
   sodipodi:rx="11.135955"
   sodipodi:ry="11.135955"
   sodipodi:start="0.83683651"
   sodipodi:end="0.83455187"
   sodipodi:open="true"
   sodipodi:arc-type="arc"
   d="m 221.47418,328.54317 a 11.135955,11.135955 0 0 1 -15.72352,-0.805 11.135955,11.135955 0 0 1 0.79602,-15.72399 11.135955,11.135955 0 0 1 15.72444,0.78705 11.135955,11.135955 0 0 1 -0.77807,15.72488" /><path
   sodipodi:nodetypes="cccaccccc"
   id="path933"
   d="m 311.79363,294.83206 1.49661,9.97739 174.10557,-1.4966 c 0,0 7.22726,2.32708 10.97513,2.74378 7.02599,0.78115 14.18336,0.34603 21.20196,-0.49888 m -31.92766,-9.72795 0.24944,7.48305 -0.24944,-10.35155 -37.1658,0.37415"
   style="fill:none;stroke:#000000;stroke-width:5;stroke-linecap:butt;stroke-linejoin:miter;stroke-miterlimit:4;stroke-dasharray:none;stroke-opacity:1" /><path
   id="path935"
   d="m 369.16366,305.30832 v 7.48305 l -17.46044,2.49435 -28.43558,-0.99774 -0.99774,-9.9774"
   style="fill:none;stroke:#000000;stroke-width:5;stroke-linecap:butt;stroke-linejoin:miter;stroke-opacity:1;stroke-miterlimit:4;stroke-dasharray:none" /><path
   id="path937"
   d="m 369.16366,312.79137 4.48983,4.48983 v 13.46948 l -13.96836,1.99548 -0.99774,-17.95931"
   style="fill:none;stroke:#000000;stroke-width:5;stroke-linecap:butt;stroke-linejoin:miter;stroke-opacity:1;stroke-miterlimit:4;stroke-dasharray:none" /><path
   id="path939"
   d="m 359.68513,332.74616 -27.43784,0.49887 0.99774,-17.95931"
   style="fill:none;stroke:#000000;stroke-width:5;stroke-linecap:butt;stroke-linejoin:miter;stroke-opacity:1;stroke-miterlimit:4;stroke-dasharray:none" /><path
   id="path941"
   d="m 332.24729,333.24503 -13.46948,-0.49887 -0.99774,-15.46496 5.48757,-2.99322"
   style="fill:none;stroke:#000000;stroke-width:5;stroke-linecap:butt;stroke-linejoin:miter;stroke-opacity:1;stroke-miterlimit:4;stroke-dasharray:none" /><path
   id="path943"
   d="M 317.78007,317.2812 305.30832,305.30832"
   style="fill:none;stroke:#000000;stroke-width:5;stroke-linecap:butt;stroke-linejoin:miter;stroke-opacity:1;stroke-miterlimit:4;stroke-dasharray:none" /><path
   sodipodi:nodetypes="cccc"
   id="path945"
   d="m 331.24955,342.22469 -0.0624,-5.48757 14.2178,-0.37415 0.12471,4.80162"
   style="fill:none;stroke:#000000;stroke-width:5;stroke-linecap:butt;stroke-linejoin:miter;stroke-opacity:1;stroke-miterlimit:4;stroke-dasharray:none" /><path
   d="m 359.35828,332.82404 a 33.158897,33.158897 0 0 1 6.28341,6.74838"
   sodipodi:arc-type="arc"
   sodipodi:open="true"
   sodipodi:end="5.6729424"
   sodipodi:start="5.3939613"
   sodipodi:ry="33.158897"
   sodipodi:rx="33.158897"
   sodipodi:cy="358.57468"
   sodipodi:cx="338.46768"
   sodipodi:type="arc"
   id="path947"
   style="fill:none;fill-rule:evenodd;stroke:#000000;stroke-width:5;stroke-opacity:1;stroke-miterlimit:4;stroke-dasharray:none" /><path
   style="fill:none;fill-rule:evenodd;stroke:#000000;stroke-width:5;stroke-opacity:1;stroke-miterlimit:4;stroke-dasharray:none"
   id="path949"
   sodipodi:type="arc"
   sodipodi:cx="338.46768"
   sodipodi:cy="358.57468"
   sodipodi:rx="33.158897"
   sodipodi:ry="33.158897"
   sodipodi:start="2.940888"
   sodipodi:end="4.0682929"
   sodipodi:open="true"
   sodipodi:arc-type="arc"
   d="M 305.9744,365.18523 A 33.158897,33.158897 0 0 1 318.55656,332.0594" /><path
   d="m 371.60165,359.86028 a 33.158897,33.158897 0 0 1 -17.33814,27.86923 33.158897,33.158897 0 0 1 -32.81493,-0.69675"
   sodipodi:arc-type="arc"
   sodipodi:open="true"
   sodipodi:end="2.1097742"
   sodipodi:start="0.038780723"
   sodipodi:ry="33.158897"
   sodipodi:rx="33.158897"
   sodipodi:cy="358.57468"
   sodipodi:cx="338.46768"
   sodipodi:type="arc"
   id="path951"
   style="fill:none;fill-rule:evenodd;stroke:#000000;stroke-width:5;stroke-opacity:1;stroke-miterlimit:4;stroke-dasharray:none" /><path
   sodipodi:nodetypes="ccccccccc"
   id="path953"
   d="m 252.42812,417.55403 36.83035,-8.35913 29.2786,-29.2786 17.63771,-16.57945 26.45656,-11.99364 m 0,0 134.25186,-9.41939 m 22.92324,-1.66849 54.89158,-4.01708"
   style="fill:none;stroke:#000000;stroke-width:5;stroke-linecap:butt;stroke-linejoin:miter;stroke-miterlimit:4;stroke-dasharray:none;stroke-opacity:1" /><path
   sodipodi:nodetypes="cc"
   id="path955"
   d="M 519.88668,351.63544 519.4306,298.60645"
   style="fill:none;stroke:#000000;stroke-width:5;stroke-linecap:butt;stroke-linejoin:miter;stroke-miterlimit:4;stroke-dasharray:none;stroke-opacity:1" /><path
   sodipodi:nodetypes="cc"
   id="path957"
   d="m 497.66543,298.54547 -1.03913,54.02351"
   style="fill:none;stroke:#000000;stroke-width:5;stroke-linecap:butt;stroke-linejoin:miter;stroke-miterlimit:4;stroke-dasharray:none;stroke-opacity:1" /><path
   sodipodi:nodetypes="cc"
   id="path959"
   d="m 476.48277,303.19225 0.0882,28.48491"
   style="fill:none;stroke:#000000;stroke-width:5;stroke-linecap:butt;stroke-linejoin:miter;stroke-miterlimit:4;stroke-dasharray:none;stroke-opacity:1" /><path
   id="path983"
   d="m 155.64738,578.19011 6.48531,9.22909 9.22909,-9.22909 h 13.96835 l 6.98418,8.23135 5.23814,-8.73022"
   style="fill:none;stroke:#000000;stroke-width:5;stroke-linecap:butt;stroke-linejoin:miter;stroke-opacity:1;stroke-miterlimit:4;stroke-dasharray:none" /><path
   id="path985"
   d="m 192.31431,586.42146 -1.24717,10.7257 -6.98418,9.2291 -9.9774,0.24943 -8.23135,-7.23361 -1.99548,-9.72796 -1.74604,-2.24492"
   style="fill:none;stroke:#000000;stroke-width:5;stroke-linecap:butt;stroke-linejoin:miter;stroke-opacity:1;stroke-miterlimit:4;stroke-dasharray:none" /><path
   id="path987"
   d="m 163.87873,589.66412 8.97966,-5.23814 8.73022,-0.24943 9.22909,7.98192"
   style="fill:none;stroke:#000000;stroke-width:5;stroke-linecap:butt;stroke-linejoin:miter;stroke-opacity:1;stroke-miterlimit:4;stroke-dasharray:none" /><path
   id="path989"
   d="m 172.85839,584.42598 -1.49661,-6.23587"
   style="fill:none;stroke:#000000;stroke-width:5;stroke-linecap:butt;stroke-linejoin:miter;stroke-opacity:1;stroke-miterlimit:4;stroke-dasharray:none" /><path
   id="path991"
   d="m 185.33013,578.19011 -3.74152,5.98644"
   style="fill:none;stroke:#000000;stroke-width:5;stroke-linecap:butt;stroke-linejoin:miter;stroke-opacity:1;stroke-miterlimit:4;stroke-dasharray:none" /><path
   id="path1023"
   d="m 481.6859,272.50264 0.17637,-6.34958 h 10.0535 l 0.17638,7.14328 h -10.49444 z"
   style="fill:none;stroke:#000000;stroke-width:5;stroke-linecap:butt;stroke-linejoin:miter;stroke-opacity:1;stroke-miterlimit:4;stroke-dasharray:none" /><path
   sodipodi:nodetypes="cccccc"
   id="path1025"
   d="m 500.911,278.9404 0.17638,-9.17161 h 12.08183 v 9.17161 l -10.22988,0 z"
   style="fill:none;stroke:#000000;stroke-width:5;stroke-linecap:butt;stroke-linejoin:miter;stroke-opacity:1;stroke-miterlimit:4;stroke-dasharray:none" /><path
   sodipodi:nodetypes="ccccccccc"
   id="path1041"
   d="m 513.78653,280.08686 -14.46292,-0.17638 -4.76218,-2.20472 0.26197,11.54384 4.50021,1.59626 14.46292,0.0882 6.51968,-2.38108 -0.0819,-10.31807 z"
   style="fill:none;stroke:#000000;stroke-width:5;stroke-linecap:butt;stroke-linejoin:miter;stroke-opacity:1;stroke-miterlimit:4;stroke-dasharray:none" /><path
   id="path1043"
   d="m 499.32361,279.91048 v 10.93538"
   style="fill:none;stroke:#000000;stroke-width:5;stroke-linecap:butt;stroke-linejoin:miter;stroke-opacity:1;stroke-miterlimit:4;stroke-dasharray:none" /><path
   id="path1045"
   d="m 513.78653,280.08686 v 10.84719"
   style="fill:none;stroke:#000000;stroke-width:5;stroke-linecap:butt;stroke-linejoin:miter;stroke-opacity:1;stroke-miterlimit:4;stroke-dasharray:none" /><path
   sodipodi:nodetypes="cc"
   id="path1047"
   d="m 494.56143,277.70576 3.61573,-1.4992 c 0,0 2.4387,-0.0821 2.4387,-0.0821"
   style="fill:none;stroke:#000000;stroke-width:5;stroke-linecap:butt;stroke-linejoin:miter;stroke-opacity:1;stroke-miterlimit:4;stroke-dasharray:none" /><path
   sodipodi:nodetypes="ccc"
   id="path1051"
   d="m 484.94888,266.32944 -0.17638,6.61414 -0.0882,0.0882"
   style="fill:none;stroke:#000000;stroke-width:5;stroke-linecap:butt;stroke-linejoin:miter;stroke-opacity:1;stroke-miterlimit:4;stroke-dasharray:none" /><path
   id="path1053"
   d="m 488.38823,266.06488 0.0882,7.23146"
   style="fill:none;stroke:#000000;stroke-width:5;stroke-linecap:butt;stroke-linejoin:miter;stroke-opacity:1;stroke-miterlimit:4;stroke-dasharray:none" /><path
   sodipodi:nodetypes="cc"
   id="path1055"
   d="m 504.96767,269.59242 -0.52914,9.17161"
   style="fill:none;stroke:#000000;stroke-width:5;stroke-linecap:butt;stroke-linejoin:miter;stroke-opacity:1;stroke-miterlimit:4;stroke-dasharray:none" /><path
   sodipodi:nodetypes="cc"
   id="path1057"
   d="m 509.20073,269.59242 0.26455,9.08342"
   style="fill:none;stroke:#000000;stroke-width:5;stroke-linecap:butt;stroke-linejoin:miter;stroke-opacity:1;stroke-miterlimit:4;stroke-dasharray:none" /><path
   sodipodi:nodetypes="cc"
   id="path1059"
   d="m 520.22429,278.23491 -3.45967,-1.94903 c -3.42758,-0.0367 -3.42758,-0.0367 -3.42758,-0.0367"
   style="fill:none;stroke:#000000;stroke-width:5;stroke-linecap:butt;stroke-linejoin:miter;stroke-opacity:1;stroke-miterlimit:4;stroke-dasharray:none" /><path
   id="path1061"
   d="m 492.35671,271.17981 5.55588,1.85196 0.26457,3.17479"
   style="fill:none;stroke:#000000;stroke-width:5;stroke-linecap:butt;stroke-linejoin:miter;stroke-opacity:1;stroke-miterlimit:4;stroke-dasharray:none" /><path
   sodipodi:nodetypes="ccccccc"
   id="path1063"
   d="m 497.91259,273.03177 -5.29131,1.85196 -12.96372,0.0882 -3.8803,-1.4992 -1.23464,10.84719 4.05668,1.67558 14.55111,-0.17638"
   style="fill:none;stroke:#000000;stroke-width:5;stroke-linecap:butt;stroke-linejoin:miter;stroke-opacity:1;stroke-miterlimit:4;stroke-dasharray:none" /><path
   id="path1065"
   d="m 492.62128,274.88373 0.52913,10.93539"
   style="fill:none;stroke:#000000;stroke-width:5;stroke-linecap:butt;stroke-linejoin:miter;stroke-opacity:1;stroke-miterlimit:4;stroke-dasharray:none" /><path
   id="path1067"
   d="M 479.65756,274.97193 478.5993,285.9955"
   style="fill:none;stroke:#000000;stroke-width:5;stroke-linecap:butt;stroke-linejoin:miter;stroke-opacity:1;stroke-miterlimit:4;stroke-dasharray:none" /><path
   sodipodi:nodetypes="cc"
   id="path1069"
   d="m 475.77726,273.47273 5.55588,-2.20473"
   style="fill:none;stroke:#000000;stroke-width:5;stroke-linecap:butt;stroke-linejoin:miter;stroke-opacity:1;stroke-miterlimit:4;stroke-dasharray:none" /><path
   sodipodi:nodetypes="cccc"
   id="path1071"
   d="m 519.5729,305.55775 7.63602,-1.76331 3.30469,-4.08693 -0.12471,-8.09194"
   style="fill:none;stroke:#000000;stroke-width:5;stroke-linecap:butt;stroke-linejoin:miter;stroke-opacity:1;stroke-miterlimit:4;stroke-dasharray:none" /><path
   sodipodi:nodetypes="cccccccc"
   id="path1073"
   d="m 487.64524,295.8298 4.62328,2.24752 9.17161,0.70551 17.99047,-0.17638 7.60195,-2.5726 3.35635,-4.41828 -2.68111,-3.82864 -7.59935,-0.92464"
   style="fill:none;stroke:#000000;stroke-width:5;stroke-linecap:butt;stroke-linejoin:miter;stroke-opacity:1;stroke-miterlimit:4;stroke-dasharray:none" /><path
   sodipodi:nodetypes="cc"
   id="path1075"
   d="m 527.03255,296.03385 0.17637,7.76059"
   style="fill:none;stroke:#000000;stroke-width:5;stroke-linecap:butt;stroke-linejoin:miter;stroke-opacity:1;stroke-miterlimit:4;stroke-dasharray:none" /><path
   sodipodi:nodetypes="ccc"
   id="path1077"
   d="m 487.64524,292.9613 1.87076,-3.24266 4.9887,-1.87076"
   style="fill:none;stroke:#000000;stroke-width:5;stroke-linecap:butt;stroke-linejoin:miter;stroke-opacity:1;stroke-miterlimit:4;stroke-dasharray:none" /><path
   id="path1079"
   d="m 493.15041,285.81912 1.60373,-0.59031"
   style="fill:none;stroke:#000000;stroke-width:5;stroke-linecap:butt;stroke-linejoin:miter;stroke-opacity:1;stroke-miterlimit:4;stroke-dasharray:none" /><path
   id="path1081"
   d="m 474.54262,284.31992 -3.23537,0.28531 v 4.9887 l 2.86851,0.12471 v 2.99322"
   style="fill:none;stroke:#000000;stroke-width:5;stroke-linecap:butt;stroke-linejoin:miter;stroke-opacity:1;stroke-miterlimit:4;stroke-dasharray:none" /><path
   id="path1083"
   d="M 474.17576,289.71864 H 489.516"
   style="fill:none;stroke:#000000;stroke-width:5;stroke-linecap:butt;stroke-linejoin:miter;stroke-opacity:1;stroke-miterlimit:4;stroke-dasharray:none" /><path
   style="fill:#000000;fill-opacity:1;stroke:#000000;stroke-width:5;stroke-linecap:butt;stroke-linejoin:miter;stroke-miterlimit:4;stroke-dasharray:none;stroke-opacity:1"
   d="m 196.55471,274.3784 131.70163,3.99095 135.69258,-0.99774 c 0,0 0,0 -14.96609,-188.572784 C 447.56439,70.926534 424.87852,60.130115 408.07551,53.87794 354.4619,33.92903 290.22238,33.323958 236.46429,52.8802 222.93806,57.800805 204.05789,66.432821 203.53888,80.816909 L 196.55471,274.3784"
   id="path1095"
   sodipodi:nodetypes="cccsaasc" /></svg>
