<?xml version="1.0" encoding="UTF-8" standalone="no"?>
<!-- Generator: Adobe Illustrator 22.1.0, SVG Export Plug-In . SVG Version: 6.00 Build 0)  -->

<svg
   xmlns:dc="http://purl.org/dc/elements/1.1/"
   xmlns:cc="http://creativecommons.org/ns#"
   xmlns:rdf="http://www.w3.org/1999/02/22-rdf-syntax-ns#"
   xmlns:svg="http://www.w3.org/2000/svg"
   xmlns="http://www.w3.org/2000/svg"
   xmlns:sodipodi="http://sodipodi.sourceforge.net/DTD/sodipodi-0.dtd"
   xmlns:inkscape="http://www.inkscape.org/namespaces/inkscape"
   version="1.1"
   id="Layer_1"
   x="0px"
   y="0px"
   viewBox="0 0 667 666"
   style="enable-background:new 0 0 667 666;"
   xml:space="preserve"
   sodipodi:docname="learn.svg"
   inkscape:version="0.92.4 (5da689c313, 2019-01-14)"><metadata
   id="metadata319"><rdf:RDF><cc:Work
       rdf:about=""><dc:format>image/svg+xml</dc:format><dc:type
         rdf:resource="http://purl.org/dc/dcmitype/StillImage" /></cc:Work></rdf:RDF></metadata><defs
   id="defs317"><marker
     inkscape:stockid="Arrow1Send"
     orient="auto"
     refY="0"
     refX="0"
     id="Arrow1Send"
     style="overflow:visible"
     inkscape:isstock="true"><path
       inkscape:connector-curvature="0"
       id="path4714"
       d="M 0,0 5,-5 -12.5,0 5,5 Z"
       style="fill:#000000;fill-opacity:1;fill-rule:evenodd;stroke:#000000;stroke-width:1.00000003pt;stroke-opacity:1"
       transform="matrix(-0.2,0,0,-0.2,-1.2,0)" /></marker><clipPath
     id="clipPath69-0"><path
       inkscape:connector-curvature="0"
       id="path71-2"
       d="m 409.441,126.252 v -43.63 h 147.796 v 43.63" /></clipPath><clipPath
     id="clipPath101-1"><path
       inkscape:connector-curvature="0"
       id="path103-6"
       d="m 409.441,126.252 v -43.63 h 147.796 v 43.63" /></clipPath><clipPath
     id="clipPath69"><path
       inkscape:connector-curvature="0"
       id="path71"
       d="m 409.441,126.252 v -43.63 h 147.796 v 43.63" /></clipPath><clipPath
     id="clipPath101"><path
       inkscape:connector-curvature="0"
       id="path103"
       d="m 409.441,126.252 v -43.63 h 147.796 v 43.63" /></clipPath></defs><sodipodi:namedview
   pagecolor="#ffffff"
   bordercolor="#666666"
   borderopacity="1"
   objecttolerance="10"
   gridtolerance="10"
   guidetolerance="10"
   inkscape:pageopacity="0"
   inkscape:pageshadow="2"
   inkscape:window-width="1680"
   inkscape:window-height="987"
   id="namedview315"
   showgrid="false"
   inkscape:zoom="1.0022655"
   inkscape:cx="105.58667"
   inkscape:cy="465.79079"
   inkscape:window-x="1672"
   inkscape:window-y="-8"
   inkscape:window-maximized="1"
   inkscape:current-layer="Layer_1" />
<style
   type="text/css"
   id="style2">
	.st0{fill:none;stroke:#000000;stroke-width:2;stroke-linecap:round;stroke-linejoin:round;stroke-miterlimit:10;}
</style>


<path
   style="fill:none;fill-opacity:1;fill-rule:evenodd;stroke:#000000;stroke-width:4.99337053;stroke-miterlimit:4;stroke-dasharray:none;stroke-opacity:1"
   id="path862"
   sodipodi:type="arc"
   sodipodi:cx="338.64407"
   sodipodi:cy="266.64407"
   sodipodi:rx="126.82315"
   sodipodi:ry="126.82315"
   sodipodi:start="4.7154259"
   sodipodi:end="4.7152625"
   d="M 339.02922,139.82151 A 126.82315,126.82315 0 0 1 465.46665,267.02404 126.82315,126.82315 0 0 1 338.26928,393.46667 126.82315,126.82315 0 0 1 211.82146,266.27446 126.82315,126.82315 0 0 1 339.0085,139.82145"
   sodipodi:open="true" /><path
   sodipodi:open="true"
   d="m 351.40151,264.921 a 24.219294,24.219294 0 0 1 10.5453,27.18667 24.219294,24.219294 0 0 1 -23.23516,17.61946 24.219294,24.219294 0 0 1 -23.33312,-17.48952 24.219294,24.219294 0 0 1 10.39341,-27.2451"
   sodipodi:end="4.1520393"
   sodipodi:start="5.2671579"
   sodipodi:ry="24.219294"
   sodipodi:rx="24.219294"
   sodipodi:cy="285.50793"
   sodipodi:cx="338.64407"
   sodipodi:type="arc"
   id="path864"
   style="fill:none;fill-opacity:1;fill-rule:evenodd;stroke:#000000;stroke-width:2.77409482;stroke-miterlimit:4;stroke-dasharray:none;stroke-opacity:1" /><path
   sodipodi:open="true"
   d="m 338.69301,269.3933 a 16.114712,16.114712 0 0 1 16.0657,16.16292 16.114712,16.114712 0 0 1 -16.16226,16.06636 16.114712,16.114712 0 0 1 -16.06702,-16.16161 16.114712,16.114712 0 0 1 16.16095,-16.06768"
   sodipodi:end="4.7152625"
   sodipodi:start="4.7154259"
   sodipodi:ry="16.114712"
   sodipodi:rx="16.114712"
   sodipodi:cy="285.50793"
   sodipodi:cx="338.64407"
   sodipodi:type="arc"
   id="path866"
   style="fill:#000000;fill-opacity:1;fill-rule:evenodd;stroke:#000000;stroke-width:0.63447982;stroke-miterlimit:4;stroke-dasharray:none;stroke-opacity:1" /><path
   style="fill:none;fill-opacity:1;fill-rule:evenodd;stroke:#000000;stroke-width:2.77409482;stroke-miterlimit:4;stroke-dasharray:none;stroke-opacity:1"
   id="path868"
   sodipodi:type="arc"
   sodipodi:cx="338.64407"
   sodipodi:cy="-211.9256"
   sodipodi:rx="13.401367"
   sodipodi:ry="13.401367"
   sodipodi:start="6.2707056"
   sodipodi:end="3.164047"
   d="m 352.0444,-212.09284 a 13.401367,13.401367 0 0 1 -6.68995,11.76757 13.401367,13.401367 0 0 1 -13.53612,-0.0675 13.401367,13.401367 0 0 1 -6.57225,-11.83371"
   transform="scale(1,-1)"
   sodipodi:open="true" /><path
   style="fill:none;stroke:#000000;stroke-width:2.77409482;stroke-linecap:butt;stroke-linejoin:miter;stroke-miterlimit:4;stroke-dasharray:none;stroke-opacity:1"
   d="m 325.24346,211.78289 -0.11983,54.35943"
   id="path870"
   inkscape:connector-curvature="0"
   sodipodi:nodetypes="cc" /><path
   style="fill:none;stroke:#000000;stroke-width:2.77409482;stroke-linecap:butt;stroke-linejoin:miter;stroke-miterlimit:4;stroke-dasharray:none;stroke-opacity:1"
   d="m 352.04541,211.90019 0.003,54.18075"
   id="path872"
   inkscape:connector-curvature="0"
   sodipodi:nodetypes="cc" /><path
   style="fill:none;stroke:#000000;stroke-width:11.04215336;stroke-linecap:round;stroke-linejoin:miter;stroke-miterlimit:4;stroke-dasharray:none;stroke-opacity:1"
   d="m 338.67809,273.17608 -0.45948,-29.19309"
   id="path874"
   inkscape:connector-curvature="0" /><path
   style="fill:none;stroke:#000000;stroke-width:2.77409482;stroke-linecap:butt;stroke-linejoin:miter;stroke-miterlimit:4;stroke-dasharray:none;stroke-opacity:1"
   d="m 351.95267,213.4849 h -5.52894"
   id="path876"
   inkscape:connector-curvature="0" /><path
   inkscape:connector-curvature="0"
   id="path878"
   d="m 351.95267,221.25236 h -5.52894"
   style="fill:none;stroke:#000000;stroke-width:2.77409482;stroke-linecap:butt;stroke-linejoin:miter;stroke-miterlimit:4;stroke-dasharray:none;stroke-opacity:1" /><path
   style="fill:none;stroke:#000000;stroke-width:2.77409482;stroke-linecap:butt;stroke-linejoin:miter;stroke-miterlimit:4;stroke-dasharray:none;stroke-opacity:1"
   d="m 351.95267,229.01983 h -5.52894"
   id="path880"
   inkscape:connector-curvature="0" /><path
   style="fill:#000000;fill-opacity:1;fill-rule:evenodd;stroke:#000000;stroke-width:0.07525832;stroke-miterlimit:4;stroke-dasharray:none;stroke-opacity:1"
   id="path884"
   sodipodi:type="arc"
   sodipodi:cx="338.64407"
   sodipodi:cy="336.55127"
   sodipodi:rx="1.9114338"
   sodipodi:ry="1.9114338"
   sodipodi:start="4.7154259"
   sodipodi:end="4.7152625"
   d="m 338.64988,334.63984 a 1.9114338,1.9114338 0 0 1 1.90562,1.91716 1.9114338,1.9114338 0 0 1 -1.91708,1.9057 1.9114338,1.9114338 0 0 1 -1.90577,-1.917 1.9114338,1.9114338 0 0 1 1.91692,-1.90586"
   sodipodi:open="true" /><path
   style="fill:none;fill-opacity:1;fill-rule:evenodd;stroke:#000000;stroke-width:2.69146729;stroke-miterlimit:4;stroke-dasharray:none;stroke-opacity:1"
   id="path869"
   sodipodi:type="arc"
   sodipodi:cx="338.64407"
   sodipodi:cy="522.85388"
   sodipodi:rx="20.546522"
   sodipodi:ry="22.978426"
   sodipodi:start="6.2744123"
   sodipodi:end="3.1441689"
   d="m 359.1898,522.65229 a 20.546522,22.978426 0 0 1 -10.1838,20.04391 20.546522,22.978426 0 0 1 -20.61371,0.0714 20.546522,22.978426 0 0 1 -10.29467,-19.97295"
   sodipodi:open="true" /><path
   sodipodi:open="true"
   d="m 359.1898,-459.84951 a 20.546522,22.978426 0 0 1 -19.97582,23.17118"
   sodipodi:end="1.5430552"
   sodipodi:start="6.2744123"
   sodipodi:ry="22.978426"
   sodipodi:rx="20.546522"
   sodipodi:cy="-459.64792"
   sodipodi:cx="338.64407"
   sodipodi:type="arc"
   id="path871"
   style="fill:none;fill-opacity:1;fill-rule:evenodd;stroke:#000000;stroke-width:2.69146729;stroke-miterlimit:4;stroke-dasharray:none;stroke-opacity:1"
   transform="scale(1,-1)" /><path
   style="fill:none;stroke:#000000;stroke-width:2.69146729;stroke-linecap:butt;stroke-linejoin:miter;stroke-miterlimit:4;stroke-dasharray:none;stroke-opacity:1"
   d="m 318.09762,459.20511 c 0,0 0,63.84056 0,63.84056 v 0"
   id="path873"
   inkscape:connector-curvature="0" /><path
   style="fill:none;stroke:#000000;stroke-width:2.69146729;stroke-linecap:butt;stroke-linejoin:miter;stroke-miterlimit:4;stroke-dasharray:none;stroke-opacity:1"
   d="m 359.18981,459.3475 v 63.63945"
   id="path875"
   inkscape:connector-curvature="0" /><g
   id="g891"
   transform="matrix(0.63891212,0,0,0.84664044,122.28027,136.15482)"><path
     style="fill:none;fill-opacity:1;fill-rule:evenodd;stroke:#000000;stroke-width:3;stroke-miterlimit:4;stroke-dasharray:none;stroke-opacity:1"
     id="path879"
     sodipodi:type="arc"
     sodipodi:cx="338.64407"
     sodipodi:cy="453.50793"
     sodipodi:rx="24.219294"
     sodipodi:ry="24.219294"
     sodipodi:start="6.2744123"
     sodipodi:end="3.1441689"
     d="m 362.86244,453.29546 a 24.219294,24.219294 0 0 1 -12.00421,21.12631 24.219294,24.219294 0 0 1 -24.29848,0.0753 24.219294,24.219294 0 0 1 -12.13489,-21.05152"
     sodipodi:open="true" /><path
     sodipodi:open="true"
     d="m 362.86244,-387.10127 a 24.219294,24.219294 0 0 1 -12.00421,21.12631 24.219294,24.219294 0 0 1 -24.29848,0.0753 24.219294,24.219294 0 0 1 -12.13489,-21.05152"
     sodipodi:end="3.1441689"
     sodipodi:start="6.2744123"
     sodipodi:ry="24.219294"
     sodipodi:rx="24.219294"
     sodipodi:cy="-386.88879"
     sodipodi:cx="338.64407"
     sodipodi:type="arc"
     id="path881"
     style="fill:none;fill-opacity:1;fill-rule:evenodd;stroke:#000000;stroke-width:3;stroke-miterlimit:4;stroke-dasharray:none;stroke-opacity:1"
     transform="scale(1,-1)" /><path
     style="fill:none;stroke:#000000;stroke-width:3;stroke-linecap:butt;stroke-linejoin:miter;stroke-miterlimit:4;stroke-dasharray:none;stroke-opacity:1"
     d="m 314.42486,386.42206 c 0,0 0,67.28805 0,67.28805 v 0"
     id="path883"
     inkscape:connector-curvature="0" /><path
     style="fill:none;stroke:#000000;stroke-width:3;stroke-linecap:butt;stroke-linejoin:miter;stroke-miterlimit:4;stroke-dasharray:none;stroke-opacity:1"
     d="m 362.86244,386.57214 v 67.07607"
     id="path885"
     inkscape:connector-curvature="0" /></g><path
   style="fill:none;stroke:#000000;stroke-width:1.96102059;stroke-linecap:butt;stroke-linejoin:miter;stroke-miterlimit:4;stroke-dasharray:none;stroke-opacity:1"
   d="m 337.1279,394.26995 c 0,0 0,43.68894 0,43.68894 v 0"
   id="path897"
   inkscape:connector-curvature="0" /><path
   style="fill:none;stroke:#000000;stroke-width:1.96279848;stroke-linecap:butt;stroke-linejoin:miter;stroke-miterlimit:4;stroke-dasharray:none;stroke-opacity:1"
   d="m 340.16015,394.36475 v 43.6303"
   id="path899"
   inkscape:connector-curvature="0" /><path
   transform="scale(1,-1)"
   style="fill:none;fill-opacity:1;fill-rule:evenodd;stroke:#000000;stroke-width:2.69146729;stroke-miterlimit:4;stroke-dasharray:none;stroke-opacity:1"
   id="path907"
   sodipodi:type="arc"
   sodipodi:cx="338.64407"
   sodipodi:cy="-459.64792"
   sodipodi:rx="20.546522"
   sodipodi:ry="22.978426"
   sodipodi:start="1.5988399"
   sodipodi:end="3.1441689"
   d="m 338.06795,-436.67853 a 20.546522,22.978426 0 0 1 -19.97033,-23.02859"
   sodipodi:open="true" /></svg>