<?xml version="1.0" encoding="UTF-8" standalone="no"?>
<svg
   version="1.1"
   id="Layer_1"
   x="0px"
   y="0px"
   viewBox="0 0 667 666"
   style="enable-background:new 0 0 667 666;"
   xml:space="preserve"
   sodipodi:docname="icon.svg"
   inkscape:version="1.1 (c68e22c387, 2021-05-23)"
   xmlns:inkscape="http://www.inkscape.org/namespaces/inkscape"
   xmlns:sodipodi="http://sodipodi.sourceforge.net/DTD/sodipodi-0.dtd"
   xmlns="http://www.w3.org/2000/svg"
   xmlns:svg="http://www.w3.org/2000/svg"
   xmlns:rdf="http://www.w3.org/1999/02/22-rdf-syntax-ns#"
   xmlns:cc="http://creativecommons.org/ns#"
   xmlns:dc="http://purl.org/dc/elements/1.1/"><metadata
   id="metadata319"><rdf:RDF><cc:Work
       rdf:about=""><dc:format>image/svg+xml</dc:format><dc:type
         rdf:resource="http://purl.org/dc/dcmitype/StillImage" /></cc:Work></rdf:RDF></metadata><defs
   id="defs317"><marker
     inkscape:stockid="Arrow1Send"
     orient="auto"
     refY="0"
     refX="0"
     id="Arrow1Send"
     style="overflow:visible"
     inkscape:isstock="true"><path
       inkscape:connector-curvature="0"
       id="path4714"
       d="M 0,0 5,-5 -12.5,0 5,5 Z"
       style="fill:#000000;fill-opacity:1;fill-rule:evenodd;stroke:#000000;stroke-width:1.00000003pt;stroke-opacity:1"
       transform="matrix(-0.2,0,0,-0.2,-1.2,0)" /></marker><clipPath
     id="clipPath69-0"><path
       inkscape:connector-curvature="0"
       id="path71-2"
       d="m 409.441,126.252 v -43.63 h 147.796 v 43.63" /></clipPath><clipPath
     id="clipPath101-1"><path
       inkscape:connector-curvature="0"
       id="path103-6"
       d="m 409.441,126.252 v -43.63 h 147.796 v 43.63" /></clipPath><clipPath
     id="clipPath69"><path
       inkscape:connector-curvature="0"
       id="path71"
       d="m 409.441,126.252 v -43.63 h 147.796 v 43.63" /></clipPath><clipPath
     id="clipPath101"><path
       inkscape:connector-curvature="0"
       id="path103"
       d="m 409.441,126.252 v -43.63 h 147.796 v 43.63" /></clipPath></defs><sodipodi:namedview
   pagecolor="#ffffff"
   bordercolor="#666666"
   borderopacity="1"
   objecttolerance="10"
   gridtolerance="10"
   guidetolerance="10"
   inkscape:pageopacity="0"
   inkscape:pageshadow="2"
   inkscape:window-width="1680"
   inkscape:window-height="987"
   id="namedview315"
   showgrid="false"
   inkscape:zoom="0.70870873"
   inkscape:cx="487.50634"
   inkscape:cy="402.84533"
   inkscape:window-x="-8"
   inkscape:window-y="-8"
   inkscape:window-maximized="1"
   inkscape:current-layer="Layer_1"
   inkscape:document-rotation="0"
   inkscape:pagecheckerboard="0" />
<style
   type="text/css"
   id="style2">
	.st0{fill:none;stroke:#000000;stroke-width:2;stroke-linecap:round;stroke-linejoin:round;stroke-miterlimit:10;}
</style>


<path
   style="fill:none;stroke:#000000;stroke-width:5;stroke-linecap:butt;stroke-linejoin:miter;stroke-miterlimit:4;stroke-dasharray:none;stroke-opacity:1;fill-opacity:1"
   d="m 378.14332,104.76266 c 0,0 -74.06084,-16.277561 -111.74684,-18.957052 -38.16336,-2.713431 -114.74006,2.993218 -114.74006,2.993218 -0.21324,45.906374 0.99774,45.896024 0.99774,45.896024 -28.88056,42.2967 -34.22611,102.40114 -18.95705,150.65868 14.24002,45.00528 70.08695,100.89061 95.28413,104.76266 2.32441,0.35719 -1.05562,5.46895 0.49887,7.23361 15.90609,9.48432 57.47919,14.46762 81.06635,10.72571 2.56403,-0.71048 -0.91243,-8.08938 1.74604,-7.98192 39.52871,1.59778 86.27863,-41.82135 100.7717,-82.81239 18.67683,-52.82405 -6.00135,-119.15776 -33.92314,-164.62704 z"
   id="path984"
   sodipodi:nodetypes="sassasccsass" /><path
   style="fill:none;stroke:#000000;stroke-width:5;stroke-linecap:butt;stroke-linejoin:miter;stroke-miterlimit:4;stroke-dasharray:none;stroke-opacity:1;fill-opacity:1"
   d="m 151.65642,88.798826 21.4514,-16.462703 77.32483,-2.494349 11.97287,-8.480788 62.35873,2.99322 -13.96836,9.478526 88.29996,15.464964 0.99774,54.875684 c 0,0 35.03738,37.73531 38.41297,109.25248 0.67793,14.36304 0.0653,29.26437 -4.48982,42.90281 -8.29361,24.83157 -21.87252,48.85932 -40.40846,67.34742 -7.8142,7.79403 -28.43558,16.96158 -28.43558,16.96158"
   id="path3037"
   sodipodi:nodetypes="ccccccccsaac" /><path
   style="fill:none;stroke:#000000;stroke-width:5;stroke-linecap:butt;stroke-linejoin:miter;stroke-miterlimit:4;stroke-dasharray:none;stroke-opacity:1"
   d="M 177.09878,71.837253 209.27589,54.37681 c 0,0 64.75303,-4.168796 97.03017,-1.99548 42.18688,2.840567 119.2609,12.861109 124.71746,19.455923 3.63028,4.387561 0.99774,52.880197 0.99774,52.880197 0,0 23.42768,34.7356 29.93219,54.37681 5.3823,16.25256 6.98417,50.88472 6.98417,50.88472 l 6.98418,19.9548 -1.49661,357.19078"
   id="path4197"
   sodipodi:nodetypes="ccsscaccc" /><path
   style="fill:none;stroke:#000000;stroke-width:5;stroke-linecap:butt;stroke-linejoin:miter;stroke-miterlimit:4;stroke-dasharray:none;stroke-opacity:1"
   d="m 217.00837,53.37907 28.68501,-10.975136 c 0,0 30.99878,-4.092747 95.78301,-0.249435 36.01278,2.136451 86.34573,8.322386 107.25701,14.467225 2.94185,0.864471 5.96949,3.917989 5.98643,6.984177 l 0.24944,45.147719 c 0,0 23.93498,36.44721 29.68275,57.12059 6.00307,21.59164 4.24039,67.098 4.24039,67.098 0,0 -1.57983,207.6339 -2.99321,327.75746 -0.18743,15.92979 -11.47401,46.39489 -11.47401,46.39489"
   id="path4327"
   sodipodi:nodetypes="ccssscacsc" /><path
   style="fill:none;stroke:#000000;stroke-width:5;stroke-linecap:butt;stroke-linejoin:miter;stroke-miterlimit:4;stroke-dasharray:none;stroke-opacity:1"
   d="m 488.91736,213.76906 -41.625,35.27542 c 0,0 5.56543,6.08594 5.64407,9.87712 1.14103,55.00559 3.34992,251.12439 3.52754,336.52753 0.0162,7.78548 9.87712,21.16526 9.87712,21.16526"
   id="path5981"
   sodipodi:nodetypes="ccssc" /><path
   style="fill:none;stroke:#000000;stroke-width:5;stroke-linecap:butt;stroke-linejoin:miter;stroke-miterlimit:4;stroke-dasharray:none;stroke-opacity:1"
   d="m 447.29236,249.04448 c 0,0 -4.05169,31.50293 -8.81886,46.56356 -4.20826,13.29495 -9.75963,26.35717 -17.28496,38.09746 -5.03806,7.8599 -18.34321,21.16525 -18.34321,21.16525"
   id="path6495"
   sodipodi:nodetypes="caac" /><path
   style="fill:none;stroke:#000000;stroke-width:5;stroke-linecap:butt;stroke-linejoin:miter;stroke-miterlimit:4;stroke-dasharray:none;stroke-opacity:1"
   d="m 149.56779,319.59533 12.69915,218.70762 c 0.55206,9.50762 2.28237,21.06307 9.87712,26.80932 43.25342,32.72591 80.19283,50.18186 125.58051,59.26271 55.1716,11.03835 112.44676,12.76329 168.61652,-7.76059 3.90306,-1.42614 8.0841,-9.48983 8.0841,-9.48983"
   id="path7066"
   sodipodi:nodetypes="cssasc" /><path
   style="fill:none;fill-rule:evenodd;stroke:#000000;stroke-width:5.00014629;stroke-miterlimit:4;stroke-dasharray:none;stroke-opacity:1"
   id="path7564"
   sodipodi:type="arc"
   sodipodi:cx="535.95758"
   sodipodi:cy="-43.422497"
   sodipodi:rx="25.706253"
   sodipodi:ry="24.398083"
   sodipodi:start="0.83683651"
   sodipodi:end="0.83455187"
   sodipodi:open="true"
   sodipodi:arc-type="arc"
   d="m 553.17602,-25.30624 a 25.706253,24.398083 0 0 1 -36.29621,-1.763707 25.706253,24.398083 0 0 1 1.83754,-34.450127 25.706253,24.398083 0 0 1 36.29831,1.724354 25.706253,24.398083 0 0 1 -1.79608,34.452097"
   transform="matrix(0.44794084,0.8940632,-0.89885639,0.43824329,0,0)" /><path
   style="fill:none;fill-rule:evenodd;stroke:#000000;stroke-width:5.00035413;stroke-linecap:butt;stroke-miterlimit:4;stroke-dasharray:none;stroke-opacity:1"
   id="path7772"
   sodipodi:type="arc"
   sodipodi:cx="-534.18494"
   sodipodi:cy="-58.491657"
   sodipodi:rx="8.4649954"
   sodipodi:ry="7.8661809"
   sodipodi:start="1.0077238"
   sodipodi:end="0.15312196"
   sodipodi:open="true"
   sodipodi:arc-type="arc"
   d="m -529.66643,-51.839865 a 8.4649954,7.8661809 0 0 1 -10.55586,-1.138024 8.4649954,7.8661809 0 0 1 -1.04134,-9.827406 8.4649954,7.8661809 0 0 1 10.11428,-3.029361 8.4649954,7.8661809 0 0 1 5.33037,8.542783"
   transform="matrix(-0.60582471,-0.79559815,0.78528924,-0.61912908,0,0)" /><path
   style="fill:none;stroke:#000000;stroke-width:5;stroke-linecap:round;stroke-linejoin:miter;stroke-miterlimit:4;stroke-dasharray:none;stroke-opacity:1"
   d="m 276.72326,449.27848 0.20124,10.02798"
   id="path8118" /></svg>
