<?xml version="1.0" encoding="UTF-8" standalone="no"?>
<svg
   version="1.1"
   id="Layer_1"
   x="0px"
   y="0px"
   viewBox="0 0 667 666"
   style="enable-background:new 0 0 667 666;"
   xml:space="preserve"
   sodipodi:docname="icon.svg"
   inkscape:version="1.3.2 (091e20e, 2023-11-25, custom)"
   xmlns:inkscape="http://www.inkscape.org/namespaces/inkscape"
   xmlns:sodipodi="http://sodipodi.sourceforge.net/DTD/sodipodi-0.dtd"
   xmlns="http://www.w3.org/2000/svg"
   xmlns:svg="http://www.w3.org/2000/svg"
   xmlns:rdf="http://www.w3.org/1999/02/22-rdf-syntax-ns#"
   xmlns:cc="http://creativecommons.org/ns#"
   xmlns:dc="http://purl.org/dc/elements/1.1/"><metadata
   id="metadata319"><rdf:RDF><cc:Work
       rdf:about=""><dc:format>image/svg+xml</dc:format><dc:type
         rdf:resource="http://purl.org/dc/dcmitype/StillImage" /><dc:title /></cc:Work></rdf:RDF></metadata><defs
   id="defs317"><marker
     inkscape:stockid="Arrow1Send"
     orient="auto"
     refY="0"
     refX="0"
     id="Arrow1Send"
     style="overflow:visible"
     inkscape:isstock="true"><path
       inkscape:connector-curvature="0"
       id="path4714"
       d="M 0,0 5,-5 -12.5,0 5,5 Z"
       style="fill:#000000;fill-opacity:1;fill-rule:evenodd;stroke:#000000;stroke-width:1.00000003pt;stroke-opacity:1"
       transform="matrix(-0.2,0,0,-0.2,-1.2,0)" /></marker><clipPath
     id="clipPath69-0"><path
       inkscape:connector-curvature="0"
       id="path71-2"
       d="m 409.441,126.252 v -43.63 h 147.796 v 43.63" /></clipPath><clipPath
     id="clipPath101-1"><path
       inkscape:connector-curvature="0"
       id="path103-6"
       d="m 409.441,126.252 v -43.63 h 147.796 v 43.63" /></clipPath><clipPath
     id="clipPath69"><path
       inkscape:connector-curvature="0"
       id="path71"
       d="m 409.441,126.252 v -43.63 h 147.796 v 43.63" /></clipPath><clipPath
     id="clipPath101"><path
       inkscape:connector-curvature="0"
       id="path103"
       d="m 409.441,126.252 v -43.63 h 147.796 v 43.63" /></clipPath><pattern
     y="0"
     x="0"
     height="6"
     width="6"
     patternUnits="userSpaceOnUse"
     id="EMFhbasepattern" /><marker
     inkscape:isstock="true"
     style="overflow:visible"
     id="Arrow1Send-4"
     refX="0"
     refY="0"
     orient="auto"
     inkscape:stockid="Arrow1Send"><path
       transform="matrix(-0.2,0,0,-0.2,-1.2,0)"
       style="fill:#000000;fill-opacity:1;fill-rule:evenodd;stroke:#000000;stroke-width:1.00000003pt;stroke-opacity:1"
       d="M 0,0 5,-5 -12.5,0 5,5 Z"
       id="path4714-2"
       inkscape:connector-curvature="0" /></marker><clipPath
     id="clipPath69-0-5"><path
       d="m 409.441,126.252 v -43.63 h 147.796 v 43.63"
       id="path71-2-2"
       inkscape:connector-curvature="0" /></clipPath><clipPath
     id="clipPath101-1-4"><path
       d="m 409.441,126.252 v -43.63 h 147.796 v 43.63"
       id="path103-6-3"
       inkscape:connector-curvature="0" /></clipPath><clipPath
     id="clipPath69-2"><path
       d="m 409.441,126.252 v -43.63 h 147.796 v 43.63"
       id="path71-4"
       inkscape:connector-curvature="0" /></clipPath><clipPath
     id="clipPath101-3"><path
       d="m 409.441,126.252 v -43.63 h 147.796 v 43.63"
       id="path103-7"
       inkscape:connector-curvature="0" /></clipPath><pattern
     id="EMFhbasepattern-1"
     patternUnits="userSpaceOnUse"
     width="6"
     height="6"
     x="0"
     y="0" /><marker
     inkscape:isstock="true"
     style="overflow:visible"
     id="Arrow1Send-0"
     refX="0"
     refY="0"
     orient="auto"
     inkscape:stockid="Arrow1Send"><path
       transform="matrix(-0.2,0,0,-0.2,-1.2,0)"
       style="fill:#000000;fill-opacity:1;fill-rule:evenodd;stroke:#000000;stroke-width:1.00000003pt;stroke-opacity:1"
       d="M 0,0 5,-5 -12.5,0 5,5 Z"
       id="path4714-1"
       inkscape:connector-curvature="0" /></marker><clipPath
     id="clipPath69-0-3"><path
       d="m 409.441,126.252 v -43.63 h 147.796 v 43.63"
       id="path71-2-4"
       inkscape:connector-curvature="0" /></clipPath><clipPath
     id="clipPath101-1-9"><path
       d="m 409.441,126.252 v -43.63 h 147.796 v 43.63"
       id="path103-6-33"
       inkscape:connector-curvature="0" /></clipPath><clipPath
     id="clipPath69-3"><path
       d="m 409.441,126.252 v -43.63 h 147.796 v 43.63"
       id="path71-5"
       inkscape:connector-curvature="0" /></clipPath><clipPath
     id="clipPath101-0"><path
       d="m 409.441,126.252 v -43.63 h 147.796 v 43.63"
       id="path103-1"
       inkscape:connector-curvature="0" /></clipPath><pattern
     id="EMFhbasepattern-2"
     patternUnits="userSpaceOnUse"
     width="6"
     height="6"
     x="0"
     y="0" /></defs><sodipodi:namedview
   pagecolor="#ffffff"
   bordercolor="#666666"
   borderopacity="1"
   objecttolerance="10"
   gridtolerance="10"
   guidetolerance="10"
   inkscape:pageopacity="0"
   inkscape:pageshadow="2"
   inkscape:window-width="1625"
   inkscape:window-height="987"
   id="namedview315"
   showgrid="false"
   inkscape:zoom="1.0022655"
   inkscape:cx="299.82076"
   inkscape:cy="398.59698"
   inkscape:window-x="-8"
   inkscape:window-y="-8"
   inkscape:window-maximized="1"
   inkscape:current-layer="Layer_1"
   inkscape:document-rotation="0"
   inkscape:showpageshadow="2"
   inkscape:pagecheckerboard="0"
   inkscape:deskcolor="#d1d1d1" />
<style
   type="text/css"
   id="style2">
	.st0{fill:none;stroke:#000000;stroke-width:2;stroke-linecap:round;stroke-linejoin:round;stroke-miterlimit:10;}
</style>


<style
   id="style2-2"
   type="text/css">
	.st0{fill:none;stroke:#000000;stroke-width:2;stroke-linecap:round;stroke-linejoin:round;stroke-miterlimit:10;}
</style><style
   id="style2-8"
   type="text/css">
	.st0{fill:none;stroke:#000000;stroke-width:2;stroke-linecap:round;stroke-linejoin:round;stroke-miterlimit:10;}
</style><path
   d="m 71.118567,191.19169 114.243723,36.6695 132.87318,-32.0771 0.79255,-0.22403 c 7.30813,-2.02628 13.68702,-3.11306 19.50657,-3.11306 5.709,0 12.27279,1.05162 20.20273,3.0405 l 0.66688,0.16868 139.04819,30.36149 c 0.60318,0.1317 1.20075,0.28769 1.79124,0.46757 l 0.44151,0.13937 64.77834,21.17002 0.20211,0.0595 c 22.153,6.62752 38.22938,24.97468 46.05313,49.49608 l 0.23692,0.75257 c 7.05804,22.72448 6.82292,49.75037 -0.74056,76.12735 -7.56348,26.37699 -21.68562,49.42083 -39.71332,64.95209 -19.95175,17.18889 -43.83478,24.40999 -66.5662,17.89186 -1.83292,-0.52558 -3.63539,-1.13586 -5.40432,-1.82902 l -0.13273,-0.053 -0.3277,-0.10494 -0.36683,-0.12416 -32.91613,-11.44555 -0.0754,0.19569 c -10.00327,25.50899 -25.61917,47.33151 -44.41942,62.09543 l -0.62094,0.48416 c -22.74438,17.6078 -49.05343,24.08106 -73.22928,15.75664 -1.72011,-0.59228 -3.41095,-1.25462 -5.07035,-1.98563 l -0.72404,-0.32436 -46.57887,-15.9415 c -0.52269,-0.17889 -1.0387,-0.37659 -1.54703,-0.59269 l -0.3798,-0.16553 -152.85148,-68.26563 c -1.00281,-0.44787 -1.95827,-0.95933 -2.86359,-1.52762 l -0.25658,-0.16353 -0.13374,-0.0683 c -19.41061,-10.03736 -33.31689,-28.5608 -39.954853,-51.53295 l -0.20938,-0.73466 c -6.48506,-23.07326 -5.38323,-49.45253 3.280153,-74.61282 7.49624,-21.77066 20.00627,-40.68597 35.54446,-54.50163 L 67.241537,229.94797 c -28.41652,-9.00157 -1.88113,-3.29763 -2.42366,-6.59273 -0.17069,-1.03671 -2.655,-2.84489 -5.26205,-4.61896 l -2.60591,-1.75942 c -4.75426,-3.23308 -7.15552,-5.29979 9.0246,-0.23285 l 1.1592,0.36516 c 18.22867,5.77434 44.780873,14.40241 79.656583,25.88421 5.77615,-3.9047 11.85567,-7.14767 18.15846,-9.63776 L 67.478987,202.06989 c -19.70507,-6.36064 2.07114,-0.0102 1.94921,-2.89103 -0.13259,-3.13272 -22.28309,-15.68207 1.69037,-7.98717 z M 326.38498,388.06495 c -16.70864,48.52543 -5.64212,96.75756 24.56241,110.69838 0.32569,0.15032 0.6536,0.29665 0.98373,0.43896 l -0.80748,-0.3581 c 0.30915,0.14097 0.62029,0.27837 0.93342,0.41214 0.25942,0.11083 0.52008,0.21913 0.7821,0.32492 l -0.7821,-0.32492 c 0.31796,0.13584 0.63797,0.26796 0.96002,0.3963 l -0.17792,-0.0714 c 0.33625,0.13578 0.67474,0.26743 1.01545,0.39492 l -0.83753,-0.32354 0.50871,0.19894 0.32882,0.1246 c 0.35026,0.13106 0.70286,0.25773 1.05781,0.37994 4.64463,1.59928 9.44293,2.35229 14.30866,2.32648 l 1.04366,-0.0182 c 29.5977,-0.83478 61.45337,-30.22732 76.26094,-73.23163 l 0.4552,-1.34244 0.12545,-0.37743 c 0.12603,-0.38087 0.25044,-0.76195 0.37314,-1.14298 l -0.37314,1.14298 c 0.16792,-0.50748 0.33282,-1.01487 0.4947,-1.52216 0.12718,-0.39852 0.25249,-0.79698 0.37594,-1.19535 l -0.37594,1.19535 0.22891,-0.72364 0.14703,-0.47171 c 0.2078,-0.67053 0.41034,-1.3408 0.60763,-2.01074 l 0.37415,-1.2921 -0.0821,0.28747 c 0.14635,-0.51021 0.28966,-1.02018 0.42994,-1.5299 l -0.3478,1.24243 0.1975,-0.70037 0.1503,-0.54206 c 0.13945,-0.50666 0.2759,-1.01305 0.40937,-1.51915 l -0.36598,1.36116 0.21733,-0.80197 0.14865,-0.55919 c 0.13605,-0.51583 0.26899,-1.03136 0.39886,-1.54652 l -0.33517,1.30422 0.18622,-0.71848 0.14895,-0.58574 c 0.11848,-0.47005 0.2344,-0.93981 0.34776,-1.40924 l -0.31449,1.27695 0.2127,-0.85814 0.26736,-1.11193 0.16186,-0.69263 c 8.66977,-37.51733 0.98582,-72.74172 -18.95578,-89.55009 l -0.0626,0.24775 c -4.06309,-3.36904 -8.62845,-5.98327 -13.66211,-7.70944 l -5.75534,-1.95373 c -32.05349,-6.28879 -69.52444,24.68211 -85.96917,72.44105 z m 14.28288,-89.83542 -7.87295,2.37495 c -24.06655,9.12417 -47.16949,34.92721 -59.14876,69.5756 -15.72646,45.48727 -6.9213,90.71651 19.2571,107.62497 l 9.59556,4.28572 14.23379,4.87108 5.75926,1.9221 c -17.29213,-25.03731 -20.53591,-65.1076 -6.95349,-104.55379 13.5193,-39.26289 40.55555,-68.74983 69.44445,-77.98055 l -14.14821,-4.79227 c -1.70298,-0.85481 -3.46936,-1.59887 -5.29752,-2.22579 -1.73891,-0.59632 -3.4993,-1.07485 -5.27667,-1.43908 l -0.60456,-0.11936 c -6.1933,-1.17657 -12.58569,-0.97581 -18.988,0.45642 z m -2.13327,-82.83932 c -3.43801,0 -7.89684,0.75966 -13.37651,2.27897 l -1.10954,0.31399 -137.02862,33.081 c -3.7015,0.50767 -7.39696,1.40606 -11.04893,2.66946 l -0.2966,0.0721 0.004,0.0298 c -22.63348,7.95581 -43.5557,29.92315 -53.83215,59.76811 -14.74012,42.80843 -2.24259,86.32983 27.86012,100.06751 l -0.0593,0.15394 117.0851,52.29429 c -14.63614,-25.15754 -16.71612,-62.69929 -3.92796,-99.68782 14.37577,-41.57994 44.10114,-72.41591 75.29048,-79.40763 L 477.61212,244.94998 354.10687,217.98317 c -6.71431,-1.72864 -11.90508,-2.59296 -15.57228,-2.59296 z m 142.22586,121.43266 c -12.30601,42.91615 -0.97395,84.34305 25.29997,96.28188 l 0.91645,0.40187 -0.1157,-0.0492 c 0.19712,0.0841 0.39505,0.16659 0.5938,0.24742 l 0.0153,-0.0473 c 1.20044,0.4838 2.43051,0.90744 3.6894,1.26842 29.8932,8.57173 64.72391,-21.43432 77.7954,-67.02004 13.0715,-45.58572 -0.56454,-89.48826 -30.45774,-98.06 l -2.09595,-0.70968 c -29.40874,-6.49395 -62.87935,23.18183 -75.64088,67.6866 z m -15.06134,52.47326 -0.0285,0.82734 c -0.37365,9.00184 -1.64436,18.2955 -3.84969,27.66922 l 16.61133,5.82982 c -6.26069,-9.36217 -10.53968,-20.89983 -12.63202,-33.69605 z m 23.46316,-135.99849 -0.27217,0.0781 c -0.37286,0.21411 -0.77583,0.38938 -1.20516,0.51886 l -3.41065,1.02689 c -20.06231,7.82198 -38.90722,29.43729 -48.94379,58.30663 15.69267,10.99144 25.65179,30.05916 29.10085,52.81014 0.42603,-10.51629 2.16561,-21.43988 5.30188,-32.37737 10.38143,-36.20433 33.66007,-64.1698 59.61513,-73.53197 l -25.12671,-8.21164 -0.47995,-0.0463 c -4.65797,-0.39911 -9.38183,0.0587 -14.07655,1.29165 z m -38.61507,11.79696 -79.58819,24.00076 c 1.25731,0.47862 2.49438,1.00321 3.71018,1.57304 l 0.54855,0.26207 40.06854,13.57517 c 2.16302,0.45984 4.31359,1.05478 6.44676,1.78929 1.16332,0.40056 2.30515,0.83702 3.42533,1.3083 l 0.0676,-0.19003 c 6.04797,-16.56308 14.85722,-31.06805 25.32127,-42.3186 z"
   id="path1"
   style="stroke-width:0.57358" /></svg>
