<svg height="960" viewBox="0 0 960 960" width="960" xmlns="http://www.w3.org/2000/svg"><path d="m-8.46823005 242.516914 199.17650905 63.930881 231.655794-55.924334 1.381752-.390584c12.741252-3.532688 23.862433-5.427416 34.008435-5.427416 9.953276 0 21.396813 1.833421 35.222158 5.300921l1.162655.294079 242.421496 52.933276c1.05162.229625 2.093435.50158 3.122908.815178l.769752.242995 112.936844 36.908551.352359.10374c38.62233 11.554654 66.650445 43.541733 80.290644 86.293197l.413059 1.312071c12.305233 39.618664 11.895316 86.736536-1.291118 132.723096-13.186434 45.986561-37.807473 86.162005-69.237595 113.239758-34.784594 29.967704-76.423098 42.557232-116.053857 31.193295-3.195587-.91632-6.338075-1.980295-9.42208-3.188781l-.231412-.092376-.57131-.182952-.639548-.216472-57.387142-19.954576-.131417.341181c-17.440036 44.473258-44.665347 82.519422-77.442368 108.259349l-1.082567.844103c-39.653348 30.698069-85.521482 41.983761-127.670509 27.470687-2.998904-1.032605-5.946771-2.187353-8.839821-3.461834l-1.262318-.565486-81.20724-27.792981c-.911273-.311882-1.810909-.656551-2.697156-1.033317l-.662148-.288582-266.486641-119.016701c-1.748332-.78083-3.414121-1.672535-4.992491-2.663306l-.447324-.285113-.233176-.119052c-33.8411897-17.499531-58.0858876-49.79395-69.6587347-89.844386l-.3650401-1.28083c-11.3062815-40.226744-9.3853187-86.217297 5.7187256-130.082627 13.069205-37.955727 34.879641-70.933352 61.9694772-95.020056l-119.3489033-37.805543c-49.5423694-15.693655-3.279639-5.74921-4.2254962-11.494002-.2975865-1.807432-4.6288189-4.959885-9.1740547-8.052854l-4.543227-3.067432c-8.2887465-5.636668-12.4751873-9.239841 15.733813-.405955l2.0209872.636628c31.7805075 10.067187 78.0725344 25.109669 138.876081 45.127447 10.070344-6.807597 20.669596-12.461498 31.658099-16.802813l-169.9322374-54.544636c-34.3545053-11.089378 3.6109007-.017805 3.398329-5.040344-.2311581-5.461691-38.8491173-27.34066 2.94705435-13.925092zm445.04043905 343.235762c-29.130441 84.600943-9.836682 168.690522 42.822968 192.995444.567816.262074 1.139512.517197 1.715069.765295l-1.407796-.624326c.538982.245782 1.081439.485318 1.627355.718548.452287.193227.906733.382038 1.363543.566487l-1.363543-.566487c.554349.236832 1.112265.467161 1.673731.690919l-.310188-.124432c.586239.236711 1.17637.466239 1.770373.688509l-1.460185-.564077.886901.346847.573284.21723c.610653.2285 1.225399.449329 1.844217.662405 8.097614 2.788232 16.463155 4.101052 24.946231 4.056065l1.819547-.031826c51.601677-1.455376 107.139972-52.699368 132.956013-127.674594l.7936-2.340454.218716-.658042c.219725-.664005.436626-1.328401.650557-1.992694l-.650557 1.992694c.292768-.884746.580257-1.76936.862484-2.653773.221717-.694793.440192-1.389481.655428-2.084012l-.655428 2.084012.399077-1.261624.256351-.822388c.362283-1.16903.71539-2.337616 1.059359-3.505602l.652315-2.252688-.14321.50118c.255147-.889509.504999-1.778623.749576-2.667273l-.606366 2.166093.344327-1.221049.262039-.945044c.243112-.88333.481011-1.766201.713713-2.648546l-.638067 2.373092.378895-1.398187.259172-.974905c.237181-.899323.468963-1.798099.695366-2.696256l-.58434 2.273812.324668-1.252606.259672-1.021206c.206578-.819509.408677-1.638502.606312-2.456925l-.548289 2.226291.370816-1.496114.466139-1.938591.282183-1.207544c15.115184-65.409033 1.718725-126.820479-33.048179-156.124781l-.109118.431936c-7.083727-5.873709-15.043144-10.431439-23.818998-13.44091l-10.034061-3.406175c-55.883195-10.964106-121.211365 43.031656-149.881672 126.296272zm24.901274-156.622239-13.725981 4.140573c-41.958463 15.907397-82.236941 60.893328-103.122029 121.300562-27.418063 79.304103-12.06683 158.158342 33.573494 187.637146l16.729247 7.471871 24.815699 8.492421 10.040899 3.351045c-30.147708-43.650925-35.803032-113.510862-12.122974-182.282742 23.570022-68.452316 70.705969-119.860874 121.071897-135.954035l-24.666479-8.355009c-2.969044-1.490312-6.048618-2.787531-9.235883-3.880528-3.031685-1.039638-6.100811-1.873933-9.199535-2.508933l-1.054013-.208099c-10.797612-2.051272-21.942324-1.701272-33.104342.795728zm-3.719223-144.424976c-5.993938 0-13.767629 1.324412-23.321074 3.973237l-1.934419.547423-238.900514 57.674566c-6.453322.885095-12.896123 2.451385-19.263093 4.654033l-.517087.12579.007374.051961c-39.459996 13.870431-75.9365411 52.169064-93.8528562 104.201821-25.6984501 74.633718-3.9098204 150.510471 48.5723092 174.461212l-.103327.268384 204.130282 91.171713c-25.517543-43.860502-29.143864-109.312122-6.848531-173.799224 25.063225-72.491917 76.88749-126.252434 131.26407-138.442048l243.239519-73.353319-215.323396-47.014889c-11.705971-3.013773-20.755723-4.52066-27.149257-4.52066zm247.961566 211.709966c-21.45473 74.821537-1.698022 147.046641 44.108868 167.861221l1.597752.700635-.201707-.085677c.343662.14665.688749.290445 1.035254.431364l.026588-.082516c2.092904.843453 4.237437 1.582044 6.432237 2.211393 52.11685 14.944266 112.841932-37.369347 135.631236-116.845094s-.984245-156.016986-53.101095-170.961252l-3.654157-1.237272c-51.272218-11.321777-109.626063 40.416019-131.874976 118.007198zm-26.25847 91.483732-.049653 1.442406c-.651447 15.694139-2.866844 31.897024-6.711688 48.239493l28.960762 10.163919c-10.9151-16.322337-18.375247-36.437511-22.023094-58.746874zm40.906493-237.104549-.474504.136122c-.650066.373293-1.352607.67887-2.101114.904602l-5.946254 1.790312c-34.977325 13.637116-67.832208 51.322005-85.330316 101.653836 27.359148 19.162862 44.722217 52.406199 50.735442 92.071049.742753-18.334476 3.775594-37.379034 9.24349-56.447851 18.099337-63.119891 58.684149-111.875881 103.935112-128.198206l-43.806792-14.316464-.836766-.080792c-8.120867-.695816-16.356605.102397-24.541542 2.251922zm-67.322862 20.567242-138.756854 41.843768c2.192035.834436 4.348785 1.749019 6.468457 2.742475l.956366.456905 69.8569 23.667438c3.771081.801695 7.520465 1.838943 11.239507 3.119512 2.028166.698353 4.018891 1.459286 5.971846 2.280943l.117787-.331323c10.544242-28.876636 25.902595-54.165129 44.145991-73.779718z"/></svg>