<?xml version="1.0" encoding="UTF-8" standalone="no"?>
<svg
   xmlns:dc="http://purl.org/dc/elements/1.1/"
   xmlns:cc="http://creativecommons.org/ns#"
   xmlns:rdf="http://www.w3.org/1999/02/22-rdf-syntax-ns#"
   xmlns:svg="http://www.w3.org/2000/svg"
   xmlns="http://www.w3.org/2000/svg"
   xmlns:sodipodi="http://sodipodi.sourceforge.net/DTD/sodipodi-0.dtd"
   xmlns:inkscape="http://www.inkscape.org/namespaces/inkscape"
   inkscape:version="1.0.2 (e86c870879, 2021-01-15, custom)"
   sodipodi:docname="icon.svg"
   xml:space="preserve"
   style="enable-background:new 0 0 667 666;"
   viewBox="0 0 667 666"
   y="0px"
   x="0px"
   id="Layer_1"
   version="1.1"><metadata
   id="metadata319"><rdf:RDF><cc:Work
       rdf:about=""><dc:format>image/svg+xml</dc:format><dc:type
         rdf:resource="http://purl.org/dc/dcmitype/StillImage" /></cc:Work></rdf:RDF></metadata><defs
   id="defs317"><marker
     inkscape:isstock="true"
     style="overflow:visible"
     id="Arrow1Send"
     refX="0"
     refY="0"
     orient="auto"
     inkscape:stockid="Arrow1Send"><path
       transform="matrix(-0.2,0,0,-0.2,-1.2,0)"
       style="fill:#000000;fill-opacity:1;fill-rule:evenodd;stroke:#000000;stroke-width:1.00000003pt;stroke-opacity:1"
       d="M 0,0 5,-5 -12.5,0 5,5 Z"
       id="path4714"
       inkscape:connector-curvature="0" /></marker><clipPath
     id="clipPath69-0"><path
       d="m 409.441,126.252 v -43.63 h 147.796 v 43.63"
       id="path71-2"
       inkscape:connector-curvature="0" /></clipPath><clipPath
     id="clipPath101-1"><path
       d="m 409.441,126.252 v -43.63 h 147.796 v 43.63"
       id="path103-6"
       inkscape:connector-curvature="0" /></clipPath><clipPath
     id="clipPath69"><path
       d="m 409.441,126.252 v -43.63 h 147.796 v 43.63"
       id="path71"
       inkscape:connector-curvature="0" /></clipPath><clipPath
     id="clipPath101"><path
       d="m 409.441,126.252 v -43.63 h 147.796 v 43.63"
       id="path103"
       inkscape:connector-curvature="0" /></clipPath></defs><sodipodi:namedview
   inkscape:document-rotation="0"
   inkscape:current-layer="Layer_1"
   inkscape:window-maximized="1"
   inkscape:window-y="-8"
   inkscape:window-x="1672"
   inkscape:cy="337.25304"
   inkscape:cx="360.95509"
   inkscape:zoom="0.70870873"
   showgrid="false"
   id="namedview315"
   inkscape:window-height="987"
   inkscape:window-width="1680"
   inkscape:pageshadow="2"
   inkscape:pageopacity="0"
   guidetolerance="10"
   gridtolerance="10"
   objecttolerance="10"
   borderopacity="1"
   bordercolor="#666666"
   pagecolor="#ffffff" />
<style
   id="style2"
   type="text/css">
	.st0{fill:none;stroke:#000000;stroke-width:2;stroke-linecap:round;stroke-linejoin:round;stroke-miterlimit:10;}
</style>


<path
   style="fill:none;stroke:#000000;stroke-width:3;stroke-linecap:butt;stroke-linejoin:miter;stroke-opacity:1;stroke-miterlimit:4;stroke-dasharray:none"
   d="m 441.99865,355.19531 c 0,0 21.55047,0.46962 25.91997,-3.24699 3.78869,-3.22259 4.01222,-13.71459 4.01222,-13.71459 L 483.90372,76.825951 c 0,0 -0.8931,-11.376479 -1.99548,-16.961574 -1.72259,-8.72734 -8.09,-10.107625 -14.9661,-9.977396 l -263.40326,4.988698 -14.96609,10.975136 -1.99548,16.961574 12.97061,260.410041 c 0,0 0.32209,7.19321 2.62993,9.65299 4.25429,4.53439 9.34295,4.31536 9.34295,4.31536 z"
   id="path865"
   sodipodi:nodetypes="csccssccccscc" /><path
   style="fill:none;stroke:#000000;stroke-width:3;stroke-linecap:butt;stroke-linejoin:miter;stroke-opacity:1;stroke-miterlimit:4;stroke-dasharray:none"
   d="m 222.49594,357.19078 0.99774,224.49142 167.62025,3.99096 -0.99774,-231.47559"
   id="path867" /><path
   style="fill:none;stroke:#000000;stroke-width:3;stroke-linecap:butt;stroke-linejoin:miter;stroke-opacity:1;stroke-miterlimit:4;stroke-dasharray:none"
   d="m 441.99865,355.19531 v 228.48237 l -50.88472,1.99548"
   id="path869" /><path
   style="fill:none;stroke:#000000;stroke-width:3;stroke-linecap:butt;stroke-linejoin:miter;stroke-opacity:1;stroke-miterlimit:4;stroke-dasharray:none"
   d="m 244.44621,447.98509 h 34.92088 v 38.91184 l -34.80503,0 z"
   id="path871"
   sodipodi:nodetypes="ccccc" /><path
   style="fill:none;stroke:#000000;stroke-width:3;stroke-linecap:butt;stroke-linejoin:miter;stroke-opacity:1;stroke-miterlimit:4;stroke-dasharray:none"
   d="m 332.24729,448.98283 h 33.92315 v 36.91637 l -33.86263,0 z"
   id="path873"
   sodipodi:nodetypes="ccccc" /><path
   style="fill:none;stroke:#000000;stroke-width:3;stroke-linecap:butt;stroke-linejoin:miter;stroke-opacity:1;stroke-miterlimit:4;stroke-dasharray:none"
   d="m 261.40778,360.24452 v 25.88071 h 13.96836 V 360.184 Z"
   id="path875"
   sodipodi:nodetypes="ccccc" /><path
   style="fill:none;stroke:#000000;stroke-width:3;stroke-linecap:butt;stroke-linejoin:miter;stroke-opacity:1;stroke-miterlimit:4;stroke-dasharray:none"
   d="m 334.24277,360.184 v 27.93671 h 15.96384 v -27.87618 z"
   id="path877"
   sodipodi:nodetypes="ccccc" /><path
   style="fill:none;stroke:#000000;stroke-width:3;stroke-linecap:butt;stroke-linejoin:miter;stroke-opacity:1;stroke-miterlimit:4;stroke-dasharray:none"
   d="m 409.07324,544.76583 v 16.46271 l 14.46723,-0.49887 v -15.96384 z"
   id="path879" /><circle
   style="fill:#000000;fill-rule:evenodd;fill-opacity:1"
   id="path881"
   sodipodi:type="arc"
   sodipodi:cx="300.81851"
   sodipodi:cy="278.36935"
   sodipodi:rx="5.9864378"
   sodipodi:ry="5.9864378"
   sodipodi:start="0.83683651"
   sodipodi:end="0.83455187"
   sodipodi:open="true"
   sodipodi:arc-type="arc"
   d="m 304.82832,282.81445 a 5.9864378,5.9864378 0 0 1 -8.45261,-0.43275 5.9864378,5.9864378 0 0 1 0.42792,-8.45286 5.9864378,5.9864378 0 0 1 8.4531,0.4231 5.9864378,5.9864378 0 0 1 -0.41827,8.45334" /><path
   style="fill:none;stroke:#000000;stroke-width:3;stroke-linecap:butt;stroke-linejoin:miter;stroke-opacity:1;stroke-miterlimit:4;stroke-dasharray:none"
   d="m 186.57731,82.812389 8.84853,-4.500951 206.71398,-5.644067 c 0,0 60.31812,-1.182231 69.13983,0 4.3912,0.588482 12.62407,4.15858 12.62407,4.15858"
   id="path883"
   sodipodi:nodetypes="cccsc" /><path
   style="fill:none;stroke:#000000;stroke-width:1px;stroke-linecap:butt;stroke-linejoin:miter;stroke-opacity:1"
   d="m 410.0233,355.39989 c 0,0 -3.18977,-1.60406 -4.13823,-3.0254 -1.00211,-1.50172 -1.2736,-5.26426 -1.2736,-5.26426 l 8.23386,-275.148368 c 0,0 0.456,-9.709821 -1.0451,-13.238184 -1.29364,-3.040719 -5.48085,-7.397938 -5.48085,-7.397938"
   id="path899"
   sodipodi:nodetypes="caccsc" /><path
   style="fill:none;stroke:#000000;stroke-width:1px;stroke-linecap:butt;stroke-linejoin:miter;stroke-opacity:1"
   d="m 404.61147,347.11023 c 0,0 -0.45388,3.50888 -1.34691,4.97753 -0.80327,1.32102 -3.41764,3.13575 -3.41764,3.13575"
   id="path901"
   sodipodi:nodetypes="cac" /><path
   style="fill:none;stroke:#000000;stroke-width:1px;stroke-linecap:butt;stroke-linejoin:miter;stroke-opacity:1"
   d="m 412.84533,71.961862 c 0,0 -0.0356,-9.699138 1.86026,-13.95066 1.26325,-2.83294 5.4247,-7.038216 5.4247,-7.038216"
   id="path903"
   sodipodi:nodetypes="csc" /></svg>
