<?xml version="1.0" standalone="no"?>
<!DOCTYPE svg PUBLIC "-//W3C//DTD SVG 20010904//EN"
 "http://www.w3.org/TR/2001/REC-SVG-20010904/DTD/svg10.dtd">
<svg version="1.0" xmlns="http://www.w3.org/2000/svg"
 width="512.000000pt" height="512.000000pt" viewBox="0 0 512.000000 512.000000"
 preserveAspectRatio="xMidYMid meet">

<g transform="translate(0.000000,512.000000) scale(0.100000,-0.100000)"
fill="#000000" stroke="none">
<path d="M2929 5107 c-15 -8 -57 -40 -93 -71 -77 -65 -140 -99 -214 -115 -36
-7 -240 -11 -625 -11 -606 0 -679 -5 -852 -50 -576 -153 -1011 -623 -1121
-1215 -24 -126 -25 -409 -2 -528 9 -43 89 -353 179 -688 l164 -610 365 3 c363
3 365 3 403 26 59 37 90 100 95 193 l5 79 -36 0 c-48 0 -140 35 -205 78 -100
65 -172 165 -224 311 -30 81 -36 273 -13 376 59 269 271 453 510 443 l80 -3
12 124 c19 187 56 292 141 394 73 89 205 171 314 197 24 5 273 25 553 45 281
20 533 40 560 46 28 5 77 24 110 43 68 38 80 60 118 221 41 178 25 542 -29
646 -32 63 -136 98 -195 66z"/>
<path d="M3841 4657 c-27 -13 -303 -335 -328 -382 -23 -42 -21 -110 4 -143 51
-69 136 -92 199 -53 30 19 267 291 318 366 67 98 -4 226 -124 224 -25 0 -56
-6 -69 -12z"/>
<path d="M3007 3845 c-49 -18 -69 -20 -639 -60 -532 -37 -534 -37 -612 -105
-73 -65 -84 -103 -113 -383 -17 -168 -30 -263 -41 -286 -24 -50 -62 -74 -124
-78 -56 -4 -66 0 -141 60 -38 30 -90 43 -132 33 -41 -10 -110 -81 -136 -139
-20 -44 -24 -68 -24 -162 0 -105 2 -114 33 -178 59 -118 140 -154 243 -107 87
39 168 17 213 -59 19 -32 19 -40 7 -215 -15 -219 -29 -293 -72 -377 -39 -78
-134 -174 -209 -211 -108 -53 -146 -58 -495 -58 l-320 0 0 -337 c0 -340 -7
-459 -46 -776 l-20 -169 23 -46 c13 -26 36 -54 53 -64 36 -20 229 -62 410 -88
389 -57 799 -50 1139 20 204 42 233 92 183 306 -47 198 -97 554 -97 691 l0 48
298 1 c519 0 744 46 837 169 47 60 54 97 55 267 l0 157 -36 7 c-57 10 -235 -2
-274 -19 -19 -9 -50 -27 -69 -41 -97 -72 -207 -46 -247 59 -35 92 21 177 160
245 103 50 175 64 329 65 l137 0 0 140 0 140 133 59 c72 32 143 68 155 80 49
44 64 103 42 161 -6 15 -121 171 -256 347 -136 177 -252 336 -260 354 -11 25
-14 92 -14 283 0 137 -3 256 -6 265 -7 19 -17 19 -67 1z"/>
<path d="M3700 3821 c-55 -29 -75 -64 -75 -131 0 -67 20 -102 75 -131 31 -17
61 -19 290 -19 280 0 299 4 345 64 28 39 28 133 -1 173 -43 59 -64 63 -344 63
-229 0 -259 -2 -290 -19z"/>
<path d="M4210 2736 c-118 -33 -238 -126 -285 -219 -30 -61 -31 -79 -5 -134
25 -57 69 -83 140 -83 54 0 55 1 110 59 30 32 69 66 87 75 62 31 143 15 195
-40 40 -44 49 -77 42 -163 -5 -69 -4 -79 18 -111 28 -42 80 -70 131 -70 71 0
142 -48 166 -113 40 -106 -46 -227 -163 -227 -53 0 -114 -35 -138 -80 -16 -29
-18 -47 -13 -110 5 -67 3 -80 -18 -120 -29 -55 -84 -90 -145 -90 -61 0 -102
20 -145 74 -47 56 -82 76 -138 76 -58 0 -107 -33 -131 -88 -35 -77 -11 -138
90 -234 102 -98 201 -133 349 -126 85 5 102 9 178 47 132 65 228 188 254 324
5 26 10 49 12 50 2 2 29 14 59 27 66 30 165 125 202 196 76 141 76 308 0 448
-39 73 -129 159 -202 193 -45 21 -62 34 -66 53 -38 167 -111 272 -242 343 -98
54 -240 71 -342 43z"/>
<path d="M3680 2019 c-40 -16 -80 -60 -91 -101 -18 -69 17 -140 88 -177 14 -7
110 -11 285 -11 231 0 267 2 297 18 48 24 73 62 78 119 6 65 -20 111 -77 141
-43 21 -54 22 -300 21 -144 0 -266 -5 -280 -10z"/>
</g>
</svg>
