<?xml version="1.0" standalone="no"?>
<!DOCTYPE svg PUBLIC "-//W3C//DTD SVG 20010904//EN"
 "http://www.w3.org/TR/2001/REC-SVG-20010904/DTD/svg10.dtd">
<svg version="1.0" xmlns="http://www.w3.org/2000/svg"
 width="512.000000pt" height="512.000000pt" viewBox="0 0 512.000000 512.000000"
 preserveAspectRatio="xMidYMid meet">

<g transform="translate(0.000000,512.000000) scale(0.100000,-0.100000)"
fill="#000000" stroke="none">
<path d="M1210 5113 c-206 -21 -418 -98 -603 -219 -121 -79 -297 -250 -372
-364 -139 -209 -217 -438 -231 -683 -6 -92 -5 -107 15 -145 24 -47 80 -82 131
-82 17 0 49 9 70 20 57 29 76 73 83 195 34 526 456 948 982 982 122 7 166 26
195 83 11 21 20 53 20 70 0 50 -35 107 -80 130 -38 20 -107 24 -210 13z"/>
<path d="M3415 4674 c-47 -15 -103 -68 -867 -832 l-817 -816 -3 415 c-3 405
-4 415 -25 459 -54 110 -140 170 -252 178 -36 2 -85 -1 -108 -7 -93 -25 -188
-119 -212 -209 -18 -66 -213 -1964 -206 -2001 5 -31 90 -120 608 -639 489
-489 609 -605 640 -614 50 -15 216 9 422 62 416 106 802 298 1145 570 66 51
333 310 713 689 665 664 643 638 635 750 -5 71 -38 128 -99 168 -54 36 -157
44 -210 18 -19 -9 -225 -208 -459 -440 -234 -233 -438 -429 -453 -434 -67 -25
-133 -7 -181 49 -20 25 -26 42 -26 81 0 28 6 62 14 77 8 15 249 261 536 547
287 286 529 536 539 555 45 88 33 174 -36 250 -59 66 -128 89 -212 70 l-56
-12 -540 -538 c-297 -296 -553 -543 -568 -549 -67 -26 -133 -7 -181 49 -20 25
-26 42 -26 81 0 28 6 62 14 77 8 15 297 308 641 652 344 344 635 641 645 662
57 108 15 243 -92 300 -55 29 -157 31 -208 4 -19 -10 -324 -306 -676 -658
-637 -636 -642 -640 -688 -645 -57 -7 -97 9 -136 54 -25 28 -30 42 -30 84 0
28 5 60 11 72 6 12 249 261 540 552 377 379 533 541 544 569 21 50 21 135 0
178 -30 57 -86 107 -139 123 -60 18 -77 18 -141 -1z"/>
<path d="M1200 4504 c-242 -52 -454 -227 -544 -450 -54 -132 -70 -287 -37
-352 22 -43 84 -82 130 -82 77 0 151 76 151 153 0 204 155 392 358 436 29 6
69 11 88 11 80 0 154 72 154 150 0 17 -9 49 -20 70 -39 76 -130 97 -280 64z"/>
<path d="M4298 1479 c-44 -23 -78 -81 -78 -133 0 -101 -52 -227 -126 -306 -74
-79 -214 -140 -321 -140 -50 0 -111 -38 -134 -82 -55 -107 22 -218 151 -218
179 0 380 90 517 231 129 134 195 282 210 467 5 67 3 83 -16 120 -38 75 -127
102 -203 61z"/>
<path d="M4898 1479 c-55 -28 -74 -74 -82 -195 -33 -524 -456 -947 -980 -980
-123 -8 -167 -27 -196 -84 -39 -77 -13 -163 62 -201 38 -20 53 -21 143 -16
134 9 244 30 368 73 196 68 345 162 503 319 245 242 380 537 400 878 6 92 5
107 -15 145 -38 75 -127 102 -203 61z"/>
</g>
</svg>
