<?xml version="1.0" standalone="no"?>
<!DOCTYPE svg PUBLIC "-//W3C//DTD SVG 20010904//EN"
 "http://www.w3.org/TR/2001/REC-SVG-20010904/DTD/svg10.dtd">
<svg version="1.0" xmlns="http://www.w3.org/2000/svg"
 width="512.000000pt" height="512.000000pt" viewBox="0 0 512.000000 512.000000"
 preserveAspectRatio="xMidYMid meet">

<g transform="translate(0.000000,512.000000) scale(0.100000,-0.100000)"
fill="#000000" stroke="none">
<path d="M4210 5102 c-74 -37 -104 -138 -60 -209 25 -42 52 -58 130 -77 112
-28 200 -78 272 -155 72 -75 106 -139 137 -251 11 -40 28 -84 37 -97 17 -26
86 -63 119 -63 37 0 104 39 125 72 54 84 -15 314 -144 484 -103 136 -255 238
-430 288 -104 31 -139 32 -186 8z"/>
<path d="M3934 4590 c-46 -23 -84 -81 -84 -129 0 -18 9 -50 20 -72 22 -42 66
-69 146 -89 76 -19 151 -102 169 -190 19 -90 78 -136 164 -128 44 4 59 11 88
41 45 44 54 105 28 193 -53 183 -185 317 -369 373 -85 26 -110 26 -162 1z"/>
<path d="M2716 4006 c-31 -12 -166 -141 -585 -559 -371 -371 -560 -552 -591
-568 -35 -19 -61 -24 -120 -24 -119 0 -210 53 -260 152 -24 46 -25 57 -30 289
l-5 241 -28 41 c-53 81 -159 106 -243 57 -84 -49 -78 -22 -155 -743 -77 -721
-88 -780 -167 -945 -65 -135 -128 -221 -265 -364 -63 -65 -119 -128 -125 -140
-16 -30 -15 -99 2 -131 8 -15 302 -314 653 -664 558 -557 643 -637 675 -643
59 -11 92 2 173 70 143 119 265 167 483 189 120 13 144 19 211 52 73 35 104
64 799 758 397 396 734 738 748 758 48 68 44 164 -8 224 -52 59 -108 78 -185
62 -46 -10 -65 -27 -378 -339 -181 -180 -343 -333 -358 -338 -72 -28 -154 5
-187 74 -23 47 -25 71 -10 112 6 15 249 267 539 558 291 292 536 544 544 560
35 70 29 146 -16 206 -46 64 -153 87 -225 50 -20 -11 -271 -254 -557 -541
-286 -287 -532 -528 -547 -536 -61 -32 -155 -8 -193 49 -20 31 -29 87 -21 124
5 19 228 249 716 738 741 742 750 752 750 835 0 69 -52 146 -113 169 -36 14
-108 14 -144 0 -15 -5 -347 -328 -743 -724 -783 -781 -750 -753 -839 -726 -72
21 -121 110 -101 181 7 26 143 168 569 595 606 608 588 586 579 690 -10 118
-129 192 -242 151z"/>
</g>
</svg>
