<?xml version="1.0" encoding="UTF-8" standalone="no"?>
<svg
   version="1.1"
   id="Layer_1"
   x="0px"
   y="0px"
   viewBox="0 0 667 666"
   style="enable-background:new 0 0 667 666;"
   xml:space="preserve"
   sodipodi:docname="icon.svg"
   inkscape:version="1.3.2 (091e20e, 2023-11-25, custom)"
   xmlns:inkscape="http://www.inkscape.org/namespaces/inkscape"
   xmlns:sodipodi="http://sodipodi.sourceforge.net/DTD/sodipodi-0.dtd"
   xmlns="http://www.w3.org/2000/svg"
   xmlns:svg="http://www.w3.org/2000/svg"
   xmlns:rdf="http://www.w3.org/1999/02/22-rdf-syntax-ns#"
   xmlns:cc="http://creativecommons.org/ns#"
   xmlns:dc="http://purl.org/dc/elements/1.1/"><metadata
   id="metadata319"><rdf:RDF><cc:Work
       rdf:about=""><dc:format>image/svg+xml</dc:format><dc:type
         rdf:resource="http://purl.org/dc/dcmitype/StillImage" /><dc:title /></cc:Work></rdf:RDF></metadata><defs
   id="defs317"><marker
     inkscape:stockid="Arrow1Send"
     orient="auto"
     refY="0"
     refX="0"
     id="Arrow1Send"
     style="overflow:visible"
     inkscape:isstock="true"><path
       inkscape:connector-curvature="0"
       id="path4714"
       d="M 0,0 5,-5 -12.5,0 5,5 Z"
       style="fill:#000000;fill-opacity:1;fill-rule:evenodd;stroke:#000000;stroke-width:1.00000003pt;stroke-opacity:1"
       transform="matrix(-0.2,0,0,-0.2,-1.2,0)" /></marker><clipPath
     id="clipPath69-0"><path
       inkscape:connector-curvature="0"
       id="path71-2"
       d="m 409.441,126.252 v -43.63 h 147.796 v 43.63" /></clipPath><clipPath
     id="clipPath101-1"><path
       inkscape:connector-curvature="0"
       id="path103-6"
       d="m 409.441,126.252 v -43.63 h 147.796 v 43.63" /></clipPath><clipPath
     id="clipPath69"><path
       inkscape:connector-curvature="0"
       id="path71"
       d="m 409.441,126.252 v -43.63 h 147.796 v 43.63" /></clipPath><clipPath
     id="clipPath101"><path
       inkscape:connector-curvature="0"
       id="path103"
       d="m 409.441,126.252 v -43.63 h 147.796 v 43.63" /></clipPath></defs><sodipodi:namedview
   pagecolor="#ffffff"
   bordercolor="#666666"
   borderopacity="1"
   objecttolerance="10"
   gridtolerance="10"
   guidetolerance="10"
   inkscape:pageopacity="0"
   inkscape:pageshadow="2"
   inkscape:window-width="1680"
   inkscape:window-height="987"
   id="namedview315"
   showgrid="false"
   inkscape:zoom="0.50113275"
   inkscape:cx="131.70163"
   inkscape:cy="242.45073"
   inkscape:window-x="1672"
   inkscape:window-y="-8"
   inkscape:window-maximized="1"
   inkscape:current-layer="Layer_1"
   inkscape:document-rotation="0"
   inkscape:showpageshadow="2"
   inkscape:pagecheckerboard="0"
   inkscape:deskcolor="#d1d1d1" />
<style
   type="text/css"
   id="style2">
	.st0{fill:none;stroke:#000000;stroke-width:2;stroke-linecap:round;stroke-linejoin:round;stroke-miterlimit:10;}
</style>


<path
   style="fill:none;stroke:#000000;stroke-width:3;stroke-linecap:butt;stroke-linejoin:miter;stroke-dasharray:none;stroke-opacity:1"
   d="m 494.03926,100.76666 3.52755,426.12711 -6.34958,3.52754 -3.8803,-429.34599 z"
   id="path1" /><path
   style="fill:none;stroke:#000000;stroke-width:3;stroke-linecap:butt;stroke-linejoin:miter;stroke-dasharray:none;stroke-opacity:1"
   d="m 487.51331,101.20761 -2.38109,-0.97008 3.74801,427.44994 2.23779,3.22991"
   id="path2"
   sodipodi:nodetypes="cccc" /><path
   style="fill:none;stroke:#000000;stroke-width:3;stroke-linecap:butt;stroke-linejoin:miter;stroke-dasharray:none;stroke-opacity:1"
   d="m 494.32588,100.70052 -2.54645,-0.981096 -7.09918,0.264565"
   id="path3"
   sodipodi:nodetypes="ccc" /><path
   style="fill:none;stroke:#000000;stroke-width:3;stroke-linecap:butt;stroke-linejoin:miter;stroke-dasharray:none;stroke-opacity:1"
   d="m 497.74735,506.72701 c 0.99774,0.74831 42.1545,14.84138 42.1545,14.84138 l -51.25887,17.21101 -42.02978,-16.96158 41.90506,-12.72118"
   id="path4" /><path
   style="fill:none;stroke:#000000;stroke-width:3;stroke-linecap:butt;stroke-linejoin:miter;stroke-dasharray:none;stroke-opacity:1"
   d="m 497.3732,510.59325 -6.23587,2.86851 -2.61907,-2.36964"
   id="path5" /><path
   style="fill:none;stroke:#000000;stroke-width:3;stroke-linecap:butt;stroke-linejoin:miter;stroke-dasharray:none;stroke-opacity:1"
   d="m 494.5047,108.75362 h -6.98418"
   id="path6" /><path
   style="fill:none;stroke:#000000;stroke-width:3;stroke-linecap:butt;stroke-linejoin:miter;stroke-dasharray:none;stroke-opacity:1"
   d="m 488.39354,517.328 c 0,0 -14.3595,0.9133 -21.4514,0 -7.16061,-0.92215 -13.77643,-4.69492 -20.95253,-5.48757 -13.72759,-1.51631 -27.67882,-0.0215 -41.4062,1.49661 -17.14878,1.89655 -50.88472,9.47852 -50.88472,9.47852"
   id="path7"
   sodipodi:nodetypes="caaac" /><path
   style="fill:none;stroke:#000000;stroke-width:3;stroke-linecap:butt;stroke-linejoin:miter;stroke-dasharray:none;stroke-opacity:1"
   d="m 196.55323,104.87867 c 0,0 -41.80856,102.76305 -30.33686,228.58474 11.48954,126.01726 44.71817,182.28139 49.38559,184.1377 8.03492,3.19563 23.98729,9.87712 23.98729,9.87712 l 0.18005,5.43945 -5.36285,1.8084 -0.0624,-5.23813 5.23813,-1.93312"
   id="path8"
   sodipodi:nodetypes="cssccccc" /><path
   style="fill:none;stroke:#000000;stroke-width:3;stroke-linecap:butt;stroke-linejoin:miter;stroke-dasharray:none;stroke-opacity:1"
   d="m 234.09466,529.30087 -21.70084,-8.48078 c -18.68485,-7.30212 -49.71626,-113.24392 -53.32073,-188.59132 -1.07118,-22.39178 -5.64439,-54.22907 5.01375,-128.93168 6.84864,-48.00189 27.26327,-98.06567 27.26327,-98.06567 h 4.93856"
   id="path9"
   sodipodi:nodetypes="cssscc" /><path
   style="fill:none;stroke:#000000;stroke-width:3;stroke-linecap:butt;stroke-linejoin:miter;stroke-dasharray:none;stroke-opacity:1"
   d="m 234.20974,534.44513 c 0,0 -13.52875,-4.48034 -21.69438,-8.37791 -6.97972,-3.33152 -12.17002,-19.75424 -12.17002,-19.75424"
   id="path10"
   sodipodi:nodetypes="csc" /><path
   style="fill:none;stroke:#000000;stroke-width:3;stroke-linecap:butt;stroke-linejoin:miter;stroke-dasharray:none;stroke-opacity:1"
   d="m 213.04449,514.6027 c 0,0 44.2352,-1.78716 47.0045,10.84719 2.08446,9.50988 -15.34016,12.5873 -25.83925,14.28656 -12.37172,2.00234 -40.95488,0.47564 -50.44385,-4.93857 -17.66798,-10.0809 19.84243,-19.40148 19.84243,-19.40148"
   id="path11"
   sodipodi:nodetypes="csssc" /><path
   style="fill:none;stroke:#000000;stroke-width:3;stroke-linecap:butt;stroke-linejoin:miter;stroke-dasharray:none;stroke-opacity:1"
   d="m 199.55164,505.25472 c 0,0 -5.96566,7.92573 -10.40625,9.34798 -9.52203,3.04976 -19.86181,-4.37524 -29.80773,-3.35116 -8.06347,0.83026 -15.05304,6.65235 -23.1054,7.58421 -5.39332,0.62414 -16.2267,-1.41101 -16.2267,-1.41101"
   id="path12"
   sodipodi:nodetypes="caaac" /></svg>
