<?xml version="1.0" standalone="no"?>
<!DOCTYPE svg PUBLIC "-//W3C//DTD SVG 20010904//EN"
 "http://www.w3.org/TR/2001/REC-SVG-20010904/DTD/svg10.dtd">
<svg version="1.0" xmlns="http://www.w3.org/2000/svg"
 width="512.000000pt" height="512.000000pt" viewBox="0 0 512.000000 512.000000"
 preserveAspectRatio="xMidYMid meet">

<g transform="translate(0.000000,512.000000) scale(0.100000,-0.100000)"
fill="#000000" stroke="none">
<path d="M1720 5069 c-413 -46 -793 -223 -1092 -508 -170 -162 -288 -322 -394
-536 -347 -705 -218 -1546 325 -2117 317 -333 722 -530 1189 -579 161 -16 215
-10 255 30 27 27 32 39 32 81 0 42 -5 54 -32 81 -31 31 -35 32 -150 40 -284
20 -499 81 -727 207 -86 47 -186 115 -243 165 l-34 30 86 87 c76 78 85 92 85
124 0 76 -50 126 -126 126 -33 0 -46 -10 -125 -87 l-89 -86 -22 28 c-205 254
-341 572 -365 857 l-6 66 121 4 122 3 32 33 c28 28 33 39 33 82 0 43 -5 54
-33 82 l-32 33 -120 3 -120 4 0 36 c0 55 27 200 56 300 61 212 160 398 312
587 l22 28 89 -86 c79 -77 92 -87 125 -87 76 0 126 50 126 126 0 33 -10 46
-87 125 -47 49 -85 90 -82 92 2 2 27 21 54 44 219 178 556 317 827 340 l66 6
4 -121 3 -122 33 -32 c28 -28 39 -33 82 -33 43 0 54 5 82 33 l33 32 3 122 4
121 66 -6 c285 -24 603 -160 857 -365 l28 -22 -86 -89 c-77 -79 -87 -92 -87
-125 0 -76 50 -126 126 -126 33 0 46 10 125 87 49 47 91 85 93 82 41 -47 130
-175 171 -244 134 -228 203 -462 224 -758 8 -115 9 -119 40 -150 27 -27 39
-32 81 -32 42 0 54 5 81 32 40 40 46 94 30 255 -53 508 -287 953 -670 1272
-386 322 -909 480 -1401 425z"/>
<path d="M1858 4124 c-55 -29 -58 -47 -58 -356 l0 -282 -75 74 c-74 73 -77 75
-125 75 -43 0 -54 -5 -82 -33 -28 -28 -33 -39 -33 -82 l0 -50 193 -192 192
-193 50 0 c43 0 54 5 82 33 l33 32 3 446 c2 398 1 448 -14 480 -28 59 -105 82
-166 48z"/>
<path d="M3502 2829 c-175 -24 -360 -86 -507 -170 -129 -74 -219 -145 -326
-257 -187 -195 -303 -414 -361 -685 -31 -146 -31 -408 0 -554 41 -190 108
-348 219 -516 62 -94 267 -299 363 -362 163 -108 344 -183 535 -221 134 -27
396 -25 532 4 190 41 348 108 516 219 94 62 299 267 362 363 108 163 183 344
221 535 27 134 25 396 -4 532 -62 286 -178 499 -387 708 -208 209 -422 326
-703 385 -114 24 -350 34 -460 19z m334 -240 c165 -23 358 -97 496 -190 81
-55 216 -186 279 -269 140 -185 229 -454 229 -690 0 -236 -89 -505 -229 -690
-62 -82 -198 -214 -276 -267 -474 -321 -1100 -253 -1496 164 -93 97 -147 175
-204 296 -178 371 -145 809 86 1148 105 155 284 308 454 390 213 102 439 139
661 108z"/>
<path d="M3592 2189 c-263 -44 -490 -235 -583 -490 -94 -258 -43 -534 139
-758 82 -99 243 -199 382 -237 99 -27 291 -25 393 4 177 50 320 153 426 306
49 70 58 110 38 159 -20 46 -49 64 -123 78 -131 23 -282 127 -347 240 -87 149
-98 316 -31 472 15 34 29 83 31 108 4 41 1 51 -24 78 -17 20 -44 36 -68 41
-49 11 -161 11 -233 -1z m24 -276 c-41 -247 18 -466 175 -654 48 -57 151 -137
227 -175 l55 -28 -29 -23 c-46 -38 -139 -82 -206 -98 -120 -28 -226 -16 -343
41 -87 41 -152 97 -203 174 -61 91 -87 176 -87 290 0 73 6 111 24 163 53 156
172 276 325 328 69 24 69 24 62 -18z"/>
</g>
</svg>
