<?xml version="1.0" standalone="no"?>
<!DOCTYPE svg PUBLIC "-//W3C//DTD SVG 20010904//EN"
 "http://www.w3.org/TR/2001/REC-SVG-20010904/DTD/svg10.dtd">
<svg version="1.0" xmlns="http://www.w3.org/2000/svg"
 width="512.000000pt" height="512.000000pt" viewBox="0 0 512.000000 512.000000"
 preserveAspectRatio="xMidYMid meet">

<g transform="translate(0.000000,512.000000) scale(0.100000,-0.100000)"
fill="#000000" stroke="none">
<path d="M2379 4340 c-345 -59 -651 -284 -807 -595 -164 -326 -161 -685 8
-1014 92 -179 232 -327 416 -438 108 -66 212 -106 345 -133 144 -30 359 -24
501 13 425 112 747 472 813 907 35 229 -1 455 -107 665 -154 307 -452 531
-788 591 -80 14 -305 17 -381 4z m431 -189 c329 -95 580 -356 662 -687 31
-125 31 -313 0 -439 -81 -327 -345 -598 -667 -685 -114 -31 -301 -38 -420 -15
-358 67 -648 343 -737 701 -31 126 -31 314 0 438 88 353 363 621 718 700 102
23 344 16 444 -13z"/>
<path d="M2499 3984 c-24 -25 -24 -27 -27 -264 -3 -229 -4 -239 -23 -245 -28
-9 -85 -60 -108 -99 -71 -115 -33 -273 84 -344 l44 -27 1 -85 c0 -118 13 -157
56 -177 31 -16 37 -16 68 0 43 20 56 59 56 177 l1 85 44 27 c117 71 155 229
84 344 -23 39 -80 90 -108 99 -19 6 -20 16 -23 245 -3 237 -3 239 -27 264 -18
19 -35 26 -61 26 -26 0 -43 -7 -61 -26z"/>
<path d="M2220 1816 l0 -196 -340 0 -340 0 0 -340 0 -340 1020 0 1020 0 0 340
0 340 -340 0 -340 0 0 196 c0 181 -1 195 -17 190 -151 -46 -459 -47 -635 -1
l-28 7 0 -196z"/>
<path d="M883 1766 l-28 -24 -3 -434 c-2 -238 0 -448 3 -466 3 -17 16 -41 27
-52 20 -19 36 -20 228 -20 l207 0 24 26 24 26 3 426 c2 235 0 442 -3 461 -4
18 -17 44 -30 57 -24 24 -27 24 -224 24 -197 0 -200 0 -228 -24z"/>
<path d="M3785 1766 c-13 -13 -26 -39 -30 -57 -3 -19 -5 -226 -3 -461 l3 -426
24 -26 24 -26 209 0 c193 0 209 1 227 19 11 11 23 35 26 53 3 18 5 228 3 466
l-3 434 -28 24 c-28 24 -31 24 -228 24 -197 0 -200 0 -224 -24z"/>
<path d="M540 1600 c-11 -11 -22 -30 -25 -42 -3 -13 -5 -146 -3 -296 l3 -274
28 -24 c22 -19 39 -24 83 -24 l54 0 0 340 0 340 -60 0 c-46 0 -64 -4 -80 -20z"/>
<path d="M4440 1280 l0 -340 54 0 c44 0 61 5 83 24 l28 24 3 274 c2 150 0 283
-3 296 -11 45 -40 62 -105 62 l-60 0 0 -340z"/>
</g>
</svg>
