<?xml version="1.0" standalone="no"?>
<!DOCTYPE svg PUBLIC "-//W3C//DTD SVG 20010904//EN"
 "http://www.w3.org/TR/2001/REC-SVG-20010904/DTD/svg10.dtd">
<svg version="1.0" xmlns="http://www.w3.org/2000/svg"
 width="512.000000pt" height="512.000000pt" viewBox="0 0 512.000000 512.000000"
 preserveAspectRatio="xMidYMid meet">

<g transform="translate(0.000000,512.000000) scale(0.100000,-0.100000)"
fill="#000000" stroke="none">
<path d="M369 5091 c-28 -29 -29 -32 -29 -129 l0 -100 -117 -4 c-106 -3 -122
-6 -152 -27 -55 -40 -71 -88 -71 -223 0 -123 8 -158 43 -197 41 -45 93 -61
200 -61 l97 0 0 -56 c0 -48 4 -59 29 -85 31 -31 59 -36 94 -17 37 19 46 40 47
101 l0 57 255 0 255 0 0 -84 0 -84 -45 -6 c-61 -10 -133 -61 -170 -120 l-30
-49 -3 -191 c-2 -184 -2 -193 20 -231 13 -22 41 -50 63 -62 38 -22 51 -23 254
-23 210 0 215 0 257 25 72 42 84 81 84 276 0 197 -10 238 -76 304 -42 41 -63
51 -171 81 -9 2 -13 28 -13 84 l0 80 223 0 222 0 -9 -91 c-18 -175 28 -383
121 -548 55 -97 176 -230 269 -297 79 -57 212 -119 311 -146 112 -31 354 -31
466 0 99 27 232 89 311 146 93 67 214 200 269 297 93 165 141 384 121 557
l-10 82 223 0 223 0 0 -80 c0 -56 -4 -82 -12 -84 -109 -30 -130 -40 -172 -81
-66 -67 -76 -107 -76 -305 0 -155 2 -170 23 -211 15 -27 38 -52 63 -66 37 -22
50 -23 254 -23 205 0 217 1 255 23 22 12 50 40 63 62 22 38 22 47 20 231 l-3
191 -30 49 c-37 59 -109 110 -170 120 l-45 6 0 84 0 84 255 0 255 0 0 -57 c1
-61 10 -82 47 -101 35 -19 63 -14 94 17 25 26 29 37 29 85 l0 56 98 0 c106 0
158 16 199 61 35 39 43 74 43 197 0 135 -16 183 -71 223 -30 21 -46 24 -151
27 l-118 4 0 100 c0 97 -1 100 -29 129 -33 33 -58 36 -101 14 -35 -18 -39 -32
-43 -150 l-2 -90 -697 -3 -698 -2 -67 55 c-85 69 -241 147 -353 177 -122 33
-339 32 -459 0 -140 -38 -284 -114 -385 -203 l-34 -29 -698 2 -699 3 -2 90
c-4 118 -8 132 -43 150 -43 22 -68 19 -101 -14z m2386 -167 c413 -111 657
-537 544 -946 -72 -260 -284 -469 -546 -539 -107 -29 -277 -29 -384 -1 -309
82 -529 337 -571 659 -52 401 243 780 657 847 55 8 239 -3 300 -20z m-2415
-319 l0 -85 -85 0 -85 0 0 85 0 85 85 0 85 0 0 -85z m1386 0 l-41 -84 -587 -1
-588 0 0 85 0 85 629 0 628 0 -41 -85z m2884 0 l0 -85 -587 0 -588 1 -42 84
-42 85 630 0 629 0 0 -85z m340 0 l0 -85 -85 0 -85 0 0 85 0 85 85 0 85 0 0
-85z m-3717 -606 c39 -18 47 -50 47 -194 l0 -135 -170 0 -170 0 0 145 c0 145
0 146 26 170 25 23 34 25 135 25 59 0 119 -5 132 -11z m2921 -15 c26 -26 26
-29 26 -170 l0 -144 -170 0 -170 0 0 135 c0 141 8 176 44 193 11 6 71 11 132
11 107 1 112 0 138 -25z"/>
<path d="M2522 4770 c-48 -20 -53 -59 -50 -351 l3 -269 195 -195 c181 -181
197 -195 231 -195 54 0 84 39 80 104 0 11 -75 94 -166 186 l-165 166 0 237 c0
261 -6 299 -55 317 -31 12 -42 12 -73 0z"/>
<path d="M1072 3320 c-27 -11 -55 -71 -45 -97 3 -10 15 -28 26 -40 44 -49 137
-14 137 52 0 47 -8 64 -41 80 -32 17 -44 18 -77 5z"/>
<path d="M3975 3318 c-32 -17 -45 -39 -45 -79 0 -29 6 -42 26 -58 72 -56 164
12 129 95 -19 47 -68 66 -110 42z"/>
<path d="M723 2971 c-39 -24 -50 -68 -29 -109 17 -34 34 -42 81 -42 66 0 101
92 53 138 -34 31 -68 35 -105 13z"/>
<path d="M1069 2975 c-29 -16 -52 -66 -42 -93 32 -91 163 -78 163 17 0 45 -14
67 -51 80 -39 13 -38 14 -70 -4z"/>
<path d="M1414 2976 c-51 -22 -62 -95 -21 -134 45 -42 118 -21 140 40 10 28
-13 78 -44 93 -34 18 -36 18 -75 1z"/>
<path d="M3629 2975 c-29 -16 -52 -66 -42 -93 32 -91 163 -78 163 17 0 45 -14
67 -51 80 -39 13 -38 14 -70 -4z"/>
<path d="M3974 2976 c-51 -22 -62 -95 -21 -134 45 -42 118 -21 140 40 10 28
-13 78 -44 93 -34 18 -36 18 -75 1z"/>
<path d="M4330 2983 c-58 -21 -77 -88 -39 -137 38 -48 124 -28 144 34 10 31
-13 79 -46 95 -30 16 -35 17 -59 8z"/>
<path d="M563 2635 c-17 -7 -35 -26 -43 -44 -35 -87 82 -157 140 -83 11 13 20
37 20 52 0 35 -32 76 -64 82 -13 3 -37 -1 -53 -7z"/>
<path d="M4503 2642 c-30 -5 -63 -48 -63 -82 0 -35 32 -76 64 -82 38 -7 81 16
96 52 25 60 -29 123 -97 112z"/>
<path d="M1057 2628 c-26 -21 -38 -63 -26 -98 13 -36 36 -50 82 -50 69 0 105
90 54 138 -26 25 -83 30 -110 10z"/>
<path d="M1562 2617 c-49 -52 -13 -137 57 -137 44 0 66 13 81 50 15 35 0 84
-31 100 -33 18 -84 12 -107 -13z"/>
<path d="M3449 2630 c-29 -17 -43 -66 -29 -100 15 -37 37 -50 83 -50 69 0 105
90 54 138 -25 23 -79 29 -108 12z"/>
<path d="M3952 2617 c-49 -52 -13 -137 57 -137 44 0 67 14 79 50 13 36 -1 86
-28 100 -34 18 -85 12 -108 -13z"/>
<path d="M596 2211 c-54 -12 -73 -39 -82 -118 -16 -156 39 -338 127 -418 76
-69 230 -125 341 -125 l38 0 0 -135 0 -135 -440 0 c-479 0 -479 0 -532 -56
-41 -44 -48 -75 -48 -203 0 -104 3 -123 23 -162 25 -46 84 -89 125 -89 l22 0
0 -300 0 -300 -50 0 c-60 0 -94 -15 -109 -47 -18 -39 -13 -63 18 -94 l29 -29
2502 0 2502 0 29 29 c31 31 36 55 18 94 -15 32 -49 47 -109 47 l-50 0 0 300 0
300 23 0 c41 0 99 43 124 90 23 42 24 54 21 176 -3 120 -5 134 -28 167 -14 21
-43 46 -66 57 -38 19 -62 20 -482 20 l-442 0 0 134 0 133 73 7 c178 16 310 92
374 213 43 82 58 152 57 274 0 164 -12 174 -199 173 -158 0 -282 -42 -360
-120 l-35 -35 -25 29 c-31 37 -142 95 -215 113 -60 15 -248 19 -292 6 -46 -13
-62 -57 -62 -177 0 -203 70 -341 206 -411 74 -38 151 -60 231 -66 l77 -6 0
-133 0 -134 -640 0 -640 0 0 133 0 133 88 11 c197 24 326 111 381 259 43 114
50 287 15 356 -19 36 -47 43 -179 42 -156 0 -277 -40 -359 -117 l-36 -34 -36
34 c-82 77 -203 117 -359 117 -188 1 -200 -9 -199 -178 0 -166 43 -287 127
-363 74 -67 229 -123 339 -123 l38 0 0 -135 0 -135 -640 0 -640 0 0 134 0 133
79 7 c286 24 433 186 435 477 0 166 -19 184 -188 184 -167 0 -281 -36 -367
-116 l-41 -38 -34 35 c-40 39 -106 75 -184 98 -63 19 -236 29 -294 17z m267
-188 c112 -44 156 -110 157 -230 l0 -73 -32 0 c-55 0 -143 25 -193 54 -38 23
-52 40 -77 92 -18 39 -32 88 -35 126 l-6 61 69 -6 c38 -3 91 -14 117 -24z
m669 -38 c-3 -86 -49 -176 -105 -209 -49 -29 -145 -56 -199 -56 l-38 0 0 50
c0 94 48 194 111 229 51 29 136 51 189 48 l45 -2 -3 -60z m743 50 c138 -36
194 -106 195 -242 l0 -73 -33 0 c-50 0 -147 28 -195 57 -55 31 -99 117 -108
211 l-7 62 44 0 c25 0 71 -7 104 -15z m711 -47 c-9 -91 -55 -181 -109 -212
-50 -29 -145 -56 -200 -56 l-40 0 5 68 c7 102 52 181 121 215 62 31 114 45
181 46 l49 1 -7 -62z m739 46 c139 -36 195 -105 195 -241 l0 -73 -33 0 c-49 0
-147 28 -194 55 -31 19 -49 40 -72 85 -29 59 -50 158 -36 179 9 16 71 14 140
-5z m711 -45 c-7 -72 -49 -172 -83 -199 -38 -30 -130 -60 -200 -67 l-63 -6 0
51 c0 57 29 146 61 187 40 50 148 92 243 94 l49 1 -7 -61z m514 -964 l0 -85
-2390 0 -2390 0 0 85 0 85 2390 0 2390 0 0 -85z m-4440 -555 l0 -300 -85 0
-85 0 0 300 0 300 85 0 85 0 0 -300z m1790 0 l0 -300 -810 0 -810 0 0 300 0
300 810 0 810 0 0 -300z m345 0 l0 -295 -85 0 -85 0 -3 285 c-1 157 0 291 3
298 3 9 26 12 87 10 l83 -3 0 -295z m1795 0 l0 -300 -810 0 -810 0 0 300 0
300 810 0 810 0 0 -300z m340 0 l0 -300 -85 0 -85 0 0 300 0 300 85 0 85 0 0
-300z"/>
</g>
</svg>
