<?xml version="1.0" encoding="UTF-8" standalone="no"?>
<svg
   xmlns:dc="http://purl.org/dc/elements/1.1/"
   xmlns:cc="http://creativecommons.org/ns#"
   xmlns:rdf="http://www.w3.org/1999/02/22-rdf-syntax-ns#"
   xmlns:svg="http://www.w3.org/2000/svg"
   xmlns="http://www.w3.org/2000/svg"
   xmlns:sodipodi="http://sodipodi.sourceforge.net/DTD/sodipodi-0.dtd"
   xmlns:inkscape="http://www.inkscape.org/namespaces/inkscape"
   inkscape:version="1.0 (4035a4fb49, 2020-05-01)"
   sodipodi:docname="icon.svg"
   xml:space="preserve"
   style="enable-background:new 0 0 667 666;"
   viewBox="0 0 667 666"
   y="0px"
   x="0px"
   id="Layer_1"
   version="1.1"><metadata
   id="metadata319"><rdf:RDF><cc:Work
       rdf:about=""><dc:format>image/svg+xml</dc:format><dc:type
         rdf:resource="http://purl.org/dc/dcmitype/StillImage" /><dc:title /></cc:Work></rdf:RDF></metadata><defs
   id="defs317"><marker
     inkscape:isstock="true"
     style="overflow:visible"
     id="Arrow1Send"
     refX="0"
     refY="0"
     orient="auto"
     inkscape:stockid="Arrow1Send"><path
       transform="matrix(-0.2,0,0,-0.2,-1.2,0)"
       style="fill:#000000;fill-opacity:1;fill-rule:evenodd;stroke:#000000;stroke-width:1.00000003pt;stroke-opacity:1"
       d="M 0,0 5,-5 -12.5,0 5,5 Z"
       id="path4714"
       inkscape:connector-curvature="0" /></marker><clipPath
     id="clipPath69-0"><path
       d="m 409.441,126.252 v -43.63 h 147.796 v 43.63"
       id="path71-2"
       inkscape:connector-curvature="0" /></clipPath><clipPath
     id="clipPath101-1"><path
       d="m 409.441,126.252 v -43.63 h 147.796 v 43.63"
       id="path103-6"
       inkscape:connector-curvature="0" /></clipPath><clipPath
     id="clipPath69"><path
       d="m 409.441,126.252 v -43.63 h 147.796 v 43.63"
       id="path71"
       inkscape:connector-curvature="0" /></clipPath><clipPath
     id="clipPath101"><path
       d="m 409.441,126.252 v -43.63 h 147.796 v 43.63"
       id="path103"
       inkscape:connector-curvature="0" /></clipPath></defs><sodipodi:namedview
   inkscape:document-rotation="0"
   inkscape:current-layer="Layer_1"
   inkscape:window-maximized="1"
   inkscape:window-y="-8"
   inkscape:window-x="-8"
   inkscape:cy="204.91967"
   inkscape:cx="334.601"
   inkscape:zoom="0.70870873"
   showgrid="false"
   id="namedview315"
   inkscape:window-height="987"
   inkscape:window-width="1680"
   inkscape:pageshadow="2"
   inkscape:pageopacity="0"
   guidetolerance="10"
   gridtolerance="10"
   objecttolerance="10"
   borderopacity="1"
   bordercolor="#666666"
   pagecolor="#ffffff" />
<style
   id="style2"
   type="text/css">
	.st0{fill:none;stroke:#000000;stroke-width:2;stroke-linecap:round;stroke-linejoin:round;stroke-miterlimit:10;}
</style>


<path
   sodipodi:nodetypes="cacsccsc"
   id="path881"
   d="m 242.45073,315.28572 c 0,0 59.69254,1.83338 89.54713,1.74605 29.52582,-0.0864 88.54939,-2.24492 88.54939,-2.24492 0,0 -2.94061,57.66604 -9.6341,85.58248 -14.72912,61.43049 -40.50232,93.26235 -40.50232,93.26235 l -80.8169,-1.74605 c 0,0 -24.92146,-32.17522 -36.73698,-88.53069 -6.06582,-28.93158 -10.40622,-88.06922 -10.40622,-88.06922 z"
   style="fill:none;stroke:#000000;stroke-width:3;stroke-linecap:butt;stroke-linejoin:miter;stroke-opacity:1;stroke-miterlimit:4;stroke-dasharray:none" /><path
   sodipodi:nodetypes="csasc"
   id="path883"
   d="m 292.58714,491.6362 v 26.19066 c 0,3.50442 25.04833,3.83356 37.66467,3.74152 12.46865,-0.091 37.1187,0.23473 37.16581,-4.24038 l 0.24943,-23.69632"
   style="fill:none;stroke:#000000;stroke-width:3;stroke-linecap:butt;stroke-linejoin:miter;stroke-opacity:1;stroke-miterlimit:4;stroke-dasharray:none" /><path
   sodipodi:nodetypes="cssssc"
   id="path885"
   d="m 299.19717,520.69537 0.24943,11.84815 c 0.0384,1.82187 3.79031,3.89326 6.23588,3.86624 45.14771,-0.49886 0,0 45.14771,-0.49886 3.08991,-0.0341 8.82317,-1.15531 8.85494,-2.74379 l 0.24944,-12.47174"
   style="fill:none;stroke:#000000;stroke-width:3;stroke-linecap:butt;stroke-linejoin:miter;stroke-opacity:1;stroke-miterlimit:4;stroke-dasharray:none" /><path
   sodipodi:nodetypes="ccaccaccaccacsacaccaccaccaccacc"
   id="path887"
   d="m 304.56002,536.40976 v 4.73927 c 0,0 -3.81384,2.54302 -3.74152,4.48982 0.0666,1.79218 3.74152,3.86625 3.74152,3.86625 l -0.12472,2.8685 c 0,0 -3.74153,1.97775 -3.74153,3.74153 1e-5,2.11652 4.48984,4.48982 4.48984,4.48982 v 3.61681 c 0,0 -4.16042,2.17604 -4.11568,4.11568 0.0441,1.91227 4.24039,3.86623 4.24039,3.86623 l -0.24943,4.36511 c 0,0 -4.11241,1.98397 -4.11568,3.86624 -0.004,2.11734 4.61455,4.36512 4.61455,4.36512 0,0 0,0 -0.37415,8.6055 -0.1132,2.60363 16.08894,2.33495 24.19518,2.49435 7.8715,0.15479 23.5716,-1.49661 23.5716,-1.49661 0,0 4.63147,-1.6325 4.73926,-3.61681 0.1276,-2.34896 -5.11341,-4.86398 -5.11341,-4.86398 v -3.6168 c 0,0 5.59588,-1.89575 5.61229,-4.2404 0.0166,-2.36994 -5.61229,-4.36511 -5.61229,-4.36511 v -3.86624 c 0,0 5.24749,-1.02785 5.48757,-3.11793 0.25178,-2.19206 -4.86398,-4.48983 -4.86398,-4.48983 v -3.49209 c 0,0 5.28126,-1.46219 5.36285,-3.61681 0.0862,-2.27728 -5.36285,-4.24039 -5.36285,-4.24039 l 0.12471,-3.24265 c 0,0 5.32119,-1.56225 5.36285,-3.74153 0.0408,-2.13645 -5.11341,-3.86624 -5.11341,-3.86624 v -4.11567"
   style="fill:none;stroke:#000000;stroke-width:3;stroke-linecap:butt;stroke-linejoin:miter;stroke-opacity:1;stroke-miterlimit:4;stroke-dasharray:none" /><path
   sodipodi:nodetypes="cac"
   id="path889"
   d="m 304.56002,541.14903 c 0,0 15.88252,0.30031 23.82104,0.12472 8.40587,-0.18592 25.19292,-1.24718 25.19292,-1.24718"
   style="fill:none;stroke:#000000;stroke-width:3;stroke-linecap:butt;stroke-linejoin:miter;stroke-opacity:1;stroke-miterlimit:4;stroke-dasharray:none" /><path
   id="path891"
   d="m 304.56002,549.5051 24.69406,-0.37415 24.07046,-1.49661"
   style="fill:none;stroke:#000000;stroke-width:3;stroke-linecap:butt;stroke-linejoin:miter;stroke-opacity:1;stroke-miterlimit:4;stroke-dasharray:none" /><path
   sodipodi:nodetypes="cac"
   id="path893"
   d="m 304.4353,552.3736 c 0,0 15.80069,-0.0116 23.69632,-0.24944 8.36261,-0.25194 25.06821,-1.24717 25.06821,-1.24717"
   style="fill:none;stroke:#000000;stroke-width:3;stroke-linecap:butt;stroke-linejoin:miter;stroke-opacity:1;stroke-miterlimit:4;stroke-dasharray:none" /><path
   sodipodi:nodetypes="cac"
   id="path895"
   d="m 305.18361,560.60495 c 0,0 14.7997,-0.58452 22.1997,-0.87302 8.60539,-0.33549 25.81652,-0.99774 25.81652,-0.99774"
   style="fill:none;stroke:#000000;stroke-width:3;stroke-linecap:butt;stroke-linejoin:miter;stroke-opacity:1;stroke-miterlimit:4;stroke-dasharray:none" /><path
   sodipodi:nodetypes="cac"
   id="path897"
   d="m 305.18361,564.22176 c 0,0 16.30187,-0.15744 24.44462,-0.49887 7.86611,-0.32983 23.5716,-1.49661 23.5716,-1.49661"
   style="fill:none;stroke:#000000;stroke-width:3;stroke-linecap:butt;stroke-linejoin:miter;stroke-opacity:1;stroke-miterlimit:4;stroke-dasharray:none" /><path
   sodipodi:nodetypes="cac"
   id="path899"
   d="m 305.30832,572.20367 c 0,0 15.63919,-0.10954 23.44689,-0.49887 7.95491,-0.39667 23.82103,-1.87076 23.82103,-1.87076"
   style="fill:none;stroke:#000000;stroke-width:3;stroke-linecap:butt;stroke-linejoin:miter;stroke-opacity:1;stroke-miterlimit:4;stroke-dasharray:none" /><path
   sodipodi:nodetypes="cac"
   id="path901"
   d="m 305.05889,576.56878 c 0,0 16.22449,-0.25426 24.3199,-0.7483 7.75029,-0.47298 23.19745,-2.1202 23.19745,-2.1202"
   style="fill:none;stroke:#000000;stroke-width:3;stroke-linecap:butt;stroke-linejoin:miter;stroke-opacity:1;stroke-miterlimit:4;stroke-dasharray:none" /><path
   sodipodi:nodetypes="cac"
   id="path903"
   d="m 305.55776,584.80014 c 0,0 16.30816,0.19576 24.44462,-0.24944 7.55044,-0.41314 22.57386,-2.24491 22.57386,-2.24491"
   style="fill:none;stroke:#000000;stroke-width:3;stroke-linecap:butt;stroke-linejoin:miter;stroke-opacity:1;stroke-miterlimit:4;stroke-dasharray:none" /><path
   sodipodi:nodetypes="ccsssc"
   id="path907"
   d="m 307.92739,594.90225 0.0731,1.41962 c 0,0 11.11767,12.62166 13.39638,12.67345 16.4627,0.37415 0,0 16.4627,0.37415 3.29915,0.075 14.59195,-11.97288 14.59195,-11.97288 0.70777,-0.58073 0.49886,-2.99321 0.49886,-2.99321"
   style="fill:none;stroke:#000000;stroke-width:3;stroke-linecap:butt;stroke-linejoin:miter;stroke-opacity:1;stroke-miterlimit:4;stroke-dasharray:none" /><path
   sodipodi:nodetypes="csssc"
   id="path909"
   d="m 245.42875,315.14181 c 0,0 -1.14401,-78.22215 15.46335,-146.38691 13.01176,-53.40662 47.27705,-112.900187 69.28586,-113.019732 21.92207,-0.119074 55.98123,61.273502 69.89613,108.964642 20.46447,70.1388 17.93967,149.95696 17.93967,149.95696"
   style="fill:none;stroke:#000000;stroke-width:3;stroke-linecap:butt;stroke-linejoin:miter;stroke-opacity:1;stroke-miterlimit:4;stroke-dasharray:none" /><path
   sodipodi:nodetypes="caac"
   id="path911"
   d="m 270.51215,457.77541 c 0,0 7.90236,3.27258 12.0976,3.67917 31.69526,3.07178 63.26775,-11.93847 95.0347,-9.72797 4.99659,0.34769 14.59194,3.58563 14.59194,3.58563"
   style="fill:none;stroke:#000000;stroke-width:2;stroke-linecap:butt;stroke-linejoin:miter;stroke-opacity:1;stroke-miterlimit:4;stroke-dasharray:none" /><path
   sodipodi:nodetypes="caac"
   id="path913"
   d="m 388.96256,462.4835 c 0,0 -8.24856,-2.95811 -12.56529,-3.27384 -30.5307,-2.23305 -60.8251,12.94499 -91.29317,9.9774 -3.84751,-0.37475 -11.06868,-3.46091 -11.06868,-3.46091"
   style="fill:none;stroke:#000000;stroke-width:2;stroke-linecap:butt;stroke-linejoin:miter;stroke-opacity:1;stroke-miterlimit:4;stroke-dasharray:none" /></svg>
