<?xml version="1.0" encoding="UTF-8" standalone="no"?>
<svg
   inkscape:version="1.2 (dc2aedaf03, 2022-05-15)"
   sodipodi:docname="icon.svg"
   xml:space="preserve"
   style="enable-background:new 0 0 667 666;"
   viewBox="0 0 667 666"
   y="0px"
   x="0px"
   id="Layer_1"
   version="1.1"
   xmlns:inkscape="http://www.inkscape.org/namespaces/inkscape"
   xmlns:sodipodi="http://sodipodi.sourceforge.net/DTD/sodipodi-0.dtd"
   xmlns="http://www.w3.org/2000/svg"
   xmlns:svg="http://www.w3.org/2000/svg"
   xmlns:rdf="http://www.w3.org/1999/02/22-rdf-syntax-ns#"
   xmlns:cc="http://creativecommons.org/ns#"
   xmlns:dc="http://purl.org/dc/elements/1.1/"><metadata
   id="metadata319"><rdf:RDF><cc:Work
       rdf:about=""><dc:format>image/svg+xml</dc:format><dc:type
         rdf:resource="http://purl.org/dc/dcmitype/StillImage" /></cc:Work></rdf:RDF></metadata><defs
   id="defs317"><marker
     inkscape:isstock="true"
     style="overflow:visible"
     id="Arrow1Send"
     refX="0"
     refY="0"
     orient="auto"
     inkscape:stockid="Arrow1Send"><path
       transform="matrix(-0.2,0,0,-0.2,-1.2,0)"
       style="fill:#000000;fill-opacity:1;fill-rule:evenodd;stroke:#000000;stroke-width:1.00000003pt;stroke-opacity:1"
       d="M 0,0 5,-5 -12.5,0 5,5 Z"
       id="path4714"
       inkscape:connector-curvature="0" /></marker><clipPath
     id="clipPath69-0"><path
       d="m 409.441,126.252 v -43.63 h 147.796 v 43.63"
       id="path71-2"
       inkscape:connector-curvature="0" /></clipPath><clipPath
     id="clipPath101-1"><path
       d="m 409.441,126.252 v -43.63 h 147.796 v 43.63"
       id="path103-6"
       inkscape:connector-curvature="0" /></clipPath><clipPath
     id="clipPath69"><path
       d="m 409.441,126.252 v -43.63 h 147.796 v 43.63"
       id="path71"
       inkscape:connector-curvature="0" /></clipPath><clipPath
     id="clipPath101"><path
       d="m 409.441,126.252 v -43.63 h 147.796 v 43.63"
       id="path103"
       inkscape:connector-curvature="0" /></clipPath></defs><sodipodi:namedview
   inkscape:document-rotation="0"
   inkscape:current-layer="Layer_1"
   inkscape:window-maximized="1"
   inkscape:window-y="-8"
   inkscape:window-x="-8"
   inkscape:cy="390.14617"
   inkscape:cx="269.50423"
   inkscape:zoom="1.4174175"
   showgrid="false"
   id="namedview315"
   inkscape:window-height="987"
   inkscape:window-width="1680"
   inkscape:pageshadow="2"
   inkscape:pageopacity="0"
   guidetolerance="10"
   gridtolerance="10"
   objecttolerance="10"
   borderopacity="1"
   bordercolor="#666666"
   pagecolor="#ffffff"
   inkscape:showpageshadow="2"
   inkscape:pagecheckerboard="0"
   inkscape:deskcolor="#d1d1d1" />
<style
   id="style2"
   type="text/css">
	.st0{fill:none;stroke:#000000;stroke-width:2;stroke-linecap:round;stroke-linejoin:round;stroke-miterlimit:10;}
</style>


<path
   style="fill:none;stroke:#000000;stroke-width:1;stroke-linecap:butt;stroke-linejoin:miter;stroke-opacity:1;stroke-dasharray:none"
   d="m 457.60951,447.37354 0.70595,-40.18308"
   id="path1377-0" /><path
   style="fill:none;stroke:#000000;stroke-width:3;stroke-linecap:butt;stroke-linejoin:miter;stroke-opacity:1;stroke-dasharray:none"
   d="m 353.45973,139.69067 c 118.04231,61.09647 120.40726,62.15367 280.79237,143.21822 6.17643,3.12179 9.86607,17.6818 3.52754,20.45974 -140.69429,61.66097 -155.65426,69.27235 -305.48516,136.16314 -8.17146,3.64808 -19.27217,3.41314 -26.80932,-1.41102 C 174.87967,354.52669 138.17245,331.50905 30.336863,261.03813 24.23101,257.04793 24.091909,241.37965 31.042372,239.16737 164.4764,196.6964 207.01354,181.21422 330.17796,140.39618 c 7.36996,-2.44249 16.38647,-4.27439 23.28177,-0.70551 z"
   id="path411"
   sodipodi:nodetypes="sssssssss" /><path
   style="fill:none;stroke:#000000;stroke-width:1px;stroke-linecap:butt;stroke-linejoin:miter;stroke-opacity:1"
   d="m 24.692796,249.74999 c 0,0 -0.523652,17.14282 1.411017,25.39831 1.225942,5.23126 1.774031,11.99904 6.349576,14.81567 109.582321,67.45708 158.548151,99.80758 282.203381,177.08263 2.19373,1.37091 5.39613,1.04937 7.76059,0 141.10569,-62.62378 218.50844,-95.11138 307.60169,-139.69068 8.44655,-4.22637 9.17161,-26.80932 9.17161,-26.80932"
   id="path1077"
   sodipodi:nodetypes="cassssc" /><path
   style="fill:none;stroke:#000000;stroke-width:1;stroke-linecap:butt;stroke-linejoin:miter;stroke-opacity:1;stroke-dasharray:none"
   d="m 316.06779,442.3538 -0.70551,24.6928"
   id="path1085" /><path
   style="fill:none;stroke:#000000;stroke-width:1;stroke-linecap:butt;stroke-linejoin:miter;stroke-opacity:1;stroke-dasharray:none"
   d="m 323.12287,442.3538 v 23.28178"
   id="path1093" /><path
   style="fill:none;stroke:#000000;stroke-width:1px;stroke-linecap:butt;stroke-linejoin:miter;stroke-opacity:1"
   d="m 472.69066,400.7288 v -9.87712 l 30.33687,-14.11017 0.7055,9.87712"
   id="path1101" /><path
   style="fill:none;stroke:#000000;stroke-width:1;stroke-linecap:butt;stroke-linejoin:miter;stroke-opacity:1;stroke-dasharray:none"
   d="m 173.55508,378.85804 v 34.56991 l 2.82203,6.34958 9.87712,5.64407 80.42796,52.91313 19.04873,12.69915 c 0,0 16.10992,7.03562 24.6928,8.4661 8.81485,1.46914 17.99355,1.46364 26.80932,0 10.05098,-1.66872 28.92585,-9.87711 28.92585,-9.87711 l 81.83898,-38.80297 c 0,0 24.53674,-10.2974 29.63135,-16.2267 7.84868,-9.13458 5.27918,-18.15935 5.64407,-27.51482 0.14779,-3.78911 -1.41102,-11.28814 -1.41102,-11.28814"
   id="path1109"
   sodipodi:nodetypes="ccccccaaccsac" /><path
   style="fill:none;fill-rule:evenodd;stroke-width:4;stroke:#000000;stroke-opacity:1;stroke-dasharray:none"
   id="path1169"
   sodipodi:type="arc"
   sodipodi:cx="268.0932"
   sodipodi:cy="291.72775"
   sodipodi:rx="32.453388"
   sodipodi:ry="16.579449"
   sodipodi:start="2.4065996"
   sodipodi:end="2.4059364"
   sodipodi:open="true"
   sodipodi:arc-type="arc"
   d="m 244.01813,302.84563 a 32.453388,16.579449 0 0 1 2.30842,-23.41526 32.453388,16.579449 0 0 1 45.83451,1.17542 32.453388,16.579449 0 0 1 -2.29323,23.41565 32.453388,16.579449 0 0 1 -45.83526,-1.16765" /><path
   style="fill:none;fill-rule:evenodd;stroke-width:4;stroke:#000000;stroke-opacity:1;stroke-dasharray:none"
   id="path1177"
   sodipodi:type="arc"
   sodipodi:cx="331.58899"
   sodipodi:cy="265.62393"
   sodipodi:rx="31.747879"
   sodipodi:ry="15.168431"
   sodipodi:start="2.4065996"
   sodipodi:end="2.4059364"
   sodipodi:open="true"
   sodipodi:arc-type="arc"
   d="m 308.03729,275.79561 a 31.747879,15.168431 0 0 1 2.25824,-21.42247 31.747879,15.168431 0 0 1 44.8381,1.07538 31.747879,15.168431 0 0 1 -2.24337,21.42283 31.747879,15.168431 0 0 1 -44.83885,-1.06828" /><path
   style="fill:none;fill-rule:evenodd;stroke-width:4;stroke:#000000;stroke-opacity:1;stroke-dasharray:none"
   id="path1185"
   sodipodi:type="arc"
   sodipodi:cx="394.73199"
   sodipodi:cy="241.9894"
   sodipodi:rx="31.395124"
   sodipodi:ry="14.110168"
   sodipodi:start="2.4065996"
   sodipodi:end="2.4059364"
   sodipodi:open="true"
   sodipodi:arc-type="arc"
   d="m 371.44198,251.45142 a 31.395124,14.110168 0 0 1 2.23315,-19.92788 31.395124,14.110168 0 0 1 44.3399,1.00036 31.395124,14.110168 0 0 1 -2.21845,19.92821 31.395124,14.110168 0 0 1 -44.34063,-0.99375" /><path
   style="fill:none;stroke:#000000;stroke-width:1;stroke-linecap:butt;stroke-linejoin:miter;stroke-opacity:1;stroke-dasharray:none"
   d="m 185.54872,385.91312 -0.70551,39.50848"
   id="path1193" /><path
   style="fill:none;stroke:#000000;stroke-width:1;stroke-linecap:butt;stroke-linejoin:miter;stroke-opacity:1;stroke-dasharray:none"
   d="m 190.48685,428.94838 0.70637,-39.68333"
   id="path1201" /><path
   style="fill:none;stroke:#000000;stroke-width:1;stroke-linecap:butt;stroke-linejoin:miter;stroke-opacity:1;stroke-dasharray:none"
   d="m 197.54193,433.35781 0.70637,-39.68333"
   id="path1225" /><path
   style="fill:none;stroke:#000000;stroke-width:1;stroke-linecap:butt;stroke-linejoin:miter;stroke-opacity:1;stroke-dasharray:none"
   d="m 212.00485,442.88217 0.70637,-39.68333"
   id="path1233" /><path
   style="fill:none;stroke:#000000;stroke-width:1;stroke-linecap:butt;stroke-linejoin:miter;stroke-opacity:1;stroke-dasharray:none"
   d="m 226.2914,451.70103 0.70637,-39.68333"
   id="path1241" /><path
   style="fill:none;stroke:#000000;stroke-width:1;stroke-linecap:butt;stroke-linejoin:miter;stroke-opacity:1;stroke-dasharray:none"
   d="m 236.3449,458.75611 0.70637,-39.68333"
   id="path1249" /><path
   style="fill:none;stroke:#000000;stroke-width:1;stroke-linecap:butt;stroke-linejoin:miter;stroke-opacity:1;stroke-dasharray:none"
   d="m 250.9842,467.57497 0.70637,-39.68333"
   id="path1257" /><path
   style="fill:none;stroke:#000000;stroke-width:1;stroke-linecap:butt;stroke-linejoin:miter;stroke-opacity:1;stroke-dasharray:none"
   d="m 265.20199,476.55463 0.70637,-39.68333"
   id="path1265" /><path
   style="fill:none;stroke:#000000;stroke-width:1;stroke-linecap:butt;stroke-linejoin:miter;stroke-opacity:1;stroke-dasharray:none"
   d="m 368.46892,488.2797 0.70461,-42.18094"
   id="path1273" /><path
   style="fill:none;stroke:#000000;stroke-width:1;stroke-linecap:butt;stroke-linejoin:miter;stroke-opacity:1;stroke-dasharray:none"
   d="m 383.68412,481.29492 0.70527,-41.182"
   id="path1315" /><path
   style="fill:none;stroke:#000000;stroke-width:1;stroke-linecap:butt;stroke-linejoin:miter;stroke-opacity:1;stroke-dasharray:none"
   d="m 371.46214,486.78309 0.70461,-42.18094"
   id="path1323" /><path
   style="fill:none;stroke:#000000;stroke-width:1;stroke-linecap:butt;stroke-linejoin:miter;stroke-opacity:1;stroke-dasharray:none"
   d="m 386.67767,480.54722 0.70461,-42.18094"
   id="path1331" /><path
   style="fill:none;stroke:#000000;stroke-width:1;stroke-linecap:butt;stroke-linejoin:miter;stroke-opacity:1;stroke-dasharray:none"
   d="m 399.6477,473.06313 0.70579,-40.4328"
   id="path1339" /><path
   style="fill:none;stroke:#000000;stroke-width:1;stroke-linecap:butt;stroke-linejoin:miter;stroke-opacity:1;stroke-dasharray:none"
   d="m 402.39157,472.06554 0.70561,-40.68253"
   id="path1347" /><path
   style="fill:none;stroke:#000000;stroke-width:1;stroke-linecap:butt;stroke-linejoin:miter;stroke-opacity:1;stroke-dasharray:none"
   d="m 414.86332,466.82741 0.70561,-40.68253"
   id="path1355" /><path
   style="fill:none;stroke:#000000;stroke-width:1;stroke-linecap:butt;stroke-linejoin:miter;stroke-opacity:1;stroke-dasharray:none"
   d="m 418.35524,464.83164 0.70595,-40.18308"
   id="path1363" /><path
   style="fill:none;stroke:#000000;stroke-width:1;stroke-linecap:butt;stroke-linejoin:miter;stroke-opacity:1;stroke-dasharray:none"
   d="m 429.33045,459.59365 0.70579,-40.4328"
   id="path1371" /><path
   style="fill:none;stroke:#000000;stroke-width:1;stroke-linecap:butt;stroke-linejoin:miter;stroke-opacity:1;stroke-dasharray:none"
   d="m 432.07432,458.59606 0.70561,-40.68253"
   id="path1373" /><path
   style="fill:none;stroke:#000000;stroke-width:1;stroke-linecap:butt;stroke-linejoin:miter;stroke-opacity:1;stroke-dasharray:none"
   d="m 444.54607,453.35793 0.70561,-40.68253"
   id="path1375" /><path
   style="fill:none;stroke:#000000;stroke-width:1;stroke-linecap:butt;stroke-linejoin:miter;stroke-opacity:1;stroke-dasharray:none"
   d="m 454.52329,448.86782 0.70595,-40.18308"
   id="path1377" /><path
   style="fill:none;stroke:#000000;stroke-width:1;stroke-linecap:butt;stroke-linejoin:miter;stroke-opacity:1;stroke-dasharray:none"
   d="m 441.80176,453.10757 0.70667,-39.18408"
   id="path1442" /></svg>
