<?xml version="1.0" encoding="UTF-8" standalone="no"?>
<svg
   xmlns:dc="http://purl.org/dc/elements/1.1/"
   xmlns:cc="http://creativecommons.org/ns#"
   xmlns:rdf="http://www.w3.org/1999/02/22-rdf-syntax-ns#"
   xmlns:svg="http://www.w3.org/2000/svg"
   xmlns="http://www.w3.org/2000/svg"
   xmlns:sodipodi="http://sodipodi.sourceforge.net/DTD/sodipodi-0.dtd"
   xmlns:inkscape="http://www.inkscape.org/namespaces/inkscape"
   inkscape:version="1.0 (4035a4fb49, 2020-05-01)"
   sodipodi:docname="icon.svg"
   xml:space="preserve"
   style="enable-background:new 0 0 667 666;"
   viewBox="0 0 667 666"
   y="0px"
   x="0px"
   id="Layer_1"
   version="1.1"><metadata
   id="metadata319"><rdf:RDF><cc:Work
       rdf:about=""><dc:format>image/svg+xml</dc:format><dc:type
         rdf:resource="http://purl.org/dc/dcmitype/StillImage" /><dc:title /></cc:Work></rdf:RDF></metadata><defs
   id="defs317"><marker
     inkscape:isstock="true"
     style="overflow:visible"
     id="Arrow1Send"
     refX="0"
     refY="0"
     orient="auto"
     inkscape:stockid="Arrow1Send"><path
       transform="matrix(-0.2,0,0,-0.2,-1.2,0)"
       style="fill:#000000;fill-opacity:1;fill-rule:evenodd;stroke:#000000;stroke-width:1.00000003pt;stroke-opacity:1"
       d="M 0,0 5,-5 -12.5,0 5,5 Z"
       id="path4714"
       inkscape:connector-curvature="0" /></marker><clipPath
     id="clipPath69-0"><path
       d="m 409.441,126.252 v -43.63 h 147.796 v 43.63"
       id="path71-2"
       inkscape:connector-curvature="0" /></clipPath><clipPath
     id="clipPath101-1"><path
       d="m 409.441,126.252 v -43.63 h 147.796 v 43.63"
       id="path103-6"
       inkscape:connector-curvature="0" /></clipPath><clipPath
     id="clipPath69"><path
       d="m 409.441,126.252 v -43.63 h 147.796 v 43.63"
       id="path71"
       inkscape:connector-curvature="0" /></clipPath><clipPath
     id="clipPath101"><path
       d="m 409.441,126.252 v -43.63 h 147.796 v 43.63"
       id="path103"
       inkscape:connector-curvature="0" /></clipPath></defs><sodipodi:namedview
   inkscape:document-rotation="0"
   inkscape:current-layer="Layer_1"
   inkscape:window-maximized="1"
   inkscape:window-y="-8"
   inkscape:window-x="-8"
   inkscape:cy="490.13894"
   inkscape:cx="523.31828"
   inkscape:zoom="0.70870873"
   showgrid="false"
   id="namedview315"
   inkscape:window-height="987"
   inkscape:window-width="1680"
   inkscape:pageshadow="2"
   inkscape:pageopacity="0"
   guidetolerance="10"
   gridtolerance="10"
   objecttolerance="10"
   borderopacity="1"
   bordercolor="#666666"
   pagecolor="#ffffff" />
<style
   id="style2"
   type="text/css">
	.st0{fill:none;stroke:#000000;stroke-width:2;stroke-linecap:round;stroke-linejoin:round;stroke-miterlimit:10;}
</style>


<path
   transform="matrix(-0.43002699,1.130057,2.0415701,0.29579479,-502.85964,-70.638639)"
   d="m 213.76906,420.48303 c 4.33533,-3.02847 6.22122,4.3498 5.03352,7.20561 -3.21859,7.73906 -13.76784,7.20281 -19.44473,2.86143 -10.15463,-7.76569 -8.80005,-23.01133 -0.68936,-31.68385 11.90277,-12.72727 32.38919,-10.4694 43.92298,1.48273 15.37273,15.9303 12.17098,41.8159 -3.65481,56.1621 -19.91513,18.05322 -51.2662,13.88951 -68.40122,-5.82689 -20.75282,-23.8792 -15.61793,-60.72983 7.99897,-80.64035 27.8317,-23.46387 70.20178,-17.35256 92.87948,10.17105 26.18229,31.7771 19.09133,79.67929 -12.34314,105.1186 -35.71784,28.90577 -89.1607,20.833 -117.35773,-14.51521 -31.6328,-39.65536 -22.57676,-98.64496 16.6873,-129.59686 43.59056,-34.36248 108.13134,-24.3221 141.83598,18.85939 12.72926,16.30839 20.44859,36.27058 22.18106,56.87462"
   sodipodi:t0="0"
   sodipodi:argument="-19.459312"
   sodipodi:radius="108.70555"
   sodipodi:revolution="3.0918801"
   sodipodi:expansion="1"
   sodipodi:cy="420.48303"
   sodipodi:cx="213.76906"
   id="path881"
   style="fill:none;fill-rule:evenodd;stroke:#000000"
   sodipodi:type="spiral" /><path
   sodipodi:type="spiral"
   style="fill:none;fill-rule:evenodd;stroke:#000000"
   id="path883"
   sodipodi:cx="213.76906"
   sodipodi:cy="420.48303"
   sodipodi:expansion="1"
   sodipodi:revolution="3.0918801"
   sodipodi:radius="108.70555"
   sodipodi:argument="-19.459312"
   sodipodi:t0="0"
   d="m 213.76906,420.48303 c 4.33533,-3.02847 6.22122,4.3498 5.03352,7.20561 -3.21859,7.73906 -13.76784,7.20281 -19.44473,2.86143 -10.15463,-7.76569 -8.80005,-23.01133 -0.68936,-31.68385 11.90277,-12.72727 32.38919,-10.4694 43.92298,1.48273 15.37273,15.9303 12.17098,41.8159 -3.65481,56.1621 -19.91513,18.05322 -51.2662,13.88951 -68.40122,-5.82689 -20.75282,-23.8792 -15.61793,-60.72983 7.99897,-80.64035 27.8317,-23.46387 70.20178,-17.35256 92.87948,10.17105 26.18229,31.7771 19.09133,79.67929 -12.34314,105.1186 -35.71784,28.90577 -89.1607,20.833 -117.35773,-14.51521 -31.6328,-39.65536 -22.57676,-98.64496 16.6873,-129.59686 43.59056,-34.36248 108.13134,-24.3221 141.83598,18.85939 12.72926,16.30839 20.44859,36.27058 22.18106,56.87462"
   transform="matrix(-0.43002699,1.130057,2.0415701,0.29579479,-502.85964,-50.638639)" /><path
   id="path885"
   d="m 209.73588,437.04459 v -20"
   style="fill:none;stroke:#000000;stroke-width:1px;stroke-linecap:butt;stroke-linejoin:miter;stroke-opacity:1" /><path
   id="path887"
   d="m 263.65948,315.30927 v -20"
   style="fill:none;stroke:#000000;stroke-width:1px;stroke-linecap:butt;stroke-linejoin:miter;stroke-opacity:1" /><path
   id="path889"
   d="m 209.73588,417.04459 7.54395,2.00605 0.24944,19.70536 -7.79339,-1.71141"
   style="fill:none;stroke:#000000;stroke-width:1px;stroke-linecap:butt;stroke-linejoin:miter;stroke-opacity:1" /><path
   sodipodi:nodetypes="cccc"
   id="path891"
   d="m 217.29053,425.53229 166.94701,21.49551 -1.32283,10.14168 -165.65907,-24.1013"
   style="fill:none;stroke:#000000;stroke-width:1px;stroke-linecap:butt;stroke-linejoin:miter;stroke-opacity:1" /><path
   id="path895"
   d="m 386.50165,428.73279 -6.83557,54.24793 152.94418,19.27194 7.84989,-62.29764 -153.29418,-19.31603 z"
   style="fill:none;stroke:#000000;stroke-width:1px;stroke-linecap:butt;stroke-linejoin:miter;stroke-opacity:1" /><path
   sodipodi:nodetypes="ccccccc"
   style="fill:none;stroke:#000000;stroke-width:1px;stroke-linecap:butt;stroke-linejoin:miter;stroke-opacity:1"
   d="m 532.61026,502.25266 8.46928,-6.94174 2.62628,-20.84243 m 1.19084,-8.56974 4.03277,-32.88547 -153.29418,-19.31603 -8.46928,6.94174"
   id="path897" /><path
   id="path899"
   d="m 548.92943,433.01328 c -8.46928,6.94174 -8.46928,6.94174 -8.46928,6.94174"
   style="fill:none;stroke:#000000;stroke-width:1px;stroke-linecap:butt;stroke-linejoin:miter;stroke-opacity:1" /><path
   sodipodi:nodetypes="ccscc"
   style="fill:none;stroke:#000000;stroke-width:1px;stroke-linecap:butt;stroke-linejoin:miter;stroke-opacity:1"
   d="m 630.85355,483.52558 -91.10984,-9.58299 c 0,0 -1.39151,-1.5458 -0.98502,-4.4068 0.44886,-3.15916 1.9252,-4.41397 1.9252,-4.41397 l 101.25634,13.20586"
   id="path901" /><path
   sodipodi:nodetypes="cccccc"
   style="fill:none;stroke:#000000;stroke-width:1px;stroke-linecap:butt;stroke-linejoin:miter;stroke-opacity:1"
   d="m 209.73588,417.04459 9.10743,1.06617 0.0972,7.67728 m 0.0947,7.48185 c 0.0192,1.51541 0.0575,4.54623 0.0575,4.54623 l -1.56348,0.93988"
   id="path903" /><path
   id="path905"
   d="m 218.84331,418.11076 -1.56348,0.93988"
   style="fill:none;stroke:#000000;stroke-width:1px;stroke-linecap:butt;stroke-linejoin:miter;stroke-opacity:1" /><g
   transform="rotate(20.950524,326.00659,466.06969)"
   id="g924"><path
     id="path918"
     d="m 132.28283,471.27965 h 8.46611 v 9.87711 h -8.81886 z"
     style="fill:none;stroke:#000000;stroke-width:1px;stroke-linecap:butt;stroke-linejoin:miter;stroke-opacity:1" /><path
     style="fill:none;stroke:#000000;stroke-width:1.32431px;stroke-linecap:butt;stroke-linejoin:miter;stroke-opacity:1"
     d="m 142.97016,469.67803 h 11.21174 v 13.08035 h -11.67889 z"
     id="path920" /><path
     id="path922"
     d="m 156.28283,471.27965 h 8.46611 v 9.87711 h -8.81886 z"
     style="fill:none;stroke:#000000;stroke-width:1px;stroke-linecap:butt;stroke-linejoin:miter;stroke-opacity:1" /></g><g
   id="g932"
   transform="matrix(0.68428758,0.43082266,-0.43082266,0.68428758,211.7965,-1.377378)"><path
     style="fill:none;stroke:#000000;stroke-width:1px;stroke-linecap:butt;stroke-linejoin:miter;stroke-opacity:1"
     d="m 132.28283,471.27965 h 8.46611 v 9.87711 h -8.81886 z"
     id="path926" /><path
     id="path928"
     d="m 142.97016,469.67803 h 11.21174 v 13.08035 h -11.67889 z"
     style="fill:none;stroke:#000000;stroke-width:1.32431px;stroke-linecap:butt;stroke-linejoin:miter;stroke-opacity:1" /><path
     style="fill:none;stroke:#000000;stroke-width:1px;stroke-linecap:butt;stroke-linejoin:miter;stroke-opacity:1"
     d="m 156.28283,471.27965 h 8.46611 v 9.87711 h -8.81886 z"
     id="path930" /></g><g
   transform="matrix(0.41419729,0.46696659,-0.46696659,0.41419729,234.8724,91.568086)"
   id="g940"><path
     id="path934"
     d="m 132.28283,471.27965 h 8.46611 v 9.87711 h -8.81886 z"
     style="fill:none;stroke:#000000;stroke-width:1px;stroke-linecap:butt;stroke-linejoin:miter;stroke-opacity:1" /><path
     style="fill:none;stroke:#000000;stroke-width:1.32431px;stroke-linecap:butt;stroke-linejoin:miter;stroke-opacity:1"
     d="m 142.97016,469.67803 h 11.21174 v 13.08035 h -11.67889 z"
     id="path936" /><path
     id="path938"
     d="m 156.28283,471.27965 h 8.46611 v 9.87711 h -8.81886 z"
     style="fill:none;stroke:#000000;stroke-width:1px;stroke-linecap:butt;stroke-linejoin:miter;stroke-opacity:1" /></g><g
   transform="translate(132.47196,-124.71745)"
   id="g948"><path
     id="path942"
     d="m 132.28283,471.27965 h 8.46611 v 9.87711 h -8.81886 z"
     style="fill:none;stroke:#000000;stroke-width:1px;stroke-linecap:butt;stroke-linejoin:miter;stroke-opacity:1" /><path
     style="fill:none;stroke:#000000;stroke-width:1.32431px;stroke-linecap:butt;stroke-linejoin:miter;stroke-opacity:1"
     d="m 142.97016,469.67803 h 11.21174 v 13.08035 h -11.67889 z"
     id="path944" /><path
     id="path946"
     d="m 156.28283,471.27965 h 8.46611 v 9.87711 h -8.81886 z"
     style="fill:none;stroke:#000000;stroke-width:1px;stroke-linecap:butt;stroke-linejoin:miter;stroke-opacity:1" /></g><g
   id="g956"
   transform="matrix(0.67188736,0.37877368,-0.37877368,0.67188736,304.15991,-35.605716)"><path
     style="fill:none;stroke:#000000;stroke-width:1px;stroke-linecap:butt;stroke-linejoin:miter;stroke-opacity:1"
     d="m 132.28283,471.27965 h 8.46611 v 9.87711 h -8.81886 z"
     id="path950" /><path
     id="path952"
     d="m 142.97016,469.67803 h 11.21174 v 13.08035 h -11.67889 z"
     style="fill:none;stroke:#000000;stroke-width:1.32431px;stroke-linecap:butt;stroke-linejoin:miter;stroke-opacity:1" /><path
     style="fill:none;stroke:#000000;stroke-width:1px;stroke-linecap:butt;stroke-linejoin:miter;stroke-opacity:1"
     d="m 156.28283,471.27965 h 8.46611 v 9.87711 h -8.81886 z"
     id="path954" /></g><g
   id="g964"
   transform="matrix(0.69657182,-0.39549589,0.39549589,0.69657182,47.536997,64.973759)"><path
     style="fill:none;stroke:#000000;stroke-width:1px;stroke-linecap:butt;stroke-linejoin:miter;stroke-opacity:1"
     d="m 132.28283,471.27965 h 8.46611 v 9.87711 h -8.81886 z"
     id="path958" /><path
     id="path960"
     d="m 142.97016,469.67803 h 11.21174 v 13.08035 h -11.67889 z"
     style="fill:none;stroke:#000000;stroke-width:1.32431px;stroke-linecap:butt;stroke-linejoin:miter;stroke-opacity:1" /><path
     style="fill:none;stroke:#000000;stroke-width:1px;stroke-linecap:butt;stroke-linejoin:miter;stroke-opacity:1"
     d="m 156.28283,471.27965 h 8.46611 v 9.87711 h -8.81886 z"
     id="path962" /></g><g
   id="g972"
   transform="translate(143.4471,-83.311256)"><path
     style="fill:none;stroke:#000000;stroke-width:1px;stroke-linecap:butt;stroke-linejoin:miter;stroke-opacity:1"
     d="m 132.28283,471.27965 h 8.46611 v 9.87711 h -8.81886 z"
     id="path966" /><path
     id="path968"
     d="m 142.97016,469.67803 h 11.21174 v 13.08035 h -11.67889 z"
     style="fill:none;stroke:#000000;stroke-width:1.32431px;stroke-linecap:butt;stroke-linejoin:miter;stroke-opacity:1" /><path
     style="fill:none;stroke:#000000;stroke-width:1px;stroke-linecap:butt;stroke-linejoin:miter;stroke-opacity:1"
     d="m 156.28283,471.27965 h 8.46611 v 9.87711 h -8.81886 z"
     id="path970" /></g><g
   transform="matrix(0.9215462,0.18528802,-0.18528802,0.9215462,178.45721,-78.910007)"
   id="g980"><path
     id="path974"
     d="m 132.28283,471.27965 h 8.46611 v 9.87711 h -8.81886 z"
     style="fill:none;stroke:#000000;stroke-width:1px;stroke-linecap:butt;stroke-linejoin:miter;stroke-opacity:1" /><path
     style="fill:none;stroke:#000000;stroke-width:1.32431px;stroke-linecap:butt;stroke-linejoin:miter;stroke-opacity:1"
     d="m 142.97016,469.67803 h 11.21174 v 13.08035 h -11.67889 z"
     id="path976" /><path
     id="path978"
     d="m 156.28283,471.27965 h 8.46611 v 9.87711 h -8.81886 z"
     style="fill:none;stroke:#000000;stroke-width:1px;stroke-linecap:butt;stroke-linejoin:miter;stroke-opacity:1" /></g><g
   transform="matrix(0.854736,-0.23409259,0.23409259,0.854736,109.90956,13.072456)"
   id="g988"><path
     id="path982"
     d="m 132.28283,471.27965 h 8.46611 v 9.87711 h -8.81886 z"
     style="fill:none;stroke:#000000;stroke-width:1px;stroke-linecap:butt;stroke-linejoin:miter;stroke-opacity:1" /><path
     style="fill:none;stroke:#000000;stroke-width:1.32431px;stroke-linecap:butt;stroke-linejoin:miter;stroke-opacity:1"
     d="m 142.97016,469.67803 h 11.21174 v 13.08035 h -11.67889 z"
     id="path984" /><path
     id="path986"
     d="m 156.28283,471.27965 h 8.46611 v 9.87711 h -8.81886 z"
     style="fill:none;stroke:#000000;stroke-width:1px;stroke-linecap:butt;stroke-linejoin:miter;stroke-opacity:1" /></g><g
   id="g996"
   transform="matrix(0.40569757,0.457384,-0.457384,0.40569757,299.91492,84.068443)"><path
     style="fill:none;stroke:#000000;stroke-width:1px;stroke-linecap:butt;stroke-linejoin:miter;stroke-opacity:1"
     d="m 132.28283,471.27965 h 8.46611 v 9.87711 h -8.81886 z"
     id="path990" /><path
     id="path992"
     d="m 142.97016,469.67803 h 11.21174 v 13.08035 h -11.67889 z"
     style="fill:none;stroke:#000000;stroke-width:1.32431px;stroke-linecap:butt;stroke-linejoin:miter;stroke-opacity:1" /><path
     style="fill:none;stroke:#000000;stroke-width:1px;stroke-linecap:butt;stroke-linejoin:miter;stroke-opacity:1"
     d="m 156.28283,471.27965 h 8.46611 v 9.87711 h -8.81886 z"
     id="path994" /></g><g
   transform="matrix(0.75536328,0.3391514,-0.3391514,0.75536328,225.11921,-39.988618)"
   id="g1004"><path
     id="path998"
     d="m 132.28283,471.27965 h 8.46611 v 9.87711 h -8.81886 z"
     style="fill:none;stroke:#000000;stroke-width:1px;stroke-linecap:butt;stroke-linejoin:miter;stroke-opacity:1" /><path
     style="fill:none;stroke:#000000;stroke-width:1.32431px;stroke-linecap:butt;stroke-linejoin:miter;stroke-opacity:1"
     d="m 142.97016,469.67803 h 11.21174 v 13.08035 h -11.67889 z"
     id="path1000" /><path
     id="path1002"
     d="m 156.28283,471.27965 h 8.46611 v 9.87711 h -8.81886 z"
     style="fill:none;stroke:#000000;stroke-width:1px;stroke-linecap:butt;stroke-linejoin:miter;stroke-opacity:1" /></g><g
   transform="matrix(0.41759715,-0.44654592,0.44654592,0.41759715,143.46902,215.0739)"
   id="g1012"><path
     id="path1006"
     d="m 132.28283,471.27965 h 8.46611 v 9.87711 h -8.81886 z"
     style="fill:none;stroke:#000000;stroke-width:1px;stroke-linecap:butt;stroke-linejoin:miter;stroke-opacity:1" /><path
     style="fill:none;stroke:#000000;stroke-width:1.32431px;stroke-linecap:butt;stroke-linejoin:miter;stroke-opacity:1"
     d="m 142.97016,469.67803 h 11.21174 v 13.08035 h -11.67889 z"
     id="path1008" /><path
     id="path1010"
     d="m 156.28283,471.27965 h 8.46611 v 9.87711 h -8.81886 z"
     style="fill:none;stroke:#000000;stroke-width:1px;stroke-linecap:butt;stroke-linejoin:miter;stroke-opacity:1" /></g><g
   id="g1020"
   transform="matrix(0.70203716,-0.4048683,0.4048683,0.70203716,94.652768,94.202087)"><path
     style="fill:none;stroke:#000000;stroke-width:1px;stroke-linecap:butt;stroke-linejoin:miter;stroke-opacity:1"
     d="m 132.28283,471.27965 h 8.46611 v 9.87711 h -8.81886 z"
     id="path1014" /><path
     id="path1016"
     d="m 142.97016,469.67803 h 11.21174 v 13.08035 h -11.67889 z"
     style="fill:none;stroke:#000000;stroke-width:1.32431px;stroke-linecap:butt;stroke-linejoin:miter;stroke-opacity:1" /><path
     style="fill:none;stroke:#000000;stroke-width:1px;stroke-linecap:butt;stroke-linejoin:miter;stroke-opacity:1"
     d="m 156.28283,471.27965 h 8.46611 v 9.87711 h -8.81886 z"
     id="path1018" /></g></svg>
