<?xml version="1.0" encoding="UTF-8" standalone="no"?>
<svg
   xmlns:dc="http://purl.org/dc/elements/1.1/"
   xmlns:cc="http://creativecommons.org/ns#"
   xmlns:rdf="http://www.w3.org/1999/02/22-rdf-syntax-ns#"
   xmlns:svg="http://www.w3.org/2000/svg"
   xmlns="http://www.w3.org/2000/svg"
   xmlns:sodipodi="http://sodipodi.sourceforge.net/DTD/sodipodi-0.dtd"
   xmlns:inkscape="http://www.inkscape.org/namespaces/inkscape"
   version="1.1"
   id="Layer_1"
   x="0px"
   y="0px"
   viewBox="0 0 667 666"
   style="enable-background:new 0 0 667 666;"
   xml:space="preserve"
   sodipodi:docname="icon.svg"
   inkscape:version="1.0 (4035a4fb49, 2020-05-01)"><metadata
   id="metadata319"><rdf:RDF><cc:Work
       rdf:about=""><dc:format>image/svg+xml</dc:format><dc:type
         rdf:resource="http://purl.org/dc/dcmitype/StillImage" /><dc:title /></cc:Work></rdf:RDF></metadata><defs
   id="defs317"><marker
     inkscape:stockid="Arrow1Send"
     orient="auto"
     refY="0"
     refX="0"
     id="Arrow1Send"
     style="overflow:visible"
     inkscape:isstock="true"><path
       inkscape:connector-curvature="0"
       id="path4714"
       d="M 0,0 5,-5 -12.5,0 5,5 Z"
       style="fill:#000000;fill-opacity:1;fill-rule:evenodd;stroke:#000000;stroke-width:1.00000003pt;stroke-opacity:1"
       transform="matrix(-0.2,0,0,-0.2,-1.2,0)" /></marker><clipPath
     id="clipPath69-0"><path
       inkscape:connector-curvature="0"
       id="path71-2"
       d="m 409.441,126.252 v -43.63 h 147.796 v 43.63" /></clipPath><clipPath
     id="clipPath101-1"><path
       inkscape:connector-curvature="0"
       id="path103-6"
       d="m 409.441,126.252 v -43.63 h 147.796 v 43.63" /></clipPath><clipPath
     id="clipPath69"><path
       inkscape:connector-curvature="0"
       id="path71"
       d="m 409.441,126.252 v -43.63 h 147.796 v 43.63" /></clipPath><clipPath
     id="clipPath101"><path
       inkscape:connector-curvature="0"
       id="path103"
       d="m 409.441,126.252 v -43.63 h 147.796 v 43.63" /></clipPath></defs><sodipodi:namedview
   pagecolor="#ffffff"
   bordercolor="#666666"
   borderopacity="1"
   objecttolerance="10"
   gridtolerance="10"
   guidetolerance="10"
   inkscape:pageopacity="0"
   inkscape:pageshadow="2"
   inkscape:window-width="1680"
   inkscape:window-height="987"
   id="namedview315"
   showgrid="false"
   inkscape:zoom="0.70870873"
   inkscape:cx="523.31828"
   inkscape:cy="490.13894"
   inkscape:window-x="-8"
   inkscape:window-y="-8"
   inkscape:window-maximized="1"
   inkscape:current-layer="Layer_1"
   inkscape:document-rotation="0" />
<style
   type="text/css"
   id="style2">
	.st0{fill:none;stroke:#000000;stroke-width:2;stroke-linecap:round;stroke-linejoin:round;stroke-miterlimit:10;}
</style>


<path
   sodipodi:type="spiral"
   style="fill:none;fill-rule:evenodd;stroke:#000000;stroke-width:2.56373897;stroke-miterlimit:4;stroke-dasharray:none"
   id="path881"
   sodipodi:cx="213.76906"
   sodipodi:cy="420.48303"
   sodipodi:expansion="1"
   sodipodi:revolution="3.0918801"
   sodipodi:radius="108.70555"
   sodipodi:argument="-19.459312"
   sodipodi:t0="0"
   d="m 213.76906,420.48303 c 4.33533,-3.02847 6.22122,4.3498 5.03352,7.20561 -3.21859,7.73906 -13.76784,7.20281 -19.44473,2.86143 -10.15463,-7.76569 -8.80005,-23.01133 -0.68936,-31.68385 11.90277,-12.72727 32.38919,-10.4694 43.92298,1.48273 15.37273,15.9303 12.17098,41.8159 -3.65481,56.1621 -19.91513,18.05322 -51.2662,13.88951 -68.40122,-5.82689 -20.75282,-23.8792 -15.61793,-60.72983 7.99897,-80.64035 27.8317,-23.46387 70.20178,-17.35256 92.87948,10.17105 26.18229,31.7771 19.09133,79.67929 -12.34314,105.1186 -35.71784,28.90577 -89.1607,20.833 -117.35773,-14.51521 -31.6328,-39.65536 -22.57676,-98.64496 16.6873,-129.59686 43.59056,-34.36248 108.13134,-24.3221 141.83598,18.85939 12.72926,16.30839 20.44859,36.27058 22.18106,56.87462"
   transform="matrix(-0.43002699,1.130057,2.0415701,0.29579479,-502.85964,-70.638639)" /><path
   transform="matrix(-0.43002699,1.130057,2.0415701,0.29579479,-502.85964,-50.638639)"
   d="m 213.76906,420.48303 c 4.33533,-3.02847 6.22122,4.3498 5.03352,7.20561 -3.21859,7.73906 -13.76784,7.20281 -19.44473,2.86143 -10.15463,-7.76569 -8.80005,-23.01133 -0.68936,-31.68385 11.90277,-12.72727 32.38919,-10.4694 43.92298,1.48273 15.37273,15.9303 12.17098,41.8159 -3.65481,56.1621 -19.91513,18.05322 -51.2662,13.88951 -68.40122,-5.82689 -20.75282,-23.8792 -15.61793,-60.72983 7.99897,-80.64035 27.8317,-23.46387 70.20178,-17.35256 92.87948,10.17105 26.18229,31.7771 19.09133,79.67929 -12.34314,105.1186 -35.71784,28.90577 -89.1607,20.833 -117.35773,-14.51521 -31.6328,-39.65536 -22.57676,-98.64496 16.6873,-129.59686 43.59056,-34.36248 108.13134,-24.3221 141.83598,18.85939 12.72926,16.30839 20.44859,36.27058 22.18106,56.87462"
   sodipodi:t0="0"
   sodipodi:argument="-19.459312"
   sodipodi:radius="108.70555"
   sodipodi:revolution="3.0918801"
   sodipodi:expansion="1"
   sodipodi:cy="420.48303"
   sodipodi:cx="213.76906"
   id="path883"
   style="fill:none;fill-rule:evenodd;stroke:#000000;stroke-width:2.56373897;stroke-miterlimit:4;stroke-dasharray:none"
   sodipodi:type="spiral" /><path
   style="fill:none;stroke:#000000;stroke-width:4;stroke-linecap:butt;stroke-linejoin:miter;stroke-opacity:1;stroke-miterlimit:4;stroke-dasharray:none"
   d="m 209.73588,437.04459 v -20"
   id="path885" /><path
   style="fill:none;stroke:#000000;stroke-width:2.66666667;stroke-linecap:butt;stroke-linejoin:miter;stroke-opacity:1;stroke-miterlimit:4;stroke-dasharray:none"
   d="m 263.65948,315.30927 v -20"
   id="path887" /><path
   style="fill:none;stroke:#000000;stroke-width:4;stroke-linecap:butt;stroke-linejoin:miter;stroke-opacity:1;stroke-miterlimit:4;stroke-dasharray:none"
   d="m 209.73588,417.04459 7.54395,2.00605 0.24944,19.70536 -7.79339,-1.71141"
   id="path889" /><path
   style="fill:none;stroke:#000000;stroke-width:4;stroke-linecap:butt;stroke-linejoin:miter;stroke-opacity:1;stroke-miterlimit:4;stroke-dasharray:none"
   d="m 217.29053,425.53229 166.94701,21.49551 -1.32283,10.14168 -165.65907,-24.1013"
   id="path891"
   sodipodi:nodetypes="cccc" /><path
   style="fill:none;stroke:#000000;stroke-width:4;stroke-linecap:butt;stroke-linejoin:miter;stroke-opacity:1;stroke-miterlimit:4;stroke-dasharray:none"
   d="m 386.50165,428.73279 -6.83557,54.24793 152.94418,19.27194 7.84989,-62.29764 -153.29418,-19.31603 z"
   id="path895" /><path
   id="path897"
   d="m 532.61026,502.25266 8.46928,-6.94174 2.62628,-20.84243 m 1.19084,-8.56974 4.03277,-32.88547 -153.29418,-19.31603 -8.46928,6.94174"
   style="fill:none;stroke:#000000;stroke-width:4;stroke-linecap:butt;stroke-linejoin:miter;stroke-opacity:1;stroke-miterlimit:4;stroke-dasharray:none"
   sodipodi:nodetypes="ccccccc" /><path
   style="fill:none;stroke:#000000;stroke-width:4;stroke-linecap:butt;stroke-linejoin:miter;stroke-opacity:1;stroke-miterlimit:4;stroke-dasharray:none"
   d="m 548.92943,433.01328 c -8.46928,6.94174 -8.46928,6.94174 -8.46928,6.94174"
   id="path899" /><path
   id="path901"
   d="m 630.85355,483.52558 -91.10984,-9.58299 c 0,0 -1.39151,-1.5458 -0.98502,-4.4068 0.44886,-3.15916 1.9252,-4.41397 1.9252,-4.41397 l 101.25634,13.20586"
   style="fill:none;stroke:#000000;stroke-width:4;stroke-linecap:butt;stroke-linejoin:miter;stroke-opacity:1;stroke-miterlimit:4;stroke-dasharray:none"
   sodipodi:nodetypes="ccscc" /><path
   id="path903"
   d="m 209.73588,417.04459 9.10743,1.06617 0.0972,7.67728 m 0.0947,7.48185 c 0.0192,1.51541 0.0575,4.54623 0.0575,4.54623 l -1.56348,0.93988"
   style="fill:none;stroke:#000000;stroke-width:4;stroke-linecap:butt;stroke-linejoin:miter;stroke-opacity:1;stroke-miterlimit:4;stroke-dasharray:none"
   sodipodi:nodetypes="cccccc" /><path
   style="fill:none;stroke:#000000;stroke-width:2.66666667;stroke-linecap:butt;stroke-linejoin:miter;stroke-opacity:1;stroke-miterlimit:4;stroke-dasharray:none"
   d="m 218.84331,418.11076 -1.56348,0.93988"
   id="path905" /><g
   style="stroke-width:2.66666667;stroke-miterlimit:4;stroke-dasharray:none"
   id="g924"
   transform="rotate(20.950524,326.00659,466.06969)"><path
     style="fill:none;stroke:#000000;stroke-width:2.66666667;stroke-linecap:butt;stroke-linejoin:miter;stroke-opacity:1;stroke-miterlimit:4;stroke-dasharray:none"
     d="m 132.28283,471.27965 h 8.46611 v 9.87711 h -8.81886 z"
     id="path918" /><path
     id="path920"
     d="m 142.97016,469.67803 h 11.21174 v 13.08035 h -11.67889 z"
     style="fill:none;stroke:#000000;stroke-width:2.66666667;stroke-linecap:butt;stroke-linejoin:miter;stroke-opacity:1;stroke-miterlimit:4;stroke-dasharray:none" /><path
     style="fill:none;stroke:#000000;stroke-width:2.66666667;stroke-linecap:butt;stroke-linejoin:miter;stroke-opacity:1;stroke-miterlimit:4;stroke-dasharray:none"
     d="m 156.28283,471.27965 h 8.46611 v 9.87711 h -8.81886 z"
     id="path922" /></g><g
   style="stroke-width:3.29782136;stroke-miterlimit:4;stroke-dasharray:none"
   transform="matrix(0.68428758,0.43082266,-0.43082266,0.68428758,211.7965,-1.377378)"
   id="g932"><path
     id="path926"
     d="m 132.28283,471.27965 h 8.46611 v 9.87711 h -8.81886 z"
     style="fill:none;stroke:#000000;stroke-width:3.29782136;stroke-linecap:butt;stroke-linejoin:miter;stroke-opacity:1;stroke-miterlimit:4;stroke-dasharray:none" /><path
     style="fill:none;stroke:#000000;stroke-width:3.29782136;stroke-linecap:butt;stroke-linejoin:miter;stroke-opacity:1;stroke-miterlimit:4;stroke-dasharray:none"
     d="m 142.97016,469.67803 h 11.21174 v 13.08035 h -11.67889 z"
     id="path928" /><path
     id="path930"
     d="m 156.28283,471.27965 h 8.46611 v 9.87711 h -8.81886 z"
     style="fill:none;stroke:#000000;stroke-width:3.29782136;stroke-linecap:butt;stroke-linejoin:miter;stroke-opacity:1;stroke-miterlimit:4;stroke-dasharray:none" /></g><g
   style="stroke-width:4.27218132;stroke-miterlimit:4;stroke-dasharray:none"
   id="g940"
   transform="matrix(0.41419729,0.46696659,-0.46696659,0.41419729,234.8724,91.568086)"><path
     style="fill:none;stroke:#000000;stroke-width:4.27218132;stroke-linecap:butt;stroke-linejoin:miter;stroke-opacity:1;stroke-miterlimit:4;stroke-dasharray:none"
     d="m 132.28283,471.27965 h 8.46611 v 9.87711 h -8.81886 z"
     id="path934" /><path
     id="path936"
     d="m 142.97016,469.67803 h 11.21174 v 13.08035 h -11.67889 z"
     style="fill:none;stroke:#000000;stroke-width:4.27218132;stroke-linecap:butt;stroke-linejoin:miter;stroke-opacity:1;stroke-miterlimit:4;stroke-dasharray:none" /><path
     style="fill:none;stroke:#000000;stroke-width:4.27218132;stroke-linecap:butt;stroke-linejoin:miter;stroke-opacity:1;stroke-miterlimit:4;stroke-dasharray:none"
     d="m 156.28283,471.27965 h 8.46611 v 9.87711 h -8.81886 z"
     id="path938" /></g><g
   style="stroke-width:2.66666667;stroke-miterlimit:4;stroke-dasharray:none"
   id="g948"
   transform="translate(132.47196,-124.71745)"><path
     style="fill:none;stroke:#000000;stroke-width:2.66666667;stroke-linecap:butt;stroke-linejoin:miter;stroke-opacity:1;stroke-miterlimit:4;stroke-dasharray:none"
     d="m 132.28283,471.27965 h 8.46611 v 9.87711 h -8.81886 z"
     id="path942" /><path
     id="path944"
     d="m 142.97016,469.67803 h 11.21174 v 13.08035 h -11.67889 z"
     style="fill:none;stroke:#000000;stroke-width:2.66666667;stroke-linecap:butt;stroke-linejoin:miter;stroke-opacity:1;stroke-miterlimit:4;stroke-dasharray:none" /><path
     style="fill:none;stroke:#000000;stroke-width:2.66666667;stroke-linecap:butt;stroke-linejoin:miter;stroke-opacity:1;stroke-miterlimit:4;stroke-dasharray:none"
     d="m 156.28283,471.27965 h 8.46611 v 9.87711 h -8.81886 z"
     id="path946" /></g><g
   style="stroke-width:3.4573709;stroke-miterlimit:4;stroke-dasharray:none"
   transform="matrix(0.67188736,0.37877368,-0.37877368,0.67188736,304.15991,-35.605716)"
   id="g956"><path
     id="path950"
     d="m 132.28283,471.27965 h 8.46611 v 9.87711 h -8.81886 z"
     style="fill:none;stroke:#000000;stroke-width:3.4573709;stroke-linecap:butt;stroke-linejoin:miter;stroke-opacity:1;stroke-miterlimit:4;stroke-dasharray:none" /><path
     style="fill:none;stroke:#000000;stroke-width:3.4573709;stroke-linecap:butt;stroke-linejoin:miter;stroke-opacity:1;stroke-miterlimit:4;stroke-dasharray:none"
     d="m 142.97016,469.67803 h 11.21174 v 13.08035 h -11.67889 z"
     id="path952" /><path
     id="path954"
     d="m 156.28283,471.27965 h 8.46611 v 9.87711 h -8.81886 z"
     style="fill:none;stroke:#000000;stroke-width:3.4573709;stroke-linecap:butt;stroke-linejoin:miter;stroke-opacity:1;stroke-miterlimit:4;stroke-dasharray:none" /></g><g
   style="stroke-width:3.32909845;stroke-miterlimit:4;stroke-dasharray:none"
   transform="matrix(0.69657182,-0.39549589,0.39549589,0.69657182,47.536997,64.973759)"
   id="g964"><path
     id="path958"
     d="m 132.28283,471.27965 h 8.46611 v 9.87711 h -8.81886 z"
     style="fill:none;stroke:#000000;stroke-width:3.32909845;stroke-linecap:butt;stroke-linejoin:miter;stroke-opacity:1;stroke-miterlimit:4;stroke-dasharray:none" /><path
     style="fill:none;stroke:#000000;stroke-width:3.32909845;stroke-linecap:butt;stroke-linejoin:miter;stroke-opacity:1;stroke-miterlimit:4;stroke-dasharray:none"
     d="m 142.97016,469.67803 h 11.21174 v 13.08035 h -11.67889 z"
     id="path960" /><path
     id="path962"
     d="m 156.28283,471.27965 h 8.46611 v 9.87711 h -8.81886 z"
     style="fill:none;stroke:#000000;stroke-width:3.32909845;stroke-linecap:butt;stroke-linejoin:miter;stroke-opacity:1;stroke-miterlimit:4;stroke-dasharray:none" /></g><g
   style="stroke-width:2.66666667;stroke-miterlimit:4;stroke-dasharray:none"
   transform="translate(143.4471,-83.311256)"
   id="g972"><path
     id="path966"
     d="m 132.28283,471.27965 h 8.46611 v 9.87711 h -8.81886 z"
     style="fill:none;stroke:#000000;stroke-width:2.66666667;stroke-linecap:butt;stroke-linejoin:miter;stroke-opacity:1;stroke-miterlimit:4;stroke-dasharray:none" /><path
     style="fill:none;stroke:#000000;stroke-width:2.66666667;stroke-linecap:butt;stroke-linejoin:miter;stroke-opacity:1;stroke-miterlimit:4;stroke-dasharray:none"
     d="m 142.97016,469.67803 h 11.21174 v 13.08035 h -11.67889 z"
     id="path968" /><path
     id="path970"
     d="m 156.28283,471.27965 h 8.46611 v 9.87711 h -8.81886 z"
     style="fill:none;stroke:#000000;stroke-width:2.66666667;stroke-linecap:butt;stroke-linejoin:miter;stroke-opacity:1;stroke-miterlimit:4;stroke-dasharray:none" /></g><g
   style="stroke-width:2.83691307;stroke-miterlimit:4;stroke-dasharray:none"
   id="g980"
   transform="matrix(0.9215462,0.18528802,-0.18528802,0.9215462,178.45721,-78.910007)"><path
     style="fill:none;stroke:#000000;stroke-width:2.83691307;stroke-linecap:butt;stroke-linejoin:miter;stroke-opacity:1;stroke-miterlimit:4;stroke-dasharray:none"
     d="m 132.28283,471.27965 h 8.46611 v 9.87711 h -8.81886 z"
     id="path974" /><path
     id="path976"
     d="m 142.97016,469.67803 h 11.21174 v 13.08035 h -11.67889 z"
     style="fill:none;stroke:#000000;stroke-width:2.83691307;stroke-linecap:butt;stroke-linejoin:miter;stroke-opacity:1;stroke-miterlimit:4;stroke-dasharray:none" /><path
     style="fill:none;stroke:#000000;stroke-width:2.83691307;stroke-linecap:butt;stroke-linejoin:miter;stroke-opacity:1;stroke-miterlimit:4;stroke-dasharray:none"
     d="m 156.28283,471.27965 h 8.46611 v 9.87711 h -8.81886 z"
     id="path978" /></g><g
   style="stroke-width:3.00905938;stroke-miterlimit:4;stroke-dasharray:none"
   id="g988"
   transform="matrix(0.854736,-0.23409259,0.23409259,0.854736,109.90956,13.072456)"><path
     style="fill:none;stroke:#000000;stroke-width:3.00905938;stroke-linecap:butt;stroke-linejoin:miter;stroke-opacity:1;stroke-miterlimit:4;stroke-dasharray:none"
     d="m 132.28283,471.27965 h 8.46611 v 9.87711 h -8.81886 z"
     id="path982" /><path
     id="path984"
     d="m 142.97016,469.67803 h 11.21174 v 13.08035 h -11.67889 z"
     style="fill:none;stroke:#000000;stroke-width:3.00905938;stroke-linecap:butt;stroke-linejoin:miter;stroke-opacity:1;stroke-miterlimit:4;stroke-dasharray:none" /><path
     style="fill:none;stroke:#000000;stroke-width:3.00905938;stroke-linecap:butt;stroke-linejoin:miter;stroke-opacity:1;stroke-miterlimit:4;stroke-dasharray:none"
     d="m 156.28283,471.27965 h 8.46611 v 9.87711 h -8.81886 z"
     id="path986" /></g><g
   style="stroke-width:4.36168724;stroke-miterlimit:4;stroke-dasharray:none"
   transform="matrix(0.40569757,0.457384,-0.457384,0.40569757,299.91492,84.068443)"
   id="g996"><path
     id="path990"
     d="m 132.28283,471.27965 h 8.46611 v 9.87711 h -8.81886 z"
     style="fill:none;stroke:#000000;stroke-width:4.36168724;stroke-linecap:butt;stroke-linejoin:miter;stroke-opacity:1;stroke-miterlimit:4;stroke-dasharray:none" /><path
     style="fill:none;stroke:#000000;stroke-width:4.36168724;stroke-linecap:butt;stroke-linejoin:miter;stroke-opacity:1;stroke-miterlimit:4;stroke-dasharray:none"
     d="m 142.97016,469.67803 h 11.21174 v 13.08035 h -11.67889 z"
     id="path992" /><path
     id="path994"
     d="m 156.28283,471.27965 h 8.46611 v 9.87711 h -8.81886 z"
     style="fill:none;stroke:#000000;stroke-width:4.36168724;stroke-linecap:butt;stroke-linejoin:miter;stroke-opacity:1;stroke-miterlimit:4;stroke-dasharray:none" /></g><g
   style="stroke-width:3.22058055;stroke-miterlimit:4;stroke-dasharray:none"
   id="g1004"
   transform="matrix(0.75536328,0.3391514,-0.3391514,0.75536328,225.11921,-39.988618)"><path
     style="fill:none;stroke:#000000;stroke-width:3.22058055;stroke-linecap:butt;stroke-linejoin:miter;stroke-opacity:1;stroke-miterlimit:4;stroke-dasharray:none"
     d="m 132.28283,471.27965 h 8.46611 v 9.87711 h -8.81886 z"
     id="path998" /><path
     id="path1000"
     d="m 142.97016,469.67803 h 11.21174 v 13.08035 h -11.67889 z"
     style="fill:none;stroke:#000000;stroke-width:3.22058055;stroke-linecap:butt;stroke-linejoin:miter;stroke-opacity:1;stroke-miterlimit:4;stroke-dasharray:none" /><path
     style="fill:none;stroke:#000000;stroke-width:3.22058055;stroke-linecap:butt;stroke-linejoin:miter;stroke-opacity:1;stroke-miterlimit:4;stroke-dasharray:none"
     d="m 156.28283,471.27965 h 8.46611 v 9.87711 h -8.81886 z"
     id="path1002" /></g><g
   style="stroke-width:4.36168726;stroke-miterlimit:4;stroke-dasharray:none"
   id="g1012"
   transform="matrix(0.41759715,-0.44654592,0.44654592,0.41759715,143.46902,215.0739)"><path
     style="fill:none;stroke:#000000;stroke-width:4.36168726;stroke-linecap:butt;stroke-linejoin:miter;stroke-opacity:1;stroke-miterlimit:4;stroke-dasharray:none"
     d="m 132.28283,471.27965 h 8.46611 v 9.87711 h -8.81886 z"
     id="path1006" /><path
     id="path1008"
     d="m 142.97016,469.67803 h 11.21174 v 13.08035 h -11.67889 z"
     style="fill:none;stroke:#000000;stroke-width:4.36168726;stroke-linecap:butt;stroke-linejoin:miter;stroke-opacity:1;stroke-miterlimit:4;stroke-dasharray:none" /><path
     style="fill:none;stroke:#000000;stroke-width:4.36168726;stroke-linecap:butt;stroke-linejoin:miter;stroke-opacity:1;stroke-miterlimit:4;stroke-dasharray:none"
     d="m 156.28283,471.27965 h 8.46611 v 9.87711 h -8.81886 z"
     id="path1010" /></g><g
   style="stroke-width:3.29049009;stroke-miterlimit:4;stroke-dasharray:none"
   transform="matrix(0.70203716,-0.4048683,0.4048683,0.70203716,94.652768,94.202087)"
   id="g1020"><path
     id="path1014"
     d="m 132.28283,471.27965 h 8.46611 v 9.87711 h -8.81886 z"
     style="fill:none;stroke:#000000;stroke-width:3.29049009;stroke-linecap:butt;stroke-linejoin:miter;stroke-opacity:1;stroke-miterlimit:4;stroke-dasharray:none" /><path
     style="fill:none;stroke:#000000;stroke-width:3.29049009;stroke-linecap:butt;stroke-linejoin:miter;stroke-opacity:1;stroke-miterlimit:4;stroke-dasharray:none"
     d="m 142.97016,469.67803 h 11.21174 v 13.08035 h -11.67889 z"
     id="path1016" /><path
     id="path1018"
     d="m 156.28283,471.27965 h 8.46611 v 9.87711 h -8.81886 z"
     style="fill:none;stroke:#000000;stroke-width:3.29049009;stroke-linecap:butt;stroke-linejoin:miter;stroke-opacity:1;stroke-miterlimit:4;stroke-dasharray:none" /></g></svg>
