<?xml version="1.0" standalone="no"?>
<!DOCTYPE svg PUBLIC "-//W3C//DTD SVG 20010904//EN"
 "http://www.w3.org/TR/2001/REC-SVG-20010904/DTD/svg10.dtd">
<svg version="1.0" xmlns="http://www.w3.org/2000/svg"
 width="358.000000pt" height="336.000000pt" viewBox="0 0 358.000000 336.000000"
 preserveAspectRatio="xMidYMid meet">

<g transform="translate(0.000000,336.000000) scale(0.100000,-0.100000)"
fill="#000000" stroke="none">
<path d="M2820 3300 c-8 -5 -27 -10 -42 -10 l-28 0 0 -122 c0 -85 -5 -138 -17
-177 -20 -67 -22 -69 -32 -52 -14 22 -179 33 -433 28 l-236 -4 3 91 c2 79 -9
273 -13 239 -1 -8 -19 -13 -47 -13 l-45 0 -2 -172 c-3 -167 -4 -173 -23 -170
-11 2 -35 5 -53 7 -18 2 -49 9 -70 15 -32 8 -367 6 -504 -4 -47 -4 -48 1 -55
184 l-5 145 -46 0 -45 1 6 -184 c5 -144 4 -181 -6 -175 -15 9 -12 8 -117 26
-66 11 -123 12 -255 6 -93 -5 -183 -11 -200 -14 -83 -17 -78 -12 -72 -56 7
-54 4 -48 -32 49 -20 53 -31 102 -31 135 0 29 -3 88 -6 132 l-7 80 -49 -4 -49
-3 3 -617 c3 -568 4 -618 21 -642 9 -14 14 -28 11 -32 -13 -13 46 -77 71 -77
17 0 23 -4 19 -14 -3 -9 4 -15 20 -18 22 -5 26 -2 26 20 0 14 -8 31 -17 39
-16 13 -15 14 12 8 51 -11 655 -16 655 -5 0 6 -85 10 -222 11 -123 1 -263 4
-313 8 -66 6 -8 9 215 11 168 1 308 2 313 1 4 0 7 13 7 31 0 49 18 21 24 -39
l6 -53 -328 -3 -327 -2 338 -3 337 -2 1 78 c1 42 5 104 9 137 l7 60 3 -90 c2
-49 3 -117 4 -150 l1 -60 -358 -3 c-222 -1 -357 -6 -357 -12 0 -5 11 -12 25
-16 13 -3 30 -13 37 -22 8 -9 8 -13 2 -9 -15 8 -84 -66 -84 -91 -1 -14 -4 -13
-21 8 -20 23 -21 40 -5 85 7 18 6 18 -4 2 -6 -9 -15 -15 -20 -12 -4 3 -6 -4
-3 -15 5 -18 -5 -25 -30 -21 -4 1 -11 -7 -14 -16 -4 -10 -14 -24 -22 -31 -14
-12 -14 -13 -1 -9 10 3 15 -3 15 -17 0 -20 -5 -19 -59 21 -67 49 -91 58 -146
50 -48 -6 -82 -31 -110 -79 -18 -33 -20 -48 -15 -105 4 -46 2 -86 -8 -123 -31
-118 37 -199 157 -187 42 4 55 11 87 44 20 22 45 63 55 92 12 31 25 51 34 51
12 0 13 -2 1 -9 -10 -6 -12 -19 -7 -42 4 -24 3 -30 -4 -19 -10 15 -11 12 -14
-22 -1 -7 -5 -16 -10 -19 -5 -4 -4 -19 2 -36 7 -21 6 -35 -1 -49 -7 -12 -13
-149 -17 -394 -6 -362 -7 -377 -29 -435 -13 -33 -27 -64 -32 -69 -5 -6 -9 -14
-9 -18 0 -4 101 -8 223 -8 l224 0 17 63 c22 78 49 131 70 135 14 3 16 -18 18
-185 1 -103 3 -170 5 -148 3 22 12 48 20 58 9 9 11 17 5 17 -6 0 -13 -6 -15
-12 -3 -7 -6 -1 -6 15 -1 24 2 27 34 27 40 0 44 -13 15 -50 -11 -14 -20 -29
-20 -35 0 -5 4 -4 9 4 7 11 13 12 23 3 8 -6 19 -7 27 -3 9 6 10 11 2 15 -6 4
-16 4 -22 0 -8 -4 -8 0 0 15 7 12 21 21 35 21 13 0 29 7 36 15 14 17 60 20 60
4 0 -8 4 -8 13 -1 6 6 29 10 49 9 35 -1 38 -3 39 -31 l1 -31 7 29 c10 46 33
46 29 1 -4 -51 -32 -69 -58 -37 -11 13 -21 18 -25 12 -3 -5 -1 -10 4 -10 6 0
11 -7 11 -15 0 -10 -11 -15 -35 -15 -42 0 -43 8 -9 45 17 18 20 26 9 21 -9 -3
-22 -6 -27 -6 -6 0 -9 -3 -5 -6 3 -4 0 -19 -8 -34 l-14 -28 47 0 c26 0 58 -1
72 -2 25 -1 25 -1 -5 -15 l-30 -14 35 5 c19 2 29 1 22 -2 -17 -8 3 -33 27 -35
9 -1 0 -5 -19 -10 -30 -7 -28 -7 18 -5 29 2 55 -1 58 -5 15 -24 23 -1 26 69
l3 77 33 3 c25 3 32 0 32 -15 1 -17 1 -17 14 0 18 23 166 26 166 2 0 -8 5 -15
10 -15 6 0 10 6 10 14 0 7 10 16 23 19 12 3 32 9 45 12 20 7 22 4 22 -29 0
-29 4 -36 19 -36 22 0 29 -15 25 -53 -2 -24 0 -26 12 -16 8 6 14 22 14 35 0
19 5 24 24 24 18 0 25 -7 30 -31 8 -41 0 -52 -33 -45 -25 5 -25 5 -4 -6 33
-16 55 6 51 51 -3 35 -2 35 36 35 33 0 40 -3 43 -22 1 -13 -2 -33 -9 -45 -10
-20 -10 -21 5 -8 10 7 17 23 18 35 0 20 1 20 9 1 7 -19 8 -18 14 5 4 14 17 30
29 35 20 9 22 18 27 130 l5 120 7 -115 c4 -63 5 -136 3 -163 -2 -27 0 -45 6
-42 5 4 9 22 9 41 0 21 4 33 10 29 6 -3 10 -20 10 -38 0 -36 16 -26 22 13 1
14 10 25 18 25 8 1 14 6 13 12 -1 6 5 14 13 17 11 4 15 2 11 -8 -7 -18 36 -24
119 -16 l59 5 3 93 c2 63 -1 92 -8 87 -5 -3 -10 -1 -10 4 0 6 5 11 10 11 6 0
10 12 10 27 0 17 4 23 9 17 11 -10 18 -245 8 -261 -4 -6 -2 -22 3 -35 10 -22
10 -22 7 4 -3 16 2 33 9 39 11 9 14 5 14 -20 0 -38 20 -42 21 -3 1 15 1 30 0
34 0 4 10 3 23 -2 17 -6 23 -5 22 3 0 7 4 12 9 12 6 0 9 -3 7 -7 -1 -5 8 -8
20 -9 13 -1 48 -3 78 -4 93 -6 90 -10 90 126 0 82 4 119 11 119 9 0 10 -44 7
-157 -3 -98 -1 -146 4 -125 10 38 28 43 28 6 0 -14 4 -23 10 -19 6 3 10 15 10
26 0 10 1 20 3 20 1 1 58 5 127 8 l125 6 5 129 c5 117 3 130 -12 134 -10 2
-18 10 -18 17 0 7 -7 16 -15 19 -17 6 -16 57 1 55 5 0 8 -5 6 -10 -1 -5 5 -12
13 -15 8 -4 16 -14 16 -23 1 -9 4 -2 8 14 l6 30 135 0 135 0 3 -36 c2 -29 -1
-38 -20 -47 l-23 -12 23 6 c22 5 23 3 20 -33 l-3 -38 -47 1 c-26 0 -45 -3 -43
-6 2 -4 -17 -3 -43 1 -26 4 -64 8 -84 8 l-38 1 0 -70 0 -70 38 -1 c143 -3 136
-1 143 -39 l6 -35 2 38 c0 20 6 37 12 37 5 0 7 -4 4 -10 -10 -16 4 -12 25 8
10 9 20 35 23 57 3 30 4 24 5 -22 2 -60 15 -84 25 -46 3 11 5 5 6 -11 1 -20
-8 -40 -26 -59 l-28 -30 28 18 c16 10 43 20 60 22 17 2 33 7 36 12 4 5 20 12
37 15 19 4 57 31 94 67 34 32 65 57 70 54 4 -3 7 6 6 20 0 14 -4 25 -7 25 -4
0 -9 18 -13 40 -5 35 -12 43 -44 56 -20 9 -45 20 -54 25 -10 5 -26 9 -37 9
-10 0 -22 7 -25 16 -3 8 -10 13 -16 9 -5 -3 -17 3 -27 14 -9 11 -21 17 -26 14
-5 -3 -6 4 -2 16 4 12 2 27 -3 34 -5 7 -12 24 -14 39 -4 22 -1 28 16 31 16 3
15 5 -6 6 -26 1 -28 4 -26 41 1 44 22 59 57 41 11 -7 85 -11 175 -11 l156 0 0
344 c0 304 -2 345 -16 350 -9 3 -79 6 -157 6 -85 0 -136 4 -128 9 8 5 10 14 6
21 -24 39 12 149 50 151 11 1 27 3 35 4 8 1 34 3 56 4 26 0 51 9 65 21 l24 21
-32 -15 c-38 -19 -72 -9 -97 26 -46 65 14 135 88 104 32 -13 33 -13 28 6 -3
12 -10 17 -21 14 -13 -5 -13 -4 1 7 10 8 15 17 11 20 -3 4 -128 7 -277 7 -271
-1 -271 -1 -247 -20 15 -13 18 -20 9 -20 -8 0 -23 9 -33 20 -15 17 -31 20 -97
20 l-78 0 0 31 c0 18 4 28 10 24 6 -4 35 -1 65 6 42 9 94 9 232 1 98 -7 233
-15 300 -18 108 -6 122 -9 126 -26 3 -13 4 -12 4 4 -1 13 2 29 6 36 6 9 -4 12
-40 12 -220 0 -548 11 -556 19 -14 14 66 23 138 16 33 -3 164 -8 290 -11 127
-4 232 -8 235 -11 2 -2 -6 -6 -18 -10 -12 -3 -20 -9 -17 -13 3 -5 16 -3 28 3
24 11 24 12 30 242 4 126 7 326 7 443 l0 212 -27 1 c-63 2 -147 9 -150 13 -2
2 3 21 11 41 l16 37 -26 -6 c-15 -4 -23 -3 -20 2 3 6 -9 16 -27 23 -24 11 -92
14 -277 14 l-246 0 4 150 c5 178 3 198 -18 185z m-1700 -890 c0 -231 -3 -420
-7 -420 -5 0 -7 189 -5 420 1 231 5 420 7 420 3 0 5 -189 5 -420z m831 -350
l4 -185 -356 -3 c-355 -2 -357 -2 -362 19 -3 11 -4 26 -1 32 3 9 96 12 344 12
260 0 342 3 352 13 10 10 -53 11 -325 6 -250 -5 -337 -4 -337 5 0 8 54 11 188
12 262 1 425 8 436 19 13 13 29 13 21 1 -3 -5 -1 -12 5 -16 6 -4 10 9 10 32 1
21 1 216 2 433 l1 395 7 -295 c4 -162 9 -378 11 -480z m1615 431 c-4 -179 -9
-327 -12 -330 -2 -2 -4 30 -4 71 0 58 -3 77 -15 82 -17 6 -21 36 -5 36 13 0
13 27 -1 32 -5 2 -11 18 -11 36 -1 17 -5 32 -10 32 -11 0 -38 25 -38 35 0 4
12 -3 27 -15 46 -36 60 6 59 176 -1 92 -4 115 -18 131 -10 11 -18 25 -18 31 0
12 30 21 44 14 5 -3 6 -142 2 -331z m-3081 319 c3 -5 14 -10 25 -10 21 0 32
-21 20 -40 -5 -8 -4 -22 1 -31 14 -28 0 -49 -35 -50 l-31 -2 30 -4 c17 -3 34
-8 38 -13 14 -13 -2 -48 -24 -55 -22 -7 -26 -35 -5 -35 8 0 21 -2 28 -5 10 -4
15 5 16 32 3 43 10 53 21 34 6 -9 11 -10 15 -2 16 26 23 -4 24 -99 l0 -100
-29 0 c-22 0 -29 5 -29 20 0 11 6 20 13 20 8 0 9 3 1 8 -6 4 -13 14 -16 22 -3
8 -8 -2 -12 -22 -4 -23 -13 -38 -21 -38 -23 0 -18 -17 7 -23 37 -10 12 -19
-31 -12 -51 8 -53 29 -6 45 19 6 35 16 35 21 0 6 -8 6 -19 -1 -51 -27 -62 -5
-62 128 0 78 2 88 23 105 21 16 21 18 3 13 -16 -5 -20 -1 -21 17 0 12 -4 37
-8 55 -6 29 -4 32 18 32 14 0 28 -4 31 -10z m2465 2 c0 -4 -5 -13 -12 -20 -7
-7 -8 -12 -4 -12 4 0 16 10 26 23 14 16 21 19 30 11 14 -14 10 -46 -7 -51 -7
-3 -10 4 -7 19 l5 23 -10 -22 c-11 -24 -19 -27 -45 -17 -19 7 -21 25 -4 42 14
14 28 16 28 4z m126 -34 c2 -17 -3 -29 -14 -33 -14 -5 -14 -7 -2 -15 18 -11
13 -16 -25 -26 -27 -7 -29 -6 -16 9 7 10 9 17 4 17 -6 0 -10 58 -4 78 1 2 13
2 27 0 21 -2 28 -9 30 -30z m-2468 -8 c0 -16 -4 -33 -10 -36 -6 -4 -5 -9 3
-15 16 -10 12 -14 -22 -22 -23 -6 -27 -3 -27 16 0 12 -1 27 -2 32 -6 27 2 44
23 48 12 2 25 5 28 6 3 0 6 -12 7 -29z m79 17 c3 -4 1 -7 -7 -7 -10 0 -10 -3
0 -15 10 -12 10 -18 1 -29 -9 -11 -9 -16 0 -21 15 -10 -8 -25 -37 -25 -18 0
-20 5 -18 53 1 28 2 52 3 52 10 3 53 -3 58 -8z m618 -9 l-6 -23 17 23 c20 27
30 28 43 3 8 -14 7 -22 -6 -32 -15 -12 -16 -12 -10 4 9 23 -5 22 -21 -3 -11
-18 -10 -20 12 -20 31 0 40 -14 26 -40 -8 -15 -17 -19 -34 -14 -13 3 -27 1
-30 -5 -5 -7 7 -11 33 -11 33 0 41 -4 41 -18 0 -26 -20 -42 -51 -42 -41 0 -56
70 -21 96 16 13 16 13 0 14 -19 0 -26 20 -8 20 6 0 6 7 -1 19 -13 20 -6 51 11
51 7 0 9 -9 5 -22z m819 0 c-6 -23 -6 -23 20 1 19 18 29 22 37 14 14 -14 8
-45 -10 -51 -10 -3 -11 2 -6 19 l8 24 -21 -25 -20 -25 29 -3 c21 -2 29 -9 29
-22 0 -10 -5 -22 -11 -26 -8 -4 -8 -9 0 -17 17 -17 13 -46 -9 -59 -25 -16 -25
-30 -2 -45 14 -8 19 -25 20 -66 1 -49 -1 -57 -21 -63 l-22 -7 23 -8 c21 -8 31
-29 13 -29 -24 0 -71 24 -71 36 0 8 4 14 9 14 24 0 62 21 55 31 -4 8 -9 8 -17
0 -6 -6 -20 -11 -30 -11 -16 0 -18 5 -14 29 3 15 1 33 -5 39 -9 9 -7 17 7 32
18 20 18 22 2 50 -20 33 -17 68 7 85 15 11 14 13 -6 19 -13 4 -18 9 -11 12 9
4 10 10 1 23 -12 20 -5 51 12 51 7 0 9 -9 4 -22z m1030 10 c-5 -7 -8 -28 -8
-47 -1 -29 -6 -36 -27 -42 -26 -6 -26 -6 -25 47 l0 54 34 0 c24 0 31 -4 26
-12z m161 -14 c37 -39 36 -121 -1 -158 -33 -32 -37 -32 -74 2 -43 39 -46 117
-5 157 31 32 50 31 80 -1z m-2466 -5 c35 -38 31 -128 -8 -163 -27 -25 -66 -14
-86 24 -47 92 30 207 94 139z m589 -9 c0 -17 -5 -30 -11 -30 -8 0 -7 -3 2 -9
18 -12 7 -27 -23 -33 -21 -4 -25 -1 -28 29 -2 19 0 37 4 39 5 3 4 12 -3 20 -9
12 -5 14 23 14 32 0 35 -3 36 -30z m82 20 c0 -5 -6 -10 -12 -10 -9 0 -10 -2
-2 -8 12 -7 16 -60 5 -66 -3 -2 -17 -6 -32 -9 -23 -6 -25 -4 -26 31 -1 20 4
40 10 44 9 6 9 8 0 8 -7 0 -13 5 -13 10 0 6 16 10 35 10 19 0 35 -4 35 -10z
m159 -16 c29 -37 35 -84 18 -127 -21 -50 -46 -61 -85 -37 -22 14 -33 29 -38
55 -19 103 52 177 105 109z m579 -21 c-3 -40 -6 -47 -29 -53 -25 -7 -25 -6
-26 46 0 53 0 54 29 54 28 0 29 -1 26 -47z m82 37 c0 -5 -6 -10 -12 -11 -10 0
-10 -2 0 -6 17 -7 16 -73 -2 -73 -8 0 -21 -2 -28 -5 -11 -5 -14 7 -15 50 0 54
0 55 28 55 16 0 29 -4 29 -10z m169 -16 c42 -53 32 -147 -18 -174 -42 -22 -91
29 -91 93 0 88 65 137 109 81z m261 -393 l0 -418 -197 -4 c-245 -5 -503 3
-485 15 8 4 161 8 340 7 l327 0 -1 367 c-1 338 2 452 12 452 2 0 4 -188 4
-419z m-1822 377 c8 -8 12 -46 12 -105 0 -76 -3 -91 -14 -87 -22 9 -36 60 -36
135 0 70 10 85 38 57z m823 2 c17 -9 19 -22 19 -105 0 -93 -9 -115 -30 -76
-12 23 -26 191 -16 191 4 0 16 -5 27 -10z m849 -105 c0 -92 -9 -115 -29 -77
-7 14 -16 152 -12 185 1 4 10 3 21 -3 18 -10 20 -21 20 -105z m798 103 c18
-18 17 -199 -2 -192 -24 9 -36 53 -36 129 0 76 9 92 38 63z m-420 -25 c-2 -23
-8 -28 -30 -28 -14 0 -30 -3 -34 -7 -4 -5 9 -8 29 -8 25 0 37 -5 37 -14 0 -25
-12 -46 -26 -46 -21 0 -17 -28 6 -40 29 -16 25 -40 -9 -46 -27 -6 -53 -34 -31
-34 6 0 10 5 10 10 0 6 12 10 26 10 23 0 25 -3 22 -32 -2 -26 -8 -34 -28 -36
l-24 -4 24 -13 c36 -19 39 -94 2 -96 -10 0 -12 -3 -4 -6 22 -9 35 -43 21 -59
-17 -20 -32 -17 -26 6 3 11 1 22 -3 25 -12 7 -44 -7 -32 -14 5 -3 12 -16 16
-28 11 -36 -17 -28 -33 9 -13 29 -12 33 6 48 16 13 18 18 8 26 -7 5 -16 19
-20 32 -6 20 -3 22 37 23 l43 1 -38 15 c-44 18 -43 34 1 47 18 5 32 15 32 23
0 12 -3 12 -16 -1 -17 -18 -24 -19 -42 -8 -20 13 -9 112 14 130 18 14 18 14
-2 10 -18 -5 -21 0 -23 38 -1 34 3 45 21 58 l22 16 -22 0 c-12 0 -22 5 -22 10
0 6 21 10 46 10 44 0 45 -1 42 -27z m-1981 -21 c42 -36 53 -69 53 -153 0 -74
-9 -85 -41 -48 -9 11 -21 21 -26 21 -30 2 -33 13 -33 109 0 54 3 99 8 99 4 -1
21 -13 39 -28z m823 3 c49 -36 59 -60 60 -142 0 -74 -10 -89 -37 -62 -6 6 -22
17 -35 23 -21 11 -23 18 -26 109 -1 53 -1 97 1 97 2 0 19 -11 37 -25z m819 13
c13 -8 18 -21 16 -42 -1 -17 0 -21 2 -8 5 28 18 28 37 0 11 -16 16 -46 16
-100 0 -72 -2 -78 -20 -78 -11 0 -24 8 -28 18 -4 9 -16 17 -27 17 -19 0 -20 8
-23 103 -1 56 0 102 3 102 3 0 14 -5 24 -12z m825 -9 c42 -33 56 -70 56 -154
0 -81 -10 -93 -45 -55 -10 11 -26 22 -36 25 -17 6 -19 17 -19 106 0 54 4 99 9
99 4 0 20 -9 35 -21z m-363 -51 c0 -10 2 -10 6 0 2 6 9 12 14 12 6 0 9 -38 8
-90 -1 -52 -6 -90 -11 -90 -6 0 -5 -7 2 -15 19 -23 4 -45 -30 -45 -16 0 -30 4
-30 8 0 4 -15 6 -34 4 l-34 -4 0 45 c0 39 3 46 21 50 l22 4 -22 8 c-25 8 -31
25 -10 25 8 0 9 3 1 8 -14 9 -16 69 -3 77 5 4 9 1 9 -5 0 -6 10 -10 22 -8 20
3 23 -1 21 -32 -1 -19 -3 -41 -5 -49 -1 -7 3 -16 10 -18 9 -3 12 13 12 61 0
52 3 66 15 66 8 0 15 -6 16 -12z m-2435 -86 c0 -46 -4 -86 -9 -89 -5 -3 4 -18
19 -34 21 -22 33 -27 55 -22 30 6 41 -10 14 -21 -8 -3 -15 -13 -15 -22 0 -14
2 -15 18 -3 15 13 16 12 3 -3 -9 -13 -18 -15 -31 -8 -9 5 -21 6 -25 2 -5 -4
-5 -2 -1 5 3 6 2 14 -3 18 -6 3 -13 -21 -17 -56 -6 -56 -9 -62 -38 -74 -36
-15 -44 -12 -26 10 7 9 8 15 2 15 -5 0 -9 17 -8 38 3 33 6 37 34 40 23 2 29 7
25 18 -3 8 3 21 13 29 17 14 15 14 -23 10 -24 -3 -43 -1 -44 3 0 4 -2 58 -4
119 l-3 113 32 -3 31 -3 1 -82z m798 76 c5 -10 7 -10 12 0 15 32 24 4 24 -78
0 -65 -3 -90 -12 -90 -8 -1 -6 -6 5 -14 10 -8 15 -20 11 -30 -8 -20 -24 -21
-24 -1 0 8 -4 15 -10 15 -5 0 -7 -7 -3 -16 4 -12 2 -15 -8 -12 -10 3 -14 23
-15 69 -1 35 -4 88 -8 117 -4 41 -3 52 8 52 8 0 17 -6 20 -12z m824 0 c9 -9
12 -9 12 0 0 7 5 12 10 12 6 0 10 -32 10 -75 0 -64 -2 -75 -17 -76 -17 -1 -17
-2 0 -6 21 -6 23 -23 1 -23 -13 0 -11 -4 6 -18 13 -11 20 -24 16 -30 -11 -18
-26 -14 -27 6 -1 16 -2 16 -6 -1 -3 -10 -10 -16 -16 -14 -15 5 -16 109 -2 119
6 5 6 8 -1 8 -7 0 -12 22 -13 55 -1 55 5 65 27 43z m-904 -20 c5 -10 7 -10 12
0 14 30 24 7 23 -52 -1 -35 1 -68 5 -74 3 -6 2 -13 -4 -17 -7 -4 -7 -12 0 -25
14 -26 12 -40 -5 -40 -8 0 -15 8 -16 18 0 16 -1 16 -7 0 -5 -12 -11 -15 -22
-8 -12 8 -13 13 -2 30 7 12 8 20 2 20 -19 0 -10 31 13 40 21 8 21 9 1 9 -18 1
-21 8 -23 56 -1 51 10 72 23 43z m842 4 c11 18 23 -40 13 -67 -3 -11 -2 -31 2
-44 6 -14 6 -28 -1 -36 -6 -8 -6 -15 2 -23 18 -18 2 -40 -26 -35 -31 6 -42 21
-27 36 7 7 7 14 0 23 -13 16 -3 34 19 35 14 0 13 2 -3 8 -15 6 -19 18 -21 52
-1 53 3 64 21 49 10 -8 15 -8 21 2z m-1428 -69 c26 -15 49 -28 51 -30 8 -6
-32 -40 -70 -61 l-37 -20 -6 59 c-6 54 -3 79 10 79 3 0 26 -12 52 -27z m502
19 c0 -5 11 -14 25 -20 28 -13 34 -42 8 -42 -15 0 -15 -1 0 -18 24 -27 21 -61
-5 -72 l-23 -9 21 -6 c18 -6 22 -14 20 -48 -1 -39 -3 -42 -32 -45 -61 -6 -73
53 -12 60 l33 4 -32 13 c-41 16 -42 37 -3 45 19 3 30 12 30 22 0 16 -1 16 -18
1 -16 -15 -21 -15 -38 -3 -16 12 -17 18 -7 35 9 14 9 21 1 23 -8 3 -7 13 3 36
13 30 29 43 29 24z m1971 -19 c27 -14 49 -29 49 -32 -1 -9 -74 -58 -97 -65
-18 -6 -21 -1 -26 51 -9 84 -2 88 74 46z m-1634 -8 c23 -14 43 -30 43 -35 0
-13 -52 -48 -82 -55 -24 -6 -26 -4 -32 45 -10 78 1 85 71 45z m824 -2 c27 -14
48 -31 46 -37 -4 -13 -96 -61 -103 -54 -3 3 -8 31 -11 62 -7 66 -2 68 68 29z
m-1519 -30 c23 -21 23 -36 -1 -57 -15 -14 -24 -15 -39 -7 -28 15 -33 35 -16
60 18 25 31 26 56 4z m2470 0 c24 -21 23 -45 -2 -61 -15 -9 -26 -10 -40 -2
-11 6 -20 12 -20 15 0 2 -3 10 -6 18 -6 15 20 47 38 47 6 0 20 -7 30 -17z
m-1632 -8 c26 -32 -13 -81 -47 -59 -35 22 -23 74 17 74 10 0 23 -7 30 -15z
m828 3 c18 -18 14 -45 -9 -62 -18 -13 -23 -12 -40 2 -31 27 -18 72 21 72 9 0
21 -5 28 -12z m-1648 -77 c0 -5 8 -7 19 -4 17 4 18 -3 19 -96 0 -88 -2 -101
-16 -102 -15 -1 -15 -2 1 -6 9 -2 17 -11 17 -19 0 -11 -6 -13 -20 -9 -11 3
-20 2 -20 -4 0 -5 9 -13 20 -16 20 -6 29 -45 10 -45 -5 0 -10 5 -10 12 0 9 -3
9 -12 0 -23 -23 -28 -12 -28 63 0 64 2 75 18 76 14 1 15 2 1 6 -13 3 -17 19
-18 78 -1 46 2 75 9 75 5 0 10 -4 10 -9z m836 1 c-3 -5 5 -8 17 -8 19 1 23 -5
25 -38 2 -24 -2 -42 -10 -47 -7 -5 -8 -9 -2 -9 7 0 10 -25 10 -67 -1 -59 -3
-68 -18 -65 -25 4 -23 -15 2 -23 11 -4 20 -15 20 -27 0 -14 -5 -18 -16 -14 -9
3 -22 6 -30 6 -11 0 -14 16 -14 70 0 49 4 70 13 70 8 0 7 4 -3 10 -13 9 -13
11 0 20 8 5 10 10 4 10 -6 0 -11 18 -12 41 -1 22 -4 45 -8 50 -7 11 4 29 17
29 6 0 8 -4 5 -8z m848 -5 c4 4 11 1 16 -7 15 -23 12 -33 -7 -26 -17 6 -17 5
0 -8 20 -15 23 -46 5 -46 -9 0 -8 -4 2 -10 13 -9 13 -11 0 -20 -8 -5 -10 -10
-4 -10 6 0 12 -23 13 -56 1 -51 0 -55 -18 -49 -11 3 -22 2 -25 -4 -3 -5 5 -12
19 -15 38 -10 34 -43 -5 -43 l-31 0 1 106 c0 58 -2 124 -3 146 -4 47 0 60 17
46 7 -6 16 -8 20 -4z m813 3 c12 0 14 -18 11 -117 -3 -116 -3 -118 -25 -116
-30 4 -30 -15 0 -22 13 -4 23 -14 24 -25 1 -16 -5 -19 -33 -18 l-34 1 1 74 c1
47 5 73 13 73 7 0 7 3 1 8 -12 8 -20 126 -10 142 4 6 14 9 22 6 8 -3 21 -6 30
-6z m-237 -7 c-1 -5 -14 -23 -29 -42 -28 -32 -29 -33 -40 -12 -10 18 -8 23 21
41 35 21 48 25 48 13z m166 -6 c4 -4 2 -7 -4 -7 -7 0 -31 -14 -54 -30 -23 -17
-42 -29 -43 -28 -1 2 -5 17 -9 33 -6 28 -5 29 9 11 13 -17 20 -17 13 0 -9 18
72 37 88 21z m-1835 -28 c-38 -34 -52 -32 -27 6 9 14 26 25 38 25 21 0 20 -3
-11 -31z m849 26 c0 -2 -11 -15 -25 -29 -16 -16 -27 -21 -31 -14 -4 6 3 20 16
30 21 17 40 23 40 13z m-1566 -42 c4 -10 -1 -24 -15 -37 -19 -19 -21 -19 -15
-3 3 10 6 27 6 38 0 23 16 25 24 2z m-315 -17 c2 -11 -5 -26 -15 -33 -18 -13
-18 -15 -1 -24 21 -12 22 -32 2 -49 -20 -17 -32 -5 -15 15 11 13 9 15 -14 15
-26 0 -26 0 -10 -25 13 -20 14 -28 4 -40 -7 -8 -9 -15 -5 -15 4 0 2 -7 -5 -15
-7 -9 -8 -15 -2 -15 5 0 12 6 15 14 4 9 24 14 61 15 52 1 78 -10 56 -24 -6 -4
-7 -11 -4 -17 11 -17 11 -91 1 -105 -6 -8 -5 -18 3 -28 17 -20 4 -35 -31 -35
-22 0 -29 5 -29 20 0 11 5 20 10 20 6 0 5 9 -2 21 -11 18 -11 23 1 27 9 3 10
6 2 11 -6 4 -12 24 -13 44 -1 39 -10 42 -13 4 -1 -16 -9 -23 -31 -25 -16 -2
-33 -10 -37 -18 -4 -8 -13 -14 -18 -14 -13 0 -2 96 14 122 9 14 9 23 -1 38
-16 26 -15 45 4 61 14 11 14 13 0 21 -9 5 -16 20 -16 34 0 23 3 25 42 22 33
-2 44 -7 47 -22z m1651 -11 c0 -14 -6 -28 -14 -31 -12 -5 -11 -9 5 -25 23 -23
24 -33 4 -49 -20 -16 -32 -5 -16 14 14 17 -2 31 -25 22 -11 -4 -12 -10 -4 -25
24 -45 3 -57 -23 -12 -16 27 -16 29 4 47 17 15 18 19 4 26 -8 5 -15 20 -15 33
0 22 4 25 40 25 36 0 40 -2 40 -25z m250 15 c0 -5 -7 -10 -16 -10 -8 0 -12 5
-9 10 3 6 10 10 16 10 5 0 9 -4 9 -10z m628 -40 c-2 -45 -5 -50 -32 -60 -34
-12 -44 -7 -26 15 7 8 8 15 3 15 -6 0 -9 10 -8 23 1 12 3 30 4 40 1 12 10 17
31 17 30 0 30 -1 28 -50z m82 1 c0 -38 -4 -50 -17 -54 -10 -2 -26 -8 -35 -12
-17 -7 -18 3 -10 98 2 12 11 17 32 17 29 0 30 -1 30 -49z m-2542 7 c-1 -18 -6
-36 -12 -40 -8 -5 -7 -8 2 -8 23 0 12 -18 -17 -28 -28 -10 -29 -9 -33 26 -6
66 0 82 32 82 26 0 29 -3 28 -32z m917 -18 c-1 -41 -15 -60 -46 -60 -12 0 -16
12 -18 49 -1 47 0 50 26 53 39 5 39 4 38 -42z m-77 10 c0 -17 -5 -30 -11 -30
-7 0 -6 -4 3 -10 17 -11 7 -24 -26 -34 -19 -6 -22 -2 -26 29 -2 20 -1 38 4 41
4 3 5 11 1 19 -4 11 3 15 24 15 26 0 30 -4 31 -30z m819 -20 c1 -35 -3 -50
-12 -50 -7 0 -20 -3 -28 -6 -11 -4 -16 4 -19 31 -2 20 0 39 4 41 5 3 4 12 -3
20 -9 12 -5 14 23 14 l35 0 0 -50z m80 0 c1 -31 -3 -50 -11 -50 -6 0 -20 -3
-32 -6 -19 -5 -20 -1 -21 50 l0 56 32 0 c31 0 32 -1 32 -50z m-1617 15 c14
-19 14 -19 -2 -6 -10 7 -18 18 -18 24 0 6 1 8 3 6 1 -2 9 -13 17 -24z m638
-32 c11 -22 5 -43 -13 -43 -8 0 -11 7 -8 20 4 15 0 20 -16 20 -24 0 -26 -12
-9 -40 16 -26 2 -39 -17 -14 -18 24 -19 61 -2 67 26 11 57 6 65 -10z m1903 -9
c10 -13 10 -17 -1 -24 -9 -6 -17 -4 -22 3 -6 9 -8 9 -8 0 0 -7 -7 -13 -15 -13
-18 0 -20 36 -2 43 22 10 34 7 48 -9z m-2455 -5 c3 -6 1 -16 -5 -22 -9 -9 -14
-8 -21 3 -7 10 -10 11 -10 3 0 -7 -7 -13 -15 -13 -15 0 -21 21 -8 33 10 11 51
8 59 -4z m833 -3 c9 -11 9 -16 0 -21 -6 -4 -15 -1 -20 6 -8 12 -11 12 -18 -1
-12 -18 -26 -7 -18 15 8 19 41 20 56 1z m822 -2 c10 -13 10 -17 -2 -25 -34
-21 -72 -1 -49 26 16 19 34 19 51 -1z m-1601 -59 c0 -38 -4 -47 -27 -60 l-28
-15 28 6 c22 5 27 3 27 -13 0 -21 -37 -43 -70 -43 -10 0 -22 -4 -25 -10 -4 -6
3 -9 16 -7 19 2 22 -3 23 -33 1 -32 -2 -35 -30 -38 l-31 -3 -1 79 c-1 66 1 81
15 86 14 6 14 8 -2 20 -22 16 -13 49 12 44 10 -1 29 5 43 15 40 28 50 22 50
-28z m1668 -3 c3 -41 2 -43 -40 -62 -24 -11 -35 -18 -25 -15 64 18 69 18 65
-1 -4 -21 -38 -41 -87 -50 -30 -6 -31 -6 -31 31 0 24 6 43 18 51 15 12 15 13
1 14 -9 0 -20 7 -23 16 -9 23 -8 24 14 24 11 0 34 9 52 20 18 11 38 18 43 17
6 -2 11 -22 13 -45z m792 3 c0 -25 -4 -45 -8 -45 -5 0 -17 -6 -27 -14 -18 -13
-18 -14 8 -9 21 4 27 1 27 -11 0 -19 -56 -46 -95 -46 -22 0 -25 4 -25 36 0 23
6 42 18 50 16 13 16 13 0 14 -28 0 -23 40 5 40 12 0 31 7 41 15 11 8 28 15 38
15 15 0 18 -8 18 -45z m-1620 -5 c0 -33 -5 -42 -27 -54 l-28 -15 33 6 c25 4
32 2 32 -10 0 -20 -44 -44 -90 -48 -34 -4 -35 -3 -38 34 -2 26 1 39 12 43 9 3
16 10 16 15 0 4 -7 6 -16 2 -12 -4 -15 0 -12 18 2 17 9 23 21 21 9 -2 24 4 33
13 8 8 26 15 40 15 21 0 24 -4 24 -40z m1437 -15 c3 -74 -8 -135 -25 -135 -13
0 -12 -3 3 -14 24 -17 13 -43 -18 -43 l-25 0 -1 119 0 119 32 -3 c30 -3 32 -6
34 -43z m-2458 -47 c-1 -49 -6 -86 -13 -91 -8 -6 -8 -10 2 -14 6 -2 12 -13 12
-24 0 -26 -60 -28 -60 -1 -1 9 -2 59 -3 110 -1 51 0 95 2 98 2 2 17 4 33 4
l28 0 -1 -82z m841 -14 l0 -84 -27 -1 -28 -1 25 -7 c16 -4 25 -14 25 -26 0
-15 -7 -20 -25 -20 -24 0 -25 3 -27 70 -1 39 -4 89 -7 112 -5 40 -4 42 22 45
15 2 30 2 35 0 4 -2 7 -41 7 -88z m1410 88 c0 -4 -5 -13 -12 -20 -8 -8 -8 -12
-1 -12 6 0 13 7 17 15 7 18 42 20 49 3 3 -8 6 -6 6 5 1 18 16 23 25 8 3 -5 15
-7 25 -4 17 4 19 -1 17 -74 l-1 -78 -32 -3 c-29 -3 -33 0 -33 22 0 20 4 24 18
20 15 -5 15 -4 1 5 -10 6 -15 23 -14 46 0 19 -3 35 -7 35 -4 0 -8 -5 -8 -11 0
-6 -9 -9 -20 -6 -11 3 -23 1 -26 -4 -3 -5 6 -9 20 -9 14 0 26 -4 26 -10 0 -5
-15 -10 -34 -10 -26 0 -35 -5 -41 -22 -7 -22 -8 -21 -12 7 -3 18 0 31 7 33 9
3 9 6 0 12 -17 10 -4 60 15 60 8 0 15 -4 15 -8z m-589 -37 c1 -19 2 -42 2 -50
0 -76 -3 -85 -25 -86 -21 -1 -21 -2 -3 -6 24 -6 35 -21 28 -40 -7 -18 -23 -17
-23 2 0 8 -4 15 -10 15 -5 0 -7 -7 -4 -15 4 -9 0 -15 -9 -15 -11 0 -15 16 -16
68 -1 37 -3 85 -5 107 -3 51 -1 55 35 55 26 0 29 -3 30 -35z m-1036 3 l-7 -23
22 23 c18 19 24 21 37 11 9 -8 17 -9 21 -3 4 5 19 10 35 11 l27 1 -1 -104 c0
-57 -5 -104 -10 -104 -5 0 -9 5 -9 10 0 6 -5 10 -11 10 -5 0 -7 -4 -4 -10 3
-5 -1 -10 -9 -10 -19 0 -21 21 -4 38 9 9 9 12 0 12 -19 0 -14 40 6 41 16 1 16
2 -1 6 -12 3 -16 10 -12 24 7 20 -9 27 -20 9 -3 -5 -19 -10 -36 -10 -19 0 -29
-5 -29 -15 0 -8 7 -15 16 -15 8 0 13 -4 10 -9 -3 -5 5 -16 19 -25 14 -9 25
-23 25 -30 0 -19 -27 -40 -34 -27 -4 5 -2 12 4 16 18 11 10 25 -15 25 -25 0
-33 -14 -15 -25 6 -4 8 -11 4 -16 -4 -6 -11 -6 -20 2 -18 15 -18 28 1 50 14
15 14 18 0 32 -18 19 -20 57 -2 58 10 0 10 2 0 6 -14 5 -18 45 -6 56 14 15 24
6 18 -15z m822 1 c-5 -19 -4 -20 12 -5 21 19 41 21 41 4 1 -8 7 -5 15 6 12 16
17 17 30 6 10 -8 15 -9 15 -1 0 6 4 11 9 11 11 0 20 -142 10 -154 -5 -5 -4
-15 2 -23 17 -20 3 -43 -26 -43 -30 0 -43 24 -25 45 9 10 9 15 1 15 -17 0 -13
28 7 39 16 10 16 10 0 11 -20 0 -25 20 -5 20 6 0 4 5 -6 11 -18 10 -18 11 0
32 l18 21 -26 -16 c-14 -9 -36 -18 -50 -21 -23 -4 -23 -4 3 -6 32 -1 48 -20
19 -22 -37 -2 -40 -4 -55 -24 -15 -19 -15 -19 -16 13 0 19 5 32 13 33 10 0 10
2 0 6 -16 6 -17 35 -1 51 17 17 21 15 15 -9z m809 -94 c-3 -9 0 -15 8 -15 21
0 38 -27 31 -50 -3 -11 -13 -20 -21 -20 -17 0 -18 12 -2 28 9 9 7 13 -5 18
-24 9 -41 -5 -26 -22 14 -17 6 -29 -16 -21 -19 8 -20 41 -1 57 8 6 12 18 9 26
-3 9 1 14 12 14 11 0 15 -5 11 -15z m-2450 -10 c-3 -9 0 -15 8 -15 21 0 38
-27 31 -50 -3 -11 -13 -20 -21 -20 -12 0 -12 4 -4 20 9 18 8 20 -17 20 -21 0
-24 -3 -15 -12 18 -18 15 -38 -6 -38 -23 0 -28 52 -8 69 8 7 12 19 9 27 -3 9
1 14 12 14 11 0 15 -5 11 -15z m1664 -9 c0 -8 9 -16 21 -19 16 -4 20 -12 17
-33 -2 -15 -9 -29 -17 -32 -9 -3 -11 2 -6 17 5 18 2 21 -21 21 -23 0 -25 -2
-14 -15 17 -20 5 -32 -15 -15 -19 16 -19 39 1 47 8 3 13 12 10 20 -4 8 -3 19
0 24 7 12 24 1 24 -15z m1105 -36 c0 -32 -2 -35 -30 -35 -25 0 -30 4 -31 25
-2 33 14 52 40 48 17 -2 21 -10 21 -38z m-1608 -5 c1 -33 0 -35 -32 -35 -31 0
-33 2 -30 33 2 17 3 33 4 35 1 1 13 2 29 2 24 0 27 -4 29 -35z m823 1 c0 -26
-5 -35 -22 -40 -37 -9 -38 -8 -38 34 0 38 2 40 30 40 27 0 30 -3 30 -34z
m-570 9 c0 -8 -4 -15 -10 -15 -5 0 -10 7 -10 15 0 8 5 15 10 15 6 0 10 -7 10
-15z m-992 -12 c2 -9 -10 -13 -42 -13 -50 0 -63 16 -18 23 40 6 55 4 60 -10z
m840 -1 c2 -8 -10 -12 -37 -12 -49 0 -64 17 -19 23 43 5 51 3 56 -11z m822 3
c11 -13 6 -15 -34 -15 -50 0 -63 16 -18 23 15 2 30 5 33 6 4 0 12 -6 19 -14z
m485 -5 c0 -10 -12 -16 -32 -18 -28 -3 -33 0 -33 18 0 18 5 21 33 18 20 -2 32
-8 32 -18z m302 3 c3 -9 -8 -13 -36 -13 -36 0 -50 8 -36 21 9 10 69 3 72 -8z
m-652 -33 c-3 -5 -13 -10 -21 -10 -8 0 -14 5 -14 10 0 6 9 10 21 10 11 0 17
-4 14 -10z m106 -43 c-8 -8 -11 -5 -11 9 0 27 14 41 18 19 2 -9 -1 -22 -7 -28z
m-811 -33 c0 -20 5 -24 28 -23 l27 0 -24 10 c-48 19 -4 26 114 17 66 -5 217
-7 335 -6 l215 3 3 -22 3 -23 -263 -1 c-250 -1 -539 -14 -405 -17 55 -2 60 -4
109 -52 28 -27 59 -50 69 -50 11 0 19 -9 21 -22 3 -22 8 -23 96 -26 57 -2 92
1 92 7 0 7 9 7 26 1 14 -6 30 -8 35 -4 5 3 9 -9 9 -26 0 -17 -4 -29 -9 -25 -6
3 -15 -4 -21 -15 -9 -16 -8 -20 5 -20 9 0 13 4 10 10 -3 6 1 7 10 3 34 -12
-10 -23 -97 -23 -88 0 -111 11 -65 30 19 9 19 10 2 8 -11 -2 -26 1 -32 5 -8 5
-13 4 -13 -2 0 -6 6 -11 12 -11 7 0 2 -10 -11 -22 -16 -16 -25 -19 -28 -10 -3
6 -9 10 -13 7 -5 -3 -12 0 -16 6 -4 8 -3 9 4 5 13 -8 16 5 5 20 -5 5 0 1 9 -9
18 -19 32 -9 22 17 -3 9 -1 16 6 16 6 0 8 5 5 10 -4 7 -13 6 -27 -1 -15 -8
-19 -8 -14 0 4 6 2 11 -3 11 -6 0 -11 -4 -11 -10 0 -5 -5 -10 -11 -10 -5 0 -7
5 -4 10 9 15 -3 12 -24 -7 -22 -18 -66 -29 -56 -14 7 13 -36 10 -55 -3 -13 -9
-13 -9 -2 6 10 13 10 17 0 20 -10 4 -10 8 1 21 9 11 10 17 2 17 -6 0 -11 -4
-11 -10 0 -5 -5 -10 -11 -10 -6 0 -9 9 -6 20 4 16 0 20 -21 20 -26 -1 -26 -1
-8 -15 17 -13 17 -15 3 -15 -9 0 -20 7 -25 17 -8 13 -9 11 -9 -10 0 -14 2 -26
6 -25 24 3 51 -4 51 -12 0 -6 -17 -10 -38 -9 -21 2 -43 -1 -50 -5 -7 -4 -12
-2 -12 3 0 6 5 11 11 11 6 0 8 7 5 16 -3 8 -2 12 4 9 6 -3 10 -1 10 5 0 6 -24
36 -54 66 -40 39 -62 54 -83 54 -22 0 -25 2 -13 10 8 5 39 10 67 10 65 0 93
20 93 68 0 20 4 31 10 27 6 -3 10 -17 10 -31z m-694 -126 c35 -35 64 -67 64
-73 0 -5 -4 -4 -9 4 -5 7 -14 10 -20 7 -6 -4 -11 0 -11 9 0 8 -12 20 -26 25
-25 10 -48 5 -40 -8 2 -4 -2 -16 -10 -27 -13 -18 -14 -18 -14 6 -1 32 -23 62
-37 48 -6 -6 -19 -6 -37 1 -15 5 -31 8 -36 5 -5 -3 -11 1 -14 7 -5 10 -7 10
-12 0 -4 -9 -12 -5 -26 13 -19 25 -58 35 -58 15 0 -5 11 -10 24 -10 22 0 24
-5 28 -51 1 -28 1 -52 -2 -54 -3 -1 -22 0 -43 3 -44 5 -45 24 -1 33 27 6 28 7
4 9 -14 1 -32 3 -40 4 -8 2 -26 -1 -40 -5 l-25 -7 28 -1 c16 -1 27 -7 27 -15
0 -12 -24 -15 -121 -15 l-120 -1 3 47 3 48 43 3 c29 2 42 0 37 -7 -3 -6 -1
-11 4 -11 6 0 11 4 11 10 0 5 29 9 65 9 51 -1 65 -4 65 -16 0 -27 35 -9 38 19
3 27 4 27 90 31 48 1 100 4 115 5 23 2 42 -11 93 -60z m59 -8 c52 -53 76 -70
97 -70 25 0 27 3 30 48 3 45 4 47 37 50 20 2 38 -2 43 -10 8 -10 11 -10 15 0
6 15 65 16 81 0 7 -7 12 -22 12 -33 0 -41 -28 -52 -143 -59 l-108 -6 -74 68
c-40 37 -73 70 -74 75 -3 18 20 2 84 -63z m79 34 c20 -20 34 -39 31 -42 -6 -6
-75 58 -75 70 0 14 7 9 44 -28z m708 29 c2 -5 20 -23 41 -40 27 -24 33 -33 20
-33 -24 1 -104 80 -81 80 9 0 18 -3 20 -7z m1043 -3 c3 -5 1 -10 -4 -10 -6 0
-11 5 -11 10 0 6 2 10 4 10 3 0 8 -4 11 -10z m-2492 -26 c30 -40 15 -45 -23
-8 -28 28 -31 34 -15 34 11 0 28 -12 38 -26z m2157 18 c12 -2 15 -16 14 -64
-1 -80 12 -111 43 -105 13 2 26 0 29 -4 3 -5 -15 -9 -40 -9 -34 0 -46 4 -46
15 0 21 -34 37 -48 23 -9 -9 -12 -9 -12 0 0 7 5 12 10 12 18 0 11 27 -8 32
-15 4 -18 0 -17 -21 1 -14 -2 -37 -7 -51 l-8 -25 3 25 c3 30 -25 61 -44 49 -7
-4 -16 -6 -20 -3 -4 2 -7 -26 -8 -63 -1 -86 -11 -96 -12 -12 -2 99 -8 115 -48
111 -33 -4 -33 -3 -29 32 3 25 0 37 -11 41 -34 13 12 20 126 19 65 0 125 -1
133 -2z m-530 -27 c5 -3 11 -1 14 4 8 13 67 5 77 -10 14 -23 10 -55 -8 -71
-19 -17 -136 -20 -160 -5 -11 7 -10 68 2 87 5 9 59 5 75 -5z m258 1 c32 -19 6
-83 -40 -99 -10 -4 -18 -11 -18 -16 0 -6 9 -7 22 -2 12 4 38 4 57 0 43 -10 53
-3 17 11 -35 13 -25 31 12 21 22 -6 28 -14 30 -44 2 -25 -1 -37 -9 -37 -10 0
-10 -3 -1 -12 15 -15 15 -61 0 -76 -7 -7 -23 -12 -36 -12 -19 0 -22 4 -17 20
10 31 -4 100 -21 100 -8 0 -11 -6 -8 -15 4 -10 0 -15 -15 -15 -12 0 -21 -4
-22 -10 -4 -36 -2 -50 6 -50 5 0 10 8 10 17 0 9 6 18 13 20 8 3 12 -7 12 -31
0 -31 -3 -36 -23 -36 -30 0 -47 18 -47 50 0 14 5 31 12 38 9 9 9 12 0 12 -13
0 -16 40 -6 78 4 12 14 22 23 22 14 0 14 2 1 10 -26 17 -42 12 -35 -10 6 -18
2 -20 -35 -20 -34 0 -41 3 -36 16 3 9 6 29 6 45 0 26 4 29 30 29 17 0 30 -4
30 -10 0 -5 -9 -10 -20 -10 -11 0 -20 -4 -20 -10 0 -13 27 -13 35 0 4 6 15 8
26 5 11 -4 19 -2 19 4 0 6 -6 11 -12 11 -10 0 -10 2 0 8 15 10 42 9 60 -2z
m387 4 c3 -5 -2 -11 -12 -12 -10 0 -22 -2 -28 -3 -5 -2 -14 -3 -19 -4 -6 0 -5
-6 2 -13 8 -8 15 -8 26 2 11 8 30 10 62 5 32 -4 44 -3 39 4 -3 6 -17 11 -31
11 -13 0 -24 5 -24 10 0 15 56 12 69 -4 7 -8 11 -30 9 -48 -3 -32 -4 -33 -50
-33 -25 0 -50 -4 -54 -8 -4 -4 -20 -7 -36 -7 -16 0 -27 -4 -24 -9 4 -5 20 -7
37 -4 50 8 76 -4 88 -39 13 -36 9 -45 -9 -23 -7 8 -23 15 -37 15 -13 0 -22 4
-19 9 4 5 0 12 -6 14 -8 3 -6 6 5 6 9 1 17 -3 17 -7 0 -4 10 -8 23 -9 18 -1
16 2 -11 15 -27 13 -37 14 -52 4 -17 -10 -23 -9 -40 8 -11 11 -17 20 -12 20 4
0 6 18 4 40 -2 22 -2 47 2 55 6 17 71 21 81 5z m265 -46 c0 -44 0 -44 -35 -44
-32 0 -40 7 -36 33 0 4 -3 7 -9 7 -5 0 -10 -9 -10 -20 0 -16 -7 -20 -35 -20
-35 0 -35 0 -35 45 0 45 0 45 36 45 21 0 33 -4 29 -10 -3 -5 -15 -10 -26 -10
-10 0 -19 -5 -19 -11 0 -6 7 -8 16 -5 9 3 27 6 41 6 17 0 23 4 20 14 -8 20 -1
23 33 18 28 -4 30 -7 30 -48z m-1470 36 c0 -5 7 -10 15 -10 8 0 15 5 15 10 0
6 14 10 30 10 29 0 30 -2 30 -45 l0 -45 -37 0 c-34 1 -36 2 -20 14 16 13 13
14 -28 18 -25 2 -45 0 -45 -4 0 -5 9 -8 20 -8 11 0 20 -5 20 -11 0 -6 -14 -9
-32 -7 -28 3 -34 7 -36 31 -2 16 -1 35 2 43 6 16 66 20 66 4z m145 -54 c11
-53 14 -176 4 -176 -6 0 -9 8 -8 18 6 62 -3 152 -16 166 -19 19 -19 27 0 20 8
-4 17 -16 20 -28z m-808 -3 c-9 -9 -20 -13 -24 -9 -4 4 1 14 11 22 25 18 35 8
13 -13z m-389 -12 c-3 -21 -1 -28 9 -24 17 7 17 -13 1 -21 -7 -3 -4 -4 8 -1
38 10 284 14 284 6 0 -5 -9 -11 -20 -14 -13 -3 -18 -1 -13 6 4 7 -1 6 -10 -2
-9 -7 -23 -11 -31 -8 -7 3 -19 0 -25 -6 -6 -6 -11 -7 -11 -1 0 5 -4 3 -9 -5
-8 -12 -12 -13 -25 -1 -14 11 -16 10 -10 -4 5 -12 2 -15 -12 -9 -9 3 -15 2
-12 -3 3 -5 0 -15 -8 -22 -13 -11 -18 -8 -16 9 1 7 -55 -11 -76 -24 -7 -5 -9
-13 -6 -19 5 -7 2 -8 -6 -3 -7 4 -16 2 -22 -6 -8 -11 -9 -10 -5 3 7 19 -11 28
-56 28 -24 0 -28 3 -19 12 7 7 12 16 12 22 0 5 -8 -1 -19 -12 -13 -16 -30 -22
-59 -22 -40 0 -41 1 -31 23 7 16 20 23 42 25 18 1 44 5 60 8 19 4 27 2 27 -8
0 -11 2 -11 9 0 4 7 6 23 4 35 -3 13 4 31 17 45 27 29 33 28 28 -7z m509 -26
c1 -27 -2 -54 -8 -61 -6 -7 -8 -17 -6 -22 3 -4 1 -14 -4 -22 -8 -12 -12 -12
-16 -2 -2 6 -17 11 -31 11 -17 -1 -21 -3 -9 -6 18 -5 24 -23 7 -23 -6 0 -26 7
-45 14 -39 17 -48 41 -12 32 12 -3 16 -3 10 0 -8 3 -13 25 -13 54 0 52 8 60
60 60 16 0 32 5 35 11 14 22 30 0 32 -46z m68 45 c3 -6 -1 -7 -9 -4 -18 7 -21
14 -7 14 6 0 13 -4 16 -10z m408 -47 c-7 -2 -21 -2 -30 0 -10 3 -4 5 12 5 17
0 24 -2 18 -5z m149 -58 c8 -14 2 -12 -21 9 -17 17 -31 34 -31 39 0 14 39 -23
52 -48z m-157 25 c-3 -5 -12 -10 -20 -10 -8 0 -17 5 -20 10 -4 6 5 10 20 10
15 0 24 -4 20 -10z m30 0 c3 -5 1 -10 -4 -10 -6 0 -11 5 -11 10 0 6 2 10 4 10
3 0 8 -4 11 -10z m-125 -16 c0 -2 -21 -4 -47 -3 -37 1 -42 3 -23 8 24 7 70 3
70 -5z m1197 -6 c-3 -8 -6 -5 -6 6 -1 11 2 17 5 13 3 -3 4 -12 1 -19z m-1162
-16 c-3 -3 -11 0 -18 7 -9 10 -8 11 6 5 10 -3 15 -9 12 -12z m505 -2 c0 -5 -7
-10 -16 -10 -8 0 -12 5 -9 10 3 6 10 10 16 10 5 0 9 -4 9 -10z m875 -40 c0
-42 -2 -45 -28 -48 -20 -2 -34 4 -49 20 -18 21 -20 21 -16 3 2 -16 -3 -21 -29
-23 -33 -3 -33 -3 -33 42 0 26 5 46 13 49 6 3 41 4 77 4 l65 -2 0 -45z m-1338
22 c-22 -24 -21 -29 3 -35 15 -4 20 0 20 14 0 15 7 19 31 19 29 0 30 -1 27
-42 -3 -41 -5 -43 -37 -46 -21 -2 -31 0 -26 7 3 6 15 11 26 11 14 0 19 7 19
25 0 14 -4 25 -9 25 -5 0 -7 -8 -4 -18 4 -16 -2 -19 -41 -19 -38 0 -46 3 -46
19 0 11 -4 17 -9 14 -16 -10 0 -46 20 -46 11 0 19 -4 19 -10 0 -13 -57 -13
-65 0 -4 7 -12 7 -24 0 -10 -5 -22 -6 -25 -2 -4 4 -15 7 -23 7 -9 0 -18 6 -21
13 -3 10 8 12 45 9 44 -4 49 -2 49 15 -1 11 6 24 14 28 8 4 24 12 35 18 31 17
40 14 22 -6z m-1331 -86 c2 -36 0 -66 -4 -66 -4 0 -9 28 -10 62 -2 34 -8 71
-14 82 -10 19 -9 20 7 5 11 -11 18 -38 21 -83z m999 84 c4 -6 -6 -10 -22 -9
-25 0 -26 1 -8 9 11 5 21 9 22 9 1 1 5 -3 8 -9z m250 -10 c0 -11 -10 -14 -40
-12 -44 4 -50 6 -41 20 9 15 81 8 81 -8z m611 -25 c2 -19 -1 -35 -6 -35 -6 0
-10 19 -10 42 0 49 12 43 16 -7z m-1432 14 c-3 -5 -10 -7 -15 -3 -5 3 -7 10
-3 15 3 5 10 7 15 3 5 -3 7 -10 3 -15z m1098 -11 c-9 -9 -12 -7 -12 12 0 19 3
21 12 12 9 -9 9 -15 0 -24z m110 0 c-9 -9 -12 -7 -12 12 0 19 3 21 12 12 9 -9
9 -15 0 -24z m58 12 c0 -11 -4 -20 -10 -20 -5 0 -10 9 -10 20 0 11 5 20 10 20
6 0 10 -9 10 -20z m260 12 c0 -4 -17 -25 -38 -45 l-38 -37 5 37 c3 21 6 30 9
21 5 -25 17 -22 30 7 11 23 32 35 32 17z m-1620 -32 c5 -16 1 -31 -8 -42 -17
-20 -3 -25 16 -6 17 17 27 1 11 -19 -13 -15 -12 -16 6 -9 11 5 29 9 39 11 11
1 22 7 24 13 5 17 32 15 54 -5 22 -20 25 1 3 23 -10 10 -12 22 -6 37 7 18 16
22 47 22 37 0 39 -2 42 -32 3 -26 0 -33 -15 -33 -17 -1 -17 -1 0 -14 20 -15
23 -61 5 -72 -7 -5 -43 -9 -80 -10 -69 -3 -88 8 -45 26 17 7 9 9 -33 8 -30 -1
-43 -3 -27 -5 15 -2 27 -10 27 -17 0 -9 -40 -12 -162 -11 l-163 0 -3 43 c-2
33 0 42 12 42 12 0 16 -10 16 -35 0 -32 3 -35 29 -35 23 0 30 5 35 26 4 15 2
32 -3 37 -15 15 -14 27 4 27 9 0 12 6 8 16 -10 28 22 41 94 40 63 -1 68 -3 73
-26z m1144 15 c-4 -8 -10 -15 -15 -15 -5 0 -9 7 -9 15 0 8 7 15 15 15 9 0 12
-6 9 -15z m276 6 c0 -6 -4 -13 -10 -16 -5 -3 -10 1 -10 9 0 9 5 16 10 16 6 0
10 -4 10 -9z m54 -6 c-4 -8 -10 -12 -15 -9 -14 8 -10 24 6 24 9 0 12 -6 9 -15z
m-1362 -17 c-7 -7 -12 -8 -12 -2 0 14 12 26 19 19 2 -3 -1 -11 -7 -17z m1676
-70 l-3 -93 -69 -3 c-53 -2 -72 1 -87 14 -22 19 -25 54 -7 72 9 9 9 15 0 24
-7 7 -12 21 -12 33 0 36 20 45 102 45 l79 0 -3 -92z m-1499 41 c-18 -11 -39
-11 -39 0 0 11 31 20 44 13 4 -2 2 -8 -5 -13z m266 11 c8 -14 -15 -23 -53 -22
-39 2 -47 6 -38 20 7 12 84 14 91 2z m115 6 c0 -3 -4 -8 -10 -11 -5 -3 -10 -1
-10 4 0 6 5 11 10 11 6 0 10 -2 10 -4z m470 -6 c0 -5 -4 -10 -10 -10 -5 0 -10
5 -10 10 0 6 5 10 10 10 6 0 10 -4 10 -10z m110 0 c0 -5 -4 -10 -10 -10 -5 0
-10 5 -10 10 0 6 5 10 10 10 6 0 10 -4 10 -10z m110 0 c0 -5 -4 -10 -10 -10
-5 0 -10 5 -10 10 0 6 5 10 10 10 6 0 10 -4 10 -10z m110 0 c0 -5 -4 -10 -10
-10 -5 0 -10 5 -10 10 0 6 5 10 10 10 6 0 10 -4 10 -10z m419 -64 c-9 -8 -10
-7 -5 7 3 10 7 24 7 30 1 7 3 4 6 -7 3 -10 -1 -23 -8 -30z m101 34 c0 -5 -2
-10 -4 -10 -3 0 -8 5 -11 10 -3 6 -1 10 4 10 6 0 11 -4 11 -10z m90 0 c0 -5
-7 -7 -15 -4 -8 4 -15 1 -15 -5 0 -6 7 -11 16 -11 8 0 12 -5 9 -11 -5 -7 -14
-4 -26 7 -26 23 -24 34 6 34 14 0 25 -4 25 -10z m84 -7 c-2 -30 -5 -34 -14
-28 -8 5 -7 12 2 22 11 14 10 15 -10 9 -12 -4 -22 -3 -22 2 0 5 10 9 23 8 12
0 22 -7 21 -13z m356 -2 c0 -25 -18 -37 -33 -22 -8 8 -7 11 6 11 10 0 14 5 11
15 -4 8 -1 15 5 15 6 0 11 -9 11 -19z m-2970 -6 c17 -9 30 -22 30 -31 0 -13
-5 -12 -26 5 -19 15 -41 21 -75 21 -40 0 -53 -5 -83 -34 -30 -27 -36 -40 -36
-73 0 -26 8 -50 21 -67 11 -14 16 -26 10 -26 -16 0 -41 44 -47 81 -15 92 117
170 206 124z m2786 -11 c-4 -9 -9 -15 -11 -12 -3 3 -3 13 1 22 4 9 9 15 11 12
3 -3 3 -13 -1 -22z m-1789 -8 c-5 -14 -75 -18 -83 -4 -10 16 12 24 51 20 21
-3 34 -9 32 -16z m383 4 c0 -14 -32 -21 -66 -14 -33 6 -45 19 -23 26 18 6 89
-4 89 -12z m1320 5 c0 -8 -4 -15 -9 -15 -13 0 -22 16 -14 24 11 11 23 6 23 -9z
m-1950 -5 c0 -5 -6 -10 -14 -10 -8 0 -23 -3 -33 -6 -16 -5 -16 -4 1 10 22 18
46 21 46 6z m1258 -58 c2 -51 0 -62 -13 -62 -12 0 -15 13 -15 66 0 48 3 65 13
62 7 -3 13 -28 15 -66z m862 58 c0 -5 -2 -10 -4 -10 -3 0 -8 5 -11 10 -3 6 -1
10 4 10 6 0 11 -4 11 -10z m-2624 -27 c-7 -7 -26 7 -26 19 0 6 6 6 15 -2 9 -7
13 -15 11 -17z m2051 11 c-3 -3 -12 -4 -19 -1 -8 3 -5 6 6 6 11 1 17 -2 13 -5z
m243 -8 c0 -3 -4 -8 -10 -11 -5 -3 -10 -1 -10 4 0 6 5 11 10 11 6 0 10 -2 10
-4z m85 -6 c-3 -5 -11 -10 -16 -10 -6 0 -7 5 -4 10 3 6 11 10 16 10 6 0 7 -4
4 -10z m355 0 c0 -5 -5 -10 -11 -10 -5 0 -7 5 -4 10 3 6 8 10 11 10 2 0 4 -4
4 -10z m-2914 -67 c-9 -26 -28 -61 -42 -78 l-25 -30 24 45 c14 25 30 62 37 83
7 21 14 36 17 33 3 -2 -2 -26 -11 -53z m944 40 c12 -11 -29 -23 -60 -17 -40 7
-44 9 -36 22 5 9 85 5 96 -5z m100 7 c0 -5 -5 -10 -11 -10 -5 0 -7 5 -4 10 3
6 8 10 11 10 2 0 4 -4 4 -10z m255 -5 c0 -6 -16 -11 -35 -11 -39 -2 -53 3 -45
16 7 12 80 7 80 -5z m-620 -5 c-3 -5 -15 -10 -26 -10 -10 0 -19 5 -19 10 0 6
12 10 26 10 14 0 23 -4 19 -10z m1305 -15 c7 -9 8 -15 2 -15 -5 0 -12 7 -16
15 -3 8 -4 15 -2 15 2 0 9 -7 16 -15z m978 -270 c-1 -137 1 -255 4 -261 4 -6
4 -24 -1 -40 l-7 -29 -310 -3 c-170 -1 -318 0 -329 2 -13 4 -21 14 -22 32 -1
19 1 23 8 13 5 -8 9 96 9 259 0 216 -3 272 -12 266 -10 -5 -10 -4 -2 5 8 9 93
12 328 11 250 0 316 2 316 12 0 9 3 8 11 -2 6 -9 9 -107 7 -265z m-2407 255
c20 -11 27 -64 9 -75 -6 -4 -6 -12 2 -24 15 -25 2 -68 -23 -76 -32 -10 -48 12
-18 24 19 8 12 10 -36 9 -33 0 -50 -3 -37 -5 32 -6 27 -25 -5 -21 -22 2 -29 9
-31 31 -2 16 2 35 9 43 9 11 9 14 0 14 -8 0 -11 14 -9 37 2 28 8 39 23 42 17
3 17 1 6 -12 -11 -14 -8 -15 26 -10 21 3 42 12 46 20 10 16 13 16 38 3z m655
1 c-3 -5 -35 -8 -71 -8 -36 0 -65 3 -65 8 0 5 32 9 71 9 38 0 68 -4 65 -9z
m231 1 c14 -9 15 -142 1 -159 -12 -15 -58 -17 -58 -3 0 5 8 14 18 20 16 10 15
10 -3 9 -41 -3 -55 1 -55 16 0 19 60 21 78 3 7 -7 12 -8 12 -2 0 6 -11 16 -24
22 -22 10 -23 15 -16 46 4 20 6 36 3 36 -2 0 -1 5 2 10 7 12 25 13 42 2z
m-115 -32 c-3 -19 0 -30 8 -30 7 0 10 6 7 14 -3 8 1 20 8 26 12 10 16 9 22 -6
4 -11 2 -19 -6 -22 -9 -3 -9 -7 -1 -18 9 -10 6 -15 -14 -20 -33 -8 -38 -54 -7
-54 11 0 22 -4 26 -9 8 -15 -13 -24 -40 -17 -29 7 -43 49 -25 71 10 12 10 18
0 30 -15 18 -5 65 13 65 9 0 12 -10 9 -30z m-642 5 c0 -17 -45 -21 -55 -6 -4
8 4 12 48 20 4 0 7 -6 7 -14z m250 0 c0 -15 -83 -12 -87 2 -3 9 9 12 41 10 26
-1 46 -6 46 -12z m1266 -1 c-3 -9 -6 -21 -6 -27 0 -8 -3 -8 -10 -1 -12 12 -3
44 12 44 6 0 7 -7 4 -16z m-946 -28 c0 -39 -19 -59 -46 -49 -17 6 -16 8 6 14
24 7 24 7 4 14 -15 5 -21 14 -20 31 1 19 6 24 29 24 24 0 27 -4 27 -34z m755
24 c3 -5 2 -10 -4 -10 -5 0 -13 5 -16 10 -3 6 -2 10 4 10 5 0 13 -4 16 -10z
m-869 -20 c31 12 34 12 34 1 0 -5 -14 -12 -31 -16 -34 -8 -29 -20 11 -28 17
-3 13 -5 -10 -4 -33 2 -35 4 -37 37 -1 19 1 27 3 18 4 -14 10 -15 30 -8z m390
-15 c7 -37 1 -65 -14 -65 -14 0 -12 54 2 62 7 5 5 8 -6 8 -11 0 -15 5 -12 15
10 25 23 17 30 -20z m54 20 c0 -8 -7 -15 -15 -15 -8 0 -15 7 -15 15 0 8 7 15
15 15 8 0 15 -7 15 -15z m55 5 c3 -6 -1 -13 -10 -16 -19 -8 -30 0 -20 15 8 14
22 14 30 1z m52 -10 c-3 -11 -2 -20 3 -20 11 0 4 -50 -9 -63 -6 -6 -11 -9 -12
-6 0 2 -2 28 -4 57 -2 41 0 52 12 52 10 0 14 -7 10 -20z m56 5 c0 -6 -7 -11
-16 -13 -12 -3 -15 1 -11 13 7 17 25 17 27 0z m57 0 c0 -8 -7 -15 -15 -15 -16
0 -20 12 -8 23 11 12 23 8 23 -8z m54 -9 c-1 -9 2 -16 6 -16 12 0 -4 -53 -16
-57 -7 -2 -12 17 -13 48 -1 37 2 50 11 46 7 -2 12 -12 12 -21z m60 11 c16 -15
7 -88 -10 -94 -14 -5 -24 56 -11 64 5 3 4 9 -3 13 -7 4 -9 13 -6 19 9 14 15
14 30 -2z m139 6 c-7 -2 -19 -2 -25 0 -7 3 -2 5 12 5 14 0 19 -2 13 -5z
m-1223 -19 c0 -5 -29 -10 -65 -12 -56 -3 -76 4 -61 19 8 8 126 1 126 -7z
m1180 -3 c0 -5 -10 -11 -22 -13 -17 -2 -24 -11 -26 -30 -3 -25 0 -28 24 -28
20 0 25 -3 17 -11 -6 -6 -21 -9 -34 -7 -19 2 -25 10 -27 36 -2 19 -1 40 2 48
6 15 66 20 66 5z m137 -53 c-2 -13 -4 -3 -4 22 0 25 2 35 4 23 2 -13 2 -33 0
-45z m-401 -14 c-10 -26 -26 -14 -26 20 0 40 23 55 28 19 2 -14 1 -31 -2 -39z
m350 39 c4 -14 2 -33 -3 -42 -11 -18 -63 -28 -63 -12 0 6 4 11 10 11 5 0 7 6
4 14 -4 11 -12 13 -28 6 -29 -10 -59 5 -37 19 8 5 25 7 39 5 19 -4 23 -1 19
11 -5 11 1 15 23 15 24 0 31 -5 36 -27z m-518 -15 c-4 -39 -20 -44 -23 -8 -3
29 2 40 16 40 6 0 9 -15 7 -32z m62 2 c0 -18 -5 -30 -13 -30 -9 0 -14 12 -15
30 0 20 4 30 14 30 9 0 14 -11 14 -30z m168 3 c-4 -38 -34 -43 -32 -6 3 36 1
33 20 33 11 0 14 -8 12 -27z m403 14 c-7 -7 -14 -8 -21 -1 -6 6 -2 10 12 11
16 2 18 -1 9 -10z m-1571 0 c0 -2 -12 -14 -27 -28 -20 -18 -24 -19 -13 -4 18
24 40 42 40 32z m837 -34 c-3 -10 -5 -4 -5 12 0 17 2 24 5 18 2 -7 2 -21 0
-30z m713 -10 c0 -19 -3 -24 -10 -17 -6 6 -8 18 -4 27 9 24 14 21 14 -10z
m-372 -30 c-16 -2 -40 -2 -55 0 -16 2 -3 4 27 4 30 0 43 -2 28 -4z m390 -20
c-9 -10 -18 -29 -21 -43 l-4 -25 -2 25 c-1 26 27 76 37 66 3 -3 -2 -14 -10
-23z m-951 -15 c13 -12 23 -26 23 -31 0 -5 11 -18 25 -29 28 -22 33 -59 11
-78 -8 -6 -13 -17 -11 -23 3 -7 -16 -22 -40 -34 -60 -30 -67 -28 -26 6 19 16
36 37 37 47 1 11 5 30 8 44 6 25 6 25 -7 -2 -35 -73 -90 -89 -146 -42 -65 54
-24 164 62 164 28 0 48 -7 64 -22z m67 -3 c12 -17 13 -25 4 -25 -9 0 -9 -3 0
-12 18 -18 15 -33 -3 -18 -9 7 -13 20 -10 28 3 8 -2 23 -11 33 -10 11 -12 19
-7 19 6 0 18 -11 27 -25z m52 -17 l29 -33 -32 29 c-31 28 -38 36 -30 36 2 0
16 -15 33 -32z m229 0 c6 -26 9 -29 12 -13 6 24 22 45 34 45 5 0 9 -20 9 -45
0 -25 -4 -45 -10 -45 -5 0 -10 8 -10 18 -1 16 -1 16 -14 0 -16 -22 -26 -23
-26 -3 0 8 -4 15 -10 15 -5 0 -7 -7 -4 -15 4 -8 1 -15 -5 -15 -6 0 -11 19 -11
45 0 54 23 63 35 13z m132 6 c-3 -3 -12 -4 -19 -1 -8 3 -5 6 6 6 11 1 17 -2
13 -5z m118 -4 c-3 -5 -11 -10 -16 -10 -6 0 -7 5 -4 10 3 6 11 10 16 10 6 0 7
-4 4 -10z m40 0 c-3 -5 -10 -10 -16 -10 -5 0 -9 5 -9 10 0 6 7 10 16 10 8 0
12 -4 9 -10z m235 0 c13 -8 13 -10 -1 -15 -22 -8 -62 0 -67 13 -4 14 46 16 68
2z m888 -23 c3 -20 -1 -27 -15 -28 -17 -1 -17 -2 0 -6 25 -6 21 -25 -5 -21
-23 3 -30 30 -16 67 10 29 32 22 36 -12z m-2648 13 c0 -5 -14 -10 -31 -10 -17
0 -28 4 -24 10 3 6 17 10 31 10 13 0 24 -4 24 -10z m250 -6 c0 -19 -14 -25
-49 -18 -46 10 -40 33 9 32 26 0 40 -5 40 -14z m92 -6 c-19 -19 -14 -26 13
-20 22 4 25 1 25 -22 0 -15 -6 -26 -14 -26 -7 0 -19 -6 -25 -14 -23 -27 12
-38 106 -32 48 3 104 6 123 6 31 2 32 3 10 9 -14 4 -25 12 -24 19 1 7 2 23 3
37 1 33 21 32 21 -1 0 -14 4 -23 10 -19 6 3 10 19 10 34 0 21 -5 28 -16 27 -9
0 -19 5 -22 12 -3 10 4 13 24 10 l29 -3 0 -75 0 -75 -135 4 c-143 3 -172 12
-152 47 6 11 6 27 0 46 -7 21 -7 33 2 43 7 9 15 13 18 10 3 -3 0 -11 -6 -17z
m838 -43 c0 -35 -16 -47 -26 -20 -4 8 -10 12 -15 9 -5 -3 -9 0 -9 5 0 6 7 11
15 11 9 0 12 6 9 15 -4 9 0 15 10 15 12 0 16 -10 16 -35z m190 -11 c0 -27 -4
-34 -19 -34 -14 0 -19 7 -19 28 0 30 15 55 29 46 5 -3 9 -21 9 -40z m485 36
c-3 -5 -11 -10 -16 -10 -6 0 -7 5 -4 10 3 6 11 10 16 10 6 0 7 -4 4 -10z
m-448 -22 c-3 -8 -6 -5 -6 6 -1 11 2 17 5 13 3 -3 4 -12 1 -19z m118 12 c3 -5
-1 -10 -10 -10 -9 0 -13 5 -10 10 3 6 8 10 10 10 2 0 7 -4 10 -10z m245 -7
c10 -10 -27 -23 -50 -17 -31 7 -34 10 -25 24 6 10 62 5 75 -7z m17 -15 c-3 -7
-5 -2 -5 12 0 14 2 19 5 13 2 -7 2 -19 0 -25z m-1538 -4 c-11 -13 -62 -14 -75
-1 -14 14 7 22 46 19 33 -3 39 -7 29 -18z m1241 22 c0 -11 -19 -15 -25 -6 -3
5 1 10 9 10 9 0 16 -2 16 -4z m-1490 -15 c0 -5 -13 -9 -30 -9 -16 1 -30 5 -30
10 0 4 14 8 30 8 17 0 30 -4 30 -9z m1834 -9 c-7 -4 -14 -16 -17 -27 -4 -15
-5 -14 -6 8 -1 20 4 27 17 27 11 0 13 -3 6 -8z m-2034 -13 c-11 -8 -12 -12 -2
-16 19 -8 14 -23 -8 -23 -30 0 -24 -18 8 -23 25 -4 24 -4 -6 -6 -37 -1 -48 15
-38 54 5 19 13 25 34 25 22 0 24 -2 12 -11z m95 -29 c0 -32 -3 -35 -30 -37
-21 -1 -23 0 -7 4 26 5 24 30 -2 25 -9 -2 -16 2 -16 9 0 7 9 9 26 5 19 -5 25
-3 22 6 -3 7 -10 13 -15 13 -6 0 -15 4 -20 8 -4 5 3 7 17 5 21 -2 25 -8 25
-38z m1830 20 c4 -6 13 -9 20 -8 8 2 15 -1 17 -7 2 -5 -14 -11 -34 -13 -27 -2
-38 1 -38 11 0 25 23 36 35 17z m912 -1 c-14 -8 -22 -8 -30 0 -8 8 -3 11 19
11 25 -1 27 -2 11 -11z m-2257 -9 c0 -5 -4 -10 -10 -10 -5 0 -10 5 -10 10 0 6
5 10 10 10 6 0 10 -4 10 -10z m1140 0 c0 -5 -4 -10 -10 -10 -5 0 -10 5 -10 10
0 6 5 10 10 10 6 0 10 -4 10 -10z m-1301 -6 c40 -8 30 -24 -15 -24 -24 0 -34
5 -34 15 0 17 4 18 49 9z m1264 -1 c-7 -2 -19 -2 -25 0 -7 3 -2 5 12 5 14 0
19 -2 13 -5z m-1486 -10 c-10 -9 -57 -10 -57 -1 0 4 14 8 32 8 17 0 28 -3 25
-7z m1394 -5 c5 -82 -2 -252 -12 -264 -6 -7 -9 -28 -7 -44 4 -28 2 -31 -21
-28 -23 3 -26 7 -23 36 3 24 0 32 -12 32 -11 0 -16 -9 -16 -30 0 -16 -4 -30
-9 -30 -4 0 -7 11 -6 25 3 22 0 25 -30 25 -18 0 -41 3 -50 6 -14 6 -16 1 -14
-29 4 -47 -13 -67 -39 -44 -10 9 -22 14 -26 10 -7 -7 -1 29 10 65 2 9 34 12
113 12 62 0 113 4 116 10 4 6 -1 7 -12 4 -17 -5 -17 -5 0 9 14 11 17 30 17 95
0 73 -2 81 -17 76 -17 -5 -17 -5 0 9 9 8 17 19 17 26 0 6 6 11 13 12 10 0 10
2 0 6 -15 6 -17 23 -3 23 6 0 10 -6 11 -12z m459 2 c0 -5 -5 -10 -11 -10 -5 0
-7 5 -4 10 3 6 8 10 11 10 2 0 4 -4 4 -10z m-407 -7 c-7 -2 -19 -2 -25 0 -7 3
-2 5 12 5 14 0 19 -2 13 -5z m-668 -18 c18 -14 18 -16 3 -32 -16 -15 -19 -15
-43 1 -21 14 -24 20 -14 32 14 18 29 17 54 -1z m995 -12 c11 -10 -27 -23 -50
-17 -31 7 -34 10 -26 23 6 9 63 5 76 -6z m-280 -3 c0 -5 -7 -10 -15 -10 -8 0
-15 5 -15 10 0 6 7 10 15 10 8 0 15 -4 15 -10z m40 6 c0 -11 -19 -15 -25 -6
-3 5 1 10 9 10 9 0 16 -2 16 -4z m293 -16 c-3 -11 -7 -20 -9 -20 -2 0 -4 9 -4
20 0 11 4 20 9 20 5 0 7 -9 4 -20z m-1823 0 c0 -5 -14 -10 -31 -10 -17 0 -28
4 -24 10 3 6 17 10 31 10 13 0 24 -4 24 -10z m234 4 c25 -10 8 -24 -30 -24
-24 0 -34 5 -34 15 0 15 35 20 64 9z m478 -36 c-7 -7 -12 -8 -12 -2 0 14 12
26 19 19 2 -3 -1 -11 -7 -17z m-639 -5 c-7 -2 -19 -2 -25 0 -7 3 -2 5 12 5 14
0 19 -2 13 -5z m70 0 c-7 -2 -21 -2 -30 0 -10 3 -4 5 12 5 17 0 24 -2 18 -5z
m723 -36 c-3 -11 -1 -28 4 -37 7 -13 4 -22 -9 -34 -11 -10 -21 -14 -24 -9 -7
12 4 73 14 73 5 0 4 12 -2 26 -9 24 -8 26 6 14 10 -8 14 -22 11 -33z m659 33
c3 -5 -1 -10 -10 -10 -9 0 -13 5 -10 10 3 6 8 10 10 10 2 0 7 -4 10 -10z m245
-7 c11 -10 -27 -23 -50 -17 -31 7 -34 10 -26 23 6 9 63 5 76 -6z m75 -2 c-3
-6 -11 -11 -17 -11 -6 0 -6 6 2 15 14 17 26 13 15 -4z m-1195 -27 c0 -8 4 -14
10 -14 5 0 7 8 4 18 -5 16 -5 16 5 0 9 -13 6 -29 -12 -70 -27 -60 -46 -79 -98
-96 -38 -13 -141 -13 -133 0 3 4 29 8 57 8 56 0 85 17 107 58 10 20 9 26 -6
36 -18 13 -13 53 5 42 5 -3 14 8 20 25 9 27 13 30 26 19 8 -7 15 -19 15 -26z
m120 32 c0 -2 -9 -6 -20 -9 -11 -3 -20 -1 -20 4 0 5 9 9 20 9 11 0 20 -2 20
-4z m210 -17 c0 -15 -4 -19 -16 -15 -9 3 -20 6 -25 6 -5 0 -9 7 -9 15 0 9 9
15 25 15 19 0 25 -5 25 -21z m503 14 c-7 -2 -21 -2 -30 0 -10 3 -4 5 12 5 17
0 24 -2 18 -5z m-1733 -45 c0 -10 -4 -18 -10 -18 -5 0 -10 15 -10 33 0 24 3
28 10 17 5 -8 10 -23 10 -32z m110 18 c0 -14 -4 -28 -10 -31 -6 -4 -10 7 -10
24 0 17 5 31 10 31 6 0 10 -11 10 -24z m947 2 c-3 -8 -6 -5 -6 6 -1 11 2 17 5
13 3 -3 4 -12 1 -19z m983 -29 c0 -27 -3 -48 -8 -45 -7 4 -4 96 4 96 2 0 4
-23 4 -51z m-1420 31 c0 -5 -5 -10 -11 -10 -5 0 -7 5 -4 10 3 6 8 10 11 10 2
0 4 -4 4 -10z m396 -7 c-3 -10 -1 -25 4 -33 5 -9 5 -19 -2 -27 -14 -18 -38
-16 -38 2 0 8 5 14 11 13 6 -2 14 3 16 10 3 7 1 11 -4 10 -14 -5 -14 11 -1 27
17 19 20 18 14 -2z m1064 0 c0 -5 -5 -15 -10 -23 -8 -12 -10 -11 -10 8 0 12 5
22 10 22 6 0 10 -3 10 -7z m-1578 -50 c29 -30 58 -91 58 -120 0 -40 -23 -95
-52 -129 -37 -42 -69 -60 -125 -67 l-42 -5 54 50 c32 29 59 64 66 86 7 20 14
32 16 25 2 -6 -3 -27 -11 -47 -8 -20 -10 -34 -5 -30 17 10 39 69 40 106 1 18
3 25 6 16 2 -10 9 -18 14 -18 24 0 -31 134 -62 151 -10 5 -19 14 -19 20 0 14
30 -4 62 -38z m704 22 c-5 -19 -3 -23 9 -19 8 4 15 1 15 -5 0 -13 -35 -33 -44
-24 -8 8 -8 58 1 66 15 15 25 6 19 -18z m-876 11 c0 -3 -4 -8 -10 -11 -5 -3
-10 -1 -10 4 0 6 5 11 10 11 6 0 10 -2 10 -4z m1410 -6 c0 -5 -4 -10 -10 -10
-5 0 -10 5 -10 10 0 6 5 10 10 10 6 0 10 -4 10 -10z m35 0 c-3 -5 -10 -10 -16
-10 -5 0 -9 5 -9 10 0 6 7 10 16 10 8 0 12 -4 9 -10z m243 -8 c3 -10 -6 -12
-34 -10 -20 2 -39 9 -42 16 -3 10 6 12 34 10 20 -2 39 -9 42 -16z m-1436 -14
c-7 -7 -12 -8 -12 -2 0 14 12 26 19 19 2 -3 -1 -11 -7 -17z m-324 -5 c2 -7 -1
-13 -8 -13 -6 0 -9 4 -5 9 3 5 -3 12 -12 15 -15 4 -15 5 1 3 11 -1 21 -8 24
-14z m1834 -25 c-13 -26 -17 -29 -20 -15 -2 10 2 24 8 32 22 26 29 16 12 -17z
m-1877 2 c3 -5 1 -10 -4 -10 -6 0 -11 5 -11 10 0 6 2 10 4 10 3 0 8 -4 11 -10z
m76 -7 c0 -11 3 -13 6 -5 15 38 85 -12 104 -76 22 -73 -28 -142 -103 -142 -27
0 -38 -4 -38 -15 0 -18 5 -19 30 -3 23 15 31 9 34 -26 2 -18 -1 -26 -13 -26
-21 0 -111 32 -111 40 0 3 9 16 19 27 11 12 18 23 15 25 -2 3 12 19 32 37 48
44 35 53 -17 12 -22 -18 -43 -30 -46 -27 -3 3 -9 23 -13 45 -9 50 7 90 51 124
40 31 49 33 50 10z m1710 7 c11 0 19 -7 19 -16 0 -13 -7 -15 -36 -11 -20 3
-39 8 -41 11 -10 10 10 27 24 22 8 -3 23 -6 34 -6z m-268 -7 c-7 -2 -19 -2
-25 0 -7 3 -2 5 12 5 14 0 19 -2 13 -5z m47 3 c0 -11 -19 -15 -25 -6 -3 5 1
10 9 10 9 0 16 -2 16 -4z m-1152 -31 c14 -29 -2 -34 -18 -6 -12 24 -13 31 -2
31 5 0 14 -11 20 -25z m612 -109 c-8 -8 -11 6 -9 54 3 87 13 100 17 21 2 -38
-2 -68 -8 -75z m195 104 c-3 -5 -11 -10 -16 -10 -6 0 -7 5 -4 10 3 6 11 10 16
10 6 0 7 -4 4 -10z m242 -18 c-10 -10 -17 -24 -17 -30 0 -7 -4 -12 -10 -12
-13 0 0 32 19 47 23 18 26 16 8 -5z m-777 -12 c-19 -12 -30 -12 -30 -1 0 10
31 20 40 14 2 -2 -2 -8 -10 -13z m880 -5 c0 -13 -29 -30 -37 -21 -2 2 1 13 8
24 14 22 29 20 29 -3z m237 9 c5 -16 -36 -25 -59 -13 -10 6 -16 15 -12 20 8
13 66 7 71 -7z m-1427 2 c0 -3 -4 -8 -10 -11 -5 -3 -10 -1 -10 4 0 6 5 11 10
11 6 0 10 -2 10 -4z m1150 -6 c0 -5 -7 -10 -15 -10 -8 0 -15 5 -15 10 0 6 7
10 15 10 8 0 15 -4 15 -10z m405 -10 c-10 -11 -24 -20 -32 -20 -8 0 -12 -4 -9
-9 3 -4 -6 -6 -19 -3 -28 5 -39 17 -30 32 3 6 15 6 30 0 17 -6 27 -5 35 6 7 7
19 14 28 14 13 0 12 -3 -3 -20z m95 5 c-7 -8 -20 -15 -29 -15 -13 1 -13 3 3
15 26 19 42 19 26 0z m112 -41 c-4 -30 -8 -34 -34 -34 -16 0 -27 4 -23 10 3 5
13 7 23 4 16 -5 16 -5 0 6 -10 6 -15 17 -11 27 4 11 3 14 -5 9 -7 -4 -12 -3
-12 3 0 17 32 30 50 19 11 -7 15 -21 12 -44z m169 43 c11 -8 14 -19 9 -32 -4
-11 -5 -25 -3 -32 6 -14 -32 -27 -49 -17 -9 6 -5 10 12 15 23 6 23 7 3 8 -16
1 -21 7 -21 24 2 22 15 47 27 47 3 0 13 -6 22 -13z m-1164 -29 c-3 -7 -5 -2
-5 12 0 14 2 19 5 13 2 -7 2 -19 0 -25z m1075 27 c9 -4 13 -17 10 -40 -4 -35
-21 -49 -47 -39 -23 9 -18 26 6 19 l21 -7 -21 21 c-37 37 -18 64 31 46z m175
-1 c18 -5 20 -10 13 -29 -5 -13 -7 -25 -4 -28 10 -9 -24 -27 -40 -21 -13 5
-16 14 -12 30 4 15 2 24 -5 24 -8 0 -8 4 1 15 14 17 16 17 47 9z m95 -6 c14
-11 14 -17 2 -45 -14 -32 -37 -43 -49 -23 -3 6 4 11 17 11 22 2 22 2 2 6 -25
5 -37 36 -21 52 14 14 30 14 49 -1z m-788 -14 c-32 -13 -118 -8 -108 7 2 5 35
8 72 7 64 -1 66 -1 36 -14z m263 -5 c-3 -12 0 -28 9 -36 8 -8 14 -20 14 -26 0
-9 -2 -9 -8 -1 -4 7 -26 10 -49 9 -35 -2 -40 0 -28 11 7 8 20 14 27 14 10 0 9
3 -2 10 -13 8 -12 11 5 24 28 21 38 20 32 -5z m89 5 c-3 -9 -6 -24 -6 -35 0
-14 -7 -19 -25 -19 -14 0 -25 5 -25 11 0 6 7 9 15 6 8 -4 17 -2 20 3 4 6 -1
10 -9 10 -21 0 -20 17 2 29 25 15 35 13 28 -5z m-236 -10 c0 -8 4 -12 10 -9 6
3 7 -1 4 -9 -7 -19 -24 -11 -24 10 0 9 -5 12 -12 8 -7 -4 -8 -3 -4 4 10 17 26
15 26 -4z m-367 -39 c-4 -23 -2 -35 6 -35 6 0 11 9 11 20 0 11 7 20 15 20 16
0 18 -4 9 -37 -3 -11 -14 -23 -25 -26 -13 -3 -19 -14 -19 -31 0 -21 5 -26 26
-26 14 0 23 -4 19 -10 -9 -14 -42 -12 -56 3 -7 7 -25 11 -41 9 -16 -3 -28 0
-28 7 0 6 10 12 23 12 20 1 20 2 2 6 -11 3 -23 10 -27 17 -5 8 -8 7 -8 -2 0
-10 -8 -12 -30 -7 -19 4 -30 3 -30 -4 0 -6 11 -11 25 -11 14 0 25 -4 25 -10 0
-5 -13 -10 -30 -10 -17 0 -30 5 -30 12 0 9 -3 9 -12 0 -14 -14 -68 -16 -68 -2
0 6 11 10 25 10 14 0 25 3 25 8 0 4 -27 8 -60 9 -33 1 -60 -2 -60 -8 0 -5 11
-9 25 -9 14 0 25 -5 25 -11 0 -6 -14 -9 -32 -7 -31 3 -33 5 -33 43 0 38 2 40
34 43 21 2 31 0 26 -7 -3 -6 -15 -11 -26 -11 -10 0 -19 -5 -19 -11 0 -6 7 -8
16 -5 9 3 29 6 46 6 26 0 29 2 18 15 -11 13 -8 15 17 15 16 0 34 -5 41 -12 9
-9 12 -9 12 0 0 7 12 12 28 11 26 0 26 -1 5 -9 -38 -15 -26 -25 32 -25 55 0
55 0 32 18 l-22 18 33 -4 c29 -3 32 -1 32 24 0 15 6 30 13 32 6 3 13 6 14 6 1
1 -1 -15 -4 -34z m122 25 c3 -6 15 -5 31 2 19 9 30 9 43 1 12 -8 22 -8 28 -2
6 6 26 9 44 7 31 -3 34 -6 37 -37 3 -30 1 -33 -17 -28 -11 3 -19 2 -18 -2 1
-3 -2 -8 -7 -11 -5 -3 -10 3 -12 14 -2 11 5 20 17 23 27 8 24 23 -6 23 -18 0
-25 -5 -25 -20 0 -10 -10 -25 -22 -31 l-23 -12 23 -10 c12 -6 22 -18 22 -29 0
-13 7 -18 25 -18 14 0 25 5 25 10 0 6 -9 10 -20 10 -24 0 -27 15 -4 24 34 13
44 7 44 -29 0 -34 -1 -35 -39 -35 -22 0 -43 5 -46 10 -5 8 -11 7 -20 0 -8 -7
-29 -10 -47 -8 -32 3 -33 2 -36 -39 -2 -24 -7 -43 -13 -43 -5 0 -9 5 -9 11 0
5 -4 8 -9 4 -12 -7 -36 34 -26 43 3 4 10 0 14 -7 5 -7 14 -10 20 -7 18 11 13
26 -9 26 -28 0 -25 20 3 21 l22 2 -22 4 c-13 2 -23 9 -23 15 0 6 -6 5 -16 -2
-12 -11 -18 -10 -32 3 -15 16 -13 17 38 17 54 1 54 1 25 14 -16 6 -25 15 -19
19 6 3 9 22 8 41 -3 32 -1 36 21 36 13 0 26 -4 30 -10z m243 -45 c-3 -4 -16 9
-28 27 l-23 33 28 -27 c16 -15 26 -30 23 -33z m49 29 c-3 -3 -12 -4 -19 -1 -8
3 -5 6 6 6 11 1 17 -2 13 -5z m-1342 -34 c-44 -35 -47 -36 -38 -12 9 23 34 41
57 42 14 0 9 -8 -19 -30z m438 0 c13 -19 12 -79 -2 -81 -12 -1 -86 -1 -118 0
-32 1 -33 2 -33 44 0 24 3 47 7 50 3 4 35 7 69 7 51 0 65 -4 77 -20z m-733 -4
c0 -18 -30 -49 -39 -41 -3 4 2 11 12 16 21 12 23 33 1 25 -8 -3 -12 -2 -9 4 9
15 35 12 35 -4z m1945 2 c4 -3 -25 -6 -64 -6 -39 0 -69 3 -67 7 6 9 123 8 131
-1z m93 -12 c2 -11 15 -30 27 -44 13 -14 21 -30 18 -35 -3 -6 -1 -7 5 -3 6 3
13 2 17 -4 3 -5 -3 -10 -13 -10 -13 0 -22 9 -26 24 -3 13 -22 38 -41 55 -41
35 -43 44 -13 39 13 -2 24 -11 26 -22z m90 -1 c3 -11 12 -27 21 -36 9 -9 24
-26 33 -37 16 -20 16 -21 -2 -19 -10 1 -17 4 -15 8 3 3 -18 26 -45 49 -50 43
-56 64 -17 58 12 -2 23 -12 25 -23z m85 0 c-3 -22 42 -83 53 -73 3 4 -3 17
-15 29 -12 13 -20 32 -20 43 1 20 1 20 6 1 3 -11 16 -32 30 -47 19 -20 27 -41
30 -82 3 -38 1 -56 -7 -56 -6 0 -9 4 -6 9 10 15 -6 103 -16 93 -11 -11 -109
88 -101 101 3 4 15 7 26 5 15 -2 21 -9 20 -23z m-2080 -24 c-2 -10 -11 -18
-19 -18 -17 0 -17 0 -2 32 12 27 29 16 21 -14z m1462 5 c11 -8 16 -19 12 -30
-9 -24 -26 -20 -20 5 5 17 2 20 -13 17 -12 -2 -18 -11 -16 -23 2 -19 2 -19 -9
-2 -8 13 -7 22 1 33 15 17 21 18 45 0z m110 0 c11 -8 16 -19 12 -30 -9 -23
-26 -20 -20 4 4 14 0 20 -11 20 -10 0 -16 -9 -16 -22 -1 -21 -2 -21 -11 -5 -8
13 -7 22 1 33 15 17 21 18 45 0z m113 2 c17 -17 15 -48 -4 -48 -13 0 -14 3 -5
14 8 10 9 16 1 21 -16 10 -32 -5 -25 -24 5 -14 4 -14 -11 1 -14 14 -15 20 -4
32 15 19 32 20 48 4z m123 -4 c17 -21 0 -49 -31 -49 -31 0 -48 28 -31 49 8 9
21 16 31 16 10 0 23 -7 31 -16z m245 -16 l29 -33 -32 29 c-31 28 -38 36 -30
36 2 0 16 -15 33 -32z m-2634 -14 c-8 -14 -9 -13 -9 10 0 18 3 24 9 18 7 -7 7
-16 0 -28z m138 32 c0 -3 -4 -8 -10 -11 -5 -3 -10 -1 -10 4 0 6 5 11 10 11 6
0 10 -2 10 -4z m2330 -21 c13 -14 21 -25 18 -25 -2 0 -15 11 -28 25 -13 14
-21 25 -18 25 2 0 15 -11 28 -25z m-34 -12 c-3 -8 -6 -17 -6 -19 0 -2 -4 -4
-10 -4 -5 0 -9 11 -8 24 1 15 7 22 16 19 7 -3 11 -12 8 -20z m143 -26 c-2 -3
-15 10 -28 27 l-24 31 28 -27 c16 -15 27 -29 24 -31z m-2539 25 c0 -13 -12
-22 -22 -16 -10 6 -1 24 13 24 5 0 9 -4 9 -8z m108 -4 c-6 -18 -28 -21 -28 -4
0 9 7 16 16 16 9 0 14 -5 12 -12z m227 2 c-3 -5 -11 -10 -16 -10 -6 0 -7 5 -4
10 3 6 11 10 16 10 6 0 7 -4 4 -10z m192 -23 c6 -12 9 -43 8 -69 -2 -45 -1
-46 21 -37 18 6 24 5 24 -6 0 -7 8 -16 18 -18 11 -3 7 -5 -10 -6 -14 0 -34 -4
-44 -8 -13 -5 -15 -3 -9 7 5 9 4 11 -4 6 -6 -4 -9 -12 -5 -17 6 -11 -13 -39
-28 -39 -5 0 -7 4 -4 8 6 10 -29 42 -47 42 -8 0 -11 16 -9 55 3 42 10 62 29
84 28 32 45 31 60 -2z m1897 7 c9 -3 16 -11 16 -17 0 -6 -3 -7 -6 -4 -4 3 -15
2 -25 -4 -14 -7 -19 -6 -19 4 0 12 9 27 16 27 1 0 9 -3 18 -6z m221 -14 c3 -5
2 -10 -4 -10 -5 0 -13 5 -16 10 -3 6 -2 10 4 10 5 0 13 -4 16 -10z m-1570 -20
c-3 -5 -13 -10 -21 -10 -8 0 -14 -10 -14 -25 0 -18 5 -25 20 -25 11 0 20 -4
20 -10 0 -5 -7 -10 -15 -10 -8 0 -16 -3 -16 -7 -8 -54 -7 -61 14 -68 20 -6 20
-8 4 -12 -32 -8 -47 5 -47 41 0 19 6 37 13 39 7 3 5 6 -5 6 -13 1 -18 9 -18
30 0 47 10 61 42 61 17 0 27 -4 23 -10z m93 -20 c2 -22 1 -23 -8 -7 -6 9 -20
17 -30 17 -11 0 -20 5 -20 11 0 6 12 9 28 7 20 -2 28 -9 30 -28z m77 3 c-2
-16 -4 -31 -4 -35 -1 -5 -5 -8 -11 -8 -11 0 -13 30 -4 54 10 26 23 18 19 -11z
m199 -11 c-7 -26 -19 -29 -28 -6 -7 19 13 49 25 37 5 -5 6 -18 3 -31z m116 -4
c0 -25 -18 -32 -36 -14 -8 9 -11 16 -6 16 5 0 12 10 16 23 5 18 8 20 16 7 5
-8 10 -23 10 -32z m307 12 c2 -30 -11 -48 -22 -31 -7 12 4 61 14 61 3 0 7 -13
8 -30z m196 -2 c-7 -38 -14 -48 -20 -30 -3 6 -11 12 -19 12 -8 0 -14 6 -14 14
0 10 7 12 22 8 17 -4 20 -2 15 11 -4 11 -1 17 8 17 11 0 13 -8 8 -32z m121 -6
c-4 -12 -11 -22 -16 -22 -5 0 -6 -10 -3 -22 5 -15 4 -20 -3 -13 -5 6 -12 22
-16 38 -5 20 -3 27 9 27 8 0 14 3 14 8 -3 18 2 25 11 16 5 -5 7 -19 4 -32z
m-784 18 c0 -5 -4 -10 -10 -10 -5 0 -10 5 -10 10 0 6 5 10 10 10 6 0 10 -4 10
-10z m-685 -10 c-3 -5 -13 -10 -21 -10 -8 0 -12 5 -9 10 3 6 13 10 21 10 8 0
12 -4 9 -10z m378 -10 c16 0 -14 -20 -30 -20 -7 0 -13 7 -13 16 0 11 5 14 16
10 9 -3 21 -6 27 -6z m45 -2 c-2 -6 -10 -14 -16 -16 -7 -2 -10 2 -6 12 7 18
28 22 22 4z m-1 -44 c-3 -3 -12 -4 -19 -1 -8 3 -5 6 6 6 11 1 17 -2 13 -5z
m-470 -28 c0 -8 -6 -12 -15 -9 -11 5 -11 7 0 14 7 5 13 9 14 9 0 0 1 -6 1 -14z
m423 -27 c0 -5 -7 -9 -15 -9 -15 0 -20 12 -9 23 8 8 24 -1 24 -14z m923 14
c-7 -2 -19 -2 -25 0 -7 3 -2 5 12 5 14 0 19 -2 13 -5z m-883 -13 c0 -5 -7 -10
-16 -10 -8 0 -12 5 -9 10 3 6 10 10 16 10 5 0 9 -4 9 -10z m-737 -12 c3 -10 7
-10 20 1 20 16 62 8 70 -14 4 -8 1 -17 -5 -21 -7 -5 -8 -2 -3 6 5 9 4 11 -4 6
-6 -4 -18 -2 -26 4 -13 10 -15 8 -15 -14 0 -27 13 -35 26 -15 4 8 8 8 13 0 4
-6 21 3 44 24 37 34 87 47 87 24 0 -8 5 -8 15 1 18 15 68 5 62 -13 -2 -7 -14
-11 -26 -10 -15 2 -21 -3 -21 -17 0 -22 10 -26 27 -9 7 7 13 7 17 1 3 -5 -4
-18 -15 -28 -16 -14 -24 -16 -38 -7 -11 7 -23 8 -32 2 -8 -5 -25 -9 -38 -9
-20 0 -23 4 -19 25 7 32 -1 31 -30 -6 -16 -20 -19 -27 -8 -23 9 3 16 11 16 18
0 6 5 3 11 -7 8 -13 21 -18 47 -17 58 3 82 1 82 -7 0 -5 -36 -9 -81 -10 -58
-1 -85 -6 -98 -17 -25 -23 -41 -20 -41 8 0 15 7 26 20 29 11 3 20 11 20 17 0
9 -4 9 -16 -1 -12 -10 -20 -10 -35 -1 -11 7 -19 8 -19 2 0 -5 -4 -10 -10 -10
-5 0 -10 9 -10 20 0 27 -16 25 -25 -2 -7 -20 -9 -18 -12 15 -4 39 9 67 32 67
8 0 15 -6 18 -12z m1667 -24 c0 -8 -5 -12 -10 -9 -6 4 -8 11 -5 16 9 14 15 11
15 -7z m-917 -1 c-7 -2 -19 -2 -25 0 -7 3 -2 5 12 5 14 0 19 -2 13 -5z m1412
-23 c19 -8 19 -9 -2 -9 -12 -1 -25 4 -28 9 -7 12 2 12 30 0z m-2162 -52 c15
-11 13 -13 -18 -14 -28 0 -32 2 -24 13 14 16 21 16 42 1z m2107 -2 c-4 -4 -16
-4 -26 2 -16 9 -14 10 8 9 15 -1 23 -6 18 -11z m106 -22 c-3 -8 -1 -14 5 -14
6 0 7 -4 4 -10 -3 -5 -11 -10 -16 -10 -6 0 -7 5 -4 10 3 6 -4 10 -17 11 -23 1
-23 1 2 9 14 4 19 8 12 9 -7 1 -10 6 -7 11 9 15 27 1 21 -16z m44 6 c-13 -8
-13 -10 0 -10 11 0 11 -3 2 -12 -10 -10 -15 -10 -22 2 -6 9 -3 18 8 26 9 7 19
10 22 8 2 -3 -2 -9 -10 -14z m-132 -2 c-4 -18 -19 -27 -35 -21 -10 4 -8 9 9
18 13 7 24 13 26 14 1 1 1 -5 0 -11z m-175 -42 c-10 -13 -20 -22 -22 -20 -4 4
29 44 36 44 2 0 -4 -11 -14 -24z m-128 -35 c-3 -6 -11 -11 -17 -11 -6 0 -6 6
2 15 14 17 26 13 15 -4z m-955 -1 c0 -5 -7 -10 -16 -10 -8 0 -12 5 -9 10 3 6
10 10 16 10 5 0 9 -4 9 -10z m870 -5 c0 -8 -4 -15 -10 -15 -5 0 -10 7 -10 15
0 8 5 15 10 15 6 0 10 -7 10 -15z m-1392 -42 c-4 -24 -23 -27 -25 -3 -1 12 4
20 13 20 9 0 14 -7 12 -17z"/>
<path d="M1730 1910 l-195 -6 203 -2 c129 -1 202 2 202 8 0 6 -3 9 -7 8 -5 -1
-96 -5 -203 -8z"/>
<path d="M1313 1903 c32 -2 81 -2 110 0 29 2 3 3 -58 3 -60 0 -84 -1 -52 -3z"/>
<path d="M488 2743 c7 -3 16 -2 19 1 4 3 -2 6 -13 5 -11 0 -14 -3 -6 -6z"/>
<path d="M500 2710 c0 -5 5 -10 10 -10 6 0 10 5 10 10 0 6 -4 10 -10 10 -5 0
-10 -4 -10 -10z"/>
<path d="M470 2640 c0 -5 9 -10 19 -10 11 0 23 5 26 10 4 6 -5 10 -19 10 -14
0 -26 -4 -26 -10z"/>
<path d="M548 2523 c6 -2 18 -2 25 0 6 3 1 5 -13 5 -14 0 -19 -2 -12 -5z"/>
<path d="M470 2490 c0 -5 5 -10 10 -10 6 0 10 5 10 10 0 6 -4 10 -10 10 -5 0
-10 -4 -10 -10z"/>
<path d="M1330 2699 c0 -5 5 -7 10 -4 6 3 10 8 10 11 0 2 -4 4 -10 4 -5 0 -10
-5 -10 -11z"/>
<path d="M1300 2630 c0 -5 9 -10 19 -10 11 0 23 5 26 10 4 6 -5 10 -19 10 -14
0 -26 -4 -26 -10z"/>
<path d="M2155 2700 c3 -5 8 -10 11 -10 2 0 4 5 4 10 0 6 -5 10 -11 10 -5 0
-7 -4 -4 -10z"/>
<path d="M2125 2630 c3 -5 12 -10 20 -10 8 0 17 5 20 10 4 6 -5 10 -20 10 -15
0 -24 -4 -20 -10z"/>
<path d="M2130 2540 c0 -5 10 -10 23 -10 18 0 19 2 7 10 -19 13 -30 13 -30 0z"/>
<path d="M2130 2490 c0 -5 5 -10 10 -10 6 0 10 5 10 10 0 6 -4 10 -10 10 -5 0
-10 -4 -10 -10z"/>
<path d="M3240 2751 c-12 -24 -13 -108 -1 -115 5 -3 11 3 14 14 3 11 1 22 -3
25 -4 3 -6 14 -3 25 7 27 53 28 53 1 0 -11 -4 -23 -10 -26 -6 -4 -5 -11 3 -19
6 -8 15 -12 20 -9 11 6 9 101 -3 108 -5 3 -10 -1 -10 -9 0 -19 -16 -21 -23 -3
-4 10 -6 10 -6 0 -1 -7 -6 -13 -12 -13 -6 0 -9 9 -6 20 7 25 1 26 -13 1z"/>
<path d="M3265 2630 c-3 -5 1 -10 10 -10 9 0 13 5 10 10 -3 6 -8 10 -10 10 -2
0 -7 -4 -10 -10z"/>
<path d="M767 2736 c-9 -24 -9 -78 1 -93 6 -9 11 -6 21 8 7 12 8 18 2 14 -7
-4 -11 3 -11 18 0 32 30 45 47 21 9 -12 10 -21 2 -30 -6 -7 -8 -18 -4 -24 21
-35 42 30 24 76 -6 16 -13 23 -16 17 -6 -16 -50 -17 -55 -1 -3 7 -7 5 -11 -6z"/>
<path d="M800 2620 c0 -5 5 -10 10 -10 6 0 10 5 10 10 0 6 -4 10 -10 10 -5 0
-10 -4 -10 -10z"/>
<path d="M1400 2750 c0 -5 5 -10 11 -10 5 0 7 5 4 10 -3 6 -8 10 -11 10 -2 0
-4 -4 -4 -10z"/>
<path d="M1602 2748 c-14 -14 -16 -86 -3 -106 6 -10 10 -10 21 3 8 10 9 15 1
15 -6 0 -11 11 -11 25 0 20 5 25 25 25 29 0 45 -28 25 -40 -11 -7 -11 -11 0
-25 13 -16 15 -15 22 10 8 30 0 82 -13 91 -5 3 -9 -3 -9 -13 -1 -17 -2 -17
-15 1 -14 18 -15 18 -15 2 0 -10 -5 -14 -11 -11 -6 4 -8 13 -5 21 7 17 4 18
-12 2z"/>
<path d="M1630 2621 c0 -6 5 -13 10 -16 6 -3 10 1 10 9 0 9 -4 16 -10 16 -5 0
-10 -4 -10 -9z"/>
<path d="M2428 2744 c-10 -10 -10 -95 0 -111 6 -9 11 -7 20 7 8 14 9 20 1 20
-18 0 -5 45 15 48 27 6 38 -19 19 -40 -10 -11 -12 -18 -5 -18 7 0 12 -7 12
-15 0 -9 -6 -12 -15 -9 -8 4 -15 1 -15 -5 0 -16 26 -13 40 4 14 17 19 100 7
112 -5 4 -12 1 -16 -6 -7 -11 -11 -9 -20 5 -9 17 -10 17 -11 2 0 -22 -17 -24
-22 -2 -2 9 -6 12 -10 8z"/>
<path d="M2965 2720 c4 -6 11 -8 16 -5 14 9 11 15 -7 15 -8 0 -12 -5 -9 -10z"/>
<path d="M2935 2650 c3 -5 15 -10 26 -10 10 0 19 5 19 10 0 6 -12 10 -26 10
-14 0 -23 -4 -19 -10z"/>
<path d="M2948 2553 c6 -2 18 -2 25 0 6 3 1 5 -13 5 -14 0 -19 -2 -12 -5z"/>
<path d="M2925 2370 c3 -5 15 -10 25 -10 10 0 22 5 25 10 4 6 -7 10 -25 10
-18 0 -29 -4 -25 -10z"/>
<path d="M3106 2625 c4 -8 8 -15 10 -15 2 0 4 7 4 15 0 8 -4 15 -10 15 -5 0
-7 -7 -4 -15z"/>
<path d="M3038 2593 c7 -3 16 -2 19 1 4 3 -2 6 -13 5 -11 0 -14 -3 -6 -6z"/>
<path d="M3069 2501 c-15 -17 -15 -19 2 -30 17 -10 19 -8 19 19 0 34 0 34 -21
11z"/>
<path d="M3115 2450 c3 -5 8 -10 11 -10 2 0 4 5 4 10 0 6 -5 10 -11 10 -5 0
-7 -4 -4 -10z"/>
<path d="M640 2620 c0 -5 5 -10 10 -10 6 0 10 5 10 10 0 6 -4 10 -10 10 -5 0
-10 -4 -10 -10z"/>
<path d="M2301 2614 c0 -11 3 -14 6 -6 3 7 2 16 -1 19 -3 4 -6 -2 -5 -13z"/>
<path d="M1405 2580 c-3 -5 -1 -10 4 -10 6 0 11 5 11 10 0 6 -2 10 -4 10 -3 0
-8 -4 -11 -10z"/>
<path d="M2225 2580 c-3 -5 -2 -10 4 -10 5 0 13 5 16 10 3 6 2 10 -4 10 -5 0
-13 -4 -16 -10z"/>
<path d="M2230 2450 c0 -5 5 -10 11 -10 5 0 7 5 4 10 -3 6 -8 10 -11 10 -2 0
-4 -4 -4 -10z"/>
<path d="M800 2530 c0 -13 18 -22 24 -11 3 5 -1 11 -9 15 -8 3 -15 1 -15 -4z"/>
<path d="M1308 2533 c6 -2 18 -2 25 0 6 3 1 5 -13 5 -14 0 -19 -2 -12 -5z"/>
<path d="M1307 2495 c-4 -8 -2 -17 3 -20 6 -4 10 3 10 14 0 25 -6 27 -13 6z"/>
<path d="M1310 2350 c0 -5 9 -10 20 -10 11 0 20 5 20 10 0 6 -9 10 -20 10 -11
0 -20 -4 -20 -10z"/>
<path d="M3267 2534 c6 -15 23 -19 23 -5 0 5 -7 11 -14 14 -10 4 -13 1 -9 -9z"/>
<path d="M1637 2524 c6 -15 23 -19 23 -5 0 5 -7 11 -14 14 -10 4 -13 1 -9 -9z"/>
<path d="M2460 2520 c0 -5 5 -10 10 -10 6 0 10 5 10 10 0 6 -4 10 -10 10 -5 0
-10 -4 -10 -10z"/>
<path d="M988 2373 c7 -3 16 -2 19 1 4 3 -2 6 -13 5 -11 0 -14 -3 -6 -6z"/>
<path d="M1825 2260 c3 -5 8 -10 11 -10 2 0 4 5 4 10 0 6 -5 10 -11 10 -5 0
-7 -4 -4 -10z"/>
<path d="M2648 2373 c7 -3 16 -2 19 1 4 3 -2 6 -13 5 -11 0 -14 -3 -6 -6z"/>
<path d="M2658 2233 c7 -3 16 -2 19 1 4 3 -2 6 -13 5 -11 0 -14 -3 -6 -6z"/>
<path d="M3448 2373 c7 -3 16 -2 19 1 4 3 -2 6 -13 5 -11 0 -14 -3 -6 -6z"/>
<path d="M464 2358 c-3 -4 9 -8 27 -8 18 0 29 3 25 7 -10 10 -46 11 -52 1z"/>
<path d="M2130 2350 c0 -5 9 -10 20 -10 11 0 20 5 20 10 0 6 -9 10 -20 10 -11
0 -20 -4 -20 -10z"/>
<path d="M830 2199 c0 -5 5 -7 10 -4 6 3 10 8 10 11 0 2 -4 4 -10 4 -5 0 -10
-5 -10 -11z"/>
<path d="M640 2170 c0 -5 5 -10 11 -10 5 0 7 5 4 10 -3 6 -8 10 -11 10 -2 0
-4 -4 -4 -10z"/>
<path d="M655 2020 c-3 -5 -1 -10 4 -10 6 0 11 5 11 10 0 6 -2 10 -4 10 -3 0
-8 -4 -11 -10z"/>
<path d="M1485 2160 c3 -5 8 -10 11 -10 2 0 4 5 4 10 0 6 -5 10 -11 10 -5 0
-7 -4 -4 -10z"/>
<path d="M1495 2010 c3 -5 8 -10 11 -10 2 0 4 5 4 10 0 6 -5 10 -11 10 -5 0
-7 -4 -4 -10z"/>
<path d="M2306 2157 c3 -10 9 -15 12 -12 3 3 0 11 -7 18 -10 9 -11 8 -5 -6z"/>
<path d="M1336 2164 c-10 -25 1 -29 14 -5 6 12 7 21 1 21 -5 0 -12 -7 -15 -16z"/>
<path d="M1370 2161 c-7 -15 -7 -21 0 -21 12 0 25 28 17 36 -3 3 -10 -4 -17
-15z"/>
<path d="M2235 2010 c4 -6 11 -8 16 -5 14 9 11 15 -7 15 -8 0 -12 -5 -9 -10z"/>
<path d="M1900 1840 c-8 -5 -10 -10 -5 -10 6 0 17 5 25 10 8 5 11 10 5 10 -5
0 -17 -5 -25 -10z"/>
<path d="M2090 1700 c0 -5 7 -10 15 -10 8 0 15 5 15 10 0 6 -7 10 -15 10 -8 0
-15 -4 -15 -10z"/>
<path d="M2433 1685 c0 -8 4 -12 9 -9 4 3 8 9 8 15 0 5 -4 9 -8 9 -5 0 -9 -7
-9 -15z"/>
<path d="M2475 1690 c3 -5 8 -10 11 -10 2 0 4 5 4 10 0 6 -5 10 -11 10 -5 0
-7 -4 -4 -10z"/>
<path d="M2385 1640 c3 -5 10 -10 16 -10 5 0 9 5 9 10 0 6 -7 10 -16 10 -8 0
-12 -4 -9 -10z"/>
<path d="M2430 1639 c0 -5 5 -7 10 -4 6 3 10 8 10 11 0 2 -4 4 -10 4 -5 0 -10
-5 -10 -11z"/>
<path d="M1158 1823 c7 -3 16 -2 19 1 4 3 -2 6 -13 5 -11 0 -14 -3 -6 -6z"/>
<path d="M1190 1811 c0 -6 4 -13 10 -16 6 -3 7 1 4 9 -7 18 -14 21 -14 7z"/>
<path d="M780 1790 c0 -5 4 -10 9 -10 6 0 13 5 16 10 3 6 -1 10 -9 10 -9 0
-16 -4 -16 -10z"/>
<path d="M878 1793 c7 -3 16 -2 19 1 4 3 -2 6 -13 5 -11 0 -14 -3 -6 -6z"/>
<path d="M1530 1790 c0 -5 7 -10 15 -10 8 0 15 5 15 10 0 6 -7 10 -15 10 -8 0
-15 -4 -15 -10z"/>
<path d="M1638 1793 c7 -3 16 -2 19 1 4 3 -2 6 -13 5 -11 0 -14 -3 -6 -6z"/>
<path d="M1538 1748 c12 -12 101 -13 113 -1 5 5 -18 10 -57 10 -45 1 -63 -2
-56 -9z"/>
<path d="M2700 1757 c0 -2 6 -10 14 -16 11 -9 16 -9 22 1 4 7 4 10 -1 6 -4 -4
-14 -3 -22 3 -7 6 -13 9 -13 6z"/>
<path d="M2291 1801 c-9 -6 -10 -11 -2 -15 13 -8 31 1 31 15 0 11 -11 11 -29
0z"/>
<path d="M2388 1793 c7 -3 16 -2 19 1 4 3 -2 6 -13 5 -11 0 -14 -3 -6 -6z"/>
<path d="M2280 1760 c0 -6 7 -10 15 -10 8 0 15 2 15 4 0 2 -7 6 -15 10 -8 3
-15 1 -15 -4z"/>
<path d="M2334 1752 c5 -8 76 -4 76 4 0 2 -18 4 -41 4 -22 0 -38 -4 -35 -8z"/>
<path d="M2565 1790 c3 -5 8 -10 11 -10 2 0 4 5 4 10 0 6 -5 10 -11 10 -5 0
-7 -4 -4 -10z"/>
<path d="M2470 1760 c0 -5 7 -10 16 -10 8 0 12 5 9 10 -3 6 -10 10 -16 10 -5
0 -9 -4 -9 -10z"/>
<path d="M2545 1670 c3 -5 10 -10 16 -10 5 0 9 5 9 10 0 6 -7 10 -16 10 -8 0
-12 -4 -9 -10z"/>
<path d="M2930 1760 c0 -6 7 -10 15 -10 8 0 15 2 15 4 0 2 -7 6 -15 10 -8 3
-15 1 -15 -4z"/>
<path d="M3045 1760 c-3 -5 -1 -10 4 -10 6 0 11 5 11 10 0 6 -2 10 -4 10 -3 0
-8 -4 -11 -10z"/>
<path d="M3210 1789 c0 -5 5 -7 10 -4 6 3 10 8 10 11 0 2 -4 4 -10 4 -5 0 -10
-5 -10 -11z"/>
<path d="M3110 1760 c0 -5 5 -10 10 -10 6 0 10 5 10 10 0 6 -4 10 -10 10 -5 0
-10 -4 -10 -10z"/>
<path d="M1740 1790 c0 -5 4 -10 9 -10 6 0 13 5 16 10 3 6 -1 10 -9 10 -9 0
-16 -4 -16 -10z"/>
<path d="M1835 1790 c3 -5 8 -10 11 -10 2 0 4 5 4 10 0 6 -5 10 -11 10 -5 0
-7 -4 -4 -10z"/>
<path d="M720 1666 c0 -15 24 -28 34 -19 7 7 -13 33 -25 33 -5 0 -9 -6 -9 -14z"/>
<path d="M554 1639 c-3 -5 6 -9 20 -9 31 0 34 6 6 13 -11 3 -23 1 -26 -4z"/>
<path d="M2920 1630 c-18 -4 -26 -14 -28 -33 -2 -15 2 -27 8 -27 6 0 10 8 8
18 -3 14 5 17 45 17 26 0 47 3 47 7 0 12 -55 25 -80 18z"/>
<path d="M540 1571 c0 -5 11 -8 25 -7 33 1 33 16 0 16 -14 0 -25 -4 -25 -9z"/>
<path d="M620 1571 c0 -4 11 -6 25 -3 14 2 25 6 25 8 0 2 -11 4 -25 4 -14 0
-25 -4 -25 -9z"/>
<path d="M845 1570 c-4 -7 3 -8 22 -4 38 9 42 14 10 14 -14 0 -29 -5 -32 -10z"/>
<path d="M530 1524 c0 -8 5 -12 10 -9 6 3 10 10 10 16 0 5 -4 9 -10 9 -5 0
-10 -7 -10 -16z"/>
<path d="M595 1530 c-3 -5 1 -10 9 -10 9 0 16 5 16 10 0 6 -4 10 -9 10 -6 0
-13 -4 -16 -10z"/>
<path d="M548 1473 c6 -2 18 -2 25 0 6 3 1 5 -13 5 -14 0 -19 -2 -12 -5z"/>
<path d="M628 1473 c7 -3 16 -2 19 1 4 3 -2 6 -13 5 -11 0 -14 -3 -6 -6z"/>
<path d="M858 1473 c6 -2 18 -2 25 0 6 3 1 5 -13 5 -14 0 -19 -2 -12 -5z"/>
<path d="M2355 1581 c-30 -6 -39 -26 -22 -48 11 -15 37 -17 37 -3 0 6 -7 10
-16 10 -9 0 -14 6 -11 13 2 8 24 12 60 12 32 0 57 3 57 7 0 5 -11 8 -24 8 -13
0 -30 2 -38 4 -7 2 -26 1 -43 -3z"/>
<path d="M2440 1529 c0 -5 5 -7 10 -4 6 3 10 8 10 11 0 2 -4 4 -10 4 -5 0 -10
-5 -10 -11z"/>
<path d="M2386 1521 c-4 -7 -5 -15 -2 -18 9 -9 19 4 14 18 -4 11 -6 11 -12 0z"/>
<path d="M2338 1489 c-22 -12 -23 -45 -2 -53 12 -4 14 -1 9 14 -4 11 -2 20 3
20 6 0 12 7 16 15 6 17 -2 19 -26 4z"/>
<path d="M2439 1481 c26 -17 5 -38 -33 -35 -20 2 -34 0 -32 -5 3 -4 23 -8 46
-9 38 -2 40 0 40 28 0 22 -5 30 -17 30 -15 0 -15 -2 -4 -9z"/>
<path d="M2915 1320 c-3 -5 -1 -10 4 -10 6 0 11 5 11 10 0 6 -2 10 -4 10 -3 0
-8 -4 -11 -10z"/>
<path d="M2710 1201 c0 -6 4 -13 10 -16 6 -3 7 1 4 9 -7 18 -14 21 -14 7z"/>
<path d="M2750 1196 c0 -2 7 -7 16 -10 8 -3 12 -2 9 4 -6 10 -25 14 -25 6z"/>
<path d="M2985 1180 c-3 -5 -1 -10 4 -10 6 0 11 5 11 10 0 6 -2 10 -4 10 -3 0
-8 -4 -11 -10z"/>
<path d="M2950 1135 c0 -12 4 -14 16 -7 9 5 26 7 37 4 14 -3 18 -1 13 6 -11
18 -66 15 -66 -3z"/>
<path d="M3128 1133 c12 -2 30 -2 40 0 9 3 -1 5 -23 4 -22 0 -30 -2 -17 -4z"/>
<path d="M2742 1108 c-19 -19 -14 -56 8 -68 11 -6 20 -7 20 -1 0 5 -7 11 -15
15 -20 7 -19 25 2 48 18 20 4 25 -15 6z"/>
<path d="M2816 1104 c-9 -8 -16 -22 -16 -29 0 -17 27 -45 43 -45 7 0 3 7 -8
16 -16 12 -17 16 -6 23 11 7 11 9 0 14 -11 3 -9 9 6 21 11 8 15 16 8 16 -6 0
-19 -7 -27 -16z"/>
<path d="M2970 1105 c0 -8 7 -15 15 -15 8 0 15 7 15 15 0 8 -7 15 -15 15 -8 0
-15 -7 -15 -15z"/>
<path d="M3136 1113 c-11 -11 -6 -23 9 -23 8 0 15 4 15 9 0 13 -16 22 -24 14z"/>
<path d="M3045 1089 c-4 -6 -4 -13 0 -17 3 -3 10 0 14 7 7 11 11 9 20 -5 10
-18 10 -18 11 4 0 15 -6 22 -19 22 -11 0 -23 -5 -26 -11z"/>
<path d="M2950 1079 c0 -11 43 -19 58 -10 11 6 4 10 -22 13 -20 2 -36 1 -36
-3z"/>
<path d="M3122 1068 c16 -10 45 -10 51 0 3 4 -10 7 -29 8 -21 0 -30 -3 -22 -8z"/>
<path d="M3035 1050 c-4 -6 -11 -7 -17 -4 -7 4 -8 2 -4 -5 6 -9 11 -9 22 0 14
11 18 19 10 19 -3 0 -8 -5 -11 -10z"/>
<path d="M2955 1040 c3 -5 13 -10 21 -10 8 0 12 5 9 10 -3 6 -13 10 -21 10 -8
0 -12 -4 -9 -10z"/>
<path d="M3060 1032 c0 -11 -6 -22 -12 -25 -10 -4 -10 -7 0 -18 11 -12 13 -12
10 1 -2 11 5 14 30 11 19 -1 32 2 32 9 0 7 -9 9 -22 5 -19 -5 -17 -2 7 14 20
14 25 21 13 21 -9 0 -18 -6 -21 -12 -3 -10 -7 -10 -20 1 -15 12 -17 11 -17 -7z"/>
<path d="M3138 1023 c7 -3 16 -2 19 1 4 3 -2 6 -13 5 -11 0 -14 -3 -6 -6z"/>
<path d="M3005 1010 c3 -5 8 -10 11 -10 2 0 4 5 4 10 0 6 -5 10 -11 10 -5 0
-7 -4 -4 -10z"/>
<path d="M3136 996 c3 -8 0 -16 -8 -19 -7 -2 -3 -2 9 0 17 2 21 -1 17 -12 -4
-10 0 -15 10 -15 21 0 20 12 -4 38 -24 25 -32 28 -24 8z"/>
<path d="M2716 991 c-4 -5 2 -12 11 -14 17 -4 17 -5 1 -6 -10 0 -18 -6 -18
-12 0 -6 8 -9 18 -7 9 2 17 12 17 22 0 21 -20 33 -29 17z"/>
<path d="M2876 985 c-3 -8 1 -21 9 -29 19 -19 19 -30 -1 -22 -8 3 -12 2 -9 -4
9 -15 25 -12 32 5 3 9 -2 22 -13 30 -18 14 -18 14 -1 15 10 0 15 5 12 10 -9
14 -22 12 -29 -5z"/>
<path d="M2950 982 c0 -4 15 -8 34 -8 19 0 32 4 30 8 -3 4 -18 8 -35 8 -16 0
-29 -4 -29 -8z"/>
<path d="M2775 970 c-3 -5 1 -10 10 -10 9 0 13 5 10 10 -3 6 -8 10 -10 10 -2
0 -7 -4 -10 -10z"/>
<path d="M2820 960 c0 -5 7 -10 15 -10 8 0 15 5 15 10 0 6 -7 10 -15 10 -8 0
-15 -4 -15 -10z"/>
<path d="M3050 950 c-6 -12 -9 -24 -7 -27 3 -2 11 5 17 17 6 12 9 24 7 27 -3
2 -11 -5 -17 -17z"/>
<path d="M2972 949 c2 -6 8 -10 13 -10 5 0 11 4 13 10 2 6 -4 11 -13 11 -9 0
-15 -5 -13 -11z"/>
<path d="M3090 940 c-8 -5 -10 -10 -5 -10 6 0 17 5 25 10 8 5 11 10 5 10 -5 0
-17 -5 -25 -10z"/>
<path d="M2775 930 c4 -6 11 -8 16 -5 14 9 11 15 -7 15 -8 0 -12 -5 -9 -10z"/>
<path d="M3160 925 c0 -8 5 -15 10 -15 6 0 10 7 10 15 0 8 -4 15 -10 15 -5 0
-10 -7 -10 -15z"/>
<path d="M2950 920 c0 -6 7 -10 15 -10 8 0 15 2 15 4 0 2 -7 6 -15 10 -8 3
-15 1 -15 -4z"/>
<path d="M3085 920 c-18 -8 -17 -9 8 -9 16 -1 26 3 22 9 -3 6 -7 10 -8 9 -1 0
-11 -4 -22 -9z"/>
<path d="M2998 913 c7 -3 16 -2 19 1 4 3 -2 6 -13 5 -11 0 -14 -3 -6 -6z"/>
<path d="M768 1353 c27 -5 29 -23 2 -30 -32 -9 -23 -23 15 -23 34 0 46 12 25
25 -17 10 0 26 21 20 11 -4 19 -2 19 4 0 7 -21 10 -52 10 -29 -1 -43 -4 -30
-6z"/>
<path d="M1731 1384 c0 -11 3 -14 6 -6 3 7 2 16 -1 19 -3 4 -6 -2 -5 -13z"/>
<path d="M2366 1315 c4 -8 8 -15 10 -15 2 0 4 7 4 15 0 8 -4 15 -10 15 -5 0
-7 -7 -4 -15z"/>
<path d="M1027 1143 c-12 -11 -8 -23 8 -23 8 0 15 7 15 15 0 16 -12 20 -23 8z"/>
<path d="M1406 1042 c-2 -4 4 -13 14 -20 11 -7 21 -8 25 -2 3 5 -3 14 -14 20
-11 5 -22 6 -25 2z"/>
<path d="M849 619 c-23 -19 -23 -20 -2 -10 12 6 25 16 28 21 10 16 -1 12 -26
-11z"/>
<path d="M1885 670 c3 -5 8 -10 11 -10 2 0 4 5 4 10 0 6 -5 10 -11 10 -5 0 -7
-4 -4 -10z"/>
<path d="M2234 723 c-3 -10 -9 -25 -14 -35 -6 -11 -4 -20 5 -28 8 -7 15 -19
15 -26 0 -8 10 -14 25 -14 30 0 33 16 5 23 -29 8 -29 67 1 67 27 0 19 24 -9
28 -14 2 -24 -3 -28 -15z"/>
<path d="M2968 683 c7 -3 16 -2 19 1 4 3 -2 6 -13 5 -11 0 -14 -3 -6 -6z"/>
<path d="M2764 649 c-3 -6 -2 -15 2 -19 12 -12 38 5 30 19 -9 14 -23 14 -32 0z"/>
<path d="M931 591 c-10 -7 -11 -12 -1 -27 8 -14 10 -14 7 -3 -3 9 0 22 6 28
13 13 7 14 -12 2z"/>
<path d="M1024 405 c4 -24 16 -30 16 -7 0 12 -4 22 -9 22 -5 0 -8 -7 -7 -15z"/>
<path d="M946 3219 c-25 -30 -37 -87 -15 -74 5 4 8 12 6 18 -2 7 2 24 10 39
14 29 51 45 80 33 17 -6 17 -7 0 -16 -9 -6 -22 -7 -29 -3 -7 5 -8 3 -3 -6 6
-10 4 -12 -8 -7 -11 4 -20 -1 -27 -13 -17 -31 -12 -31 40 0 28 17 56 30 61 30
24 0 -1 -26 -52 -56 -60 -36 -67 -54 -27 -68 55 -19 124 38 113 94 -8 40 -35
60 -81 60 -35 0 -47 -5 -68 -31z m114 -63 c0 -9 -73 -47 -84 -43 -6 2 7 13 29
25 39 21 55 26 55 18z"/>
<path d="M1810 3241 c0 -5 7 -11 16 -13 10 -2 18 -15 20 -31 3 -29 3 -29 -15
-8 -24 28 -26 27 -28 -15 -2 -44 -11 -54 -26 -33 -10 13 -15 14 -24 3 -10 -10
-8 -17 6 -35 14 -18 27 -23 57 -21 75 4 111 86 59 137 -24 24 -65 34 -65 16z"/>
<path d="M2123 3239 c-18 -5 -33 -14 -33 -21 0 -7 4 -7 14 1 14 12 86 12 86 1
0 -3 -17 -24 -38 -45 -49 -51 -57 -72 -32 -85 55 -29 120 11 120 75 0 33 -27
75 -49 75 -5 0 -15 2 -23 4 -7 2 -28 0 -45 -5z m67 -79 c-21 -30 -58 -60 -73
-60 -7 0 83 89 91 90 2 0 -6 -13 -18 -30z"/>
<path d="M2583 3240 c-34 -14 -28 -19 17 -13 30 4 45 1 60 -12 11 -10 20 -21
20 -25 0 -4 -29 -19 -65 -35 -36 -15 -65 -30 -65 -34 0 -12 58 -41 83 -41 13
0 36 11 51 25 31 29 35 82 9 113 -21 24 -78 36 -110 22z m77 -90 c0 -12 -69
-42 -84 -36 -6 2 3 9 19 15 17 6 37 15 45 20 20 13 20 13 20 1z"/>
<path d="M553 3222 c-12 -9 -24 -27 -26 -39 -2 -12 -6 -26 -10 -29 -7 -8 -11
10 -7 36 1 10 -2 12 -8 5 -6 -5 -12 -26 -14 -45 l-4 -35 -11 35 -11 35 -1 -31
c-2 -67 85 -99 135 -49 20 20 25 33 22 66 -4 54 -32 76 -65 51z"/>
<path d="M819 3221 c9 -16 8 -18 -7 -15 -13 4 -23 -8 -41 -51 -13 -30 -27 -55
-32 -55 -16 0 -14 25 8 69 12 25 23 50 23 54 0 12 -45 -33 -46 -46 -1 -7 -2
-21 -3 -32 -2 -20 -2 -20 -16 -1 -8 11 -15 15 -15 8 0 -22 45 -62 77 -68 67
-13 125 94 75 139 -25 23 -35 21 -23 -2z"/>
<path d="M1325 3235 c6 -2 22 -6 38 -9 34 -8 36 -25 2 -18 -21 3 -24 1 -19
-13 5 -12 2 -16 -12 -13 -11 2 -22 7 -26 13 -4 5 -10 7 -13 3 -4 -3 3 -16 15
-28 17 -17 19 -24 9 -30 -8 -5 -17 -2 -24 7 -10 14 -13 13 -18 -6 -8 -31 24
-61 66 -61 47 1 77 28 84 77 7 54 -20 83 -74 82 -21 0 -33 -2 -28 -4z"/>
<path d="M1525 3225 c-20 -16 -20 -16 2 -6 29 15 80 14 89 -1 5 -8 2 -9 -10
-5 -10 4 -25 -1 -38 -13 -16 -15 -24 -17 -29 -8 -5 8 -12 3 -19 -17 -16 -42
-9 -68 23 -83 74 -36 157 53 110 116 -25 33 -96 43 -128 17z"/>
<path d="M1749 3223 c-13 -16 -12 -17 4 -4 16 13 21 21 13 21 -2 0 -10 -8 -17
-17z"/>
<path d="M2329 3223 c-12 -16 -12 -17 1 -7 8 6 22 14 30 17 13 5 12 6 -1 6 -9
1 -23 -7 -30 -16z"/>
<path d="M2390 3230 c12 -8 12 -10 -5 -10 -11 0 -31 -10 -45 -21 l-25 -20 68
3 c37 2 67 1 67 -2 -1 -18 -23 -28 -80 -36 l-65 -9 27 -27 c37 -38 80 -37 119
1 36 37 38 79 6 109 -13 13 -36 22 -53 22 -22 0 -26 -3 -14 -10z m-12 -107
c-10 -2 -26 -2 -35 0 -10 3 -2 5 17 5 19 0 27 -2 18 -5z"/>
<path d="M2894 3218 l-19 -22 25 17 c13 9 36 17 50 16 l25 -1 -25 -8 c-14 -4
-21 -8 -16 -9 5 -1 3 -8 -4 -16 -7 -9 -19 -14 -26 -11 -11 4 -29 -22 -21 -30
2 -2 26 12 55 31 70 47 75 27 6 -25 l-55 -42 22 -19 c76 -65 180 36 118 115
-28 35 -106 38 -135 4z m96 -57 c0 -11 -70 -54 -77 -47 -4 3 66 56 74 56 2 0
3 -4 3 -9z"/>
<path d="M3200 3229 c34 -14 36 -17 14 -34 -11 -8 -14 -15 -6 -15 6 0 12 -7
12 -16 0 -9 5 -12 12 -8 7 5 8 3 3 -6 -6 -10 -17 -4 -42 23 -41 45 -59 48 -37
6 8 -17 14 -40 11 -50 -3 -11 -1 -17 4 -13 5 3 9 -4 9 -15 0 -16 6 -21 24 -21
34 0 75 38 82 77 8 43 -30 83 -78 82 -32 0 -32 -1 -8 -10z"/>
<path d="M3426 3233 c12 -2 30 -13 40 -24 19 -22 13 -24 -19 -8 -21 12 -21 12
-4 -15 l18 -27 -31 16 c-37 19 -55 11 -25 -11 20 -15 20 -15 0 -30 -12 -9 -21
-11 -23 -4 -5 13 -22 13 -22 0 0 -21 45 -50 77 -50 75 0 113 95 57 139 -16 12
-40 20 -58 20 -22 -1 -25 -3 -10 -6z"/>
<path d="M709 3213 c-13 -16 -12 -17 4 -4 16 13 21 21 13 21 -2 0 -10 -8 -17
-17z"/>
<path d="M2140 3205 c-15 -18 -34 -20 -24 -2 5 8 2 7 -9 -2 -10 -8 -15 -16
-12 -19 3 -3 -2 -17 -11 -31 l-17 -26 29 26 c16 14 40 35 53 47 14 12 20 22
14 22 -6 0 -16 -7 -23 -15z"/>
<path d="M2613 3213 c4 -6 -10 -18 -34 -27 -57 -23 -44 -30 17 -10 49 17 78
34 57 34 -6 0 -19 3 -29 7 -11 4 -15 3 -11 -4z"/>
<path d="M2760 1913 c0 -5 82 -9 183 -9 121 -1 165 1 132 6 -64 11 -315 12
-315 3z"/>
<path d="M426 1845 c-9 -26 -7 -32 5 -12 6 10 9 21 6 23 -2 3 -7 -2 -11 -11z"/>
<path d="M3491 1773 c0 -12 -4 -30 -7 -40 -5 -17 -5 -17 6 0 6 10 9 28 7 40
-4 22 -4 22 -6 0z"/>
<path d="M3228 753 c6 -2 18 -2 25 0 6 3 1 5 -13 5 -14 0 -19 -2 -12 -5z"/>
<path d="M2890 539 c0 -10 -7 -22 -16 -27 -14 -8 -14 -10 0 -21 9 -8 16 -22
16 -32 0 -11 3 -19 8 -19 4 0 6 20 4 45 -4 39 -1 46 19 53 23 9 23 9 -4 14
-21 4 -27 1 -27 -13z"/>
<path d="M2974 536 c-8 -26 -25 -38 -39 -26 -7 6 -11 2 -11 -10 0 -13 7 -18
26 -17 19 2 26 -3 28 -20 6 -42 18 -23 15 22 -3 34 0 45 11 45 26 0 27 18 1
22 -19 4 -26 0 -31 -16z"/>
<path d="M3066 532 c-3 -9 -18 -25 -33 -34 l-28 -17 30 2 c24 2 31 -2 33 -20
6 -43 19 -23 16 22 -3 34 -1 45 10 45 8 0 18 5 21 10 3 6 -5 10 -19 10 -15 0
-27 -7 -30 -18z"/>
<path d="M747 433 c-4 -3 -7 -11 -7 -17 0 -6 5 -5 12 2 6 6 9 14 7 17 -3 3 -9
2 -12 -2z"/>
<path d="M3405 317 c-11 -7 -24 -19 -30 -27 -12 -19 -16 -78 -6 -85 5 -2 8 10
9 27 1 41 41 81 81 81 17 0 28 4 25 9 -7 12 -56 9 -79 -5z"/>
<path d="M330 270 c-9 -6 -10 -10 -3 -10 6 0 15 5 18 10 8 12 4 12 -15 0z"/>
<path d="M351 256 c-14 -15 -29 -22 -39 -19 -11 5 -14 2 -9 -10 3 -8 0 -21 -8
-27 -10 -8 -14 -8 -18 2 -3 7 -6 0 -6 -15 -1 -38 39 -77 79 -77 43 0 80 39 80
85 0 19 -2 35 -4 35 -3 0 -25 -21 -50 -47 -56 -59 -61 -43 -6 20 56 63 50 71
-10 12 -27 -26 -46 -53 -43 -59 4 -6 -1 -5 -10 3 -17 13 -16 16 10 45 15 17
37 39 48 48 11 9 17 19 14 22 -3 3 -16 -5 -28 -18z"/>
<path d="M942 262 l-21 -19 30 0 c19 0 25 3 17 9 -10 6 -10 10 2 18 8 5 10 10
4 10 -6 0 -20 -8 -32 -18z"/>
<path d="M541 257 c-8 -11 -6 -13 11 -13 11 1 23 -5 25 -11 3 -7 -2 -13 -11
-13 -9 0 -13 -6 -10 -14 3 -8 -4 -16 -20 -20 -55 -14 -14 -76 49 -76 71 1 108
78 64 134 -16 20 -29 26 -59 26 -20 0 -43 -6 -49 -13z"/>
<path d="M2872 210 c-23 -53 -28 -85 -12 -75 6 3 10 17 10 31 0 30 18 32 22 2
2 -16 10 -24 28 -25 14 -1 18 0 8 3 -10 3 -18 13 -19 22 0 9 -2 27 -5 40 -2
14 1 22 10 22 8 0 16 7 20 15 4 11 -1 15 -17 15 -18 0 -28 -11 -45 -50z"/>
<path d="M2980 235 c0 -16 -6 -25 -15 -25 -8 0 -15 -4 -15 -10 0 -5 4 -10 9
-10 5 0 17 -3 27 -7 14 -5 16 -1 12 25 -4 26 -1 32 14 32 10 0 18 5 18 10 0 6
-11 10 -25 10 -20 0 -25 -5 -25 -25z"/>
<path d="M3080 240 c0 -5 5 -10 10 -10 6 0 10 5 10 10 0 6 -4 10 -10 10 -5 0
-10 -4 -10 -10z"/>
<path d="M3110 205 c-19 -19 -29 -35 -24 -35 6 0 25 16 44 35 19 19 29 35 24
35 -6 0 -25 -16 -44 -35z"/>
<path d="M3016 206 c3 -8 12 -12 21 -9 12 5 12 7 1 14 -20 13 -28 11 -22 -5z"/>
<path d="M1754 202 c-7 -5 -7 -14 2 -30 9 -19 13 -20 17 -8 4 9 2 16 -4 16 -6
0 -9 7 -5 15 6 17 5 18 -10 7z"/>
<path d="M2024 180 c4 -33 16 -54 16 -28 0 11 6 14 18 11 10 -2 24 2 31 10 10
13 8 16 -11 22 -61 17 -58 18 -54 -15z"/>
<path d="M2132 185 c-9 -10 -9 -15 -2 -15 21 0 4 -24 -21 -31 -22 -6 -22 -7
-3 -8 24 -1 38 13 47 47 6 25 -2 28 -21 7z"/>
<path d="M2337 187 c-3 -8 -1 -20 4 -28 6 -10 9 -7 9 14 0 29 -5 35 -13 14z"/>
<path d="M2360 189 c0 -5 5 -7 10 -4 6 3 10 8 10 11 0 2 -4 4 -10 4 -5 0 -10
-5 -10 -11z"/>
<path d="M2432 175 c0 -16 2 -22 5 -12 2 9 2 23 0 30 -3 6 -5 -1 -5 -18z"/>
<path d="M2674 191 c19 -7 19 -8 -2 -13 -17 -5 -20 -11 -15 -25 7 -17 8 -17
11 0 4 18 4 18 19 0 8 -10 11 -12 8 -5 -4 7 1 22 11 33 17 18 16 19 -17 18
-26 0 -30 -2 -15 -8z"/>
<path d="M2753 166 c1 -23 5 -32 14 -29 18 7 17 63 -1 63 -9 0 -14 -11 -13
-34z"/>
<path d="M3062 160 c0 -19 2 -27 5 -17 2 9 2 25 0 35 -3 9 -5 1 -5 -18z"/>
<path d="M1570 150 c0 -5 4 -10 9 -10 6 0 13 5 16 10 3 6 -1 10 -9 10 -9 0
-16 -4 -16 -10z"/>
<path d="M1870 130 c8 -5 20 -10 25 -10 6 0 3 5 -5 10 -8 5 -19 10 -25 10 -5
0 -3 -5 5 -10z"/>
<path d="M1978 133 c7 -3 16 -2 19 1 4 3 -2 6 -13 5 -11 0 -14 -3 -6 -6z"/>
<path d="M2879 117 c5 -5 24 -7 42 -5 33 3 33 4 -8 8 -23 3 -39 2 -34 -3z"/>
<path d="M2613 113 c9 -2 23 -2 30 0 6 3 -1 5 -18 5 -16 0 -22 -2 -12 -5z"/>
<path d="M2983 113 c15 -2 37 -2 50 0 12 2 0 4 -28 4 -27 0 -38 -2 -22 -4z"/>
<path d="M3273 103 c9 -2 23 -2 30 0 6 3 -1 5 -18 5 -16 0 -22 -2 -12 -5z"/>
<path d="M1323 33 c32 -2 81 -2 110 0 29 2 3 3 -58 3 -60 0 -84 -1 -52 -3z"/>
</g>
</svg>
