<?xml version="1.0" encoding="UTF-8"?>
<svg id="Layer_1" data-name="Layer 1" xmlns="http://www.w3.org/2000/svg" viewBox="0 0 419.14 471">
  <defs>
    <style>
      .cls-1 {
        stroke-width: 2.2px;
      }

      .cls-1, .cls-2, .cls-3, .cls-4 {
        fill: none;
        stroke: #000;
      }

      .cls-2, .cls-4 {
        stroke-width: 4px;
      }

      .cls-3 {
        stroke-width: 3.32px;
      }

      .cls-3, .cls-4 {
        stroke-miterlimit: 10;
      }
    </style>
  </defs>
  <path class="cls-4" d="M172.81,8.16V76.16s1,21,13,39,34,45,34,45l184,231s8,10,12,8c0,0,3,0,0-18l-14-67s-4-22-11-34-26-39-26-39L194.81,17.16S181.81,.16,176.81,2.16c0,0-4,2-4,6Z"/>
  <path class="cls-4" d="M190.81,51.16s0,29,17,62c0,0,24,49,53,76s24-11,24-11c0,0-3-29-29-72s-49-66-60-63c0,0-5,2-5,8Z"/>
  <path class="cls-4" d="M324.81,209.16s-17,17,25,90,52,52,52,52c0,0,3-8-5-38s-60-117-72-104Z"/>
  <path class="cls-4" d="M172.31,4.66L27.31,90.66s-1,1-2,5-11,81-11,81c0,0,0,18,8,30,0,0,8,12,17,23s215,233,215,233l5,5s5.59,3,11.3,0,145.2-68.5,145.2-68.5"/>
  <ellipse class="cls-3" cx="73.3" cy="99.49" rx="27.62" ry="11.32" transform="translate(-46.77 70.25) rotate(-39.93)"/>
  <path id="path899" class="cls-1" d="M86.39,90.36l-12.08,7.45"/>
  <path class="cls-1" d="M80,90.36s-15.69,4.3-15.69,14.3c0,0,0,4,5,2s11.04-7.87,11.04-7.87"/>
  <path class="cls-2" d="M56.31,250.66s-4.59,4.59-6.41,11.1"/>
  <polyline class="cls-2" points="61.31 255.66 42.31 266.66 42.31 277.7 47.31 282.66 73.8 267.56"/>
  <line class="cls-2" x1="68.92" y1="262.25" x2="42.31" y2="277.7"/>
  <polyline class="cls-4" points="136.09 335.04 89.23 358.66 79.31 363.66"/>
  <path class="cls-4" d="M48.59,311.41c2.87,11.58,8.96,25.88,21.3,41.45"/>
  <path class="cls-4" d="M46.28,294.07c-.1-7.23,1.03-11.41,1.03-11.41"/>
  <path class="cls-4" d="M144.68,344.34l-55.37,28.32s12,22,37,9l35.02-18"/>
  <line class="cls-4" x1="85.31" y1="361.66" x2="92.98" y2="370.79"/>
  <line class="cls-4" x1="139.31" y1="340.66" x2="90.38" y2="366.23"/>
  <path class="cls-4" d="M48.59,311.41l-34.47,19.9c-3.85,2.23-8.82,.9-11.05-2.96-.73-1.26-1.07-2.65-1.07-4.02,0-2.8,1.45-5.53,4.04-7.03l40.24-23.23c.06,4.63,.62,10.51,2.31,17.34Z"/>
  <path class="cls-4" d="M85.94,362.41l-24.49,16.06c-3.86,2.53-9.09,1.44-11.62-2.42-.92-1.41-1.36-3-1.36-4.58,0-2.74,1.33-5.43,3.78-7.04l17.64-11.57c2.8,3.54,5.93,7.15,9.42,10.8l5.26-2.65"/>
</svg>