<?xml version="1.0" standalone="no"?>
<!DOCTYPE svg PUBLIC "-//W3C//DTD SVG 20010904//EN"
 "http://www.w3.org/TR/2001/REC-SVG-20010904/DTD/svg10.dtd">
<svg version="1.0" xmlns="http://www.w3.org/2000/svg"
 width="200.000000pt" height="200.000000pt" viewBox="0 0 200.000000 200.000000"
 preserveAspectRatio="xMidYMid meet">

<g transform="translate(0.000000,200.000000) scale(0.100000,-0.100000)"
fill="#000000" stroke="none">
<path d="M866 1939 c-308 -40 -607 -268 -733 -560 -59 -135 -75 -217 -76 -374
0 -154 11 -219 64 -356 87 -225 304 -442 532 -529 124 -48 206 -63 347 -63
195 0 355 46 507 145 370 242 529 690 389 1100 -148 435 -570 696 -1030 637z
m313 -74 c177 -37 326 -121 457 -257 164 -170 244 -371 244 -608 0 -247 -82
-443 -259 -621 -178 -177 -374 -259 -621 -259 -237 0 -438 80 -608 244 -136
131 -220 280 -257 457 -19 90 -19 268 0 358 71 338 342 612 678 685 85 19 279
19 366 1z"/>
<path d="M850 1786 c-284 -61 -508 -253 -601 -514 -125 -355 4 -737 318 -942
136 -89 259 -125 433 -125 225 0 411 76 565 230 154 154 230 340 230 565 0
174 -36 298 -124 432 -113 173 -274 288 -481 345 -78 21 -260 26 -340 9z m237
-56 c338 -44 600 -307 643 -647 18 -139 -11 -289 -81 -423 -138 -267 -440
-428 -732 -390 -473 60 -769 537 -608 980 104 284 373 477 681 488 14 1 58 -3
97 -8z"/>
<path d="M991 1666 c-8 -9 -11 -45 -9 -97 3 -70 6 -84 21 -87 15 -3 17 6 17
92 0 95 -7 118 -29 92z"/>
<path d="M880 1596 c0 -43 23 -116 36 -116 22 0 25 20 11 75 -9 32 -19 51 -30
53 -10 2 -17 -3 -17 -12z"/>
<path d="M1085 1598 c-15 -45 -25 -100 -20 -108 15 -25 34 -7 44 40 6 28 11
58 11 65 0 18 -29 20 -35 3z"/>
<path d="M714 1536 c-4 -10 5 -34 20 -57 23 -33 30 -38 42 -28 12 10 11 17
-10 53 -27 45 -43 55 -52 32z"/>
<path d="M1231 1504 c-25 -42 -27 -64 -6 -64 17 0 55 56 55 83 0 29 -27 19
-49 -19z"/>
<path d="M817 1523 c-12 -12 -7 -41 7 -46 22 -9 41 19 26 38 -14 16 -23 19
-33 8z"/>
<path d="M1142 1498 c2 -15 10 -23 23 -23 30 0 27 39 -3 43 -20 3 -23 0 -20
-20z"/>
<path d="M673 1453 c-18 -6 -16 -40 1 -46 8 -3 20 1 27 9 10 12 9 18 -2 28 -8
8 -20 12 -26 9z"/>
<path d="M1284 1435 c-4 -9 -2 -21 4 -27 15 -15 44 -1 40 19 -4 23 -36 29 -44
8z"/>
<path d="M927 1420 c-222 -39 -383 -262 -347 -482 36 -229 259 -394 482 -358
280 45 440 342 323 597 -79 174 -271 276 -458 243z m225 -92 c72 -33 136 -97
174 -174 26 -53 29 -69 29 -154 0 -85 -3 -101 -29 -154 -37 -76 -96 -135 -172
-172 -53 -26 -69 -29 -154 -29 -85 0 -101 3 -154 29 -76 37 -140 101 -174 174
-23 49 -27 70 -27 152 0 77 4 104 22 143 45 98 116 163 216 199 75 27 193 21
269 -14z"/>
<path d="M1095 1277 c-11 -7 -49 -12 -85 -13 -114 -1 -217 -62 -264 -156 -32
-64 -34 -114 -6 -123 28 -9 37 0 45 45 10 59 55 114 119 145 75 36 152 33 222
-11 59 -36 83 -69 99 -131 10 -41 16 -48 36 -48 22 0 24 4 23 47 0 62 -44 133
-106 173 -26 17 -49 41 -54 57 -8 24 -11 26 -29 15z"/>
</g>
</svg>
