<?xml version="1.0" encoding="UTF-8" standalone="no"?>
<svg
   xmlns:dc="http://purl.org/dc/elements/1.1/"
   xmlns:cc="http://creativecommons.org/ns#"
   xmlns:rdf="http://www.w3.org/1999/02/22-rdf-syntax-ns#"
   xmlns:svg="http://www.w3.org/2000/svg"
   xmlns="http://www.w3.org/2000/svg"
   xmlns:sodipodi="http://sodipodi.sourceforge.net/DTD/sodipodi-0.dtd"
   xmlns:inkscape="http://www.inkscape.org/namespaces/inkscape"
   version="1.1"
   id="Layer_1"
   x="0px"
   y="0px"
   viewBox="0 0 667 666"
   style="enable-background:new 0 0 667 666;"
   xml:space="preserve"
   sodipodi:docname="icon.svg"
   inkscape:version="1.0 (4035a4fb49, 2020-05-01)"><metadata
   id="metadata319"><rdf:RDF><cc:Work
       rdf:about=""><dc:format>image/svg+xml</dc:format><dc:type
         rdf:resource="http://purl.org/dc/dcmitype/StillImage" /></cc:Work></rdf:RDF></metadata><defs
   id="defs317"><marker
     inkscape:stockid="Arrow1Send"
     orient="auto"
     refY="0"
     refX="0"
     id="Arrow1Send"
     style="overflow:visible"
     inkscape:isstock="true"><path
       inkscape:connector-curvature="0"
       id="path4714"
       d="M 0,0 5,-5 -12.5,0 5,5 Z"
       style="fill:#000000;fill-opacity:1;fill-rule:evenodd;stroke:#000000;stroke-width:1.00000003pt;stroke-opacity:1"
       transform="matrix(-0.2,0,0,-0.2,-1.2,0)" /></marker><clipPath
     id="clipPath69-0"><path
       inkscape:connector-curvature="0"
       id="path71-2"
       d="m 409.441,126.252 v -43.63 h 147.796 v 43.63" /></clipPath><clipPath
     id="clipPath101-1"><path
       inkscape:connector-curvature="0"
       id="path103-6"
       d="m 409.441,126.252 v -43.63 h 147.796 v 43.63" /></clipPath><clipPath
     id="clipPath69"><path
       inkscape:connector-curvature="0"
       id="path71"
       d="m 409.441,126.252 v -43.63 h 147.796 v 43.63" /></clipPath><clipPath
     id="clipPath101"><path
       inkscape:connector-curvature="0"
       id="path103"
       d="m 409.441,126.252 v -43.63 h 147.796 v 43.63" /></clipPath></defs><sodipodi:namedview
   pagecolor="#ffffff"
   bordercolor="#666666"
   borderopacity="1"
   objecttolerance="10"
   gridtolerance="10"
   guidetolerance="10"
   inkscape:pageopacity="0"
   inkscape:pageshadow="2"
   inkscape:window-width="1680"
   inkscape:window-height="987"
   id="namedview315"
   showgrid="false"
   inkscape:zoom="0.50113275"
   inkscape:cx="309.78835"
   inkscape:cy="207.97235"
   inkscape:window-x="-8"
   inkscape:window-y="-8"
   inkscape:window-maximized="1"
   inkscape:current-layer="Layer_1"
   inkscape:document-rotation="0" />
<style
   type="text/css"
   id="style2">
	.st0{fill:none;stroke:#000000;stroke-width:2;stroke-linecap:round;stroke-linejoin:round;stroke-miterlimit:10;}
</style>


<path
   sodipodi:nodetypes="ccccccccccccccccccccccccccccccccccccccccccccccccc"
   id="path865"
   d="m 591.6596,502.86077 -66.84856,69.84177 H 150.65868 L 82.812389,501.86303 v -77.32482 l 7.946099,-0.11576 V 406.08003 H 80.816909 V 376.14784 H 91.792045 V 359.18626 H 80.816909 v -27.93671 h 9.977397 V 311.29476 H 80.567474 L 80.442757,283.35805 H 90.794306 V 264.401 H 79.320299 V 235.46655 H 90.794306 V 216.5095 H 77.823691 L 76.825951,135.69259 158.6406,61.859856 h 369.16366 l 63.85534,65.850814 v 87.80109 h -12.97062 v 18.95705 h 12.97062 v 30.43106 l -12.48217,0.23421 -0.11845,16.22849 h 13.59835 v 28.93445 h -13.96835 v 17.95932 h 14.96609 v 29.93218 h -14.96609 v 15.96384 h 13.96835 v 29.93219 h -13.96835 v 18.95705 h 11.97288 z"
   style="fill:none;stroke:#000000;stroke-width:1px;stroke-linecap:butt;stroke-linejoin:miter;stroke-opacity:1" /><path
   sodipodi:nodetypes="assassa"
   id="path867"
   d="m 156.64512,506.85173 c 0.36105,-15.05387 15.87173,-32.92541 30.92993,-32.92541 298.32415,0 0,0 298.32415,0 14.18055,0 27.0841,18.74561 26.93897,32.92541 -0.15211,14.86148 -14.07219,33.92314 -28.93445,33.92314 -298.32415,0 0,0 -298.32415,0 -14.86226,0 -29.29081,-19.06515 -28.93445,-33.92314 z"
   style="fill:none;stroke:#000000;stroke-width:1px;stroke-linecap:butt;stroke-linejoin:miter;stroke-opacity:1" /><path
   id="path869"
   d="M 562.72515,449.98057 V 149.66094 L 506.85173,92.789785 H 162.63156 l -54.87568,57.868895 v 303.31285"
   style="fill:none;stroke:#000000;stroke-width:1px;stroke-linecap:butt;stroke-linejoin:miter;stroke-opacity:1" /><path
   sodipodi:nodetypes="ccccccccccccccccccccccccccccc"
   id="path871"
   d="m 592.51382,148.75139 22.09379,-0.0882 v 317.2812 h -21.59753 l 1.70845,-42.9028 h -16.02955 v -18.95705 h 13.96835 v 0 h 3.75406 l 0.32245,-29.95986 -18.0449,0.0277 v -15.96384 h 14.96609 l 3.43935,0.0882 -0.35275,-30.02037 h -18.05269 v -17.95932 h 17.93683 l -0.35275,-29.02264 -17.21408,0.0882 0.11845,-16.22849 17.32215,-0.23421 -0.88188,-30.69563 -16.92872,0.26457 v -18.95705 h 12.97062 l 3.98835,0.0303 z"
   style="fill:none;stroke:#000000;stroke-width:1px;stroke-linecap:butt;stroke-linejoin:miter;stroke-opacity:1" /><path
   sodipodi:nodetypes="cccccccccccccccccccccccccccc"
   id="path873"
   d="m 81.689932,465.32081 -7.8572,-0.37415 -14.966094,-36.41749 -2.993219,-100.27283 0.49887,-95.28414 11.474005,-83.81013 h 8.106635 l 0.623587,67.34743 h 14.21779 v 18.95705 H 77.82369 l -0.124717,29.05916 13.095333,-0.12471 v 18.95705 H 77.948408 l 0.124717,28.06143 12.721181,-0.12472 v 19.95479 H 79.3203 l -0.124718,28.06143 12.596463,-0.12472 v 16.96158 H 79.195582 l 0.249435,29.93219 h 11.313471 v 18.34242 l -9.442708,0.11576 z"
   style="fill:none;stroke:#000000;stroke-width:1px;stroke-linecap:butt;stroke-linejoin:miter;stroke-opacity:1" /><path
   id="path875"
   d="m 166.49999,490.68113 0.35276,32.80614 18.34322,10.40625 18.69597,0.17638 18.16685,-11.11176 18.34322,11.28814 20.28336,-0.35276 18.34322,-11.46451 16.75583,10.759 19.2251,0.17638 19.22511,-10.759 19.04873,9.70074 19.57786,-0.17638 18.34322,-9.87712 16.9322,10.75901 20.98888,0.17637 18.51959,-11.46451 18.16685,10.58263 19.93061,-0.35276 18.34322,-10.05349 -0.35275,-32.45339 -18.87236,-10.40625 -19.40148,-0.17638 -19.40148,10.58263 -17.10858,-10.22987 -19.40148,-0.35276 -19.22511,10.58263 -18.69597,-10.759 -18.87235,0.35275 -18.5196,10.759 -18.5196,-9.70074 -19.57786,0.17638 -17.63771,9.87712 -17.46133,-9.87712 h -20.28337 l -19.22511,10.58263 -17.10858,-10.58263 -19.40148,0.17638 z"
   style="fill:none;stroke:#000000;stroke-width:1px;stroke-linecap:butt;stroke-linejoin:miter;stroke-opacity:1" /><path
   d="m 207.86633,521.90066 a 20.547934,20.547934 0 0 1 -29.01287,-1.48538 20.547934,20.547934 0 0 1 1.46882,-29.01371 20.547934,20.547934 0 0 1 29.01454,1.45224 20.547934,20.547934 0 0 1 -1.43568,29.01537"
   sodipodi:arc-type="arc"
   sodipodi:open="true"
   sodipodi:end="0.83455228"
   sodipodi:start="0.83683651"
   sodipodi:ry="20.547934"
   sodipodi:rx="20.547934"
   sodipodi:cy="506.64325"
   sodipodi:cx="194.10301"
   sodipodi:type="arc"
   id="path877"
   style="fill:#000000;fill-rule:evenodd;stroke-width:1.29444;fill-opacity:1" /><path
   style="fill:#000000;fill-opacity:1;fill-rule:evenodd;stroke-width:1.29444"
   id="path879"
   sodipodi:type="arc"
   sodipodi:cx="250.72006"
   sodipodi:cy="506.64325"
   sodipodi:rx="20.547934"
   sodipodi:ry="20.547934"
   sodipodi:start="0.83683651"
   sodipodi:end="0.83455228"
   sodipodi:open="true"
   sodipodi:arc-type="arc"
   d="m 264.48338,521.90066 a 20.547934,20.547934 0 0 1 -29.01287,-1.48538 20.547934,20.547934 0 0 1 1.46882,-29.01371 20.547934,20.547934 0 0 1 29.01454,1.45224 20.547934,20.547934 0 0 1 -1.43567,29.01537" /><path
   style="fill:#000000;fill-opacity:1;fill-rule:evenodd;stroke-width:1.29444"
   id="path881"
   sodipodi:type="arc"
   sodipodi:cx="306.98438"
   sodipodi:cy="506.64325"
   sodipodi:rx="20.547934"
   sodipodi:ry="20.547934"
   sodipodi:start="0.83683651"
   sodipodi:end="0.83455228"
   sodipodi:open="true"
   sodipodi:arc-type="arc"
   d="m 320.74769,521.90066 a 20.547934,20.547934 0 0 1 -29.01287,-1.48538 20.547934,20.547934 0 0 1 1.46882,-29.01371 20.547934,20.547934 0 0 1 29.01455,1.45224 20.547934,20.547934 0 0 1 -1.43568,29.01537" /><path
   d="m 377.36473,521.90066 a 20.547934,20.547934 0 0 1 -29.01287,-1.48538 20.547934,20.547934 0 0 1 1.46882,-29.01371 20.547934,20.547934 0 0 1 29.01454,1.45224 20.547934,20.547934 0 0 1 -1.43568,29.01537"
   sodipodi:arc-type="arc"
   sodipodi:open="true"
   sodipodi:end="0.83455228"
   sodipodi:start="0.83683651"
   sodipodi:ry="20.547934"
   sodipodi:rx="20.547934"
   sodipodi:cy="506.64325"
   sodipodi:cx="363.60141"
   sodipodi:type="arc"
   id="path883"
   style="fill:#000000;fill-opacity:1;fill-rule:evenodd;stroke-width:1.29444" /><path
   d="m 432.21803,521.90066 a 20.547934,20.547934 0 0 1 -29.01287,-1.48538 20.547934,20.547934 0 0 1 1.46882,-29.01371 20.547934,20.547934 0 0 1 29.01454,1.45224 20.547934,20.547934 0 0 1 -1.43568,29.01537"
   sodipodi:arc-type="arc"
   sodipodi:open="true"
   sodipodi:end="0.83455228"
   sodipodi:start="0.83683651"
   sodipodi:ry="20.547934"
   sodipodi:rx="20.547934"
   sodipodi:cy="506.64325"
   sodipodi:cx="418.45471"
   sodipodi:type="arc"
   id="path885"
   style="fill:#000000;fill-opacity:1;fill-rule:evenodd;stroke-width:1.29444" /><path
   style="fill:#000000;fill-opacity:1;fill-rule:evenodd;stroke-width:1.29444"
   id="path887"
   sodipodi:type="arc"
   sodipodi:cx="475.07175"
   sodipodi:cy="506.64325"
   sodipodi:rx="20.547934"
   sodipodi:ry="20.547934"
   sodipodi:start="0.83683651"
   sodipodi:end="0.83455228"
   sodipodi:open="true"
   sodipodi:arc-type="arc"
   d="m 488.83506,521.90066 a 20.547934,20.547934 0 0 1 -29.01286,-1.48538 20.547934,20.547934 0 0 1 1.46881,-29.01371 20.547934,20.547934 0 0 1 29.01455,1.45224 20.547934,20.547934 0 0 1 -1.43568,29.01537" /><path
   d="m 518.72012,133.64234 a 5.5818391,5.5818391 0 0 1 -7.88133,-0.40351 5.5818391,5.5818391 0 0 1 0.399,-7.88156 5.5818391,5.5818391 0 0 1 7.88179,0.3945 5.5818391,5.5818391 0 0 1 -0.39,7.88202"
   sodipodi:arc-type="arc"
   sodipodi:open="true"
   sodipodi:end="0.83455228"
   sodipodi:start="0.83683651"
   sodipodi:ry="5.5818391"
   sodipodi:rx="5.5818391"
   sodipodi:cy="129.49767"
   sodipodi:cx="514.98132"
   sodipodi:type="arc"
   id="path891"
   style="fill:#000000;fill-opacity:1;fill-rule:evenodd;stroke-width:0.351634" /><text
   id="text895"
   y="175.60217"
   x="131.70164"
   style="font-style:normal;font-variant:normal;font-weight:bold;font-stretch:condensed;font-size:34.6667px;line-height:1.25;font-family:Arial;-inkscape-font-specification:'Arial, Bold Condensed';font-variant-ligatures:normal;font-variant-caps:normal;font-variant-numeric:normal;font-variant-east-asian:normal;letter-spacing:0px;word-spacing:0px;fill:#000000;fill-opacity:1;stroke:none"
   xml:space="preserve"><tspan
     y="175.60217"
     x="131.70164"
     id="tspan893"
     sodipodi:role="line">1 Gang Zigbee Switch Module</tspan></text><text
   id="text899"
   y="375.15009"
   x="138.68581"
   style="font-style:normal;font-variant:normal;font-weight:bold;font-stretch:condensed;font-size:34.6667px;line-height:1.25;font-family:Arial;-inkscape-font-specification:'Arial, Bold Condensed';font-variant-ligatures:normal;font-variant-caps:normal;font-variant-numeric:normal;font-variant-east-asian:normal;letter-spacing:0px;word-spacing:0px;fill:#000000;fill-opacity:1;stroke:none"
   xml:space="preserve"><tspan
     y="375.15009"
     x="138.68581"
     id="tspan897"
     sodipodi:role="line">With Neutral</tspan></text><text
   id="text903"
   y="468.93762"
   x="179.58861"
   style="font-style:normal;font-variant:normal;font-weight:bold;font-stretch:normal;font-size:45.3333px;line-height:1.25;font-family:Arial;-inkscape-font-specification:'Arial, Bold';font-variant-ligatures:normal;font-variant-caps:normal;font-variant-numeric:normal;font-variant-east-asian:normal;letter-spacing:0px;word-spacing:0px;fill:#000000;fill-opacity:1;stroke:none"
   xml:space="preserve"><tspan
     y="468.93762"
     x="179.58861"
     id="tspan901"
     sodipodi:role="line">N  L  L1L1S1S1</tspan></text></svg>
