<svg class="svg-icon" style="width: 1em;height: 1em;vertical-align: middle;fill: currentColor;overflow: hidden;" viewBox="0 0 1024 1024" version="1.1" xmlns="http://www.w3.org/2000/svg"><path d="M631.466667 230.4l-17.066667-8.533333 17.066667-38.4 17.066666 8.533333c76.8 38.4 140.8 98.133333 179.2 174.933333l8.533334 17.066667-38.4 21.333333-8.533334-17.066666c-34.133333-68.266667-89.6-123.733333-157.866666-157.866667z m17.066666 601.6l-17.066666 8.533333-17.066667-38.4 17.066667-8.533333c68.266667-34.133333 123.733333-89.6 162.133333-157.866667l8.533333-17.066666 38.4 21.333333-8.533333 17.066667c-42.666667 76.8-106.666667 136.533333-183.466667 174.933333zM674.133333 170.666667l-17.066666-8.533334 17.066666-38.4 17.066667 8.533334c85.333333 42.666667 157.866667 110.933333 200.533333 196.266666l8.533334 17.066667-38.4 21.333333-8.533334-17.066666c-38.4-81.066667-102.4-140.8-179.2-179.2z m192 490.666666l38.4 21.333334-8.533333 17.066666c-42.666667 85.333333-115.2 153.6-200.533333 196.266667l-17.066667 8.533333-17.066667-38.4 17.066667-8.533333c76.8-38.4 140.8-98.133333 183.466667-174.933333l4.266666-21.333334zM392.533333 793.6l17.066667 8.533333-17.066667 38.4-17.066666-8.533333c-76.8-38.4-140.8-98.133333-179.2-174.933333l-12.8-17.066667 38.4-21.333333 8.533333 17.066666c38.4 68.266667 93.866667 123.733333 162.133333 157.866667z m0-610.133333l17.066667 38.4-17.066667 8.533333c-68.266667 34.133333-123.733333 89.6-162.133333 157.866667l-8.533333 17.066666-38.4-17.066666 8.533333-17.066667c42.666667-81.066667 106.666667-140.8 183.466667-179.2l17.066666-8.533333zM157.866667 366.933333l-38.4-21.333333 8.533333-17.066667c42.666667-85.333333 115.2-153.6 200.533333-196.266666l17.066667-8.533334 17.066667 38.4-12.8 8.533334c-76.8 38.4-145.066667 98.133333-183.466667 174.933333l-8.533333 21.333333z m192 490.666667l17.066666 8.533333-17.066666 38.4-17.066667-8.533333c-85.333333-42.666667-157.866667-110.933333-200.533333-196.266667l-8.533334-17.066666 38.4-21.333334 8.533334 17.066667c38.4 76.8 102.4 140.8 179.2 179.2zM512 981.333333C251.733333 981.333333 42.666667 772.266667 42.666667 512S251.733333 42.666667 512 42.666667s469.333333 213.333333 469.333333 469.333333-213.333333 469.333333-469.333333 469.333333z m0-981.333333C230.4 0 0 230.4 0 512s230.4 512 512 512 512-230.4 512-512S793.6 0 512 0z m426.666667 512c0 25.6-17.066667 42.666667-42.666667 42.666667s-42.666667-17.066667-42.666667-42.666667 17.066667-42.666667 42.666667-42.666667 42.666667 21.333333 42.666667 42.666667z m-426.666667 85.333333c-46.933333 0-85.333333-38.4-85.333333-85.333333s38.4-85.333333 85.333333-85.333333 85.333333 38.4 85.333333 85.333333-38.4 85.333333-85.333333 85.333333z m0-213.333333c-72.533333 0-128 59.733333-128 128s59.733333 128 128 128 128-59.733333 128-128-59.733333-128-128-128z m0 298.666667c-93.866667 0-170.666667-76.8-170.666667-170.666667s76.8-170.666667 170.666667-170.666667 170.666667 76.8 170.666667 170.666667-76.8 170.666667-170.666667 170.666667z m0-384c-119.466667 0-213.333333 93.866667-213.333333 213.333333s93.866667 213.333333 213.333333 213.333333 213.333333-93.866667 213.333333-213.333333-98.133333-213.333333-213.333333-213.333333z"  /></svg>