<?xml version="1.0" encoding="UTF-8"?>
<svg width="958px" height="758px" viewBox="0 0 958 758" version="1.1" xmlns="http://www.w3.org/2000/svg" xmlns:xlink="http://www.w3.org/1999/xlink">
    <!-- Generator: Sketch 55.2 (78181) - https://sketchapp.com -->
    <title>alarm_rain</title>
    <desc>Created with Sketch.</desc>
    <g id="Capability-Icons" stroke="none" stroke-width="1" fill="none" fill-rule="evenodd">
        <g id="alarm_rain" transform="translate(-2.000000, -85.000000)" fill="#000000">
            <g transform="translate(2.000000, 85.000000)">
                <path d="M267.234374,134.277331 C255.13504,125.059911 241.08488,118.555361 226.013628,115.325593 C288.563538,44.180119 380.195668,0 479.764375,0 C633.940557,0 769.596671,106.423184 806.907172,254.645829 C881.866131,283.412502 938.980937,348.238807 957.433413,426.63812 C960.137073,438.32036 952.904784,449.935073 941.279048,452.636169 C929.653312,455.404793 918.027576,448.179361 915.256325,436.564648 C899.304735,368.767137 848.137979,313.259614 781.763139,291.650845 C774.395667,289.287386 768.920756,283.142393 767.29856,275.579324 C738.707361,140.929686 617.786191,43.2175367 479.764375,43.2175367 C397.451189,43.2175367 321.369183,77.8366949 267.234374,134.277331 Z M119.850315,641 C152.369138,666.504038 193.119595,682.180722 237.854443,683.647409 C238.395175,683.714936 239.003498,683.714936 239.54423,683.782463 L274.624212,683.782463 C286.587905,683.782463 296.253488,693.438882 296.253488,705.391232 C296.253488,717.343582 286.587905,727 274.624212,727 L237.178528,727 C236.029473,727 235.0156,726.864945 233.934137,726.72989 C162.860267,723.734761 100.23069,691.14348 57.7050046,641 L119.850315,641 Z" id="Combined-Shape" fill-rule="nonzero"></path>
                <path d="M363.488879,641 L371.51236,641 C408.374916,641 441.757466,622.16964 460.829994,590.635723 C479.895023,559.101807 481.057525,520.803659 463.934999,488.167367 L451.858575,465.148845 C462.281911,447.472567 469.920105,428.418698 469.920105,409.562557 C469.920105,397.635768 479.578712,388 491.533771,388 C503.48883,388 513.147438,397.635768 513.147438,409.562557 C513.147438,449.318521 546.986334,489.815698 569.410512,516.634129 C575.894612,524.315789 581.433114,530.986706 585.82339,537.051175 C590.821551,543.991623 601.493298,560.83737 601.898555,561.443817 C613.921156,580.44582 620,603.42342 620,629.770169 C620,700.454926 562.386071,758 491.533771,758 C424.473625,758 369.212179,706.449932 363.488879,641 Z" id="Combined-Shape" fill-rule="nonzero"></path>
                <path d="M888.755848,537.024035 C884.365572,530.96067 878.82707,524.290969 872.34297,516.610706 C849.918791,489.79716 816.079895,449.307356 816.079895,409.558631 C816.079895,397.634013 806.421288,388 794.466229,388 C782.51117,388 772.852562,397.634013 772.852562,409.558631 C772.852562,449.239985 739.013666,489.79716 716.589488,516.543336 C710.578187,523.684632 705.444941,529.882739 701.18975,535.60925 C696.461761,542.009468 685.790013,557.639476 682.818134,562.624909 C671.808673,580.815004 666,604.057902 666,629.793518 C666,700.465404 723.681472,758 794.533771,758 C865.386071,758 923,700.465404 923,629.793518 C923,603.451566 916.921156,580.47815 904.898555,561.479607 C903.682786,559.660597 893.55138,543.626366 888.755848,537.024035 Z" id="Path" fill-rule="nonzero"></path>
                <path d="M204,519 C189.084859,519 177,506.915141 177,492 C177,477.084859 189.084859,465 204,465 C218.915141,465 231,477.084859 231,492 C231,506.915141 218.915141,519 204,519 L204,519 Z M186,312.745931 C186,302.391464 194.28303,294 204.496302,294 C214.71697,294 223,302.391464 223,312.745931 L223,420.269054 C223,430.608536 214.71697,439 204.496302,439 C194.28303,439 186,430.608536 186,420.269054 L186,312.745931 Z M403.73869,519.15285 L236.578406,200.684989 C222.799938,174.438337 185.199165,174.438337 171.420697,200.684989 L4.26041324,519.15285 C-8.5900102,543.634267 9.17755255,573 36.8392678,573 L203.999552,573 L204.007036,573 L371.159835,573 C398.829035,573 416.589113,543.634267 403.73869,519.15285 L403.73869,519.15285 Z" id="Fill-14"></path>
            </g>
        </g>
    </g>
</svg>