<?xml version="1.0" encoding="UTF-8" standalone="no"?>
<svg
   inkscape:version="1.3 (0e150ed6c4, 2023-07-21)"
   sodipodi:docname="icon.svg"
   xml:space="preserve"
   style="enable-background:new 0 0 667 666;"
   viewBox="0 0 667 666"
   y="0px"
   x="0px"
   id="Layer_1"
   version="1.1"
   xmlns:inkscape="http://www.inkscape.org/namespaces/inkscape"
   xmlns:sodipodi="http://sodipodi.sourceforge.net/DTD/sodipodi-0.dtd"
   xmlns="http://www.w3.org/2000/svg"
   xmlns:svg="http://www.w3.org/2000/svg"
   xmlns:rdf="http://www.w3.org/1999/02/22-rdf-syntax-ns#"
   xmlns:cc="http://creativecommons.org/ns#"
   xmlns:dc="http://purl.org/dc/elements/1.1/"><metadata
   id="metadata319"><rdf:RDF><cc:Work
       rdf:about=""><dc:format>image/svg+xml</dc:format><dc:type
         rdf:resource="http://purl.org/dc/dcmitype/StillImage" /></cc:Work></rdf:RDF></metadata><defs
   id="defs317"><marker
     inkscape:isstock="true"
     style="overflow:visible"
     id="Arrow1Send"
     refX="0"
     refY="0"
     orient="auto"
     inkscape:stockid="Arrow1Send"><path
       transform="matrix(-0.2,0,0,-0.2,-1.2,0)"
       style="fill:#000000;fill-opacity:1;fill-rule:evenodd;stroke:#000000;stroke-width:1.00000003pt;stroke-opacity:1"
       d="M 0,0 5,-5 -12.5,0 5,5 Z"
       id="path4714"
       inkscape:connector-curvature="0" /></marker><clipPath
     id="clipPath69-0"><path
       d="m 409.441,126.252 v -43.63 h 147.796 v 43.63"
       id="path71-2"
       inkscape:connector-curvature="0" /></clipPath><clipPath
     id="clipPath101-1"><path
       d="m 409.441,126.252 v -43.63 h 147.796 v 43.63"
       id="path103-6"
       inkscape:connector-curvature="0" /></clipPath><clipPath
     id="clipPath69"><path
       d="m 409.441,126.252 v -43.63 h 147.796 v 43.63"
       id="path71"
       inkscape:connector-curvature="0" /></clipPath><clipPath
     id="clipPath101"><path
       d="m 409.441,126.252 v -43.63 h 147.796 v 43.63"
       id="path103"
       inkscape:connector-curvature="0" /></clipPath></defs><sodipodi:namedview
   inkscape:document-rotation="0"
   inkscape:current-layer="Layer_1"
   inkscape:window-maximized="1"
   inkscape:window-y="-8"
   inkscape:window-x="-8"
   inkscape:cy="504.43854"
   inkscape:cx="229.99576"
   inkscape:zoom="0.70870873"
   showgrid="false"
   id="namedview315"
   inkscape:window-height="987"
   inkscape:window-width="1680"
   inkscape:pageshadow="2"
   inkscape:pageopacity="0"
   guidetolerance="10"
   gridtolerance="10"
   objecttolerance="10"
   borderopacity="1"
   bordercolor="#666666"
   pagecolor="#ffffff"
   inkscape:pagecheckerboard="0"
   inkscape:showpageshadow="2"
   inkscape:deskcolor="#d1d1d1" />&#10;<style
   id="style2"
   type="text/css">&#10;	.st0{fill:none;stroke:#000000;stroke-width:2;stroke-linecap:round;stroke-linejoin:round;stroke-miterlimit:10;}&#10;</style>&#10;&#10;&#10;<path
   style="fill:none;stroke:#000000;stroke-width:3;stroke-linecap:butt;stroke-linejoin:miter;stroke-opacity:1;stroke-dasharray:none"
   d="M 314.59074,54.366947 C 507.76475,67.651613 546.99884,252.28383 534.77541,383.7966 524.84863,490.5996 432.76335,610.85678 309.71821,613.79235 148.37193,617.64171 74.742456,421.54041 86.656494,297.38219 97.870893,180.51503 203.88312,46.753533 314.59074,54.366947 Z"
   id="path1"
   sodipodi:nodetypes="sasss" /><path
   style="fill:none;stroke:#000000;stroke-width:3;stroke-linecap:butt;stroke-linejoin:miter;stroke-opacity:1;stroke-dasharray:none"
   d="m 314.37617,54.407071 c 0,0 242.24971,-1.359746 242.36254,286.819879 0.10453,266.98004 -248.27807,272.65267 -248.27807,272.65267"
   id="path2"
   sodipodi:nodetypes="csc" /><path
   style="fill:none;stroke:#000000;stroke-width:3;stroke-linecap:butt;stroke-linejoin:miter;stroke-opacity:1;stroke-dasharray:none"
   d="m 424.71609,83.955506 c 0,0 -26.21049,-12.276639 -32.45339,-16.226694 -2.60845,-1.650438 -4.60386,-6.042565 -3.0866,-8.730667 1.93266,-3.424064 7.70339,-3.182456 11.5527,-2.381091 15.63131,3.254187 36.50106,11.530323 53.61865,19.930614 27.18479,13.340677 42.48459,23.545232 62.26112,41.801372 6.29741,5.81328 6.52595,24.86918 6.52595,24.86918 0,0 -4.6188,-9.83405 -11.99364,-13.58104 -4.59836,-2.33633 -14.15802,-1.97109 -21.87077,-7.05509 -10.92614,-7.20217 -31.04237,-17.63771 -31.04237,-17.63771 v -0.35275"
   id="path3"
   sodipodi:nodetypes="csassscsscc" /><path
   style="fill:none;stroke:#000000;stroke-width:3;stroke-linecap:butt;stroke-linejoin:miter;stroke-opacity:1;stroke-dasharray:none"
   d="m 479.91276,116.4861 c 0,0 86.86326,69.93148 86.80335,237.2126 -0.0493,137.60092 -102.51775,203.28945 -102.51775,203.28945"
   id="path4"
   sodipodi:nodetypes="csc" /><path
   style="fill:none;stroke:#000000;stroke-width:3;stroke-linecap:butt;stroke-linejoin:miter;stroke-opacity:1;stroke-dasharray:none"
   d="m 522.31669,141.67903 c 0,0 78.1715,89.12715 66.84856,212.01967 -11.29012,122.53625 -76.32708,184.58183 -76.32708,184.58183"
   id="path5"
   sodipodi:nodetypes="csc" /><path
   style="fill:none;stroke:#000000;stroke-width:3;stroke-linecap:butt;stroke-linejoin:miter;stroke-opacity:1;stroke-dasharray:none"
   d="m 523.8133,526.05822 c 0,0 0.77203,14.71876 -3.49209,19.95479 -11.82056,14.5148 -33.72151,29.52766 -53.12963,40.40845 -18.37045,10.29904 -38.11817,19.33631 -58.86664,22.94802 -6.06379,1.05553 -14.23046,3.97439 -18.45818,-0.49887 -1.9426,-2.05542 -2.29552,-7.24723 0.24943,-8.48079 11.05306,-5.3575 29.18389,-15.46497 29.18389,-15.46497 l 17.21101,-9.22909 26.93897,-18.20874 c 0,0 18.34582,-10.3461 28.18614,-13.96836 6.90734,-2.54262 21.42023,-5.36285 21.42023,-5.36285"
   id="path6"
   sodipodi:nodetypes="csaaascccac" /><path
   style="fill:none;stroke:#000000;stroke-width:1px;stroke-linecap:butt;stroke-linejoin:miter;stroke-opacity:1"
   d="m 390.11619,600.38982 c 0,0 -8.46451,4.08029 -26.68953,7.98192 -12.66889,2.71217 -38.66241,3.99095 -38.66241,3.99095"
   id="path7"
   sodipodi:nodetypes="csc" /><path
   style="fill:none;fill-rule:evenodd;stroke-width:3;stroke:#000000;stroke-opacity:1;stroke-dasharray:none"
   id="path8"
   sodipodi:type="arc"
   sodipodi:cx="265.27118"
   sodipodi:cy="337.23306"
   sodipodi:rx="98.771179"
   sodipodi:ry="128.40254"
   sodipodi:start="2.4065996"
   sodipodi:end="2.4059364"
   sodipodi:open="true"
   sodipodi:arc-type="arc"
   d="m 191.99922,423.3375 a 98.771179,128.40254 0 0 1 7.02564,-181.34371 98.771179,128.40254 0 0 1 139.49631,9.10326 98.771179,128.40254 0 0 1 -6.97938,181.34673 98.771179,128.40254 0 0 1 -139.49863,-9.04313" /><path
   style="fill:none;fill-rule:evenodd;stroke:#000000;stroke-width:3;stroke-dasharray:none;stroke-opacity:1"
   id="path9"
   sodipodi:type="arc"
   sodipodi:cx="262.53735"
   sodipodi:cy="505.84961"
   sodipodi:rx="21.687029"
   sodipodi:ry="24.12463"
   sodipodi:start="2.4065996"
   sodipodi:end="2.4059364"
   sodipodi:open="true"
   sodipodi:arc-type="arc"
   d="m 246.44915,522.02715 a 21.687029,24.12463 0 0 1 1.54261,-34.07136 21.687029,24.12463 0 0 1 30.62898,1.71034 21.687029,24.12463 0 0 1 -1.53245,34.07194 21.687029,24.12463 0 0 1 -30.62949,-1.69905" /><path
   style="fill:none;fill-rule:evenodd;stroke:#000000;stroke-width:3;stroke-dasharray:none;stroke-opacity:1"
   id="path10"
   sodipodi:type="arc"
   sodipodi:cx="264.12476"
   sodipodi:cy="505.49686"
   sodipodi:rx="3.6736507"
   sodipodi:ry="4.0865655"
   sodipodi:start="2.4065996"
   sodipodi:end="2.4059364"
   sodipodi:open="true"
   sodipodi:arc-type="arc"
   d="m 261.39951,508.23723 a 3.6736507,4.0865655 0 0 1 0.26131,-5.77148 3.6736507,4.0865655 0 0 1 5.18836,0.28972 3.6736507,4.0865655 0 0 1 -0.25958,5.77158 3.6736507,4.0865655 0 0 1 -5.18845,-0.28781" /></svg>
