<?xml version="1.0" encoding="UTF-8" standalone="no"?>
<svg
   xmlns:dc="http://purl.org/dc/elements/1.1/"
   xmlns:cc="http://creativecommons.org/ns#"
   xmlns:rdf="http://www.w3.org/1999/02/22-rdf-syntax-ns#"
   xmlns:svg="http://www.w3.org/2000/svg"
   xmlns="http://www.w3.org/2000/svg"
   xmlns:sodipodi="http://sodipodi.sourceforge.net/DTD/sodipodi-0.dtd"
   xmlns:inkscape="http://www.inkscape.org/namespaces/inkscape"
   inkscape:version="1.0.2 (e86c870879, 2021-01-15, custom)"
   sodipodi:docname="icon.svg"
   xml:space="preserve"
   style="enable-background:new 0 0 667 666;"
   viewBox="0 0 667 666"
   y="0px"
   x="0px"
   id="Layer_1"
   version="1.1"><metadata
   id="metadata319"><rdf:RDF><cc:Work
       rdf:about=""><dc:format>image/svg+xml</dc:format><dc:type
         rdf:resource="http://purl.org/dc/dcmitype/StillImage" /></cc:Work></rdf:RDF></metadata><defs
   id="defs317"><marker
     inkscape:isstock="true"
     style="overflow:visible"
     id="Arrow1Send"
     refX="0"
     refY="0"
     orient="auto"
     inkscape:stockid="Arrow1Send"><path
       transform="matrix(-0.2,0,0,-0.2,-1.2,0)"
       style="fill:#000000;fill-opacity:1;fill-rule:evenodd;stroke:#000000;stroke-width:1.00000003pt;stroke-opacity:1"
       d="M 0,0 5,-5 -12.5,0 5,5 Z"
       id="path4714"
       inkscape:connector-curvature="0" /></marker><clipPath
     id="clipPath69-0"><path
       d="m 409.441,126.252 v -43.63 h 147.796 v 43.63"
       id="path71-2"
       inkscape:connector-curvature="0" /></clipPath><clipPath
     id="clipPath101-1"><path
       d="m 409.441,126.252 v -43.63 h 147.796 v 43.63"
       id="path103-6"
       inkscape:connector-curvature="0" /></clipPath><clipPath
     id="clipPath69"><path
       d="m 409.441,126.252 v -43.63 h 147.796 v 43.63"
       id="path71"
       inkscape:connector-curvature="0" /></clipPath><clipPath
     id="clipPath101"><path
       d="m 409.441,126.252 v -43.63 h 147.796 v 43.63"
       id="path103"
       inkscape:connector-curvature="0" /></clipPath></defs><sodipodi:namedview
   inkscape:document-rotation="0"
   inkscape:current-layer="Layer_1"
   inkscape:window-maximized="1"
   inkscape:window-y="-8"
   inkscape:window-x="1672"
   inkscape:cy="112.68994"
   inkscape:cx="413.59204"
   inkscape:zoom="0.70870873"
   showgrid="false"
   id="namedview315"
   inkscape:window-height="987"
   inkscape:window-width="1680"
   inkscape:pageshadow="2"
   inkscape:pageopacity="0"
   guidetolerance="10"
   gridtolerance="10"
   objecttolerance="10"
   borderopacity="1"
   bordercolor="#666666"
   pagecolor="#ffffff" />
<style
   id="style2"
   type="text/css">
	.st0{fill:none;stroke:#000000;stroke-width:2;stroke-linecap:round;stroke-linejoin:round;stroke-miterlimit:10;}
</style>


<path
   style="fill:none;stroke:#000000;stroke-width:5;stroke-linecap:butt;stroke-linejoin:miter;stroke-opacity:1;stroke-miterlimit:4;stroke-dasharray:none"
   d="M 368.27541,96.654658 C 473.61782,110.65241 528.96149,194.67213 529.13134,276.55931 529.40666,409.29501 428.78935,502.54978 324.53389,517.1377 238.88093,529.12267 139.83063,505.61553 108.6483,373.21397 91.903245,302.11371 131.43856,213.02182 184.84321,159.44491 225.1842,118.97379 304.21139,88.141919 368.27541,96.654658 Z"
   id="path867"
   sodipodi:nodetypes="ssasss" /><path
   style="fill:none;stroke:#000000;stroke-width:3;stroke-linecap:butt;stroke-linejoin:miter;stroke-opacity:1;stroke-miterlimit:4;stroke-dasharray:none"
   d="M 365.13132,105.57491 C 465.90146,118.94214 518.843,199.17723 519.00547,277.37585 519.26884,404.13252 423.01871,493.18668 323.28835,507.1175 241.35305,518.56261 146.60192,496.11434 116.77302,369.67674 100.75477,301.77916 138.5741,216.70037 189.66078,165.53681 228.25081,126.88869 303.84792,97.445627 365.13132,105.57491 Z"
   id="path869"
   sodipodi:nodetypes="ssasss" /><path
   style="fill:none;stroke:#000000;stroke-width:5;stroke-linecap:butt;stroke-linejoin:miter;stroke-opacity:1;stroke-miterlimit:4;stroke-dasharray:none"
   d="M 403.60721,104.43986 C 523.73858,149.07587 569.874,222.86587 570.05081,307.42437 570.3374,444.49017 466.54448,545.97577 357.57605,558.84412 255.61059,570.88547 143.87866,526.05748 109.42426,376.36611"
   id="path871"
   sodipodi:nodetypes="csac" /><path
   style="fill:none;stroke:#000000;stroke-width:5;stroke-linecap:butt;stroke-linejoin:miter;stroke-opacity:1;stroke-miterlimit:4;stroke-dasharray:none"
   d="m 330.14801,218.076 c 42.00946,5.45571 64.07994,38.20298 64.14766,70.11907 0.1098,51.73465 -40.01534,88.08135 -81.59133,93.76709 -34.15752,4.67123 -76.25318,-9.31635 -86.09294,-56.09527 -5.78017,-27.47932 5.4249,-60.5084 30.38574,-83.31795 21.26231,-19.42979 47.60279,-27.79084 73.15087,-24.47294 z"
   id="path873"
   sodipodi:nodetypes="ssasss" /><path
   style="fill:none;stroke:#000000;stroke-width:5;stroke-linecap:butt;stroke-linejoin:miter;stroke-opacity:1;stroke-miterlimit:4;stroke-dasharray:none"
   d="m 309.71821,264.21292 c 0,0 18.39854,25.87653 22.22352,40.91949 3.67762,14.46345 -12.74337,28.34241 -25.3983,28.22033 -10.41955,-0.10051 -22.88161,-10.53684 -20.45975,-23.63453 3.10781,-16.80739 23.63453,-45.50529 23.63453,-45.50529 z"
   id="path875"
   sodipodi:nodetypes="csasc" /><path
   style="fill:none;stroke:#000000;stroke-width:5;stroke-linecap:butt;stroke-linejoin:miter;stroke-opacity:1;stroke-miterlimit:4;stroke-dasharray:none"
   d="m 323.12287,308.65995 c 0,0 0.61084,6.31025 -3.52755,10.58263 -5.10324,5.26848 -11.99363,6.70232 -11.99363,6.70232"
   id="path877"
   sodipodi:nodetypes="csc" /></svg>
