<?xml version="1.0" encoding="utf-8"?>
<!-- Svg Vector Icons : http://www.onlinewebfonts.com/icon -->
<!DOCTYPE svg PUBLIC "-//W3C//DTD SVG 1.1//EN" "http://www.w3.org/Graphics/SVG/1.1/DTD/svg11.dtd">
<svg version="1.1" xmlns="http://www.w3.org/2000/svg" xmlns:xlink="http://www.w3.org/1999/xlink" x="0px" y="0px" viewBox="0 0 1000 1000" enable-background="new 0 0 1000 1000" xml:space="preserve">
<metadata> Svg Vector Icons : http://www.onlinewebfonts.com/icon </metadata>
<g><g transform="translate(0.000000,512.000000) scale(0.100000,-0.100000)"><path d="M4550.2,4996.9c-1491.9-141.7-2821-946.1-3654.1-2210.1c-168.5-256.6-394.5-704.8-501.8-995.9C158.7,1149.3,57.2,383.3,116.6-306.2C172.1-942.1,321.5-1478.3,605-2058.6c250.9-513.3,570.7-953.7,988.2-1359.8C2208-4014,2956.8-4439.2,3763.1-4644.1c494.1-126.4,572.6-134.1,1237.2-134.1c542,0,626.3,3.8,833.1,42.1c1357.9,252.8,2495.5,997.8,3246.2,2127.7c967.2,1453.6,1087.8,3305.6,316,4878C8503.2,4092.9,6557.3,5186.5,4550.2,4996.9z M5488.7,4634.9c1514.9-168.5,2861.3-1095.5,3548.8-2445.7c346.7-679.9,501.8-1325.3,501.8-2083.7c0-750.7-155.1-1401.9-492.2-2062.6c-475-938.4-1239.1-1662.4-2217.8-2106.7c-831.2-377.3-1838.6-478.8-2786.6-283.4c-944.2,195.4-1896,769.9-2514.6,1518.7C813.7-1964.8,461.3-995.7,461.3,105.5c0,1097.4,356.2,2074.1,1066.8,2936c710.5,858,1773.4,1438.3,2899.6,1581.9C4669,4656,5251.2,4661.7,5488.7,4634.9z"/><path d="M6628.2,2557l-1139.5-354.3l-141.7,21.1c-411.8,59.4-869.5-1.9-1220-162.8c-455.8-210.7-802.5-549.7-1024.6-997.8c-147.5-298.8-208.8-532.4-222.2-854.2c-57.5-1271.7,978.7-2300.1,2244.6-2233.1C6293-1960.9,7197-957.4,7137.6,210.9c-5.7,120.7-26.8,285.4-46,365.8l-36.4,145.6l371.6,1061c203,584.1,375.4,1076.3,381.1,1095.5c5.8,19.2,0,32.6-15.3,30.6C7779.2,2909.4,7254.5,2750.4,6628.2,2557z M5274.2,1875.2c76.6-11.5,145.5-28.7,157.1-38.3c9.6-9.6,38.3-17.2,67-17.2c61.3,0,302.6-105.3,455.8-199.2c381.1-231.7,706.7-697.1,796.7-1145.3c34.5-168.5,40.2-511.3,9.6-678C6632-934.4,6057.5-1507,5312.5-1648.8c-178.1-32.5-612.9-11.5-781.4,38.3C3546.7-1317.4,3006.6-304.3,3316.9,661c141.7,444.3,482.6,836.9,907.8,1047.6C4552.1,1873.3,4916,1930.7,5274.2,1875.2z"/></g></g>
</svg>