<?xml version="1.0" encoding="UTF-8" standalone="no"?>
<svg
   inkscape:version="1.3 (0e150ed6c4, 2023-07-21)"
   sodipodi:docname="icon.svg"
   xml:space="preserve"
   style="enable-background:new 0 0 667 666;"
   viewBox="0 0 667 666"
   y="0px"
   x="0px"
   id="Layer_1"
   version="1.1"
   xmlns:inkscape="http://www.inkscape.org/namespaces/inkscape"
   xmlns:sodipodi="http://sodipodi.sourceforge.net/DTD/sodipodi-0.dtd"
   xmlns="http://www.w3.org/2000/svg"
   xmlns:svg="http://www.w3.org/2000/svg"
   xmlns:rdf="http://www.w3.org/1999/02/22-rdf-syntax-ns#"
   xmlns:cc="http://creativecommons.org/ns#"
   xmlns:dc="http://purl.org/dc/elements/1.1/"><metadata
   id="metadata319"><rdf:RDF><cc:Work
       rdf:about=""><dc:format>image/svg+xml</dc:format><dc:type
         rdf:resource="http://purl.org/dc/dcmitype/StillImage" /></cc:Work></rdf:RDF></metadata><defs
   id="defs317"><marker
     inkscape:isstock="true"
     style="overflow:visible"
     id="Arrow1Send"
     refX="0"
     refY="0"
     orient="auto"
     inkscape:stockid="Arrow1Send"><path
       transform="matrix(-0.2,0,0,-0.2,-1.2,0)"
       style="fill:#000000;fill-opacity:1;fill-rule:evenodd;stroke:#000000;stroke-width:1.00000003pt;stroke-opacity:1"
       d="M 0,0 5,-5 -12.5,0 5,5 Z"
       id="path4714"
       inkscape:connector-curvature="0" /></marker><clipPath
     id="clipPath69-0"><path
       d="m 409.441,126.252 v -43.63 h 147.796 v 43.63"
       id="path71-2"
       inkscape:connector-curvature="0" /></clipPath><clipPath
     id="clipPath101-1"><path
       d="m 409.441,126.252 v -43.63 h 147.796 v 43.63"
       id="path103-6"
       inkscape:connector-curvature="0" /></clipPath><clipPath
     id="clipPath69"><path
       d="m 409.441,126.252 v -43.63 h 147.796 v 43.63"
       id="path71"
       inkscape:connector-curvature="0" /></clipPath><clipPath
     id="clipPath101"><path
       d="m 409.441,126.252 v -43.63 h 147.796 v 43.63"
       id="path103"
       inkscape:connector-curvature="0" /></clipPath></defs><sodipodi:namedview
   inkscape:document-rotation="0"
   inkscape:current-layer="Layer_1"
   inkscape:window-maximized="1"
   inkscape:window-y="-8"
   inkscape:window-x="-8"
   inkscape:cy="336.52753"
   inkscape:cx="-33.158897"
   inkscape:zoom="0.70870873"
   showgrid="false"
   id="namedview315"
   inkscape:window-height="987"
   inkscape:window-width="1680"
   inkscape:pageshadow="2"
   inkscape:pageopacity="0"
   guidetolerance="10"
   gridtolerance="10"
   objecttolerance="10"
   borderopacity="1"
   bordercolor="#666666"
   pagecolor="#ffffff"
   inkscape:pagecheckerboard="0"
   inkscape:showpageshadow="2"
   inkscape:deskcolor="#d1d1d1" />&#10;<style
   id="style2"
   type="text/css">&#10;	.st0{fill:none;stroke:#000000;stroke-width:2;stroke-linecap:round;stroke-linejoin:round;stroke-miterlimit:10;}&#10;</style>&#10;&#10;&#10;<path
   style="fill:none;stroke:#000000;stroke-width:3;stroke-linecap:butt;stroke-linejoin:miter;stroke-opacity:1;stroke-dasharray:none"
   d="m 268.39196,106.75814 c 1.03508,77.29768 2.99322,321.27216 2.99322,321.27216 0,0 9.03435,9.33973 67.84629,10.97513 50.07191,1.39236 65.85082,-12.97061 65.85082,-12.97061 0,0 -0.90321,-255.51758 -0.99774,-315.28572 -0.0228,-14.439465 -14.25644,-27.020105 -26.93897,-33.923149 -12.03348,-6.549768 -27.20895,-4.232749 -40.90733,-3.990959 -15.09619,0.266463 -31.70521,-1.355823 -44.89828,5.986438 -10.53026,5.860346 -23.10937,15.886646 -22.94801,27.93671 z"
   id="path1"
   sodipodi:nodetypes="scscsaaas" /><path
   style="fill:none;stroke:#000000;stroke-width:3;stroke-linecap:butt;stroke-linejoin:miter;stroke-opacity:1;stroke-dasharray:none"
   d="m 268.39196,127.71067 c 0,0 18.90328,-3.19865 68.84403,-4.9887 37.19217,-1.3331 65.85082,3.99096 65.85082,3.99096"
   id="path2"
   sodipodi:nodetypes="csc" /><path
   style="fill:none;stroke:#000000;stroke-width:3;stroke-linecap:butt;stroke-linejoin:miter;stroke-opacity:1;stroke-dasharray:none"
   d="m 271.63461,428.0303 c 0,0 -7.15952,17.85728 64.35421,17.95931 77.22031,0.11017 68.84403,-20.95253 68.84403,-20.95253"
   id="path3"
   sodipodi:nodetypes="csc" /><path
   style="fill:none;stroke:#000000;stroke-width:3;stroke-linecap:butt;stroke-linejoin:miter;stroke-opacity:1;stroke-dasharray:none"
   d="m 294.08375,442.49752 1.74605,151.65642 5.23813,15.46497 4.9887,-15.46497 -1.24718,-150.15981"
   id="path4" /><path
   style="fill:none;stroke:#000000;stroke-width:3;stroke-linecap:butt;stroke-linejoin:miter;stroke-opacity:1;stroke-dasharray:none"
   d="m 331.24955,445.74017 1.24718,161.13495 5.23813,15.46497 4.9887,-15.46497 0.49886,-160.88551"
   id="path5"
   sodipodi:nodetypes="ccccc" /><path
   style="fill:none;stroke:#000000;stroke-width:3;stroke-linecap:butt;stroke-linejoin:miter;stroke-opacity:1;stroke-dasharray:none"
   d="m 370.16139,443.99413 0.49888,151.65642 5.23813,15.46497 4.9887,-15.46497 -0.24944,-152.90359"
   id="path6"
   sodipodi:nodetypes="ccccc" /><path
   style="fill:none;fill-rule:evenodd;stroke:#000000;stroke-opacity:1;stroke-width:1.00903606;stroke-dasharray:none"
   id="path7"
   sodipodi:type="arc"
   sodipodi:cx="280.9884"
   sodipodi:cy="355.07059"
   sodipodi:rx="6.6100249"
   sodipodi:ry="6.111155"
   sodipodi:start="2.4065996"
   sodipodi:end="2.4059364"
   sodipodi:open="true"
   sodipodi:arc-type="arc"
   d="m 276.08485,359.16862 a 6.6100249,6.111155 0 0 1 0.47018,-8.63082 6.6100249,6.111155 0 0 1 9.33545,0.43325 6.6100249,6.111155 0 0 1 -0.46707,8.63097 6.6100249,6.111155 0 0 1 -9.33562,-0.4304" /><path
   style="fill:none;fill-rule:evenodd;stroke:#000000;stroke-width:2;stroke-opacity:1;stroke-dasharray:none"
   id="path8"
   sodipodi:type="arc"
   sodipodi:cx="280.9884"
   sodipodi:cy="355.07059"
   sodipodi:rx="8.9328766"
   sodipodi:ry="8.2586975"
   sodipodi:start="2.4065996"
   sodipodi:end="2.4059364"
   sodipodi:open="true"
   sodipodi:arc-type="arc"
   d="m 274.36168,360.60872 a 8.9328766,8.2586975 0 0 1 0.6354,-11.66381 8.9328766,8.2586975 0 0 1 12.61606,0.58551 8.9328766,8.2586975 0 0 1 -0.63122,11.66401 8.9328766,8.2586975 0 0 1 -12.61627,-0.58165" /><path
   style="fill:none;fill-rule:evenodd;stroke:#000000;stroke-opacity:1;stroke-width:1.00903606;stroke-dasharray:none"
   id="path9"
   sodipodi:type="arc"
   sodipodi:cx="394.73071"
   sodipodi:cy="355.07059"
   sodipodi:rx="6.6100249"
   sodipodi:ry="6.111155"
   sodipodi:start="2.4065996"
   sodipodi:end="2.4059364"
   sodipodi:open="true"
   sodipodi:arc-type="arc"
   d="m 389.82716,359.16862 a 6.6100249,6.111155 0 0 1 0.47018,-8.63082 6.6100249,6.111155 0 0 1 9.33545,0.43325 6.6100249,6.111155 0 0 1 -0.46707,8.63097 6.6100249,6.111155 0 0 1 -9.33562,-0.4304" /><path
   style="fill:none;fill-rule:evenodd;stroke:#000000;stroke-width:2;stroke-opacity:1;stroke-dasharray:none"
   id="path10"
   sodipodi:type="arc"
   sodipodi:cx="394.73071"
   sodipodi:cy="355.07059"
   sodipodi:rx="8.9328766"
   sodipodi:ry="8.2586975"
   sodipodi:start="2.4065996"
   sodipodi:end="2.4059364"
   sodipodi:open="true"
   sodipodi:arc-type="arc"
   d="m 388.10399,360.60872 a 8.9328766,8.2586975 0 0 1 0.6354,-11.66381 8.9328766,8.2586975 0 0 1 12.61606,0.58551 8.9328766,8.2586975 0 0 1 -0.63122,11.66401 8.9328766,8.2586975 0 0 1 -12.61627,-0.58165" /><path
   style="fill:none;fill-rule:evenodd;stroke:#000000;stroke-opacity:1;stroke-width:1.00903606;stroke-dasharray:none"
   id="path11"
   sodipodi:type="arc"
   sodipodi:cx="280.48953"
   sodipodi:cy="162.50684"
   sodipodi:rx="6.6100249"
   sodipodi:ry="6.111155"
   sodipodi:start="2.4065996"
   sodipodi:end="2.4059364"
   sodipodi:open="true"
   sodipodi:arc-type="arc"
   d="m 275.58598,166.60487 a 6.6100249,6.111155 0 0 1 0.47018,-8.63083 6.6100249,6.111155 0 0 1 9.33545,0.43326 6.6100249,6.111155 0 0 1 -0.46708,8.63097 6.6100249,6.111155 0 0 1 -9.33561,-0.4304" /><path
   style="fill:none;fill-rule:evenodd;stroke:#000000;stroke-width:2;stroke-opacity:1;stroke-dasharray:none"
   id="path12"
   sodipodi:type="arc"
   sodipodi:cx="280.48953"
   sodipodi:cy="162.50684"
   sodipodi:rx="8.9328766"
   sodipodi:ry="8.2586975"
   sodipodi:start="2.4065996"
   sodipodi:end="2.4059364"
   sodipodi:open="true"
   sodipodi:arc-type="arc"
   d="m 273.86281,168.04497 a 8.9328766,8.2586975 0 0 1 0.6354,-11.66381 8.9328766,8.2586975 0 0 1 12.61606,0.58551 8.9328766,8.2586975 0 0 1 -0.63122,11.664 8.9328766,8.2586975 0 0 1 -12.61627,-0.58164" /><path
   style="fill:none;fill-rule:evenodd;stroke:#000000;stroke-opacity:1;stroke-width:1.00903606;stroke-dasharray:none"
   id="path13"
   sodipodi:type="arc"
   sodipodi:cx="394.23184"
   sodipodi:cy="162.50684"
   sodipodi:rx="6.6100249"
   sodipodi:ry="6.111155"
   sodipodi:start="2.4065996"
   sodipodi:end="2.4059364"
   sodipodi:open="true"
   sodipodi:arc-type="arc"
   d="m 389.32829,166.60487 a 6.6100249,6.111155 0 0 1 0.47018,-8.63083 6.6100249,6.111155 0 0 1 9.33545,0.43326 6.6100249,6.111155 0 0 1 -0.46708,8.63097 6.6100249,6.111155 0 0 1 -9.33561,-0.4304" /><path
   style="fill:none;fill-rule:evenodd;stroke:#000000;stroke-width:2;stroke-opacity:1;stroke-dasharray:none"
   id="path14"
   sodipodi:type="arc"
   sodipodi:cx="394.23184"
   sodipodi:cy="162.50684"
   sodipodi:rx="8.9328766"
   sodipodi:ry="8.2586975"
   sodipodi:start="2.4065996"
   sodipodi:end="2.4059364"
   sodipodi:open="true"
   sodipodi:arc-type="arc"
   d="m 387.60512,168.04497 a 8.9328766,8.2586975 0 0 1 0.6354,-11.66381 8.9328766,8.2586975 0 0 1 12.61606,0.58551 8.9328766,8.2586975 0 0 1 -0.63122,11.664 8.9328766,8.2586975 0 0 1 -12.61627,-0.58164" /><path
   style="fill:none;fill-rule:evenodd;stroke:#000000;stroke-width:2;stroke-opacity:1;stroke-dasharray:none"
   id="path15"
   sodipodi:type="arc"
   sodipodi:cx="337.85956"
   sodipodi:cy="193.43677"
   sodipodi:rx="15.901433"
   sodipodi:ry="14.701325"
   sodipodi:start="2.4065996"
   sodipodi:end="2.4059364"
   sodipodi:open="true"
   sodipodi:arc-type="arc"
   d="m 326.06331,203.29521 a 15.901433,14.701325 0 0 1 1.13108,-20.76277 15.901433,14.701325 0 0 1 22.45788,1.04227 15.901433,14.701325 0 0 1 -1.12363,20.76312 15.901433,14.701325 0 0 1 -22.45825,-1.03539" /><path
   style="fill:none;fill-rule:evenodd;stroke:#000000;stroke-width:3;stroke-opacity:1;stroke-dasharray:none"
   id="path16"
   sodipodi:type="arc"
   sodipodi:cx="337.85956"
   sodipodi:cy="193.43677"
   sodipodi:rx="19.850281"
   sodipodi:ry="18.352148"
   sodipodi:start="2.4065996"
   sodipodi:end="2.4059364"
   sodipodi:open="true"
   sodipodi:arc-type="arc"
   d="m 323.13392,205.74339 a 19.850281,18.352148 0 0 1 1.41196,-25.91886 19.850281,18.352148 0 0 1 28.0349,1.3011 19.850281,18.352148 0 0 1 -1.40266,25.91929 19.850281,18.352148 0 0 1 -28.03537,-1.29251" /><path
   style="fill:none;stroke:#000000;stroke-width:2;stroke-linecap:butt;stroke-linejoin:miter;stroke-opacity:1;stroke-dasharray:none"
   d="m 308.78269,187.59277 c 0.0451,-11.35795 17.02161,-22.09951 29.20161,-21.96799 11.90051,0.1285 28.05809,10.17378 28.06142,22.07499 0.017,60.65187 -0.0221,60.59421 0.37416,112.37042 0.0937,12.24745 -16.9431,22.73915 -29.18389,22.32443 -12.27683,-0.41595 -27.80506,-12.0366 -27.68727,-24.31991 0.42057,-43.85662 -1.03854,-41.88916 -0.76603,-110.48194 z"
   id="path17"
   sodipodi:nodetypes="sassass" /></svg>
