<?xml version="1.0" encoding="UTF-8" standalone="no"?>
<svg
   xmlns:dc="http://purl.org/dc/elements/1.1/"
   xmlns:cc="http://creativecommons.org/ns#"
   xmlns:rdf="http://www.w3.org/1999/02/22-rdf-syntax-ns#"
   xmlns:svg="http://www.w3.org/2000/svg"
   xmlns="http://www.w3.org/2000/svg"
   xmlns:sodipodi="http://sodipodi.sourceforge.net/DTD/sodipodi-0.dtd"
   xmlns:inkscape="http://www.inkscape.org/namespaces/inkscape"
   version="1.1"
   id="Layer_1"
   x="0px"
   y="0px"
   viewBox="0 0 667 666"
   style="enable-background:new 0 0 667 666;"
   xml:space="preserve"
   sodipodi:docname="icon.svg"
   inkscape:version="1.0.2 (e86c870879, 2021-01-15, custom)"><metadata
   id="metadata319"><rdf:RDF><cc:Work
       rdf:about=""><dc:format>image/svg+xml</dc:format><dc:type
         rdf:resource="http://purl.org/dc/dcmitype/StillImage" /><dc:title /></cc:Work></rdf:RDF></metadata><defs
   id="defs317"><marker
     inkscape:stockid="Arrow1Send"
     orient="auto"
     refY="0"
     refX="0"
     id="Arrow1Send"
     style="overflow:visible"
     inkscape:isstock="true"><path
       inkscape:connector-curvature="0"
       id="path4714"
       d="M 0,0 5,-5 -12.5,0 5,5 Z"
       style="fill:#000000;fill-opacity:1;fill-rule:evenodd;stroke:#000000;stroke-width:1.00000003pt;stroke-opacity:1"
       transform="matrix(-0.2,0,0,-0.2,-1.2,0)" /></marker><clipPath
     id="clipPath69-0"><path
       inkscape:connector-curvature="0"
       id="path71-2"
       d="m 409.441,126.252 v -43.63 h 147.796 v 43.63" /></clipPath><clipPath
     id="clipPath101-1"><path
       inkscape:connector-curvature="0"
       id="path103-6"
       d="m 409.441,126.252 v -43.63 h 147.796 v 43.63" /></clipPath><clipPath
     id="clipPath69"><path
       inkscape:connector-curvature="0"
       id="path71"
       d="m 409.441,126.252 v -43.63 h 147.796 v 43.63" /></clipPath><clipPath
     id="clipPath101"><path
       inkscape:connector-curvature="0"
       id="path103"
       d="m 409.441,126.252 v -43.63 h 147.796 v 43.63" /></clipPath><pattern
     y="0"
     x="0"
     height="6"
     width="6"
     patternUnits="userSpaceOnUse"
     id="EMFhbasepattern" /><marker
     inkscape:isstock="true"
     style="overflow:visible"
     id="Arrow1Send-4"
     refX="0"
     refY="0"
     orient="auto"
     inkscape:stockid="Arrow1Send"><path
       transform="matrix(-0.2,0,0,-0.2,-1.2,0)"
       style="fill:#000000;fill-opacity:1;fill-rule:evenodd;stroke:#000000;stroke-width:1.00000003pt;stroke-opacity:1"
       d="M 0,0 5,-5 -12.5,0 5,5 Z"
       id="path4714-2"
       inkscape:connector-curvature="0" /></marker><clipPath
     id="clipPath69-0-5"><path
       d="m 409.441,126.252 v -43.63 h 147.796 v 43.63"
       id="path71-2-2"
       inkscape:connector-curvature="0" /></clipPath><clipPath
     id="clipPath101-1-4"><path
       d="m 409.441,126.252 v -43.63 h 147.796 v 43.63"
       id="path103-6-3"
       inkscape:connector-curvature="0" /></clipPath><clipPath
     id="clipPath69-2"><path
       d="m 409.441,126.252 v -43.63 h 147.796 v 43.63"
       id="path71-4"
       inkscape:connector-curvature="0" /></clipPath><clipPath
     id="clipPath101-3"><path
       d="m 409.441,126.252 v -43.63 h 147.796 v 43.63"
       id="path103-7"
       inkscape:connector-curvature="0" /></clipPath><pattern
     id="EMFhbasepattern-1"
     patternUnits="userSpaceOnUse"
     width="6"
     height="6"
     x="0"
     y="0" /><marker
     inkscape:isstock="true"
     style="overflow:visible"
     id="Arrow1Send-0"
     refX="0"
     refY="0"
     orient="auto"
     inkscape:stockid="Arrow1Send"><path
       transform="matrix(-0.2,0,0,-0.2,-1.2,0)"
       style="fill:#000000;fill-opacity:1;fill-rule:evenodd;stroke:#000000;stroke-width:1.00000003pt;stroke-opacity:1"
       d="M 0,0 5,-5 -12.5,0 5,5 Z"
       id="path4714-1"
       inkscape:connector-curvature="0" /></marker><clipPath
     id="clipPath69-0-3"><path
       d="m 409.441,126.252 v -43.63 h 147.796 v 43.63"
       id="path71-2-4"
       inkscape:connector-curvature="0" /></clipPath><clipPath
     id="clipPath101-1-9"><path
       d="m 409.441,126.252 v -43.63 h 147.796 v 43.63"
       id="path103-6-33"
       inkscape:connector-curvature="0" /></clipPath><clipPath
     id="clipPath69-3"><path
       d="m 409.441,126.252 v -43.63 h 147.796 v 43.63"
       id="path71-5"
       inkscape:connector-curvature="0" /></clipPath><clipPath
     id="clipPath101-0"><path
       d="m 409.441,126.252 v -43.63 h 147.796 v 43.63"
       id="path103-1"
       inkscape:connector-curvature="0" /></clipPath><pattern
     id="EMFhbasepattern-2"
     patternUnits="userSpaceOnUse"
     width="6"
     height="6"
     x="0"
     y="0" /></defs><sodipodi:namedview
   pagecolor="#ffffff"
   bordercolor="#666666"
   borderopacity="1"
   objecttolerance="10"
   gridtolerance="10"
   guidetolerance="10"
   inkscape:pageopacity="0"
   inkscape:pageshadow="2"
   inkscape:window-width="1680"
   inkscape:window-height="987"
   id="namedview315"
   showgrid="false"
   inkscape:zoom="1.0022655"
   inkscape:cx="272.53908"
   inkscape:cy="399.51817"
   inkscape:window-x="-8"
   inkscape:window-y="-8"
   inkscape:window-maximized="1"
   inkscape:current-layer="Layer_1"
   inkscape:document-rotation="0" />
<style
   type="text/css"
   id="style2">
	.st0{fill:none;stroke:#000000;stroke-width:2;stroke-linecap:round;stroke-linejoin:round;stroke-miterlimit:10;}
</style>


<style
   id="style2-2"
   type="text/css">
	.st0{fill:none;stroke:#000000;stroke-width:2;stroke-linecap:round;stroke-linejoin:round;stroke-miterlimit:10;}
</style><style
   id="style2-8"
   type="text/css">
	.st0{fill:none;stroke:#000000;stroke-width:2;stroke-linecap:round;stroke-linejoin:round;stroke-miterlimit:10;}
</style><path
   style="fill:none;stroke:#000000;stroke-width:6;stroke-linecap:butt;stroke-linejoin:miter;stroke-opacity:1;stroke-miterlimit:4;stroke-dasharray:none;fill-rule:evenodd"
   d="M 334.41101,107.23728 C 200.31257,106.65107 90.082328,208.79966 90.305082,368.98092 90.515685,520.42456 210.48603,608.78221 337.93855,608.14828 488.37326,607.40004 586.3745,494.72146 586.27752,361.92584 586.15941,200.19736 455.22396,107.76541 334.41101,107.23728 Z"
   id="path902"
   sodipodi:nodetypes="sssss" /><path
   style="fill:none;stroke:#000000;stroke-width:4;stroke-linecap:butt;stroke-linejoin:miter;stroke-opacity:1;stroke-miterlimit:4;stroke-dasharray:none;fill-rule:evenodd"
   d="M 336.81779,102.30366 C 201.3999,101.71169 90.085059,204.86535 90.310005,366.6227 90.522681,519.55646 211.67346,608.78349 340.38003,608.14333 492.29494,607.38773 591.26045,493.60046 591.16252,359.49821 591.04324,196.17841 458.81946,102.83699 336.81779,102.30366 Z"
   id="path904"
   sodipodi:nodetypes="sssss" /><path
   style="fill:none;stroke:#000000;stroke-width:3;stroke-linecap:butt;stroke-linejoin:miter;stroke-opacity:1;stroke-miterlimit:4;stroke-dasharray:none;fill-rule:evenodd"
   d="m 336.85443,264.95473 c -49.65379,-0.21706 -90.4697,37.60638 -90.38722,96.91808 0.078,56.07635 44.50045,88.7933 91.69339,88.55857 55.70276,-0.27706 91.99053,-41.99953 91.95462,-91.17091 -0.0437,-59.88461 -48.52634,-94.11018 -93.26079,-94.30574 z"
   id="path908"
   sodipodi:nodetypes="sssss" /><path
   style="fill:none;stroke:#000000;stroke-width:2;stroke-linecap:butt;stroke-linejoin:miter;stroke-opacity:1;stroke-miterlimit:4;stroke-dasharray:none;fill-rule:evenodd"
   d="m 338.9379,260.68385 c -50.79599,-0.22205 -92.5508,38.47145 -92.46643,99.14752 0.0798,57.3663 45.52411,90.83585 93.80265,90.59572 56.98412,-0.28343 94.10663,-42.96566 94.0699,-93.26815 -0.0447,-61.26216 -49.64262,-96.27503 -95.40612,-96.47509 z"
   id="path910"
   sodipodi:nodetypes="sssss" /><path
   style="fill:none;stroke:#000000;stroke-width:1;stroke-linecap:butt;stroke-linejoin:miter;stroke-miterlimit:4;stroke-dasharray:none;stroke-opacity:1;fill-rule:evenodd"
   d="m 343.22695,343.7213 -18.45818,3.99096 -3.49209,17.46044 12.47174,15.46497 18.95706,-4.9887 2.49435,-19.9548 z"
   id="path912" /><path
   style="fill:none;stroke:#000000;stroke-width:1;stroke-linecap:butt;stroke-linejoin:miter;stroke-miterlimit:4;stroke-dasharray:none;stroke-opacity:1;fill-rule:evenodd"
   d="m 343.22695,343.7213 3.49209,-22.44914 11.97287,-2.49435 21.95028,20.45366 -4.9887,13.46949 -20.45366,2.99321"
   id="path916" /><path
   style="fill:none;stroke:#000000;stroke-width:1;stroke-linecap:butt;stroke-linejoin:miter;stroke-miterlimit:4;stroke-dasharray:none;stroke-opacity:1;fill-rule:evenodd"
   d="m 375.65349,352.70096 10.47626,11.97287 -15.96383,26.93897 -17.46044,-15.96383"
   id="path918" /><path
   style="fill:none;stroke:#000000;stroke-width:1;stroke-linecap:butt;stroke-linejoin:miter;stroke-miterlimit:4;stroke-dasharray:none;stroke-opacity:1;fill-rule:evenodd"
   d="m 370.16592,391.6128 -10.97514,10.47627 -11.97287,10.47626 -18.45818,-11.474 4.98869,-20.45366"
   id="path920" /><path
   style="fill:none;stroke:#000000;stroke-width:1;stroke-linecap:butt;stroke-linejoin:miter;stroke-miterlimit:4;stroke-dasharray:none;stroke-opacity:1;fill-rule:evenodd"
   d="m 328.75973,401.09133 -11.47401,4.9887 -20.45366,-19.9548 5.48757,-16.96157 18.95705,-3.99096"
   id="path922" /><path
   style="fill:none;stroke:#000000;stroke-width:1;stroke-linecap:butt;stroke-linejoin:miter;stroke-miterlimit:4;stroke-dasharray:none;stroke-opacity:1;fill-rule:evenodd"
   d="m 302.31963,369.16366 -11.97288,-9.9774 6.48531,-14.96609 13.96835,-7.98192 13.96836,11.47401"
   id="path924" /><path
   style="fill:none;stroke:#000000;stroke-width:1;stroke-linecap:butt;stroke-linejoin:miter;stroke-miterlimit:4;stroke-dasharray:none;stroke-opacity:1;fill-rule:evenodd"
   d="m 310.80041,336.23825 7.48305,-13.96835 13.96835,-5.98644 14.46723,4.9887"
   id="path926" /><path
   style="fill:none;stroke:#000000;stroke-width:1;stroke-linecap:butt;stroke-linejoin:miter;stroke-miterlimit:4;stroke-dasharray:none;stroke-opacity:1;fill-rule:evenodd"
   d="m 358.69191,318.77781 5.48757,-18.95705 -23.44688,-8.97966 -13.46948,9.47853 4.98869,15.96383"
   id="path928" /><path
   style="fill:none;stroke:#000000;stroke-width:1;stroke-linecap:butt;stroke-linejoin:miter;stroke-miterlimit:4;stroke-dasharray:none;stroke-opacity:1;fill-rule:evenodd"
   d="m 327.26312,300.31963 -15.46497,-4.9887 -19.45592,20.95253 12.47174,5.98644 h 13.46949"
   id="path930" /><path
   style="fill:none;stroke:#000000;stroke-width:1;stroke-linecap:butt;stroke-linejoin:miter;stroke-miterlimit:4;stroke-dasharray:none;stroke-opacity:1;fill-rule:evenodd"
   d="m 292.34223,316.28346 -20.95253,20.95253 2.99322,17.46045 15.96383,4.48982"
   id="path932" /><path
   style="fill:none;stroke:#000000;stroke-width:1;stroke-linecap:butt;stroke-linejoin:miter;stroke-miterlimit:4;stroke-dasharray:none;stroke-opacity:1;fill-rule:evenodd"
   d="M 296.83206,344.22017 278.87274,330.25181"
   id="path934" /><path
   style="fill:none;stroke:#000000;stroke-width:1;stroke-linecap:butt;stroke-linejoin:miter;stroke-miterlimit:4;stroke-dasharray:none;stroke-opacity:1;fill-rule:evenodd"
   d="m 274.38292,354.69644 -6.98418,10.97513 12.47174,24.94349 16.96158,-4.48983"
   id="path936" /><path
   style="fill:none;stroke:#000000;stroke-width:1;stroke-linecap:butt;stroke-linejoin:miter;stroke-miterlimit:4;stroke-dasharray:none;stroke-opacity:1;fill-rule:evenodd"
   d="m 279.87048,390.61506 15.96384,27.43784 16.4627,-0.99774 4.9887,-10.97513"
   id="path938" /><path
   style="fill:none;stroke:#000000;stroke-width:1;stroke-linecap:butt;stroke-linejoin:miter;stroke-miterlimit:4;stroke-dasharray:none;stroke-opacity:1;fill-rule:evenodd"
   d="m 312.29702,417.05516 9.47853,11.47401 31.4288,-1.99548 -5.98644,-13.96836"
   id="path940" /><path
   style="fill:none;stroke:#000000;stroke-width:1;stroke-linecap:butt;stroke-linejoin:miter;stroke-miterlimit:4;stroke-dasharray:none;stroke-opacity:1;fill-rule:evenodd"
   d="m 353.20435,426.53369 22.44914,-5.98644 7.98191,-15.96383 -13.46948,-12.97062"
   id="path942" /><path
   style="fill:none;stroke:#000000;stroke-width:1;stroke-linecap:butt;stroke-linejoin:miter;stroke-miterlimit:4;stroke-dasharray:none;stroke-opacity:1;fill-rule:evenodd"
   d="m 383.6354,404.58342 14.9661,-9.9774 4.9887,-23.44688 -17.46045,-6.48531"
   id="path944" /><path
   style="fill:none;stroke:#000000;stroke-width:1;stroke-linecap:butt;stroke-linejoin:miter;stroke-miterlimit:4;stroke-dasharray:none;stroke-opacity:1;fill-rule:evenodd"
   d="m 403.5902,371.15914 4.9887,-29.43332 -13.96836,-10.97514 -13.96835,8.48079"
   id="path946" /><path
   style="fill:none;stroke:#000000;stroke-width:1;stroke-linecap:butt;stroke-linejoin:miter;stroke-miterlimit:4;stroke-dasharray:none;stroke-opacity:1;fill-rule:evenodd"
   d="m 394.61054,330.75068 -2.49435,-14.96609 -27.93671,-15.96383"
   id="path948" /><path
   style="fill:none;stroke:#000000;stroke-width:1;stroke-linecap:butt;stroke-linejoin:miter;stroke-miterlimit:4;stroke-dasharray:none;stroke-opacity:1;fill-rule:evenodd"
   d="m 311.79815,295.33093 -4.48983,-12.47175 -29.93218,16.46271 -16.46271,28.43558 10.47627,9.47852"
   id="path950" /><path
   style="fill:none;stroke:#000000;stroke-width:1;stroke-linecap:butt;stroke-linejoin:miter;stroke-miterlimit:4;stroke-dasharray:none;stroke-opacity:1;fill-rule:evenodd"
   d="m 260.91343,327.75747 -7.98192,23.94575 1.99548,15.46496 12.47175,-1.49661"
   id="path952" /><path
   style="fill:none;stroke:#000000;stroke-width:1;stroke-linecap:butt;stroke-linejoin:miter;stroke-miterlimit:4;stroke-dasharray:none;stroke-opacity:1;fill-rule:evenodd"
   d="m 254.92699,367.16818 9.9774,31.92767 18.95705,23.94575 11.97288,-4.9887"
   id="path954" /><path
   style="fill:none;stroke:#000000;stroke-width:1;stroke-linecap:butt;stroke-linejoin:miter;stroke-miterlimit:4;stroke-dasharray:none;stroke-opacity:1;fill-rule:evenodd"
   d="m 283.86144,423.0416 14.46723,12.47174 19.95479,6.48531 3.49209,-13.46948"
   id="path956" /><path
   style="fill:none;stroke:#000000;stroke-width:1;stroke-linecap:butt;stroke-linejoin:miter;stroke-miterlimit:4;stroke-dasharray:none;stroke-opacity:1;fill-rule:evenodd"
   d="m 318.28346,441.99865 26.93897,2.49435 19.45592,-2.99322 17.46045,-8.48078 -6.48531,-12.47175"
   id="path958" /><path
   style="fill:none;stroke:#000000;stroke-width:1;stroke-linecap:butt;stroke-linejoin:miter;stroke-miterlimit:4;stroke-dasharray:none;stroke-opacity:1;fill-rule:evenodd"
   d="m 382.1388,433.019 26.93897,-20.95254 4.48982,-10.97513 -14.96609,-6.48531"
   id="path960" /><path
   style="fill:none;stroke:#000000;stroke-width:1;stroke-linecap:butt;stroke-linejoin:miter;stroke-miterlimit:4;stroke-dasharray:none;stroke-opacity:1;fill-rule:evenodd"
   d="m 413.56759,401.09133 9.47853,-27.43784 -1.49661,-31.92767 H 408.5789"
   id="path962" /><path
   style="fill:none;stroke:#000000;stroke-width:1;stroke-linecap:butt;stroke-linejoin:miter;stroke-miterlimit:4;stroke-dasharray:none;stroke-opacity:1;fill-rule:evenodd"
   d="m 421.54951,341.72582 -7.98192,-20.45366 -10.47626,-14.9661 -10.97514,9.47853"
   id="path964" /><path
   style="fill:none;stroke:#000000;stroke-width:1;stroke-linecap:butt;stroke-linejoin:miter;stroke-miterlimit:4;stroke-dasharray:none;stroke-opacity:1;fill-rule:evenodd"
   d="m 403.09133,306.30606 -18.45819,-17.46044 -31.42879,-12.47175 -12.97062,1.99548 0.49887,12.47175"
   id="path966" /><path
   style="fill:none;stroke:#000000;stroke-width:1;stroke-linecap:butt;stroke-linejoin:miter;stroke-miterlimit:4;stroke-dasharray:none;stroke-opacity:1;fill-rule:evenodd"
   d="m 340.23373,278.36935 -19.45592,-3.99095 -13.46949,8.48078"
   id="path968" /><path
   style="fill:none;stroke:#000000;stroke-width:6;stroke-linecap:butt;stroke-linejoin:miter;stroke-miterlimit:4;stroke-dasharray:none;stroke-opacity:1;fill-rule:evenodd"
   d="m 326.39364,103.17722 v -4.515633 h 30.68962 v 5.117723"
   id="path970" /><path
   style="fill:none;stroke:#000000;stroke-width:3;stroke-linecap:butt;stroke-linejoin:miter;stroke-miterlimit:4;stroke-dasharray:none;stroke-opacity:1;fill-rule:evenodd"
   d="m 335.71872,191.6474 c -88.9038,-0.38865 -161.9836,67.33324 -161.83593,173.52926 0.13964,100.40324 79.67688,158.98206 164.1746,158.56179 C 437.79171,523.24238 502.764,448.5394 502.69971,360.49933 502.62138,253.27753 415.81458,191.99753 335.71872,191.6474 Z"
   id="path972"
   sodipodi:nodetypes="sssss" /></svg>
