<?xml version="1.0" encoding="UTF-8" standalone="no"?>
<svg
   xmlns:dc="http://purl.org/dc/elements/1.1/"
   xmlns:cc="http://creativecommons.org/ns#"
   xmlns:rdf="http://www.w3.org/1999/02/22-rdf-syntax-ns#"
   xmlns:svg="http://www.w3.org/2000/svg"
   xmlns="http://www.w3.org/2000/svg"
   xmlns:sodipodi="http://sodipodi.sourceforge.net/DTD/sodipodi-0.dtd"
   xmlns:inkscape="http://www.inkscape.org/namespaces/inkscape"
   inkscape:version="1.0.2 (e86c870879, 2021-01-15, custom)"
   sodipodi:docname="icon.svg"
   xml:space="preserve"
   style="enable-background:new 0 0 667 666;"
   viewBox="0 0 667 666"
   y="0px"
   x="0px"
   id="Layer_1"
   version="1.1"><metadata
   id="metadata319"><rdf:RDF><cc:Work
       rdf:about=""><dc:format>image/svg+xml</dc:format><dc:type
         rdf:resource="http://purl.org/dc/dcmitype/StillImage" /><dc:title /></cc:Work></rdf:RDF></metadata><defs
   id="defs317"><marker
     inkscape:isstock="true"
     style="overflow:visible"
     id="Arrow1Send"
     refX="0"
     refY="0"
     orient="auto"
     inkscape:stockid="Arrow1Send"><path
       transform="matrix(-0.2,0,0,-0.2,-1.2,0)"
       style="fill:#000000;fill-opacity:1;fill-rule:evenodd;stroke:#000000;stroke-width:1.00000003pt;stroke-opacity:1"
       d="M 0,0 5,-5 -12.5,0 5,5 Z"
       id="path4714"
       inkscape:connector-curvature="0" /></marker><clipPath
     id="clipPath69-0"><path
       d="m 409.441,126.252 v -43.63 h 147.796 v 43.63"
       id="path71-2"
       inkscape:connector-curvature="0" /></clipPath><clipPath
     id="clipPath101-1"><path
       d="m 409.441,126.252 v -43.63 h 147.796 v 43.63"
       id="path103-6"
       inkscape:connector-curvature="0" /></clipPath><clipPath
     id="clipPath69"><path
       d="m 409.441,126.252 v -43.63 h 147.796 v 43.63"
       id="path71"
       inkscape:connector-curvature="0" /></clipPath><clipPath
     id="clipPath101"><path
       d="m 409.441,126.252 v -43.63 h 147.796 v 43.63"
       id="path103"
       inkscape:connector-curvature="0" /></clipPath></defs><sodipodi:namedview
   inkscape:document-rotation="0"
   inkscape:current-layer="Layer_1"
   inkscape:window-maximized="1"
   inkscape:window-y="-8"
   inkscape:window-x="-8"
   inkscape:cy="336.33972"
   inkscape:cx="443.73908"
   inkscape:zoom="1.0022655"
   showgrid="false"
   id="namedview315"
   inkscape:window-height="987"
   inkscape:window-width="1680"
   inkscape:pageshadow="2"
   inkscape:pageopacity="0"
   guidetolerance="10"
   gridtolerance="10"
   objecttolerance="10"
   borderopacity="1"
   bordercolor="#666666"
   pagecolor="#ffffff" />
<style
   id="style2"
   type="text/css">
	.st0{fill:none;stroke:#000000;stroke-width:2;stroke-linecap:round;stroke-linejoin:round;stroke-miterlimit:10;}
</style>


<g
   id="g939"><path
     id="path891"
     style="fill:none;stroke:#000000;stroke-width:3;stroke-linecap:butt;stroke-linejoin:miter;stroke-miterlimit:4;stroke-dasharray:none;stroke-opacity:1"
     d="m 398.09811,326.01142 8.97966,-2.61906 c 1.44067,-0.42019 4.75868,9.18294 2.49435,9.85267 l -8.85494,2.61907 M 251.16101,305.13241 c 0,0 -25.51899,14.57058 -38.80297,20.8125 -27.68705,13.00967 -56.25669,24.78724 -85.01376,34.56991 -14.7731,5.02556 -57.146189,29.2786 -57.146189,29.2786 m 176.024359,-96.3019 c 0,0 -25.51899,14.57058 -38.80297,20.8125 -27.68705,13.00967 -56.25669,24.78724 -85.01376,34.56991 -14.7731,5.02556 -57.146188,29.2786 -57.146188,29.2786 m 353.110818,172.4149 a 7.4494665,3.0642194 12.419781 0 1 0.95036,-4.22673 7.4494665,3.0642194 12.419781 0 1 10.28449,2.27041 7.4494665,3.0642194 12.419781 0 1 -0.9386,4.22933 7.4494665,3.0642194 12.419781 0 1 -10.28556,-2.26558 m -86.00511,-20.43024 a 3.0642193,7.4494666 77.516644 0 1 -0.91782,-4.23392 3.0642193,7.4494666 77.516644 0 1 10.28429,-2.27134 3.0642193,7.4494666 77.516644 0 1 0.92958,4.23133 3.0642193,7.4494666 77.516644 0 1 -10.28323,2.27617 m 129.3465,18.25703 0.13759,-8.21607 m -163.74276,6.40403 0.007,-7.12651 m 163.63214,8.7395 a 81.883316,28.484011 0 0 1 -84.07518,26.88389 81.883316,28.484011 0 0 1 -79.56396,-28.49688 m 99.59508,-36.12553 a 81.883316,30.205185 0 0 1 63.71911,32.66086 81.883316,30.205185 0 0 1 -80.801,27.03353 81.883316,30.205185 0 0 1 -81.91893,-26.57176 81.883316,30.205185 0 0 1 62.34937,-33.01862 m 37.7693,26.70684 -1.26317,-29.43045 m -36.982,29.87719 0.84075,-30.33418 m 35.01526,-2.61303 a 18.080439,8.124465 0 0 1 -6.35843,9.38609 18.080439,8.124465 0 0 1 -21.82951,-0.20847 18.080439,8.124465 0 0 1 -5.4652,-9.49902 m 35.95912,31.45941 a 19.170797,8.1150665 0 0 1 -9.03236,7.78081 19.170797,8.1150665 0 0 1 -20.47876,-0.11241 19.170797,8.1150665 0 0 1 -8.55274,-7.87732 m 35.60731,-29.36632 0.23334,-5.10097 m -33.57855,4.61334 -0.13862,-4.61334 m 33.6864,4.51116 a 16.824368,5.8562346 0 0 1 -17.44519,5.45241 16.824368,5.8562346 0 0 1 -16.1635,-5.91167 m 43.8017,-11.42463 0.37891,-10.21149 m -54.52587,9.23531 -0.2251,-9.23531 m 54.5895,9.55645 a 27.319914,11.72344 0 0 1 -28.69351,10.37951 27.319914,11.72344 0 0 1 -25.77125,-11.7065 m 46.0997,-16.7439 a 27.319914,11.72344 0 0 1 6.46425,12.99696 27.319914,11.72344 0 0 1 -25.97553,7.23673 27.319914,11.72344 0 0 1 -25.03553,-7.82304 27.319914,11.72344 0 0 1 8.07632,-12.82984 m 0.84704,-107.55247 -0.49887,109.50192 19.45592,15.96384 m -5.48757,-176.59991 11.98513,-1.02451 c 0,0 13.9297,2.8121 13.2078,32.20387 l -3.49209,142.17789 -16.21327,3.24266 4.24039,-144.17338 c 0.5234,-17.79555 -8.97965,-28.93445 -8.97965,-28.93445 m -21.72234,29.38859 a 3.7215667,5.9864378 0 0 1 -5.2547,-0.43275 3.7215667,5.9864378 0 0 1 0.26602,-8.45286 3.7215667,5.9864378 0 0 1 5.25501,0.4231 3.7215667,5.9864378 0 0 1 -0.26002,8.45334 m 16.35663,-49.92537 11.0964,41.24905 c 3.2915,12.23562 -2.24491,24.44462 -2.24491,24.44462 l -21.45141,2.74379 m 13.06291,-68.07368 -21.79313,-1.01979 -17.70988,14.96609 c 0,0 16.23056,57.78007 27.18841,53.87794 12.45841,-4.43648 -8.97966,-68.84403 -8.97966,-68.84403 M 497.32269,222.11278 388.3824,315.00952 M 359.56355,91.445266 266.26852,203.22953 c 0,0 -41.65922,57.41036 -11.93272,108.25245 17.78965,30.42616 85.71927,24.34004 85.71927,24.34004 M 266.26852,203.22953 c -38.30478,111.75664 49.14435,124.00632 69.49718,121.14098 m 3.89709,-208.97679 c -42.89059,114.93143 30.42699,142.34954 82.17494,139.4842 21.9598,-1.21594 37.57252,-4.50195 49.7339,-10.54162 m 5.08471,-123.77586 c -73.01392,-85.97239 -116.44393,-43.268993 -130.66536,-3.7557 -36.54101,101.52678 36.55463,130.17468 86.42938,126.07954 99.68886,-8.18531 93.15224,-64.72595 44.23598,-122.32384 z m -14.5483,9.25312 C 402.41665,59.292667 375.27466,93.509271 364.04236,124.875 c -30.94865,86.42281 27.0694,101.22456 67.72881,98.06567 85.58627,-6.64932 65.81619,-51.21095 30.33687,-93.12711 z" /></g></svg>
