<?xml version="1.0" encoding="UTF-8" standalone="no"?>
<svg
   inkscape:version="1.1 (c68e22c387, 2021-05-23)"
   sodipodi:docname="icon.svg"
   xml:space="preserve"
   style="enable-background:new 0 0 667 666;"
   viewBox="0 0 667 666"
   y="0px"
   x="0px"
   id="Layer_1"
   version="1.1"
   xmlns:inkscape="http://www.inkscape.org/namespaces/inkscape"
   xmlns:sodipodi="http://sodipodi.sourceforge.net/DTD/sodipodi-0.dtd"
   xmlns="http://www.w3.org/2000/svg"
   xmlns:svg="http://www.w3.org/2000/svg"
   xmlns:rdf="http://www.w3.org/1999/02/22-rdf-syntax-ns#"
   xmlns:cc="http://creativecommons.org/ns#"
   xmlns:dc="http://purl.org/dc/elements/1.1/"><metadata
   id="metadata319"><rdf:RDF><cc:Work
       rdf:about=""><dc:format>image/svg+xml</dc:format><dc:type
         rdf:resource="http://purl.org/dc/dcmitype/StillImage" /></cc:Work></rdf:RDF></metadata><defs
   id="defs317"><marker
     inkscape:isstock="true"
     style="overflow:visible"
     id="Arrow1Send"
     refX="0"
     refY="0"
     orient="auto"
     inkscape:stockid="Arrow1Send"><path
       transform="matrix(-0.2,0,0,-0.2,-1.2,0)"
       style="fill:#000000;fill-opacity:1;fill-rule:evenodd;stroke:#000000;stroke-width:1.00000003pt;stroke-opacity:1"
       d="M 0,0 5,-5 -12.5,0 5,5 Z"
       id="path4714"
       inkscape:connector-curvature="0" /></marker><clipPath
     id="clipPath69-0"><path
       d="m 409.441,126.252 v -43.63 h 147.796 v 43.63"
       id="path71-2"
       inkscape:connector-curvature="0" /></clipPath><clipPath
     id="clipPath101-1"><path
       d="m 409.441,126.252 v -43.63 h 147.796 v 43.63"
       id="path103-6"
       inkscape:connector-curvature="0" /></clipPath><clipPath
     id="clipPath69"><path
       d="m 409.441,126.252 v -43.63 h 147.796 v 43.63"
       id="path71"
       inkscape:connector-curvature="0" /></clipPath><clipPath
     id="clipPath101"><path
       d="m 409.441,126.252 v -43.63 h 147.796 v 43.63"
       id="path103"
       inkscape:connector-curvature="0" /></clipPath><marker
     inkscape:isstock="true"
     style="overflow:visible"
     id="Arrow1Send-8"
     refX="0"
     refY="0"
     orient="auto"
     inkscape:stockid="Arrow1Send"><path
       transform="matrix(-0.2,0,0,-0.2,-1.2,0)"
       style="fill:#000000;fill-opacity:1;fill-rule:evenodd;stroke:#000000;stroke-width:1.00000003pt;stroke-opacity:1"
       d="M 0,0 5,-5 -12.5,0 5,5 Z"
       id="path4714-9"
       inkscape:connector-curvature="0" /></marker><clipPath
     id="clipPath69-0-3"><path
       d="m 409.441,126.252 v -43.63 h 147.796 v 43.63"
       id="path71-2-8"
       inkscape:connector-curvature="0" /></clipPath><clipPath
     id="clipPath101-1-2"><path
       d="m 409.441,126.252 v -43.63 h 147.796 v 43.63"
       id="path103-6-4"
       inkscape:connector-curvature="0" /></clipPath><clipPath
     id="clipPath69-5"><path
       d="m 409.441,126.252 v -43.63 h 147.796 v 43.63"
       id="path71-3"
       inkscape:connector-curvature="0" /></clipPath><clipPath
     id="clipPath101-9"><path
       d="m 409.441,126.252 v -43.63 h 147.796 v 43.63"
       id="path103-1"
       inkscape:connector-curvature="0" /></clipPath></defs><sodipodi:namedview
   inkscape:document-rotation="0"
   inkscape:current-layer="Layer_1"
   inkscape:window-maximized="1"
   inkscape:window-y="-8"
   inkscape:window-x="1672"
   inkscape:cy="342.87711"
   inkscape:cx="263.86016"
   inkscape:zoom="0.35435437"
   showgrid="false"
   id="namedview315"
   inkscape:window-height="987"
   inkscape:window-width="1680"
   inkscape:pageshadow="2"
   inkscape:pageopacity="0"
   guidetolerance="10"
   gridtolerance="10"
   objecttolerance="10"
   borderopacity="1"
   bordercolor="#666666"
   pagecolor="#ffffff"
   inkscape:pagecheckerboard="0" />
<style
   id="style2"
   type="text/css">
	.st0{fill:none;stroke:#000000;stroke-width:2;stroke-linecap:round;stroke-linejoin:round;stroke-miterlimit:10;}
</style>


<style
   id="style2-1"
   type="text/css">
	.st0{fill:none;stroke:#000000;stroke-width:2;stroke-linecap:round;stroke-linejoin:round;stroke-miterlimit:10;}
</style><path
   style="fill:none;stroke:#000000;stroke-width:3;stroke-linecap:butt;stroke-linejoin:miter;stroke-opacity:1;stroke-miterlimit:4;stroke-dasharray:none"
   d="M 307.3038,61.859856 78.82143,363.17722 c -26.649829,35.14519 -3.080552,92.59553 29.93219,113.74232 51.75106,33.14991 152.65896,14.6733 181.58861,-31.92767 L 492.88337,118.73101 C 510.20301,90.83189 482.26855,59.087826 458.96022,45.896023 414.72252,20.858831 334.10322,26.517394 307.3038,61.859856 Z"
   id="path1092"
   sodipodi:nodetypes="ssassas" /><path
   style="fill:none;stroke:#000000;stroke-width:3;stroke-linecap:butt;stroke-linejoin:miter;stroke-opacity:1;stroke-miterlimit:4;stroke-dasharray:none"
   d="M 305.93352,73.050754 90.218043,357.53143 c -25.160719,33.18138 -2.719624,89.33314 29.257407,109.38223 46.71694,29.29078 134.92072,12.713 162.46234,-31.14139 L 479.14799,121.75542 C 495.63664,95.500627 475.54642,63.88945 454.10454,50.994754 411.31209,25.260272 331.23547,39.68312 305.93352,73.050754 Z"
   id="path1634"
   sodipodi:nodetypes="ssassas" /><path
   style="fill:none;stroke:#000000;stroke-width:3;stroke-linecap:butt;stroke-linejoin:miter;stroke-opacity:1;stroke-miterlimit:4;stroke-dasharray:none"
   d="m 497.87207,104.82318 -9.9774,122.66145 c -1.34763,16.56762 -8.64089,32.50389 -16.96157,46.89377 L 301.31737,567.71384 C 273.18863,616.36002 193.54092,631.63844 139.68355,615.60535 109.61572,606.6543 80.854909,572.4864 78.760907,543.86837 66.788031,380.23907 67.140786,405.99013 67.140786,405.99013"
   id="path2030"
   sodipodi:nodetypes="csssasc" /><g
   id="g2520"
   transform="matrix(0.4707142,-0.05606418,0.05606418,0.4707142,330.44259,273.43969)"
   style="stroke-width:6.32856397;stroke-miterlimit:4;stroke-dasharray:none"><path
     style="fill:none;stroke:#000000;stroke-width:6.32856397;stroke-linecap:butt;stroke-linejoin:miter;stroke-opacity:1;stroke-miterlimit:4;stroke-dasharray:none"
     d="M 389.50699,-55.747737 78.82143,363.17722 c -26.273742,35.42722 -10.697715,83.72719 29.49215,117.43692 43.78532,36.72546 140.69998,29.93231 170.69737,-15.98862 L 572.67548,15.074886 c 17.95887,-27.491993 -22.27989,-74.500488 -53.67967,-89.426717 -39.38294,-18.721115 -103.0676,-17.021986 -129.48882,18.604094 z"
     id="path2511"
     sodipodi:nodetypes="sssssas" /><path
     style="fill:none;stroke:#000000;stroke-width:6.32856397;stroke-linecap:butt;stroke-linejoin:miter;stroke-opacity:1;stroke-miterlimit:4;stroke-dasharray:none"
     d="M 394.15262,-25.854666 106.29826,360.94546 c -24.86096,33.40656 -9.571851,83.05179 18.61366,104.3675 34.21219,25.87347 98.92595,30.06267 128.04852,-12.75817 L 552.99388,11.395859 C 570.42902,-14.240167 536.0054,-50.1413 510.04034,-59.999176 445.227,-84.606162 419.15313,-59.448743 394.15262,-25.854666 Z"
     id="path2513"
     sodipodi:nodetypes="ssassss" /><path
     style="fill:none;stroke:#000000;stroke-width:6.32856397;stroke-linecap:butt;stroke-linejoin:miter;stroke-opacity:1;stroke-miterlimit:4;stroke-dasharray:none"
     d="m 576.15058,7.2014927 c 0,0 -12.90859,82.7288253 -23.94578,123.0211173 -7.71372,28.15966 -13.60228,57.96042 -29.41646,82.50384 L 245.10717,643.6845 C 214.6709,690.92124 151.26377,698.94913 104.38611,685.05838 62.066635,672.51831 12.2132,612.58866 18.205398,584.52676 47.824758,445.81714 67.945915,385.45501 67.945915,385.45501"
     id="path2515"
     sodipodi:nodetypes="cassasc" /></g><path
   style="fill:none;stroke:#000000;stroke-width:6;stroke-linecap:round;stroke-linejoin:miter;stroke-opacity:1;stroke-miterlimit:4;stroke-dasharray:none"
   d="M 395.60376,226.48689 354.69644,290.0928"
   id="path5804" /><path
   style="fill:none;stroke:#000000;stroke-width:4;stroke-linecap:round;stroke-linejoin:miter;stroke-miterlimit:4;stroke-dasharray:none;stroke-opacity:1"
   d="m 486.61435,309.73689 -29.61918,53.72879"
   id="path5904"
   sodipodi:nodetypes="cc" /><path
   style="fill:none;stroke:#000000;stroke-width:3;stroke-linecap:butt;stroke-linejoin:miter;stroke-opacity:1;stroke-miterlimit:4;stroke-dasharray:none"
   d="m 160.13721,571.45537 c -10.36476,-0.39963 -17.6855,-2.92897 -25.94123,-6.23587 -8.30035,-3.32477 -13.77213,-7.21445 -23.19745,-13.46949 -1.73747,-1.15306 -6.51349,-2.81529 -6.73474,1.24718 -0.25912,4.75767 3.65587,9.06221 6.98418,12.47174 5.12977,5.25494 12.25827,8.21536 18.95705,11.22457 8.29971,3.72837 17.58532,9.59561 29.93219,9.22909 3.4357,-0.10199 8.32162,-2.07472 8.73023,-5.48756 0.49627,-4.14507 -4.25915,-8.80727 -8.73023,-8.97966 z"
   id="path5996"
   sodipodi:nodetypes="sassassas" /></svg>
