<?xml version="1.0" encoding="UTF-8" standalone="no"?>
<svg
   xmlns:dc="http://purl.org/dc/elements/1.1/"
   xmlns:cc="http://creativecommons.org/ns#"
   xmlns:rdf="http://www.w3.org/1999/02/22-rdf-syntax-ns#"
   xmlns:svg="http://www.w3.org/2000/svg"
   xmlns="http://www.w3.org/2000/svg"
   xmlns:sodipodi="http://sodipodi.sourceforge.net/DTD/sodipodi-0.dtd"
   xmlns:inkscape="http://www.inkscape.org/namespaces/inkscape"
   version="1.1"
   id="Layer_1"
   x="0px"
   y="0px"
   viewBox="0 0 667 666"
   style="enable-background:new 0 0 667 666;"
   xml:space="preserve"
   sodipodi:docname="icon.svg"
   inkscape:version="1.0 (4035a4fb49, 2020-05-01)"><metadata
   id="metadata319"><rdf:RDF><cc:Work
       rdf:about=""><dc:format>image/svg+xml</dc:format><dc:type
         rdf:resource="http://purl.org/dc/dcmitype/StillImage" /></cc:Work></rdf:RDF></metadata><defs
   id="defs317"><marker
     inkscape:stockid="Arrow1Send"
     orient="auto"
     refY="0"
     refX="0"
     id="Arrow1Send"
     style="overflow:visible"
     inkscape:isstock="true"><path
       inkscape:connector-curvature="0"
       id="path4714"
       d="M 0,0 5,-5 -12.5,0 5,5 Z"
       style="fill:#000000;fill-opacity:1;fill-rule:evenodd;stroke:#000000;stroke-width:1.00000003pt;stroke-opacity:1"
       transform="matrix(-0.2,0,0,-0.2,-1.2,0)" /></marker><clipPath
     id="clipPath69-0"><path
       inkscape:connector-curvature="0"
       id="path71-2"
       d="m 409.441,126.252 v -43.63 h 147.796 v 43.63" /></clipPath><clipPath
     id="clipPath101-1"><path
       inkscape:connector-curvature="0"
       id="path103-6"
       d="m 409.441,126.252 v -43.63 h 147.796 v 43.63" /></clipPath><clipPath
     id="clipPath69"><path
       inkscape:connector-curvature="0"
       id="path71"
       d="m 409.441,126.252 v -43.63 h 147.796 v 43.63" /></clipPath><clipPath
     id="clipPath101"><path
       inkscape:connector-curvature="0"
       id="path103"
       d="m 409.441,126.252 v -43.63 h 147.796 v 43.63" /></clipPath></defs><sodipodi:namedview
   pagecolor="#ffffff"
   bordercolor="#666666"
   borderopacity="1"
   objecttolerance="10"
   gridtolerance="10"
   guidetolerance="10"
   inkscape:pageopacity="0"
   inkscape:pageshadow="2"
   inkscape:window-width="1680"
   inkscape:window-height="987"
   id="namedview315"
   showgrid="false"
   inkscape:zoom="0.50113275"
   inkscape:cx="371.16889"
   inkscape:cy="340.24603"
   inkscape:window-x="-8"
   inkscape:window-y="-8"
   inkscape:window-maximized="1"
   inkscape:current-layer="Layer_1"
   inkscape:document-rotation="0" />
<style
   type="text/css"
   id="style2">
	.st0{fill:none;stroke:#000000;stroke-width:2;stroke-linecap:round;stroke-linejoin:round;stroke-miterlimit:10;}
</style>


<path
   style="fill:none;stroke:#000000;stroke-width:4;stroke-linecap:butt;stroke-linejoin:miter;stroke-opacity:1;stroke-miterlimit:4;stroke-dasharray:none"
   d="m 614.11395,239.24687 -6.34957,32.45339 -383.09109,203.18644 -22.57627,-2.11653 12.69915,-27.51483 399.31778,-207.41948 -57.14618,-41.625 -194.30601,93.59428 m -29.92298,14.41345 -160.97863,77.54099 -15.52118,18.34322 0.70551,12.69915 10.58262,11.99365 m 16.53007,24.1566 17.33434,23.11246"
   id="path881"
   sodipodi:nodetypes="ccccccccccccccc" /><path
   style="fill:#000000;fill-opacity:1;stroke:#000000;stroke-width:4;stroke-linecap:butt;stroke-linejoin:miter;stroke-opacity:1;stroke-miterlimit:4;stroke-dasharray:none"
   d="m 538.62237,233.4855 8.13199,8.03125 -3.99778,2.54429 -8.132,-8.03125 z"
   id="path883"
   sodipodi:nodetypes="ccccc" /><path
   sodipodi:nodetypes="ccccc"
   id="path885"
   d="m 548.72448,227.99793 8.13199,8.03125 -3.99778,2.54429 -8.132,-8.03125 z"
   style="fill:#000000;fill-opacity:1;stroke:#000000;stroke-width:4;stroke-linecap:butt;stroke-linejoin:miter;stroke-opacity:1;stroke-miterlimit:4;stroke-dasharray:none" /><path
   style="fill:#000000;fill-opacity:1;stroke:#000000;stroke-width:4;stroke-linecap:butt;stroke-linejoin:miter;stroke-opacity:1;stroke-miterlimit:4;stroke-dasharray:none"
   d="m 558.95131,222.63508 8.13199,8.03125 -3.99778,2.54429 -8.132,-8.03125 z"
   id="path887"
   sodipodi:nodetypes="ccccc" /><path
   sodipodi:nodetypes="ccccc"
   id="path889"
   d="m 568.42984,218.14525 8.13199,8.03125 -3.99778,2.54429 -8.132,-8.03125 z"
   style="fill:#000000;fill-opacity:1;stroke:#000000;stroke-width:4;stroke-linecap:butt;stroke-linejoin:miter;stroke-opacity:1;stroke-miterlimit:4;stroke-dasharray:none" /><path
   style="fill:none;fill-opacity:1;fill-rule:evenodd;stroke:#000000;stroke-width:4;stroke-opacity:1;stroke-miterlimit:4;stroke-dasharray:none"
   id="path891"
   sodipodi:type="arc"
   sodipodi:cx="480.77286"
   sodipodi:cy="268.34912"
   sodipodi:rx="28.043961"
   sodipodi:ry="18.166843"
   sodipodi:start="0.83683651"
   sodipodi:end="0.83455187"
   sodipodi:open="true"
   sodipodi:arc-type="arc"
   d="m 499.55713,281.83851 a 28.043961,18.166843 0 0 1 -39.59696,-1.31326 28.043961,18.166843 0 0 1 2.00464,-25.65161 28.043961,18.166843 0 0 1 39.59925,1.28396 28.043961,18.166843 0 0 1 -1.95941,25.65307" /><path
   d="m 452.16449,305.28538 a 28.043961,18.166843 0 0 1 -39.59696,-1.31326 28.043961,18.166843 0 0 1 2.00464,-25.65161 28.043961,18.166843 0 0 1 39.59925,1.28396 28.043961,18.166843 0 0 1 -1.95941,25.65307"
   sodipodi:arc-type="arc"
   sodipodi:open="true"
   sodipodi:end="0.83455187"
   sodipodi:start="0.83683651"
   sodipodi:ry="18.166843"
   sodipodi:rx="28.043961"
   sodipodi:cy="291.79599"
   sodipodi:cx="433.38022"
   sodipodi:type="arc"
   id="path901"
   style="fill:none;fill-opacity:1;fill-rule:evenodd;stroke:#000000;stroke-width:4;stroke-opacity:1;stroke-miterlimit:4;stroke-dasharray:none" /><path
   style="fill:none;fill-opacity:1;fill-rule:evenodd;stroke:#000000;stroke-width:4;stroke-opacity:1;stroke-miterlimit:4;stroke-dasharray:none"
   id="path903"
   sodipodi:type="arc"
   sodipodi:cx="383.9921"
   sodipodi:cy="318.73495"
   sodipodi:rx="28.043961"
   sodipodi:ry="18.166843"
   sodipodi:start="5.9847165"
   sodipodi:end="3.3885791"
   sodipodi:open="true"
   sodipodi:arc-type="arc"
   d="m 410.79617,313.39287 a 28.043961,18.166843 0 0 1 -10.05074,19.91093 28.043961,18.166843 0 0 1 -32.32715,0.53918 28.043961,18.166843 0 0 1 -11.61911,-19.54951" /><path
   d="m 277.30625,381.17907 a 13.141729,8.513196 0 0 1 -18.5556,-0.6154 13.141729,8.513196 0 0 1 0.9394,-12.02065 13.141729,8.513196 0 0 1 18.55668,0.60168 13.141729,8.513196 0 0 1 -0.91821,12.02133"
   sodipodi:arc-type="arc"
   sodipodi:open="true"
   sodipodi:end="0.83455187"
   sodipodi:start="0.83683651"
   sodipodi:ry="8.513196"
   sodipodi:rx="13.141729"
   sodipodi:cy="374.85779"
   sodipodi:cx="268.50372"
   sodipodi:type="arc"
   id="path905"
   style="fill:none;fill-opacity:1;fill-rule:evenodd;stroke:#000000;stroke-width:4;stroke-opacity:1;stroke-miterlimit:4;stroke-dasharray:none" /><path
   style="fill:none;stroke:#000000;stroke-width:4;stroke-linecap:butt;stroke-linejoin:miter;stroke-opacity:1;stroke-miterlimit:4;stroke-dasharray:none"
   d="m 484.40258,250.68208 -0.12471,2.61907 11.34929,3.99095 -11.34929,-0.49887 -0.49887,14.84138 14.59194,0.12472 -0.49887,10.60098"
   id="path907" /><path
   style="fill:none;stroke:#000000;stroke-width:4;stroke-linecap:butt;stroke-linejoin:miter;stroke-opacity:1;stroke-miterlimit:4;stroke-dasharray:none"
   d="m 479.5386,250.43264 -0.12471,2.36964 -10.59472,3.28804 10.47,0.21291 -0.74831,15.08195 -16.96157,-0.37416 -0.49887,9.9774"
   id="path909"
   sodipodi:nodetypes="ccccccc" /><path
   style="fill:none;stroke:#000000;stroke-width:4;stroke-linecap:butt;stroke-linejoin:miter;stroke-opacity:1;stroke-miterlimit:4;stroke-dasharray:none"
   d="m 458.71079,279.49181 0.12472,-9.9774 -3.99096,-0.7483"
   id="path911" /><path
   style="fill:none;stroke:#000000;stroke-width:4;stroke-linecap:butt;stroke-linejoin:miter;stroke-opacity:1;stroke-miterlimit:4;stroke-dasharray:none"
   d="m 499.60464,281.81066 1.75952,-7.30755 4.24039,-0.62358"
   id="path913" /><path
   style="fill:none;stroke:#000000;stroke-width:4;stroke-linecap:butt;stroke-linejoin:miter;stroke-opacity:1;stroke-miterlimit:4;stroke-dasharray:none"
   d="m 476.54539,277.9952 5.98643,0.12472"
   id="path915" /><path
   id="path907-9"
   d="m 436.96242,274.15678 -0.12471,2.61907 11.34929,3.99095 -11.34929,-0.49887 -0.49887,14.84138 14.59194,0.12472 -0.49887,10.60098"
   style="fill:none;stroke:#000000;stroke-width:4;stroke-linecap:butt;stroke-linejoin:miter;stroke-opacity:1;stroke-miterlimit:4;stroke-dasharray:none" /><path
   sodipodi:nodetypes="ccccccc"
   id="path909-6"
   d="m 432.09844,273.90734 -0.12471,2.36964 -10.59472,3.28804 10.47,0.21291 -0.74831,15.08195 -16.96157,-0.37416 -0.49887,9.9774"
   style="fill:none;stroke:#000000;stroke-width:4;stroke-linecap:butt;stroke-linejoin:miter;stroke-opacity:1;stroke-miterlimit:4;stroke-dasharray:none" /><path
   id="path911-9"
   d="m 411.27063,302.96651 0.12472,-9.9774 -3.99096,-0.7483"
   style="fill:none;stroke:#000000;stroke-width:4;stroke-linecap:butt;stroke-linejoin:miter;stroke-opacity:1;stroke-miterlimit:4;stroke-dasharray:none" /><path
   id="path913-4"
   d="m 452.16448,305.28536 1.75952,-7.30755 4.24039,-0.62358"
   style="fill:none;stroke:#000000;stroke-width:4;stroke-linecap:butt;stroke-linejoin:miter;stroke-opacity:1;stroke-miterlimit:4;stroke-dasharray:none" /><path
   style="fill:none;stroke:#000000;stroke-width:4;stroke-linecap:butt;stroke-linejoin:miter;stroke-opacity:1;stroke-miterlimit:4;stroke-dasharray:none"
   d="m 175.9932,419.85704 -8.4661,4.93856 c 0,0 8.2347,5.1371 10.58263,9.17161 2.86495,4.92292 3.35116,16.75582 3.35116,16.75582 l 5.82045,-4.05667 c 0,0 0.47194,-12.31202 -2.11653,-17.63771 -1.88998,-3.88857 -9.17161,-9.17161 -9.17161,-9.17161 z"
   id="path951"
   sodipodi:nodetypes="ccaccac" /><path
   style="fill:none;stroke:#000000;stroke-width:4;stroke-linecap:butt;stroke-linejoin:miter;stroke-opacity:1;stroke-miterlimit:4;stroke-dasharray:none"
   d="m 167.5271,424.7956 0.70551,4.5858 2.64566,-1.76377 -4.93856,3.35117 c 0,0 5.11845,5.4836 6.70233,8.81885 1.5048,3.16873 2.46928,10.22987 2.46928,10.22987 l 5.82044,-3.17478"
   id="path953"
   sodipodi:nodetypes="ccccacc" /><path
   style="fill:none;stroke:#000000;stroke-width:4;stroke-linecap:butt;stroke-linejoin:miter;stroke-opacity:1;stroke-miterlimit:4;stroke-dasharray:none"
   d="m 165.97089,431.68593 -7.98955,4.30334 c 0,0 -1.0513,1.08331 0.11586,2.96449 2.0469,3.29911 4.04455,8.58618 6.29791,11.74788 1.38969,1.94987 3.11335,1.73351 3.11335,1.73351 l 7.19845,-3.00637"
   id="path955"
   sodipodi:nodetypes="ccsscc" /><path
   style="fill:none;stroke:#000000;stroke-width:4;stroke-linecap:butt;stroke-linejoin:miter;stroke-opacity:1;stroke-miterlimit:4;stroke-dasharray:none"
   d="m 157.51814,437.88298 -10.60099,6.48531 c 0,0 3.85464,3.29096 4.9887,5.48756 1.24943,2.42006 1.74605,7.98192 1.74605,7.98192 l 11.97287,-5.86172"
   id="path957"
   sodipodi:nodetypes="ccacc" /><path
   style="fill:none;stroke:#000000;stroke-width:4;stroke-linecap:butt;stroke-linejoin:miter;stroke-opacity:1;stroke-miterlimit:4;stroke-dasharray:none"
   d="m 147.66545,445.61546 c 0,0 -18.34991,15.00018 -29.48114,17.81926 -4.79284,1.21383 -10.556,1.80443 -14.81568,-0.70551 -4.944954,-2.91373 -5.126375,-10.45971 -9.050561,-14.64817 -4.323051,-4.61418 -10.037728,-7.73706 -15.45395,-10.99957 -5.333239,-3.21253 -12.789326,-3.53426 -16.688851,-8.38786 -11.746973,-20.52622 -8.244875,-29.40018 9.534748,-40.08192 30.862994,-18.96899 88.034164,-25.16562 96.248824,-42.47599"
   id="path961"
   sodipodi:nodetypes="caaaaccc" /><path
   sodipodi:nodetypes="casaaacc"
   id="path963"
   d="m 153.04187,456.36829 c 0,0 -18.45651,14.6085 -29.48115,17.81926 -7.49765,2.18358 -17.9053,6.06958 -23.42118,0.54166 -11.413924,-11.43885 -6.411901,-14.88839 -11.66963,-20.88403 -3.586496,-4.08986 -8.468209,-6.87467 -13.084318,-9.75241 -5.425743,-3.38248 -12.913537,-3.89766 -17.063004,-8.762 -4.981836,-5.84011 -9.555064,-15.0827 -7.159034,-21.88786 26.675053,-39.11685 104.219696,-29.87597 124.666056,-62.79025"
   style="fill:none;stroke:#000000;stroke-width:4;stroke-linecap:butt;stroke-linejoin:miter;stroke-opacity:1;stroke-miterlimit:4;stroke-dasharray:none" /><g
   style="stroke-width:4;stroke-miterlimit:4;stroke-dasharray:none"
   id="g979"
   transform="translate(41.593846,49.112347)"><path
     sodipodi:nodetypes="cscc"
     id="path965"
     d="m 234.75036,249.98405 c 0.50285,-0.60846 13.43798,-9.52655 19.89556,-9.95848 8.66123,-0.57933 25.96371,2.01482 25.96371,2.01482 v 0"
     style="fill:none;stroke:#000000;stroke-width:4;stroke-linecap:butt;stroke-linejoin:miter;stroke-opacity:1;stroke-miterlimit:4;stroke-dasharray:none" /><path
     style="fill:none;stroke:#000000;stroke-width:4;stroke-linecap:butt;stroke-linejoin:miter;stroke-opacity:1;stroke-miterlimit:4;stroke-dasharray:none"
     d="m 236.8459,256.70666 c 0.50284,-0.60846 13.43797,-9.52655 19.89554,-9.95849 8.66124,-0.57932 25.96371,2.01482 25.96371,2.01482 v 0"
     id="path967"
     sodipodi:nodetypes="cscc" /><path
     sodipodi:nodetypes="cccccccccccccccccccccccccccaaaccccac"
     id="path969"
     d="m 280.62881,238.93894 1.44626,12.86074 2.68631,-0.0312 -1.97991,-14.93903 3.15163,0.14871 0.7051,16.85303 3.15163,0.14872 -1.77844,-17.5354 3.15163,0.14871 0.36091,19.1268 2.5436,-0.35377 0.0145,-18.71425 1.89842,-0.0684 -0.55412,20.11018 2.22101,-0.21106 0.74959,-19.23232 1.1105,-0.10553 -0.22551,16.49325 1.79532,-12.94468 2.11547,-1.32156 53.27057,4.01405 11.7418,13.89932 1.07689,8.97398 -4.79221,6.17011 -10.17556,-18.64234 -53.75147,-5.5371 -1.18129,9.97294 c 0,0 8.78472,1.94276 12.51054,4.30174 2.70343,1.71165 4.74079,4.34366 6.70377,6.87051 1.92821,2.4821 2.47746,6.0601 4.91089,8.04938 3.02622,2.47385 11.02468,3.99472 11.02468,3.99472 l 4e-5,5.70275 6.30118,0.49004 -0.0879,-5.66246 c 0,0 9.87236,0.95158 14.25667,-0.90659 4.10827,-1.7412 9.90101,-9.00873 9.90101,-9.00873"
     style="fill:none;stroke:#000000;stroke-width:4;stroke-linecap:butt;stroke-linejoin:miter;stroke-opacity:1;stroke-miterlimit:4;stroke-dasharray:none" /><path
     sodipodi:nodetypes="ccccc"
     id="path973"
     d="m 314.68621,251.83817 38.26319,4.09555 -0.54568,4.87015 -38.17324,-4.32821 z"
     style="fill:none;stroke:#000000;stroke-width:4;stroke-linecap:butt;stroke-linejoin:miter;stroke-opacity:1;stroke-miterlimit:4;stroke-dasharray:none" /></g><path
   style="fill:none;stroke:#000000;stroke-width:4;stroke-linecap:butt;stroke-linejoin:miter;stroke-opacity:1;stroke-miterlimit:4;stroke-dasharray:none"
   d="m 156.14625,338.23373 26.4401,15.46497"
   id="path981" /><path
   style="fill:none;stroke:#000000;stroke-width:4;stroke-linecap:butt;stroke-linejoin:miter;stroke-opacity:1;stroke-miterlimit:4;stroke-dasharray:none"
   d="m 269.88857,287.34901 11.474,24.94349"
   id="path983" /><path
   style="fill:none;fill-opacity:1;fill-rule:evenodd;stroke:#000000;stroke-width:4;stroke-opacity:1;stroke-miterlimit:4;stroke-dasharray:none"
   id="path985"
   sodipodi:type="arc"
   sodipodi:cx="268.50372"
   sodipodi:cy="374.85779"
   sodipodi:rx="8.399868"
   sodipodi:ry="5.4414244"
   sodipodi:start="0.83683651"
   sodipodi:end="0.83455187"
   sodipodi:open="true"
   sodipodi:arc-type="arc"
   d="m 274.13008,378.8982 a 8.399868,5.4414244 0 0 1 -11.86028,-0.39336 8.399868,5.4414244 0 0 1 0.60044,-7.6833 8.399868,5.4414244 0 0 1 11.86097,0.38458 8.399868,5.4414244 0 0 1 -0.58689,7.68374" /></svg>
