<?xml version="1.0" encoding="UTF-8" standalone="no"?>
<svg
   inkscape:version="1.1 (c68e22c387, 2021-05-23)"
   sodipodi:docname="icon.svg"
   xml:space="preserve"
   style="enable-background:new 0 0 667 666;"
   viewBox="0 0 667 666"
   y="0px"
   x="0px"
   id="Layer_1"
   version="1.1"
   xmlns:inkscape="http://www.inkscape.org/namespaces/inkscape"
   xmlns:sodipodi="http://sodipodi.sourceforge.net/DTD/sodipodi-0.dtd"
   xmlns="http://www.w3.org/2000/svg"
   xmlns:svg="http://www.w3.org/2000/svg"
   xmlns:rdf="http://www.w3.org/1999/02/22-rdf-syntax-ns#"
   xmlns:cc="http://creativecommons.org/ns#"
   xmlns:dc="http://purl.org/dc/elements/1.1/"><metadata
   id="metadata319"><rdf:RDF><cc:Work
       rdf:about=""><dc:format>image/svg+xml</dc:format><dc:type
         rdf:resource="http://purl.org/dc/dcmitype/StillImage" /></cc:Work></rdf:RDF></metadata><defs
   id="defs317"><marker
     inkscape:isstock="true"
     style="overflow:visible"
     id="Arrow1Send"
     refX="0"
     refY="0"
     orient="auto"
     inkscape:stockid="Arrow1Send"><path
       transform="matrix(-0.2,0,0,-0.2,-1.2,0)"
       style="fill:#000000;fill-opacity:1;fill-rule:evenodd;stroke:#000000;stroke-width:1.00000003pt;stroke-opacity:1"
       d="M 0,0 5,-5 -12.5,0 5,5 Z"
       id="path4714"
       inkscape:connector-curvature="0" /></marker><clipPath
     id="clipPath69-0"><path
       d="m 409.441,126.252 v -43.63 h 147.796 v 43.63"
       id="path71-2"
       inkscape:connector-curvature="0" /></clipPath><clipPath
     id="clipPath101-1"><path
       d="m 409.441,126.252 v -43.63 h 147.796 v 43.63"
       id="path103-6"
       inkscape:connector-curvature="0" /></clipPath><clipPath
     id="clipPath69"><path
       d="m 409.441,126.252 v -43.63 h 147.796 v 43.63"
       id="path71"
       inkscape:connector-curvature="0" /></clipPath><clipPath
     id="clipPath101"><path
       d="m 409.441,126.252 v -43.63 h 147.796 v 43.63"
       id="path103"
       inkscape:connector-curvature="0" /></clipPath></defs><sodipodi:namedview
   inkscape:document-rotation="0"
   inkscape:current-layer="Layer_1"
   inkscape:window-maximized="1"
   inkscape:window-y="-8"
   inkscape:window-x="-8"
   inkscape:cy="433.18219"
   inkscape:cx="232.81779"
   inkscape:zoom="0.35435437"
   showgrid="false"
   id="namedview315"
   inkscape:window-height="987"
   inkscape:window-width="1680"
   inkscape:pageshadow="2"
   inkscape:pageopacity="0"
   guidetolerance="10"
   gridtolerance="10"
   objecttolerance="10"
   borderopacity="1"
   bordercolor="#666666"
   pagecolor="#ffffff"
   inkscape:pagecheckerboard="0" />
<style
   id="style2"
   type="text/css">
	.st0{fill:none;stroke:#000000;stroke-width:2;stroke-linecap:round;stroke-linejoin:round;stroke-miterlimit:10;}
</style>


<path
   style="fill:none;stroke:#000000;stroke-width:5;stroke-linecap:butt;stroke-linejoin:miter;stroke-miterlimit:4;stroke-dasharray:none;stroke-opacity:1"
   d="M 614.09405,54.362124 H 60.348561 V 616.08953 H 615.09179 Z"
   id="path981" /><path
   style="fill:none;stroke:#000000;stroke-width:3;stroke-linecap:butt;stroke-linejoin:miter;stroke-miterlimit:4;stroke-dasharray:none;stroke-opacity:1"
   d="M 602.12117,65.337259 H 74.316916 V 605.11439 H 604.11665 Z"
   id="path983" /><path
   style="fill:none;fill-rule:evenodd;stroke:#000000;stroke-width:5;stroke-miterlimit:4;stroke-dasharray:none;stroke-opacity:1"
   id="path1007"
   sodipodi:type="arc"
   sodipodi:cx="337.72018"
   sodipodi:cy="221.98236"
   sodipodi:rx="36.916367"
   sodipodi:ry="36.916367"
   sodipodi:start="2.4065996"
   sodipodi:end="2.4059364"
   sodipodi:open="true"
   sodipodi:arc-type="arc"
   d="m 310.33432,246.73781 a 36.916367,36.916367 0 0 1 2.62587,-52.13721 36.916367,36.916367 0 0 1 52.13765,2.61723 36.916367,36.916367 0 0 1 -2.60859,52.13808 36.916367,36.916367 0 0 1 -52.13851,-2.59994" /><path
   style="fill:none;fill-rule:evenodd;stroke:#000000;stroke-width:5;stroke-miterlimit:4;stroke-dasharray:none;stroke-opacity:1"
   id="path1125"
   sodipodi:type="arc"
   sodipodi:cx="337.72018"
   sodipodi:cy="332.73145"
   sodipodi:rx="36.916367"
   sodipodi:ry="36.916367"
   sodipodi:start="2.4065996"
   sodipodi:end="2.4059364"
   sodipodi:open="true"
   sodipodi:arc-type="arc"
   d="m 310.33432,357.4869 a 36.916367,36.916367 0 0 1 2.62587,-52.13722 36.916367,36.916367 0 0 1 52.13765,2.61723 36.916367,36.916367 0 0 1 -2.60859,52.13809 36.916367,36.916367 0 0 1 -52.13851,-2.59995" /><path
   style="fill:none;fill-rule:evenodd;stroke:#000000;stroke-width:5;stroke-miterlimit:4;stroke-dasharray:none;stroke-opacity:1"
   id="path1127"
   sodipodi:type="arc"
   sodipodi:cx="337.72018"
   sodipodi:cy="443.48053"
   sodipodi:rx="36.916367"
   sodipodi:ry="36.916367"
   sodipodi:start="2.4065996"
   sodipodi:end="2.4059364"
   sodipodi:open="true"
   sodipodi:arc-type="arc"
   d="m 310.33432,468.23598 a 36.916367,36.916367 0 0 1 2.62587,-52.13721 36.916367,36.916367 0 0 1 52.13765,2.61723 36.916367,36.916367 0 0 1 -2.60859,52.13808 36.916367,36.916367 0 0 1 -52.13851,-2.59994" /><path
   style="fill:none;stroke:#000000;stroke-width:5;stroke-linecap:butt;stroke-linejoin:miter;stroke-miterlimit:4;stroke-dasharray:none;stroke-opacity:1"
   d="m 317.76538,219.9869 19.9548,-20.95253 19.95479,18.95705"
   id="path1162" /><path
   style="fill:none;stroke:#000000;stroke-width:5;stroke-linecap:butt;stroke-linejoin:miter;stroke-miterlimit:4;stroke-dasharray:none;stroke-opacity:1"
   d="m 317.76538,237.9869 19.9548,-20.95253 19.95479,18.95705"
   id="path1244" /><path
   style="fill:none;stroke:#000000;stroke-width:5;stroke-linecap:butt;stroke-linejoin:miter;stroke-miterlimit:4;stroke-dasharray:none;stroke-opacity:1"
   d="m 357.65728,442.67275 -19.9548,20.95253 -19.95479,-18.95705"
   id="path1246" /><path
   style="fill:none;stroke:#000000;stroke-width:5;stroke-linecap:butt;stroke-linejoin:miter;stroke-miterlimit:4;stroke-dasharray:none;stroke-opacity:1"
   d="m 357.65728,424.67275 -19.9548,20.95253 -19.95479,-18.95705"
   id="path1248" /><path
   style="fill:none;stroke:#000000;stroke-width:5;stroke-linecap:butt;stroke-linejoin:miter;stroke-miterlimit:4;stroke-dasharray:none;stroke-opacity:1"
   d="m 330.736,314.77216 v 31.92767"
   id="path1283" /><path
   style="fill:none;stroke:#000000;stroke-width:5;stroke-linecap:butt;stroke-linejoin:miter;stroke-miterlimit:4;stroke-dasharray:none;stroke-opacity:1"
   d="m 342.736,314.77216 v 31.92767"
   id="path1285" /></svg>
