<?xml version="1.0" encoding="UTF-8" standalone="no"?>
<svg
   inkscape:version="1.2 (dc2aedaf03, 2022-05-15)"
   sodipodi:docname="icon.svg"
   xml:space="preserve"
   style="enable-background:new 0 0 667 666;"
   viewBox="0 0 667 666"
   y="0px"
   x="0px"
   id="Layer_1"
   version="1.1"
   xmlns:inkscape="http://www.inkscape.org/namespaces/inkscape"
   xmlns:sodipodi="http://sodipodi.sourceforge.net/DTD/sodipodi-0.dtd"
   xmlns="http://www.w3.org/2000/svg"
   xmlns:svg="http://www.w3.org/2000/svg"
   xmlns:rdf="http://www.w3.org/1999/02/22-rdf-syntax-ns#"
   xmlns:cc="http://creativecommons.org/ns#"
   xmlns:dc="http://purl.org/dc/elements/1.1/"><metadata
   id="metadata319"><rdf:RDF><cc:Work
       rdf:about=""><dc:format>image/svg+xml</dc:format><dc:type
         rdf:resource="http://purl.org/dc/dcmitype/StillImage" /></cc:Work></rdf:RDF></metadata><defs
   id="defs317"><marker
     inkscape:isstock="true"
     style="overflow:visible"
     id="Arrow1Send"
     refX="0"
     refY="0"
     orient="auto"
     inkscape:stockid="Arrow1Send"><path
       transform="matrix(-0.2,0,0,-0.2,-1.2,0)"
       style="fill:#000000;fill-opacity:1;fill-rule:evenodd;stroke:#000000;stroke-width:1.00000003pt;stroke-opacity:1"
       d="M 0,0 5,-5 -12.5,0 5,5 Z"
       id="path4714"
       inkscape:connector-curvature="0" /></marker><clipPath
     id="clipPath69-0"><path
       d="m 409.441,126.252 v -43.63 h 147.796 v 43.63"
       id="path71-2"
       inkscape:connector-curvature="0" /></clipPath><clipPath
     id="clipPath101-1"><path
       d="m 409.441,126.252 v -43.63 h 147.796 v 43.63"
       id="path103-6"
       inkscape:connector-curvature="0" /></clipPath><clipPath
     id="clipPath69"><path
       d="m 409.441,126.252 v -43.63 h 147.796 v 43.63"
       id="path71"
       inkscape:connector-curvature="0" /></clipPath><clipPath
     id="clipPath101"><path
       d="m 409.441,126.252 v -43.63 h 147.796 v 43.63"
       id="path103"
       inkscape:connector-curvature="0" /></clipPath></defs><sodipodi:namedview
   inkscape:document-rotation="0"
   inkscape:current-layer="Layer_1"
   inkscape:window-maximized="1"
   inkscape:window-y="-8"
   inkscape:window-x="-8"
   inkscape:cy="209.52532"
   inkscape:cx="310.29702"
   inkscape:zoom="0.50113275"
   showgrid="false"
   id="namedview315"
   inkscape:window-height="987"
   inkscape:window-width="1680"
   inkscape:pageshadow="2"
   inkscape:pageopacity="0"
   guidetolerance="10"
   gridtolerance="10"
   objecttolerance="10"
   borderopacity="1"
   bordercolor="#666666"
   pagecolor="#ffffff"
   inkscape:showpageshadow="2"
   inkscape:pagecheckerboard="0"
   inkscape:deskcolor="#d1d1d1" />
<style
   id="style2"
   type="text/css">
	.st0{fill:none;stroke:#000000;stroke-width:2;stroke-linecap:round;stroke-linejoin:round;stroke-miterlimit:10;}
</style>


<path
   d="m 314.09643,52.915169 c 18.16836,-1.665423 37.11659,-2.603591 55.88988,-2.437402 l 0.19817,0.0019 c 6.06576,0.08492 13.77026,1.968993 21.32228,4.80112 l 0.9431,0.358893 c 0.15703,0.06061 0.31392,0.121631 0.4707,0.183033 l 0.93924,0.373011 c 0.78135,0.31463 1.55902,0.638576 2.33098,0.970891 l 0.92345,0.402733 0.91726,0.410384 c 5.17842,2.346543 10.01817,5.04421 13.88276,7.790525 l 0.33492,0.239946 c 6.39565,4.617793 10.18434,12.026293 10.18434,19.914788 V 605.91919 c 0,7.77792 -3.6838,15.09625 -9.93109,19.7295 -11.71463,8.68796 -30.83882,14.42159 -42.92601,14.32686 l -0.88593,-0.003 c -16.17833,-0.0697 -30.66391,-1.10107 -43.91536,-2.9234 l -1.685,-0.23693 c -5.31484,-0.76377 -10.4312,-1.65562 -15.37936,-2.66427 -3.8473,-0.78426 -7.45945,-1.61181 -11.08707,-2.51945 -0.20024,-0.0501 -0.39957,-0.1002 -0.59849,-0.15042 l -1.19276,-0.30376 -1.20765,-0.31265 -1.24711,-0.32751 -3.59318,-0.95934 C 278.19571,626.60679 270.854,616.94805 270.854,605.92404 l -2.7e-4,-487.61556 -271.69866293,17.19655 c -3.38469897,0.21422 -6.30219557,-2.35596 -6.51642567,-5.74066 -0.156481,-2.47247 1.172818,-4.69566 3.2200537,-5.79792 -1.474394,-1.03291 -2.4827539,-2.70287 -2.6058632,-4.63981 -0.2114819,-3.32727 2.2679712,-6.20377 5.5675282,-6.5047 l 0.171391,-0.0133 L 270.85373,95.528515 V 84.498333 L 0.37192907,101.11774 c -3.38508397,0.20798 -6.29785097,-2.367585 -6.50582577,-5.752675 -0.2044595,-3.32771 2.2810608,-6.19897 5.58124277,-6.49293 l 0.171418,-0.0129 L 272.05811,72.120616 c 0.42002,-1.289347 0.94414,-2.533855 1.56316,-3.722886 L 0.38486707,85.764913 c -3.38464597,0.215124 -6.30282897,-2.354274 -6.51796077,-5.738919 -0.2114818,-3.327273 2.2679798,-6.203773 5.56753677,-6.504697 l 0.171383,-0.01327 L 289.4518,55.08565 c 0.85201,-0.05416 1.67446,0.06814 2.43169,0.335472 l 1.04631,-0.146581 2.57521,-0.340704 2.13595,-0.267856 1.77051,-0.21381 1.34409,-0.157819 2.07012,-0.235807 1.41539,-0.156338 1.44311,-0.155461 1.47038,-0.15441 2.25571,-0.22928 1.53653,-0.151051 1.56221,-0.149419 z m -17.50049,517.730341 5e-5,35.5936 0.83149,0.2222 1.89438,0.50163 1.66115,0.43132 1.79229,0.45364 1.43122,0.35247 1.50652,0.36105 1.04651,0.24465 1.08046,0.24719 c 0.18291,0.0414 0.36725,0.0829 0.55303,0.12441 l 1.13174,0.25009 1.1662,0.25142 c 0.39449,0.084 0.79475,0.16805 1.20083,0.25219 l 1.23565,0.25251 1.27067,0.2523 c 0.42943,0.084 0.86471,0.16789 1.30591,0.25158 l 1.3413,0.25037 c 11.49661,2.11138 26.81505,4.03859 46.48509,4.41109 l 3e-4,-39.5949 -0.24698,-0.003 c -0.36095,-0.004 -0.72093,-0.009 -1.08004,-0.0144 l -2.14352,-0.033 c -0.35542,-0.006 -0.70989,-0.0122 -1.06342,-0.0186 l -2.10993,-0.0416 c -0.34977,-0.007 -0.69859,-0.0151 -1.04645,-0.0229 l -2.07571,-0.05 -2.05254,-0.0554 c -0.34014,-0.01 -0.67931,-0.0196 -1.01749,-0.0297 l -2.01727,-0.0635 -1.9934,-0.0688 -1.96925,-0.0741 -1.94483,-0.0792 -1.92013,-0.0843 c -0.31794,-0.0145 -0.63485,-0.0292 -0.9507,-0.0441 l -1.88254,-0.0919 -1.85714,-0.0968 c -0.30739,-0.0165 -0.61371,-0.0333 -0.91895,-0.0502 l -1.81851,-0.10408 -1.79239,-0.10885 -1.766,-0.11354 c -0.29213,-0.0193 -0.58313,-0.0388 -0.87303,-0.0585 l -1.72591,-0.12045 c -0.5708,-0.0409 -1.13709,-0.0825 -1.69882,-0.12498 l -1.67145,-0.12944 c -0.27629,-0.022 -0.55141,-0.0441 -0.82539,-0.0664 l -1.62988,-0.13598 -1.60182,-0.14027 -1.57347,-0.14449 c -0.51974,-0.0489 -1.0347,-0.0984 -1.54485,-0.14863 l -1.51595,-0.1527 -1.48676,-0.15672 c -0.24534,-0.0265 -0.48947,-0.0531 -0.73235,-0.0799 l -1.44246,-0.16259 -1.41257,-0.16644 -1.38241,-0.1702 -1.35196,-0.1739 -1.32125,-0.17754 -1.29023,-0.18109 -1.25895,-0.1846 c -0.62162,-0.0932 -1.23138,-0.18759 -1.82916,-0.28328 l -1.17952,-0.19302 -1.14725,-0.19628 c -0.95944,-0.16786 -1.88376,-0.33916 -2.77216,-0.5137 z m 79.21622,5.04224 1.8e-4,39.02076 0.41168,-0.0792 0.62489,-0.12758 0.63827,-0.13708 c 0.10741,-0.0236 0.21536,-0.0477 0.32381,-0.0721 l 0.65633,-0.15132 c 0.2207,-0.052 0.44312,-0.10562 0.66719,-0.16079 l 0.67709,-0.17024 c 0.11361,-0.0292 0.22758,-0.0587 0.34186,-0.0887 l 0.68992,-0.18439 0.69722,-0.19378 0.70356,-0.20318 c 0.35322,-0.10392 0.7084,-0.21137 1.065,-0.32232 l 0.71504,-0.22656 c 0.23887,-0.0771 0.47817,-0.1557 0.71779,-0.23588 l 0.71964,-0.24518 0.7205,-0.25447 0.72032,-0.26373 c 3.95928,-1.47597 7.86501,-3.3715 10.96784,-5.67269 l 1.9e-4,-34.58413 c -6.82925,2.53422 -14.83477,3.9433 -22.05832,4.35254 z m -60.43907,-477.815455 -2.65887,0.23527 -2.39044,0.22092 -1.56117,0.14922 -1.53457,0.15058 -2.25081,0.22802 -1.46575,0.1532 -1.43728,0.15395 -2.10138,0.23195 -2.03433,0.23267 -1.3425,0.15924 -1.3e-4,458.313275 c 0.41764,0.0935 0.84694,0.18625 1.28774,0.27818 l 0.94758,0.19283 0.98149,0.19034 c 0.16639,0.0315 0.33418,0.0629 0.50338,0.0942 l 1.03181,0.18647 c 0.69896,0.12343 1.42005,0.24508 2.16287,0.36484 l 1.13049,0.17822 1.16279,0.17531 c 0.19648,0.029 0.39429,0.0578 0.59342,0.0865 l 1.2107,0.17082 1.24229,0.16773 1.27355,0.16457 c 0.21486,0.0271 0.431,0.0542 0.64843,0.0811 l 1.31994,0.15967 c 0.22254,0.0263 0.44636,0.0525 0.67145,0.0786 l 1.36566,0.15462 1.39577,0.15116 c 0.23513,0.0249 0.4715,0.0496 0.7091,0.0742 l 1.4404,0.14581 1.46979,0.14216 c 0.4948,0.0468 0.99444,0.0929 1.49888,0.13843 l 1.52769,0.13462 1.55619,0.13075 1.58441,0.12679 1.61232,0.12277 1.63998,0.11864 1.66731,0.11448 1.69435,0.11023 1.72112,0.10588 c 0.28905,0.0172 0.57923,0.0344 0.87049,0.0513 l 1.76069,0.0992 1.78672,0.0947 c 0.29995,0.0154 0.60096,0.0306 0.90304,0.0456 l 1.82522,0.0878 1.85051,0.0832 1.8755,0.0783 1.90023,0.0734 1.92464,0.0685 c 0.3228,0.011 0.64659,0.0218 0.97139,0.0324 l 1.96072,0.0609 c 0.32878,0.01 0.65853,0.0193 0.98927,0.0286 l 1.99615,0.0533 c 0.66927,0.0169 1.34242,0.0329 2.0194,0.0481 l 2.04235,0.0427 c 0.3423,0.007 0.68553,0.0131 1.02971,0.0194 l 2.07625,0.0346 2.09843,0.0292 v -4.9e-4 l 6.2e-4,-467.865565 c -15.98358,0.0601 -32.28294,0.89377 -48.15825,2.26637 z m 60.43925,-0.79246 6e-5,466.296435 c 7.48773,-0.51337 16.01061,-2.28718 21.70713,-5.28029 0.116,-0.0609 0.23304,-0.11781 0.35101,-0.17066 l -3e-4,-451.26871 c -1.14447,-0.008 -2.29796,-0.3356 -3.32003,-1.00718 l -0.1499,-0.10161 c -1.24339,-0.8695 -2.75986,-1.76831 -4.43753,-2.65379 l -0.63643,-0.33136 -0.65025,-0.32959 c -0.21892,-0.10952 -0.43993,-0.21866 -0.66278,-0.32734 l -0.67389,-0.3246 c -0.11318,-0.0539 -0.22678,-0.10754 -0.34069,-0.1611 l -0.68826,-0.31953 c -0.11539,-0.0529 -0.23108,-0.10571 -0.34714,-0.1583 l -0.69957,-0.31334 -0.70545,-0.30859 -0.71006,-0.30334 c -0.11871,-0.05011 -0.23746,-0.09991 -0.35635,-0.149545 l -0.71455,-0.29453 c -0.11925,-0.0486 -0.23857,-0.0968 -0.35789,-0.14485 l -0.71601,-0.28459 c -0.11931,-0.0468 -0.23863,-0.0934 -0.35789,-0.1396 l -0.7146,-0.27352 -0.71196,-0.26552 -0.70811,-0.25701 -0.70281,-0.24802 -0.69631,-0.23851 c -0.11544,-0.0389 -0.23052,-0.0774 -0.34529,-0.11554 l -0.68403,-0.22333 -0.67419,-0.21257 z m 1.8e-4,-21.085761 -3.6e-4,8.387953 c 0.18281,0.04391 0.36672,0.08905 0.55168,0.135361 l 0.79143,0.203733 0.80267,0.21752 0.81273,0.230821 c 1.49854,0.435076 3.04197,0.934783 4.59762,1.485763 l 0.84959,0.30554 c 0.14172,0.0518 0.28351,0.10389 0.42537,0.15643 l 0.85099,0.31989 c 0.28365,0.10816 0.56722,0.2178 0.8505,0.32886 l 0.84885,0.33734 0.84601,0.34533 c 0.28138,0.11639 0.56207,0.23403 0.8419,0.35285 l 0.83675,0.35989 c 0.13897,0.0605 0.27769,0.12135 0.4161,0.18244 l 0.82668,0.36953 c 2.45951,1.11349 4.80978,2.30511 6.90963,3.51694 l -3.7e-4,-7.305146 c -1.76468,-1.274143 -4.05035,-2.618483 -6.5857,-3.911184 l -0.73094,-0.367827 c -0.36863,-0.183113 -0.74181,-0.36493 -1.11879,-0.545101 l -0.75876,-0.35804 c -0.12718,-0.05926 -0.25479,-0.118339 -0.3827,-0.17718 l -0.77122,-0.350278 c -0.25822,-0.115797 -0.51755,-0.230599 -0.77774,-0.344303 l -0.78295,-0.337707 -0.78663,-0.330479 -0.78897,-0.322614 c -0.39486,-0.159237 -0.79002,-0.315293 -1.18481,-0.467801 l -0.78867,-0.300198 c -0.39381,-0.147632 -0.78663,-0.291486 -1.17768,-0.431214 l -0.77957,-0.273831 c -0.77675,-0.268114 -1.54429,-0.518745 -2.29642,-0.749061 l -0.74672,-0.223439 c -0.54346,-0.158741 -1.07747,-0.30604 -1.5995,-0.440788 z M 363.5303,75.027862 c -5.75735,0.0277 -11.37067,0.160435 -16.74563,0.364825 l -2.1767,0.08716 -2.14891,0.0946 c -0.35574,0.01634 -0.71029,0.03303 -1.06357,0.04992 l -2.10454,0.104811 c -0.34818,0.01799 -0.69506,0.03623 -1.0406,0.05478 l -2.05698,0.113894 -2.0235,0.119321 c -0.66876,0.04059 -1.33171,0.08206 -1.9886,0.124254 l -1.9523,0.12868 c -0.32228,0.0218 -0.64298,0.04372 -0.96208,0.06584 l -1.89516,0.134385 -1.8553,0.137561 -1.81402,0.14023 -1.77133,0.142412 -2.57383,0.216599 -1.65837,0.145653 -1.61072,0.146078 -1.56163,0.145997 -1.51114,0.14542 -1.45923,0.144335 -1.40588,0.142761 -2.00572,0.21007 -1.26635,0.136615 -1.78976,0.198513 -1.6538,0.189321 -1.02464,0.120269 -2.2786,0.276238 -1.52011,0.191709 -1.50306,0.196475 -0.51225,0.0703 v 7.853467 l 1.30041,-0.15004 2.12524,-0.23742 1.45375,-0.15762 2.23467,-0.23503 2.29795,-0.23282 1.56625,-0.15369 1.59305,-0.15229 2.43869,-0.225378 c 0.27417,-0.02481 0.54942,-0.04956 0.82571,-0.07423 16.7993,-1.499676 34.10091,-2.415381 51.09945,-2.47763 z"
   id="path1206"
   style="stroke-width:0.614081" /></svg>
