<?xml version="1.0" encoding="UTF-8" standalone="no"?>
<svg
   xmlns:dc="http://purl.org/dc/elements/1.1/"
   xmlns:cc="http://creativecommons.org/ns#"
   xmlns:rdf="http://www.w3.org/1999/02/22-rdf-syntax-ns#"
   xmlns:svg="http://www.w3.org/2000/svg"
   xmlns="http://www.w3.org/2000/svg"
   xmlns:sodipodi="http://sodipodi.sourceforge.net/DTD/sodipodi-0.dtd"
   xmlns:inkscape="http://www.inkscape.org/namespaces/inkscape"
   inkscape:version="1.0 (4035a4fb49, 2020-05-01)"
   sodipodi:docname="icon.svg"
   xml:space="preserve"
   style="enable-background:new 0 0 667 666;"
   viewBox="0 0 667 666"
   y="0px"
   x="0px"
   id="Layer_1"
   version="1.1"><metadata
   id="metadata319"><rdf:RDF><cc:Work
       rdf:about=""><dc:format>image/svg+xml</dc:format><dc:type
         rdf:resource="http://purl.org/dc/dcmitype/StillImage" /></cc:Work></rdf:RDF></metadata><defs
   id="defs317"><marker
     inkscape:isstock="true"
     style="overflow:visible"
     id="Arrow1Send"
     refX="0"
     refY="0"
     orient="auto"
     inkscape:stockid="Arrow1Send"><path
       transform="matrix(-0.2,0,0,-0.2,-1.2,0)"
       style="fill:#000000;fill-opacity:1;fill-rule:evenodd;stroke:#000000;stroke-width:1.00000003pt;stroke-opacity:1"
       d="M 0,0 5,-5 -12.5,0 5,5 Z"
       id="path4714"
       inkscape:connector-curvature="0" /></marker><clipPath
     id="clipPath69-0"><path
       d="m 409.441,126.252 v -43.63 h 147.796 v 43.63"
       id="path71-2"
       inkscape:connector-curvature="0" /></clipPath><clipPath
     id="clipPath101-1"><path
       d="m 409.441,126.252 v -43.63 h 147.796 v 43.63"
       id="path103-6"
       inkscape:connector-curvature="0" /></clipPath><clipPath
     id="clipPath69"><path
       d="m 409.441,126.252 v -43.63 h 147.796 v 43.63"
       id="path71"
       inkscape:connector-curvature="0" /></clipPath><clipPath
     id="clipPath101"><path
       d="m 409.441,126.252 v -43.63 h 147.796 v 43.63"
       id="path103"
       inkscape:connector-curvature="0" /></clipPath></defs><sodipodi:namedview
   inkscape:document-rotation="0"
   inkscape:current-layer="Layer_1"
   inkscape:window-maximized="1"
   inkscape:window-y="-8"
   inkscape:window-x="-8"
   inkscape:cy="387.52224"
   inkscape:cx="481.36223"
   inkscape:zoom="0.25056637"
   showgrid="false"
   id="namedview315"
   inkscape:window-height="987"
   inkscape:window-width="1680"
   inkscape:pageshadow="2"
   inkscape:pageopacity="0"
   guidetolerance="10"
   gridtolerance="10"
   objecttolerance="10"
   borderopacity="1"
   bordercolor="#666666"
   pagecolor="#ffffff" />
<style
   id="style2"
   type="text/css">
	.st0{fill:none;stroke:#000000;stroke-width:2;stroke-linecap:round;stroke-linejoin:round;stroke-miterlimit:10;}
</style>


<path
   style="fill:none;stroke:#000000;stroke-width:4;stroke-linecap:butt;stroke-linejoin:miter;stroke-opacity:1;stroke-miterlimit:4;stroke-dasharray:none"
   d="m 335.11651,561.58473 c -9.69224,8.51182 -18.15873,12.14262 -32.45338,12.69915 -25.72139,0.81227 -97.00588,-7.83815 -133.3411,-11.99364 -10.45147,-1.19529 -20.37423,-8.8181 -26.2193,-17.56436 -6.54382,-9.79184 -6.8204,-22.86671 -6.9396,-34.64327 l -3.52754,-348.52117 c -0.1223,-12.08302 1.79094,-25.72675 9.58496,-34.96078 6.26185,-7.41878 16.78921,-10.90857 26.39597,-12.30829 24.02845,-3.50098 113.82621,-2.80949 146.04025,4.93856 7.88267,1.89592 16.09537,7.81245 21.63907,14.49338 5.46565,6.58686 10.10881,14.65055 10.10881,23.60407 l 0,354.87076 c 0,38.67851 -11.99364,50.0911 -11.99364,50.0911 0,0 23.59563,-14.57206 31.74788,-25.39831 5.51706,-7.3267 10.56515,-16.22671 10.58262,-25.3983 l 0.70551,-370.39194 c 0.0194,-10.18988 -6.7786,-20.02747 -13.93097,-27.33847 -8.0759,-8.25502 -19.06536,-14.904002 -30.51606,-16.403054 -29.06934,-3.805574 -83.03711,-8.042605 -117.81991,-5.644067 -14.47199,0.997953 -28.52536,6.467474 -41.625,12.699151 -9.69468,4.61189 -26.72741,17.97091 -26.72741,17.97091"
   id="path865"
   sodipodi:nodetypes="ccsassassasssassassac" /><path
   style="fill:none;stroke:#000000;stroke-width:4;stroke-linecap:butt;stroke-linejoin:miter;stroke-opacity:1;stroke-miterlimit:4;stroke-dasharray:none"
   d="m 413.0752,151.33156 c -0.0151,-5.67581 0.13882,-12.31139 3.8803,-16.57945 3.72861,-4.25338 10.2187,-6.10663 15.87394,-5.99682 36.33368,0.70551 0,0 36.33368,0.70551 5.91212,0.1148 12.67549,1.18682 16.9322,5.29131 4.57786,4.41415 6.33299,11.63112 6.34958,17.99047 1.05826,405.66736 0,0 1.05826,405.66736 0.0147,5.6158 -1.8063,11.77406 -5.64407,15.87394 -3.85121,4.11423 -9.89029,6.92984 -15.52118,6.70233 -34.92267,-1.41102 0,0 -34.92267,-1.41102 -6.31059,-0.25497 -13.20515,-2.93942 -17.28496,-7.76059 -5.10326,-6.0306 -5.97579,-15.02897 -5.99682,-22.92902 -1.05826,-397.55402 0,0 -1.05826,-397.55402 z"
   id="path869"
   sodipodi:nodetypes="sassassassass" /><path
   sodipodi:nodetypes="sassassassass"
   id="path871"
   d="m 141.10169,150.62605 c -0.0325,-5.67574 3.60244,-14.38532 8.81886,-19.04873 8.59353,-7.6825 27.15225,-11.10059 32.80615,-10.93538 l 108.64829,3.17478 c 5.91071,0.17272 27.37306,5.76792 36.68643,15.16843 6.86932,6.9336 10.99064,20.80296 10.93539,27.16209 l -3.17479,365.45337 c -0.0488,5.61562 -5.16107,20.22213 -12.69916,26.45657 -6.3737,5.27142 -18.36897,6.78927 -23.98728,6.34958 l -121.70021,-9.52437 c -6.29648,-0.49277 -15.55957,-3.33634 -21.16525,-8.4661 -7.09939,-6.49664 -13.00672,-17.8511 -13.05191,-25.75105 z"
   style="fill:none;stroke:#000000;stroke-width:4;stroke-linecap:butt;stroke-linejoin:miter;stroke-opacity:1;stroke-miterlimit:4;stroke-dasharray:none" /><path
   style="fill:none;fill-rule:evenodd;stroke:#000000;stroke-width:4.00003074;stroke-opacity:1;stroke-miterlimit:4;stroke-dasharray:none"
   id="path873"
   sodipodi:type="arc"
   sodipodi:cx="-47.212387"
   sodipodi:cy="416.96033"
   sodipodi:rx="70.370331"
   sodipodi:ry="73.953468"
   sodipodi:start="0.83683651"
   sodipodi:end="0.83455187"
   sodipodi:open="true"
   sodipodi:arc-type="arc"
   d="m -0.07727318,471.87284 a 70.370331,73.953468 0 0 1 -99.36011682,-5.346 70.370331,73.953468 0 0 1 5.030231,-104.4224 70.370331,73.953468 0 0 1 99.3658631,5.22671 70.370331,73.953468 0 0 1 -4.91672354,104.42838"
   transform="matrix(0.75149877,-0.65973449,0.6638911,0.74782926,0,0)" /><path
   sodipodi:nodetypes="sassassassass"
   id="path875"
   d="m 421.66418,163.85433 c -0.0364,-5.67571 -0.66432,-15.25809 4.05668,-20.28337 3.29059,-3.50266 8.27749,-3.70391 13.93379,-3.70391 l 24.34004,0 c 5.91323,0 10.10799,3.01035 13.22828,6.87871 2.94601,3.65229 3.68081,7.22171 3.70393,13.58104 l 1.41101,388.20603 c 0.0204,5.61578 1.63353,13.36004 -2.11653,18.16684 -2.86128,3.66756 -7.4169,5.0127 -13.0519,4.93856 l -26.80932,-0.35276 c -6.31519,-0.0831 -10.09694,-2.37446 -13.05191,-6.1732 -3.38399,-4.35026 -3.12413,-8.32677 -3.17479,-16.22669 z"
   style="fill:none;stroke:#000000;stroke-width:4;stroke-linecap:butt;stroke-linejoin:miter;stroke-opacity:1;stroke-miterlimit:4;stroke-dasharray:none" /><path
   style="fill:none;stroke:#000000;stroke-width:4;stroke-linecap:butt;stroke-linejoin:miter;stroke-opacity:1;stroke-miterlimit:4;stroke-dasharray:none"
   d="m 490.32837,570.05083 c 0,0 15.7168,-11.54604 20.45975,-19.75424 3.88094,-6.71638 5.64407,-14.81924 5.64407,-22.57627 V 134.04661 c 0,-11.80776 -12.88504,-25.39831 -24.6928,-25.39831 h -35.98093 c -10.00507,0 -17.94711,9.02174 -26.10381,14.81568 -3.96482,2.81633 -10.97816,9.60954 -10.97816,9.60954"
   id="path877"
   sodipodi:nodetypes="cassssac" /><path
   d="m 367.33074,187.85013 a 3.1570613,3.1570613 0 0 1 -4.45764,-0.22822 3.1570613,3.1570613 0 0 1 0.22567,-4.45778 3.1570613,3.1570613 0 0 1 4.4579,0.22313 3.1570613,3.1570613 0 0 1 -0.22058,4.45803"
   sodipodi:arc-type="arc"
   sodipodi:open="true"
   sodipodi:end="0.83455187"
   sodipodi:start="0.83683651"
   sodipodi:ry="3.1570613"
   sodipodi:rx="3.1570613"
   sodipodi:cy="185.50592"
   sodipodi:cx="365.21609"
   sodipodi:type="arc"
   id="path1183"
   style="fill:#000000;fill-opacity:1;fill-rule:evenodd;stroke-width:3.5799" /></svg>
