<?xml version="1.0" encoding="UTF-8" standalone="no"?>
<svg
   xmlns:dc="http://purl.org/dc/elements/1.1/"
   xmlns:cc="http://creativecommons.org/ns#"
   xmlns:rdf="http://www.w3.org/1999/02/22-rdf-syntax-ns#"
   xmlns:svg="http://www.w3.org/2000/svg"
   xmlns="http://www.w3.org/2000/svg"
   xmlns:sodipodi="http://sodipodi.sourceforge.net/DTD/sodipodi-0.dtd"
   xmlns:inkscape="http://www.inkscape.org/namespaces/inkscape"
   inkscape:version="1.0 (4035a4fb49, 2020-05-01)"
   sodipodi:docname="learn.svg"
   xml:space="preserve"
   style="enable-background:new 0 0 667 666;"
   viewBox="0 0 667 666"
   y="0px"
   x="0px"
   id="Layer_1"
   version="1.1"><path
   sodipodi:nodetypes="sassassassass"
   id="path871-8"
   d="m 145.33754,133.50957 c -0.0325,-5.67574 3.60244,-14.38532 8.81886,-19.04873 8.59353,-7.6825 27.15225,-11.10059 32.80615,-10.93538 l 108.64829,3.17478 c 5.91071,0.17272 27.37306,5.76792 36.68643,15.16843 6.86932,6.9336 10.99064,20.80296 10.93539,27.16209 l -3.17479,365.45337 c -0.0488,5.61562 -5.16107,20.22213 -12.69916,26.45657 -6.3737,5.27142 -18.36897,6.78927 -23.98728,6.34958 l -121.70021,-9.52437 c -6.29648,-0.49277 -15.55957,-3.33634 -21.16525,-8.4661 -7.09939,-6.49664 -13.00672,-17.8511 -13.05191,-25.75105 z"
   style="fill:none;stroke:#000000;stroke-width:4;stroke-linecap:butt;stroke-linejoin:miter;stroke-miterlimit:4;stroke-dasharray:none;stroke-opacity:1" /><path
   style="fill:none;fill-rule:evenodd;stroke:#000000;stroke-width:4.00003;stroke-miterlimit:4;stroke-dasharray:none;stroke-opacity:1"
   id="path873-4"
   sodipodi:type="arc"
   sodipodi:cx="-32.680996"
   sodipodi:cy="406.89169"
   sodipodi:rx="70.370331"
   sodipodi:ry="73.953468"
   sodipodi:start="0.83683651"
   sodipodi:end="0.83455187"
   sodipodi:open="true"
   sodipodi:arc-type="arc"
   transform="matrix(0.75149877,-0.65973449,0.6638911,0.74782926,0,0)"
   d="m 14.454118,461.80421 a 70.370331,73.953468 0 0 1 -99.360117,-5.34601 70.370331,73.953468 0 0 1 5.030231,-104.4224 70.370331,73.953468 0 0 1 99.365863,5.22672 70.370331,73.953468 0 0 1 -4.916723,104.42837" /><metadata
   id="metadata319"><rdf:RDF><cc:Work
       rdf:about=""><dc:format>image/svg+xml</dc:format><dc:type
         rdf:resource="http://purl.org/dc/dcmitype/StillImage" /><dc:title /></cc:Work></rdf:RDF></metadata><defs
   id="defs317"><marker
     inkscape:isstock="true"
     style="overflow:visible"
     id="Arrow1Send"
     refX="0"
     refY="0"
     orient="auto"
     inkscape:stockid="Arrow1Send"><path
       transform="matrix(-0.2,0,0,-0.2,-1.2,0)"
       style="fill:#000000;fill-opacity:1;fill-rule:evenodd;stroke:#000000;stroke-width:1.00000003pt;stroke-opacity:1"
       d="M 0,0 5,-5 -12.5,0 5,5 Z"
       id="path4714"
       inkscape:connector-curvature="0" /></marker><clipPath
     id="clipPath69-0"><path
       d="m 409.441,126.252 v -43.63 h 147.796 v 43.63"
       id="path71-2"
       inkscape:connector-curvature="0" /></clipPath><clipPath
     id="clipPath101-1"><path
       d="m 409.441,126.252 v -43.63 h 147.796 v 43.63"
       id="path103-6"
       inkscape:connector-curvature="0" /></clipPath><clipPath
     id="clipPath69"><path
       d="m 409.441,126.252 v -43.63 h 147.796 v 43.63"
       id="path71"
       inkscape:connector-curvature="0" /></clipPath><clipPath
     id="clipPath101"><path
       d="m 409.441,126.252 v -43.63 h 147.796 v 43.63"
       id="path103"
       inkscape:connector-curvature="0" /></clipPath><pattern
     id="EMFhbasepattern"
     patternUnits="userSpaceOnUse"
     width="6"
     height="6"
     x="0"
     y="0" /><marker
     inkscape:stockid="Arrow1Send"
     orient="auto"
     refY="0"
     refX="0"
     id="Arrow1Send-4"
     style="overflow:visible"
     inkscape:isstock="true"><path
       inkscape:connector-curvature="0"
       id="path4714-2"
       d="M 0,0 5,-5 -12.5,0 5,5 Z"
       style="fill:#000000;fill-opacity:1;fill-rule:evenodd;stroke:#000000;stroke-width:1.00000003pt;stroke-opacity:1"
       transform="matrix(-0.2,0,0,-0.2,-1.2,0)" /></marker><clipPath
     id="clipPath69-0-5"><path
       inkscape:connector-curvature="0"
       id="path71-2-2"
       d="m 409.441,126.252 v -43.63 h 147.796 v 43.63" /></clipPath><clipPath
     id="clipPath101-1-4"><path
       inkscape:connector-curvature="0"
       id="path103-6-3"
       d="m 409.441,126.252 v -43.63 h 147.796 v 43.63" /></clipPath><clipPath
     id="clipPath69-2"><path
       inkscape:connector-curvature="0"
       id="path71-4"
       d="m 409.441,126.252 v -43.63 h 147.796 v 43.63" /></clipPath><clipPath
     id="clipPath101-3"><path
       inkscape:connector-curvature="0"
       id="path103-7"
       d="m 409.441,126.252 v -43.63 h 147.796 v 43.63" /></clipPath><pattern
     y="0"
     x="0"
     height="6"
     width="6"
     patternUnits="userSpaceOnUse"
     id="EMFhbasepattern-1" /><marker
     inkscape:stockid="Arrow1Send"
     orient="auto"
     refY="0"
     refX="0"
     id="Arrow1Send-0"
     style="overflow:visible"
     inkscape:isstock="true"><path
       inkscape:connector-curvature="0"
       id="path4714-1"
       d="M 0,0 5,-5 -12.5,0 5,5 Z"
       style="fill:#000000;fill-opacity:1;fill-rule:evenodd;stroke:#000000;stroke-width:1.00000003pt;stroke-opacity:1"
       transform="matrix(-0.2,0,0,-0.2,-1.2,0)" /></marker><clipPath
     id="clipPath69-0-3"><path
       inkscape:connector-curvature="0"
       id="path71-2-4"
       d="m 409.441,126.252 v -43.63 h 147.796 v 43.63" /></clipPath><clipPath
     id="clipPath101-1-9"><path
       inkscape:connector-curvature="0"
       id="path103-6-33"
       d="m 409.441,126.252 v -43.63 h 147.796 v 43.63" /></clipPath><clipPath
     id="clipPath69-3"><path
       inkscape:connector-curvature="0"
       id="path71-5"
       d="m 409.441,126.252 v -43.63 h 147.796 v 43.63" /></clipPath><clipPath
     id="clipPath101-0"><path
       inkscape:connector-curvature="0"
       id="path103-1"
       d="m 409.441,126.252 v -43.63 h 147.796 v 43.63" /></clipPath><pattern
     y="0"
     x="0"
     height="6"
     width="6"
     patternUnits="userSpaceOnUse"
     id="EMFhbasepattern-2" /><marker
     inkscape:stockid="Arrow1Send"
     orient="auto"
     refY="0"
     refX="0"
     id="Arrow1Send-5"
     style="overflow:visible"
     inkscape:isstock="true"><path
       inkscape:connector-curvature="0"
       id="path4714-0"
       d="M 0,0 5,-5 -12.5,0 5,5 Z"
       style="fill:#000000;fill-opacity:1;fill-rule:evenodd;stroke:#000000;stroke-width:1.00000003pt;stroke-opacity:1"
       transform="matrix(-0.2,0,0,-0.2,-1.2,0)" /></marker><clipPath
     id="clipPath69-0-7"><path
       inkscape:connector-curvature="0"
       id="path71-2-5"
       d="m 409.441,126.252 v -43.63 h 147.796 v 43.63" /></clipPath><clipPath
     id="clipPath101-1-99"><path
       inkscape:connector-curvature="0"
       id="path103-6-6"
       d="m 409.441,126.252 v -43.63 h 147.796 v 43.63" /></clipPath><clipPath
     id="clipPath69-4"><path
       inkscape:connector-curvature="0"
       id="path71-7"
       d="m 409.441,126.252 v -43.63 h 147.796 v 43.63" /></clipPath><clipPath
     id="clipPath101-5"><path
       inkscape:connector-curvature="0"
       id="path103-9"
       d="m 409.441,126.252 v -43.63 h 147.796 v 43.63" /></clipPath></defs><sodipodi:namedview
   inkscape:document-rotation="0"
   inkscape:current-layer="Layer_1"
   inkscape:window-maximized="1"
   inkscape:window-y="-8"
   inkscape:window-x="-8"
   inkscape:cy="417.59889"
   inkscape:cx="237.75086"
   inkscape:zoom="0.70870875"
   showgrid="false"
   id="namedview315"
   inkscape:window-height="987"
   inkscape:window-width="1680"
   inkscape:pageshadow="2"
   inkscape:pageopacity="0"
   guidetolerance="10"
   gridtolerance="10"
   objecttolerance="10"
   borderopacity="1"
   bordercolor="#666666"
   pagecolor="#ffffff" />
<style
   id="style2"
   type="text/css">
	.st0{fill:none;stroke:#000000;stroke-width:2;stroke-linecap:round;stroke-linejoin:round;stroke-miterlimit:10;}
</style>


<style
   type="text/css"
   id="style2-2">
	.st0{fill:none;stroke:#000000;stroke-width:2;stroke-linecap:round;stroke-linejoin:round;stroke-miterlimit:10;}
</style><style
   type="text/css"
   id="style2-8">
	.st0{fill:none;stroke:#000000;stroke-width:2;stroke-linecap:round;stroke-linejoin:round;stroke-miterlimit:10;}
</style><path
   style="fill:#000000;fill-opacity:1;fill-rule:evenodd;stroke-width:3.5799"
   id="path1183"
   sodipodi:type="arc"
   sodipodi:cx="367.85684"
   sodipodi:cy="165.45825"
   sodipodi:rx="3.1570613"
   sodipodi:ry="3.1570613"
   sodipodi:start="0.83683651"
   sodipodi:end="0.83455187"
   sodipodi:open="true"
   sodipodi:arc-type="arc"
   d="m 369.97149,167.80246 a 3.1570613,3.1570613 0 0 1 -4.45765,-0.22822 3.1570613,3.1570613 0 0 1 0.22568,-4.45778 3.1570613,3.1570613 0 0 1 4.4579,0.22313 3.1570613,3.1570613 0 0 1 -0.22058,4.45803" /><g
   transform="rotate(-169.802,568.4739,50.688589)"
   id="g1101"><path
     d="m -10.552039,-623.56438 a 20.546522,22.978426 0 0 1 -10.183809,20.04391 20.546522,22.978426 0 0 1 -20.613702,0.0714 20.546522,22.978426 0 0 1 -10.294675,-19.97295"
     transform="rotate(84.896858)"
     sodipodi:arc-type="arc"
     style="fill:none;fill-opacity:1;fill-rule:evenodd;stroke:#000000;stroke-width:2.69147;stroke-miterlimit:4;stroke-dasharray:none;stroke-opacity:1"
     id="path869"
     sodipodi:type="arc"
     sodipodi:cx="-31.097771"
     sodipodi:cy="-623.36279"
     sodipodi:rx="20.546522"
     sodipodi:ry="22.978426"
     sodipodi:start="6.2744123"
     sodipodi:end="3.1441689"
     sodipodi:open="true" /><path
     d="M -10.552039,686.36726 A 20.546522,22.978426 0 0 1 -30.52786,709.53843"
     sodipodi:arc-type="arc"
     sodipodi:open="true"
     sodipodi:end="1.5430552"
     sodipodi:start="6.2744123"
     sodipodi:ry="22.978426"
     sodipodi:rx="20.546522"
     sodipodi:cy="686.56885"
     sodipodi:cx="-31.097771"
     sodipodi:type="arc"
     id="path871"
     style="fill:none;fill-opacity:1;fill-rule:evenodd;stroke:#000000;stroke-width:2.69147;stroke-miterlimit:4;stroke-dasharray:none;stroke-opacity:1"
     transform="matrix(0.08894892,0.99603619,0.99603619,-0.08894892,0,0)" /><path
     style="fill:none;stroke:#000000;stroke-width:2.69147;stroke-linecap:butt;stroke-linejoin:miter;stroke-miterlimit:4;stroke-dasharray:none;stroke-opacity:1"
     d="m 679.69471,-112.54841 c 0,0 -63.58751,5.67855 -63.58751,5.67855 v 0"
     id="path873"
     inkscape:connector-curvature="0" /><path
     style="fill:none;stroke:#000000;stroke-width:2.69147;stroke-linecap:butt;stroke-linejoin:miter;stroke-miterlimit:4;stroke-dasharray:none;stroke-opacity:1"
     d="m 683.20799,-71.60643 -63.3872,5.66066"
     id="path875"
     inkscape:connector-curvature="0" /><g
     id="g891"
     transform="matrix(0.05683054,0.63637959,-0.84328452,0.07530775,984.04678,-336.32455)"><path
       d="m 362.86244,453.29546 a 24.219294,24.219294 0 0 1 -12.00421,21.12631 24.219294,24.219294 0 0 1 -24.29848,0.0753 24.219294,24.219294 0 0 1 -12.13489,-21.05152"
       sodipodi:arc-type="arc"
       style="fill:none;fill-opacity:1;fill-rule:evenodd;stroke:#000000;stroke-width:3;stroke-miterlimit:4;stroke-dasharray:none;stroke-opacity:1"
       id="path879"
       sodipodi:type="arc"
       sodipodi:cx="338.64407"
       sodipodi:cy="453.50793"
       sodipodi:rx="24.219294"
       sodipodi:ry="24.219294"
       sodipodi:start="6.2744123"
       sodipodi:end="3.1441689"
       sodipodi:open="true" /><path
       d="m 362.86244,-387.10127 a 24.219294,24.219294 0 0 1 -12.00421,21.12631 24.219294,24.219294 0 0 1 -24.29848,0.0753 24.219294,24.219294 0 0 1 -12.13489,-21.05152"
       sodipodi:arc-type="arc"
       sodipodi:open="true"
       sodipodi:end="3.1441689"
       sodipodi:start="6.2744123"
       sodipodi:ry="24.219294"
       sodipodi:rx="24.219294"
       sodipodi:cy="-386.88879"
       sodipodi:cx="338.64407"
       sodipodi:type="arc"
       id="path881"
       style="fill:none;fill-opacity:1;fill-rule:evenodd;stroke:#000000;stroke-width:3;stroke-miterlimit:4;stroke-dasharray:none;stroke-opacity:1"
       transform="scale(1,-1)" /><path
       style="fill:none;stroke:#000000;stroke-width:3;stroke-linecap:butt;stroke-linejoin:miter;stroke-miterlimit:4;stroke-dasharray:none;stroke-opacity:1"
       d="m 314.42486,386.42206 c 0,0 0,67.28805 0,67.28805 v 0"
       id="path883"
       inkscape:connector-curvature="0" /><path
       style="fill:none;stroke:#000000;stroke-width:3;stroke-linecap:butt;stroke-linejoin:miter;stroke-miterlimit:4;stroke-dasharray:none;stroke-opacity:1"
       d="m 362.86244,386.57214 v 67.07607"
       id="path885"
       inkscape:connector-curvature="0" /></g><path
     style="fill:none;stroke:#000000;stroke-width:1.96102;stroke-linecap:butt;stroke-linejoin:miter;stroke-miterlimit:4;stroke-dasharray:none;stroke-opacity:1"
     d="m 746.06518,-99.36947 c 0,0 -43.51575,3.88608 -43.51575,3.88608 v 0"
     id="path897"
     inkscape:connector-curvature="0" /><path
     style="fill:none;stroke:#000000;stroke-width:1.9628;stroke-linecap:butt;stroke-linejoin:miter;stroke-miterlimit:4;stroke-dasharray:none;stroke-opacity:1"
     d="m 746.24048,-96.34081 -43.45735,3.88087"
     id="path899"
     inkscape:connector-curvature="0" /><path
     d="M -31.673893,709.53824 A 20.546522,22.978426 0 0 1 -51.644225,686.50965"
     sodipodi:arc-type="arc"
     transform="matrix(0.08894892,0.99603619,0.99603619,-0.08894892,0,0)"
     style="fill:none;fill-opacity:1;fill-rule:evenodd;stroke:#000000;stroke-width:2.69147;stroke-miterlimit:4;stroke-dasharray:none;stroke-opacity:1"
     id="path907"
     sodipodi:type="arc"
     sodipodi:cx="-31.097771"
     sodipodi:cy="686.56885"
     sodipodi:rx="20.546522"
     sodipodi:ry="22.978426"
     sodipodi:start="1.5988399"
     sodipodi:end="3.1441689"
     sodipodi:open="true" /></g><style
   type="text/css"
   id="style2-1">
	.st0{fill:none;stroke:#000000;stroke-width:2;stroke-linecap:round;stroke-linejoin:round;stroke-miterlimit:10;}
</style><path
   style="fill:none;stroke:#000000;stroke-width:4;stroke-linecap:butt;stroke-linejoin:miter;stroke-miterlimit:4;stroke-dasharray:none;stroke-opacity:1"
   d="m 339.35236,544.46825 c -9.69224,8.51182 -18.15873,12.14262 -32.45338,12.69915 -25.72139,0.81227 -97.00588,-7.83815 -133.3411,-11.99364 -10.45147,-1.19529 -20.37423,-8.8181 -26.2193,-17.56436 -6.54382,-9.79184 -6.8204,-22.86671 -6.9396,-34.64327 l -3.52754,-348.52117 c -0.1223,-12.08302 1.79094,-25.72675 9.58496,-34.96078 6.26185,-7.41878 16.78921,-10.908569 26.39597,-12.308289 24.02845,-3.50098 113.82621,-2.80949 146.04025,4.938559 7.88267,1.89592 16.09537,7.81245 21.63907,14.49338 5.46565,6.58686 10.10881,14.65055 10.10881,23.60407 v 354.87076 c 0,38.67851 -11.99364,50.0911 -11.99364,50.0911 0,0 23.59563,-14.57206 31.74788,-25.39831 5.51706,-7.3267 10.56395,-16.22671 10.58262,-25.3983 l 0.66323,-325.80517 m 0.0134,-4.01244 0.0288,-40.57433 c 0.007,-10.1899 -6.7786,-20.02747 -13.93097,-27.338469 -8.0759,-8.25502 -19.06536,-14.904002 -30.51606,-16.403054 -29.06934,-3.805574 -83.03711,-8.042605 -117.81991,-5.644067 -14.47199,0.997953 -28.52536,6.467474 -41.625,12.699151 -9.69468,4.61189 -26.72741,17.970909 -26.72741,17.970909"
   id="path865"
   sodipodi:nodetypes="ccsassassasssasccsassac" /></svg>
