<?xml version="1.0" encoding="UTF-8" standalone="no"?>
<svg
   xmlns:dc="http://purl.org/dc/elements/1.1/"
   xmlns:cc="http://creativecommons.org/ns#"
   xmlns:rdf="http://www.w3.org/1999/02/22-rdf-syntax-ns#"
   xmlns:svg="http://www.w3.org/2000/svg"
   xmlns="http://www.w3.org/2000/svg"
   xmlns:sodipodi="http://sodipodi.sourceforge.net/DTD/sodipodi-0.dtd"
   xmlns:inkscape="http://www.inkscape.org/namespaces/inkscape"
   version="1.1"
   id="Layer_1"
   x="0px"
   y="0px"
   viewBox="0 0 667 666"
   style="enable-background:new 0 0 667 666;"
   xml:space="preserve"
   sodipodi:docname="icon.svg"
   inkscape:version="1.0.2 (e86c870879, 2021-01-15, custom)"><metadata
   id="metadata319"><rdf:RDF><cc:Work
       rdf:about=""><dc:format>image/svg+xml</dc:format><dc:type
         rdf:resource="http://purl.org/dc/dcmitype/StillImage" /></cc:Work></rdf:RDF></metadata><defs
   id="defs317"><marker
     inkscape:stockid="Arrow1Send"
     orient="auto"
     refY="0"
     refX="0"
     id="Arrow1Send"
     style="overflow:visible"
     inkscape:isstock="true"><path
       inkscape:connector-curvature="0"
       id="path4714"
       d="M 0,0 5,-5 -12.5,0 5,5 Z"
       style="fill:#000000;fill-opacity:1;fill-rule:evenodd;stroke:#000000;stroke-width:1.00000003pt;stroke-opacity:1"
       transform="matrix(-0.2,0,0,-0.2,-1.2,0)" /></marker><clipPath
     id="clipPath69-0"><path
       inkscape:connector-curvature="0"
       id="path71-2"
       d="m 409.441,126.252 v -43.63 h 147.796 v 43.63" /></clipPath><clipPath
     id="clipPath101-1"><path
       inkscape:connector-curvature="0"
       id="path103-6"
       d="m 409.441,126.252 v -43.63 h 147.796 v 43.63" /></clipPath><clipPath
     id="clipPath69"><path
       inkscape:connector-curvature="0"
       id="path71"
       d="m 409.441,126.252 v -43.63 h 147.796 v 43.63" /></clipPath><clipPath
     id="clipPath101"><path
       inkscape:connector-curvature="0"
       id="path103"
       d="m 409.441,126.252 v -43.63 h 147.796 v 43.63" /></clipPath></defs><sodipodi:namedview
   pagecolor="#ffffff"
   bordercolor="#666666"
   borderopacity="1"
   objecttolerance="10"
   gridtolerance="10"
   guidetolerance="10"
   inkscape:pageopacity="0"
   inkscape:pageshadow="2"
   inkscape:window-width="1680"
   inkscape:window-height="987"
   id="namedview315"
   showgrid="false"
   inkscape:zoom="1.0022655"
   inkscape:cx="394.7909"
   inkscape:cy="342.01178"
   inkscape:window-x="1672"
   inkscape:window-y="-8"
   inkscape:window-maximized="1"
   inkscape:current-layer="Layer_1"
   inkscape:document-rotation="0" />
<style
   type="text/css"
   id="style2">
	.st0{fill:none;stroke:#000000;stroke-width:2;stroke-linecap:round;stroke-linejoin:round;stroke-miterlimit:10;}
</style>


<path
   style="fill:none;stroke:#000000;stroke-width:3;stroke-linecap:butt;stroke-linejoin:miter;stroke-opacity:1;stroke-miterlimit:4;stroke-dasharray:none"
   d="m 454.96927,75.828211 c -3.99096,517.826859 0,0 -3.99096,517.826859 -0.079,10.2451 -7.95474,27.15186 -17.95931,24.94349 -298.32415,-65.85081 0,0 -298.32415,-65.85081 -12.06875,-2.664 -14.99677,-21.56392 -14.9661,-33.92315 0.99774,-402.08906 0,0 0.99774,-402.08906 0.032,-12.91503 9.12954,-30.369596 21.95028,-31.927672 287.34901,-34.920887 0,0 287.34901,-34.920887 11.90833,-1.447193 25.03594,13.945637 24.94349,25.94123 z"
   id="path868"
   sodipodi:nodetypes="sssssssss" /><path
   style="fill:none;stroke:#000000;stroke-width:3;stroke-linecap:butt;stroke-linejoin:miter;stroke-opacity:1;stroke-miterlimit:4;stroke-dasharray:none"
   d="m 491.64259,53.877939 c 12.78135,0.111776 20.19825,17.936372 20.14186,29.932189 l -2.36963,504.107932 c -0.0514,10.93639 -9.26427,22.35025 -17.33572,22.76094"
   id="path870"
   sodipodi:nodetypes="cssc" /><path
   style="fill:none;stroke:#000000;stroke-width:3;stroke-linecap:butt;stroke-linejoin:miter;stroke-opacity:1;stroke-miterlimit:4;stroke-dasharray:none"
   d="m 433.583,49.997643 c 1.03005,0.009 57.45674,3.6392 58.416,3.865966 10.94375,2.587061 15.83729,18.917443 15.78545,29.946519 l -2.36963,504.107932 c -0.0458,9.74761 -5.87045,20.40367 -13.17721,22.78087 -0.8911,0.28991 -55.75334,8.04875 -56.6307,8.09345"
   id="path872"
   sodipodi:nodetypes="cssssc" /><path
   style="fill:none;stroke:#000000;stroke-width:3;stroke-linecap:butt;stroke-linejoin:miter;stroke-opacity:1;stroke-miterlimit:4;stroke-dasharray:none"
   d="m 421.46088,75.975752 c 21.3304,-2.520197 25.79233,13.384112 25.75415,25.379998 l -1.41836,445.69381 c -0.0509,15.97829 -6.52098,29.29026 -23.5716,26.06595"
   id="path874"
   sodipodi:nodetypes="cssc" /><path
   style="fill:none;stroke:#000000;stroke-width:3;stroke-linecap:butt;stroke-linejoin:miter;stroke-opacity:1;stroke-miterlimit:4;stroke-dasharray:none"
   d="m 436.96927,101.82821 -1.49661,448.23452 c -0.0342,10.24535 -2.23046,25.50893 -14.96609,23.19745 L 157.26159,525.48186 c -12.16061,-2.20712 -25.95995,-8.86487 -25.90149,-21.224 l 1.79745,-379.9805 c 0.0611,-12.91493 6.74539,-17.27412 19.58065,-18.70762 L 418.51109,75.886981 c 11.92182,-1.331484 18.49823,13.945348 18.45818,25.941229 z"
   id="path876"
   sodipodi:nodetypes="sssssssss" /><path
   style="fill:none;stroke:#000000;stroke-width:3;stroke-linecap:butt;stroke-linejoin:miter;stroke-opacity:1;stroke-miterlimit:4;stroke-dasharray:none"
   d="M 268.79872,91.716099 267.3877,545.35803"
   id="path878" /><path
   style="fill:none;stroke:#000000;stroke-width:3;stroke-linecap:butt;stroke-linejoin:miter;stroke-opacity:1;stroke-miterlimit:4;stroke-dasharray:none"
   d="m 131.93008,313.95126 304.07414,13.40466 11.28814,-1.41102"
   id="path880" /><path
   style="fill:#000000;stroke:#000000;stroke-width:3;stroke-linecap:butt;stroke-linejoin:round;stroke-opacity:1;fill-opacity:1;stroke-miterlimit:4;stroke-dasharray:none"
   d="m 214.73914,317.4788 -32.98252,-1.41101 v -5.82045 l 32.89433,1.23464 z"
   id="path886" /><path
   style="fill:#000000;fill-opacity:1;stroke:#000000;stroke-width:3;stroke-linecap:butt;stroke-linejoin:round;stroke-opacity:1;stroke-miterlimit:4;stroke-dasharray:none"
   d="m 214.73914,535.78154 -32.98252,-6.08791 v -5.82045 l 32.89433,5.91154 z"
   id="path890"
   sodipodi:nodetypes="ccccc" /><path
   style="fill:#000000;fill-opacity:1;stroke:#000000;stroke-width:3;stroke-linecap:butt;stroke-linejoin:round;stroke-opacity:1;stroke-miterlimit:4;stroke-dasharray:none"
   d="m 369.56117,324.09612 -39.91915,-1.85195 v -6.31932 l 39.83096,1.05199 z"
   id="path892"
   sodipodi:nodetypes="ccccc" /><path
   style="fill:#000000;fill-opacity:1;stroke:#000000;stroke-width:3;stroke-linecap:butt;stroke-linejoin:round;stroke-opacity:1;stroke-miterlimit:4;stroke-dasharray:none"
   d="m 368.15016,563.38743 -40.74312,-7.23145 v -5.82045 l 40.65493,7.05508 z"
   id="path894"
   sodipodi:nodetypes="ccccc" /></svg>
