<svg height="960" viewBox="0 0 960 960" width="960" xmlns="http://www.w3.org/2000/svg"><path d="m486.958658 132.548014c120.749716 0 210.652432 11.77504 270.34411 35.882779 5.574551 2.251399 9.833749 6.887697 11.61146 12.616129l.114825.383499 30.587947 106.000579.683843 1.568306.543743 1.216511.515227 1.123354.327084.696404.313574.653886.299729.610923.285549.567512.271035.523656.256186.479356.241002.434607.235955.407367.279749.462536.075711.122309.078013.124959.334966.526123.371416.567699.624831.928071.46127.668777.496703.708065.531848.7467.526566.729879.656643.440028c20.388013 13.749351 36.534911 29.351723 46.957128 45.039371l.484343.735415.461838.713542.815433 1.291347c1.239073 1.994478 2.382098 3.986318 3.42556 5.971481l.513418.992007.125637.250809 1.472831.797332c54.610498 29.866497 92.722509 81.395399 94.349601 126.079907l.038118 1.351952.015925 1.448835-.008475 1.149974.032065 4.412573.011708 3.383032v2.111734l-.011774 2.669683-.027596 2.50777-.027009 1.304022c-.797243 28.019678-16.613435 53.676247-44.582017 75.917126-18.000002 14.31377-41.184691 27.347374-68.842617 38.886157l-1.320422.548336-2.364061.969222-.594335.241184-.59566.240734-2.395859.958431-2.416937.9512-1.826478.708638-1.83824.704542-2.469213.932997c-1.102045.413039-2.210235.823905-3.324534 1.232587l-1.676024.611384-2.531154.910915-2.551608.903496c-1.138579.399901-2.283191.797596-3.433797 1.193072l-1.7304.591549-2.612397.881067c-.87415.292435-1.751645.583614-2.632469.873533-88.068657 28.98733-205.867374 44.263177-331.005775 42.082682-64.351274-1.121299-126.601438-6.788386-183.725339-16.386241-.236184.752536-.568261 1.488275-.997187 2.190694l-.154495.245091-10.187002 15.662971c-2.230949 3.430183-6.319303 5.146985-10.314848 4.359478l-.285211-.060521-101.267899-23.025228c-4.459546-1.013964-7.650487-4.918535-7.778872-9.466085l-.00402-.285039v-17.414161c0-1.409163.291473-2.750249.817419-3.966258-5.244285-1.770619-10.390817-3.585821-15.435831-5.443618-1.957854-.720968-3.898641-1.447727-5.82218-2.180215l-1.917785-.734396-2.53909-.985112-2.518484-.991846-2.497783-.998548-2.476985-1.005217c-4.676179-1.912026-9.239726-3.859835-13.687734-5.842436l-1.899207-.851814-2.317989-1.05421c-8.254658-3.783185-16.0945285-7.689163-23.5000626-11.711284l-1.5802451-.863658-2.0411367-1.13183c-15.5614809-8.700373-29.1137883-17.929032-40.4645851-27.620556-27.1746247-23.202206-42.08469268-49.394922-41.90292559-77.358558l.01013049-.847924.0209496-1.549145.01542235-1.796966.00668727-2.021431-.00644839-3.889397-.0196973-3.384168-.01818603-2.227853c-.01050051-.170078-.00060708-.340167.00234363-.510226.83006667-47.839281 44.15800777-102.688537 105.38166947-132.003483l1.860714-.880483 1.745495-.806993.153819-.30141c10.19051-19.907757 26.642376-37.066466 48.32584-50.288625l.836557-.506601.764784-.458364 7.542018-15.886394 10.900988-23.03857 9.278153-19.711712 5.893151-12.599484 4.955742-10.674952 2.576144-5.595273 2.003001-4.384774 1.929849-4.268702.976976-2.186509 1.246428-2.831409.708688-1.646041.431944-1.027897.437302-1.083247-.067384.233964.092-.295987c1.766516-5.539283 5.86017-10.043313 11.222298-12.325379 56.946859-24.235995 145.469682-36.02562 266.33836-36.02562zm-305.76269 499.751395.001032 7.241591 86.686 19.709 3.314513-5.095656c-31.999211-6.056343-62.189821-13.379968-90.001545-21.854935zm-21.097178-246.570629c-54.643639 17.965952-93.4400727 40.272286-113.4782853 64.143362-3.2092235 7.669161-4.9760797 14.93485-5.1868659 21.346007l-.0123614.455865.0176796 1.926042.0203346 3.513386.0066873 4.069919-.0072851 2.213804-.0149896 1.893352-.025615 1.856791c-.5496177 31.61091 41.4363485 67.459318 118.9833908 96.015563 82.494434 30.378093 195.304587 49.024168 316.207798 51.130866 120.903312 2.1067 234.296726-12.597879 317.803106-40.083559 77.714044-25.579164 120.846058-59.515948 122.240218-90.861423l.029465-.949059.030355-2.571714.010474-2.447438v-1.954999l-.011194-3.239609-.032143-4.482173.000067-.295987.007374-.958776-.003677-.461161c-.08942-6.039837-1.569536-12.913826-4.351475-20.211179-18.950964-24.826681-57.090725-48.71115-111.288084-68.707167-1.054877.178701-2.164637.188342-3.304585-.000645l-.428848-.080239-114.344172-23.834194c-2.896221-.603696-5.370866-2.457241-6.766788-5.053485l-.145406-.280988-2.134178-4.288433c-58.068504-10.564228-121.716734-16.824208-187.584474-18.22937l-2.708134-.055012-2.512754-.046109c-121.928526-2.122236-236.391837 12.704817-321.015635 40.527762zm326.780769-26.116495c99.818035 1.747317 193.237526 17.087827 262.402382 42.372103 71.659548 26.196248 113.305285 61.479972 112.616009 101.303214-.696973 39.822158-43.546186 73.627658-116.074431 97.300177-70.002755 22.848224-163.899276 34.909785-263.717395 33.162466-99.818034-1.747316-193.237525-17.087827-262.402382-42.372102-70.942952-25.934286-112.469368-60.775207-112.624032-100.108004l.007989-1.193273.033544-1.192913c1.523415-39.30628 44.237959-72.673408 116.040921-96.109202 70.002756-22.848223 163.899276-34.909784 263.717395-33.162466zm307.178415 84.863826.502196.629221c6.028275 7.801305 9.157551 15.903161 9.014079 24.183271-.975646 55.200738-147.04088 97.420509-326.255414 94.3005-179.214534-3.12001-323.713471-50.398317-322.756993-105.599055.071648-4.053717.92574-8.037431 2.517944-11.938325-19.165459 13.964016-29.520433 28.980869-29.987774 43.911453l-.0113.461742v.853512c.224594 28.245294 35.704307 57.997711 99.489884 81.315509 66.925244 24.465551 158.169395 39.448846 255.885575 41.15937 97.716151 1.710523 189.426036-10.070151 257.161722-32.178426 65.209578-21.283776 101.784341-50.139105 102.288152-78.635334.335928-19.609836-16.390634-39.986483-47.848071-58.463438zm-562.650939-33.348611-1.379758.445514-1.127012.423662c-37.862508 14.275597-58.572972 31.105284-59.317622 45.72214l-.018686.535013v.532667c.281641 17.707623 29.669462 39.671931 83.477299 57.277024 58.607873 19.17559 138.716554 31.033747 224.53868 32.527855 85.822209 1.49411 166.297119-7.568408 225.54043-24.692357 54.941505-15.880535 85.138363-37.074074 85.453811-54.87158.307518-17.798737-29.127992-40.029384-83.479342-57.812306-30.903511-10.111152-67.785059-18.187781-108.330101-23.783231-35.058754-4.47386-72.155555-7.156094-110.235221-7.82268-96.73899-1.693417-187.591238 9.835887-255.122478 31.518279zm573.560242-37.958486 1.656158 4.641542c13.539257 4.953382 26.211711 10.169312 37.963606 15.625153-3.37317-1.87683-6.823456-3.656803-10.347194-5.330639-3.218932-1.529048-5.716359-3.604729-7.545629-6.002539-6.434148-2.838954-13.156655-5.617987-20.160804-8.330811zm-644.835882-13.051117c-7.137338 2.369096-14.00437 4.81292-20.594612 7.325285-1.339653 1.145985-2.891945 2.155125-4.662301 2.987609l-.488235.222631-.595788.253539c-10.147717 4.154829-19.768611 9.123377-28.723259 14.752818 14.73071-6.768725 31.031962-13.093561 48.78488-18.930436 86.902888-28.572274 203.566555-43.68435 327.610404-41.525296 63.297968 1.101737 124.708055 6.619064 181.394529 16.095435l-3.0243-6.08017c-55.834328-9.4355-116.326704-14.920638-178.683716-16.016368-121.930983-2.142557-236.395576 12.826375-321.017602 40.914953zm496.14025-93.103166c.292694.392574.55807.808745.79295 1.246169l.147527.285648 42.181878 84.989452 19.263277 4.025014 64.24 13.253-31.586277-88.662014-34.318368.000693c-.554594 0-1.107742-.046135-1.653756-.137693l-.408083-.077174-.404875-.094141zm136.990239 73.291383 4.058079 11.395535c2.203301-.872894 4.723319-.970373 7.123379-.090121 1.254763.460201 2.502666.922882 3.743645 1.38802-4.378052-4.261454-9.372606-8.525393-14.925103-12.693434zm-512.937233-50.093302-2.984789.47697c-40.066624 6.446665-71.808347 16.161326-95.378651 28.986147-10.303178 5.978644-18.825919 12.920982-25.499539 20.593665 86.634942-28.289379 202.2203-43.221714 325.038708-41.063563 58.065383 1.020318 114.572821 5.790429 167.365631 13.976679l-16.144849-32.445232c-5.146563-.732341-10.401475-1.423697-15.764688-2.074033l-3.45925-.412019c-2.895115-.33865-5.821248-.665548-8.778389-.98069l-3.563454-.372528-3.59322-.36124c-.601351-.059266-1.203941-.118061-1.807772-.176386l-3.637864-.344305c-.608791-.056443-1.218822-.112415-1.830092-.167917l-3.682502-.327365-3.712257-.316069-3.742009-.304772-3.771758-.293471-3.801505-.28217c-1.908188-.13826-3.82753-.27228-5.758025-.402061l-3.875858-.253907c-2.593818-.165502-5.207461-.323465-7.840924-.473887l-3.965059-.219975c-.663321-.03572-1.32788-.070968-1.993678-.105745l-4.00965-.203003c-.670752-.032891-1.342743-.06531-2.015972-.097258l-4.054235-.186026c-1.356365-.060122-2.717684-.118357-4.083955-.174705l-3.927046-.156946-3.033044-.020594c-84.837522-.516419-167.067403 5.545397-246.694305 18.182406zm210.106726-117.664798h-3.472719c-109.046905 0-189.672714 9.873764-241.236947 29.07494l-1.553657.584709-.486054.186337-.664735 1.511482-1.918581 4.300725-1.659671 3.671788-2.511758 5.501012-3.627999 7.867127-4.629828 9.953457-6.354321 13.562863-7.939085 16.846612-8.415636 17.782413-2.339139 4.919546c20.27015-7.287406 43.79615-13.063989 70.541505-17.36728 81.673026-13.141077 166.012982-19.444273 253.015028-18.912743l3.33512.024846.150877.004627c1.398689.053469 2.792466.108865 4.181333.166187l4.151868.177749c3.447614.152942 6.864539.31793 10.250782.494968l4.048764.218231 4.019312.229802c3.337156.196323 6.643636.404701 9.919448.625139l3.916252.270315 3.886814.281894 3.857377.293476c1.280887.099756 2.556868.201443 3.827944.30506l3.798513.316645c.630633.05374 1.26004.107963 1.888221.162668l3.754372.334028c.623276.056637 1.245327.113757 1.866152.17136l3.710237.351414c1.847764.178605 3.684495.361558 5.510195.548859l3.636694.380402 3.607282.392 3.577871.4036c3.685106.423412 7.32303.865439 10.913787 1.326091.323604-1.192476.871608-2.333068 1.63589-3.355805l.235765-.30322 7.343224-9.080677c2.389985-2.955471 6.241557-4.293571 9.935038-3.476164l.30739.073118 73.800698 18.784385 32.445277.000014-17.328277-60.049014-1.091156-.391245c-53.687344-19.082908-134.471013-28.952556-241.839467-29.163741z"/></svg>