<?xml version="1.0" encoding="UTF-8"?>
<!DOCTYPE svg PUBLIC "-//W3C//DTD SVG 1.1//EN" "http://www.w3.org/Graphics/SVG/1.1/DTD/svg11.dtd">
<svg xmlns="http://www.w3.org/2000/svg" version="1.1" width="456px" height="419px" style="shape-rendering:geometricPrecision; text-rendering:geometricPrecision; image-rendering:optimizeQuality; fill-rule:evenodd; clip-rule:evenodd" xmlns:xlink="http://www.w3.org/1999/xlink">
<g><path style="opacity:0.687" fill="#000000" d="M 208.5,31.5 C 213.706,32.4258 218.706,32.4258 223.5,31.5C 241.618,35.71 259.618,41.21 277.5,48C 315.649,70.4332 335.816,103.933 338,148.5C 355.951,150.225 372.451,156.058 387.5,166C 388.787,167.41 389.954,168.91 391,170.5C 392.112,174.506 393.612,178.34 395.5,182C 394.375,184.175 393.708,186.509 393.5,189C 396.036,242.169 397.703,295.335 398.5,348.5C 393.015,353.485 387.681,358.652 382.5,364C 368.057,373.928 352.057,379.928 334.5,382C 271.176,391.533 207.509,395.533 143.5,394C 120.119,391.724 97.4518,386.39 75.5,378C 65.6107,373.889 55.6107,370.056 45.5,366.5C 41.0212,363.081 36.6878,359.414 32.5,355.5C 33.4474,299.29 33.4474,243.124 32.5,187C 37.1325,181.034 42.4658,175.701 48.5,171C 62.1645,164.669 76.1645,159.169 90.5,154.5C 89.0769,127.603 96.9102,103.937 114,83.5C 122.167,74 131,65.1667 140.5,57C 150.167,51.3333 159.833,45.6667 169.5,40C 182.258,35.3895 195.258,32.5561 208.5,31.5 Z M 202.5,34.5 C 204.199,34.3398 205.866,34.5065 207.5,35C 199.397,38.7995 191.564,42.9662 184,47.5C 180.579,45.5392 177.079,43.7059 173.5,42C 183.162,38.9359 192.829,36.4359 202.5,34.5 Z M 214.5,35.5 C 217.64,34.3592 220.973,34.1925 224.5,35C 229.457,36.4892 234.457,37.8225 239.5,39C 236.256,39.97 233.09,41.1366 230,42.5C 224.871,40.0177 219.704,37.6843 214.5,35.5 Z M 209.5,36.5 C 216.506,39.4195 223.34,42.7528 230,46.5C 230.667,52.1667 230.667,57.8333 230,63.5C 222.333,67.5 214.667,71.5 207,75.5C 200.248,71.54 193.414,67.7066 186.5,64C 185.167,59 185.167,54 186.5,49C 194.517,45.3278 202.183,41.1611 209.5,36.5 Z M 243.5,40.5 C 254.143,42.4929 264.477,45.4929 274.5,49.5C 275.358,55.8164 275.524,62.1497 275,68.5C 269.133,71.4328 263.133,74.0994 257,76.5C 249.436,72.6347 241.936,68.6347 234.5,64.5C 233.336,57.8582 233.169,51.1915 234,44.5C 237.291,43.2432 240.458,41.9099 243.5,40.5 Z M 169.5,43.5 C 173.442,45.4712 177.442,47.4712 181.5,49.5C 182.662,54.1313 182.828,58.798 182,63.5C 174.071,68.2153 165.904,72.5487 157.5,76.5C 150.966,72.1355 144.3,67.9688 137.5,64C 147.653,56.42 158.32,49.5867 169.5,43.5 Z M 277.5,51.5 C 287.658,57.4798 296.824,64.8131 305,73.5C 306.602,75.3687 307.602,77.3687 308,79.5C 305.843,81.718 303.343,82.8846 300.5,83C 293.328,78.5814 286.328,73.9148 279.5,69C 278.506,63.2482 277.84,57.4149 277.5,51.5 Z M 134.5,66.5 C 141.775,70.1402 148.775,74.3069 155.5,79C 156.652,87.4565 156.485,95.9565 155,104.5C 147.815,109.092 140.482,113.425 133,117.5C 124.043,112.046 115.209,106.379 106.5,100.5C 108.802,96.367 111.302,92.367 114,88.5C 120.672,80.9958 127.505,73.6625 134.5,66.5 Z M 182.5,66.5 C 190.225,69.8608 197.891,73.5274 205.5,77.5C 206.665,85.4792 206.832,93.4792 206,101.5C 198.144,106.095 190.144,110.428 182,114.5C 174.32,111.41 166.82,107.91 159.5,104C 158.614,95.5331 158.947,87.0331 160.5,78.5C 168.216,74.9798 175.549,70.9798 182.5,66.5 Z M 229.5,66.5 C 238.295,70.1477 246.795,74.481 255,79.5C 255.667,87.8333 255.667,96.1667 255,104.5C 248.142,107.399 241.309,110.399 234.5,113.5C 226.096,109.549 217.929,105.215 210,100.5C 209.333,92.8333 209.333,85.1667 210,77.5C 216.806,74.1857 223.306,70.5191 229.5,66.5 Z M 275.5,71.5 C 283.566,75.3731 291.233,80.0398 298.5,85.5C 300.496,93.4348 300.829,101.435 299.5,109.5C 295.167,111.667 290.833,113.833 286.5,116C 284.833,116.667 283.167,116.667 281.5,116C 273.917,111.626 266.417,107.126 259,102.5C 258.5,94.5069 258.334,86.5069 258.5,78.5C 264.473,76.736 270.14,74.4027 275.5,71.5 Z M 310.5,80.5 C 320.885,91.931 326.885,105.264 328.5,120.5C 326.201,121.635 324.034,122.968 322,124.5C 316.314,119.313 310.481,114.313 304.5,109.5C 302.987,101.846 302.654,94.1797 303.5,86.5C 306.513,85.1435 308.847,83.1435 310.5,80.5 Z M 206.5,102.5 C 214.649,107.076 222.983,111.409 231.5,115.5C 232.665,124.816 232.832,134.149 232,143.5C 224.333,147.5 216.667,151.5 209,155.5C 200.576,151.372 192.076,147.372 183.5,143.5C 182.664,134.843 182.831,126.176 184,117.5C 190.752,113.54 197.586,109.707 204.5,106C 205.823,105.184 206.489,104.017 206.5,102.5 Z M 104.5,103.5 C 113.308,108.739 121.974,114.239 130.5,120C 131.116,121.4 131.449,122.9 131.5,124.5C 131.091,131.263 130.257,137.93 129,144.5C 122.588,149.289 116.088,153.956 109.5,158.5C 104.747,155.706 99.9137,153.04 95,150.5C 93.2488,133.755 96.4155,118.088 104.5,103.5 Z M 157.5,106.5 C 164.686,110.259 172.019,113.759 179.5,117C 180.521,124.784 180.354,132.617 179,140.5C 170.968,146.03 162.802,151.363 154.5,156.5C 146.577,152.717 139.244,148.217 132.5,143C 133.262,135.504 134.095,128.004 135,120.5C 142.648,115.934 150.148,111.267 157.5,106.5 Z M 257.5,106.5 C 265.099,109.967 272.433,113.967 279.5,118.5C 281.042,126.245 282.042,134.078 282.5,142C 282.441,143.436 282.108,144.769 281.5,146C 274.5,150.167 267.5,154.333 260.5,158.5C 252.417,153.375 244.25,148.375 236,143.5C 235.333,134.5 235.333,125.5 236,116.5C 243.294,113.245 250.461,109.912 257.5,106.5 Z M 300.5,111.5 C 308.701,116.196 315.868,122.196 322,129.5C 323.003,136.181 323.67,142.847 324,149.5C 318.667,152.833 313.333,156.167 308,159.5C 300.831,154.915 293.498,150.581 286,146.5C 284.763,137.844 284.096,129.177 284,120.5C 289.642,117.599 295.142,114.599 300.5,111.5 Z M 328.5,123.5 C 329.496,123.414 330.329,123.748 331,124.5C 333.103,134.111 334.437,143.777 335,153.5C 332.92,151.877 330.754,150.377 328.5,149C 327.809,147.933 327.309,146.766 327,145.5C 326.37,139.629 325.537,133.796 324.5,128C 325.344,125.993 326.677,124.493 328.5,123.5 Z M 177.5,144.5 C 187.172,148.419 196.672,152.752 206,157.5C 206.5,166.827 206.666,176.161 206.5,185.5C 189.833,185.5 173.167,185.5 156.5,185.5C 156.248,176.819 156.082,168.152 156,159.5C 163.495,154.847 170.662,149.847 177.5,144.5 Z M 231.5,146.5 C 234.425,146.46 237.091,147.293 239.5,149C 245.366,153.031 251.366,156.864 257.5,160.5C 258.497,168.138 258.831,175.804 258.5,183.5C 259.5,183.5 260.5,183.5 261.5,183.5C 261.334,176.159 261.5,168.826 262,161.5C 269,157.167 276,152.833 283,148.5C 290.582,152.707 298.082,157.04 305.5,161.5C 306.833,167.833 306.833,174.167 305.5,180.5C 295.634,182.65 285.634,183.816 275.5,184C 253.514,185.119 231.514,185.619 209.5,185.5C 209.334,176.494 209.5,167.494 210,158.5C 217.471,154.853 224.638,150.853 231.5,146.5 Z M 129.5,147.5 C 137.233,150.2 144.566,153.866 151.5,158.5C 153.199,167.075 153.866,175.742 153.5,184.5C 139.627,184.746 126.127,182.746 113,178.5C 112.734,172.154 113.067,165.821 114,159.5C 119.352,155.636 124.519,151.636 129.5,147.5 Z M 326.5,151.5 C 329.723,153.364 332.89,155.364 336,157.5C 336.339,160.036 336.839,162.536 337.5,165C 329.45,172.193 320.116,177.026 309.5,179.5C 309.171,173.463 309.504,167.463 310.5,161.5C 315.898,158.142 321.231,154.808 326.5,151.5 Z M 338.5,151.5 C 354.608,153.37 369.608,158.536 383.5,167C 386.23,169.13 388.23,171.797 389.5,175C 341.029,185.801 292.029,192.801 242.5,196C 194.309,198.175 146.309,196.175 98.5,190C 79.4477,187.325 60.4477,184.325 41.5,181C 46.4675,175.512 52.4675,171.512 59.5,169C 69.6257,164.792 79.959,161.292 90.5,158.5C 90.1718,163.875 90.5052,169.208 91.5,174.5C 113.838,184.057 137.171,188.557 161.5,188C 203.86,188.954 246.194,188.288 288.5,186C 307.891,185.761 325.057,179.594 340,167.5C 339.742,162.183 339.242,156.85 338.5,151.5 Z M 93.5,154.5 C 99.4415,156.221 104.941,158.887 110,162.5C 110.087,167.488 109.92,172.488 109.5,177.5C 104.17,176.334 99.0032,174.668 94,172.5C 93.5005,166.509 93.3338,160.509 93.5,154.5 Z M 389.5,177.5 C 390.912,179.23 390.578,180.73 388.5,182C 305.632,205.392 221.299,213.059 135.5,205C 121.447,203.373 107.447,201.373 93.5,199C 74.8768,195.176 56.2101,191.676 37.5,188.5C 37.2837,186.319 38.117,184.653 40,183.5C 157.027,206.557 273.527,204.557 389.5,177.5 Z M 389.5,184.5 C 390.317,186.969 390.817,189.635 391,192.5C 393.048,243.834 394.714,295.167 396,346.5C 381.601,364.119 363.101,374.619 340.5,378C 279.531,387.525 218.198,392.192 156.5,392C 114.821,389.501 75.8213,378.168 39.5,358C 35.508,353.957 33.8414,348.957 34.5,343C 35.7852,292.174 36.7852,241.34 37.5,190.5C 122.581,210.946 208.581,215.78 295.5,205C 327.306,199.741 358.639,192.908 389.5,184.5 Z M 210.5,271.5 C 217.632,271.802 220.465,275.469 219,282.5C 214.667,289.167 210.333,289.167 206,282.5C 205.083,277.732 206.583,274.065 210.5,271.5 Z"/></g>
<g><path style="opacity:0.668" fill="#000000" d="M 210.5,268.5 C 222.14,270.445 225.306,276.779 220,287.5C 210.545,292.857 204.712,290.19 202.5,279.5C 202.924,274.092 205.591,270.425 210.5,268.5 Z M 210.5,271.5 C 206.583,274.065 205.083,277.732 206,282.5C 210.333,289.167 214.667,289.167 219,282.5C 220.465,275.469 217.632,271.802 210.5,271.5 Z"/></g>
</svg>
