<?xml version="1.0" encoding="UTF-8" standalone="no"?>
<svg
   xmlns:dc="http://purl.org/dc/elements/1.1/"
   xmlns:cc="http://creativecommons.org/ns#"
   xmlns:rdf="http://www.w3.org/1999/02/22-rdf-syntax-ns#"
   xmlns:svg="http://www.w3.org/2000/svg"
   xmlns="http://www.w3.org/2000/svg"
   xmlns:sodipodi="http://sodipodi.sourceforge.net/DTD/sodipodi-0.dtd"
   xmlns:inkscape="http://www.inkscape.org/namespaces/inkscape"
   version="1.1"
   id="Layer_1"
   x="0px"
   y="0px"
   viewBox="0 0 667 666"
   style="enable-background:new 0 0 667 666;"
   xml:space="preserve"
   sodipodi:docname="icon.svg"
   inkscape:version="1.0.2 (e86c870879, 2021-01-15, custom)"><metadata
   id="metadata319"><rdf:RDF><cc:Work
       rdf:about=""><dc:format>image/svg+xml</dc:format><dc:type
         rdf:resource="http://purl.org/dc/dcmitype/StillImage" /><dc:title /></cc:Work></rdf:RDF></metadata><defs
   id="defs317"><marker
     inkscape:stockid="Arrow1Send"
     orient="auto"
     refY="0"
     refX="0"
     id="Arrow1Send"
     style="overflow:visible"
     inkscape:isstock="true"><path
       inkscape:connector-curvature="0"
       id="path4714"
       d="M 0,0 5,-5 -12.5,0 5,5 Z"
       style="fill:#000000;fill-opacity:1;fill-rule:evenodd;stroke:#000000;stroke-width:1.00000003pt;stroke-opacity:1"
       transform="matrix(-0.2,0,0,-0.2,-1.2,0)" /></marker><clipPath
     id="clipPath69-0"><path
       inkscape:connector-curvature="0"
       id="path71-2"
       d="m 409.441,126.252 v -43.63 h 147.796 v 43.63" /></clipPath><clipPath
     id="clipPath101-1"><path
       inkscape:connector-curvature="0"
       id="path103-6"
       d="m 409.441,126.252 v -43.63 h 147.796 v 43.63" /></clipPath><clipPath
     id="clipPath69"><path
       inkscape:connector-curvature="0"
       id="path71"
       d="m 409.441,126.252 v -43.63 h 147.796 v 43.63" /></clipPath><clipPath
     id="clipPath101"><path
       inkscape:connector-curvature="0"
       id="path103"
       d="m 409.441,126.252 v -43.63 h 147.796 v 43.63" /></clipPath></defs><sodipodi:namedview
   pagecolor="#ffffff"
   bordercolor="#666666"
   borderopacity="1"
   objecttolerance="10"
   gridtolerance="10"
   guidetolerance="10"
   inkscape:pageopacity="0"
   inkscape:pageshadow="2"
   inkscape:window-width="1680"
   inkscape:window-height="987"
   id="namedview315"
   showgrid="false"
   inkscape:zoom="1.0022655"
   inkscape:cx="433.91181"
   inkscape:cy="352.43879"
   inkscape:window-x="1672"
   inkscape:window-y="-8"
   inkscape:window-maximized="1"
   inkscape:current-layer="Layer_1"
   inkscape:document-rotation="0" />
<style
   type="text/css"
   id="style2">
	.st0{fill:none;stroke:#000000;stroke-width:2;stroke-linecap:round;stroke-linejoin:round;stroke-miterlimit:10;}
</style>


<path
   style="fill:none;stroke:#000000;stroke-width:5;stroke-linecap:butt;stroke-linejoin:miter;stroke-opacity:1;stroke-miterlimit:4;stroke-dasharray:none"
   d="m 369.68643,167.2055 143.92372,-1.41101 c 31.92651,-0.313 39.58034,47.09705 23.98729,79.01694 L 477.62922,367.5699 c -19.55891,40.03824 -87.05042,82.2768 -114.99787,79.72246 L 231.40677,435.29872 c -30.29144,-2.76857 -40.21882,-44.54653 -28.92584,-65.61229 l 73.37288,-136.86864 c 15.16712,-28.2925 64.86031,-65.32825 93.83262,-65.61229 z"
   id="path924"
   sodipodi:nodetypes="sssssssss" /><path
   style="fill:none;stroke:#000000;stroke-width:5;stroke-linecap:butt;stroke-linejoin:miter;stroke-opacity:1;stroke-miterlimit:4;stroke-dasharray:none"
   d="m 213.06355,427.18537 55.02966,44.09428 c 7.99576,7.52542 15.28602,12.93432 28.22034,14.11017 l 107.94279,11.99364 52.91314,2.11653 c 0,0 42.47163,0.0314 81.13347,-11.99365 14.92932,-4.64349 27.02472,-18.39403 33.86441,-32.45339 l 50.7966,-104.41525 c 19.03881,-39.13534 -9.87712,-76.19491 -9.87712,-76.19491 l -67.72881,-73.37288"
   id="path928"
   sodipodi:nodetypes="cccccssscc" /><path
   style="fill:none;stroke:#000000;stroke-width:5;stroke-linecap:butt;stroke-linejoin:miter;stroke-opacity:1;stroke-miterlimit:4;stroke-dasharray:none"
   d="m 613.08684,274.44279 c 0,0 -10.21466,-18.93106 -21.87076,-33.86441 -15.4774,-19.82904 -50.0911,-56.44067 -50.0911,-56.44067"
   id="path930"
   sodipodi:nodetypes="csc" /><path
   style="fill:none;stroke:#000000;stroke-width:3;stroke-linecap:butt;stroke-linejoin:miter;stroke-opacity:1;stroke-miterlimit:4;stroke-dasharray:none"
   d="m 238.46186,447.64511 c 0,0 -29.64428,0.98247 -44.44704,0.35276 -15.81492,-0.67277 -18.72006,-6.09732 -28.92584,-6.34958 -34.18188,-0.84489 -34.78064,-1.98788 -59.96822,5.64407 C 83.178409,453.94099 40.213982,459.286 40.213982,459.286"
   id="path932"
   sodipodi:nodetypes="csssc" /><path
   style="fill:none;stroke:#000000;stroke-width:3;stroke-linecap:butt;stroke-linejoin:miter;stroke-opacity:1;stroke-miterlimit:4;stroke-dasharray:none"
   d="m 245.51694,453.29236 c 0,0 -36.69936,1.33522 -51.50212,0.70551 -15.81492,-0.67277 -18.72006,-6.09732 -28.92584,-6.34958 -34.18188,-0.84489 -34.78064,-1.98788 -59.96822,5.64407 C 83.178409,459.94099 37.391948,465.286 37.391948,465.286"
   id="path936"
   sodipodi:nodetypes="csssc" /><path
   style="fill:none;fill-opacity:1;stroke:#000000;stroke-width:1.95654;stroke-linecap:butt;stroke-linejoin:miter;stroke-miterlimit:4;stroke-dasharray:none;stroke-opacity:1"
   d="m 369.78579,174.16149 136.74165,-1.3406 c 30.33333,-0.29738 37.60521,44.74682 22.79028,75.07385 l -56.97569,116.6326 C 453.75914,402.5676 389.63558,442.69837 363.08276,440.2715 L 238.40654,428.87637 c -28.77985,-2.63041 -38.21183,-42.32358 -27.4824,-62.33812 l 69.71144,-130.03864 c 14.41026,-26.88066 61.62366,-62.06825 89.15021,-62.33812 z"
   id="path938"
   sodipodi:nodetypes="sssssssss" /><path
   style="fill:none;stroke:#000000;stroke-width:2;stroke-linecap:butt;stroke-linejoin:miter;stroke-opacity:1;stroke-miterlimit:4;stroke-dasharray:none"
   d="M 409.07325,245.44394 322.2699,302.3151"
   id="path940" /><path
   style="fill:none;stroke:#000000;stroke-width:2;stroke-linecap:butt;stroke-linejoin:miter;stroke-opacity:1;stroke-miterlimit:4;stroke-dasharray:none"
   d="M 433.08592,243.7115 298.25723,332.04754"
   id="path942" /><path
   style="fill:none;stroke:#000000;stroke-width:2;stroke-linecap:butt;stroke-linejoin:miter;stroke-opacity:1;stroke-miterlimit:4;stroke-dasharray:none"
   d="M 409.07325,277.44394 322.2699,334.3151"
   id="path944" /></svg>
