<?xml version="1.0" encoding="UTF-8" standalone="no"?>
<!-- Created with Inkscape (http://www.inkscape.org/) -->

<svg
   width="210mm"
   height="297mm"
   viewBox="0 0 210 297"
   version="1.1"
   id="svg1"
   inkscape:version="1.3 (0e150ed6c4, 2023-07-21)"
   sodipodi:docname="icon.svg"
   xmlns:inkscape="http://www.inkscape.org/namespaces/inkscape"
   xmlns:sodipodi="http://sodipodi.sourceforge.net/DTD/sodipodi-0.dtd"
   xmlns="http://www.w3.org/2000/svg"
   xmlns:svg="http://www.w3.org/2000/svg">
  <sodipodi:namedview
     id="namedview1"
     pagecolor="#ffffff"
     bordercolor="#000000"
     borderopacity="0.25"
     inkscape:showpageshadow="2"
     inkscape:pageopacity="0.0"
     inkscape:pagecheckerboard="0"
     inkscape:deskcolor="#d1d1d1"
     inkscape:document-units="mm"
     showgrid="false"
     inkscape:zoom="1.4485269"
     inkscape:cx="458.05155"
     inkscape:cy="386.25447"
     inkscape:window-width="1920"
     inkscape:window-height="1009"
     inkscape:window-x="2552"
     inkscape:window-y="-8"
     inkscape:window-maximized="1"
     inkscape:current-layer="layer2"
     inkscape:export-bgcolor="#ffffff4e">
    <inkscape:grid
       id="grid1"
       units="mm"
       originx="0"
       originy="0"
       spacingx="0.99999998"
       spacingy="1"
       empcolor="#0099e5"
       empopacity="0.30196078"
       color="#0099e5"
       opacity="0.14901961"
       empspacing="5"
       dotted="false"
       gridanglex="30"
       gridanglez="30"
       visible="false" />
  </sodipodi:namedview>
  <defs
     id="defs1">
    <linearGradient
       id="swatch1"
       inkscape:swatch="solid">
      <stop
         style="stop-color:#000000;stop-opacity:1;"
         offset="0"
         id="stop1" />
    </linearGradient>
  </defs>
  <g
     inkscape:label="Layer 1"
     inkscape:groupmode="layer"
     id="layer1">
    <rect
       style="fill:#ffffff;fill-opacity:0;stroke:#000000;stroke-width:1.99518;stroke-dasharray:none;stroke-opacity:1"
       id="rect1"
       width="105.39765"
       height="180.05089"
       x="49.723377"
       y="61.735058" />
    <rect
       style="fill:#ffffff;fill-opacity:0;stroke:#000000;stroke-width:1.98355;stroke-dasharray:none;stroke-opacity:1"
       id="rect2"
       width="10.73655"
       height="52.261368"
       x="53.463142"
       y="241.821" />
    <rect
       style="fill:#ffffff;fill-opacity:0;stroke:#000000;stroke-width:1.97887;stroke-dasharray:none;stroke-opacity:1"
       id="rect2-5"
       width="10.741236"
       height="51.992065"
       x="96.594452"
       y="241.782" />
    <rect
       style="fill:#ffffff;fill-opacity:0;stroke:#000000;stroke-width:1.97495;stroke-dasharray:none;stroke-opacity:1"
       id="rect2-2"
       width="10.745151"
       height="51.767658"
       x="140.19971"
       y="241.85724" />
  </g>
  <g
     inkscape:groupmode="layer"
     id="layer2"
     inkscape:label="Layer 2">
    <path
       d="m 102.68429,10.584181 a 51.290098,52.718214 89.875487 0 0 -9.157565,0.744466 51.290098,52.718214 89.875487 0 0 -8.886259,2.281567 51.290098,52.718214 89.875487 0 0 -8.343641,3.747505 51.290098,52.718214 89.875487 0 0 -7.5483,5.099584 51.290098,52.718214 89.875487 0 0 -6.522536,6.2973 51.290098,52.718214 89.875487 0 0 -5.301028,7.304514 51.290098,52.718214 89.875487 0 0 -3.915998,8.088394 51.290098,52.718214 89.875487 0 0 -2.413277,8.627035 51.290098,52.718214 89.875487 0 0 -0.837461,8.902925 h 0.09789 V 61.463984 H 155.13587 v 0.605426 h 0.0582 a 51.290098,52.718214 89.875487 0 0 -0.0347,-2.065889 51.290098,52.718214 89.875487 0 0 -0.12009,-2.061514 51.290098,52.718214 89.875487 0 0 -0.20449,-2.056036 51.290098,52.718214 89.875487 0 0 -0.28988,-2.046185 51.290098,52.718214 89.875487 0 0 -0.37537,-2.03414 51.290098,52.718214 89.875487 0 0 -0.4584,-2.016625 51.290098,52.718214 89.875487 0 0 -0.54137,-1.996917 51.290098,52.718214 89.875487 0 0 -0.62315,-1.97502 51.290098,52.718214 89.875487 0 0 -0.70489,-1.947653 51.290098,52.718214 89.875487 0 0 -0.78543,-1.919188 51.290098,52.718214 89.875487 0 0 -0.86348,-1.887437 51.290098,52.718214 89.875487 0 0 -0.94153,-1.851309 51.290098,52.718214 89.875487 0 0 -1.01583,-1.812992 51.290098,52.718214 89.875487 0 0 -1.09143,-1.772483 51.290098,52.718214 89.875487 0 0 -1.16453,-1.727596 51.290098,52.718214 89.875487 0 0 -1.23389,-1.680521 51.290098,52.718214 89.875487 0 0 -1.30328,-1.63016 51.290098,52.718214 89.875487 0 0 -1.36892,-1.578704 51.290098,52.718214 89.875487 0 0 -1.43335,-1.523963 51.290098,52.718214 89.875487 0 0 -1.49528,-1.465938 51.290098,52.718214 89.875487 0 0 -1.55476,-1.406819 51.290098,52.718214 89.875487 0 0 -1.61173,-1.344417 51.290098,52.718214 89.875487 0 0 -1.66626,-1.279825 51.290098,52.718214 89.875487 0 0 -1.71828,-1.214133 51.290098,52.718214 89.875487 0 0 -1.76661,-1.145163 51.290098,52.718214 89.875487 0 0 -1.81241,-1.075094 51.290098,52.718214 89.875487 0 0 -8.31267,-3.80991 51.290098,52.718214 89.875487 0 0 -8.86768,-2.347255 51.290098,52.718214 89.875487 0 0 -9.15013,-0.812343 z"
       style="fill:#ffffff;stroke:#000000;stroke-width:2;stroke-dasharray:none;fill-opacity:0"
       id="path7" />
    <path
       style="fill:#ffffff;fill-opacity:0;fill-rule:nonzero;stroke:#000000;stroke-width:1.98302784;stroke-dasharray:none;stroke-opacity:1"
       id="path3-1"
       sodipodi:type="arc"
       sodipodi:cx="-106.93865"
       sodipodi:cy="-183.84296"
       sodipodi:rx="12.143995"
       sodipodi:ry="13.831288"
       sodipodi:start="3.1415927"
       sodipodi:end="0"
       sodipodi:arc-type="arc"
       d="m -119.08265,-183.84296 a 12.143995,13.831288 0 0 1 12.144,-13.83128 12.143995,13.831288 0 0 1 12.143993,13.83128"
       sodipodi:open="true"
       transform="matrix(-0.99984318,-0.01770892,0.02307408,-0.99973376,0,0)" />
    <path
       style="fill:#ffffff;fill-opacity:0;fill-rule:nonzero;stroke:#000000;stroke-width:1.98299742;stroke-dasharray:none;stroke-opacity:1"
       id="path3"
       sodipodi:type="arc"
       sodipodi:cx="102.30814"
       sodipodi:cy="98.336006"
       sodipodi:rx="12.144151"
       sodipodi:ry="13.830464"
       sodipodi:start="3.1415927"
       sodipodi:end="0"
       sodipodi:arc-type="arc"
       d="M 90.163993,98.336006 A 12.144151,13.830464 0 0 1 102.30814,84.505542 12.144151,13.830464 0 0 1 114.45229,98.336006"
       sodipodi:open="true" />
    <path
       style="fill:#ffffff;fill-opacity:0;fill-rule:nonzero;stroke:#000000;stroke-width:1.97488272;stroke-dasharray:none;stroke-opacity:1"
       d="m 90.16047,98.248076 c 0.656833,49.725824 0.369066,87.272674 0.369066,87.272674 z"
       id="path4"
       sodipodi:nodetypes="ccc" />
    <path
       style="fill:#ffffff;fill-opacity:0;fill-rule:nonzero;stroke:#000000;stroke-width:1.97488272;stroke-dasharray:none;stroke-opacity:1"
       d="M 114.44989,98.296749 114.8319,185.992 Z"
       id="path5"
       sodipodi:nodetypes="ccc" />
    <ellipse
       style="fill:#ffffff;fill-opacity:0;fill-rule:nonzero;stroke:#000000;stroke-width:2;stroke-dasharray:none;stroke-opacity:1"
       id="path6"
       cx="102.22757"
       cy="96.950989"
       rx="5.7493076"
       ry="5.0808096" />
  </g>
</svg>
