<?xml version="1.0" encoding="UTF-8" standalone="no"?>
<svg
   xmlns:dc="http://purl.org/dc/elements/1.1/"
   xmlns:cc="http://creativecommons.org/ns#"
   xmlns:rdf="http://www.w3.org/1999/02/22-rdf-syntax-ns#"
   xmlns:svg="http://www.w3.org/2000/svg"
   xmlns="http://www.w3.org/2000/svg"
   xmlns:sodipodi="http://sodipodi.sourceforge.net/DTD/sodipodi-0.dtd"
   xmlns:inkscape="http://www.inkscape.org/namespaces/inkscape"
   version="1.1"
   id="Layer_1"
   x="0px"
   y="0px"
   viewBox="0 0 667 666"
   style="enable-background:new 0 0 667 666;"
   xml:space="preserve"
   sodipodi:docname="icon.svg"
   inkscape:version="1.0.2 (e86c870879, 2021-01-15, custom)"><metadata
   id="metadata319"><rdf:RDF><cc:Work
       rdf:about=""><dc:format>image/svg+xml</dc:format><dc:type
         rdf:resource="http://purl.org/dc/dcmitype/StillImage" /></cc:Work></rdf:RDF></metadata><defs
   id="defs317"><marker
     inkscape:stockid="Arrow1Send"
     orient="auto"
     refY="0"
     refX="0"
     id="Arrow1Send"
     style="overflow:visible"
     inkscape:isstock="true"><path
       inkscape:connector-curvature="0"
       id="path4714"
       d="M 0,0 5,-5 -12.5,0 5,5 Z"
       style="fill:#000000;fill-opacity:1;fill-rule:evenodd;stroke:#000000;stroke-width:1.00000003pt;stroke-opacity:1"
       transform="matrix(-0.2,0,0,-0.2,-1.2,0)" /></marker><clipPath
     id="clipPath69-0"><path
       inkscape:connector-curvature="0"
       id="path71-2"
       d="m 409.441,126.252 v -43.63 h 147.796 v 43.63" /></clipPath><clipPath
     id="clipPath101-1"><path
       inkscape:connector-curvature="0"
       id="path103-6"
       d="m 409.441,126.252 v -43.63 h 147.796 v 43.63" /></clipPath><clipPath
     id="clipPath69"><path
       inkscape:connector-curvature="0"
       id="path71"
       d="m 409.441,126.252 v -43.63 h 147.796 v 43.63" /></clipPath><clipPath
     id="clipPath101"><path
       inkscape:connector-curvature="0"
       id="path103"
       d="m 409.441,126.252 v -43.63 h 147.796 v 43.63" /></clipPath><marker
     inkscape:isstock="true"
     style="overflow:visible"
     id="Arrow1Send-4"
     refX="0"
     refY="0"
     orient="auto"
     inkscape:stockid="Arrow1Send"><path
       transform="matrix(-0.2,0,0,-0.2,-1.2,0)"
       style="fill:#000000;fill-opacity:1;fill-rule:evenodd;stroke:#000000;stroke-width:1.00000003pt;stroke-opacity:1"
       d="M 0,0 5,-5 -12.5,0 5,5 Z"
       id="path4714-7"
       inkscape:connector-curvature="0" /></marker><clipPath
     id="clipPath69-0-2"><path
       d="m 409.441,126.252 v -43.63 h 147.796 v 43.63"
       id="path71-2-4"
       inkscape:connector-curvature="0" /></clipPath><clipPath
     id="clipPath101-1-9"><path
       d="m 409.441,126.252 v -43.63 h 147.796 v 43.63"
       id="path103-6-8"
       inkscape:connector-curvature="0" /></clipPath><clipPath
     id="clipPath69-9"><path
       d="m 409.441,126.252 v -43.63 h 147.796 v 43.63"
       id="path71-3"
       inkscape:connector-curvature="0" /></clipPath><clipPath
     id="clipPath101-6"><path
       d="m 409.441,126.252 v -43.63 h 147.796 v 43.63"
       id="path103-3"
       inkscape:connector-curvature="0" /></clipPath><marker
     inkscape:stockid="Arrow1Send"
     orient="auto"
     refY="0"
     refX="0"
     id="Arrow1Send-5"
     style="overflow:visible"
     inkscape:isstock="true"><path
       inkscape:connector-curvature="0"
       id="path4714-0"
       d="M 0,0 5,-5 -12.5,0 5,5 Z"
       style="fill:#000000;fill-opacity:1;fill-rule:evenodd;stroke:#000000;stroke-width:1.00000003pt;stroke-opacity:1"
       transform="matrix(-0.2,0,0,-0.2,-1.2,0)" /></marker><clipPath
     id="clipPath69-0-7"><path
       inkscape:connector-curvature="0"
       id="path71-2-8"
       d="m 409.441,126.252 v -43.63 h 147.796 v 43.63" /></clipPath><clipPath
     id="clipPath101-1-0"><path
       inkscape:connector-curvature="0"
       id="path103-6-9"
       d="m 409.441,126.252 v -43.63 h 147.796 v 43.63" /></clipPath><clipPath
     id="clipPath69-2"><path
       inkscape:connector-curvature="0"
       id="path71-4"
       d="m 409.441,126.252 v -43.63 h 147.796 v 43.63" /></clipPath><clipPath
     id="clipPath101-0"><path
       inkscape:connector-curvature="0"
       id="path103-0"
       d="m 409.441,126.252 v -43.63 h 147.796 v 43.63" /></clipPath><marker
     inkscape:isstock="true"
     style="overflow:visible"
     id="Arrow1Send-4-9"
     refX="0"
     refY="0"
     orient="auto"
     inkscape:stockid="Arrow1Send"><path
       transform="matrix(-0.2,0,0,-0.2,-1.2,0)"
       style="fill:#000000;fill-opacity:1;fill-rule:evenodd;stroke:#000000;stroke-width:1.00000003pt;stroke-opacity:1"
       d="M 0,0 5,-5 -12.5,0 5,5 Z"
       id="path4714-7-2"
       inkscape:connector-curvature="0" /></marker><clipPath
     id="clipPath69-0-2-4"><path
       d="m 409.441,126.252 v -43.63 h 147.796 v 43.63"
       id="path71-2-4-2"
       inkscape:connector-curvature="0" /></clipPath><clipPath
     id="clipPath101-1-9-1"><path
       d="m 409.441,126.252 v -43.63 h 147.796 v 43.63"
       id="path103-6-8-6"
       inkscape:connector-curvature="0" /></clipPath><clipPath
     id="clipPath69-9-0"><path
       d="m 409.441,126.252 v -43.63 h 147.796 v 43.63"
       id="path71-3-8"
       inkscape:connector-curvature="0" /></clipPath><clipPath
     id="clipPath101-6-4"><path
       d="m 409.441,126.252 v -43.63 h 147.796 v 43.63"
       id="path103-3-8"
       inkscape:connector-curvature="0" /></clipPath></defs><sodipodi:namedview
   pagecolor="#ffffff"
   bordercolor="#666666"
   borderopacity="1"
   objecttolerance="10"
   gridtolerance="10"
   guidetolerance="10"
   inkscape:pageopacity="0"
   inkscape:pageshadow="2"
   inkscape:window-width="1680"
   inkscape:window-height="987"
   id="namedview315"
   showgrid="false"
   inkscape:zoom="0.50113276"
   inkscape:cx="2.5900781"
   inkscape:cy="401.54491"
   inkscape:window-x="-8"
   inkscape:window-y="-8"
   inkscape:window-maximized="1"
   inkscape:current-layer="Layer_1"
   inkscape:document-rotation="0" />
<style
   type="text/css"
   id="style2">
	.st0{fill:none;stroke:#000000;stroke-width:2;stroke-linecap:round;stroke-linejoin:round;stroke-miterlimit:10;}
</style>


<style
   id="style2-5"
   type="text/css">
	.st0{fill:none;stroke:#000000;stroke-width:2;stroke-linecap:round;stroke-linejoin:round;stroke-miterlimit:10;}
</style><path
   style="fill:none;stroke:#000000;stroke-width:6;stroke-linecap:butt;stroke-linejoin:miter;stroke-opacity:1;stroke-miterlimit:4;stroke-dasharray:none;fill-rule:evenodd"
   d="m 242.6949,87.483046 c 78.09531,-2.324681 139.00925,-6.559022 207.41948,3.527542 122.56473,18.071232 124.45231,92.138582 126.28601,142.512702 3.24538,89.15492 5.3059,122.75747 -1.41102,204.59745 C 566.07552,546.72849 476.53744,560.1028 433.88769,560.8792 349.53695,562.41473 320.99747,562.06658 242.6949,560.1737 126.15626,557.3565 96.224157,496.29045 93.832622,433.18218 89.782169,326.2981 89.655023,300.45846 94.53813,215.18007 101.05657,101.34233 194.72962,88.910839 242.6949,87.483046 Z"
   id="path949"
   sodipodi:nodetypes="sssssssss" /><path
   style="fill:none;stroke:#000000;stroke-width:6;stroke-linecap:butt;stroke-linejoin:miter;stroke-opacity:1;stroke-miterlimit:4;stroke-dasharray:none;fill-rule:evenodd"
   d="m 257.7243,116.03831 c 71.69773,-1.66008 114.19504,-1.70369 182.66042,2.43697 105.79285,6.39815 105.92817,73.61435 109.67822,124.83906 5.80266,79.26299 2.89712,94.41412 -1.25699,182.26298 -4.84441,102.4469 -91.23216,107.96062 -125.69859,109.35778 -75.09355,3.04405 -100.54984,0.0629 -170.32162,-0.62849 -110.87201,-1.09864 -130.48156,-56.90956 -132.61203,-113.12874 -3.60829,-95.2163 -3.04934,-114.54921 0.6285,-194.20435 4.87076,-105.4917 83.60933,-109.7008 136.92209,-110.93521 z"
   id="path951"
   sodipodi:nodetypes="sssssssss" /><path
   style="fill:none;stroke:#000000;stroke-width:3;stroke-linecap:butt;stroke-linejoin:miter;stroke-opacity:1;stroke-miterlimit:4;stroke-dasharray:none;fill-rule:evenodd"
   d="m 261.33935,125.77655 c 68.36649,-1.58295 107.12551,-2.6828 172.40983,1.26547 100.87748,6.10088 104.55155,33.07003 112.34291,117.62773 3.53158,38.32736 1.17875,83.31616 -0.14032,176.26391 -1.58784,111.88706 -86.28339,94.29703 -123.73863,94.0469 -89.74073,-0.59929 -240.36678,-0.24654 -240.36678,-0.24654 -33.48797,1.91883 -47.87143,-30.98363 -51.66669,-97.9954 -5.13755,-90.71214 -2.90765,-109.22699 0.59931,-185.18117 4.64445,-100.59033 79.72464,-104.60386 130.56037,-105.7809 z"
   id="path953"
   sodipodi:nodetypes="sssssssss" /><style
   type="text/css"
   id="style2-6">
	.st0{fill:none;stroke:#000000;stroke-width:2;stroke-linecap:round;stroke-linejoin:round;stroke-miterlimit:10;}
</style><style
   id="style2-5-8"
   type="text/css">
	.st0{fill:none;stroke:#000000;stroke-width:2;stroke-linecap:round;stroke-linejoin:round;stroke-miterlimit:10;}
</style><rect
   style="fill:none;fill-opacity:1;stroke:#000000;stroke-width:2.02947;stroke-linecap:round;stroke-linejoin:miter;stroke-miterlimit:4;stroke-dasharray:none;stroke-dashoffset:0;stroke-opacity:1;paint-order:markers stroke fill;fill-rule:evenodd"
   id="rect1017"
   width="31.531969"
   height="17.980639"
   x="374.06909"
   y="144.06941"
   ry="2.2990677" /><rect
   ry="1.1814809"
   y="148.29988"
   x="405.22247"
   height="9.2401714"
   width="4.2246423"
   id="rect1019"
   style="fill:#000000;fill-opacity:1;stroke:#000000;stroke-width:0.532524;stroke-linecap:round;stroke-linejoin:miter;stroke-miterlimit:4;stroke-dasharray:none;stroke-dashoffset:0;stroke-opacity:1;paint-order:markers stroke fill;fill-rule:evenodd" /><rect
   ry="0.13594791"
   y="147.6555"
   x="378.31451"
   height="10.851228"
   width="1.135147"
   id="rect1021"
   style="fill:#000000;fill-opacity:1;stroke:#000000;stroke-width:1.95751;stroke-linecap:round;stroke-linejoin:miter;stroke-miterlimit:4;stroke-dasharray:none;stroke-dashoffset:0;stroke-opacity:1;paint-order:markers stroke fill;fill-rule:evenodd" /><rect
   style="fill:#000000;fill-opacity:1;stroke:#000000;stroke-width:1.95751;stroke-linecap:round;stroke-linejoin:miter;stroke-miterlimit:4;stroke-dasharray:none;stroke-dashoffset:0;stroke-opacity:1;paint-order:markers stroke fill;fill-rule:evenodd"
   id="rect1023"
   width="1.135147"
   height="10.851228"
   x="384.31451"
   y="147.6555"
   ry="0.13594791" /><rect
   ry="0.13594791"
   y="147.6555"
   x="389.81561"
   height="10.851228"
   width="1.135147"
   id="rect1025"
   style="fill:#000000;fill-opacity:1;stroke:#000000;stroke-width:1.95751;stroke-linecap:round;stroke-linejoin:miter;stroke-miterlimit:4;stroke-dasharray:none;stroke-dashoffset:0;stroke-opacity:1;paint-order:markers stroke fill;fill-rule:evenodd" /><rect
   style="fill:#000000;fill-opacity:1;stroke:#000000;stroke-width:1.95751;stroke-linecap:round;stroke-linejoin:miter;stroke-miterlimit:4;stroke-dasharray:none;stroke-dashoffset:0;stroke-opacity:1;paint-order:markers stroke fill;fill-rule:evenodd"
   id="rect1027"
   width="1.135147"
   height="10.851228"
   x="395.44147"
   y="147.6555"
   ry="0.13594791" /><rect
   ry="0.13594791"
   y="147.6555"
   x="400.94257"
   height="10.851228"
   width="1.135147"
   id="rect1029"
   style="fill:#000000;fill-opacity:1;stroke:#000000;stroke-width:1.95751;stroke-linecap:round;stroke-linejoin:miter;stroke-miterlimit:4;stroke-dasharray:none;stroke-dashoffset:0;stroke-opacity:1;paint-order:markers stroke fill;fill-rule:evenodd" /><path
   style="fill:#000000;fill-opacity:1;stroke:none;stroke-width:1.3579px;stroke-linecap:butt;stroke-linejoin:miter;stroke-opacity:1;fill-rule:evenodd"
   d="m 232.09532,197.55066 4.7419,4.4032 34.88677,-0.33872 4.65721,-4.14916 -4.57253,-4.23382 -35.14081,0.16934 z"
   id="path1031"
   inkscape:connector-curvature="0" /><path
   inkscape:connector-curvature="0"
   id="path1033"
   d="m 232.09532,197.55066 4.7419,4.4032 34.88677,-0.33872 4.65721,-4.14916 -4.57253,-4.23382 -35.14081,0.16934 z"
   style="fill:#000000;fill-opacity:1;stroke:none;stroke-width:1.3579px;stroke-linecap:butt;stroke-linejoin:miter;stroke-opacity:1;fill-rule:evenodd" /><path
   style="fill:#000000;fill-opacity:1;stroke:none;stroke-width:1.3579px;stroke-linecap:butt;stroke-linejoin:miter;stroke-opacity:1;fill-rule:evenodd"
   d="m 321.71644,197.55066 4.74189,4.4032 34.88678,-0.33872 4.65721,-4.14916 -4.57253,-4.23382 -35.14081,0.16934 z"
   id="path1047"
   inkscape:connector-curvature="0" /><path
   style="fill:#000000;fill-opacity:1;stroke:none;stroke-width:1.3579px;stroke-linecap:butt;stroke-linejoin:miter;stroke-opacity:1;fill-rule:evenodd"
   d="m 232.09532,253.90486 4.7419,4.40319 34.88677,-0.33871 4.65721,-4.14916 -4.57253,-4.23383 -35.14081,0.16935 z"
   id="path1049"
   inkscape:connector-curvature="0" /><path
   inkscape:connector-curvature="0"
   id="path1051"
   d="m 321.71644,253.90486 4.74189,4.40319 34.88678,-0.33871 4.65721,-4.14916 -4.57253,-4.23383 -35.14081,0.16935 z"
   style="fill:#000000;fill-opacity:1;stroke:none;stroke-width:1.3579px;stroke-linecap:butt;stroke-linejoin:miter;stroke-opacity:1;fill-rule:evenodd" /><path
   inkscape:connector-curvature="0"
   id="path1053"
   d="m 232.09532,310.59776 4.7419,4.4032 34.88677,-0.33872 4.65721,-4.14915 -4.57253,-4.23383 -35.14081,0.16934 z"
   style="fill:#000000;fill-opacity:1;stroke:none;stroke-width:1.3579px;stroke-linecap:butt;stroke-linejoin:miter;stroke-opacity:1;fill-rule:evenodd" /><path
   style="fill:#000000;fill-opacity:1;stroke:none;stroke-width:1.3579px;stroke-linecap:butt;stroke-linejoin:miter;stroke-opacity:1;fill-rule:evenodd"
   d="m 321.71644,310.59776 4.74189,4.4032 34.88678,-0.33872 4.65721,-4.14915 -4.57253,-4.23383 -35.14081,0.16934 z"
   id="path1055"
   inkscape:connector-curvature="0" /><path
   style="fill:#000000;fill-opacity:1;stroke:none;stroke-width:1.3579px;stroke-linecap:butt;stroke-linejoin:miter;stroke-opacity:1;fill-rule:evenodd"
   d="m 231.67265,366.08827 4.74189,4.40319 34.88677,-0.33871 4.65722,-4.14916 -4.57254,-4.23382 -35.14081,0.16934 z"
   id="path1057"
   inkscape:connector-curvature="0" /><path
   inkscape:connector-curvature="0"
   id="path1059"
   d="m 321.29377,366.08827 4.74189,4.40319 34.88677,-0.33871 4.65722,-4.14916 -4.57254,-4.23382 -35.14081,0.16934 z"
   style="fill:#000000;fill-opacity:1;stroke:none;stroke-width:1.3579px;stroke-linecap:butt;stroke-linejoin:miter;stroke-opacity:1;fill-rule:evenodd" /><path
   inkscape:connector-curvature="0"
   id="path1061"
   d="m 231.67265,422.44246 4.74189,4.4032 34.88677,-0.33872 4.65722,-4.14916 -4.57254,-4.23382 -35.14081,0.16934 z"
   style="fill:#000000;fill-opacity:1;stroke:none;stroke-width:1.3579px;stroke-linecap:butt;stroke-linejoin:miter;stroke-opacity:1;fill-rule:evenodd" /><path
   style="fill:#000000;fill-opacity:1;stroke:none;stroke-width:1.3579px;stroke-linecap:butt;stroke-linejoin:miter;stroke-opacity:1;fill-rule:evenodd"
   d="m 231.67265,479.30473 4.74189,4.40319 34.88677,-0.33871 4.65722,-4.14916 -4.57254,-4.23383 -35.14081,0.16935 z"
   id="path1065"
   inkscape:connector-curvature="0" /><path
   inkscape:connector-curvature="0"
   id="path1067"
   d="m 321.29377,479.30473 4.74189,4.40319 34.88677,-0.33871 4.65722,-4.14916 -4.57254,-4.23383 -35.14081,0.16935 z"
   style="fill:#000000;fill-opacity:1;stroke:none;stroke-width:1.3579px;stroke-linecap:butt;stroke-linejoin:miter;stroke-opacity:1;fill-rule:evenodd" /><path
   inkscape:connector-curvature="0"
   id="path1069"
   d="m 230.20545,477.27124 4.44523,-5.60169 -0.0282,-41.55938 -4.10755,-5.59149 -4.27435,5.40177 -0.14333,41.86018 z"
   style="fill:#000000;fill-opacity:1;stroke:none;stroke-width:1.48205px;stroke-linecap:butt;stroke-linejoin:miter;stroke-opacity:1;fill-rule:evenodd" /><path
   style="fill:#000000;fill-opacity:1;stroke:none;stroke-width:1.48205px;stroke-linecap:butt;stroke-linejoin:miter;stroke-opacity:1;fill-rule:evenodd"
   d="m 277.22069,477.27124 4.44522,-5.60169 -0.0282,-41.55938 -4.10755,-5.59149 -4.27435,5.40177 -0.14334,41.86018 z"
   id="path1071"
   inkscape:connector-curvature="0" /><path
   style="fill:#000000;fill-opacity:1;stroke:none;stroke-width:1.48205px;stroke-linecap:butt;stroke-linejoin:miter;stroke-opacity:1;fill-rule:evenodd"
   d="m 319.82657,477.27124 4.44522,-5.60169 -0.0282,-41.55938 -4.10755,-5.59149 -4.27435,5.40177 -0.14334,41.86018 z"
   id="path1075"
   inkscape:connector-curvature="0" /><path
   inkscape:connector-curvature="0"
   id="path1077"
   d="m 366.84181,477.27124 4.44522,-5.60169 -0.0282,-41.55938 -4.10755,-5.59149 -4.27435,5.40177 -0.14334,41.86018 z"
   style="fill:#000000;fill-opacity:1;stroke:none;stroke-width:1.48205px;stroke-linecap:butt;stroke-linejoin:miter;stroke-opacity:1;fill-rule:evenodd" /><path
   style="fill:#000000;fill-opacity:1;stroke:none;stroke-width:1.48205px;stroke-linecap:butt;stroke-linejoin:miter;stroke-opacity:1;fill-rule:evenodd"
   d="m 230.20545,420.23962 4.44523,-5.60169 -0.0282,-41.55938 -4.10755,-5.59149 -4.27435,5.40177 -0.14333,41.86017 z"
   id="path1083"
   inkscape:connector-curvature="0" /><path
   inkscape:connector-curvature="0"
   id="path1087"
   d="m 319.82657,420.23962 4.44522,-5.60169 -0.0282,-41.55938 -4.10755,-5.59149 -4.27435,5.40177 -0.14334,41.86017 z"
   style="fill:#000000;fill-opacity:1;stroke:none;stroke-width:1.48205px;stroke-linecap:butt;stroke-linejoin:miter;stroke-opacity:1;fill-rule:evenodd" /><path
   style="fill:#000000;fill-opacity:1;stroke:none;stroke-width:1.48205px;stroke-linecap:butt;stroke-linejoin:miter;stroke-opacity:1;fill-rule:evenodd"
   d="m 366.84181,420.23962 4.44522,-5.60169 -0.0282,-41.55938 -4.10755,-5.59149 -4.27435,5.40177 -0.14334,41.86017 z"
   id="path1089"
   inkscape:connector-curvature="0" /><path
   inkscape:connector-curvature="0"
   id="path1091"
   d="m 230.62813,309.41106 4.44522,-5.60169 -0.0282,-41.55938 -4.10756,-5.59148 -4.27434,5.40176 -0.14334,41.86018 z"
   style="fill:#000000;fill-opacity:1;stroke:none;stroke-width:1.48205px;stroke-linecap:butt;stroke-linejoin:miter;stroke-opacity:1;fill-rule:evenodd" /><path
   inkscape:connector-curvature="0"
   id="path1097"
   d="m 367.26449,309.41106 4.44522,-5.60169 -0.0283,-41.55938 -4.10755,-5.59148 -4.27434,5.40176 -0.14334,41.86018 z"
   style="fill:#000000;fill-opacity:1;stroke:none;stroke-width:1.48205px;stroke-linecap:butt;stroke-linejoin:miter;stroke-opacity:1;fill-rule:evenodd" /><path
   inkscape:connector-curvature="0"
   id="path1101"
   d="m 277.64337,252.37944 4.44522,-5.60169 -0.0283,-41.55938 -4.10755,-5.59149 -4.27434,5.40177 -0.14334,41.86018 z"
   style="fill:#000000;fill-opacity:1;stroke:none;stroke-width:1.48205px;stroke-linecap:butt;stroke-linejoin:miter;stroke-opacity:1;fill-rule:evenodd" /><path
   style="fill:#000000;fill-opacity:1;stroke:none;stroke-width:0.618768px;stroke-linecap:butt;stroke-linejoin:miter;stroke-opacity:1;fill-rule:evenodd"
   d="m 431.81897,261.49534 2.15083,2.01577 15.82381,-0.15506 2.11241,-1.89947 -2.07399,-1.93823 -15.93906,0.0775 z"
   id="path1107"
   inkscape:connector-curvature="0" /><path
   inkscape:connector-curvature="0"
   id="path1109"
   d="m 431.81897,287.29414 2.15083,2.01579 15.82381,-0.15507 2.11241,-1.89949 -2.07399,-1.93824 -15.93906,0.0775 z"
   style="fill:#000000;fill-opacity:1;stroke:none;stroke-width:0.618768px;stroke-linecap:butt;stroke-linejoin:miter;stroke-opacity:1;fill-rule:evenodd" /><path
   style="fill:#000000;fill-opacity:1;stroke:none;stroke-width:0.618768px;stroke-linecap:butt;stroke-linejoin:miter;stroke-opacity:1;fill-rule:evenodd"
   d="m 431.81897,313.32554 2.15083,2.01577 15.82381,-0.15507 2.11241,-1.89947 -2.07399,-1.93824 -15.93906,0.0775 z"
   id="path1111"
   inkscape:connector-curvature="0" /><path
   style="fill:#000000;fill-opacity:1;stroke:none;stroke-width:0.67534px;stroke-linecap:butt;stroke-linejoin:miter;stroke-opacity:1;fill-rule:evenodd"
   d="m 452.47849,312.3946 2.01627,-2.56443 -0.0135,-19.02576 -1.86309,-2.55976 -1.93875,2.4729 -0.065,19.16347 z"
   id="path1115"
   inkscape:connector-curvature="0" /><path
   inkscape:connector-curvature="0"
   id="path1119"
   d="m 452.47849,286.2857 2.01627,-2.56445 -0.0135,-19.02577 -1.86309,-2.55977 -1.93875,2.47292 -0.065,19.16346 z"
   style="fill:#000000;fill-opacity:1;stroke:none;stroke-width:0.67534px;stroke-linecap:butt;stroke-linejoin:miter;stroke-opacity:1;fill-rule:evenodd" /><path
   style="fill:#000000;fill-opacity:1;fill-rule:evenodd;stroke-width:1;stroke-miterlimit:4;stroke-dasharray:none"
   id="path1133"
   sodipodi:type="arc"
   sodipodi:cx="401.02582"
   sodipodi:cy="312.31512"
   sodipodi:rx="3.0241241"
   sodipodi:ry="3.0241241"
   sodipodi:start="2.4065996"
   sodipodi:end="2.4059364"
   sodipodi:open="true"
   sodipodi:arc-type="arc"
   d="m 398.78242,314.34305 a 3.0241241,3.0241241 0 0 1 0.2151,-4.27099 3.0241241,3.0241241 0 0 1 4.27103,0.2144 3.0241241,3.0241241 0 0 1 -0.21369,4.27106 3.0241241,3.0241241 0 0 1 -4.2711,-0.21298" /><path
   style="fill:none;fill-rule:evenodd;stroke:#000000;stroke-width:2;stroke-miterlimit:4;stroke-dasharray:none;stroke-opacity:1"
   id="path1137"
   sodipodi:type="arc"
   sodipodi:cx="428.43292"
   sodipodi:cy="200.8085"
   sodipodi:rx="4.1350193"
   sodipodi:ry="4.1350193"
   sodipodi:start="2.4065996"
   sodipodi:end="2.4059364"
   sodipodi:open="true"
   sodipodi:arc-type="arc"
   d="m 425.36542,203.58137 a 4.1350193,4.1350193 0 0 1 0.29412,-5.83991 4.1350193,4.1350193 0 0 1 5.83997,0.29316 4.1350193,4.1350193 0 0 1 -0.29219,5.84001 4.1350193,4.1350193 0 0 1 -5.84006,-0.29122" /><path
   style="fill:none;stroke:#000000;stroke-width:3;stroke-linecap:round;stroke-linejoin:miter;stroke-miterlimit:4;stroke-dasharray:none;stroke-opacity:1;fill-rule:evenodd"
   d="m 457.09126,206.11821 c 0.26551,-0.16583 0,0 -14.07563,0.16629 -1.28607,0.0152 -2.61568,1.59595 -2.60358,2.91037 0.24409,26.52583 0,0 0.24409,26.52583 0.0119,1.28127 1.10577,2.99351 2.35949,2.99351 13.91289,0 13.91289,0 13.91289,0"
   id="path1139"
   inkscape:connector-curvature="0"
   sodipodi:nodetypes="cssssc" /><path
   style="fill:none;fill-rule:evenodd;stroke:#000000;stroke-width:2;stroke-miterlimit:4;stroke-dasharray:none;stroke-opacity:1"
   id="path1141"
   sodipodi:type="arc"
   sodipodi:cx="432.84372"
   sodipodi:cy="373.77106"
   sodipodi:rx="5.3091531"
   sodipodi:ry="5.4531398"
   sodipodi:start="2.4065996"
   sodipodi:end="2.4059364"
   sodipodi:open="true"
   sodipodi:arc-type="arc"
   d="m 428.9052,377.42783 a 5.3091531,5.4531398 0 0 1 0.37764,-7.7015 5.3091531,5.4531398 0 0 1 7.49822,0.38661 5.3091531,5.4531398 0 0 1 -0.37516,7.70163 5.3091531,5.4531398 0 0 1 -7.49834,-0.38405" /><path
   sodipodi:open="true"
   sodipodi:end="2.4059364"
   sodipodi:start="2.4065996"
   sodipodi:ry="5.1240568"
   sodipodi:rx="5.3091531"
   sodipodi:cy="401.62805"
   sodipodi:cx="449.81387"
   sodipodi:type="arc"
   id="path1143"
   style="fill:none;fill-rule:evenodd;stroke:#000000;stroke-width:2;stroke-miterlimit:4;stroke-dasharray:none;stroke-opacity:1"
   sodipodi:arc-type="arc"
   d="m 445.87536,405.06415 a 5.3091531,5.1240568 0 0 1 0.37764,-7.23674 5.3091531,5.1240568 0 0 1 7.49821,0.36328 5.3091531,5.1240568 0 0 1 -0.37516,7.23686 5.3091531,5.1240568 0 0 1 -7.49833,-0.36088" /><path
   style="fill:none;stroke:#000000;stroke-width:2;stroke-linecap:round;stroke-linejoin:miter;stroke-miterlimit:4;stroke-dasharray:none;stroke-opacity:1;fill-rule:evenodd"
   d="m 454.8857,367.67662 -26.97532,39.55817"
   id="path1145"
   inkscape:connector-curvature="0"
   sodipodi:nodetypes="cc" /><path
   inkscape:connector-curvature="0"
   id="path1249"
   d="m 319.97,309.41106 4.44522,-5.60169 -0.0283,-41.55938 -4.10755,-5.59148 -4.27434,5.40176 -0.14334,41.86018 z"
   style="fill:#000000;fill-opacity:1;stroke:none;stroke-width:1.48205px;stroke-linecap:butt;stroke-linejoin:miter;stroke-opacity:1;fill-rule:evenodd" /><path
   style="fill:#000000;fill-opacity:1;stroke:none;stroke-width:1.48205px;stroke-linecap:butt;stroke-linejoin:miter;stroke-opacity:1;fill-rule:evenodd"
   d="m 319.97,252.37944 4.44522,-5.60169 -0.0283,-41.55938 -4.10755,-5.59149 -4.27434,5.40177 -0.14334,41.86018 z"
   id="path1251"
   inkscape:connector-curvature="0" /><path
   style="fill:#000000;fill-opacity:1;fill-rule:evenodd;stroke-width:1;stroke-miterlimit:4;stroke-dasharray:none"
   id="path1253"
   sodipodi:type="arc"
   sodipodi:cx="450.91281"
   sodipodi:cy="446.01224"
   sodipodi:rx="3.0241241"
   sodipodi:ry="3.0241241"
   sodipodi:start="2.4065996"
   sodipodi:end="2.4059364"
   sodipodi:open="true"
   sodipodi:arc-type="arc"
   d="m 448.66941,448.04016 a 3.0241241,3.0241241 0 0 1 0.21511,-4.27099 3.0241241,3.0241241 0 0 1 4.27102,0.2144 3.0241241,3.0241241 0 0 1 -0.21369,4.27106 3.0241241,3.0241241 0 0 1 -4.2711,-0.21298" /><path
   style="fill:#000000;fill-opacity:1;fill-rule:evenodd;stroke-width:1;stroke-miterlimit:4;stroke-dasharray:none"
   id="path1255"
   sodipodi:type="arc"
   sodipodi:cx="430.91281"
   sodipodi:cy="446.01224"
   sodipodi:rx="3.0241241"
   sodipodi:ry="3.0241241"
   sodipodi:start="2.4065996"
   sodipodi:end="2.4059364"
   sodipodi:open="true"
   sodipodi:arc-type="arc"
   d="m 428.66941,448.04016 a 3.0241241,3.0241241 0 0 1 0.21511,-4.27099 3.0241241,3.0241241 0 0 1 4.27102,0.2144 3.0241241,3.0241241 0 0 1 -0.21369,4.27106 3.0241241,3.0241241 0 0 1 -4.2711,-0.21298" /><path
   style="fill:none;stroke:#000000;stroke-width:3;stroke-linecap:round;stroke-linejoin:miter;stroke-miterlimit:4;stroke-dasharray:none;stroke-opacity:1;fill-rule:evenodd"
   d="m 464.89622,442.57329 c 0,0 -0.0237,-11.17214 -12.42465,-13.85718 l -23.17466,0.24409 c -11.63871,2.31596 -11.63599,13.97948 -11.63599,13.97948"
   id="path1257"
   inkscape:connector-curvature="0"
   sodipodi:nodetypes="cccc" /><path
   style="fill:none;stroke:#000000;stroke-width:3;stroke-linecap:round;stroke-linejoin:miter;stroke-miterlimit:4;stroke-dasharray:none;stroke-opacity:1;fill-rule:evenodd"
   d="m 464.89622,469.08092 c 0,0 -0.0237,11.17214 -12.42465,13.85718 l -23.17466,-0.24409 c -11.63871,-2.31596 -11.63599,-13.97948 -11.63599,-13.97948"
   id="path1259"
   inkscape:connector-curvature="0"
   sodipodi:nodetypes="cccc" /><path
   style="fill:none;stroke:#000000;stroke-width:2;stroke-linecap:round;stroke-linejoin:miter;stroke-miterlimit:4;stroke-dasharray:none;stroke-opacity:1;fill-rule:evenodd"
   d="m 449.57917,464.75059 c 0,0 -1.24264,5.16117 -8.20294,5.31115 -7.12148,-0.006 -8.39826,-5.43993 -8.39826,-5.43993"
   id="path1261"
   inkscape:connector-curvature="0"
   sodipodi:nodetypes="ccc" /><path
   style="fill:#000000;fill-opacity:1;fill-rule:evenodd;stroke-width:0.657291"
   id="path1263"
   sodipodi:type="arc"
   sodipodi:cx="290.92172"
   sodipodi:cy="152.50041"
   sodipodi:rx="2.3186157"
   sodipodi:ry="2.3186157"
   sodipodi:start="2.4065996"
   sodipodi:end="2.4059364"
   sodipodi:open="true"
   sodipodi:arc-type="arc"
   d="m 289.20169,154.05523 a 2.3186157,2.3186157 0 0 1 0.16493,-3.27459 2.3186157,2.3186157 0 0 1 3.27462,0.16438 2.3186157,2.3186157 0 0 1 -0.16384,3.27465 2.3186157,2.3186157 0 0 1 -3.27468,-0.1633" /><path
   style="fill:none;stroke:#000000;stroke-width:2;stroke-linecap:round;stroke-linejoin:miter;stroke-miterlimit:4;stroke-dasharray:none;stroke-opacity:1;fill-rule:evenodd"
   d="m 295.23332,147.38512 c 0,0 2.9981,1.55856 2.9981,5.31403 0,3.83386 -2.68944,4.98199 -2.68944,4.98199"
   id="path1273"
   sodipodi:nodetypes="csc" /><path
   style="fill:none;stroke:#000000;stroke-width:2;stroke-linecap:round;stroke-linejoin:miter;stroke-miterlimit:4;stroke-dasharray:none;stroke-opacity:1;fill-rule:evenodd"
   d="m 298.00949,143.18228 c 0,0 5.44576,2.83097 5.44576,9.65241 0,6.96383 -4.88511,9.04929 -4.88511,9.04929"
   id="path1275"
   sodipodi:nodetypes="csc" /><path
   style="fill:none;stroke:#000000;stroke-width:2;stroke-linecap:round;stroke-linejoin:miter;stroke-miterlimit:4;stroke-dasharray:none;stroke-opacity:1;fill-rule:evenodd"
   d="m 286.60159,147.38512 c 0,0 -2.9981,1.55856 -2.9981,5.31403 0,3.83386 2.68944,4.98199 2.68944,4.98199"
   id="path1277"
   sodipodi:nodetypes="csc" /><path
   style="fill:none;stroke:#000000;stroke-width:2;stroke-linecap:round;stroke-linejoin:miter;stroke-miterlimit:4;stroke-dasharray:none;stroke-opacity:1;fill-rule:evenodd"
   d="m 283.82542,143.18228 c 0,0 -5.44576,2.83097 -5.44576,9.65241 0,6.96383 4.88511,9.04929 4.88511,9.04929"
   id="path1279"
   sodipodi:nodetypes="csc" /><path
   style="fill:none;stroke:#000000;stroke-width:1px;stroke-linecap:butt;stroke-linejoin:miter;stroke-opacity:1;fill-rule:evenodd"
   d="M 176.37711,338.64405 H 492.44489"
   id="path1281" /></svg>
