<?xml version="1.0" standalone="no"?>
<!DOCTYPE svg PUBLIC "-//W3C//DTD SVG 20010904//EN"
 "http://www.w3.org/TR/2001/REC-SVG-20010904/DTD/svg10.dtd">
<svg version="1.0" xmlns="http://www.w3.org/2000/svg"
 width="1080.000000pt" height="1080.000000pt" viewBox="0 0 1080.000000 1080.000000"
 preserveAspectRatio="xMidYMid meet">

<g transform="translate(0.000000,1080.000000) scale(0.100000,-0.100000)"
fill="#000000" stroke="none">
<path d="M4530 9526 c-173 -49 -306 -169 -381 -342 l-34 -79 -3 -3074 c-2
-2728 0 -3082 13 -3135 41 -161 154 -304 298 -375 45 -22 102 -45 127 -50 25
-6 150 -11 278 -11 l232 0 0 -364 c0 -205 4 -387 10 -417 24 -125 116 -256
220 -313 185 -101 399 -45 519 135 81 121 84 143 89 577 l4 382 202 0 c149 0
217 4 260 15 148 39 289 150 359 282 73 139 67 -148 67 3239 0 1944 -4 3070
-10 3103 -36 189 -213 376 -405 426 -51 13 -179 15 -930 14 -670 0 -880 -3
-915 -13z m1755 -161 c143 -37 235 -106 291 -220 57 -118 54 41 51 -3185 -3
-3287 4 -2996 -68 -3130 -35 -65 -85 -113 -159 -150 -82 -41 -135 -50 -321
-50 l-176 0 -6 218 c-6 226 -13 272 -58 366 -47 100 -180 208 -276 223 l-33 6
0 393 c0 387 0 394 -20 394 -20 0 -20 -7 -20 -420 l0 -420 35 0 c45 0 130 -39
180 -83 22 -19 55 -60 73 -90 54 -90 62 -136 62 -374 l0 -213 -25 0 -25 0 0
173 c0 187 -10 248 -55 337 -74 146 -214 214 -342 165 -70 -27 -144 -102 -181
-183 -40 -87 -52 -164 -52 -344 l0 -148 -25 0 -25 0 0 198 c0 276 18 344 120
455 56 62 116 95 187 105 l48 7 3 418 c2 412 2 417 -18 417 -20 0 -20 -6 -20
-394 l0 -393 -38 -7 c-94 -15 -215 -110 -269 -212 -55 -102 -63 -154 -63 -386
l0 -208 -207 0 c-224 0 -268 7 -361 54 -97 49 -165 140 -197 261 -13 53 -15
395 -15 3052 0 2177 3 3006 11 3045 13 58 48 135 85 185 46 61 157 123 259
143 22 4 389 8 815 9 664 1 784 -1 835 -14z m-707 -6121 c62 -31 95 -68 136
-154 31 -65 31 -65 34 -262 l4 -198 -276 0 -276 0 0 160 c0 87 5 183 11 212
24 111 100 218 183 254 51 22 125 17 184 -12z m-418 -1116 c0 -362 7 -426 56
-525 33 -68 102 -139 162 -165 62 -28 143 -27 204 2 56 26 132 105 158 163 46
104 50 143 50 509 l0 348 25 0 25 0 0 -379 c0 -350 -2 -384 -20 -443 -36 -116
-110 -198 -224 -249 -63 -28 -186 -24 -258 9 -103 45 -191 163 -217 290 -7 33
-11 189 -11 412 l0 360 25 0 25 0 0 -332z m588 -40 c-3 -362 -4 -375 -26 -429
-12 -32 -41 -78 -64 -103 -119 -136 -283 -121 -387 35 -65 97 -71 145 -71 533
l0 336 275 0 276 0 -3 -372z"/>
<path d="M5379 7536 c-105 -28 -190 -104 -231 -205 -23 -56 -23 -58 -26 -696
l-3 -639 -63 -66 c-34 -36 -76 -85 -91 -110 -150 -238 -107 -559 100 -748 201
-184 496 -209 722 -62 112 74 195 183 243 320 18 51 23 88 24 170 1 173 -46
287 -171 420 l-72 77 -3 644 -3 644 -26 55 c-76 162 -236 241 -400 196z m212
-82 c78 -39 148 -138 149 -211 0 -30 -2 -32 -42 -35 -40 -3 -43 -5 -46 -35 -3
-33 -3 -33 42 -33 l46 0 0 -54 0 -55 -42 -3 c-40 -3 -43 -5 -46 -35 -3 -33 -3
-33 42 -33 l46 0 0 -54 0 -55 -42 -3 c-40 -3 -43 -5 -46 -35 -3 -33 -3 -33 42
-33 l46 0 0 -413 0 -413 28 -16 c85 -52 182 -191 206 -298 44 -193 -2 -366
-134 -501 -332 -339 -900 -103 -900 374 0 160 88 332 214 418 l36 24 0 655 c1
707 0 694 55 765 80 106 227 139 346 79z"/>
<path d="M5395 6579 c-11 -6 -31 -26 -44 -45 l-24 -35 5 -314 6 -314 -44 -26
c-144 -85 -211 -206 -202 -364 8 -137 82 -251 203 -314 57 -30 66 -32 170 -32
104 0 113 2 170 32 73 38 133 99 172 173 26 51 28 64 28 165 0 101 -2 114 -28
165 -36 69 -97 132 -163 171 l-52 29 -4 313 c-4 344 -7 361 -68 392 -32 17
-94 19 -125 4z"/>
<path d="M5436 4354 c-9 -8 -16 -22 -16 -29 0 -19 28 -45 49 -45 40 0 57 61
22 80 -27 14 -37 13 -55 -6z"/>
</g>
</svg>
