<?xml version="1.0" encoding="UTF-8" standalone="no"?>
<svg
   version="1.1"
   id="Layer_1"
   x="0px"
   y="0px"
   viewBox="0 0 667 666"
   style="enable-background:new 0 0 667 666;"
   xml:space="preserve"
   sodipodi:docname="icon.svg"
   inkscape:version="1.1 (c68e22c387, 2021-05-23)"
   xmlns:inkscape="http://www.inkscape.org/namespaces/inkscape"
   xmlns:sodipodi="http://sodipodi.sourceforge.net/DTD/sodipodi-0.dtd"
   xmlns="http://www.w3.org/2000/svg"
   xmlns:svg="http://www.w3.org/2000/svg"
   xmlns:rdf="http://www.w3.org/1999/02/22-rdf-syntax-ns#"
   xmlns:cc="http://creativecommons.org/ns#"
   xmlns:dc="http://purl.org/dc/elements/1.1/"><metadata
   id="metadata319"><rdf:RDF><cc:Work
       rdf:about=""><dc:format>image/svg+xml</dc:format><dc:type
         rdf:resource="http://purl.org/dc/dcmitype/StillImage" /></cc:Work></rdf:RDF></metadata><defs
   id="defs317"><marker
     inkscape:stockid="Arrow1Send"
     orient="auto"
     refY="0"
     refX="0"
     id="Arrow1Send"
     style="overflow:visible"
     inkscape:isstock="true"><path
       inkscape:connector-curvature="0"
       id="path4714"
       d="M 0,0 5,-5 -12.5,0 5,5 Z"
       style="fill:#000000;fill-opacity:1;fill-rule:evenodd;stroke:#000000;stroke-width:1.00000003pt;stroke-opacity:1"
       transform="matrix(-0.2,0,0,-0.2,-1.2,0)" /></marker><clipPath
     id="clipPath69-0"><path
       inkscape:connector-curvature="0"
       id="path71-2"
       d="m 409.441,126.252 v -43.63 h 147.796 v 43.63" /></clipPath><clipPath
     id="clipPath101-1"><path
       inkscape:connector-curvature="0"
       id="path103-6"
       d="m 409.441,126.252 v -43.63 h 147.796 v 43.63" /></clipPath><clipPath
     id="clipPath69"><path
       inkscape:connector-curvature="0"
       id="path71"
       d="m 409.441,126.252 v -43.63 h 147.796 v 43.63" /></clipPath><clipPath
     id="clipPath101"><path
       inkscape:connector-curvature="0"
       id="path103"
       d="m 409.441,126.252 v -43.63 h 147.796 v 43.63" /></clipPath></defs><sodipodi:namedview
   pagecolor="#ffffff"
   bordercolor="#666666"
   borderopacity="1"
   objecttolerance="10"
   gridtolerance="10"
   guidetolerance="10"
   inkscape:pageopacity="0"
   inkscape:pageshadow="2"
   inkscape:window-width="1680"
   inkscape:window-height="987"
   id="namedview315"
   showgrid="false"
   inkscape:zoom="1.0022655"
   inkscape:cx="366.66931"
   inkscape:cy="332.74616"
   inkscape:window-x="1672"
   inkscape:window-y="-8"
   inkscape:window-maximized="1"
   inkscape:current-layer="Layer_1"
   inkscape:document-rotation="0"
   inkscape:pagecheckerboard="0" />
<style
   type="text/css"
   id="style2">
	.st0{fill:none;stroke:#000000;stroke-width:2;stroke-linecap:round;stroke-linejoin:round;stroke-miterlimit:10;}
</style>


<path
   d="m 602.95607,327.4291 -47.83014,4.73926 v 27.26734 m 0,111.4974 0,36.56458 h 47.83014 l -2.64566,84.73816 H 289.7876 m -53.61864,0 H 75.566694 L 71.51002,62.622359 H 602.95607 V 327.4291"
   fill="none"
   stroke="#000000"
   stroke-width="2.74886"
   stroke-miterlimit="10"
   pointer-events="all"
   id="path941"
   style="stroke-width:5;stroke-miterlimit:10;stroke-dasharray:none"
   sodipodi:nodetypes="ccccccccccccc" /><path
   d="m 177.48769,258.78093 v -20.1583 m 0,-60.47489 v -20.1583 m -1.33777,72.56987 -20.17663,-48.37991 m -5.36944,-4.03166 v -20.1583"
   fill="#ffffff"
   stroke="#000000"
   stroke-width="2.74886"
   stroke-miterlimit="10"
   pointer-events="none"
   id="path943" /><ellipse
   cx="-182.17938"
   cy="177.4877"
   rx="4.0316596"
   ry="4.0323644"
   fill="#ffffff"
   stroke="#000000"
   stroke-width="2.74886"
   transform="rotate(-90)"
   pointer-events="none"
   id="ellipse945" /><ellipse
   cx="-234.59097"
   cy="177.4877"
   rx="4.0316596"
   ry="4.0323644"
   fill="#ffffff"
   stroke="#000000"
   stroke-width="2.74886"
   transform="rotate(-90)"
   pointer-events="none"
   id="ellipse947" /><ellipse
   cx="-182.17938"
   cy="150.60385"
   rx="4.0316596"
   ry="4.0323644"
   fill="#ffffff"
   stroke="#000000"
   stroke-width="2.74886"
   transform="rotate(-90)"
   pointer-events="none"
   id="ellipse949" /><path
   d="m 125.36933,157.97111 v 18.14247 c 3.70179,0.25656 6.87214,2.78551 7.97169,6.3407 1.11787,3.57351 -0.0733,7.45857 -2.96877,9.78594 -2.25407,1.79592 -5.18618,2.52895 -8.02667,2.01583 -1.09954,0 -1.9975,-0.89797 -1.9975,-2.01583 0,-1.11787 0.89796,-2.01583 1.9975,-2.01583 2.84049,-0.51312 5.7726,0.2199 8.02667,2.01583 2.41899,2.08913 3.7751,5.00292 3.7751,8.06331 0,3.0604 -1.35611,5.97419 -3.7751,8.06332 -2.25407,1.79593 -5.18618,2.52895 -8.02667,2.01583 -1.09954,0 -1.9975,-0.89796 -1.9975,-2.01583 0,-1.11786 0.89796,-2.01583 1.9975,-2.01583 2.84049,-0.51312 5.7726,0.21991 8.02667,2.01583 2.41899,2.08914 3.7751,5.00293 3.7751,8.06332 0,3.0604 -1.35611,5.97419 -3.7751,8.06332 -2.25407,1.79592 -5.18618,2.52895 -8.02667,2.01583 -1.09954,0 -1.9975,-0.89796 -1.9975,-2.01583 0,-1.11787 0.89796,-2.01583 1.9975,-2.01583 2.84049,-0.51312 5.7726,0.21991 8.02667,2.01583 2.89546,2.32737 4.08664,6.21242 2.96877,9.78594 -1.09955,3.55519 -4.2699,6.08414 -7.97169,6.3407 v 18.14247"
   fill="none"
   stroke="#000000"
   stroke-width="2.74886"
   stroke-linejoin="round"
   stroke-miterlimit="10"
   pointer-events="none"
   id="path951" /><rect
   x="93.500893"
   y="135.92526"
   width="113.6195"
   height="146.6058"
   rx="1.1361951"
   ry="1.1361951"
   fill="none"
   stroke="#000000"
   stroke-width="2.74886"
   pointer-events="none"
   id="rect953"
   style="stroke-width:3;stroke-miterlimit:4;stroke-dasharray:none" /><rect
   x="93.500893"
   y="75.450371"
   width="113.6195"
   height="49.479462"
   rx="0.49479461"
   ry="0.49479461"
   fill="none"
   stroke="#000000"
   stroke-width="2.74886"
   pointer-events="none"
   id="rect955"
   style="stroke-width:3;stroke-miterlimit:4;stroke-dasharray:none" /><circle
   cx="114.57548"
   cy="100.19009"
   fill="none"
   stroke="#000000"
   stroke-width="2.74886"
   pointer-events="none"
   id="ellipse957"
   r="13.744294" /><rect
   x="111.82661"
   y="86.445801"
   width="5.4977179"
   height="25.656017"
   rx="0.82465762"
   ry="0.82465762"
   fill="none"
   stroke="#000000"
   stroke-width="2.74886"
   pointer-events="none"
   id="rect959" /><circle
   cx="151.22693"
   cy="100.19009"
   fill="none"
   stroke="#000000"
   stroke-width="2.74886"
   pointer-events="none"
   id="ellipse961"
   r="13.744294" /><rect
   x="148.47807"
   y="86.445801"
   width="5.4977179"
   height="25.656017"
   rx="0.82465762"
   ry="0.82465762"
   fill="none"
   stroke="#000000"
   stroke-width="2.74886"
   pointer-events="none"
   id="rect963" /><circle
   cx="186.04581"
   cy="100.19009"
   fill="none"
   stroke="#000000"
   stroke-width="2.74886"
   pointer-events="none"
   id="ellipse965"
   r="13.744294" /><rect
   x="183.29695"
   y="86.445801"
   width="5.4977179"
   height="25.656017"
   rx="0.82465762"
   ry="0.82465762"
   fill="none"
   stroke="#000000"
   stroke-width="2.74886"
   pointer-events="none"
   id="rect967" /><path
   d="m 302.10263,258.78093 v -20.1583 m 0,-60.47489 v -20.1583 m -1.33778,72.56988 -20.17662,-48.37992 m -5.36944,-4.03166 v -20.1583"
   fill="#ffffff"
   stroke="#000000"
   stroke-width="2.74886"
   stroke-miterlimit="10"
   pointer-events="none"
   id="path969" /><ellipse
   cx="-182.1794"
   cy="302.10263"
   rx="4.0316596"
   ry="4.0323644"
   fill="#ffffff"
   stroke="#000000"
   stroke-width="2.74886"
   transform="rotate(-90)"
   pointer-events="none"
   id="ellipse971" /><ellipse
   cx="-234.59099"
   cy="302.10263"
   rx="4.0316596"
   ry="4.0323644"
   fill="#ffffff"
   stroke="#000000"
   stroke-width="2.74886"
   transform="rotate(-90)"
   pointer-events="none"
   id="ellipse973" /><ellipse
   cx="-182.1794"
   cy="275.21878"
   rx="4.0316596"
   ry="4.0323644"
   fill="#ffffff"
   stroke="#000000"
   stroke-width="2.74886"
   transform="rotate(-90)"
   pointer-events="none"
   id="ellipse975" /><path
   d="m 249.98427,157.97111 v 18.14247 c 3.70179,0.25656 6.87214,2.78551 7.97169,6.3407 1.11787,3.57352 -0.0733,7.45857 -2.96877,9.78594 -2.25407,1.79592 -5.18618,2.52895 -8.02667,2.01583 -1.09954,0 -1.9975,-0.89796 -1.9975,-2.01583 0,-1.11787 0.89796,-2.01583 1.9975,-2.01583 2.84049,-0.51312 5.7726,0.21991 8.02667,2.01583 2.41899,2.08913 3.7751,5.00292 3.7751,8.06332 0,3.06039 -1.35611,5.97419 -3.7751,8.06332 -2.25407,1.79592 -5.18618,2.52895 -8.02667,2.01583 -1.09954,0 -1.9975,-0.89796 -1.9975,-2.01583 0,-1.11787 0.89796,-2.01583 1.9975,-2.01583 2.84049,-0.51312 5.7726,0.21991 8.02667,2.01583 2.41899,2.08913 3.7751,5.00292 3.7751,8.06332 0,3.06039 -1.35611,5.97418 -3.7751,8.06332 -2.25407,1.79592 -5.18618,2.52895 -8.02667,2.01583 -1.09954,0 -1.9975,-0.89796 -1.9975,-2.01583 0,-1.11787 0.89796,-2.01583 1.9975,-2.01583 2.84049,-0.51312 5.7726,0.21991 8.02667,2.01583 2.89546,2.32736 4.08664,6.21242 2.96877,9.78593 -1.09955,3.5552 -4.2699,6.08415 -7.97169,6.34071 v 18.14246"
   fill="none"
   stroke="#000000"
   stroke-width="2.74886"
   stroke-linejoin="round"
   stroke-miterlimit="10"
   pointer-events="none"
   id="path977" /><rect
   x="218.11583"
   y="135.92526"
   width="113.6195"
   height="146.6058"
   rx="1.1361951"
   ry="1.1361951"
   fill="none"
   stroke="#000000"
   stroke-width="2.74886"
   pointer-events="none"
   id="rect979"
   style="stroke-width:3;stroke-miterlimit:4;stroke-dasharray:none" /><rect
   x="218.11583"
   y="75.450371"
   width="113.6195"
   height="49.479462"
   rx="0.49479461"
   ry="0.49479461"
   fill="none"
   stroke="#000000"
   stroke-width="2.74886"
   pointer-events="none"
   id="rect981"
   style="stroke-width:3;stroke-miterlimit:4;stroke-dasharray:none" /><circle
   cx="239.19041"
   cy="100.19009"
   fill="none"
   stroke="#000000"
   stroke-width="2.74886"
   pointer-events="none"
   id="ellipse983"
   r="13.744294" /><rect
   x="236.44156"
   y="86.445801"
   width="5.4977179"
   height="25.656017"
   rx="0.82465762"
   ry="0.82465762"
   fill="none"
   stroke="#000000"
   stroke-width="2.74886"
   pointer-events="none"
   id="rect985" /><circle
   cx="275.84186"
   cy="100.19009"
   fill="none"
   stroke="#000000"
   stroke-width="2.74886"
   pointer-events="none"
   id="ellipse987"
   r="13.744294" /><rect
   x="273.09302"
   y="86.445801"
   width="5.4977179"
   height="25.656017"
   rx="0.82465762"
   ry="0.82465762"
   fill="none"
   stroke="#000000"
   stroke-width="2.74886"
   pointer-events="none"
   id="rect989" /><circle
   cx="310.66074"
   cy="100.19009"
   fill="none"
   stroke="#000000"
   stroke-width="2.74886"
   pointer-events="none"
   id="ellipse991"
   r="13.744294" /><rect
   x="307.9119"
   y="86.445801"
   width="5.4977179"
   height="25.656017"
   rx="0.82465762"
   ry="0.82465762"
   fill="none"
   stroke="#000000"
   stroke-width="2.74886"
   pointer-events="none"
   id="rect993" /><path
   d="m 428.55014,258.78093 v -20.15829 m 0,-60.4749 v -20.1583 m -1.33778,72.56988 -20.17662,-48.37992 m -5.36944,-4.03166 v -20.1583"
   fill="#ffffff"
   stroke="#000000"
   stroke-width="2.74886"
   stroke-miterlimit="10"
   pointer-events="none"
   id="path995" /><ellipse
   cx="-182.1794"
   cy="428.55014"
   rx="4.0316596"
   ry="4.0323644"
   fill="#ffffff"
   stroke="#000000"
   stroke-width="2.74886"
   transform="rotate(-90)"
   pointer-events="none"
   id="ellipse997" /><ellipse
   cx="-234.59099"
   cy="428.55014"
   rx="4.0316596"
   ry="4.0323644"
   fill="#ffffff"
   stroke="#000000"
   stroke-width="2.74886"
   transform="rotate(-90)"
   pointer-events="none"
   id="ellipse999" /><ellipse
   cx="-182.1794"
   cy="401.66629"
   rx="4.0316596"
   ry="4.0323644"
   fill="#ffffff"
   stroke="#000000"
   stroke-width="2.74886"
   transform="rotate(-90)"
   pointer-events="none"
   id="ellipse1001" /><path
   d="m 376.43178,157.97111 v 18.14247 c 3.70179,0.25656 6.87214,2.78551 7.97169,6.3407 1.11787,3.57352 -0.0733,7.45857 -2.96877,9.78594 -2.25407,1.79592 -5.18618,2.52895 -8.02667,2.01583 -1.09954,0 -1.9975,-0.89796 -1.9975,-2.01583 0,-1.11787 0.89796,-2.01583 1.9975,-2.01583 2.84049,-0.51312 5.7726,0.21991 8.02667,2.01583 2.41899,2.08913 3.7751,5.00292 3.7751,8.06332 0,3.06039 -1.35611,5.97418 -3.7751,8.06332 -2.25407,1.79592 -5.18618,2.52895 -8.02667,2.01583 -1.09954,0 -1.9975,-0.89796 -1.9975,-2.01583 0,-1.11787 0.89796,-2.01583 1.9975,-2.01583 2.84049,-0.51312 5.7726,0.21991 8.02667,2.01583 2.41899,2.08913 3.7751,5.00292 3.7751,8.06332 0,3.06039 -1.35611,5.97418 -3.7751,8.06332 -2.25407,1.79592 -5.18618,2.52895 -8.02667,2.01583 -1.09954,0 -1.9975,-0.89796 -1.9975,-2.01583 0,-1.11787 0.89796,-2.01583 1.9975,-2.01583 2.84049,-0.51312 5.7726,0.21991 8.02667,2.01583 2.89546,2.32736 4.08664,6.21242 2.96877,9.78593 -1.09955,3.55519 -4.2699,6.08415 -7.97169,6.34071 v 18.14246"
   fill="none"
   stroke="#000000"
   stroke-width="2.74886"
   stroke-linejoin="round"
   stroke-miterlimit="10"
   pointer-events="none"
   id="path1003" /><rect
   x="344.56332"
   y="135.92526"
   width="113.6195"
   height="146.6058"
   rx="1.1361951"
   ry="1.1361951"
   fill="none"
   stroke="#000000"
   stroke-width="2.74886"
   pointer-events="none"
   id="rect1005"
   style="stroke-width:3;stroke-miterlimit:4;stroke-dasharray:none" /><rect
   x="344.56332"
   y="75.450371"
   width="113.6195"
   height="49.479462"
   rx="0.49479461"
   ry="0.49479461"
   fill="none"
   stroke="#000000"
   stroke-width="2.74886"
   pointer-events="none"
   id="rect1007" /><circle
   cx="365.63791"
   cy="100.19009"
   fill="none"
   stroke="#000000"
   stroke-width="2.74886"
   pointer-events="none"
   id="ellipse1009"
   r="13.744294" /><rect
   x="362.88907"
   y="86.445801"
   width="5.4977179"
   height="25.656017"
   rx="0.82465762"
   ry="0.82465762"
   fill="none"
   stroke="#000000"
   stroke-width="2.74886"
   pointer-events="none"
   id="rect1011" /><circle
   cx="402.28937"
   cy="100.19009"
   fill="none"
   stroke="#000000"
   stroke-width="2.74886"
   pointer-events="none"
   id="ellipse1013"
   r="13.744294" /><rect
   x="399.54053"
   y="86.445801"
   width="5.4977179"
   height="25.656017"
   rx="0.82465762"
   ry="0.82465762"
   fill="none"
   stroke="#000000"
   stroke-width="2.74886"
   pointer-events="none"
   id="rect1015" /><circle
   cx="437.10825"
   cy="100.19009"
   fill="none"
   stroke="#000000"
   stroke-width="2.74886"
   pointer-events="none"
   id="ellipse1017"
   r="13.744294" /><rect
   x="434.35941"
   y="86.445801"
   width="5.4977179"
   height="25.656017"
   rx="0.82465762"
   ry="0.82465762"
   fill="none"
   stroke="#000000"
   stroke-width="2.74886"
   pointer-events="none"
   id="rect1019" /><path
   d="m 551.3325,258.78093 v -20.1583 m 0,-60.47489 v -20.1583 m -1.33778,72.56987 -20.17662,-48.37991 m -5.36944,-4.03166 v -20.1583"
   fill="#ffffff"
   stroke="#000000"
   stroke-width="2.74886"
   stroke-miterlimit="10"
   pointer-events="none"
   id="path1021" /><ellipse
   cx="-182.17941"
   cy="551.33252"
   rx="4.0316596"
   ry="4.0323644"
   fill="#ffffff"
   stroke="#000000"
   stroke-width="2.74886"
   transform="rotate(-90)"
   pointer-events="none"
   id="ellipse1023" /><ellipse
   cx="-234.59097"
   cy="551.33252"
   rx="4.0316596"
   ry="4.0323644"
   fill="#ffffff"
   stroke="#000000"
   stroke-width="2.74886"
   transform="rotate(-90)"
   pointer-events="none"
   id="ellipse1025" /><ellipse
   cx="-182.17941"
   cy="524.44867"
   rx="4.0316596"
   ry="4.0323644"
   fill="#ffffff"
   stroke="#000000"
   stroke-width="2.74886"
   transform="rotate(-90)"
   pointer-events="none"
   id="ellipse1027" /><path
   d="m 499.21414,157.97111 v 18.14247 c 3.70179,0.25656 6.87214,2.78551 7.97169,6.3407 1.11787,3.57351 -0.0733,7.45857 -2.96877,9.78594 -2.25407,1.79592 -5.18618,2.52895 -8.02667,2.01583 -1.09954,0 -1.9975,-0.89796 -1.9975,-2.01583 0,-1.11787 0.89796,-2.01583 1.9975,-2.01583 2.84049,-0.51312 5.7726,0.2199 8.02667,2.01583 2.41899,2.08913 3.7751,5.00292 3.7751,8.06332 0,3.06039 -1.35611,5.97418 -3.7751,8.06331 -2.25407,1.79593 -5.18618,2.52895 -8.02667,2.01583 -1.09954,0 -1.9975,-0.89796 -1.9975,-2.01583 0,-1.11786 0.89796,-2.01583 1.9975,-2.01583 2.84049,-0.51312 5.7726,0.21991 8.02667,2.01583 2.41899,2.08914 3.7751,5.00293 3.7751,8.06332 0,3.0604 -1.35611,5.97419 -3.7751,8.06332 -2.25407,1.79592 -5.18618,2.52895 -8.02667,2.01583 -1.09954,0 -1.9975,-0.89796 -1.9975,-2.01583 0,-1.11787 0.89796,-2.01583 1.9975,-2.01583 2.84049,-0.51312 5.7726,0.21991 8.02667,2.01583 2.89546,2.32737 4.08664,6.21242 2.96877,9.78594 -1.09955,3.55519 -4.2699,6.08414 -7.97169,6.3407 v 18.14247"
   fill="none"
   stroke="#000000"
   stroke-width="2.74886"
   stroke-linejoin="round"
   stroke-miterlimit="10"
   pointer-events="none"
   id="path1029" /><rect
   x="467.3457"
   y="135.92526"
   width="113.6195"
   height="146.6058"
   rx="1.1361951"
   ry="1.1361951"
   fill="none"
   stroke="#000000"
   stroke-width="2.74886"
   pointer-events="none"
   id="rect1031"
   style="stroke-width:3;stroke-miterlimit:4;stroke-dasharray:none" /><rect
   x="467.3457"
   y="75.450371"
   width="113.6195"
   height="49.479462"
   rx="0.49479461"
   ry="0.49479461"
   fill="none"
   stroke="#000000"
   stroke-width="2.74886"
   pointer-events="none"
   id="rect1033" /><circle
   cx="488.42029"
   cy="100.19009"
   fill="none"
   stroke="#000000"
   stroke-width="2.74886"
   pointer-events="none"
   id="ellipse1035"
   r="13.744294" /><rect
   x="485.67142"
   y="86.445801"
   width="5.4977179"
   height="25.656017"
   rx="0.82465762"
   ry="0.82465762"
   fill="none"
   stroke="#000000"
   stroke-width="2.74886"
   pointer-events="none"
   id="rect1037" /><circle
   cx="525.07172"
   cy="100.19009"
   fill="none"
   stroke="#000000"
   stroke-width="2.74886"
   pointer-events="none"
   id="ellipse1039"
   r="13.744294" /><rect
   x="522.32288"
   y="86.445801"
   width="5.4977179"
   height="25.656017"
   rx="0.82465762"
   ry="0.82465762"
   fill="none"
   stroke="#000000"
   stroke-width="2.74886"
   pointer-events="none"
   id="rect1041" /><circle
   cx="559.89062"
   cy="100.19009"
   fill="none"
   stroke="#000000"
   stroke-width="2.74886"
   pointer-events="none"
   id="ellipse1043"
   r="13.744294" /><rect
   x="557.14178"
   y="86.445801"
   width="5.4977179"
   height="25.656017"
   rx="0.82465762"
   ry="0.82465762"
   fill="none"
   stroke="#000000"
   stroke-width="2.74886"
   pointer-events="none"
   id="rect1045" /><rect
   x="82.505455"
   y="524.43066"
   width="80.633194"
   height="49.479462"
   rx="0.49479461"
   ry="0.49479461"
   fill="none"
   stroke="#000000"
   stroke-width="2.74886"
   pointer-events="none"
   id="rect1047"
   style="stroke-width:3;stroke-miterlimit:4;stroke-dasharray:none" /><circle
   cx="103.58004"
   cy="549.17041"
   fill="none"
   stroke="#000000"
   stroke-width="2.74886"
   pointer-events="none"
   id="ellipse1049"
   r="13.744294" /><rect
   x="100.83118"
   y="535.42609"
   width="5.4977179"
   height="25.656017"
   rx="0.82465762"
   ry="0.82465762"
   fill="none"
   stroke="#000000"
   stroke-width="2.74886"
   pointer-events="none"
   id="rect1051" /><circle
   cx="140.23149"
   cy="549.17041"
   fill="none"
   stroke="#000000"
   stroke-width="2.74886"
   pointer-events="none"
   id="ellipse1053"
   r="13.744294" /><rect
   x="137.48264"
   y="535.42609"
   width="5.4977179"
   height="25.656017"
   rx="0.82465762"
   ry="0.82465762"
   fill="none"
   stroke="#000000"
   stroke-width="2.74886"
   pointer-events="none"
   id="rect1055" /><rect
   x="324.40503"
   y="445.63004"
   width="42.14917"
   height="42.14917"
   rx="1.2644751"
   ry="1.2644751"
   fill="none"
   stroke="#000000"
   stroke-width="2.74886"
   pointer-events="none"
   id="rect1057" /><circle
   cx="345.47961"
   cy="466.70462"
   fill="#000000"
   stroke="#000000"
   stroke-width="2.74886"
   pointer-events="none"
   id="ellipse1059"
   r="14.202437" /><rect
   x="447.18741"
   y="524.43066"
   width="42.14917"
   height="42.14917"
   rx="1.2644751"
   ry="1.2644751"
   fill="none"
   stroke="#000000"
   stroke-width="2.74886"
   pointer-events="none"
   id="rect1061" /><circle
   cx="468.26199"
   cy="545.50525"
   fill="#000000"
   stroke="#000000"
   stroke-width="2.74886"
   pointer-events="none"
   id="ellipse1063"
   r="14.202437" /><rect
   x="397.70795"
   y="524.43066"
   width="42.14917"
   height="42.14917"
   rx="1.2644751"
   ry="1.2644751"
   fill="none"
   stroke="#000000"
   stroke-width="2.74886"
   pointer-events="none"
   id="rect1065" /><circle
   cx="418.78253"
   cy="545.50525"
   fill="#000000"
   stroke="#000000"
   stroke-width="2.74886"
   pointer-events="none"
   id="ellipse1067"
   r="14.202437" /><rect
   x="348.22849"
   y="524.43066"
   width="42.14917"
   height="42.14917"
   rx="1.2644751"
   ry="1.2644751"
   fill="none"
   stroke="#000000"
   stroke-width="2.74886"
   pointer-events="none"
   id="rect1069" /><circle
   cx="369.30307"
   cy="545.50525"
   fill="#000000"
   stroke="#000000"
   stroke-width="2.74886"
   pointer-events="none"
   id="ellipse1071"
   r="14.202437" /><rect
   x="298.74902"
   y="524.43066"
   width="42.14917"
   height="42.14917"
   rx="1.2644751"
   ry="1.2644751"
   fill="none"
   stroke="#000000"
   stroke-width="2.74886"
   pointer-events="none"
   id="rect1073" /><circle
   cx="319.82361"
   cy="545.50525"
   fill="#000000"
   stroke="#000000"
   stroke-width="2.74886"
   pointer-events="none"
   id="ellipse1075"
   r="14.202437" /><rect
   x="236.44156"
   y="559.24951"
   width="53.144604"
   height="38.484024"
   rx="1.1545208"
   ry="1.1545208"
   fill="none"
   stroke="#000000"
   stroke-width="2.74886"
   pointer-events="none"
   id="rect1077"
   style="stroke-width:3;stroke-miterlimit:4;stroke-dasharray:none" /><rect
   x="434.35941"
   y="359.49911"
   width="166.7641"
   height="111.78693"
   rx="3.3536079"
   ry="3.3536079"
   fill="none"
   stroke="#000000"
   stroke-width="2.74886"
   pointer-events="none"
   id="rect1079"
   style="stroke-width:3;stroke-miterlimit:4;stroke-dasharray:none" /><rect
   x="438.02454"
   y="364.99683"
   width="117.28465"
   height="100.7915"
   rx="3.0237448"
   ry="3.0237448"
   fill="none"
   stroke="#000000"
   stroke-width="2.74886"
   pointer-events="none"
   id="rect1081" /><path
   d="m 568.13719,374.1597 h 18.32573 v 13.48774 h -15.02709 v 15.1737 h 15.02709 l -0.18326,21.91756 h -15.02709 l -0.18326,18.54564 h 15.39361 v 15.1737"
   fill="none"
   stroke="#000000"
   stroke-width="5.49772"
   stroke-miterlimit="10"
   pointer-events="none"
   id="path1083" /></svg>
