<svg height="960" viewBox="0 0 960 960" width="960" xmlns="http://www.w3.org/2000/svg"><path d="m493.026893 14.0012599c25.823721.0200546 43.528577.2630658 53.377523.7428569 14.78215.7201119 42.287753 3.457573 82.925779 8.2305968 40.29461 4.7310886 70.669805 38.8775151 70.669805 79.4497484v753.3473c0 38.289394-27.131195 71.210082-64.715042 78.525752-35.543431 6.918226-64.850691 11.442326-88.029137 13.565693-18.493625 1.694192-43.989138 2.857648-76.608416 3.510323-.715315.021513-1.43277.021513-2.150846.021513h-1.268543c-2.53516-.036929-5.058547-.154747-7.56615-.360371l-.876866-.077672-.039697.001424c-11.818874.245843-35.561425-4.634188-77.028047-15.067513l-.950256-.239911-52.909304-11.02982c-38.947607-8.119099-66.857696-42.447371-66.857696-82.232241v-733.045644c0-41.1376191 30.598861-75.8378142 71.367763-81.0120108l.149232-.0183701.934108-.1114235.149232-.0172327c9.569242-1.0686162 25.233101-2.9070089 46.961641-5.4981903.610787-.072843.610787-.072843 1.221506-.145698 5.96908-.7121234 12.147189-1.4512094 19.715762-2.3581027 2.237118-.2680594 14.316447-1.7161418 17.36282-2.0810051 12.630117-1.512706 17.826054-2.1283542 19.114005-2.2564217l.821719-.0817164.536569-.0533688c2.176591-.2165056 4.126926-.4106907 5.863241-.5837402l.850378-.084769c4.163284-.415093 7.001676-.6993226 8.706329-.8712023l.056695-.0050434.062977-.0071779.78535-.0725991c1.817065-.1401124 3.526038-.0845663 5.123894.1637681l.282779.0470089 1.094454-.0699614c1.975369-.1152869 3.958405-.1767668 5.947217-.18402 6.695215-.0245084 13.000407-.0413619 18.91582-.0413619zm-.905431 39.9993941h-5.087926c-5.861458 0-12.124912.0167371-18.779714.0410976-3.521049.0128413-7.000127.2934859-10.419585.8350233l-.346104.0517671c-2.190639.3084113-4.354483.2481119-6.425832-.1357624l.39673.0666794c-26.843535 2.3248894-46.674896 23.8370009-47.908141 50.95102-.033755.742153-.05064 1.484981-.05064 2.227906v753.501443c-.000894 21.021672 13.231075 38.961569 31.820796 45.861379 1.404382.291622 2.754379.567217 4.051577.825829 5.004426.997696 9.165765 1.73069 12.437144 2.197897 14.542441.137721 23.200377.213454 25.930853.226286 1.058901.004977 2.078587.174358 3.034988.483844 26.526063-.660239 47.497203-1.700327 62.831113-3.105059 21.659834-1.984247 49.70752-6.31391 84.035848-12.995627 18.791813-3.657813 32.357431-20.118182 32.357431-39.262799v-753.346107c0-20.2850631-15.187505-37.3581729-35.33504-39.7237441-39.751378-4.6688851-66.623053-7.3432553-80.206834-8.0049888-9.126479-.444596-26.659039-.6813398-52.336664-.6960841zm55.458305 751.999346c3.113854 0 5.638132 3.134007 5.638132 7s-2.524278 7-5.638132 7c-3.113855 0-5.638133-3.134007-5.638133-7s2.524278-7 5.638133-7zm14.764591-435.5c52.911425 0 95 50.50629 95 112s-42.088575 112-95 112-95-50.50629-95-112 42.088575-112 95-112zm0 20c-40.976982 0-75 40.827621-75 92s34.023018 92 75 92 75-40.827621 75-92-34.023018-92-75-92zm-107.409358-376.18.009855.1021204c.446846.0928942.872874.1815496 1.279443.2665121l.150702.0313675 1.06012-.1141779.14788-.0138221-.091886-.0110185c-.812868-.0954036-1.35007-.1577402-1.729822-.1975661l-.209903-.0212787c-.257201-.024995-.428766-.0369345-.575224-.0412231zm-117.531024 53.6929747-.018976.001682-.022.003-.581211.0789896c-20.273326 2.8801492-35.472138 20.1165961-35.777116 40.6180477l-.004673.628603v733.045642c0 20.839694 14.61957 38.821169 35.020698 43.074031l53.295074 11.110002c.270918.056476.540634.118569.808975.186239 1.204532.303758 2.394351.602737 3.569442.896936-6.466607-10.505279-10.194502-22.878736-10.193939-36.116744v-753.501018c0-1.045953.023772-2.091771.071296-3.136639.76812-16.887833 6.919686-32.2745198 16.894738-44.3142141-7.00737.8393744-12.478267 1.4947289-13.845254 1.6588802l-.12403.0145879-.086797.011038-.027203.002962-.057959.0070116-.010041.0009884-.12363.0151504c-.311295.0371348-.417034.0497453-.892856.1064924l-.945194.1126978c-21.337289 2.5436731-36.752707 4.3521183-46.313701 5.4198134l-.646619.0765027z"/></svg>