<?xml version="1.0" encoding="UTF-8" standalone="no"?>
<svg
   xmlns:dc="http://purl.org/dc/elements/1.1/"
   xmlns:cc="http://creativecommons.org/ns#"
   xmlns:rdf="http://www.w3.org/1999/02/22-rdf-syntax-ns#"
   xmlns:svg="http://www.w3.org/2000/svg"
   xmlns="http://www.w3.org/2000/svg"
   xmlns:sodipodi="http://sodipodi.sourceforge.net/DTD/sodipodi-0.dtd"
   xmlns:inkscape="http://www.inkscape.org/namespaces/inkscape"
   version="1.1"
   id="Layer_1"
   x="0px"
   y="0px"
   viewBox="0 0 667 666"
   style="enable-background:new 0 0 667 666;"
   xml:space="preserve"
   sodipodi:docname="icon.svg"
   inkscape:version="1.0 (4035a4fb49, 2020-05-01)"><metadata
   id="metadata319"><rdf:RDF><cc:Work
       rdf:about=""><dc:format>image/svg+xml</dc:format><dc:type
         rdf:resource="http://purl.org/dc/dcmitype/StillImage" /><dc:title /></cc:Work></rdf:RDF></metadata><defs
   id="defs317"><marker
     inkscape:stockid="Arrow1Send"
     orient="auto"
     refY="0"
     refX="0"
     id="Arrow1Send"
     style="overflow:visible"
     inkscape:isstock="true"><path
       inkscape:connector-curvature="0"
       id="path4714"
       d="M 0,0 5,-5 -12.5,0 5,5 Z"
       style="fill:#000000;fill-opacity:1;fill-rule:evenodd;stroke:#000000;stroke-width:1.00000003pt;stroke-opacity:1"
       transform="matrix(-0.2,0,0,-0.2,-1.2,0)" /></marker><clipPath
     id="clipPath69-0"><path
       inkscape:connector-curvature="0"
       id="path71-2"
       d="m 409.441,126.252 v -43.63 h 147.796 v 43.63" /></clipPath><clipPath
     id="clipPath101-1"><path
       inkscape:connector-curvature="0"
       id="path103-6"
       d="m 409.441,126.252 v -43.63 h 147.796 v 43.63" /></clipPath><clipPath
     id="clipPath69"><path
       inkscape:connector-curvature="0"
       id="path71"
       d="m 409.441,126.252 v -43.63 h 147.796 v 43.63" /></clipPath><clipPath
     id="clipPath101"><path
       inkscape:connector-curvature="0"
       id="path103"
       d="m 409.441,126.252 v -43.63 h 147.796 v 43.63" /></clipPath><pattern
     y="0"
     x="0"
     height="6"
     width="6"
     patternUnits="userSpaceOnUse"
     id="EMFhbasepattern" /></defs><sodipodi:namedview
   pagecolor="#ffffff"
   bordercolor="#666666"
   borderopacity="1"
   objecttolerance="10"
   gridtolerance="10"
   guidetolerance="10"
   inkscape:pageopacity="0"
   inkscape:pageshadow="2"
   inkscape:window-width="1680"
   inkscape:window-height="987"
   id="namedview315"
   showgrid="false"
   inkscape:zoom="0.35435437"
   inkscape:cx="81.712605"
   inkscape:cy="638.08995"
   inkscape:window-x="-8"
   inkscape:window-y="-8"
   inkscape:window-maximized="1"
   inkscape:current-layer="Layer_1"
   inkscape:document-rotation="0" />
<style
   type="text/css"
   id="style2">
	.st0{fill:none;stroke:#000000;stroke-width:2;stroke-linecap:round;stroke-linejoin:round;stroke-miterlimit:10;}
</style>


<path
   transform="matrix(0.75040434,-0.66097906,0.58798155,0.80887434,0,0)"
   d="m 290.30212,574.53079 a 129.9872,171.85078 0 0 1 -183.53677,-12.42288 129.9872,171.85078 0 0 1 9.29178,-242.65355 129.9872,171.85078 0 0 1 183.54739,12.14569 129.9872,171.85078 0 0 1 -9.08212,242.66742"
   sodipodi:arc-type="arc"
   sodipodi:open="true"
   sodipodi:end="0.83455187"
   sodipodi:start="0.83683651"
   sodipodi:ry="171.85078"
   sodipodi:rx="129.9872"
   sodipodi:cy="446.92679"
   sodipodi:cx="203.23473"
   sodipodi:type="arc"
   id="path874"
   style="fill:none;fill-rule:evenodd;stroke-width:6.01316428;stroke:#000000;stroke-opacity:1;stroke-miterlimit:4;stroke-dasharray:none" /><path
   d="M 555.58228,276.16455 A 223.02599,222.81082 0 0 1 455.89865,461.50911"
   sodipodi:arc-type="arc"
   sodipodi:open="true"
   sodipodi:end="0.98478841"
   sodipodi:start="0.0013078789"
   sodipodi:ry="222.81082"
   sodipodi:rx="223.02599"
   sodipodi:cy="275.87314"
   sodipodi:cx="332.55649"
   sodipodi:type="arc"
   id="path876"
   style="fill:none;fill-rule:evenodd;stroke:#000000;stroke-width:6;stroke-miterlimit:4;stroke-dasharray:none;stroke-opacity:1" /><path
   style="fill:none;fill-rule:evenodd;stroke:#000000;stroke-width:6;stroke-miterlimit:4;stroke-dasharray:none;stroke-opacity:1"
   id="path878"
   sodipodi:type="arc"
   sodipodi:cx="332.55649"
   sodipodi:cy="275.87314"
   sodipodi:rx="223.02599"
   sodipodi:ry="222.81082"
   sodipodi:start="2.0758276"
   sodipodi:end="5.0785742"
   sodipodi:open="true"
   sodipodi:arc-type="arc"
   d="M 224.64875,470.86811 A 223.02599,222.81082 0 0 1 130.35811,181.85546 223.02599,222.81082 0 0 1 412.41232,67.834665" /><path
   sodipodi:nodetypes="csc"
   id="path880"
   d="m 224.64875,470.86811 c 0,0 21.29785,17.90667 113.99531,16.28548 76.32551,-1.33486 117.25459,-25.64448 117.25459,-25.64448"
   style="fill:none;stroke:#000000;stroke-width:6;stroke-linecap:butt;stroke-linejoin:miter;stroke-miterlimit:4;stroke-dasharray:none;stroke-opacity:1" /><path
   sodipodi:nodetypes="csc"
   id="path882"
   d="m 148.15678,151.68432 c 0,0 -42.83253,109.45911 23.98728,215.88558 61.86939,98.54175 138.98517,119.23093 138.98517,119.23093"
   style="fill:none;stroke:#000000;stroke-width:3;stroke-linecap:butt;stroke-linejoin:miter;stroke-opacity:1;stroke-miterlimit:4;stroke-dasharray:none" /><path
   sodipodi:nodetypes="ccsaasssc"
   id="path884"
   d="m 174.9661,438.12075 c -7.89044,8.79823 -41.47216,34.74331 -32.70282,46.52077 7.40943,4.91784 39.75004,-9.28193 71.50578,11.33092 18.4137,11.95244 28.13906,35.08922 47.26907,45.85805 14.61342,8.22631 31.96362,11.36337 48.68008,12.69915 18.18819,1.45338 37.55772,1.57277 54.48799,-5.23078 28.76377,-11.55893 34.26489,-35.28925 76.03108,-51.20989 38.08307,-14.51669 54.87226,1.18545 79.01694,-4.23305 21.64203,-4.85686 -30.33686,-55.73517 -30.33686,-55.73517"
   style="fill:none;stroke:#000000;stroke-width:6;stroke-linecap:butt;stroke-linejoin:miter;stroke-opacity:1;stroke-miterlimit:4;stroke-dasharray:none" /><path
   sodipodi:nodetypes="cssaaassc"
   id="path886"
   d="m 140.89139,479.90226 -1.20072,52.75662 c -0.17553,7.71214 6.99891,15.35361 14.11017,18.34322 53.40108,22.45008 69.21132,40.96013 107.23729,52.91314 17.9267,5.63504 36.95215,7.90163 55.73517,8.4661 18.17452,0.54619 36.57597,-0.98716 54.32415,-4.93856 45.16582,-10.05558 57.90087,-21.57149 130.51906,-47.26907 9.8165,-3.47379 23.59634,-10.2341 23.44397,-20.646 l -0.74831,-51.13416"
   style="fill:none;stroke:#000000;stroke-width:6;stroke-linecap:butt;stroke-linejoin:miter;stroke-opacity:1;stroke-miterlimit:4;stroke-dasharray:none" /><path
   style="fill:none;fill-rule:evenodd;stroke:#000000;stroke-width:3.00658214;stroke-miterlimit:4;stroke-dasharray:none;stroke-opacity:1"
   id="path888"
   sodipodi:type="arc"
   sodipodi:cx="203.23471"
   sodipodi:cy="446.92679"
   sodipodi:rx="123.79877"
   sodipodi:ry="163.66933"
   sodipodi:start="0.83683651"
   sodipodi:end="0.83455187"
   sodipodi:open="true"
   sodipodi:arc-type="arc"
   d="m 286.157,568.45583 a 123.79877,163.66933 0 0 1 -174.79895,-11.83145 123.79877,163.66933 0 0 1 8.84942,-231.10132 123.79877,163.66933 0 0 1 174.80906,11.56746 123.79877,163.66933 0 0 1 -8.64973,231.11453"
   transform="matrix(0.75040434,-0.66097906,0.58798155,0.80887434,0,0)" /></svg>
