<svg width="351.5" height="351.5" xmlns="http://www.w3.org/2000/svg" version="1.1" xml:space="preserve">
 <g>
  <title>Layer 1</title>
  <g id="svg_3">
   <path d="m72.4,166.8l0,0l0,-0.1c0.5,-5.9 1.5,-11.6 3.1,-17.2l0.1,-0.3c0,-0.3 0.1,-0.6 0.2,-0.9l0.1,-0.3c0,-0.3 0.1,-0.6 0.2,-0.8l0.1,-0.4c0.1,-0.3 0.2,-0.6 0.3,-0.9l0,-0.1l0.1,-0.3c0.1,-0.2 0.1,-0.4 0.2,-0.6l0.1,-0.4l0.1,-0.3l0.1,-0.3l0.1,-0.3l0,-0.1l0.1,-0.3l0.1,-0.1c0.1,-0.2 0.1,-0.5 0.2,-0.8l0.1,-0.1l0.1,-0.3l0.2,-0.7l0.1,-0.3l0.1,-0.1c0.1,-0.3 0.2,-0.5 0.3,-0.8l0,-0.1l0.1,-0.3c0.1,-0.3 0.2,-0.5 0.3,-0.8l0.1,-0.3c0.2,-0.3 0.3,-0.6 0.4,-0.8l0,-0.1l0.1,-0.3l0.3,-0.7l0.2,-0.5l0.3,-0.6l0.2,-0.5c0.1,-0.3 0.2,-0.5 0.3,-0.8l0.2,-0.3c0.1,-0.2 0.2,-0.5 0.3,-0.8l0.2,-0.3l0.3,-0.7l0.2,-0.5c0.1,-0.2 0.2,-0.4 0.3,-0.6l0.3,-0.5c0.1,-0.2 0.2,-0.4 0.3,-0.7l0.2,-0.4c0.1,-0.2 0.2,-0.4 0.3,-0.7l0.1,0l0.1,-0.3l0.1,-0.1l0.3,-0.6l0.2,-0.4c0.1,-0.2 0.3,-0.5 0.4,-0.7l0.2,-0.5l0.4,-0.5l0.3,-0.6c0.1,-0.1 0.2,-0.3 0.3,-0.5l0.2,-0.5c0.2,-0.2 0.3,-0.4 0.4,-0.6l1.3,-2.2l0,0.1c4.2,-6.6 9,-12.6 14.5,-18.1c18.8,-18.8 44.6,-30.3 73.2,-30.3c28.5,0 54.4,11.5 73.2,30.3s30.3,44.6 30.3,73.2s-11.5,54.4 -30.3,73.2s-44.6,30.4 -73.2,30.4c-28.5,0 -54.4,-11.6 -73.2,-30.4c-5.5,-5.5 -10.3,-11.5 -14.5,-18.1l0,0.1l-1.3,-2.2c-0.1,-0.2 -0.2,-0.4 -0.4,-0.6l0,-0.1l-0.2,-0.3c-0.1,-0.3 -0.3,-0.5 -0.4,-0.8l-0.1,-0.1l-0.2,-0.3l-0.3,-0.5l-0.2,-0.4c-0.1,-0.3 -0.3,-0.5 -0.4,-0.7l0,-0.1l-0.2,-0.3c-0.1,-0.3 -0.3,-0.6 -0.4,-0.9l-0.1,0c-4.8,-9.3 -8.3,-19.4 -10.1,-30l0,-0.3c-0.1,-0.3 -0.1,-0.6 -0.2,-0.9l0,-0.1l0,-0.3l-0.1,-0.7l-0.1,-0.3l0,-0.1c0,-0.3 -0.1,-0.6 -0.1,-0.9l0,-0.1l-0.1,-0.3c0,-0.3 0,-0.6 -0.1,-0.9l0,-0.1l0,-0.4c-0.1,-0.3 -0.1,-0.6 -0.1,-0.9l-0.1,-0.1l0,-0.6l0,-0.2c-0.4,-3.5 -0.5,-6.8 -0.5,-10.4c0.1,-3.9 0.2,-7 0.4,-9.9m14,-1.5l0,-39.1c-6.5,11.8 -10.8,25 -12.2,39.1l12.2,0zm178.3,-39.1l0,39.1l12.3,0c-0.7,-7.3 -2.2,-14.4 -4.5,-21.2c-2,-6.2 -4.7,-12.2 -7.8,-17.9zm12.2,61.4l-12.2,0l0,37.6c3.1,-5.4 5.6,-11.2 7.6,-17.2c2.2,-6.5 3.8,-13.3 4.6,-20.4zm-13,-1.5l13.1,0c0.3,-3.5 0.5,-6.8 0.5,-10.4c0,-3 -0.2,-6 -0.4,-9l-13.2,0l-0.7,0l0,-0.7l0,-42.5c-4.4,-7.3 -9.6,-14 -15.5,-19.9c-18.5,-18.5 -44,-30 -72.2,-30c-28.1,0 -53.7,11.4 -72.2,30c-5.9,5.9 -11.1,12.6 -15.5,19.9l0,42.5l0,0.7l-0.7,0l-13.1,0c-0.2,3 -0.4,6 -0.4,9c0,3.6 0.2,6.9 0.5,10.4l13.1,0l0.7,0l0,0.7l0,41.1c4.4,7.2 9.6,14 15.5,20c18.4,18.4 44,29.9 72.2,29.9c28.1,0 53.6,-11.4 72.2,-29.9c5.9,-6 11.1,-12.6 15.5,-19.9l0,-41.2l0,-0.7l0.6,0l0,0zm-177.5,1.5l-12.1,0c1.5,13.6 5.8,26.3 12.1,37.6l0,-37.6l0,0z" id="svg_4"/>
  </g>
  <g id="svg_5">
   <path d="m138.1,175.7c0,-8.2 -6.6,-14.8 -14.8,-14.8s-14.8,6.6 -14.8,14.8s6.6,14.8 14.8,14.8s14.8,-6.6 14.8,-14.8" id="svg_6"/>
  </g>
  <g id="svg_7">
   <path d="m242.6,175.7c0,-8.2 -6.6,-14.8 -14.8,-14.8s-14.8,6.6 -14.8,14.8s6.6,14.8 14.8,14.8s14.8,-6.6 14.8,-14.8" id="svg_8"/>
  </g>
  <g id="svg_9">
   <path d="m175.6,289.1c-62.5,0 -113.4,-50.9 -113.4,-113.4s50.9,-113.4 113.4,-113.4s113.4,50.9 113.4,113.4s-50.9,113.4 -113.4,113.4zm0,-222.5c-60.2,0 -109.1,48.9 -109.1,109.1s49,109.1 109.1,109.1c60.2,0 109.1,-49 109.1,-109.1c0,-60.2 -48.9,-109.1 -109.1,-109.1z" id="svg_10"/>
  </g>
  <g id="svg_11">
   <path d="m175.6,320.5c-82.4,0 -149.5,-65 -149.5,-144.8s67.1,-144.8 149.5,-144.8s149.5,65 149.5,144.8s-67.1,144.8 -149.5,144.8zm0,-287.5c-81.3,0 -147.4,64 -147.4,142.7s66.1,142.7 147.4,142.7s147.4,-64 147.4,-142.7s-66.1,-142.7 -147.4,-142.7z" id="svg_12"/>
  </g>
  <ellipse cx="329.25" cy="27.75" id="svg_31" rx="6.5" ry="6.5"/>
  <path stroke="#000000" stroke-width="2" id="svg_32" d="m8.75,8.25l331,0l0,328l-331,0l0,-328z" fill="none"/>
 </g>

</svg>