<?xml version="1.0" standalone="no"?>
<!DOCTYPE svg PUBLIC "-//W3C//DTD SVG 20010904//EN"
 "http://www.w3.org/TR/2001/REC-SVG-20010904/DTD/svg10.dtd">
<svg version="1.0" xmlns="http://www.w3.org/2000/svg"
 width="512.000000pt" height="512.000000pt" viewBox="0 0 512.000000 512.000000"
 preserveAspectRatio="xMidYMid meet">

<g transform="translate(0.000000,512.000000) scale(0.100000,-0.100000)"
fill="#000000" stroke="none">
<path d="M105 5015 l-25 -24 0 -2431 0 -2431 25 -24 24 -25 471 0 471 0 24 25
25 24 0 2431 0 2431 -25 24 -24 25 -471 0 -471 0 -24 -25z m855 -2455 l0
-2320 -360 0 -360 0 0 220 0 220 85 0 c46 0 95 5 109 11 55 26 55 112 0 138
-14 6 -63 11 -109 11 l-85 0 0 220 0 220 140 0 c136 0 142 1 165 25 16 15 25
36 25 55 0 19 -9 40 -25 55 -23 24 -29 25 -165 25 l-140 0 0 220 0 220 85 0
c46 0 95 5 109 11 55 26 55 112 0 138 -14 6 -63 11 -109 11 l-85 0 0 220 0
220 140 0 c136 0 142 1 165 25 33 32 33 78 0 110 -23 24 -29 25 -165 25 l-140
0 0 220 0 220 85 0 c46 0 95 5 109 11 55 26 55 112 0 138 -14 6 -63 11 -109
11 l-85 0 0 220 0 220 140 0 c136 0 142 1 165 25 33 32 33 78 0 110 -23 24
-29 25 -165 25 l-140 0 0 220 0 220 85 0 c46 0 95 5 109 11 55 26 55 112 0
138 -14 6 -63 11 -109 11 l-85 0 0 220 0 220 360 0 360 0 0 -2320z"/>
<path d="M2950 4820 c-474 -127 -735 -630 -555 -1071 14 -35 25 -64 25 -66 0
-2 -236 -3 -525 -3 -507 0 -526 -1 -544 -19 -11 -11 -23 -35 -26 -53 -3 -18
-4 -674 -3 -1456 l3 -1424 28 -24 28 -24 1445 0 1445 0 24 25 25 24 0 1451 0
1451 -25 24 c-24 25 -25 25 -220 25 -107 0 -195 1 -195 3 0 2 11 31 25 66 40
97 57 187 56 296 -2 347 -236 658 -576 765 -104 33 -330 38 -435 10z m355
-155 c33 -8 98 -34 145 -57 160 -78 295 -249 336 -424 66 -288 -54 -537 -519
-1076 -61 -71 -113 -128 -117 -128 -4 0 -59 60 -122 133 -389 450 -530 694
-530 922 0 175 64 327 192 456 82 82 198 149 302 174 74 18 241 18 313 0z
m-1450 -1505 c-198 -198 -363 -360 -367 -360 -5 0 -8 162 -8 360 l0 360 367 0
368 0 -360 -360z m714 273 c33 -49 98 -136 144 -194 l85 -106 -111 -22 c-197
-39 -317 -93 -375 -169 -22 -29 -27 -46 -27 -92 0 -46 5 -63 27 -92 59 -77
206 -139 424 -180 105 -19 153 -22 414 -22 260 0 309 3 413 22 311 57 465 154
454 283 -2 27 -13 60 -26 78 -54 75 -203 141 -400 177 l-91 16 26 32 c81 100
173 220 216 284 l49 72 184 0 185 0 0 -603 0 -602 -464 -464 -464 -464 -110
134 c-61 74 -358 435 -661 804 l-550 670 262 263 c248 248 264 262 299 262 35
0 40 -4 97 -87z m450 -553 c122 -143 140 -143 266 5 92 108 91 107 243 80 180
-31 317 -81 317 -115 0 -21 -95 -65 -190 -89 -154 -38 -242 -46 -505 -46 -263
0 -351 8 -505 46 -96 24 -190 68 -190 89 0 43 281 127 430 128 l50 1 84 -99z
m-374 -1030 c444 -542 812 -991 818 -998 7 -9 -191 -12 -987 -12 l-996 0 0
862 0 863 157 157 158 158 21 -23 c12 -12 385 -465 829 -1007z m1515 -385 l0
-625 -239 0 -240 0 -160 195 c-89 107 -167 204 -173 215 -12 18 21 54 397 430
225 226 411 410 412 410 2 0 3 -281 3 -625z"/>
<path d="M3006 4565 c-185 -51 -337 -201 -391 -388 -10 -34 -16 -93 -16 -147
0 -156 51 -280 161 -390 110 -110 236 -162 390 -162 154 0 280 52 390 162 110
110 160 232 160 388 0 159 -50 282 -161 393 -70 71 -170 128 -259 148 -62 14
-215 12 -274 -4z m315 -182 c80 -39 150 -111 187 -191 24 -50 27 -69 27 -162
0 -93 -3 -112 -27 -162 -75 -160 -249 -254 -419 -227 -256 41 -404 317 -296
552 43 94 114 161 216 204 48 20 70 23 151 21 84 -3 103 -7 161 -35z"/>
<path d="M4754 3590 c-19 -7 -70 -68 -187 -223 -44 -58 -48 -97 -12 -132 32
-33 67 -31 110 6 l35 31 0 -1137 0 -1138 -21 27 c-12 15 -32 31 -45 36 -29 11
-81 -5 -94 -30 -24 -45 -12 -73 88 -200 53 -68 109 -131 123 -139 42 -23 73
-7 132 67 170 215 177 228 134 278 -34 39 -78 37 -122 -6 l-35 -34 0 1144 0
1144 34 -37 c41 -45 84 -50 121 -12 44 43 35 70 -70 206 -88 114 -134 160
-160 158 -5 0 -19 -4 -31 -9z"/>
<path d="M1533 538 c-212 -161 -228 -180 -201 -233 7 -13 71 -69 141 -125 142
-110 168 -120 212 -75 38 37 33 80 -12 121 l-37 34 1244 0 1244 0 -34 -35
c-43 -44 -45 -88 -6 -122 50 -43 64 -36 253 114 100 80 117 107 92 152 -8 14
-71 70 -139 124 -127 99 -155 111 -200 87 -25 -13 -41 -65 -30 -94 5 -13 21
-33 36 -45 l27 -21 -1238 0 -1237 0 31 35 c37 43 39 78 6 110 -38 39 -74 33
-152 -27z"/>
</g>
</svg>
