<?xml version="1.0" encoding="UTF-8" standalone="no"?>
<svg
   version="1.1"
   id="Layer_1"
   x="0px"
   y="0px"
   viewBox="0 0 667 666"
   style="enable-background:new 0 0 667 666;"
   xml:space="preserve"
   sodipodi:docname="icon.svg"
   inkscape:version="1.1 (c68e22c387, 2021-05-23)"
   xmlns:inkscape="http://www.inkscape.org/namespaces/inkscape"
   xmlns:sodipodi="http://sodipodi.sourceforge.net/DTD/sodipodi-0.dtd"
   xmlns="http://www.w3.org/2000/svg"
   xmlns:svg="http://www.w3.org/2000/svg"
   xmlns:rdf="http://www.w3.org/1999/02/22-rdf-syntax-ns#"
   xmlns:cc="http://creativecommons.org/ns#"
   xmlns:dc="http://purl.org/dc/elements/1.1/"><metadata
   id="metadata319"><rdf:RDF><cc:Work
       rdf:about=""><dc:format>image/svg+xml</dc:format><dc:type
         rdf:resource="http://purl.org/dc/dcmitype/StillImage" /></cc:Work></rdf:RDF></metadata><defs
   id="defs317"><marker
     inkscape:stockid="Arrow1Send"
     orient="auto"
     refY="0"
     refX="0"
     id="Arrow1Send"
     style="overflow:visible"
     inkscape:isstock="true"><path
       inkscape:connector-curvature="0"
       id="path4714"
       d="M 0,0 5,-5 -12.5,0 5,5 Z"
       style="fill:#000000;fill-opacity:1;fill-rule:evenodd;stroke:#000000;stroke-width:1.00000003pt;stroke-opacity:1"
       transform="matrix(-0.2,0,0,-0.2,-1.2,0)" /></marker><clipPath
     id="clipPath69-0"><path
       inkscape:connector-curvature="0"
       id="path71-2"
       d="m 409.441,126.252 v -43.63 h 147.796 v 43.63" /></clipPath><clipPath
     id="clipPath101-1"><path
       inkscape:connector-curvature="0"
       id="path103-6"
       d="m 409.441,126.252 v -43.63 h 147.796 v 43.63" /></clipPath><clipPath
     id="clipPath69"><path
       inkscape:connector-curvature="0"
       id="path71"
       d="m 409.441,126.252 v -43.63 h 147.796 v 43.63" /></clipPath><clipPath
     id="clipPath101"><path
       inkscape:connector-curvature="0"
       id="path103"
       d="m 409.441,126.252 v -43.63 h 147.796 v 43.63" /></clipPath></defs><sodipodi:namedview
   pagecolor="#ffffff"
   bordercolor="#666666"
   borderopacity="1"
   objecttolerance="10"
   gridtolerance="10"
   guidetolerance="10"
   inkscape:pageopacity="0"
   inkscape:pageshadow="2"
   inkscape:window-width="1680"
   inkscape:window-height="987"
   id="namedview315"
   showgrid="false"
   inkscape:zoom="1.0022655"
   inkscape:cx="379.63993"
   inkscape:cy="321.77103"
   inkscape:window-x="1672"
   inkscape:window-y="-8"
   inkscape:window-maximized="1"
   inkscape:current-layer="Layer_1"
   inkscape:document-rotation="0"
   inkscape:pagecheckerboard="0" />
<style
   type="text/css"
   id="style2">
	.st0{fill:none;stroke:#000000;stroke-width:2;stroke-linecap:round;stroke-linejoin:round;stroke-miterlimit:10;}
</style>


<path
   style="fill:none;stroke:#000000;stroke-width:3;stroke-linecap:butt;stroke-linejoin:miter;stroke-opacity:1;stroke-miterlimit:4;stroke-dasharray:none"
   d="M 57.851693,307.33712 C 60.782451,286.08101 85.7139,274.2119 103.70974,262.8019 c 19.20107,-12.17417 60.19209,-30.42725 63.84852,-23.98729 69.42798,122.28134 0,0 68.08156,117.46716 2.20302,3.80106 0.65669,11.35992 -3.52754,12.69915 -27.46537,8.79075 -43.78238,16.32303 -63.49576,28.57309 -18.37573,11.41884 -40.48579,21.88681 -50.0911,41.27225 -2.71667,5.48279 2.1867,23.73547 -0.70551,18.34322 L 97.007412,418.36651 98.771183,407.07838 77.60593,362.27859 77.253176,375.68325 58.557201,336.26297 c -2.721506,-5.73827 -2.274843,-17.54383 -0.705508,-28.92585 z"
   id="path982"
   sodipodi:nodetypes="sasssaasccccss" /><path
   style="fill:none;stroke:#000000;stroke-width:3;stroke-linecap:butt;stroke-linejoin:miter;stroke-opacity:1;stroke-miterlimit:4;stroke-dasharray:none"
   d="m 160.50317,237.40359 c 0,0 2.22847,-4.78443 4.48249,-7.15473 2.69326,-2.8322 9.24282,-7.81088 10.33319,-5.89717 l 69.13983,121.34745 c 4.14767,7.27958 4.08381,14.69994 2.11652,25.04555 -0.93601,4.9223 -3.14284,10.03079 -6.76652,13.42239 0,0 -1.68753,-10.02795 -2.82204,-11.99364 -1.07988,-1.87106 -3.8161,-3.89803 -3.8161,-3.89803"
   id="path2978"
   sodipodi:nodetypes="cssssssc" /><path
   style="fill:none;stroke:#000000;stroke-width:3;stroke-linecap:butt;stroke-linejoin:miter;stroke-opacity:1;stroke-miterlimit:4;stroke-dasharray:none"
   d="m 59.116073,337.9843 c 0,0 -2.195662,10.95865 0,15.7144 60.113807,130.20502 0,0 60.113807,130.20502 4.11206,8.90663 18.25842,12.68547 27.68728,9.97739 118.98045,-34.17258 -0.14596,-0.51234 118.98045,-34.17258 327.50803,-92.54035 0,0 327.50803,-92.54035 5.80571,-1.64046 7.10526,-8.06664 8.27415,-14.65614 6.69194,-37.72519 -0.52059,-0.0961 6.69194,-37.72519 0.99163,-5.17354 -11.75248,-7.05384 -18.36005,-8.06231 -23.14276,-3.53215 -40.2828,-4.7954 -69.80113,7.77008 0,0 0.1249,-11.60283 -3.13199,-15.92104 C 416.80573,165.62478 416.80573,165.62478 416.80573,165.62478 L 174.355,223.49368"
   id="path4818"
   sodipodi:nodetypes="csssssssasscc" /><path
   style="fill:none;stroke:#000000;stroke-width:3;stroke-linecap:butt;stroke-linejoin:miter;stroke-opacity:1;stroke-miterlimit:4;stroke-dasharray:none"
   d="M 247.63347,355.92901 510.08261,289.96397"
   id="path6848" /><path
   style="fill:none;stroke:#000000;stroke-width:3;stroke-linecap:butt;stroke-linejoin:miter;stroke-opacity:1;stroke-miterlimit:4;stroke-dasharray:none"
   d="m 239.80868,384.16708 -57.08199,25.02782 c -20.90861,9.16746 -43.77154,26.70431 -43.03602,46.56356 l 1.41102,38.09746"
   id="path6850"
   sodipodi:nodetypes="cssc" /><path
   style="fill:none;stroke:#000000;stroke-width:3;stroke-linecap:butt;stroke-linejoin:miter;stroke-opacity:1;stroke-miterlimit:4;stroke-dasharray:none"
   d="m 608.1223,313.53968 c 0,0 -1.06027,-7.40155 -2.99322,-10.47627 -1.59859,-2.54285 -4.31369,-4.90518 -6.73474,-5.98644 -9.12387,-4.07477 -28.72774,-4.76898 -43.15224,-3.99096 -12.53749,0.67624 -36.91637,7.48305 -36.91637,7.48305"
   id="path7664"
   sodipodi:nodetypes="casac" /><path
   style="fill:none;stroke:#000000;stroke-width:3;stroke-linecap:butt;stroke-linejoin:miter;stroke-opacity:1;stroke-miterlimit:4;stroke-dasharray:none"
   d="m 602.88417,299.82076 c 0,0 0,0 -82.31352,-104.51323 -7.09449,-9.00785 -18.31609,-14.55307 -29.18389,-18.20875 -14.71901,-4.95114 -30.87444,-4.76823 -46.39489,-4.24039 -6.81699,0.23184 -20.20423,3.24265 -20.20423,3.24265"
   id="path7832"
   sodipodi:nodetypes="csaac" /><path
   style="fill:none;stroke:#000000;stroke-width:3;stroke-linecap:butt;stroke-linejoin:miter;stroke-opacity:1;stroke-miterlimit:4;stroke-dasharray:none"
   d="m 523.8133,209.02645 c 2.70208,-7.69437 -21.89016,-25.99316 -30.30634,-17.8346 -3.23272,3.13376 3.11238,8.86582 6.4853,11.84816 4.72498,4.17783 11.31597,6.29367 17.58516,6.98418 2.09241,0.23047 5.47727,1.16246 6.23588,-0.99774 z"
   id="path8000"
   sodipodi:nodetypes="saaas" /><path
   style="fill:none;stroke:#000000;stroke-width:3;stroke-linecap:butt;stroke-linejoin:miter;stroke-opacity:1;stroke-miterlimit:4;stroke-dasharray:none"
   d="m 541.89733,252.80227 c -2.53241,1.81559 0.36317,6.531 2.1202,9.10438 2.89995,4.24732 7.94525,6.82235 12.72118,8.73022 5.86456,2.34276 18.62509,5.11086 18.70761,2.99322 0.42962,-11.02543 -22.85142,-28.49732 -33.54899,-20.82782 z"
   id="path8002"
   sodipodi:nodetypes="aaasa" /><path
   style="fill:none;stroke:#000000;stroke-width:3;stroke-linecap:butt;stroke-linejoin:miter;stroke-opacity:1;stroke-miterlimit:4;stroke-dasharray:none"
   d="m 119.72875,294.33319 c -6.74716,-6.42898 -20.364461,0.87761 -26.938965,7.48305 -6.018846,6.04717 -12.578073,18.47712 -6.734743,24.69405 6.455024,6.86774 20.961848,0.86617 27.687278,-5.737 6.44807,-6.33085 12.52855,-20.20648 5.98643,-26.4401 z"
   id="path9295"
   sodipodi:nodetypes="aaaaa" /><path
   style="fill:none;stroke:#000000;stroke-width:3;stroke-linecap:butt;stroke-linejoin:miter;stroke-opacity:1;stroke-miterlimit:4;stroke-dasharray:none"
   d="m 160.13721,371.65801 c -5.64839,-7.15721 -19.99316,-2.60663 -27.18841,2.99322 -7.49534,5.83341 -15.83675,19.21446 -9.97739,26.68953 5.73249,7.31321 20.413,2.53917 27.68727,-3.24265 7.32939,-5.82563 15.27871,-19.09055 9.47853,-26.4401 z"
   id="path9297"
   sodipodi:nodetypes="aaaaa" /><path
   style="fill:none;stroke:#000000;stroke-width:3;stroke-linecap:butt;stroke-linejoin:miter;stroke-opacity:1;stroke-miterlimit:4;stroke-dasharray:none"
   d="m 92.04148,329.25408 c 0,0 2.482917,-5.95573 7.98192,-8.23136 5.53885,-2.29212 12.97061,0.24944 12.97061,0.24944"
   id="path9427"
   sodipodi:nodetypes="csc" /><path
   style="fill:none;stroke:#000000;stroke-width:3;stroke-linecap:butt;stroke-linejoin:miter;stroke-opacity:1;stroke-miterlimit:4;stroke-dasharray:none"
   d="m 129.70615,404.58342 c 0,0 1.18954,-5.9448 7.23362,-9.47853 5.99312,-3.50394 15.41999,0.86533 15.21552,0.99774"
   id="path9429"
   sodipodi:nodetypes="csc" /><path
   style="fill:none;stroke:#000000;stroke-width:3;stroke-linecap:butt;stroke-linejoin:miter;stroke-opacity:1;stroke-miterlimit:4;stroke-dasharray:none"
   d="m 196.05584,227.48463 216.50949,-51.38359 75.32935,101.76944 -228.98125,56.37229 z"
   id="path10129" /><path
   style="fill:none;stroke:#000000;stroke-width:3;stroke-linecap:butt;stroke-linejoin:miter;stroke-opacity:1;stroke-miterlimit:4;stroke-dasharray:none"
   d="m 217.00837,255.42134 21.4514,-5.98643 29.43332,47.8915 -21.95027,5.48756"
   id="path10131"
   sodipodi:nodetypes="cccc" /><path
   style="fill:none;stroke:#000000;stroke-width:3;stroke-linecap:butt;stroke-linejoin:miter;stroke-opacity:1;stroke-miterlimit:4;stroke-dasharray:none"
   d="m 425.53595,206.5321 -22.44914,4.9887 31.92767,46.39489 22.94801,-6.98418"
   id="path10185" /><path
   style="fill:none;stroke:#000000;stroke-width:3;stroke-linecap:butt;stroke-linejoin:miter;stroke-opacity:1;stroke-miterlimit:4;stroke-dasharray:none"
   d="m 417.55403,192.56375 -34.92088,8.48078"
   id="path10187" /><path
   style="fill:none;stroke:#000000;stroke-width:3;stroke-linecap:butt;stroke-linejoin:miter;stroke-opacity:1;stroke-miterlimit:4;stroke-dasharray:none"
   d="m 419.54951,198.05131 -22.94801,4.9887"
   id="path10189" /><path
   style="fill:none;stroke:#000000;stroke-width:3;stroke-linecap:butt;stroke-linejoin:miter;stroke-opacity:1;stroke-miterlimit:4;stroke-dasharray:none"
   d="m 230.97672,235.46655 -22.44914,5.48757"
   id="path10191" /><path
   style="fill:none;stroke:#000000;stroke-width:3;stroke-linecap:butt;stroke-linejoin:miter;stroke-opacity:1;stroke-miterlimit:4;stroke-dasharray:none"
   d="m 211.5208,245.44395 35.41976,-7.98192"
   id="path10193" /><path
   style="fill:#000000;fill-rule:evenodd;fill-opacity:1;stroke-width:3;stroke-miterlimit:4;stroke-dasharray:none"
   id="path10217"
   sodipodi:type="arc"
   sodipodi:cx="390.36563"
   sodipodi:cy="284.10635"
   sodipodi:rx="10.725701"
   sodipodi:ry="6.7347426"
   sodipodi:start="2.4065996"
   sodipodi:end="2.4059364"
   sodipodi:open="true"
   sodipodi:arc-type="arc"
   d="m 382.40893,288.62255 a 10.725701,6.7347426 0 0 1 0.76292,-9.51152 10.725701,6.7347426 0 0 1 15.1481,0.47747 10.725701,6.7347426 0 0 1 -0.7579,9.51168 10.725701,6.7347426 0 0 1 -15.14835,-0.47432" /><text
   xml:space="preserve"
   style="font-style:normal;font-weight:normal;font-size:14.2231px;line-height:1.25;font-family:sans-serif;letter-spacing:0px;word-spacing:0px;fill:#000000;fill-opacity:1;stroke:none;stroke-width:0.355579"
   x="66.397308"
   y="347.1261"
   id="text11136"
   transform="rotate(-29.687457)"><tspan
     sodipodi:role="line"
     id="tspan11134"
     x="66.397308"
     y="347.1261"
     style="stroke-width:0.355579">L</tspan><tspan
     sodipodi:role="line"
     x="66.397308"
     y="364.90497"
     id="tspan11138"
     style="stroke-width:0.355579" /><tspan
     sodipodi:role="line"
     x="66.397308"
     y="382.68384"
     id="tspan11140"
     style="stroke-width:0.355579">N</tspan></text><text
   xml:space="preserve"
   style="font-style:normal;font-weight:normal;font-size:14.2231px;line-height:1.25;font-family:sans-serif;letter-spacing:0px;word-spacing:0px;fill:#000000;fill-opacity:1;stroke:none;stroke-width:0.355579"
   x="253.13519"
   y="401.32901"
   id="text11668"
   transform="rotate(-29.687457)"><tspan
     sodipodi:role="line"
     id="tspan11662"
     x="253.13519"
     y="401.32901"
     style="stroke-width:0.355579">L</tspan><tspan
     sodipodi:role="line"
     x="253.13519"
     y="419.10788"
     id="tspan11664"
     style="stroke-width:0.355579" /><tspan
     sodipodi:role="line"
     x="253.13519"
     y="436.88675"
     id="tspan11666"
     style="stroke-width:0.355579">N</tspan></text><text
   xml:space="preserve"
   style="font-style:normal;font-weight:normal;font-size:16.1629px;line-height:1.25;font-family:sans-serif;letter-spacing:0px;word-spacing:0px;fill:#000000;fill-opacity:1;stroke:none;stroke-width:0.404072"
   x="188.58875"
   y="296.93378"
   id="text12728"
   transform="rotate(-14.238417)"><tspan
     sodipodi:role="line"
     id="tspan12726"
     x="188.58875"
     y="296.93378"
     style="stroke-width:0.404072">SMART SWITCH</tspan></text><path
   style="fill:none;stroke:#000000;stroke-width:3;stroke-linecap:butt;stroke-linejoin:miter;stroke-opacity:1;stroke-miterlimit:4;stroke-dasharray:none"
   d="m 193.56149,479.91276 147.16659,-41.4062"
   id="path14282" /><path
   style="fill:none;stroke:#000000;stroke-width:3;stroke-linecap:butt;stroke-linejoin:miter;stroke-opacity:1;stroke-miterlimit:4;stroke-dasharray:none"
   d="m 608.1223,313.53968 -7.73248,45.64658"
   id="path14397" /><path
   style="fill:none;stroke:#000000;stroke-width:3;stroke-linecap:butt;stroke-linejoin:miter;stroke-opacity:1;stroke-miterlimit:4;stroke-dasharray:none"
   d="m 76.576516,374.52651 20.430896,43.84"
   id="path14512" /></svg>
