<?xml version="1.0" standalone="no"?>
<!DOCTYPE svg PUBLIC "-//W3C//DTD SVG 20010904//EN"
 "http://www.w3.org/TR/2001/REC-SVG-20010904/DTD/svg10.dtd">
<svg version="1.0" xmlns="http://www.w3.org/2000/svg"
 width="500.000000pt" height="500.000000pt" viewBox="0 0 500.000000 500.000000"
 preserveAspectRatio="xMidYMid meet">

<g transform="translate(0.000000,500.000000) scale(0.100000,-0.100000)"
fill="#000000" stroke="none">
<path d="M2230 4530 c-626 -56 -1192 -293 -1546 -648 -248 -247 -376 -510
-402 -822 -7 -89 46 -1291 58 -1300 3 -3 21 -45 39 -95 144 -388 423 -730 781
-960 103 -66 334 -177 460 -220 495 -170 1102 -179 1639 -24 233 67 512 191
686 306 306 202 544 486 646 773 12 36 26 67 29 70 4 3 26 302 51 665 48 716
49 805 9 970 -178 752 -1117 1302 -2205 1294 -88 -1 -198 -5 -245 -9z m655
-35 c1084 -145 1836 -792 1802 -1550 -22 -477 -356 -910 -918 -1189 -758 -377
-1766 -381 -2524 -12 -82 41 -181 94 -218 118 l-69 45 55 -5 c51 -4 57 -2 95
32 51 47 69 88 55 127 -6 16 -9 29 -6 29 3 0 31 -16 63 -35 223 -136 550 -252
840 -299 254 -41 604 -46 838 -11 492 72 925 265 1209 539 212 203 326 404
368 645 88 499 -235 996 -835 1285 -226 108 -445 174 -725 218 -188 29 -587
32 -770 5 -285 -42 -541 -118 -761 -226 -208 -102 -336 -192 -485 -340 -125
-126 -187 -208 -249 -331 -188 -372 -129 -798 156 -1137 24 -28 44 -53 44 -56
0 -2 -13 -7 -30 -10 -34 -7 -105 -68 -126 -108 -20 -40 -18 -61 12 -105 l26
-39 -32 30 c-45 43 -149 169 -197 240 -193 288 -249 624 -157 943 186 642 943
1127 1889 1212 142 12 508 4 650 -15z m-180 -85 c425 -40 781 -196 1041 -455
122 -122 194 -227 231 -338 23 -71 27 -98 26 -202 0 -171 -38 -292 -135 -432
-192 -280 -607 -499 -1068 -564 -124 -17 -476 -17 -600 0 -602 85 -1078 410
-1186 812 -26 98 -25 274 4 364 32 103 126 241 246 360 345 344 867 509 1441
455z m382 -30 c698 -147 1224 -558 1354 -1057 29 -111 35 -275 15 -389 -39
-226 -151 -429 -338 -615 -289 -288 -729 -485 -1238 -556 -155 -21 -535 -24
-690 -5 -824 102 -1454 536 -1602 1105 -31 118 -31 338 0 453 57 213 158 379
334 550 202 196 425 330 723 432 102 35 295 86 301 79 3 -2 -17 -10 -43 -16
-75 -19 -271 -99 -358 -146 -103 -56 -207 -129 -284 -200 -33 -32 -61 -54 -61
-50 0 4 -7 2 -15 -5 -8 -7 -13 -16 -10 -20 3 -4 -5 -20 -17 -35 -18 -23 -22
-25 -30 -11 -12 21 -39 21 -32 1 5 -12 2 -14 -12 -8 -17 6 -17 5 -5 -10 7 -9
20 -17 28 -17 12 0 10 -7 -7 -32 -12 -18 -40 -70 -62 -115 -24 -49 -47 -83
-55 -83 -12 0 -13 -3 -4 -13 14 -18 2 -30 -16 -16 -9 8 -13 8 -13 1 0 -6 5
-14 10 -17 17 -10 12 -38 -6 -31 -12 5 -14 1 -9 -15 6 -18 4 -20 -14 -14 -25
8 -27 -2 -6 -25 13 -14 13 -25 0 -86 -18 -88 -36 -251 -29 -268 3 -7 -2 -19
-11 -26 -17 -14 -20 -46 -5 -55 6 -4 4 -15 -6 -30 -14 -21 -14 -25 6 -43 18
-17 19 -20 5 -32 -19 -16 -19 -29 1 -51 13 -14 13 -21 3 -37 -11 -18 -10 -24
4 -40 10 -11 15 -26 11 -36 -7 -19 12 -46 32 -46 23 0 36 36 19 54 -16 16 -20
46 -7 46 5 0 21 -31 36 -68 56 -144 195 -332 330 -446 35 -31 75 -65 88 -77
19 -17 78 -54 203 -126 52 -31 221 -98 320 -128 319 -97 687 -111 1015 -38
219 48 445 144 625 266 166 113 373 345 439 494 15 34 23 41 44 40 31 -2 43
30 19 48 -15 10 -14 18 4 78 11 37 23 67 27 67 4 0 6 22 5 49 -2 27 0 58 5 70
12 34 -5 262 -28 357 -27 111 -135 333 -215 438 -168 224 -459 403 -815 501
-104 29 -87 31 37 5z m-1100 4 c-3 -3 -12 -4 -19 -1 -8 3 -5 6 6 6 11 1 17 -2
13 -5z m2062 -921 c11 -38 23 -93 27 -123 l6 -55 -28 0 -29 0 0 123 c0 67 1
122 2 122 1 0 11 -30 22 -67z m-3091 -114 c-10 -7 -10 -9 0 -9 6 0 12 -7 12
-15 0 -8 -4 -15 -9 -15 -18 0 -22 60 -9 117 l13 58 3 -64 c2 -45 -1 -67 -10
-72z m6 -54 c4 0 21 -39 37 -87 51 -156 111 -252 238 -378 426 -424 1252 -570
1939 -343 406 133 719 402 817 701 18 57 39 65 41 15 1 -40 12 -56 35 -50 25
7 25 -10 0 -18 -29 -9 -33 -33 -11 -55 20 -20 20 -21 1 -115 -22 -103 -62
-208 -114 -295 l-32 -55 -3 40 c-4 53 -22 71 -22 23 0 -41 -8 -68 -20 -68 -5
0 -8 10 -8 23 5 90 -16 120 -25 35 -6 -61 4 -78 39 -72 21 4 24 2 15 -13 -5
-10 -26 -37 -47 -61 -25 -30 -39 -40 -44 -31 -6 8 -12 6 -21 -10 -18 -28 -29
-27 -29 4 0 16 -6 25 -15 25 -22 0 -20 -66 3 -79 15 -10 13 -15 -23 -48 l-40
-38 -3 48 c-4 55 -22 54 -22 0 0 -34 -22 -73 -42 -73 -4 0 -8 22 -8 49 0 27
-3 64 -7 82 -7 33 -7 33 -14 9 -11 -40 -10 -155 2 -167 14 -14 -51 -65 -88
-69 -14 -1 -30 -7 -36 -13 -30 -30 -37 -11 -37 88 0 99 11 134 29 89 9 -21 10
-21 10 -3 1 29 -23 57 -43 49 -20 -8 -24 -26 -29 -146 -3 -74 -1 -100 10 -111
12 -12 8 -17 -32 -38 -39 -21 -47 -22 -55 -9 -7 11 -12 12 -18 3 -10 -16 -64
-36 -72 -26 -9 12 1 203 11 203 5 0 9 -15 9 -32 0 -58 17 -67 26 -13 11 74
-23 108 -65 66 -19 -19 -21 -33 -21 -135 0 -82 4 -116 13 -119 11 -4 -31 -26
-80 -41 -18 -6 -22 -4 -17 8 3 8 -2 42 -10 76 -9 34 -16 79 -16 100 0 69 -50
91 -96 44 -26 -25 -26 -27 -23 -150 l4 -124 -35 -6 c-19 -3 -43 -8 -54 -11
-11 -3 -16 -1 -12 5 11 18 -16 236 -32 255 -22 25 -50 21 -83 -12 -28 -29 -29
-31 -29 -138 0 -71 4 -113 12 -121 9 -9 3 -12 -28 -12 -21 0 -48 -3 -59 -6
-19 -5 -20 1 -23 118 -2 118 -3 124 -28 146 -31 27 -54 28 -86 2 -24 -18 -26
-27 -30 -132 -3 -70 -1 -118 5 -126 8 -11 -1 -12 -48 -10 l-57 3 1 122 c2 111
0 124 -18 142 -25 25 -83 28 -104 7 -16 -16 -34 -226 -22 -247 6 -8 -4 -9 -36
-4 -70 11 -83 15 -70 28 7 7 11 54 11 119 0 102 -2 110 -25 133 -27 28 -66 32
-88 11 -9 -10 -16 -50 -20 -126 -3 -62 -8 -114 -11 -117 -2 -3 -28 3 -56 12
-42 14 -49 19 -39 31 8 10 9 45 4 120 -6 94 -10 110 -31 131 -47 47 -69 26
-78 -72 -8 -103 -17 -145 -30 -145 -6 1 -26 9 -45 19 l-33 18 1 114 c1 99 -1
117 -19 139 -16 20 -22 23 -37 14 -14 -8 -19 -26 -20 -70 -2 -41 0 -53 7 -39
5 11 9 36 9 55 1 26 4 31 11 20 5 -8 10 -57 10 -107 0 -77 -3 -93 -15 -93 -9
0 -24 13 -33 30 -19 33 -32 39 -32 14 0 -13 -6 -12 -37 6 l-38 21 -3 116 c-1
64 -6 121 -10 127 -8 13 -20 -67 -21 -146 -1 -79 -27 -77 -41 2 l-7 35 -11
-28 -12 -28 -33 27 -34 26 5 74 c3 47 1 74 -6 74 -11 0 -22 -33 -22 -72 0 -16
-4 -28 -9 -28 -12 0 -21 26 -21 61 0 36 -13 38 -26 2 l-9 -27 -34 43 c-31 38
-33 44 -18 53 13 7 17 23 17 64 0 66 -21 71 -31 8 -3 -21 -7 -29 -8 -17 0 12
-6 34 -12 50 l-11 28 -12 -39 -11 -39 -28 50 c-31 58 -33 67 -13 60 25 -10 38
19 31 63 -8 50 -25 43 -25 -11 0 -21 -4 -39 -10 -39 -5 0 -10 16 -10 35 0 39
-16 48 -22 13 -4 -19 -8 -14 -27 27 -53 117 -84 313 -58 366 5 10 2 22 -7 32
-15 14 -14 16 6 19 31 4 38 47 9 55 -12 3 -21 13 -21 25 0 13 4 17 13 11 6 -4
16 -8 21 -8z m3126 -65 c0 -5 -4 -10 -10 -10 -5 0 -10 5 -10 10 0 6 5 10 10
10 6 0 10 -4 10 -10z m-10 -130 c0 -5 -4 -10 -10 -10 -5 0 -10 5 -10 10 0 6 5
10 10 10 6 0 10 -4 10 -10z m-3140 -199 c0 -5 3 -17 7 -26 5 -16 4 -16 -15 1
-12 9 -19 21 -16 26 7 11 24 10 24 -1z m-15 -41 c3 -5 1 -10 -4 -10 -6 0 -11
5 -11 10 0 6 2 10 4 10 3 0 8 -4 11 -10z m15 -80 c0 -5 -5 -10 -11 -10 -5 0
-7 5 -4 10 3 6 8 10 11 10 2 0 4 -4 4 -10z m-556 -254 c205 -463 760 -852
1426 -1000 994 -220 2068 61 2587 678 124 148 199 275 254 434 l30 87 -6 -70
c-3 -38 -19 -275 -35 -525 -33 -492 -38 -524 -109 -682 -310 -690 -1312 -1155
-2301 -1068 -889 79 -1546 547 -1838 1310 l-40 105 -16 365 c-10 201 -19 410
-22 465 l-5 100 25 -71 c14 -39 36 -97 50 -128z m1470 -340 c9 -108 4 -126
-34 -106 -18 10 -21 18 -16 48 3 21 9 65 12 100 10 92 27 73 38 -42z m1189 -9
c28 -122 23 -147 -34 -147 -17 0 -19 8 -19 98 0 90 8 122 30 122 3 0 14 -33
23 -73z m-964 39 c8 -9 11 -47 9 -107 -3 -87 -5 -94 -24 -97 -37 -5 -43 16
-32 108 5 47 11 91 13 98 6 16 20 15 34 -2z m733 -122 c4 -53 7 -98 6 -100 -2
-1 -17 -4 -33 -6 l-30 -3 -3 94 c-2 77 0 97 14 113 27 29 36 9 46 -98z m-484
-17 l-3 -102 -30 3 c-16 2 -33 6 -37 10 -9 10 14 196 26 204 5 4 18 2 28 -3
17 -9 18 -22 16 -112z m230 101 c5 -7 11 -56 13 -108 l4 -95 -35 0 -35 0 4 95
c3 87 11 120 31 120 4 0 12 -6 18 -12z m-1418 -142 c0 -12 -6 -30 -13 -39 -10
-15 -12 -10 -12 32 0 38 3 47 13 39 6 -6 12 -20 12 -32z m-350 9 c13 -14 21
-25 18 -25 -2 0 -15 11 -28 25 -13 14 -21 25 -18 25 2 0 15 -11 28 -25z m61
-52 c13 -16 12 -17 -3 -4 -17 13 -22 21 -14 21 2 0 10 -8 17 -17z"/>
<path d="M2350 4394 c-14 -2 -68 -12 -120 -20 -490 -83 -851 -425 -850 -803 1
-144 28 -291 54 -291 7 0 34 -32 60 -70 62 -91 193 -212 292 -272 444 -267
1104 -245 1500 50 99 74 248 232 284 303 26 49 50 186 50 279 0 375 -337 701
-830 801 -91 19 -379 34 -440 23z m325 -25 c272 -33 519 -140 686 -297 98 -92
164 -190 202 -301 26 -74 30 -101 30 -191 1 -123 -15 -187 -76 -305 -54 -105
-195 -248 -315 -319 -517 -303 -1247 -224 -1616 175 -69 75 -133 187 -162 284
-12 41 -18 93 -18 165 1 184 65 323 218 475 245 242 649 363 1051 314z"/>
<path d="M2277 4325 c-419 -68 -724 -294 -802 -591 -16 -61 -22 -299 -7 -290
4 2 25 -31 46 -74 112 -233 366 -406 701 -475 124 -26 338 -31 473 -11 395 58
693 265 794 551 l29 80 -6 -65 c-4 -50 -3 -58 5 -35 15 48 -3 299 -28 367 -91
254 -359 452 -717 530 -121 26 -368 33 -488 13z m468 -30 c358 -74 613 -258
712 -513 37 -95 39 -246 4 -345 -86 -251 -346 -442 -704 -519 -137 -29 -400
-32 -527 -5 -264 56 -479 172 -607 326 -155 188 -182 397 -79 607 123 247 415
420 796 468 73 9 327 -3 405 -19z"/>
<path d="M1030 3835 c7 -9 15 -13 17 -11 7 7 -7 26 -19 26 -6 0 -6 -6 2 -15z"/>
<path d="M1000 3816 c0 -2 8 -10 18 -17 15 -13 16 -12 3 4 -13 16 -21 21 -21
13z"/>
<path d="M956 3766 c21 -15 30 -14 19 3 -3 6 -14 11 -23 11 -13 0 -13 -2 4
-14z"/>
<path d="M925 3751 c-6 -10 21 -34 33 -29 4 1 0 11 -10 20 -9 10 -20 13 -23 9z"/>
<path d="M875 3691 c-15 -17 -15 -20 1 -35 15 -16 18 -16 35 -1 19 18 16 40
-6 49 -7 2 -21 -4 -30 -13z m30 -21 c3 -5 1 -10 -4 -10 -6 0 -11 5 -11 10 0 6
2 10 4 10 3 0 8 -4 11 -10z"/>
<path d="M838 3608 c12 -12 24 -19 28 -15 10 10 -16 37 -34 37 -13 0 -12 -4 6
-22z"/>
<path d="M810 3586 c0 -10 8 -16 22 -16 12 0 19 1 17 3 -2 1 -12 9 -21 16 -15
12 -18 11 -18 -3z"/>
<path d="M769 3534 c-15 -18 -2 -47 24 -52 25 -5 40 33 21 52 -19 20 -28 20
-45 0z m39 -23 c3 -8 -1 -12 -9 -9 -7 2 -15 10 -17 17 -3 8 1 12 9 9 7 -2 15
-10 17 -17z"/>
<path d="M874 3466 c-9 -24 4 -48 23 -44 12 2 18 12 18 28 0 29 -32 41 -41 16z
m31 -16 c3 -5 2 -10 -4 -10 -5 0 -13 5 -16 10 -3 6 -2 10 4 10 5 0 13 -4 16
-10z"/>
<path d="M734 3446 c-9 -24 4 -48 23 -44 12 2 18 12 18 28 0 29 -32 41 -41 16z
m26 -16 c0 -5 -2 -10 -4 -10 -3 0 -8 5 -11 10 -3 6 -1 10 4 10 6 0 11 -4 11
-10z"/>
<path d="M834 3389 c-17 -18 -17 -21 -1 -37 13 -13 21 -14 35 -6 24 16 26 41
4 53 -15 8 -23 6 -38 -10z"/>
<path d="M696 3364 c-10 -26 -7 -42 11 -48 23 -9 47 17 38 43 -7 25 -40 28
-49 5z m35 -17 c-1 -12 -15 -9 -19 4 -3 6 1 10 8 8 6 -3 11 -8 11 -12z"/>
<path d="M806 3311 c-15 -17 -15 -20 3 -42 l20 -24 22 21 c23 23 20 37 -10 54
-14 7 -23 5 -35 -9z m32 -20 c3 -8 -1 -12 -9 -9 -7 2 -15 10 -17 17 -3 8 1 12
9 9 7 -2 15 -10 17 -17z"/>
<path d="M670 3275 c-11 -13 -11 -19 3 -32 21 -21 49 -9 45 19 -4 28 -30 35
-48 13z"/>
<path d="M780 3235 c-6 -8 -9 -23 -5 -34 8 -28 37 -36 52 -15 18 25 16 42 -6
54 -25 13 -26 13 -41 -5z"/>
<path d="M662 3208 c-16 -16 -15 -33 3 -48 21 -17 31 -5 14 16 -13 16 -12 17
9 12 12 -4 22 -3 22 1 0 9 -22 31 -30 31 -3 0 -11 -5 -18 -12z"/>
<path d="M761 3141 c-9 -15 -7 -23 5 -36 15 -15 15 -17 -2 -36 -21 -24 -10
-52 24 -57 30 -5 47 31 26 53 -15 15 -15 17 2 36 14 15 16 24 8 37 -16 25 -51
27 -63 3z m34 -11 c3 -5 1 -10 -4 -10 -6 0 -11 5 -11 10 0 6 2 10 4 10 3 0 8
-4 11 -10z"/>
<path d="M654 3106 c-9 -24 4 -48 23 -44 12 2 18 12 18 28 0 29 -32 41 -41 16z"/>
<path d="M4180 3064 c-18 -21 13 -55 32 -36 9 9 7 12 -10 12 -25 0 -28 10 -10
28 7 7 9 12 6 12 -3 0 -11 -7 -18 -16z"/>
<path d="M657 3022 c-19 -21 -6 -52 23 -52 29 0 44 35 24 54 -20 20 -27 20
-47 -2z"/>
<path d="M764 2975 c-9 -23 3 -45 24 -45 28 0 43 20 31 42 -12 22 -47 24 -55
3z"/>
<path d="M660 2931 c-11 -22 9 -51 35 -51 25 0 37 36 19 54 -21 21 -41 20 -54
-3z"/>
<path d="M772 2898 c-18 -18 -15 -36 7 -48 28 -14 39 -13 51 9 18 34 -30 67
-58 39z"/>
<path d="M686 2841 c-15 -17 -15 -20 3 -42 16 -20 21 -21 35 -10 19 16 21 42
4 59 -16 16 -22 15 -42 -7z m34 -21 c0 -5 -4 -10 -10 -10 -5 0 -10 5 -10 10 0
6 5 10 10 10 6 0 10 -4 10 -10z"/>
<path d="M792 2807 c-16 -19 8 -50 34 -45 28 5 26 52 -2 56 -11 2 -26 -3 -32
-11z"/>
<path d="M712 2758 c-7 -7 -12 -17 -12 -23 0 -12 32 -45 43 -45 9 0 37 30 37
40 0 13 -30 40 -44 40 -6 0 -17 -5 -24 -12z m39 -31 c-1 -12 -15 -9 -19 4 -3
6 1 10 8 8 6 -3 11 -8 11 -12z"/>
<path d="M820 2721 c-7 -15 -6 -24 6 -36 19 -18 33 -16 48 7 7 12 6 21 -3 32
-18 22 -38 20 -51 -3z m41 -16 c-1 -15 -24 -12 -29 3 -3 9 2 13 12 10 10 -1
17 -7 17 -13z"/>
<path d="M937 2719 c-13 -8 -15 -14 -7 -30 13 -23 33 -25 50 -4 11 13 10 15
-6 13 -11 -2 -19 2 -19 7 0 6 6 9 12 9 7 -1 10 2 7 7 -7 11 -15 11 -37 -2z"/>
<path d="M753 2673 c-27 -10 -7 -63 24 -63 7 0 17 9 23 19 7 15 6 23 -6 35
-16 17 -21 18 -41 9z"/>
<path d="M857 2645 c-19 -19 -12 -42 15 -51 29 -9 57 20 42 44 -15 23 -38 26
-57 7z"/>
<path d="M968 2648 c-22 -17 -6 -58 21 -58 29 0 45 34 25 54 -19 19 -25 20
-46 4z"/>
<path d="M799 2574 c-15 -18 -2 -47 24 -52 25 -5 40 33 21 52 -19 20 -28 20
-45 0z m28 -30 c-9 -9 -28 6 -21 18 4 6 10 6 17 -1 6 -6 8 -13 4 -17z"/>
<path d="M904 2565 c-9 -23 3 -45 24 -45 28 0 43 20 31 42 -12 22 -47 24 -55
3z"/>
<path d="M1011 2571 c-16 -11 -8 -39 14 -47 24 -10 47 14 34 37 -11 21 -26 24
-48 10z"/>
<path d="M4005 1484 c-73 -79 35 -195 110 -119 51 50 15 145 -55 145 -21 0
-39 -9 -55 -26z"/>
</g>
</svg>
