<?xml version="1.0" encoding="utf-8"?>

<!-- Uploaded to: SVG Repo, www.svgrepo.com, Generator: SVG Repo Mixer Tools -->
<svg fill="#000000" width="800px" height="800px" viewBox="0 0 122.88 77" version="1.1" id="Layer_1" xmlns="http://www.w3.org/2000/svg" xmlns:xlink="http://www.w3.org/1999/xlink"  style="enable-background:new 0 0 122.88 76.53" xml:space="preserve">

<g>

<path d="M1.66,31.46C0.54,29.08-0.02,26.8,0,24.62c0.03-2.27,0.68-4.38,1.99-6.33c0.03-0.04,0.05-0.08,0.08-0.11l0,0 c1.36-1.76,3.25-3.22,5.68-4.39c2.31-1.11,5.11-1.95,8.42-2.51c0.15-0.02,0.29-0.03,0.43-0.03c4.82-0.07,7.52-2.39,10.33-4.8 c3.04-2.6,6.19-5.3,11.86-6.2c6.69-1.06,9.85,1.33,13.05,3.76c2.64,2,5.32,4.02,11.02,3.05c0.08-0.01,0.17-0.02,0.25-0.03 c2.92-0.26,6.4,1.18,9.31,3.87c2.54,2.34,4.7,5.67,5.7,9.63c1.44,5.7,0.3,8.45-1.11,11.87c-0.56,1.36-1.17,2.83-1.63,4.71 c-0.54,2.2-0.79,4.41-0.83,6.61c-0.04,2.23,0.14,4.48,0.46,6.74c0.01,0.04,0.01,0.08,0.01,0.12l0,0c0.21,2.52-0.27,4.7-1.49,6.51 c-1.19,1.77-3.03,3.11-5.59,3.97c-3.23,1.39-6.46,2.61-9.7,3.67c0.18-1.5,0.27-2.98,0.3-4.4c2.62-0.9,5.24-1.91,7.83-3.03 c0.06-0.03,0.13-0.05,0.2-0.08c1.7-0.57,2.88-1.37,3.57-2.41c0.67-1.01,0.93-2.32,0.8-3.91c-0.33-2.39-0.52-4.81-0.48-7.25 c0.04-2.51,0.33-5.02,0.94-7.52c0.53-2.14,1.2-3.78,1.82-5.28c1.13-2.73,2.03-4.92,0.92-9.33c-0.79-3.14-2.5-5.77-4.51-7.62 c-2.07-1.92-4.38-2.96-6.16-2.82c-7.4,1.25-10.78-1.3-14.11-3.82c-2.52-1.9-5-3.78-9.97-2.99c-4.5,0.71-7.21,3.03-9.83,5.27 c-3.37,2.89-6.62,5.66-12.87,5.77c-2.88,0.5-5.28,1.21-7.21,2.14c-1.81,0.87-3.2,1.93-4.17,3.16c-0.83,1.26-1.24,2.61-1.26,4.05 c-0.02,1.54,0.41,3.23,1.27,5.06l0,0c0.7,1.38,1.59,2.73,2.52,4.12c1.29,1.95,2.63,3.97,3.75,6.47c-1.48-0.26-2.93-0.13-4.32,0.46 c-0.88-1.75-1.86-3.24-2.82-4.68c-0.98-1.48-1.93-2.91-2.78-4.59L1.66,31.46L1.66,31.46L1.66,31.46z M90.38,24.54 c-1.24-0.2-2.09-1.38-1.89-2.62c0.2-1.24,1.38-2.09,2.62-1.89c6.2,1.01,11.9,3.22,17.05,6.41c5.38,3.33,10.14,7.72,14.23,12.93 c0.78,0.99,0.61,2.43-0.38,3.21c-0.99,0.78-2.43,0.61-3.21-0.38c-3.78-4.81-8.14-8.84-13.03-11.87 C101.12,27.45,95.97,25.46,90.38,24.54L90.38,24.54z M88.06,60.42c-1.26,0.02-2.29-0.99-2.31-2.25c-0.01-1.26,0.99-2.29,2.25-2.31 c2.33-0.03,5.22,0.06,8.29,0.67c3.15,0.63,6.51,1.79,9.73,3.91c1.05,0.69,1.34,2.1,0.65,3.16c-0.69,1.05-2.1,1.34-3.16,0.65 c-2.63-1.73-5.44-2.7-8.1-3.23C92.69,60.47,90.13,60.39,88.06,60.42L88.06,60.42z M87.24,42.31c-1.24-0.22-2.08-1.4-1.86-2.65 c0.22-1.24,1.4-2.08,2.65-1.86c6.17,1.1,10.74,2.5,14.77,4.61c4.04,2.11,7.43,4.87,11.27,8.69c0.89,0.89,0.9,2.33,0.01,3.23 c-0.89,0.89-2.33,0.9-3.23,0.01c-3.53-3.51-6.6-6.02-10.16-7.89C97.12,44.59,92.96,43.32,87.24,42.31L87.24,42.31z M22.41,52.61 c-0.06-0.03-0.14-0.08-0.21-0.13c-0.84-0.67-1.77-1.42-2.57-2.07c-1.16-0.96-2.5-2.06-3.44-2.84c-0.64-0.53-1.37-0.89-2.06-1.04 c-0.45-0.08-0.84-0.08-1.16,0.05c-0.26,0.11-0.48,0.32-0.62,0.64c-0.19,0.43-0.29,1.04-0.24,1.86c0.05,0.73,0.3,1.53,0.64,2.31 c0.49,1.13,1.18,2.18,1.69,2.85c0.03,0.05,0.06,0.08,0.08,0.13l10.09,14.4c0.13,0.19,0.21,0.4,0.22,0.61 c0.21,1.66,0.56,2.92,1.07,3.7c0.38,0.57,0.86,0.86,1.48,0.84h15.87c0.99-0.02,1.88-0.3,2.71-0.88c0.91-0.62,1.72-1.59,2.47-2.9 c0.02-0.02,0.03-0.05,0.05-0.06c0.29-0.49,0.67-1.13,1.04-1.74c1.61-2.64,3.01-4.95,3.17-8.24l-0.1-4.52 c-0.02-0.06-0.02-0.13-0.02-0.19s0-0.49,0.02-1.07c0.03-3,0.08-9.18-2.66-9.64h-1.77c-0.02,0.84-0.06,4.19-0.11,5.02 c-0.05,0.75-0.1,1.45-0.1,2.13c0,0.73-0.59,1.32-1.32,1.32c-0.73,0-1.32-0.59-1.32-1.32c0-0.68,0.05-1.48,0.1-2.31 c0.18-2.82,0.38-8.54-1.86-8.94h-1.75c-0.1,0-0.19-0.02-0.29-0.03c0.02,1.02-0.05,4.07-0.11,5.09c-0.05,0.75-0.1,1.94-0.1,2.63 c0,0.73-0.59,1.32-1.32,1.32c-0.73,0-1.32-0.59-1.32-1.32c0-0.68,0.05-1.97,0.1-2.8c0.18-2.82,0.38-8.05-1.86-8.45h-1.75 c-0.13,0-0.24-0.02-0.35-0.05v7.14c0,0.73-0.59,1.32-1.32,1.32c-0.73,0-1.32-0.59-1.32-1.32v-7.62c0-2.31-0.94-3.78-2.15-4.38 c-0.45-0.22-0.92-0.33-1.39-0.33c-0.46,0-0.94,0.11-1.39,0.33c-1.2,0.61-2.12,2.07-2.12,4.45v18.5c0,0.73-0.59,1.32-1.32,1.32 c-0.73,0-1.32-0.59-1.32-1.32v-2.45H22.41L22.41,52.61z M34.78,34.41c0.11-0.03,0.22-0.05,0.35-0.05h1.83c0.1,0,0.21,0.02,0.3,0.03 c2.44,0.38,3.54,1.8,3.98,3.65c0.18-0.08,0.37-0.13,0.56-0.13h1.83c0.1,0,0.21,0.02,0.3,0.03c2.63,0.41,3.68,2.02,4.06,4.06 C48.06,42,48.13,42,48.21,42h1.83c0.1,0,0.21,0.02,0.3,0.03c5.03,0.78,4.97,8.27,4.92,12.3v1.05l0.11,4.65v0.14 c-0.19,3.97-1.75,6.53-3.55,9.5c-0.3,0.49-0.61,1-1.02,1.7c-0.02,0.02-0.02,0.03-0.03,0.05c-0.94,1.64-2.02,2.9-3.27,3.76 c-1.26,0.88-2.66,1.32-4.19,1.34H27.46c-1.58,0.03-2.8-0.65-3.71-2.01c-0.73-1.08-1.21-2.61-1.47-4.52l-9.88-14.12l-0.05-0.05 c-0.59-0.78-1.39-2.01-1.99-3.36c-0.45-1.02-0.78-2.12-0.86-3.2c-0.08-1.29,0.1-2.31,0.46-3.12c0.45-1,1.18-1.66,2.06-2.01 c0.81-0.33,1.74-0.38,2.66-0.19c1.11,0.22,2.26,0.78,3.23,1.59c0.8,0.67,2.13,1.75,3.44,2.82l1.08,0.89V36.59 c0-3.52,1.56-5.78,3.58-6.8c0.81-0.41,1.69-0.62,2.58-0.62c0.89,0,1.77,0.21,2.58,0.62c2.28,1.15,3.62,4.68,3.62,4.65L34.78,34.41 L34.78,34.41z"/>

</g>

</svg>