<?xml version="1.0" encoding="UTF-8" standalone="no"?>
<svg
   xmlns:dc="http://purl.org/dc/elements/1.1/"
   xmlns:cc="http://creativecommons.org/ns#"
   xmlns:rdf="http://www.w3.org/1999/02/22-rdf-syntax-ns#"
   xmlns:svg="http://www.w3.org/2000/svg"
   xmlns="http://www.w3.org/2000/svg"
   xmlns:sodipodi="http://sodipodi.sourceforge.net/DTD/sodipodi-0.dtd"
   xmlns:inkscape="http://www.inkscape.org/namespaces/inkscape"
   inkscape:version="1.0 (4035a4fb49, 2020-05-01)"
   sodipodi:docname="icon.svg"
   xml:space="preserve"
   style="enable-background:new 0 0 667 666;"
   viewBox="0 0 667 666"
   y="0px"
   x="0px"
   id="Layer_1"
   version="1.1"><metadata
   id="metadata319"><rdf:RDF><cc:Work
       rdf:about=""><dc:format>image/svg+xml</dc:format><dc:type
         rdf:resource="http://purl.org/dc/dcmitype/StillImage" /><dc:title /></cc:Work></rdf:RDF></metadata><defs
   id="defs317"><marker
     inkscape:isstock="true"
     style="overflow:visible"
     id="Arrow1Send"
     refX="0"
     refY="0"
     orient="auto"
     inkscape:stockid="Arrow1Send"><path
       transform="matrix(-0.2,0,0,-0.2,-1.2,0)"
       style="fill:#000000;fill-opacity:1;fill-rule:evenodd;stroke:#000000;stroke-width:1.00000003pt;stroke-opacity:1"
       d="M 0,0 5,-5 -12.5,0 5,5 Z"
       id="path4714"
       inkscape:connector-curvature="0" /></marker><clipPath
     id="clipPath69-0"><path
       d="m 409.441,126.252 v -43.63 h 147.796 v 43.63"
       id="path71-2"
       inkscape:connector-curvature="0" /></clipPath><clipPath
     id="clipPath101-1"><path
       d="m 409.441,126.252 v -43.63 h 147.796 v 43.63"
       id="path103-6"
       inkscape:connector-curvature="0" /></clipPath><clipPath
     id="clipPath69"><path
       d="m 409.441,126.252 v -43.63 h 147.796 v 43.63"
       id="path71"
       inkscape:connector-curvature="0" /></clipPath><clipPath
     id="clipPath101"><path
       d="m 409.441,126.252 v -43.63 h 147.796 v 43.63"
       id="path103"
       inkscape:connector-curvature="0" /></clipPath></defs><sodipodi:namedview
   inkscape:document-rotation="0"
   inkscape:current-layer="Layer_1"
   inkscape:window-maximized="1"
   inkscape:window-y="-8"
   inkscape:window-x="-8"
   inkscape:cy="322.26249"
   inkscape:cx="289.41357"
   inkscape:zoom="1.0022655"
   showgrid="false"
   id="namedview315"
   inkscape:window-height="987"
   inkscape:window-width="1680"
   inkscape:pageshadow="2"
   inkscape:pageopacity="0"
   guidetolerance="10"
   gridtolerance="10"
   objecttolerance="10"
   borderopacity="1"
   bordercolor="#666666"
   pagecolor="#ffffff" />
<style
   id="style2"
   type="text/css">
	.st0{fill:none;stroke:#000000;stroke-width:2;stroke-linecap:round;stroke-linejoin:round;stroke-miterlimit:10;}
</style>


<path
   d="m 406.32996,134.96508 a 132.2005,40.08976 0 0 1 -186.66187,-2.89803 132.2005,40.08976 0 0 1 9.45,-56.606802 132.2005,40.08976 0 0 1 186.67266,2.833375 132.2005,40.08976 0 0 1 -9.23676,56.610037"
   sodipodi:arc-type="arc"
   sodipodi:open="true"
   sodipodi:end="0.83455187"
   sodipodi:start="0.83683651"
   sodipodi:ry="40.08976"
   sodipodi:rx="132.2005"
   sodipodi:cy="105.19732"
   sodipodi:cx="317.78006"
   sodipodi:type="arc"
   id="path883"
   style="fill:none;fill-rule:evenodd;stroke-width:2.66666667;stroke:#000000;stroke-opacity:1;stroke-miterlimit:4;stroke-dasharray:none" /><path
   style="fill:none;fill-rule:evenodd;stroke:#000000;stroke-width:2.66666667;stroke-opacity:1;stroke-miterlimit:4;stroke-dasharray:none"
   id="path885"
   sodipodi:type="arc"
   sodipodi:cx="317.78006"
   sodipodi:cy="105.19732"
   sodipodi:rx="99.831818"
   sodipodi:ry="30.273968"
   sodipodi:start="0.83683651"
   sodipodi:end="0.83455187"
   sodipodi:open="true"
   sodipodi:arc-type="arc"
   d="m 384.64892,127.67658 a 99.831818,30.273968 0 0 1 -140.95856,-2.18846 99.831818,30.273968 0 0 1 7.1362,-42.746888 99.831818,30.273968 0 0 1 140.96672,2.139637 99.831818,30.273968 0 0 1 -6.97518,42.749331" /><path
   d="m 370.68273,122.98158 a 78.981003,23.950964 0 0 1 -111.51804,-1.73139 78.981003,23.950964 0 0 1 5.64574,-33.818792 78.981003,23.950964 0 0 1 111.52449,1.692753 78.981003,23.950964 0 0 1 -5.51834,33.820729"
   sodipodi:arc-type="arc"
   sodipodi:open="true"
   sodipodi:end="0.83455187"
   sodipodi:start="0.83683651"
   sodipodi:ry="23.950964"
   sodipodi:rx="78.981003"
   sodipodi:cy="105.19732"
   sodipodi:cx="317.78006"
   sodipodi:type="arc"
   id="path887"
   style="fill:none;fill-rule:evenodd;stroke:#000000;stroke-width:2.66666667;stroke-opacity:1;stroke-miterlimit:4;stroke-dasharray:none" /><path
   style="fill:none;fill-rule:evenodd;stroke:#000000;stroke-width:2.66666667;stroke-opacity:1;stroke-miterlimit:4;stroke-dasharray:none"
   id="path889"
   sodipodi:type="arc"
   sodipodi:cx="317.78006"
   sodipodi:cy="105.19732"
   sodipodi:rx="62.796661"
   sodipodi:ry="19.043068"
   sodipodi:start="0.83683651"
   sodipodi:end="0.83455187"
   sodipodi:open="true"
   sodipodi:arc-type="arc"
   d="m 359.84222,119.33733 a 62.796661,19.043068 0 0 1 -88.6664,-1.3766 62.796661,19.043068 0 0 1 4.48885,-26.88884 62.796661,19.043068 0 0 1 88.67152,1.345884 62.796661,19.043068 0 0 1 -4.38756,26.890376" /><path
   d="m 349.0017,115.69308 a 46.61232,14.135172 0 0 1 -65.81475,-1.02182 46.61232,14.135172 0 0 1 3.33196,-19.958878 46.61232,14.135172 0 0 1 65.81855,0.999014 46.61232,14.135172 0 0 1 -3.25677,19.960024"
   sodipodi:arc-type="arc"
   sodipodi:open="true"
   sodipodi:end="0.83455187"
   sodipodi:start="0.83683651"
   sodipodi:ry="14.135172"
   sodipodi:rx="46.61232"
   sodipodi:cy="105.19732"
   sodipodi:cx="317.78006"
   sodipodi:type="arc"
   id="path891"
   style="fill:none;fill-rule:evenodd;stroke:#000000;stroke-width:2.66666667;stroke-opacity:1;stroke-miterlimit:4;stroke-dasharray:none" /><path
   style="fill:none;fill-rule:evenodd;stroke:#000000;stroke-width:2.66666667;stroke-opacity:1;stroke-miterlimit:4;stroke-dasharray:none"
   id="path893"
   sodipodi:type="arc"
   sodipodi:cx="317.78006"
   sodipodi:cy="105.19732"
   sodipodi:rx="23.954245"
   sodipodi:ry="7.2641172"
   sodipodi:start="0.83683651"
   sodipodi:end="0.83455187"
   sodipodi:open="true"
   sodipodi:arc-type="arc"
   d="m 333.82498,110.59113 a 23.954245,7.2641172 0 0 1 -33.82245,-0.52512 23.954245,7.2641172 0 0 1 1.71231,-10.256939 23.954245,7.2641172 0 0 1 33.8244,0.513399 23.954245,7.2641172 0 0 1 -1.67367,10.25753" /><path
   d="M 441.56414,146.80973 A 184.80339,56.041573 0 0 1 180.62908,142.75856 184.80339,56.041573 0 0 1 193.83925,63.62778 184.80339,56.041573 0 0 1 454.7894,67.588562 184.80339,56.041573 0 0 1 441.87732,146.72387"
   sodipodi:arc-type="arc"
   sodipodi:open="true"
   sodipodi:end="0.83455187"
   sodipodi:start="0.83683651"
   sodipodi:ry="56.041573"
   sodipodi:rx="184.80339"
   sodipodi:cy="105.1973"
   sodipodi:cx="317.78003"
   sodipodi:type="arc"
   id="path895"
   style="fill:none;fill-rule:evenodd;stroke:#000000;stroke-width:2.66666667;stroke-opacity:1;stroke-miterlimit:4;stroke-dasharray:none" /><path
   style="fill:none;fill-rule:evenodd;stroke:#000000;stroke-width:4;stroke-opacity:1;stroke-miterlimit:4;stroke-dasharray:none"
   id="path897"
   sodipodi:type="arc"
   sodipodi:cx="317.78003"
   sodipodi:cy="113.97691"
   sodipodi:rx="205.65421"
   sodipodi:ry="63.584965"
   sodipodi:start="0.83683651"
   sodipodi:end="0.83455187"
   sodipodi:open="true"
   sodipodi:arc-type="arc"
   d="M 455.53033,161.19052 A 205.65421,63.584965 0 0 1 165.15475,156.59405 205.65421,63.584965 0 0 1 179.85538,66.811986 205.65421,63.584965 0 0 1 470.24776,71.305904 205.65421,63.584965 0 0 1 455.87885,161.0931" /><path
   d="M 523.40362,128.41503 A 205.64629,65.604179 0 0 1 317.82259,193.04467 205.64629,65.604179 0 0 1 112.15772,128.44218"
   sodipodi:arc-type="arc"
   sodipodi:open="true"
   sodipodi:end="3.1263234"
   sodipodi:start="0.014855351"
   sodipodi:ry="65.604179"
   sodipodi:rx="205.64629"
   sodipodi:cy="127.44049"
   sodipodi:cx="317.78003"
   sodipodi:type="arc"
   id="path901"
   style="fill:none;fill-rule:evenodd;stroke:#000000;stroke-width:4;stroke-opacity:1;stroke-miterlimit:4;stroke-dasharray:none" /><path
   id="path903"
   d="m 112.15772,128.44218 -0.16145,-13.57741"
   style="fill:none;stroke:#000000;stroke-width:2.66666667;stroke-linecap:butt;stroke-linejoin:miter;stroke-opacity:1;stroke-miterlimit:4;stroke-dasharray:none" /><path
   id="path905"
   d="m 523.40362,128.41503 0.0355,-12.05365"
   style="fill:none;stroke:#000000;stroke-width:2.66666667;stroke-linecap:butt;stroke-linejoin:miter;stroke-opacity:1;stroke-miterlimit:4;stroke-dasharray:none" /><path
   sodipodi:nodetypes="csssc"
   id="path907"
   d="m 127.2118,152.65416 c 0,0 6.79204,105.71692 26.4401,133.19824 50.70712,70.92297 45.99468,167.28738 163.6293,166.12365 107.32317,-1.06172 113.61308,-85.97759 159.63834,-158.14173 22.11247,-34.67069 32.42654,-141.67903 32.42654,-141.67903"
   style="fill:none;stroke:#000000;stroke-width:4;stroke-linecap:butt;stroke-linejoin:miter;stroke-opacity:1;stroke-miterlimit:4;stroke-dasharray:none" /><path
   sodipodi:nodetypes="csasc"
   id="path909"
   d="m 230.70126,422.95232 2.98588,91.54491 c 0.55499,17.01577 56.14204,34.79023 87.31921,33.68284 29.12009,-1.03432 78.93999,-18.82418 79.12027,-37.16758 0.23517,-23.92937 0.71977,-59.13432 0.95494,-89.82394"
   style="fill:none;stroke:#000000;stroke-width:4;stroke-linecap:butt;stroke-linejoin:miter;stroke-opacity:1;stroke-miterlimit:4;stroke-dasharray:none" /><path
   sodipodi:nodetypes="csc"
   id="path911"
   d="m 247.68886,529.5503 c 0,0 21.09233,28.28633 71.08895,28.68502 48.19113,0.38429 69.84177,-31.17936 69.84177,-31.17936"
   style="fill:none;stroke:#000000;stroke-width:4;stroke-linecap:butt;stroke-linejoin:miter;stroke-opacity:1;stroke-miterlimit:4;stroke-dasharray:none" /><path
   sodipodi:nodetypes="cssc"
   id="path913"
   d="m 268.14252,546.26244 c 0,0 -8.3808,3.8601 -7.98191,8.48079 0.59492,6.89157 10.48799,9.27513 16.96157,9.47853 14.05726,0.44168 19.70536,-7.98192 19.70536,-7.98192"
   style="fill:none;stroke:#000000;stroke-width:4;stroke-linecap:butt;stroke-linejoin:miter;stroke-opacity:1;stroke-miterlimit:4;stroke-dasharray:none" /><path
   sodipodi:nodetypes="cssc"
   id="path915"
   d="m 338.23373,556.73871 c 0,0 2.36008,6.7752 17.70988,7.23361 7.39707,0.22091 19.73668,-3.88757 19.70536,-10.22683 -0.0195,-3.94299 -8.73022,-7.98192 -8.73022,-7.98192"
   style="fill:none;stroke:#000000;stroke-width:4;stroke-linecap:butt;stroke-linejoin:miter;stroke-opacity:1;stroke-miterlimit:4;stroke-dasharray:none" /><path
   sodipodi:nodetypes="csasc"
   id="path917"
   d="m 260.16061,555.49153 c 0,0 0,0 0,18.70762 0,6.64536 10.3472,9.83521 16.96157,10.47627 7.51634,0.72848 21.03074,-0.4323 21.20197,-7.98192 0.45868,-20.22371 0.45868,-20.22371 0.45868,-20.22371"
   style="fill:none;stroke:#000000;stroke-width:4;stroke-linecap:butt;stroke-linejoin:miter;stroke-opacity:1;stroke-miterlimit:4;stroke-dasharray:none" /><path
   sodipodi:nodetypes="csasc"
   id="path919"
   d="m 375.50687,554.79421 c 0,0 0,0 -0.26456,20.10699 -0.0965,7.33806 -12.06836,10.12025 -19.40148,10.40625 -6.9313,0.27033 -18.95625,-1.44196 -19.04873,-8.37791 -0.26457,-19.84243 -0.26457,-19.84243 -0.26457,-19.84243"
   style="fill:none;stroke:#000000;stroke-width:4;stroke-linecap:butt;stroke-linejoin:miter;stroke-opacity:1;stroke-miterlimit:4;stroke-dasharray:none" /><path
   style="fill:none;stroke:#000000;stroke-width:4;stroke-linecap:butt;stroke-linejoin:miter;stroke-opacity:1;stroke-miterlimit:4;stroke-dasharray:none"
   d="m 268.23579,554.22546 c 0.33623,3.89493 5.92753,5.24205 9.58622,5.35701 7.94479,0.24963 11.13695,-4.88532 11.13695,-4.88532"
   id="path921"
   sodipodi:nodetypes="csc" /><path
   id="path923"
   d="m 268.14252,546.26244 0.0933,7.96302"
   style="fill:none;stroke:#000000;stroke-width:4;stroke-linecap:butt;stroke-linejoin:miter;stroke-opacity:1;stroke-miterlimit:4;stroke-dasharray:none" /><path
   style="fill:none;stroke:#000000;stroke-width:4;stroke-linecap:butt;stroke-linejoin:miter;stroke-opacity:1;stroke-miterlimit:4;stroke-dasharray:none"
   d="m 346.1474,554.94954 c 0,0 1.47146,4.8639 10.23059,5.12549 4.22103,0.12606 11.26244,-2.21839 11.24456,-5.83579 l -0.21639,-8.41515"
   id="path925"
   sodipodi:nodetypes="cscc" /><path
   sodipodi:nodetypes="csaac"
   id="path927"
   d="m 196.35326,368.76076 c 0,0 10.85412,7.5529 19.1585,9.88143 24.45704,6.85771 66.84925,0.22663 100.27283,0.49887 29.39265,0.23941 59.02557,4.77686 88.17524,0.99774 11.16229,-1.44714 32.55125,-8.97966 32.55125,-8.97966"
   style="fill:none;stroke:#000000;stroke-width:2.66666667;stroke-linecap:butt;stroke-linejoin:miter;stroke-opacity:1;stroke-miterlimit:4;stroke-dasharray:none" /><path
   sodipodi:nodetypes="csasc"
   id="path929"
   d="m 202.54114,382.13428 c 0,0 12.28778,6.18981 18.95706,7.48304 27.15388,5.26539 63.85501,0.41573 95.783,0.49887 29.10064,0.0758 66.85948,2.70775 87.30222,0 8.27869,-1.09656 24.94349,-5.737 24.94349,-5.737"
   style="fill:none;stroke:#000000;stroke-width:2.66666667;stroke-linecap:butt;stroke-linejoin:miter;stroke-opacity:1;stroke-miterlimit:4;stroke-dasharray:none" /></svg>
