<?xml version="1.0" encoding="utf-8"?>
<!-- Generator: Adobe Illustrator 21.0.0, SVG Export Plug-In . SVG Version: 6.00 Build 0)  -->
<svg version="1.1" id="Layer_1" xmlns="http://www.w3.org/2000/svg" xmlns:xlink="http://www.w3.org/1999/xlink" x="0px" y="0px"
	 viewBox="0 0 1378.1 1417.3" style="enable-background:new 0 0 1378.1 1417.3;" xml:space="preserve">
<g>
	<path d="M1140.7,660.2c0-251.5-203.9-455.3-455.3-455.3S230.1,408.7,230.1,660.2c0,251.4,203.9,455.3,455.3,455.3
		S1140.7,911.6,1140.7,660.2z M278.1,660.2c0-225,182.4-407.4,407.4-407.4s407.4,182.4,407.4,407.4c0,225-182.4,407.4-407.4,407.4
		S278.1,885.1,278.1,660.2z"/>
	<path d="M642,670.3c0.8-0.6,1.5-1.2,2.6-2c0,4.4,0,8.5,0,12.5c50,0,99.9,0,149.7,0c0-4.3,0-8.5,0-12.9c-45,0-90,0-135.1,0
		c0-8,0-15.7,0-23.5c-6.2,0-12.3,0-18.3,0c-7.2,15.4-23.3,21.4-37,17.8c-13.3-3.4-23.1-15.4-23.7-29.1c-0.6-14.1,8-26.9,21.1-31.4
		c6.7-2.3,13.4-2.5,20.1-0.3c8.8,2.8,15.1,8.6,19.2,16.8c6.4,0,12.6,0,18.9,0c-0.1-0.5-0.1-0.9-0.2-1.2
		c-5.5-16.7-16.7-27.8-33.5-33.1c-1.4-0.4-6.7-1.5-12.2-1.6c-5.1-0.2-10.5,0.5-11.1,0.6c-20.9,4.3-36.2,20.5-39.4,41.9
		c0,0.2-0.5,3.3-0.4,6.6c0.1,3.8,0.6,7.9,0.7,8.3C569.3,676.2,612.9,693.2,642,670.3z"/>
	<path d="M725.3,618.8c0,15.9,0,31.5,0,47.2c4.7,0,9.3,0,14.1,0c0-0.8,0-1.5,0-2.2c0-7.3,0-14.5,0-21.8c0-2.8,0.4-5.6,1.5-8.2
		c1.2-2.9,4.4-4.7,7.6-4.1c2.6,0.5,4.1,2.6,4.2,6c0,0.8,0,1.5,0,2.3c0,8.7,0,17.3,0,26c0,0.7-0.2,1.4,0.2,2c4.7,0,9.4,0,14.1,0
		c0-8.2,0.1-16.2,0-24.2c0-3.8,0.5-7.3,3.1-10.1c1.6-1.7,3.5-2.9,6-2.2c2.4,0.6,3.3,2.6,3.9,4.8c0.2,0.8,0.2,1.6,0.2,2.5
		c0,9.1,0,18.2,0,27.3c0,0.7-0.2,1.4,0.2,2c4.6,0,9.2,0,13.7,0c0.1-0.3,0.2-0.4,0.2-0.6c0-10.7,0.2-21.4-0.1-32.1
		c-0.1-5.9-2.6-10.8-8.3-13.4c-5.8-2.6-11.4-1.6-16.8,1.4c-1.7,1-3.2,2.3-4.7,3.5c-8.4-8.2-17-8.1-25.9-0.4c0-2.2,0-3.9,0-5.6
		C734,618.8,729.7,618.8,725.3,618.8z"/>
	<path d="M665.9,633.1c5.4,0.7,10.7,1.3,16.1,2c0.9-3.4,3.2-5.3,6.4-5.8c2.4-0.3,4.9-0.3,7.2,0c3.3,0.5,5.8,2.1,4.9,6.4
		c-3.1,0.5-6.2,1-9.2,1.5c-3.1,0.5-6.2,1-9.2,1.6c-4,0.8-8.1,1.3-11.6,3.6c-5.9,4-7.1,11.2-2.8,16.8c2.4,3.1,5.6,4.9,9.4,5.9
		c7,1.8,13.8,0.3,20.4-2.1c1.9-0.7,3.7-1.5,5.7-2.3c0.5,1.9,1,3.5,1.5,5.2c5.8,0,11.4,0,17.2,0c-3.2-4.2-3.9-8.8-4.1-13.7
		c-0.3-5.9,0.4-11.8,0.3-17.8c-0.1-8.2-3.8-13-11.8-14.8c-7.9-1.8-15.9-1.5-23.8-0.6C674.2,620.2,668.8,625.2,665.9,633.1z
		 M700.6,651.6c-3.8,3.6-8,6.2-13.6,4.9c-1.5-0.4-2.9-1.1-3.9-2.2c-1.7-1.8-1.4-3.6,0.6-5c1.8-1.3,3.8-2.1,5.9-2.6
		c3.6-0.9,7.3-1.2,11.1-1.7C700.6,647.3,700.6,649.4,700.6,651.6z"/>
	<path d="M594.1,631.3c0,9.8,8,17.8,17.7,17.9c9.8,0.1,17.9-7.9,18-17.8c0.1-9.8-8-17.9-17.8-17.9
		C602.2,613.4,594,621.5,594.1,631.3z M621.1,631.5c-0.1,5-4.2,9-9.3,9c-5,0-9.1-4.2-9.1-9.2c0-5,4.2-9.1,9.2-9.1
		C617,622.1,621.2,626.4,621.1,631.5z"/>
	<path d="M648.9,620.5c-6.1,0.1-11,5.2-11,11.2c0.1,6.1,5.1,11,11.1,11c6.2,0,11.1-5,11.1-11.2C660.2,625.3,655.2,620.4,648.9,620.5
		z M649.1,637.4c-3.2,0-5.8-2.6-5.8-5.8c0-3.2,2.7-5.8,5.9-5.7c3.2,0,5.8,2.7,5.8,5.8C654.9,634.9,652.3,637.4,649.1,637.4z"/>
	<polygon points="570,696.6 580.2,714.3 585.4,714.3 585.4,689.3 580.5,689.3 580.5,706.8 570.6,689.3 565.1,689.3 565.1,714.3 
		570,714.3 	"/>
	<polygon points="609.4,709.8 595.6,709.8 595.6,703.4 607.7,703.4 607.7,699.1 595.6,699.1 595.6,693.7 608.8,693.7 608.8,689.3 
		590.5,689.3 590.5,714.3 609.4,714.3 	"/>
	<path d="M624.6,715c3.6,0,6.3-1,8.2-2.9c2.5-2.4,3.8-5.8,3.8-10.3c0-4.6-1.3-8-3.8-10.3c-1.9-1.9-4.6-2.9-8.2-2.9
		c-3.6,0-6.3,1-8.2,2.9c-2.5,2.3-3.8,5.7-3.8,10.3c0,4.5,1.3,7.9,3.8,10.3C618.3,714.1,621,715,624.6,715z M619.6,695.3
		c1.2-1.5,2.9-2.3,5-2.3c2.1,0,3.7,0.8,4.9,2.3c1.2,1.5,1.8,3.7,1.8,6.5c0,2.8-0.6,5-1.8,6.5c-1.2,1.5-2.9,2.3-4.9,2.3
		c-2.1,0-3.7-0.8-5-2.3c-1.2-1.5-1.9-3.7-1.9-6.5C617.8,699,618.4,696.8,619.6,695.3z"/>
	<path d="M660.5,693.3c1.8,0,3.2,0.5,4.1,1.6c0.5,0.6,0.9,1.5,1.3,2.7h5.2c-0.1-1.6-0.6-3.1-1.7-4.7c-1.9-2.8-5-4.1-9.1-4.1
		c-3.1,0-5.7,1-7.7,3.1c-2.3,2.4-3.5,5.7-3.5,10.1c0,4,1,7.2,3.1,9.5c2,2.3,4.8,3.5,8.4,3.5c2.9,0,5.2-0.9,7.1-2.6
		c1.8-1.7,3-3.9,3.4-6.7h-5.2c-0.3,1.3-0.8,2.3-1.3,2.9c-0.9,1.2-2.3,1.8-4.1,1.8c-1.7,0-3.2-0.7-4.3-2.1c-1.1-1.4-1.7-3.5-1.7-6.3
		c0-2.8,0.5-5,1.6-6.5C657.1,694.1,658.6,693.3,660.5,693.3z"/>
	<path d="M683.2,695.2c-3.2,0-5.6,1-7.1,2.9c-1.6,2-2.3,4.3-2.3,6.9c0,2.7,0.8,5,2.3,7c1.6,1.9,3.9,2.9,7.1,2.9c3.2,0,5.6-1,7.1-2.9
		c1.6-1.9,2.3-4.2,2.3-7c0-2.7-0.8-5-2.3-6.9C688.8,696.2,686.4,695.2,683.2,695.2z M686.5,709.4c-0.8,1-1.8,1.5-3.3,1.5
		c-1.4,0-2.5-0.5-3.3-1.5c-0.8-1-1.1-2.4-1.1-4.3s0.4-3.3,1.1-4.3c0.8-1,1.9-1.5,3.3-1.5c1.4,0,2.5,0.5,3.3,1.5
		c0.8,1,1.1,2.4,1.1,4.3S687.2,708.4,686.5,709.4z"/>
	<path d="M704.5,695.2c-3.2,0-5.6,1-7.1,2.9c-1.6,2-2.3,4.3-2.3,6.9c0,2.7,0.8,5,2.3,7c1.6,1.9,3.9,2.9,7.1,2.9c3.2,0,5.6-1,7.1-2.9
		c1.6-1.9,2.3-4.2,2.3-7c0-2.7-0.8-5-2.3-6.9C710,696.2,707.6,695.2,704.5,695.2z M707.7,709.4c-0.8,1-1.8,1.5-3.3,1.5
		c-1.4,0-2.5-0.5-3.3-1.5c-0.8-1-1.1-2.4-1.1-4.3s0.4-3.3,1.1-4.3c0.8-1,1.9-1.5,3.3-1.5c1.4,0,2.5,0.5,3.3,1.5
		c0.8,1,1.1,2.4,1.1,4.3S708.5,708.4,707.7,709.4z"/>
	<rect x="717.5" y="689.3" width="4.8" height="25"/>
	<path d="M734.9,699.5c1.1,0,2,0.4,2.5,1.1c0.4,0.6,0.6,1.2,0.7,1.9h5c-0.3-2.6-1.1-4.5-2.6-5.5s-3.4-1.6-5.7-1.6
		c-2.7,0-4.9,0.9-6.4,2.6s-2.3,4.2-2.3,7.4c0,2.8,0.7,5.1,2.1,6.9c1.4,1.8,3.6,2.6,6.6,2.6c3,0,5.2-1.1,6.7-3.2
		c1-1.3,1.5-2.7,1.6-4.2h-4.9c-0.1,1-0.4,1.8-0.9,2.4c-0.5,0.6-1.3,0.9-2.4,0.9c-1.6,0-2.7-0.8-3.3-2.3c-0.3-0.8-0.5-1.9-0.5-3.3
		c0-1.4,0.2-2.6,0.5-3.4C732.1,700.3,733.2,699.5,734.9,699.5z"/>
	<path d="M755.6,702.7c-0.4,0.2-1,0.3-1.9,0.4l-1.7,0.2c-1.9,0.2-3.3,0.6-4.3,1.2c-1.8,1-2.7,2.7-2.7,4.9c0,1.8,0.5,3.1,1.6,4.1
		c1.1,1,2.5,1.4,4.2,1.4c1.3,0,2.5-0.3,3.6-0.9c0.9-0.5,1.7-1.1,2.3-1.8c0,0.4,0.1,0.8,0.1,1.1c0.1,0.3,0.2,0.7,0.3,1.1h5.3v-0.7
		c-0.3-0.1-0.6-0.3-0.7-0.6c-0.2-0.2-0.3-0.7-0.3-1.3c0-0.8,0-1.6,0-2.1v-8.5c0-2.2-0.8-3.7-2.4-4.5c-1.6-0.8-3.4-1.2-5.4-1.2
		c-3.1,0-5.3,0.8-6.6,2.4c-0.8,1-1.3,2.4-1.4,4h4.7c0.1-0.7,0.3-1.3,0.7-1.7c0.5-0.6,1.3-0.8,2.5-0.8c1,0,1.8,0.1,2.3,0.4
		c0.5,0.3,0.8,0.8,0.8,1.6C756.7,701.9,756.3,702.4,755.6,702.7z M756.7,707.1c0,1.6-0.5,2.7-1.4,3.3c-0.9,0.6-1.9,0.9-2.9,0.9
		c-0.7,0-1.2-0.2-1.7-0.6c-0.5-0.4-0.7-1-0.7-1.8c0-0.9,0.4-1.6,1.1-2.1c0.4-0.3,1.2-0.5,2.2-0.7l1.1-0.2c0.6-0.1,1-0.2,1.3-0.3
		s0.6-0.3,0.9-0.5V707.1z"/>
	<path d="M765.6,695.9v18.5h4.9v-11.1c0-1,0.1-1.8,0.4-2.3c0.5-0.9,1.4-1.3,2.8-1.3c1.2,0,2,0.4,2.4,1.3c0.2,0.5,0.3,1.3,0.3,2.4v11
		h4.9v-11c0-0.8,0.1-1.5,0.4-2.1c0.5-1.1,1.4-1.7,2.8-1.7c1.2,0,1.9,0.4,2.4,1.3c0.2,0.5,0.3,1,0.3,1.7v11.8h5l0-11.7
		c0-1.2-0.1-2.1-0.2-2.7c-0.2-0.9-0.5-1.7-1.1-2.4c-0.6-0.8-1.4-1.3-2.2-1.7c-0.8-0.3-1.6-0.5-2.4-0.5c-1.2,0-2.3,0.3-3.3,0.8
		c-0.9,0.5-1.7,1.3-2.4,2.4c-0.4-0.9-0.9-1.6-1.6-2.2c-0.9-0.6-2-0.9-3.4-0.9c-1.5,0-2.7,0.4-3.6,1.1c-0.5,0.4-1.1,1.1-1.7,2.1v-2.7
		H765.6z"/>
	<path d="M645.2,873.4c1.3,0.3,2.6,0.4,3.9,0.4c3.8,0,7.5-1.1,10.7-3.3c4.3-2.9,7.3-7.3,8.3-12.4c1-5.1,0-10.3-2.9-14.6
		c-5.9-8.9-18.1-11.4-27-5.4c-4.3,2.9-7.3,7.3-8.3,12.4c-1,5.1,0,10.3,2.9,14.6C635.7,869.4,640.1,872.4,645.2,873.4z M633.5,851.2
		c0.8-4.2,3.2-7.7,6.8-10.1c2.7-1.8,5.7-2.6,8.8-2.6c5.1,0,10.2,2.5,13.2,7.1c2.3,3.5,3.2,7.8,2.3,11.9c-0.8,4.2-3.2,7.7-6.8,10.1
		c-3.5,2.3-7.8,3.2-11.9,2.3c-4.2-0.8-7.7-3.2-10.1-6.8C633.5,859.6,632.7,855.3,633.5,851.2z"/>
	<path d="M709.8,870.1c3.5,2.6,7.5,3.8,11.5,3.8c6,0,11.9-2.7,15.7-7.9c3.1-4.2,4.4-9.3,3.6-14.5c-0.8-5.1-3.5-9.7-7.7-12.8
		s-9.3-4.4-14.5-3.6c-5.1,0.8-9.7,3.5-12.8,7.7s-4.4,9.3-3.6,14.5C702.9,862.5,705.6,867,709.8,870.1z M708.6,845
		c2.5-3.4,6.2-5.6,10.4-6.3c0.8-0.1,1.6-0.2,2.4-0.2c3.4,0,6.6,1.1,9.4,3.1c3.4,2.5,5.6,6.2,6.3,10.4c0.6,4.2-0.4,8.4-2.9,11.8
		c-5.2,7-15.1,8.5-22.2,3.4c-3.4-2.5-5.6-6.2-6.3-10.4C705.1,852.6,706.1,848.4,708.6,845z"/>
	<ellipse transform="matrix(0.2823 -0.9593 0.9593 0.2823 -229.4751 1352.752)" cx="789.3" cy="829.7" rx="17.7" ry="17.7"/>
	
		<ellipse transform="matrix(0.998 -6.284212e-02 6.284212e-02 0.998 -47.5557 54.6366)" cx="844.8" cy="783.3" rx="17.7" ry="17.7"/>
	<ellipse transform="matrix(0.9163 -0.4004 0.4004 0.9163 -214.875 413.0487)" cx="881" cy="720.7" rx="17.7" ry="17.7"/>
	<ellipse transform="matrix(0.7241 -0.6897 0.6897 0.7241 -201.4302 795.4924)" cx="893.6" cy="649.5" rx="17.7" ry="17.7"/>
	<path d="M889.8,560.9c-4.7-2.3-9.9-2.7-14.9-1c-4.9,1.7-8.9,5.1-11.2,9.8c-2.3,4.7-2.7,9.9-1,14.9c1.7,4.9,5.1,8.9,9.8,11.2
		c2.8,1.4,5.7,2,8.6,2c7.2,0,14.1-4,17.5-10.8C903.4,577.3,899.4,565.6,889.8,560.9z M895.4,585.4c-3.9,7.8-13.4,11-21.3,7.2
		c-3.8-1.9-6.6-5.1-8-9.1c-1.4-4-1.1-8.3,0.8-12.1c1.9-3.8,5.1-6.6,9.1-8c1.7-0.6,3.4-0.8,5.1-0.8c2.4,0,4.8,0.6,7,1.7
		C896.1,568,899.3,577.5,895.4,585.4z"/>
	<path d="M842.9,535c0.7,0.1,1.5,0.1,2.2,0.1c4.4,0,8.6-1.5,12.1-4.3c4.1-3.2,6.6-7.9,7.2-13c0.6-5.2-0.9-10.3-4.1-14.3
		c-3.2-4.1-7.9-6.6-13-7.2c-10.7-1.2-20.3,6.5-21.5,17.2C824.5,524.1,832.2,533.8,842.9,535z M829.3,513.9c1-8.7,8.8-15,17.5-14
		c4.2,0.5,8,2.6,10.6,5.9c2.6,3.3,3.8,7.5,3.4,11.7c-0.5,4.2-2.6,8-5.9,10.6c-3.3,2.6-7.4,3.9-11.7,3.4
		C834.6,530.4,828.3,522.6,829.3,513.9z"/>
	<ellipse transform="matrix(0.9719 -0.2352 0.2352 0.9719 -88.1757 198.8969)" cx="789.7" cy="469.1" rx="17.7" ry="17.7"/>
	<ellipse transform="matrix(0.8329 -0.5534 0.5534 0.8329 -125.2689 473.718)" cx="721.8" cy="444.3" rx="17.7" ry="17.7"/>
	<ellipse transform="matrix(0.5934 -0.8049 0.8049 0.5934 -93.4613 703.4249)" cx="649.5" cy="444.2" rx="17.7" ry="17.7"/>
	<ellipse transform="matrix(0.2823 -0.9593 0.9593 0.2823 -32.4465 894.3832)" cx="581.5" cy="468.9" rx="17.7" ry="17.7"/>
	<path d="M513.2,529.9c3.6,3.2,8.1,4.9,12.9,4.9c0.4,0,0.8,0,1.2,0c5.2-0.3,9.9-2.7,13.4-6.6c3.4-3.9,5.2-8.9,4.8-14.1
		c-0.7-10.7-10-18.9-20.7-18.2c-5.2,0.3-9.9,2.7-13.4,6.6c-3.4,3.9-5.2,8.9-4.8,14.1C507,521.7,509.3,526.5,513.2,529.9z
		 M514.2,504.8c2.8-3.2,6.7-5.1,10.9-5.3c0.3,0,0.7,0,1,0c3.9,0,7.5,1.4,10.5,4c3.2,2.8,5.1,6.7,5.3,10.9c0.3,4.2-1.1,8.3-3.9,11.5
		c-2.8,3.2-6.7,5.1-10.9,5.3c-4.2,0.3-8.3-1.1-11.5-3.9c-3.2-2.8-5.1-6.7-5.3-10.9C510,512.1,511.4,508,514.2,504.8z"/>
	<path d="M507.7,570.1c-4.3-9.8-15.8-14.4-25.6-10c-9.8,4.3-14.3,15.8-10,25.6c3.2,7.3,10.4,11.7,17.9,11.7c2.6,0,5.2-0.5,7.8-1.6
		C507.5,591.4,512,579.9,507.7,570.1z M496.2,592.4c-3.9,1.7-8.2,1.8-12.1,0.2c-3.9-1.5-7.1-4.5-8.7-8.4c-1.7-3.9-1.8-8.2-0.2-12.1
		c1.5-3.9,4.5-7.1,8.4-8.7c2.1-0.9,4.2-1.3,6.3-1.3c6.1,0,12,3.6,14.6,9.5C507.9,579.5,504.2,588.9,496.2,592.4z"/>
	<ellipse transform="matrix(0.7241 -0.6897 0.6897 0.7241 -315.9987 508.1742)" cx="477.2" cy="649.1" rx="17.7" ry="17.7"/>
	<ellipse transform="matrix(0.4446 -0.8957 0.8957 0.4446 -373.2254 838.7059)" cx="489.7" cy="720.3" rx="17.7" ry="17.7"/>
	<ellipse transform="matrix(0.1114 -0.9938 0.9938 0.1114 -310.8964 1218.2493)" cx="525.8" cy="783" rx="17.7" ry="17.7"/>
	<ellipse transform="matrix(0.9719 -0.2352 0.2352 0.9719 -178.7947 159.9463)" cx="581.1" cy="829.5" rx="17.7" ry="17.7"/>
	<path d="M696.5,845.9c4.3-2.9,7.3-7.3,8.3-12.4c1-5.1,0-10.3-2.9-14.6c-2.9-4.3-7.3-7.3-12.4-8.3c-5.1-1-10.3,0-14.6,2.9
		c-4.3,2.9-7.3,7.3-8.3,12.4c-1,5.1,0,10.3,2.9,14.6c3.7,5.6,9.9,8.7,16.2,8.7C689.5,849.1,693.2,848.1,696.5,845.9z M672.5,838.4
		c-2.3-3.5-3.2-7.8-2.3-11.9c0.8-4.2,3.2-7.7,6.8-10.1c2.7-1.8,5.7-2.6,8.8-2.6c5.1,0,10.2,2.5,13.2,7.1c2.3,3.5,3.2,7.8,2.3,11.9
		c-0.8,4.2-3.2,7.7-6.8,10.1C687.2,847.7,677.4,845.7,672.5,838.4z"/>
	<path d="M548.2,551.2c-1.9-4.8-5.6-8.6-10.4-10.7c-4.8-2.1-10.1-2.1-14.9-0.2c-4.8,1.9-8.6,5.6-10.7,10.4
		c-2.1,4.8-2.1,10.1-0.2,14.9c3,7.6,10.4,12.3,18.1,12.3c2.4,0,4.8-0.4,7.2-1.4C547.3,572.5,552.2,561.2,548.2,551.2z M536,573.2
		c-8.1,3.2-17.4-0.7-20.6-8.9c-1.6-3.9-1.5-8.2,0.2-12.1c1.7-3.9,4.8-6.9,8.7-8.5c1.9-0.8,3.9-1.1,5.9-1.1c2.1,0,4.2,0.4,6.3,1.3
		c3.9,1.7,6.9,4.8,8.5,8.7C548.1,560.7,544.1,569.9,536,573.2z"/>
	<path d="M827,565.7c1.9,4.8,5.6,8.6,10.4,10.7c2.5,1.1,5.1,1.6,7.7,1.6c2.4,0,4.9-0.5,7.2-1.4c10-4,14.8-15.3,10.9-25.3
		c-1.9-4.8-5.6-8.6-10.4-10.7c-4.8-2.1-10.1-2.1-14.9-0.2c-4.8,1.9-8.6,5.6-10.7,10.4C825.1,555.5,825.1,560.8,827,565.7z
		 M830.5,552.2c1.7-3.9,4.8-6.9,8.7-8.5c1.9-0.8,3.9-1.1,5.9-1.1c2.1,0,4.2,0.4,6.3,1.3c3.9,1.7,6.9,4.8,8.5,8.7
		c1.6,3.9,1.5,8.2-0.2,12.1c-1.7,3.9-4.8,6.9-8.7,8.5c-3.9,1.6-8.2,1.5-12.1-0.2c-3.9-1.7-6.9-4.8-8.5-8.7
		C828.8,560.4,828.8,556.1,830.5,552.2z"/>
	<ellipse transform="matrix(0.5934 -0.8049 0.8049 0.5934 -23.7783 704.5286)" cx="685.4" cy="375.8" rx="17.7" ry="17.7"/>
	<ellipse transform="matrix(0.3648 -0.9311 0.9311 0.3648 31.5011 816.528)" cx="614.2" cy="385.2" rx="17.7" ry="17.7"/>
	<ellipse transform="matrix(0.1114 -0.9938 0.9938 0.1114 76.7056 911.1187)" cx="547.8" cy="412.7" rx="17.7" ry="17.7"/>
	<ellipse transform="matrix(0.9887 -0.1496 0.1496 0.9887 -62.7481 78.5597)" cx="490.9" cy="456.4" rx="17.7" ry="17.7"/>
	<ellipse transform="matrix(0.9163 -0.4004 0.4004 0.9163 -168.1535 221.9738)" cx="447.1" cy="513.4" rx="17.7" ry="17.7"/>
	<ellipse transform="matrix(0.7815 -0.6239 0.6239 0.7815 -270.0271 388.4978)" cx="419.6" cy="579.8" rx="17.7" ry="17.7"/>
	<ellipse transform="matrix(0.5934 -0.8049 0.8049 0.5934 -357.1694 594.9246)" cx="410.3" cy="651" rx="17.7" ry="17.7"/>
	<ellipse transform="matrix(0.3648 -0.9311 0.9311 0.3648 -405.8844 849.4264)" cx="419.6" cy="722.2" rx="17.7" ry="17.7"/>
	<ellipse transform="matrix(0.1114 -0.9938 0.9938 0.1114 -386.3542 1145.0416)" cx="447.1" cy="788.6" rx="17.7" ry="17.7"/>
	<ellipse transform="matrix(0.9887 -0.1496 0.1496 0.9887 -120.9599 82.9373)" cx="490.9" cy="845.6" rx="17.7" ry="17.7"/>
	<ellipse transform="matrix(0.9163 -0.4004 0.4004 0.9163 -310.2367 293.7503)" cx="547.8" cy="889.3" rx="17.7" ry="17.7"/>
	<ellipse transform="matrix(0.7815 -0.6239 0.6239 0.7815 -437.7846 583.5445)" cx="614.2" cy="916.8" rx="17.7" ry="17.7"/>
	<ellipse transform="matrix(0.5934 -0.8049 0.8049 0.5934 -466.7735 928.3157)" cx="685.4" cy="926.2" rx="17.7" ry="17.7"/>
	<ellipse transform="matrix(0.3648 -0.9311 0.9311 0.3648 -372.986 1286.8119)" cx="756.7" cy="916.8" rx="17.7" ry="17.7"/>
	<ellipse transform="matrix(0.1114 -0.9938 0.9938 0.1114 -152.4313 1608.1016)" cx="823" cy="889.3" rx="17.7" ry="17.7"/>
	<ellipse transform="matrix(0.9887 -0.1496 0.1496 0.9887 -116.5816 141.15)" cx="880" cy="845.6" rx="17.7" ry="17.7"/>
	<ellipse transform="matrix(0.9163 -0.4004 0.4004 0.9163 -238.4611 435.8341)" cx="923.7" cy="788.6" rx="17.7" ry="17.7"/>
	<ellipse transform="matrix(0.7815 -0.6239 0.6239 0.7815 -242.7387 751.3018)" cx="951.2" cy="722.2" rx="17.7" ry="17.7"/>
	<ellipse transform="matrix(0.5934 -0.8049 0.8049 0.5934 -133.3824 1037.9197)" cx="960.6" cy="651" rx="17.7" ry="17.7"/>
	<ellipse transform="matrix(0.3648 -0.9311 0.9311 0.3648 64.3991 1253.913)" cx="951.2" cy="579.8" rx="17.7" ry="17.7"/>
	<ellipse transform="matrix(0.1114 -0.9938 0.9938 0.1114 310.6286 1374.1786)" cx="923.7" cy="513.4" rx="17.7" ry="17.7"/>
	<ellipse transform="matrix(0.9887 -0.1496 0.1496 0.9887 -58.3696 136.7731)" cx="880" cy="456.4" rx="17.7" ry="17.7"/>
	<ellipse transform="matrix(0.9163 -0.4004 0.4004 0.9163 -96.3778 364.0559)" cx="823" cy="412.7" rx="17.7" ry="17.7"/>
	<ellipse transform="matrix(0.7815 -0.6239 0.6239 0.7815 -74.9814 556.2559)" cx="756.7" cy="385.2" rx="17.7" ry="17.7"/>
	<ellipse transform="matrix(0.5934 -0.8049 0.8049 0.5934 41.3552 708.3786)" cx="721.8" cy="313.3" rx="17.7" ry="17.7"/>
	<ellipse transform="matrix(0.4131 -0.9107 0.9107 0.4131 96.74 776.2885)" cx="650.6" cy="313.1" rx="17.7" ry="17.7"/>
	<ellipse transform="matrix(0.2147 -0.9767 0.9767 0.2147 136.1364 824.7773)" cx="581" cy="327.7" rx="17.7" ry="17.7"/>
	<ellipse transform="matrix(6.930434e-03 -1 1 6.930434e-03 155.7425 869.903)" cx="515.8" cy="356.5" rx="17.7" ry="17.7"/>
	<ellipse transform="matrix(0.9796 -0.2011 0.2011 0.9796 -70.7368 100.2863)" cx="458.2" cy="398.3" rx="17.7" ry="17.7"/>
	<ellipse transform="matrix(0.9163 -0.4004 0.4004 0.9163 -146.2634 202.0553)" cx="410.4" cy="451" rx="17.7" ry="17.7"/>
	<ellipse transform="matrix(0.8131 -0.5822 0.5822 0.8131 -228.3912 313.9371)" cx="374.7" cy="512.6" rx="17.7" ry="17.7"/>
	<ellipse transform="matrix(0.6743 -0.7385 0.7385 0.6743 -313.6999 449.3363)" cx="352.5" cy="580.3" rx="17.7" ry="17.7"/>
	<ellipse transform="matrix(0.506 -0.8625 0.8625 0.506 -391.1745 619.1181)" cx="344.9" cy="651.1" rx="17.7" ry="17.7"/>
	<ellipse transform="matrix(0.3156 -0.9489 0.9489 0.3156 -443.9464 828.2275)" cx="352.2" cy="721.9" rx="17.7" ry="17.7"/>
	<ellipse transform="matrix(0.1114 -0.9938 0.9938 0.1114 -452.3623 1073.3409)" cx="374" cy="789.6" rx="17.7" ry="17.7"/>
	
		<ellipse transform="matrix(0.9952 -9.763416e-02 9.763416e-02 0.9952 -81.1657 44.0462)" cx="409.5" cy="851.4" rx="17.7" ry="17.7"/>
	<ellipse transform="matrix(0.9532 -0.3024 0.3024 0.9532 -252.1011 180.5479)" cx="457" cy="904.4" rx="17.7" ry="17.7"/>
	<ellipse transform="matrix(0.8695 -0.494 0.494 0.8695 -400.3299 377.6761)" cx="514.5" cy="946.4" rx="17.7" ry="17.7"/>
	<ellipse transform="matrix(0.7478 -0.664 0.664 0.7478 -501.5121 630.7833)" cx="579.5" cy="975.5" rx="17.7" ry="17.7"/>
	<ellipse transform="matrix(0.5934 -0.8049 0.8049 0.5934 -533.2951 925.1669)" cx="649.1" cy="990.4" rx="17.7" ry="17.7"/>
	<ellipse transform="matrix(0.4131 -0.9107 0.9107 0.4131 -479.3903 1237.3481)" cx="720.2" cy="990.6" rx="17.7" ry="17.7"/>
	<ellipse transform="matrix(0.2147 -0.9767 0.9767 0.2147 -332.86 1537.9207)" cx="789.9" cy="975.9" rx="17.7" ry="17.7"/>
	<ellipse transform="matrix(6.930434e-03 -1 1 6.930434e-03 -98.0283 1795.5721)" cx="855" cy="947.1" rx="17.7" ry="17.7"/>
	<ellipse transform="matrix(0.9796 -0.2011 0.2011 0.9796 -163.4559 202.073)" cx="912.7" cy="905.4" rx="17.7" ry="17.7"/>
	<ellipse transform="matrix(0.9163 -0.4004 0.4004 0.9163 -261.0411 455.8951)" cx="960.5" cy="852.6" rx="17.7" ry="17.7"/>
	<ellipse transform="matrix(0.8131 -0.5822 0.5822 0.8131 -274.3109 727.8292)" cx="996.2" cy="791.1" rx="17.7" ry="17.7"/>
	<ellipse transform="matrix(0.6743 -0.7385 0.7385 0.6743 -202.5158 987.6854)" cx="1018.4" cy="723.4" rx="17.7" ry="17.7"/>
	<ellipse transform="matrix(0.506 -0.8625 0.8625 0.506 -56.0803 1207.337)" cx="1026" cy="652.6" rx="17.7" ry="17.7"/>
	<ellipse transform="matrix(0.3156 -0.9489 0.9489 0.3156 145.1128 1364.811)" cx="1018.7" cy="581.8" rx="17.7" ry="17.7"/>
	<ellipse transform="matrix(0.1114 -0.9938 0.9938 0.1114 374.9244 1447.4128)" cx="996.8" cy="514.1" rx="17.7" ry="17.7"/>
	
		<ellipse transform="matrix(0.9952 -9.763245e-02 9.763245e-02 0.9952 -39.5679 96.0237)" cx="961.4" cy="452.3" rx="17.7" ry="17.7"/>
	<ellipse transform="matrix(0.9532 -0.3024 0.3024 0.9532 -77.9646 295.0705)" cx="913.9" cy="399.3" rx="17.7" ry="17.7"/>
	<ellipse transform="matrix(0.8695 -0.494 0.494 0.8695 -64.7306 469.6802)" cx="856.4" cy="357.3" rx="17.7" ry="17.7"/>
	<ellipse transform="matrix(0.7478 -0.664 0.664 0.7478 -18.3041 608.2566)" cx="791.4" cy="328.2" rx="17.7" ry="17.7"/>
	<path d="M689,0C309.1,0,0,309.1,0,689c0,133.6,38.3,263.2,110.7,374.7c70.6,108.7,169.8,195,287,249.8c16.6,7.4,43,27.8,51.4,42.1
		c0.3,0.7,0.6,1.4,0.9,1.9c0.4,0.8,0.8,1.6,1.2,2.3l0.2,0.4c4.5,7.4,12.8,14.6,24.5,21.2c20,11.3,49.1,20.5,84.2,26.6
		c5.9,1,12,2,18.2,2.8c9.6,1.3,19.7,2.5,30,3.4c21.8,1.9,45.3,2.9,69.9,2.9h14.2c36.2,0,69.8-2.1,99.9-6.3c35-4.8,65.4-12.6,88-22.4
		c3.5-1.5,6.8-3.1,9.9-4.7c3.1-1.6,6-3.2,8.6-4.9c9.5-5.9,16.4-12.2,20.4-18.8l0.3-0.6c0.3-0.6,0.7-1.2,1-1.8
		c0.3-0.6,0.6-1.3,0.9-1.9c7.7-12.8,33.2-30.8,51.6-39c246.1-111.4,405.1-357.9,405.1-628C1378.1,309.1,1069,0,689,0z
		 M1075.3,1237.6c-46.2,31.7-96.6,57.8-150.3,77.7c4-38.5,3.1-86.8,3.1-89.7c0-33.1,0-70.6,6.1-103.9
		c164.1-90.8,266-263.3,266-450.8c0-283.8-230.9-514.8-514.8-514.8c-283.8,0-514.8,230.9-514.8,514.8
		c0,187.4,101.8,359.8,265.8,450.6c6.2,33.3,6.2,70.8,6.2,103.9c-0.1,2.9-0.9,48.3,2.7,86.2c-62.6-24.1-119.8-56.2-170.7-95
		c-57.8-45.5-108.1-100.3-148.7-162.8C55.3,945.3,18.1,819.1,18.1,689c0-370,301-671,671-671c370,0,671,301,671,671
		C1360,909.3,1251.4,1113.4,1075.3,1237.6z M466.8,1350.8c-0.2-0.3-0.3-0.6-0.5-1c-0.2-0.5-0.4-1-0.6-1.5l-0.5-1
		c-1.8-3.1-4.1-6.3-6.8-9.6c-1.2-5.6-2.4-12.3-3.3-19.2c-3.5-31.3-3.8-73.3-3.4-92.8c0-34.3,0-73.2-6.7-107.8l-0.4-2.1l-1.9-1
		c-162.2-88.9-262.9-259-262.9-443.7c0-278.9,226.9-505.7,505.7-505.7s505.7,226.9,505.7,505.7c0,184.9-100.8,355-263.2,443.9
		l-1.9,1l-0.4,2.1c-6.7,34.6-6.7,73.4-6.7,107.7c0.4,20.2,0.1,64.5-3.8,96c-0.9,5.9-2,11.6-3,16.5c-2.7,3.1-5,6.1-6.7,9.2l-0.5,1
		c-0.2,0.5-0.4,1-0.7,1.5c-0.2,0.3-0.3,0.6-0.5,0.9l-0.2,0.3c-1.8,2.8-5.7,7.2-14.3,12.6c-2.2,1.4-4.7,2.8-7.4,4.2
		c-2.7,1.4-5.7,2.8-8.8,4.2c-21.1,9.2-49.9,16.4-83.3,21.1c-29.2,4-62,6.1-97.4,6.1h-14.2c-24,0-47-1-68.3-2.8
		c-10-0.9-19.8-2-29.1-3.3c-6-0.8-11.9-1.7-17.5-2.7c-41.8-7.3-65.7-17.4-78.4-24.6c-11.3-6.4-15.9-11.7-17.8-14.6L466.8,1350.8z
		 M446.4,1321.8c0.2,1.3,0.3,2.6,0.5,3.9c-2.4-2.2-5-4.4-7.6-6.6C441.6,1320,444,1320.9,446.4,1321.8z M923.8,1325.4
		c1.2-0.4,2.4-0.9,3.6-1.3c-1.3,1-2.6,2.1-3.8,3.1C923.7,1326.6,923.8,1326,923.8,1325.4z"/>
</g>
</svg>

