<?xml version="1.0" standalone="no"?>
<!DOCTYPE svg PUBLIC "-//W3C//DTD SVG 20010904//EN"
 "http://www.w3.org/TR/2001/REC-SVG-20010904/DTD/svg10.dtd">
<svg version="1.0" xmlns="http://www.w3.org/2000/svg"
 width="300.000000pt" height="300.000000pt" viewBox="0 0 300.000000 300.000000"
 preserveAspectRatio="xMidYMid meet">
<metadata>
Created by potrace 1.10, written by Peter Selinger 2001-2011
</metadata>
<g transform="translate(0.000000,300.000000) scale(0.050000,-0.050000)"
fill="#000000" stroke="none">
<path d="M3330 5632 c-372 -72 -955 -358 -1490 -731 -27 -19 -126 -87 -220
-151 -842 -579 -1126 -953 -1228 -1620 -17 -110 -58 -372 -91 -582 -74 -467
-82 -739 -21 -758 22 -7 73 -64 113 -126 241 -371 800 -777 1327 -966 163 -58
222 -93 332 -198 250 -238 1414 -7 1628 323 91 142 203 248 426 406 101 71
257 186 346 255 89 69 197 153 240 186 43 32 182 142 310 242 277 219 304 235
385 221 77 -13 213 135 318 347 79 158 94 595 30 880 -31 136 -71 414 -105
730 -61 566 -593 1221 -920 1133 -83 -22 -11 -72 97 -68 104 5 153 -10 153
-46 0 -15 18 -37 41 -49 22 -12 35 -31 28 -41 -6 -10 2 -19 19 -19 16 0 36
-10 44 -23 10 -16 5 -18 -14 -6 -24 14 -24 12 -1 -17 16 -19 37 -34 48 -34 25
0 70 -54 95 -115 11 -25 32 -45 48 -45 15 0 37 -27 49 -60 12 -33 30 -60 42
-60 12 0 21 -14 21 -31 0 -18 14 -45 30 -62 17 -17 26 -37 20 -46 -5 -9 11
-56 36 -104 34 -67 46 -129 51 -267 4 -99 16 -191 26 -204 31 -37 40 -163 15
-209 -12 -23 -13 -36 -2 -30 17 11 58 -228 47 -274 -3 -10 5 -29 18 -44 12
-14 19 -38 16 -53 -3 -14 15 -70 39 -124 139 -307 -132 -680 -938 -1292 -431
-327 -637 -478 -788 -579 -88 -58 -183 -122 -211 -142 -96 -65 -508 -258 -639
-298 -322 -98 -943 -136 -1071 -65 -21 12 -106 36 -189 53 -343 72 -797 333
-1166 671 -206 188 -393 534 -337 623 13 21 16 37 6 37 -10 0 -13 23 -8 50 5
27 19 50 30 50 11 0 15 23 10 50 -7 39 -1 50 28 50 20 0 37 9 37 19 0 11 -14
14 -31 8 -25 -10 -28 -2 -17 45 8 32 22 61 31 65 10 3 12 15 6 25 -6 10 -4 29
4 43 8 13 17 74 18 135 5 166 8 183 25 172 9 -5 13 14 9 44 -4 30 12 122 34
204 23 83 45 186 49 229 4 44 17 83 30 87 12 4 22 33 22 65 0 42 8 55 29 47
22 -9 27 4 22 58 -7 71 10 119 41 116 10 -1 18 5 18 13 1 31 34 65 52 54 10
-7 17 -3 13 7 -8 31 92 182 130 195 19 6 32 18 30 27 -10 31 125 162 167 162
28 0 39 9 31 28 -13 34 47 92 96 92 23 0 31 10 24 30 -7 17 -1 30 14 30 14 0
74 45 134 100 60 55 116 100 125 100 9 0 40 23 70 50 29 28 63 50 74 50 11 0
32 18 45 40 14 22 44 40 66 40 22 0 45 14 52 30 6 17 23 30 37 30 14 0 31 14
37 30 7 17 25 30 41 30 17 0 55 22 86 50 78 69 89 77 146 105 63 31 121 68
154 99 15 13 46 30 71 37 25 8 81 39 125 69 44 30 103 61 130 70 28 8 67 29
87 47 21 18 41 32 45 30 18 -8 88 20 88 35 0 10 13 18 29 18 15 0 54 10 85 23
31 13 61 25 66 27 6 2 24 9 40 15 72 28 248 56 360 58 123 2 403 -17 440 -29
57 -20 210 -57 240 -58 17 -1 39 -8 50 -16 11 -7 42 -8 69 -1 45 11 41 16 -50
55 -218 93 -669 142 -899 98z m-5 -4812 c10 0 12 8 6 19 -7 10 6 17 29 16 22
-2 40 -8 40 -14 -1 -36 -43 -64 -98 -65 -53 -2 -63 -9 -55 -39 6 -24 -1 -37
-22 -37 -18 0 -47 -13 -64 -29 -71 -64 -109 34 -39 101 32 30 58 49 58 41 0
-9 20 -1 44 16 29 20 51 24 64 11 11 -11 28 -20 37 -20z m-277 -115 c-8 -30
-17 -62 -22 -70 -5 -9 -96 -12 -202 -7 -107 5 -169 5 -139 -1 58 -10 78 -67
24 -67 -17 0 -26 9 -19 20 7 11 3 20 -8 20 -11 0 -24 -8 -30 -17 -13 -20 -268
-28 -299 -9 -30 19 -113 20 -113 2 0 -9 -10 -16 -21 -16 -12 0 -16 9 -9 20 7
11 -7 20 -30 20 -58 0 -45 66 14 70 24 2 40 -4 35 -12 -5 -8 0 -21 11 -28 11
-7 25 1 31 17 9 23 239 37 239 13 0 -29 115 -14 123 16 10 37 127 57 127 22 0
-9 27 -6 60 5 33 12 72 17 86 11 14 -5 43 3 64 18 62 46 93 35 78 -27z"/>
<path d="M3283 5459 c-294 -58 -939 -427 -1533 -876 -449 -341 -541 -494 -441
-734 53 -126 621 -548 897 -666 183 -78 604 -79 784 -2 223 96 1619 1080 1723
1215 175 227 76 455 -311 719 -438 299 -792 408 -1119 344z m297 -62 c51 -14
81 -39 69 -58 -6 -11 3 -20 20 -21 17 -2 40 -5 51 -8 11 -3 47 -6 80 -7 50 -3
60 -11 60 -53 0 -50 36 -66 71 -31 24 23 79 -18 79 -59 0 -22 23 -30 85 -30
51 0 89 -10 95 -26 6 -16 0 -21 -15 -14 -14 7 -2 -7 25 -31 28 -24 48 -53 44
-63 -3 -11 13 -13 34 -7 28 9 46 0 62 -30 13 -23 28 -38 34 -32 11 11 144 -80
171 -117 8 -11 16 -47 17 -80 2 -34 7 -45 12 -25 17 64 38 36 29 -39 -8 -73
-42 -126 -80 -126 -10 0 -29 -25 -40 -55 -26 -69 -112 -165 -148 -165 -14 0
-41 -16 -59 -35 -61 -64 -96 -87 -116 -75 -18 11 -29 -15 -22 -55 1 -8 -11
-15 -28 -15 -16 0 -48 -18 -71 -41 -22 -22 -48 -36 -57 -30 -9 5 -27 -13 -40
-42 -13 -30 -34 -47 -50 -40 -15 5 -47 -8 -70 -30 -24 -22 -70 -49 -102 -60
-33 -12 -60 -34 -60 -49 0 -15 -16 -28 -36 -28 -19 0 -65 -31 -101 -70 -36
-38 -94 -77 -129 -87 -42 -11 -63 -28 -61 -50 1 -20 -12 -33 -35 -33 -21 0
-38 -10 -38 -21 0 -12 -9 -16 -20 -9 -11 7 -20 1 -20 -12 0 -14 -5 -19 -12
-13 -17 17 -84 -52 -72 -73 6 -11 -4 -13 -23 -6 -18 7 -33 5 -33 -5 0 -15 -56
-43 -100 -51 -5 -1 -29 -12 -52 -25 -24 -13 -48 -18 -55 -11 -7 7 -13 -1 -13
-18 0 -54 -411 -83 -442 -32 -17 27 -258 40 -258 15 0 -11 11 -19 23 -19 13 0
17 -7 9 -15 -9 -8 -27 1 -42 21 -17 24 -31 29 -40 14 -9 -14 -27 -6 -54 24
-46 53 -1 82 55 35 16 -13 29 -16 29 -6 0 26 -79 70 -101 56 -10 -6 -19 0 -19
15 -1 19 -6 18 -20 -4 -17 -27 -29 -15 -22 25 3 23 -54 18 -69 -7 -9 -13 -29
-6 -58 21 -24 23 -48 38 -52 33 -5 -4 -22 6 -37 22 -24 27 -22 29 15 17 59
-19 55 20 -7 61 -27 18 -45 40 -40 49 6 9 2 22 -8 28 -11 6 -24 5 -29 -4 -12
-20 29 -75 67 -90 23 -9 22 -12 -6 -13 -57 -3 -118 38 -106 70 7 18 -3 28 -30
28 -58 0 -118 36 -118 72 0 17 -8 25 -18 19 -10 -6 -23 4 -30 21 -9 23 -4 29
18 21 21 -8 30 1 30 28 0 38 -2 38 -51 7 -28 -19 -49 -26 -46 -16 7 27 -23
108 -41 108 -23 0 0 124 33 174 15 24 29 51 30 60 5 58 24 87 49 77 15 -6 23
-3 17 7 -6 10 5 30 23 45 23 18 29 19 19 2 -10 -16 -5 -21 14 -13 16 6 41 38
54 71 20 48 35 59 72 52 30 -6 48 0 50 18 1 15 3 38 5 52 1 14 23 22 49 18 30
-4 42 2 34 15 -7 12 -4 22 8 22 11 0 21 14 21 30 0 17 8 30 18 30 28 0 63 -52
47 -71 -8 -10 1 -6 20 9 26 20 30 34 15 52 -19 23 9 49 51 49 14 0 55 45 81
92 14 24 42 38 73 37 36 -2 48 6 41 25 -10 25 25 36 87 29 12 -2 21 12 20 30
-5 57 105 126 130 81 23 -41 84 17 72 68 -3 13 8 29 23 34 15 6 22 2 16 -8 -6
-10 6 -20 27 -22 21 -1 43 6 50 16 6 11 -5 20 -25 20 -30 1 -28 5 9 23 25 12
45 30 45 39 0 9 14 17 30 17 17 0 30 8 30 18 0 10 27 27 60 39 36 13 60 13 60
2 0 -10 -9 -19 -20 -19 -11 0 -20 -14 -20 -32 0 -24 16 -18 67 25 37 31 63 64
59 72 -8 15 23 23 69 16 14 -1 25 8 25 21 0 15 8 17 25 4 48 -38 94 -46 82
-15 -6 16 -26 30 -44 31 -21 1 -24 5 -8 11 14 6 20 19 14 29 -7 11 9 15 38 10
29 -5 61 3 74 19 13 16 31 24 39 19 9 -5 42 4 73 21 52 28 193 31 287 6z
m1140 -777 c0 -33 -9 -60 -20 -60 -22 0 -28 86 -7 107 23 22 27 15 27 -47z
m-30 -129 c-5 -12 -16 -37 -22 -56 -7 -19 -26 -35 -42 -35 -21 0 -26 11 -16
35 8 19 15 44 16 56 0 11 17 20 38 20 20 0 32 -9 26 -20z m-161 -181 c-22 -16
-51 -29 -65 -29 -15 -1 -22 -8 -16 -18 6 -9 -39 -47 -99 -85 -60 -37 -109 -75
-109 -84 0 -9 -9 -11 -20 -4 -11 7 -20 3 -20 -9 0 -11 -13 -21 -30 -21 -16 0
-30 -9 -30 -20 0 -11 -9 -20 -20 -20 -37 0 -20 41 25 61 50 22 122 73 256 181
87 71 141 100 158 85 4 -4 -9 -21 -30 -37z m-461 -319 c-7 -16 -30 -35 -51
-42 -22 -7 -36 -23 -31 -36 5 -13 -11 -23 -39 -23 -67 0 -58 25 23 64 39 18
70 41 70 50 0 9 9 16 19 16 11 0 15 -13 9 -29z m-248 -192 c0 -11 -11 -17 -25
-14 -14 3 -23 -6 -20 -19 3 -14 -8 -20 -25 -13 -39 15 -38 27 5 58 36 26 65
21 65 -12z m-180 -90 c0 -6 -24 -33 -53 -60 -54 -50 -107 -65 -107 -29 0 11
14 20 30 20 17 0 46 18 65 40 32 38 65 53 65 29z"/>
<path d="M3420 5258 c-49 -14 -49 -14 10 -18 33 -3 67 -4 75 -2 8 1 15 -5 15
-15 0 -9 12 -16 27 -16 25 0 39 50 15 56 -45 9 -99 8 -142 -5z"/>
<path d="M3445 4795 c5 -14 26 -28 47 -32 21 -4 52 -20 70 -35 17 -15 37 -22
44 -15 23 23 -29 67 -78 67 -27 0 -48 9 -48 20 0 11 -10 20 -22 20 -12 0 -18
-11 -13 -25z"/>
<path d="M3480 4680 c12 -22 35 -40 51 -40 16 0 45 -18 64 -40 44 -52 73 -52
45 0 -12 22 -43 45 -71 52 -27 7 -49 25 -49 40 0 15 -14 28 -31 28 -24 0 -26
-8 -9 -40z"/>
<path d="M2993 4367 c-23 -24 -14 -44 24 -56 49 -16 103 6 103 41 0 29 -101
40 -127 15z"/>
<path d="M4291 5442 c-18 -29 84 -68 147 -56 58 12 166 -23 151 -47 -12 -20
77 -47 114 -35 14 5 -28 39 -92 76 -123 70 -294 103 -320 62z"/>
<path d="M1060 3510 c0 -38 72 -83 160 -100 126 -24 140 -32 179 -107 40 -79
77 -104 220 -146 71 -22 99 -44 140 -114 51 -87 121 -141 186 -142 58 -1 39
37 -34 67 -46 19 -83 56 -111 111 -43 86 -73 105 -216 141 -71 18 -96 38 -140
111 -48 79 -64 90 -160 110 -59 13 -122 40 -140 61 -39 45 -84 50 -84 8z"/>
<path d="M931 3362 c-26 -43 61 -105 168 -119 99 -12 113 -20 171 -103 69 -98
131 -139 212 -140 55 0 117 -58 154 -145 23 -55 138 -140 173 -129 42 14 28
48 -32 75 -43 19 -82 63 -117 129 -46 85 -65 102 -132 117 -133 29 -165 49
-218 133 -54 85 -114 120 -208 120 -31 0 -72 18 -92 40 -39 44 -62 50 -79 22z"/>
<path d="M480 2210 c0 -28 43 -90 62 -90 35 0 10 89 -27 96 -19 4 -35 1 -35
-6z"/>
<path d="M784 1985 c16 -19 36 -51 42 -70 7 -19 27 -35 43 -35 17 0 31 -9 31
-20 0 -11 18 -20 40 -20 62 0 48 25 -59 106 -108 80 -145 95 -97 39z"/>
<path d="M885 1688 c19 -23 29 -47 22 -55 -8 -7 -5 -13 6 -13 11 0 39 -18 63
-41 40 -37 49 -38 86 -12 l41 29 -41 13 c-23 8 -42 26 -42 40 0 15 -14 32 -32
39 -45 17 -52 15 -37 -10 8 -12 -12 -6 -44 14 -57 36 -57 36 -22 -4z"/>
<path d="M1200 1660 c48 -68 111 -108 140 -90 37 23 21 49 -60 100 -105 66
-132 63 -80 -10z"/>
<path d="M1440 1554 c0 -77 385 -380 396 -313 4 21 -6 56 -21 78 -68 97 -375
289 -375 235z"/>
<path d="M2037 1058 c-4 -67 0 -126 8 -131 8 -5 15 50 15 122 0 165 -14 171
-23 9z"/>
<path d="M1884 1128 c-33 -36 -48 -108 -24 -108 25 0 64 76 56 109 -5 22 -11
22 -32 -1z"/>
</g>
</svg>
