<svg height="960" viewBox="0 0 960 960" width="960" xmlns="http://www.w3.org/2000/svg"><path d="m510.072711 4.43977284.536289.08522716.068067.00062578 1.520724.04170481c110.232644 3.45518865 197.802209 93.82573701 197.802209 204.12325441v536.207213c0 26.021866-4.687249 51.062451-13.30647 74.262173-7.95785 25.696874-22.063829 48.780404-40.585294 67.474695-33.128117 37.26856-79.279332 62.98426-132.008186 69.812883l-8.018146 1.038386c-24.99349 3.236768-49.995929 1.252202-73.716418-5.648482l-1.117486-.328453-.063889-.015502c-.47561-.119799-.951129-.248713-1.426377-.386858l-.712648-.214156-10.024876-3.111461c-12.060392-3.762292-21.887422-6.903348-29.538746-9.443859l-1.131388-.376575c-.743389-.248051-1.465051-.490107-2.165042-.726188l-.550216-.185862c-5.917202-2.00192-11.70391-4.093187-17.360041-6.274421l-.863777-.336118-.605668-.192011c-66.239598-21.51618-115.263314-78.974514-125.045516-149.151636l-.287174-2.152227c-.980774-7.693469-1.472642-15.441406-1.472642-23.197151v-551.038928c0-101.780079 76.970209-186.6050927 177.230231-197.20657055l1.638769-.16112924-.357.03565279.253833-.03564167c.855801-.11132853 1.716488-.19512483 2.580776-.25097058l.648871-.03663705.14652-.0067507 1.027471-.08309704c4.369552-.33048226 8.75955-.51767534 13.164868-.56044874l.938661-.00445422 55.127048-2.35942621c2.612501-.11179556 5.178062.02981246 7.672663.40319905zm-156.072711 184.56022716v586c0 79.529004 63.319728 142.778683 141.428571 141.272112l30.814693-.591832c9.160028-1.579694 18.05437-3.865947 26.629524-6.79787-7.731129 1.278208-15.639912 2.013073-23.687527 2.159496-89.370882 1.62607-161.792404-70.685843-161.792404-161.211211v-534.662864c0-88.714523 69.553107-159.9397221 156.450072-161.2265182l2.665474-.0174893 2.675976.0265383c19.897617.3611516 38.946548 4.3195897 56.532235 11.2463269-13.300993-7.4234344-27.750005-13.05403-43.02599-16.5604859-.040389.002517-.07979.0017409-.119195.0009808l-47.142858-.9092959c-78.108843-1.5065708-141.428571 61.7431083-141.428571 141.2721123zm33.392857 26.167831v534.662864c0 79.411788 63.319728 142.635682 141.428572 141.214521 68.159264-1.240133 125.05715-50.682457 138.446617-115.365204 1.795357-10.008198 2.731954-20.297153 2.731954-30.782214l.004634-534.83221c-4.346461-74.571606-65.894623-134.7519947-141.183205-136.1185198-78.108844-1.4177142-141.428572 61.8089748-141.428572 141.2207628zm22.738417-164.1473516-2.182968.558435c-67.880991 17.8411165-117.948306 79.6363226-117.948306 153.1271326v551.038928c0 6.064546.384612 12.122986 1.151521 18.138831 6.812013 53.43534 42.202635 96.233686 88.859889 114.995987-28.471582-29.097157-46.01141-69.273055-46.01141-113.879793v-586c0-58.731632 30.406647-109.7820608 76.131274-137.9795206zm134.28845 568.1371876c21.433348 1.123274 36.319335 23.510402 34.988818 48.898186-1.330518 25.387784-18.47505 46.096264-39.908398 44.97299-21.433347-1.123274-36.319335-23.510403-34.988817-48.898187 1.330517-25.387784 18.475049-46.096264 39.908397-44.972989zm-19.935807 46.019708c-.808404 15.425278 7.162262 27.412412 16.062946 27.878877 8.900685.466465 18.080684-10.62184 18.889088-26.047118.808405-15.425278-7.162261-27.412412-16.062946-27.878877s-18.080683 10.621841-18.889088 26.047118zm19.935807-168.796772c21.433348 1.123275 36.319335 23.510403 34.988818 48.898187-1.330518 25.387784-18.47505 46.096264-39.908398 44.97299-21.433347-1.123274-36.319335-23.510403-34.988817-48.898187 1.330517-25.387784 18.475049-46.096264 39.908397-44.97299zm-19.935807 46.019709c-.808404 15.425278 7.162262 27.412412 16.062946 27.878877 8.900685.466465 18.080684-10.62184 18.889088-26.047118.808405-15.425278-7.162261-27.412412-16.062946-27.878877s-18.080683 10.621841-18.889088 26.047118zm19.935807-168.796772c21.433348 1.123274 36.319335 23.510403 34.988818 48.898187-1.330518 25.387784-18.47505 46.096264-39.908398 44.97299-21.433347-1.123275-36.319335-23.510403-34.988817-48.898187 1.330517-25.387784 18.475049-46.096264 39.908397-44.97299zm-19.935807 46.019709c-.808404 15.425278 7.162262 27.412412 16.062946 27.878877 8.900685.466465 18.080684-10.621841 18.889088-26.047118.808405-15.425278-7.162261-27.412412-16.062946-27.878877s-18.080683 10.62184-18.889088 26.047118zm19.935807-168.796772c21.433348 1.123274 36.319335 23.510403 34.988818 48.898187-1.330518 25.387784-18.47505 46.096264-39.908398 44.972989-21.433347-1.123274-36.319335-23.510402-34.988817-48.898186 1.330517-25.387784 18.475049-46.096264 39.908397-44.97299zm-19.935807 46.019709c-.808404 15.425278 7.162262 27.412412 16.062946 27.878877 8.900685.466465 18.080684-10.621841 18.889088-26.047119.808405-15.425277-7.162261-27.412411-16.062946-27.878876s-18.080683 10.62184-18.889088 26.047118z"/></svg>