<?xml version="1.0" standalone="no"?>
<!DOCTYPE svg PUBLIC "-//W3C//DTD SVG 20010904//EN"
 "http://www.w3.org/TR/2001/REC-SVG-20010904/DTD/svg10.dtd">
<svg version="1.0" xmlns="http://www.w3.org/2000/svg"
 width="667.000000pt" height="666.000000pt" viewBox="0 0 667.000000 666.000000"
 preserveAspectRatio="xMidYMid meet">

<g transform="translate(0.000000,666.000000) scale(0.100000,-0.100000)"
fill="#000000" stroke="#000000" stroke-width="30">
<path d="M3110 5479 c-750 -82 -1384 -519 -1720 -1184 -155 -306 -230 -624
-230 -973 0 -346 72 -652 226 -960 119 -239 249 -418 436 -598 341 -328 781
-536 1258 -594 123 -15 381 -12 517 5 596 77 1138 400 1488 890 563 787 533
1853 -75 2615 -78 97 -254 272 -350 347 -288 224 -626 372 -995 434 -140 23
-425 33 -555 18z m520 -25 c609 -89 1161 -440 1492 -949 350 -537 445 -1194
262 -1802 -231 -769 -882 -1353 -1668 -1497 -362 -67 -712 -42 -1068 74 -549
180 -1003 575 -1259 1098 -296 602 -291 1316 13 1914 111 218 227 378 402 554
481 480 1158 706 1826 608z"/>
<path d="M3257 5322 c-35 -38 -16 -101 34 -117 54 -17 102 73 63 116 -22 24
-76 25 -97 1z"/>
<path d="M3074 5035 c-669 -98 -1237 -591 -1418 -1233 -52 -181 -61 -253 -61
-482 0 -185 3 -231 23 -329 142 -702 671 -1231 1373 -1373 98 -20 144 -23 329
-23 229 0 301 9 482 61 442 125 841 452 1052 863 135 264 195 511 196 800 0
349 -98 670 -297 971 -106 160 -303 357 -463 463 -175 116 -371 203 -565 251
-182 45 -461 58 -651 31z m592 -29 c603 -128 1079 -547 1283 -1130 99 -281
118 -641 50 -936 -33 -142 -68 -238 -140 -385 -205 -418 -560 -725 -1004 -870
-202 -66 -294 -80 -540 -80 -233 0 -345 16 -528 76 -99 32 -291 121 -372 172
-284 178 -501 421 -645 720 -70 145 -111 266 -142 419 -31 153 -33 479 -4 633
43 234 155 499 294 695 85 121 280 315 402 403 109 77 338 193 455 231 221 70
337 86 580 81 156 -3 212 -8 311 -29z"/>
<path d="M4217 4423 c-71 -119 -197 -341 -197 -347 0 -3 15 -6 34 -6 34 0 35
2 139 183 145 254 134 227 93 227 -31 0 -38 -5 -69 -57z"/>
<path d="M2257 4438 c10 -18 64 -111 118 -205 l100 -173 37 0 37 0 -117 205
-117 204 -38 1 -39 0 19 -32z"/>
<path d="M2515 2508 c-54 -95 -108 -188 -118 -205 l-19 -33 39 0 38 1 117 204
117 205 -37 0 -37 0 -100 -172z"/>
<path d="M3952 2673 c3 -4 56 -97 118 -205 111 -196 113 -198 146 -198 19 0
34 3 34 8 -1 4 -51 95 -113 202 l-113 195 -38 3 c-21 2 -36 0 -34 -5z"/>
</g>

<g transform="rotate(130 350 100) translate(225) scale(0.3)"
fill="#000000" stroke="#000000" stroke-width="30">

<path id="XMLID_27_" d="M15,180h263.787l-49.394,49.394c-5.858,5.857-5.858,15.355,0,21.213C232.322,253.535,236.161,255,240,255
	s7.678-1.465,10.606-4.394l75-75c5.858-5.857,5.858-15.355,0-21.213l-75-75c-5.857-5.857-15.355-5.857-21.213,0
	c-5.858,5.857-5.858,15.355,0,21.213L278.787,150H15c-8.284,0-15,6.716-15,15S6.716,180,15,180z"/>
  </g>
</svg>
