<?xml version="1.0" encoding="utf-8"?>
<!-- Generator: Adobe Illustrator 28.0.0, SVG Export Plug-In . SVG Version: 6.00 Build 0)  -->
<svg version="1.1"
	 id="Layer_1" xmlns:sodipodi="http://sodipodi.sourceforge.net/DTD/sodipodi-0.dtd" xmlns:inkscape="http://www.inkscape.org/namespaces/inkscape" xmlns:svg="http://www.w3.org/2000/svg" xmlns:rdf="http://www.w3.org/1999/02/22-rdf-syntax-ns#" xmlns:cc="http://creativecommons.org/ns#" xmlns:dc="http://purl.org/dc/elements/1.1/"
	 xmlns="http://www.w3.org/2000/svg" xmlns:xlink="http://www.w3.org/1999/xlink" x="0px" y="0px" viewBox="0 0 667 666"
	 style="enable-background:new 0 0 667 666;" xml:space="preserve">
<style type="text/css">
	.st0{fill:none;stroke:#000000;stroke-width:3;}
	.st1{fill:none;stroke:#000000;}
	.st2{fill:none;stroke:#000000;stroke-width:6;}
	.st3{fill:none;stroke:#000000;stroke-width:2;}
</style>
<sodipodi:namedview  bordercolor="#666666" borderopacity="1" gridtolerance="10" guidetolerance="10" id="namedview315" inkscape:current-layer="Layer_1" inkscape:cx="272.53908" inkscape:cy="399.51817" inkscape:document-rotation="0" inkscape:pageopacity="0" inkscape:pageshadow="2" inkscape:window-height="987" inkscape:window-maximized="1" inkscape:window-width="1680" inkscape:window-x="-8" inkscape:window-y="-8" inkscape:zoom="1.0022655" objecttolerance="10" pagecolor="#ffffff" showgrid="false">
	</sodipodi:namedview>
<g>
	<path id="path908" sodipodi:nodetypes="sssss" class="st0" d="M331.3,191.8c-75.6-0.3-137.8,57.3-137.6,147.6
		c0.1,85.4,67.8,135.2,139.6,134.9c84.8-0.4,140.1-64,140-138.8C473.3,244.2,399.4,192.1,331.3,191.8L331.3,191.8z"/>
	<path id="path912" class="st1" d="M341,311.7l-28.1,6.1l-5.3,26.6l19,23.6l28.9-7.6l3.8-30.4L341,311.7z"/>
	<path id="path916" class="st1" d="M341,311.7l5.3-34.2l18.2-3.8l33.4,31.1l-7.6,20.5l-31.1,4.6"/>
	<path id="path918" class="st1" d="M390.4,325.4l16,18.2l-24.3,41l-26.6-24.3"/>
	<path id="path920" class="st1" d="M382,384.7l-16.7,16l-18.2,16L319,399.1l7.6-31.1"/>
	<path id="path922" class="st1" d="M319,399.1l-17.5,7.6l-31.1-30.4l8.4-25.8l28.9-6.1"/>
	<path id="path924" class="st1" d="M278.7,350.5l-18.2-15.2l9.9-22.8l21.3-12.2l21.3,17.5"/>
	<path id="path926" class="st1" d="M291.6,300.3l11.4-21.3l21.3-9.1l22,7.6"/>
	<path id="path928" class="st1" d="M364.6,273.7l8.4-28.9l-35.7-13.7l-20.5,14.4l7.6,24.3"/>
	<path id="path930" class="st1" d="M316.7,245.6l-23.6-7.6l-29.6,31.9l19,9.1H303"/>
	<path id="path932" class="st1" d="M263.5,269.9l-31.9,31.9l4.6,26.6l24.3,6.8"/>
	<path id="path934" class="st1" d="M270.4,312.5L243,291.2"/>
	<path id="path936" class="st1" d="M236.2,328.4l-10.6,16.7l19,38l25.8-6.8"/>
	<path id="path938" class="st1" d="M244.5,383.1l24.3,41.8l25.1-1.5l7.6-16.7"/>
	<path id="path940" class="st1" d="M293.9,423.4l14.4,17.5l47.9-3l-9.1-21.3"/>
	<path id="path942" class="st1" d="M356.2,437.8l34.2-9.1l12.2-24.3L382,384.7"/>
	<path id="path944" class="st1" d="M402.6,404.4l22.8-15.2l7.6-35.7l-26.6-9.9"/>
	<path id="path946" class="st1" d="M432.9,353.5l7.6-44.8L419.3,292L398,304.9"/>
	<path id="path948" class="st1" d="M419.3,292l-3.8-22.8l-42.5-24.3"/>
	<path id="path950" class="st1" d="M293.2,238l-6.8-19l-45.6,25.1l-25.1,43.3l16,14.4"/>
	<path id="path952" class="st1" d="M215.7,287.4l-12.2,36.5l3,23.6l19-2.3"/>
	<path id="path954" class="st1" d="M206.6,347.4l15.2,48.6l28.9,36.5l18.2-7.6"/>
	<path id="path956" class="st1" d="M250.6,432.5l22,19l30.4,9.9l5.3-20.5"/>
	<path id="path958" class="st1" d="M303,461.4l41,3.8l29.6-4.6l26.6-12.9l-9.9-19"/>
	<path id="path960" class="st1" d="M400.3,447.7l41-31.9l6.8-16.7l-22.8-9.9"/>
	<path id="path962" class="st1" d="M448.1,399.1l14.4-41.8l-2.3-48.6h-19.8"/>
	<path id="path964" class="st1" d="M460.3,308.7l-12.2-31.1l-16-22.8l-16.7,14.4"/>
	<path id="path966" class="st1" d="M432.2,254.7l-28.1-26.6l-47.9-19l-19.8,3l0.8,19"/>
	<path id="path968" class="st1" d="M336.5,212.2l-29.6-6.1L286.3,219"/>
</g>
<circle class="st2" cx="333.5" cy="333" r="200.9"/>
<circle class="st3" cx="333.5" cy="333" r="191.9"/>
</svg>
