<?xml version="1.0" encoding="UTF-8" standalone="no"?>
<svg
   xmlns:dc="http://purl.org/dc/elements/1.1/"
   xmlns:cc="http://creativecommons.org/ns#"
   xmlns:rdf="http://www.w3.org/1999/02/22-rdf-syntax-ns#"
   xmlns:svg="http://www.w3.org/2000/svg"
   xmlns="http://www.w3.org/2000/svg"
   xmlns:sodipodi="http://sodipodi.sourceforge.net/DTD/sodipodi-0.dtd"
   xmlns:inkscape="http://www.inkscape.org/namespaces/inkscape"
   inkscape:version="1.0 (4035a4fb49, 2020-05-01)"
   sodipodi:docname="icon.svg"
   xml:space="preserve"
   style="enable-background:new 0 0 667 666;"
   viewBox="0 0 667 666"
   y="0px"
   x="0px"
   id="Layer_1"
   version="1.1"><metadata
   id="metadata319"><rdf:RDF><cc:Work
       rdf:about=""><dc:format>image/svg+xml</dc:format><dc:type
         rdf:resource="http://purl.org/dc/dcmitype/StillImage" /><dc:title /></cc:Work></rdf:RDF></metadata><defs
   id="defs317"><marker
     inkscape:isstock="true"
     style="overflow:visible"
     id="Arrow1Send"
     refX="0"
     refY="0"
     orient="auto"
     inkscape:stockid="Arrow1Send"><path
       transform="matrix(-0.2,0,0,-0.2,-1.2,0)"
       style="fill:#000000;fill-opacity:1;fill-rule:evenodd;stroke:#000000;stroke-width:1.00000003pt;stroke-opacity:1"
       d="M 0,0 5,-5 -12.5,0 5,5 Z"
       id="path4714"
       inkscape:connector-curvature="0" /></marker><clipPath
     id="clipPath69-0"><path
       d="m 409.441,126.252 v -43.63 h 147.796 v 43.63"
       id="path71-2"
       inkscape:connector-curvature="0" /></clipPath><clipPath
     id="clipPath101-1"><path
       d="m 409.441,126.252 v -43.63 h 147.796 v 43.63"
       id="path103-6"
       inkscape:connector-curvature="0" /></clipPath><clipPath
     id="clipPath69"><path
       d="m 409.441,126.252 v -43.63 h 147.796 v 43.63"
       id="path71"
       inkscape:connector-curvature="0" /></clipPath><clipPath
     id="clipPath101"><path
       d="m 409.441,126.252 v -43.63 h 147.796 v 43.63"
       id="path103"
       inkscape:connector-curvature="0" /></clipPath></defs><sodipodi:namedview
   inkscape:document-rotation="0"
   inkscape:current-layer="Layer_1"
   inkscape:window-maximized="1"
   inkscape:window-y="-8"
   inkscape:window-x="-8"
   inkscape:cy="304.4771"
   inkscape:cx="317.37082"
   inkscape:zoom="1.0022655"
   showgrid="false"
   id="namedview315"
   inkscape:window-height="987"
   inkscape:window-width="1680"
   inkscape:pageshadow="2"
   inkscape:pageopacity="0"
   guidetolerance="10"
   gridtolerance="10"
   objecttolerance="10"
   borderopacity="1"
   bordercolor="#666666"
   pagecolor="#ffffff" />
<style
   id="style2"
   type="text/css">
	.st0{fill:none;stroke:#000000;stroke-width:2;stroke-linecap:round;stroke-linejoin:round;stroke-miterlimit:10;}
</style>


<path
   sodipodi:nodetypes="csasc"
   id="path883"
   d="m 271.48905,491.79084 v 26.11226 c 0,3.49393 39.98042,3.82209 60.11774,3.73032 19.90162,-0.0907 59.24633,0.23403 59.32152,-4.22768 l 0.39812,-23.62539"
   style="fill:none;stroke:#000000;stroke-width:4;stroke-linecap:butt;stroke-linejoin:miter;stroke-miterlimit:4;stroke-dasharray:none;stroke-opacity:1" /><path
   sodipodi:nodetypes="cssssc"
   id="path885"
   d="m 275.47105,520.83579 0.46174,11.82045 c 0.0712,1.8176 7.01643,3.88414 11.54353,3.85718 83.57502,-0.49768 0,0 83.57502,-0.49768 5.71986,-0.0341 16.33301,-1.15262 16.3918,-2.73738 l 0.46173,-12.44257"
   style="fill:none;stroke:#000000;stroke-width:4;stroke-linecap:butt;stroke-linejoin:miter;stroke-miterlimit:4;stroke-dasharray:none;stroke-opacity:1" /><path
   sodipodi:nodetypes="ccaccaccaccacsacaccaccaccaccacc"
   id="path887"
   d="m 282.67684,536.50015 v 4.71901 c 0,0 -7.4053,2.53214 -7.26489,4.47062 0.12928,1.78451 7.26489,3.84971 7.26489,3.84971 l -0.24216,2.85624 c 0,0 -7.2649,1.96928 -7.2649,3.72553 3e-5,2.10746 8.71789,4.47061 8.71789,4.47061 v 3.60134 c 0,0 -8.07826,2.16673 -7.99138,4.09808 0.0857,1.90409 8.23353,3.84969 8.23353,3.84969 l -0.48433,4.34643 c 0,0 -7.98503,1.9755 -7.99137,3.84971 -0.007,2.10829 8.96002,4.34645 8.96002,4.34645 0,0 0,0 -0.72647,8.5687 -0.21979,2.59248 31.23977,2.32496 46.97959,2.48368 15.28403,0.15412 45.76879,-1.49021 45.76879,-1.49021 0,0 8.9929,-1.62553 9.20218,-3.60135 0.24776,-2.33891 -9.92866,-4.84317 -9.92866,-4.84317 v -3.60133 c 0,0 10.86548,-1.88764 10.89734,-4.22226 0.0323,-2.35981 -10.89734,-4.34644 -10.89734,-4.34644 v -3.84972 c 0,0 10.189,-1.02344 10.65517,-3.10458 0.48889,-2.18268 -9.44434,-4.47063 -9.44434,-4.47063 v -3.47715 c 0,0 10.25456,-1.45594 10.41299,-3.60134 0.16739,-2.26755 -10.41299,-4.22225 -10.41299,-4.22225 l 0.24212,-3.22879 c 0,0 10.33213,-1.55556 10.41302,-3.72553 0.0793,-2.12731 -9.92868,-3.8497 -9.92868,-3.8497 v -4.09806"
   style="fill:none;stroke:#000000;stroke-width:4;stroke-linecap:butt;stroke-linejoin:miter;stroke-miterlimit:4;stroke-dasharray:none;stroke-opacity:1" /><path
   sodipodi:nodetypes="cac"
   id="path889"
   d="m 282.67684,541.21916 c 0,0 30.83897,0.29903 46.25314,0.12418 16.3216,-0.18512 48.91688,-1.24184 48.91688,-1.24184"
   style="fill:none;stroke:#000000;stroke-width:4;stroke-linecap:butt;stroke-linejoin:miter;stroke-miterlimit:4;stroke-dasharray:none;stroke-opacity:1" /><path
   id="path891"
   d="m 282.67684,549.53949 47.94827,-0.37255 46.73741,-1.49021"
   style="fill:none;stroke:#000000;stroke-width:4;stroke-linecap:butt;stroke-linejoin:miter;stroke-miterlimit:4;stroke-dasharray:none;stroke-opacity:1" /><path
   sodipodi:nodetypes="cac"
   id="path893"
   d="m 282.43468,552.39573 c 0,0 30.68006,-0.0116 46.01095,-0.24838 16.23763,-0.25087 48.67477,-1.24183 48.67477,-1.24183"
   style="fill:none;stroke:#000000;stroke-width:4;stroke-linecap:butt;stroke-linejoin:miter;stroke-miterlimit:4;stroke-dasharray:none;stroke-opacity:1" /><path
   sodipodi:nodetypes="cac"
   id="path895"
   d="m 283.88767,560.59187 c 0,0 28.73647,-0.58202 43.10498,-0.86929 16.70902,-0.33405 50.12775,-0.99347 50.12775,-0.99347"
   style="fill:none;stroke:#000000;stroke-width:4;stroke-linecap:butt;stroke-linejoin:miter;stroke-miterlimit:4;stroke-dasharray:none;stroke-opacity:1" /><path
   sodipodi:nodetypes="cac"
   id="path897"
   d="m 283.88767,564.19321 c 0,0 31.65321,-0.15677 47.46393,-0.49674 15.27355,-0.32841 45.7688,-1.49021 45.7688,-1.49021"
   style="fill:none;stroke:#000000;stroke-width:4;stroke-linecap:butt;stroke-linejoin:miter;stroke-miterlimit:4;stroke-dasharray:none;stroke-opacity:1" /><path
   sodipodi:nodetypes="cac"
   id="path899"
   d="m 284.12982,572.14098 c 0,0 30.36649,-0.10907 45.52665,-0.49675 15.44596,-0.39496 46.2531,-1.86276 46.2531,-1.86276"
   style="fill:none;stroke:#000000;stroke-width:4;stroke-linecap:butt;stroke-linejoin:miter;stroke-miterlimit:4;stroke-dasharray:none;stroke-opacity:1" /><path
   sodipodi:nodetypes="cac"
   id="path901"
   d="m 283.64549,576.48741 c 0,0 31.50297,-0.25316 47.22177,-0.74508 15.04867,-0.47097 45.04231,-2.11114 45.04231,-2.11114"
   style="fill:none;stroke:#000000;stroke-width:4;stroke-linecap:butt;stroke-linejoin:miter;stroke-miterlimit:4;stroke-dasharray:none;stroke-opacity:1" /><path
   sodipodi:nodetypes="cac"
   id="path903"
   d="m 284.61414,584.68357 c 0,0 31.66544,0.19492 47.46394,-0.24837 14.66063,-0.41138 43.83149,-2.23531 43.83149,-2.23531"
   style="fill:none;stroke:#000000;stroke-width:4;stroke-linecap:butt;stroke-linejoin:miter;stroke-miterlimit:4;stroke-dasharray:none;stroke-opacity:1" /><path
   sodipodi:nodetypes="ccsssc"
   id="path907"
   d="m 289.21525,594.97107 0.14189,2.06408 c 0,0 21.58709,18.35131 26.01164,18.42661 31.96553,0.544 0,0 31.96553,0.544 6.40595,0.10907 28.33309,-17.40803 28.33309,-17.40803 1.37428,-0.84436 0.96865,-4.35199 0.96865,-4.35199"
   style="fill:none;stroke:#000000;stroke-width:4;stroke-linecap:butt;stroke-linejoin:miter;stroke-miterlimit:4;stroke-dasharray:none;stroke-opacity:1" /><path
   sodipodi:nodetypes="caac"
   id="path911"
   d="m 252.0124,439.98914 c 0,0 6.82223,-2.96087 10.46388,-3.3415 43.22458,-4.51788 86.35495,16.02235 129.71811,13.12205 7.19434,-0.48119 21.0398,-5.02373 21.0398,-5.02373"
   style="fill:none;stroke:#000000;stroke-width:2.66666667;stroke-linecap:butt;stroke-linejoin:miter;stroke-miterlimit:4;stroke-dasharray:none;stroke-opacity:1" /><path
   sodipodi:nodetypes="caac"
   id="path913"
   d="m 414.81434,433.26425 c 0,0 -15.96152,5.78266 -24.32229,6.41156 -41.6609,3.13375 -83.01314,-17.33929 -124.6111,-13.4585 -5.28177,0.49275 -15.23297,4.60606 -15.23297,4.60606"
   style="fill:none;stroke:#000000;stroke-width:2.66666667;stroke-linecap:butt;stroke-linejoin:miter;stroke-miterlimit:4;stroke-dasharray:none;stroke-opacity:1" /><path
   sodipodi:nodetypes="cacacacac"
   id="path876"
   d="m 268.26959,491.56301 c 0,0 41.47291,3.40204 62.26112,3.70393 21.29042,0.30919 63.84852,-1.94016 63.84852,-1.94016 0,0 2.54812,-2.87129 3.35116,-4.5858 0.41127,-0.87808 0.70551,-2.82203 0.70551,-2.82203 0,0 -44.87769,4.26724 -67.37606,4.05667 -21.64311,-0.20257 -64.7304,-5.11493 -64.7304,-5.11493 0,0 0.17146,2.50913 0.52913,3.70392 0.31679,1.05821 1.41102,2.9984 1.41102,2.9984 z"
   style="fill:none;stroke:#000000;stroke-width:4;stroke-linecap:butt;stroke-linejoin:miter;stroke-opacity:1;stroke-miterlimit:4;stroke-dasharray:none" /><path
   sodipodi:nodetypes="ccacc"
   id="path878"
   d="m 266.32944,484.86069 -9.87711,-10.22987 c 0,0 50.18384,3.36577 75.31302,3.35115 25.77789,-0.015 77.25318,-3.52754 77.25318,-3.52754 l -10.58263,11.46452"
   style="fill:none;stroke:#000000;stroke-width:4;stroke-linecap:butt;stroke-linejoin:miter;stroke-opacity:1;stroke-miterlimit:4;stroke-dasharray:none" /><path
   sodipodi:nodetypes="cacacac"
   id="path880"
   d="m 256.45233,474.63082 c 0,0 -9.12417,-75.44994 -17.42107,-112.46793 -9.40345,-41.95506 -36.55033,-123.70103 -36.55033,-123.70103 0,0 88.82085,-3.59091 133.25845,-3.99305 42.07259,-0.38074 126.21407,1.49661 126.21407,1.49661 0,0 -25.9182,81.70923 -35.06634,123.52075 -8.28939,37.88662 -17.86858,114.96826 -17.86858,114.96826"
   style="fill:none;stroke:#000000;stroke-width:4;stroke-linecap:butt;stroke-linejoin:miter;stroke-opacity:1;stroke-miterlimit:4;stroke-dasharray:none" /><path
   sodipodi:nodetypes="csssc"
   id="path882"
   d="m 204.28719,238.45977 c 0,0 -21.65196,-78.12805 3.4867,-126.28074 19.79648,-37.919832 77.54324,-52.160687 126.96775,-52.314653 56.92735,-0.177338 108.00367,20.452301 130.61794,62.900183 25.05873,47.03623 -4.77802,113.32558 -4.77802,113.32558"
   style="fill:none;stroke:#000000;stroke-width:4;stroke-linecap:butt;stroke-linejoin:miter;stroke-opacity:1;stroke-miterlimit:4;stroke-dasharray:none" /></svg>
