<?xml version="1.0" encoding="UTF-8" standalone="no"?>
<svg
   inkscape:version="1.3.2 (091e20e, 2023-11-25, custom)"
   sodipodi:docname="icon.svg"
   xml:space="preserve"
   style="enable-background:new 0 0 667 666;"
   viewBox="0 0 667 666"
   y="0px"
   x="0px"
   id="Layer_1"
   version="1.1"
   xmlns:inkscape="http://www.inkscape.org/namespaces/inkscape"
   xmlns:sodipodi="http://sodipodi.sourceforge.net/DTD/sodipodi-0.dtd"
   xmlns="http://www.w3.org/2000/svg"
   xmlns:svg="http://www.w3.org/2000/svg"
   xmlns:rdf="http://www.w3.org/1999/02/22-rdf-syntax-ns#"
   xmlns:cc="http://creativecommons.org/ns#"
   xmlns:dc="http://purl.org/dc/elements/1.1/"><metadata
   id="metadata319"><rdf:RDF><cc:Work
       rdf:about=""><dc:format>image/svg+xml</dc:format><dc:type
         rdf:resource="http://purl.org/dc/dcmitype/StillImage" /></cc:Work></rdf:RDF></metadata><defs
   id="defs317"><marker
     inkscape:isstock="true"
     style="overflow:visible"
     id="Arrow1Send"
     refX="0"
     refY="0"
     orient="auto"
     inkscape:stockid="Arrow1Send"><path
       transform="matrix(-0.2,0,0,-0.2,-1.2,0)"
       style="fill:#000000;fill-opacity:1;fill-rule:evenodd;stroke:#000000;stroke-width:1.00000003pt;stroke-opacity:1"
       d="M 0,0 5,-5 -12.5,0 5,5 Z"
       id="path4714"
       inkscape:connector-curvature="0" /></marker><clipPath
     id="clipPath69-0"><path
       d="m 409.441,126.252 v -43.63 h 147.796 v 43.63"
       id="path71-2"
       inkscape:connector-curvature="0" /></clipPath><clipPath
     id="clipPath101-1"><path
       d="m 409.441,126.252 v -43.63 h 147.796 v 43.63"
       id="path103-6"
       inkscape:connector-curvature="0" /></clipPath><clipPath
     id="clipPath69"><path
       d="m 409.441,126.252 v -43.63 h 147.796 v 43.63"
       id="path71"
       inkscape:connector-curvature="0" /></clipPath><clipPath
     id="clipPath101"><path
       d="m 409.441,126.252 v -43.63 h 147.796 v 43.63"
       id="path103"
       inkscape:connector-curvature="0" /></clipPath></defs><sodipodi:namedview
   inkscape:document-rotation="0"
   inkscape:current-layer="Layer_1"
   inkscape:window-maximized="1"
   inkscape:window-y="-8"
   inkscape:window-x="-8"
   inkscape:cy="368.6648"
   inkscape:cx="328.25634"
   inkscape:zoom="1.0022655"
   showgrid="false"
   id="namedview315"
   inkscape:window-height="987"
   inkscape:window-width="1680"
   inkscape:pageshadow="2"
   inkscape:pageopacity="0"
   guidetolerance="10"
   gridtolerance="10"
   objecttolerance="10"
   borderopacity="1"
   bordercolor="#666666"
   pagecolor="#ffffff"
   inkscape:pagecheckerboard="0"
   inkscape:showpageshadow="2"
   inkscape:deskcolor="#d1d1d1" />
<style
   id="style2"
   type="text/css">
	.st0{fill:none;stroke:#000000;stroke-width:2;stroke-linecap:round;stroke-linejoin:round;stroke-miterlimit:10;}
</style>


<path
   style="fill:none;stroke:#000000;stroke-width:6;stroke-linecap:butt;stroke-linejoin:miter;stroke-miterlimit:4;stroke-dasharray:none;stroke-opacity:1"
   d="M 485.8992,562.72515 103.76492,531.79522 C 93.552913,530.96866 84.744629,517.04205 85.805607,506.85173 L 128.70841,94.785264 c 1.42378,-13.674951 21.1725,-21.835702 34.92089,-21.950272 l 359.18626,-2.993219 m 0,0 c 11.39553,-0.08821 28.32351,10.415625 27.5002,26.564818"
   id="path879"
   sodipodi:nodetypes="cssssccc" /><path
   style="fill:none;stroke:#000000;stroke-width:6;stroke-linecap:butt;stroke-linejoin:miter;stroke-miterlimit:4;stroke-dasharray:none;stroke-opacity:1"
   d="m 101.59322,531.24786 c 0,0 1.57394,2.46263 3.5899,2.63129 l 415.48212,34.76066 c 9.33293,0.78082 16.92956,-12.53204 17.63771,-21.87076 l 33.8644,-446.58685 c 0.55807,-7.359597 1.40064,-17.984758 -8.4661,-20.459745 l -33.42422,-8.384181 c -11.44376,-2.87057 22.04323,0.745702 20.01956,27.432909 l -33.8644,446.586847 c -0.66747,8.8022 -7.24262,18.93382 -16.05032,18.34322 l -15.12434,-1.01417"
   id="path883"
   sodipodi:nodetypes="csssssssssc" /><g
   id="g894"
   transform="rotate(-1.218819,-367.83457,5195.3015)"><path
     sodipodi:nodetypes="cccccccccccccccccccccc"
     id="path864-6"
     d="m 663.49685,296.82754 23.94575,2.49435 5.48757,4.9887 -2.49435,25.94123 -10.12351,2.2877 -0.35276,6.69195 8.48079,4.02122 -0.49887,6.63143 -9.47853,1.8191 -0.35275,7.33692 7.8358,4.63595 -0.61472,6.8934 -8.8638,1.94014 -0.49887,6.63143 8.65716,3.81458 -3.1696,25.61874 -33.92314,57.86889 22.44914,-230.97672 8.97965,14.9661 3.49209,15.96383 -15.46496,15.96383 -1.49661,14.49749"
     style="fill:none;stroke:#000000;stroke-width:3;stroke-linecap:butt;stroke-linejoin:miter;stroke-miterlimit:4;stroke-dasharray:none;stroke-opacity:1" /><path
     id="path866-4"
     d="m 682.4539,266.39648 -13.96835,-2.49435 -1.49661,18.45818"
     style="fill:none;stroke:#000000;stroke-width:3;stroke-linecap:butt;stroke-linejoin:miter;stroke-miterlimit:4;stroke-dasharray:none;stroke-opacity:1" /><path
     id="path868"
     d="m 681.45616,408.57438 -28.43558,-3.49209"
     style="fill:none;stroke:#000000;stroke-width:3;stroke-linecap:butt;stroke-linejoin:miter;stroke-miterlimit:4;stroke-dasharray:none;stroke-opacity:1" /><path
     id="path870"
     d="m 691.93243,309.04985 -28.93445,-3.49209"
     style="fill:none;stroke:#000000;stroke-width:3;stroke-linecap:butt;stroke-linejoin:miter;stroke-miterlimit:4;stroke-dasharray:none;stroke-opacity:1" /><path
     id="path872"
     d="m 677.46521,331.24956 -0.49887,8.73022 -15.21553,-1.74605 0.49887,-8.48078 z"
     style="fill:#000000;fill-opacity:1;stroke:#000000;stroke-width:1;stroke-linecap:butt;stroke-linejoin:miter;stroke-miterlimit:4;stroke-dasharray:none;stroke-opacity:1" /><path
     style="fill:#000000;fill-opacity:1;stroke:#000000;stroke-width:1;stroke-linecap:butt;stroke-linejoin:miter;stroke-miterlimit:4;stroke-dasharray:none;stroke-opacity:1"
     d="m 675.46521,351.24956 -0.49887,8.73022 -15.21553,-1.74605 0.49887,-8.48078 z"
     id="path874" /><path
     id="path876"
     d="m 673.46521,371.24956 -0.49887,8.73022 -15.21553,-1.74605 0.49887,-8.48078 z"
     style="fill:#000000;fill-opacity:1;stroke:#000000;stroke-width:1;stroke-linecap:butt;stroke-linejoin:miter;stroke-miterlimit:4;stroke-dasharray:none;stroke-opacity:1" /><path
     id="path878"
     d="m 684.69596,331.76535 -0.70551,8.64248"
     style="fill:none;stroke:#000000;stroke-width:3;stroke-linecap:butt;stroke-linejoin:miter;stroke-miterlimit:4;stroke-dasharray:none;stroke-opacity:1" /><path
     id="path880"
     d="m 682.40305,350.99046 -0.88188,9.87711"
     style="fill:none;stroke:#000000;stroke-width:3;stroke-linecap:butt;stroke-linejoin:miter;stroke-miterlimit:4;stroke-dasharray:none;stroke-opacity:1" /><path
     id="path882"
     d="m 680.4629,371.80296 -0.7055,9.17161"
     style="fill:none;stroke:#000000;stroke-width:3;stroke-linecap:butt;stroke-linejoin:miter;stroke-miterlimit:4;stroke-dasharray:none;stroke-opacity:1" /></g><g
   id="g2962"
   transform="translate(88.989298,-14.352257)"><path
     style="fill:none;fill-rule:evenodd;stroke:#000000;stroke-width:6;stroke-miterlimit:4;stroke-dasharray:none;stroke-opacity:1"
     id="path2956"
     sodipodi:type="arc"
     sodipodi:cx="295.9689"
     sodipodi:cy="138.94588"
     sodipodi:rx="29.741137"
     sodipodi:ry="35.436245"
     sodipodi:start="0.83683651"
     sodipodi:end="0.83455187"
     sodipodi:open="true"
     sodipodi:arc-type="arc"
     d="m 315.88997,165.25828 a 29.741137,35.436245 0 0 1 -41.99331,-2.56164 29.741137,35.436245 0 0 1 2.12597,-50.03603 29.741137,35.436245 0 0 1 41.99573,2.50448 29.741137,35.436245 0 0 1 -2.07799,50.03889"
     transform="rotate(17.840689)" /><path
     style="fill:none;fill-rule:evenodd;stroke:#000000;stroke-width:6;stroke-linecap:round;stroke-miterlimit:4;stroke-dasharray:none;stroke-opacity:1"
     id="path2958"
     sodipodi:type="arc"
     sodipodi:cx="295.96893"
     sodipodi:cy="138.94585"
     sodipodi:rx="14.426638"
     sodipodi:ry="17.189184"
     sodipodi:start="5.2912667"
     sodipodi:end="3.6499031"
     sodipodi:open="true"
     sodipodi:arc-type="arc"
     d="m 303.86153,124.55717 a 14.426638,17.189184 0 0 1 4.36591,23.45159 14.426638,17.189184 0 0 1 -19.57446,5.75208 14.426638,17.189184 0 0 1 -5.2867,-23.181"
     transform="rotate(17.840689)" /><path
     style="fill:none;stroke:#000000;stroke-width:6;stroke-linecap:round;stroke-linejoin:miter;stroke-miterlimit:4;stroke-dasharray:none;stroke-opacity:1"
     d="m 238.46186,226.46821 2.82203,-28.22033"
     id="path2960" /></g><g
   id="g3419"
   transform="translate(-28.036991,-17.003106)"><path
     style="fill:none;fill-rule:evenodd;stroke:#000000;stroke-width:6;stroke-miterlimit:4;stroke-dasharray:none;stroke-opacity:1"
     id="path3413"
     sodipodi:type="arc"
     sodipodi:cx="295.9689"
     sodipodi:cy="138.94588"
     sodipodi:rx="29.741137"
     sodipodi:ry="35.436245"
     sodipodi:start="0.83683651"
     sodipodi:end="0.83455187"
     sodipodi:open="true"
     sodipodi:arc-type="arc"
     d="m 315.88997,165.25828 a 29.741137,35.436245 0 0 1 -41.99331,-2.56164 29.741137,35.436245 0 0 1 2.12597,-50.03603 29.741137,35.436245 0 0 1 41.99573,2.50448 29.741137,35.436245 0 0 1 -2.07799,50.03889"
     transform="rotate(17.840689)" /><path
     style="fill:none;fill-rule:evenodd;stroke:#000000;stroke-width:6;stroke-linecap:round;stroke-miterlimit:4;stroke-dasharray:none;stroke-opacity:1"
     id="path3415"
     sodipodi:type="arc"
     sodipodi:cx="295.96893"
     sodipodi:cy="138.94585"
     sodipodi:rx="14.426638"
     sodipodi:ry="17.189184"
     sodipodi:start="5.2912667"
     sodipodi:end="3.6499031"
     sodipodi:open="true"
     sodipodi:arc-type="arc"
     d="m 303.86153,124.55717 a 14.426638,17.189184 0 0 1 4.36591,23.45159 14.426638,17.189184 0 0 1 -19.57446,5.75208 14.426638,17.189184 0 0 1 -5.2867,-23.181"
     transform="rotate(17.840689)" /><path
     style="fill:none;stroke:#000000;stroke-width:6;stroke-linecap:round;stroke-linejoin:miter;stroke-miterlimit:4;stroke-dasharray:none;stroke-opacity:1"
     d="m 238.46186,226.46821 2.82203,-28.22033"
     id="path3417" /></g><g
   id="g3531"
   transform="translate(60.768958,184.60113)"><path
     style="fill:none;fill-rule:evenodd;stroke:#000000;stroke-width:6;stroke-miterlimit:4;stroke-dasharray:none;stroke-opacity:1"
     id="path3525"
     sodipodi:type="arc"
     sodipodi:cx="295.9689"
     sodipodi:cy="138.94588"
     sodipodi:rx="29.741137"
     sodipodi:ry="35.436245"
     sodipodi:start="0.83683651"
     sodipodi:end="0.83455187"
     sodipodi:open="true"
     sodipodi:arc-type="arc"
     d="m 315.88997,165.25828 a 29.741137,35.436245 0 0 1 -41.99331,-2.56164 29.741137,35.436245 0 0 1 2.12597,-50.03603 29.741137,35.436245 0 0 1 41.99573,2.50448 29.741137,35.436245 0 0 1 -2.07799,50.03889"
     transform="rotate(17.840689)" /><path
     style="fill:none;fill-rule:evenodd;stroke:#000000;stroke-width:6;stroke-linecap:round;stroke-miterlimit:4;stroke-dasharray:none;stroke-opacity:1"
     id="path3527"
     sodipodi:type="arc"
     sodipodi:cx="295.96893"
     sodipodi:cy="138.94585"
     sodipodi:rx="14.426638"
     sodipodi:ry="17.189184"
     sodipodi:start="5.2912667"
     sodipodi:end="3.6499031"
     sodipodi:open="true"
     sodipodi:arc-type="arc"
     d="m 303.86153,124.55717 a 14.426638,17.189184 0 0 1 4.36591,23.45159 14.426638,17.189184 0 0 1 -19.57446,5.75208 14.426638,17.189184 0 0 1 -5.2867,-23.181"
     transform="rotate(17.840689)" /><path
     style="fill:none;stroke:#000000;stroke-width:6;stroke-linecap:round;stroke-linejoin:miter;stroke-miterlimit:4;stroke-dasharray:none;stroke-opacity:1"
     d="m 238.46186,226.46821 2.82203,-28.22033"
     id="path3529" /></g><g
   id="g3539"
   transform="translate(-53.435295,172.07316)"><path
     style="fill:none;fill-rule:evenodd;stroke:#000000;stroke-width:6;stroke-miterlimit:4;stroke-dasharray:none;stroke-opacity:1"
     id="path3533"
     sodipodi:type="arc"
     sodipodi:cx="295.9689"
     sodipodi:cy="138.94588"
     sodipodi:rx="29.741137"
     sodipodi:ry="35.436245"
     sodipodi:start="0.83683651"
     sodipodi:end="0.83455187"
     sodipodi:open="true"
     sodipodi:arc-type="arc"
     d="m 315.88997,165.25828 a 29.741137,35.436245 0 0 1 -41.99331,-2.56164 29.741137,35.436245 0 0 1 2.12597,-50.03603 29.741137,35.436245 0 0 1 41.99573,2.50448 29.741137,35.436245 0 0 1 -2.07799,50.03889"
     transform="rotate(17.840689)" /><path
     style="fill:none;fill-rule:evenodd;stroke:#000000;stroke-width:6;stroke-linecap:round;stroke-miterlimit:4;stroke-dasharray:none;stroke-opacity:1"
     id="path3535"
     sodipodi:type="arc"
     sodipodi:cx="295.96893"
     sodipodi:cy="138.94585"
     sodipodi:rx="14.426638"
     sodipodi:ry="17.189184"
     sodipodi:start="5.2912667"
     sodipodi:end="3.6499031"
     sodipodi:open="true"
     sodipodi:arc-type="arc"
     d="m 303.86153,124.55717 a 14.426638,17.189184 0 0 1 4.36591,23.45159 14.426638,17.189184 0 0 1 -19.57446,5.75208 14.426638,17.189184 0 0 1 -5.2867,-23.181"
     transform="rotate(17.840689)" /><path
     style="fill:none;stroke:#000000;stroke-width:6;stroke-linecap:round;stroke-linejoin:miter;stroke-miterlimit:4;stroke-dasharray:none;stroke-opacity:1"
     d="m 238.46186,226.46821 2.82203,-28.22033"
     id="path3537" /></g><g
   id="g3"
   transform="translate(208.71805,-7.3680795)"><path
     style="fill:none;fill-rule:evenodd;stroke:#000000;stroke-width:6;stroke-miterlimit:4;stroke-dasharray:none;stroke-opacity:1"
     id="path1"
     sodipodi:type="arc"
     sodipodi:cx="295.9689"
     sodipodi:cy="138.94588"
     sodipodi:rx="29.741137"
     sodipodi:ry="35.436245"
     sodipodi:start="0.83683651"
     sodipodi:end="0.83455187"
     sodipodi:open="true"
     sodipodi:arc-type="arc"
     d="m 315.88997,165.25828 a 29.741137,35.436245 0 0 1 -41.99331,-2.56164 29.741137,35.436245 0 0 1 2.12597,-50.03603 29.741137,35.436245 0 0 1 41.99573,2.50448 29.741137,35.436245 0 0 1 -2.07799,50.03889"
     transform="rotate(17.840689)" /><path
     style="fill:none;fill-rule:evenodd;stroke:#000000;stroke-width:6;stroke-linecap:round;stroke-miterlimit:4;stroke-dasharray:none;stroke-opacity:1"
     id="path2"
     sodipodi:type="arc"
     sodipodi:cx="295.96893"
     sodipodi:cy="138.94585"
     sodipodi:rx="14.426638"
     sodipodi:ry="17.189184"
     sodipodi:start="5.2912667"
     sodipodi:end="3.6499031"
     sodipodi:open="true"
     sodipodi:arc-type="arc"
     d="m 303.86153,124.55717 a 14.426638,17.189184 0 0 1 4.36591,23.45159 14.426638,17.189184 0 0 1 -19.57446,5.75208 14.426638,17.189184 0 0 1 -5.2867,-23.181"
     transform="rotate(17.840689)" /><path
     style="fill:none;stroke:#000000;stroke-width:6;stroke-linecap:round;stroke-linejoin:miter;stroke-miterlimit:4;stroke-dasharray:none;stroke-opacity:1"
     d="m 238.46186,226.46821 2.82203,-28.22033"
     id="path3" /></g><g
   id="g6"
   transform="translate(180.49771,191.58531)"><path
     style="fill:none;fill-rule:evenodd;stroke:#000000;stroke-width:6;stroke-miterlimit:4;stroke-dasharray:none;stroke-opacity:1"
     id="path4"
     sodipodi:type="arc"
     sodipodi:cx="295.9689"
     sodipodi:cy="138.94588"
     sodipodi:rx="29.741137"
     sodipodi:ry="35.436245"
     sodipodi:start="0.83683651"
     sodipodi:end="0.83455187"
     sodipodi:open="true"
     sodipodi:arc-type="arc"
     d="m 315.88997,165.25828 a 29.741137,35.436245 0 0 1 -41.99331,-2.56164 29.741137,35.436245 0 0 1 2.12597,-50.03603 29.741137,35.436245 0 0 1 41.99573,2.50448 29.741137,35.436245 0 0 1 -2.07799,50.03889"
     transform="rotate(17.840689)" /><path
     style="fill:none;fill-rule:evenodd;stroke:#000000;stroke-width:6;stroke-linecap:round;stroke-miterlimit:4;stroke-dasharray:none;stroke-opacity:1"
     id="path5"
     sodipodi:type="arc"
     sodipodi:cx="295.96893"
     sodipodi:cy="138.94585"
     sodipodi:rx="14.426638"
     sodipodi:ry="17.189184"
     sodipodi:start="5.2912667"
     sodipodi:end="3.6499031"
     sodipodi:open="true"
     sodipodi:arc-type="arc"
     d="m 303.86153,124.55717 a 14.426638,17.189184 0 0 1 4.36591,23.45159 14.426638,17.189184 0 0 1 -19.57446,5.75208 14.426638,17.189184 0 0 1 -5.2867,-23.181"
     transform="rotate(17.840689)" /><path
     style="fill:none;stroke:#000000;stroke-width:6;stroke-linecap:round;stroke-linejoin:miter;stroke-miterlimit:4;stroke-dasharray:none;stroke-opacity:1"
     d="m 238.46186,226.46821 2.82203,-28.22033"
     id="path6" /></g></svg>
