<?xml version="1.0" encoding="UTF-8" standalone="no"?>
<svg
   xmlns:dc="http://purl.org/dc/elements/1.1/"
   xmlns:cc="http://creativecommons.org/ns#"
   xmlns:rdf="http://www.w3.org/1999/02/22-rdf-syntax-ns#"
   xmlns:svg="http://www.w3.org/2000/svg"
   xmlns="http://www.w3.org/2000/svg"
   xmlns:sodipodi="http://sodipodi.sourceforge.net/DTD/sodipodi-0.dtd"
   xmlns:inkscape="http://www.inkscape.org/namespaces/inkscape"
   inkscape:version="1.0 (4035a4fb49, 2020-05-01)"
   sodipodi:docname="icon.svg"
   xml:space="preserve"
   style="enable-background:new 0 0 667 666;"
   viewBox="0 0 667 666"
   y="0px"
   x="0px"
   id="Layer_1"
   version="1.1"><metadata
   id="metadata319"><rdf:RDF><cc:Work
       rdf:about=""><dc:format>image/svg+xml</dc:format><dc:type
         rdf:resource="http://purl.org/dc/dcmitype/StillImage" /></cc:Work></rdf:RDF></metadata><defs
   id="defs317"><marker
     inkscape:isstock="true"
     style="overflow:visible"
     id="Arrow1Send"
     refX="0"
     refY="0"
     orient="auto"
     inkscape:stockid="Arrow1Send"><path
       transform="matrix(-0.2,0,0,-0.2,-1.2,0)"
       style="fill:#000000;fill-opacity:1;fill-rule:evenodd;stroke:#000000;stroke-width:1.00000003pt;stroke-opacity:1"
       d="M 0,0 5,-5 -12.5,0 5,5 Z"
       id="path4714"
       inkscape:connector-curvature="0" /></marker><clipPath
     id="clipPath69-0"><path
       d="m 409.441,126.252 v -43.63 h 147.796 v 43.63"
       id="path71-2"
       inkscape:connector-curvature="0" /></clipPath><clipPath
     id="clipPath101-1"><path
       d="m 409.441,126.252 v -43.63 h 147.796 v 43.63"
       id="path103-6"
       inkscape:connector-curvature="0" /></clipPath><clipPath
     id="clipPath69"><path
       d="m 409.441,126.252 v -43.63 h 147.796 v 43.63"
       id="path71"
       inkscape:connector-curvature="0" /></clipPath><clipPath
     id="clipPath101"><path
       d="m 409.441,126.252 v -43.63 h 147.796 v 43.63"
       id="path103"
       inkscape:connector-curvature="0" /></clipPath></defs><sodipodi:namedview
   inkscape:document-rotation="0"
   inkscape:current-layer="Layer_1"
   inkscape:window-maximized="1"
   inkscape:window-y="-8"
   inkscape:window-x="-8"
   inkscape:cy="469.95626"
   inkscape:cx="660.26175"
   inkscape:zoom="0.35435437"
   showgrid="false"
   id="namedview315"
   inkscape:window-height="987"
   inkscape:window-width="1680"
   inkscape:pageshadow="2"
   inkscape:pageopacity="0"
   guidetolerance="10"
   gridtolerance="10"
   objecttolerance="10"
   borderopacity="1"
   bordercolor="#666666"
   pagecolor="#ffffff" />
<style
   id="style2"
   type="text/css">
	.st0{fill:none;stroke:#000000;stroke-width:2;stroke-linecap:round;stroke-linejoin:round;stroke-miterlimit:10;}
</style>


<path
   style="fill:none;stroke:#000000;stroke-width:6;stroke-linecap:butt;stroke-linejoin:miter;stroke-opacity:1;stroke-miterlimit:4;stroke-dasharray:none"
   d="m 545.76357,91.792045 c -41.90506,437.009955 0,0 -41.90506,437.009955 -1.22128,12.73618 -5.20641,34.95537 -17.95931,33.92315 -382.13428,-30.92993 0,0 -382.13428,-30.92993 -10.212007,-0.82656 -19.020291,-14.75317 -17.959313,-24.94349 42.902803,-412.066466 0,0 42.902803,-412.066466 1.42378,-13.674951 21.1725,-21.835702 34.92089,-21.950272 359.18626,-2.993219 0,0 359.18626,-2.993219 10.58487,-0.08821 23.9584,11.413365 22.94801,21.950272 z"
   id="path879"
   sodipodi:nodetypes="sssssssss" /><path
   style="fill:none;stroke:#000000;stroke-width:6;stroke-linecap:butt;stroke-linejoin:miter;stroke-opacity:1;stroke-miterlimit:4;stroke-dasharray:none"
   d="m 101.59322,531.24786 c 0,0 1.57394,2.46263 3.5899,2.63129 l 415.48212,34.76066 c 9.33293,0.78082 16.92956,-12.53204 17.63771,-21.87076 l 33.8644,-446.58685 c 0.55807,-7.359597 1.39742,-17.971967 -8.4661,-20.459745 l -33.73601,-8.508898 c -11.44003,-2.885407 22.35502,0.870419 20.33135,27.557626 l -33.8644,446.586847 c -0.66747,8.8022 -7.24952,19.02899 -16.05032,18.34322 l -13.58104,-1.05826"
   id="path883"
   sodipodi:nodetypes="csssssssssc" /><path
   style="fill:none;stroke:#000000;stroke-width:3;stroke-linecap:butt;stroke-linejoin:miter;stroke-opacity:1;stroke-miterlimit:4;stroke-dasharray:none"
   d="M 550.29659,98.771183 510.78812,538.30295 c -0.75478,8.3969 -3.74324,19.07494 -14.46293,18.87235"
   id="path885"
   sodipodi:nodetypes="csc" /><path
   style="fill:#000000;fill-opacity:1;stroke:#000000;stroke-width:6;stroke-linecap:butt;stroke-linejoin:miter;stroke-miterlimit:4;stroke-dasharray:none;stroke-opacity:1"
   d="m 173.21201,467.90741 c 28.13021,1.77464 0,0 28.13021,1.77464 1.6596,0.1047 1.34551,5.08349 -0.31409,4.97879 -28.37916,-1.79035 0,0 -28.37916,-1.79035 -1.66167,-0.10483 -1.09863,-5.06791 0.56304,-4.96308 z"
   id="path889"
   sodipodi:nodetypes="sssss" /><path
   sodipodi:nodetypes="sssss"
   id="path864"
   d="m 367.22683,478.49004 c 28.13021,1.77464 0,0 28.13021,1.77464 1.6596,0.1047 1.34551,5.08349 -0.31409,4.97879 -28.37916,-1.79035 0,0 -28.37916,-1.79035 -1.66167,-0.10483 -1.09863,-5.06791 0.56304,-4.96308 z"
   style="fill:#000000;fill-opacity:1;stroke:#000000;stroke-width:6;stroke-linecap:butt;stroke-linejoin:miter;stroke-miterlimit:4;stroke-dasharray:none;stroke-opacity:1" /><path
   sodipodi:nodetypes="cc"
   id="path866"
   d="M 326.65041,72.667371 C 295.11847,266.41732 285.56373,373.93154 277.97033,546.76905"
   style="fill:none;stroke:#000000;stroke-width:3;stroke-linecap:butt;stroke-linejoin:miter;stroke-opacity:1;stroke-miterlimit:4;stroke-dasharray:none" /><g
   id="g894"
   transform="rotate(-1.218819,-873.29098,5080.0573)"><path
     sodipodi:nodetypes="cccccccccccccccccccccc"
     id="path864-5"
     d="m 663.49685,296.82754 23.94575,2.49435 5.48757,4.9887 -2.49435,25.94123 -10.12351,2.2877 -0.35276,6.69195 8.48079,4.02122 -0.49887,6.63143 -9.47853,1.8191 -0.35275,7.33692 7.8358,4.63595 -0.61472,6.8934 -8.8638,1.94014 -0.49887,6.63143 8.65716,3.81458 -3.1696,25.61874 -33.92314,57.86889 22.44914,-230.97672 8.97965,14.9661 3.49209,15.96383 -15.46496,15.96383 -1.49661,14.49749"
     style="fill:none;stroke:#000000;stroke-width:3;stroke-linecap:butt;stroke-linejoin:miter;stroke-miterlimit:4;stroke-dasharray:none;stroke-opacity:1" /><path
     id="path866-4"
     d="m 682.4539,266.39648 -13.96835,-2.49435 -1.49661,18.45818"
     style="fill:none;stroke:#000000;stroke-width:3;stroke-linecap:butt;stroke-linejoin:miter;stroke-miterlimit:4;stroke-dasharray:none;stroke-opacity:1" /><path
     id="path868"
     d="m 681.45616,408.57438 -28.43558,-3.49209"
     style="fill:none;stroke:#000000;stroke-width:3;stroke-linecap:butt;stroke-linejoin:miter;stroke-miterlimit:4;stroke-dasharray:none;stroke-opacity:1" /><path
     id="path870"
     d="m 691.93243,309.04985 -28.93445,-3.49209"
     style="fill:none;stroke:#000000;stroke-width:3;stroke-linecap:butt;stroke-linejoin:miter;stroke-miterlimit:4;stroke-dasharray:none;stroke-opacity:1" /><path
     id="path872"
     d="m 677.46521,331.24956 -0.49887,8.73022 -15.21553,-1.74605 0.49887,-8.48078 z"
     style="fill:#000000;fill-opacity:1;stroke:#000000;stroke-width:1;stroke-linecap:butt;stroke-linejoin:miter;stroke-miterlimit:4;stroke-dasharray:none;stroke-opacity:1" /><path
     style="fill:#000000;fill-opacity:1;stroke:#000000;stroke-width:1;stroke-linecap:butt;stroke-linejoin:miter;stroke-miterlimit:4;stroke-dasharray:none;stroke-opacity:1"
     d="m 675.46521,351.24956 -0.49887,8.73022 -15.21553,-1.74605 0.49887,-8.48078 z"
     id="path874" /><path
     id="path876"
     d="m 673.46521,371.24956 -0.49887,8.73022 -15.21553,-1.74605 0.49887,-8.48078 z"
     style="fill:#000000;fill-opacity:1;stroke:#000000;stroke-width:1;stroke-linecap:butt;stroke-linejoin:miter;stroke-miterlimit:4;stroke-dasharray:none;stroke-opacity:1" /><path
     id="path878"
     d="m 684.69596,331.76535 -0.70551,8.64248"
     style="fill:none;stroke:#000000;stroke-width:3;stroke-linecap:butt;stroke-linejoin:miter;stroke-miterlimit:4;stroke-dasharray:none;stroke-opacity:1" /><path
     id="path880"
     d="m 682.40305,350.99046 -0.88188,9.87711"
     style="fill:none;stroke:#000000;stroke-width:3;stroke-linecap:butt;stroke-linejoin:miter;stroke-miterlimit:4;stroke-dasharray:none;stroke-opacity:1" /><path
     id="path882"
     d="m 680.4629,371.80296 -0.7055,9.17161"
     style="fill:none;stroke:#000000;stroke-width:3;stroke-linecap:butt;stroke-linejoin:miter;stroke-miterlimit:4;stroke-dasharray:none;stroke-opacity:1" /></g></svg>
