<?xml version="1.0" encoding="UTF-8" standalone="no"?>
<svg
   xmlns:dc="http://purl.org/dc/elements/1.1/"
   xmlns:cc="http://creativecommons.org/ns#"
   xmlns:rdf="http://www.w3.org/1999/02/22-rdf-syntax-ns#"
   xmlns:svg="http://www.w3.org/2000/svg"
   xmlns="http://www.w3.org/2000/svg"
   xmlns:sodipodi="http://sodipodi.sourceforge.net/DTD/sodipodi-0.dtd"
   xmlns:inkscape="http://www.inkscape.org/namespaces/inkscape"
   version="1.1"
   id="Layer_1"
   x="0px"
   y="0px"
   viewBox="0 0 667 666"
   style="enable-background:new 0 0 667 666;"
   xml:space="preserve"
   sodipodi:docname="icon.svg"
   inkscape:version="1.0 (4035a4fb49, 2020-05-01)"><metadata
   id="metadata319"><rdf:RDF><cc:Work
       rdf:about=""><dc:format>image/svg+xml</dc:format><dc:type
         rdf:resource="http://purl.org/dc/dcmitype/StillImage" /></cc:Work></rdf:RDF></metadata><defs
   id="defs317"><marker
     inkscape:stockid="Arrow1Send"
     orient="auto"
     refY="0"
     refX="0"
     id="Arrow1Send"
     style="overflow:visible"
     inkscape:isstock="true"><path
       inkscape:connector-curvature="0"
       id="path4714"
       d="M 0,0 5,-5 -12.5,0 5,5 Z"
       style="fill:#000000;fill-opacity:1;fill-rule:evenodd;stroke:#000000;stroke-width:1.00000003pt;stroke-opacity:1"
       transform="matrix(-0.2,0,0,-0.2,-1.2,0)" /></marker><clipPath
     id="clipPath69-0"><path
       inkscape:connector-curvature="0"
       id="path71-2"
       d="m 409.441,126.252 v -43.63 h 147.796 v 43.63" /></clipPath><clipPath
     id="clipPath101-1"><path
       inkscape:connector-curvature="0"
       id="path103-6"
       d="m 409.441,126.252 v -43.63 h 147.796 v 43.63" /></clipPath><clipPath
     id="clipPath69"><path
       inkscape:connector-curvature="0"
       id="path71"
       d="m 409.441,126.252 v -43.63 h 147.796 v 43.63" /></clipPath><clipPath
     id="clipPath101"><path
       inkscape:connector-curvature="0"
       id="path103"
       d="m 409.441,126.252 v -43.63 h 147.796 v 43.63" /></clipPath></defs><sodipodi:namedview
   pagecolor="#ffffff"
   bordercolor="#666666"
   borderopacity="1"
   objecttolerance="10"
   gridtolerance="10"
   guidetolerance="10"
   inkscape:pageopacity="0"
   inkscape:pageshadow="2"
   inkscape:window-width="1680"
   inkscape:window-height="987"
   id="namedview315"
   showgrid="false"
   inkscape:zoom="0.35435437"
   inkscape:cx="1114.1355"
   inkscape:cy="381.61959"
   inkscape:window-x="-8"
   inkscape:window-y="-8"
   inkscape:window-maximized="1"
   inkscape:current-layer="Layer_1"
   inkscape:document-rotation="0" />
<style
   type="text/css"
   id="style2">
	.st0{fill:none;stroke:#000000;stroke-width:2;stroke-linecap:round;stroke-linejoin:round;stroke-miterlimit:10;}
</style>


<path
   sodipodi:nodetypes="sssssssss"
   id="path879"
   d="m 545.76357,91.792045 c -41.90506,437.009955 0,0 -41.90506,437.009955 -1.22128,12.73618 -5.20641,34.95537 -17.95931,33.92315 -382.13428,-30.92993 0,0 -382.13428,-30.92993 -10.212007,-0.82656 -19.020291,-14.75317 -17.959313,-24.94349 42.902803,-412.066466 0,0 42.902803,-412.066466 1.42378,-13.674951 21.1725,-21.835702 34.92089,-21.950272 359.18626,-2.993219 0,0 359.18626,-2.993219 10.58487,-0.08821 23.9584,11.413365 22.94801,21.950272 z"
   style="fill:none;stroke:#000000;stroke-width:6;stroke-linecap:butt;stroke-linejoin:miter;stroke-opacity:1;stroke-miterlimit:4;stroke-dasharray:none" /><path
   sodipodi:nodetypes="csssssssssc"
   id="path883"
   d="m 101.59322,531.24786 c 0,0 1.57394,2.46263 3.5899,2.63129 l 415.48212,34.76066 c 9.33293,0.78082 16.92956,-12.53204 17.63771,-21.87076 l 33.8644,-446.58685 c 0.55807,-7.359597 1.39742,-17.971967 -8.4661,-20.459745 l -33.73601,-8.508898 c -11.44003,-2.885407 22.35502,0.870419 20.33135,27.557626 l -33.8644,446.586847 c -0.66747,8.8022 -7.24952,19.02899 -16.05032,18.34322 l -13.58104,-1.05826"
   style="fill:none;stroke:#000000;stroke-width:6;stroke-linecap:butt;stroke-linejoin:miter;stroke-opacity:1;stroke-miterlimit:4;stroke-dasharray:none" /><path
   sodipodi:nodetypes="csc"
   id="path885"
   d="M 550.29659,98.771183 510.78812,538.30295 c -0.75478,8.3969 -3.74324,19.07494 -14.46293,18.87235"
   style="fill:none;stroke:#000000;stroke-width:3;stroke-linecap:butt;stroke-linejoin:miter;stroke-opacity:1;stroke-miterlimit:4;stroke-dasharray:none" /><path
   sodipodi:nodetypes="sssss"
   id="path889"
   d="m 173.21201,467.90741 c 28.13021,1.77464 0,0 28.13021,1.77464 1.6596,0.1047 1.34551,5.08349 -0.31409,4.97879 -28.37916,-1.79035 0,0 -28.37916,-1.79035 -1.66167,-0.10483 -1.09863,-5.06791 0.56304,-4.96308 z"
   style="fill:#000000;fill-opacity:1;stroke:#000000;stroke-width:6;stroke-linecap:butt;stroke-linejoin:miter;stroke-miterlimit:4;stroke-dasharray:none;stroke-opacity:1" /><path
   style="fill:#000000;fill-opacity:1;stroke:#000000;stroke-width:6;stroke-linecap:butt;stroke-linejoin:miter;stroke-miterlimit:4;stroke-dasharray:none;stroke-opacity:1"
   d="m 367.22683,478.49004 c 28.13021,1.77464 0,0 28.13021,1.77464 1.6596,0.1047 1.34551,5.08349 -0.31409,4.97879 -28.37916,-1.79035 0,0 -28.37916,-1.79035 -1.66167,-0.10483 -1.09863,-5.06791 0.56304,-4.96308 z"
   id="path864"
   sodipodi:nodetypes="sssss" /><path
   style="fill:none;stroke:#000000;stroke-width:3;stroke-linecap:butt;stroke-linejoin:miter;stroke-opacity:1;stroke-miterlimit:4;stroke-dasharray:none"
   d="M 326.65041,72.667371 C 295.11847,266.41732 285.56373,373.93154 277.97033,546.76905"
   id="path866"
   sodipodi:nodetypes="cc" /></svg>
