<?xml version="1.0" encoding="UTF-8" standalone="no"?>
<svg
   xmlns:dc="http://purl.org/dc/elements/1.1/"
   xmlns:cc="http://creativecommons.org/ns#"
   xmlns:rdf="http://www.w3.org/1999/02/22-rdf-syntax-ns#"
   xmlns:svg="http://www.w3.org/2000/svg"
   xmlns="http://www.w3.org/2000/svg"
   id="svg8"
   version="1.1"
   viewBox="0 0 210 297"
   height="297mm"
   width="210mm">
  <defs
     id="defs2" />
  <metadata
     id="metadata5">
    <rdf:RDF>
      <cc:Work
         rdf:about="">
        <dc:format>image/svg+xml</dc:format>
        <dc:type
           rdf:resource="http://purl.org/dc/dcmitype/StillImage" />
        <dc:title></dc:title>
      </cc:Work>
    </rdf:RDF>
  </metadata>
  <g
     id="layer1">
    <path
       id="path3851"
       d="m 137.29035,290.39148 c -1.07124,-1.14027 -1.40122,-3.39753 -0.57164,-3.91024 0.29679,-0.18342 0.26271,-0.61935 -0.0929,-1.18888 -0.42964,-0.68798 -0.42976,-1.1886 -4.6e-4,-2.13081 0.30865,-0.67734 0.37307,-1.23154 0.1432,-1.23154 -0.40546,0 -0.75151,-1.67929 -1.29815,-6.2998 -0.2405,-2.03278 -0.14925,-2.30838 1.01766,-3.07297 1.26822,-0.83096 1.28014,-0.89039 1.12001,-5.58161 -0.1593,-4.66703 -0.18648,-4.76369 -1.72435,-6.13701 -0.85935,-0.76742 -1.85691,-1.39531 -2.21679,-1.39531 -0.79138,0 -1.22903,-1.46635 -1.23782,-4.14733 l -0.006,-1.99436 -6.02092,-0.15861 -6.02092,-0.15862 -1.3949,-1.56248 -1.39492,-1.56249 V 239.4315 c 0,-9.833 0.0554,-10.48765 0.97552,-11.47501 0.75032,-0.80538 1.52347,-1.0471 3.34909,-1.0471 3.03012,0 3.11252,-0.85704 0.10095,-1.05027 l -2.2726,-0.14586 -0.14512,-2.25592 -0.14516,-2.25593 -37.173208,-0.14049 C 45.459019,220.92175 45.081094,220.91061 42.379046,219.8819 34.797161,216.99536 29.5756,211.74775 27.069349,204.4958 l -1.100027,-3.18298 V 144.61764 87.922463 l 1.09298,-3.161797 c 2.85504,-8.259147 9.798839,-14.432067 18.187792,-16.168641 1.610204,-0.333289 10.03386,-0.524853 23.084742,-0.524853 h 20.549387 v -5.741283 -5.741284 h 15.110747 c 11.87468,0 15.06855,-0.128105 14.91376,-0.598054 -0.12142,-0.368605 -1.46739,-0.689818 -3.50858,-0.837266 l -3.31157,-0.239201 -0.14252,-14.35321 c -0.0889,-8.950598 0.0446,-14.99921 0.35471,-16.069468 0.82563,-2.849903 1.97385,-3.514439 6.54128,-3.7858 l 4.02649,-0.239201 0.0975,-8.27523 c 0.0537,-4.5513744 0.22558,-8.4824703 0.38218,-8.7357693 0.17817,-0.288308 9.84489,-0.4142093 25.85033,-0.3366798 l 25.5657,0.1238675 0.13042,8.7315316 0.13042,8.731538 h 3.60127 c 4.53021,0 6.19575,0.77939 6.90731,3.232257 0.33842,1.166674 0.46998,6.880098 0.37719,16.383792 l -0.14245,14.592428 -3.22947,0.141498 c -2.38414,0.104428 -3.22948,0.31707 -3.22948,0.812261 0,0.471904 0.7448,0.713683 2.51181,0.815415 l 2.51181,0.144606 0.12104,82.14925 0.12105,82.14926 -2.99162,0.14246 -2.99161,0.14245 -0.14579,2.2726 -0.14586,2.27258 h -2.63344 c -1.6338,0 -2.5212,0.18162 -2.33775,0.47846 0.16263,0.26316 1.33562,0.47847 2.60665,0.47847 1.56178,0 2.67713,0.29633 3.44046,0.91406 1.11005,0.89834 1.13228,1.08288 1.29105,10.72382 0.23236,14.10861 -0.15269,14.67633 -9.95422,14.67633 h -5.27821 v 2.89506 c 0,2.84566 -0.0282,2.90677 -1.64254,3.58135 -2.67461,1.11753 -3.14186,2.22121 -3.14186,7.42142 0,4.32074 0.0736,4.66366 1.23485,5.75444 1.29929,1.2204 1.28183,0.94793 0.41133,6.42272 -0.16738,1.05258 -0.6191,2.16222 -1.00387,2.46589 -0.45987,0.3629 -0.52581,0.65952 -0.19253,0.86551 0.67345,0.41618 0.65004,2.50428 -0.0328,2.92631 -0.36911,0.22812 -0.29345,0.47156 0.2392,0.76966 1.16316,0.65094 0.9427,2.31832 -0.50649,3.83098 l -1.2856,1.34188 h -10.592 c -10.45308,0 -10.60564,-0.0147 -11.63228,-1.10733 z m 11.39917,-0.0888 c 0,-0.59807 -0.93683,-0.71512 -5.62168,-0.70244 -5.04751,0.0136 -5.52682,0.087 -4.69296,0.71767 1.35664,1.0261 10.31464,1.01289 10.31464,-0.0153 z m 11.00412,0 c 0.52361,-0.63092 -0.0765,-0.71766 -4.96504,-0.71766 -5.08779,0 -6.13502,0.22305 -5.24169,1.11637 0.17541,0.1754 2.40971,0.31893 4.96504,0.31893 3.54618,0 4.78709,-0.16992 5.24169,-0.71766 z m -13.73526,-2.5067 c -1.6337,-0.0932 -4.43257,-0.0938 -6.21972,-10e-4 -1.78716,0.0923 -0.45049,0.1685 2.97035,0.16935 3.42086,9.6e-4 4.88307,-0.0747 3.24937,-0.16783 z m 12.43944,0 c -1.63369,-0.0932 -4.43256,-0.0938 -6.21972,-10e-4 -1.78716,0.0923 -0.45049,0.1685 2.97036,0.16935 3.42085,9.6e-4 4.88306,-0.0747 3.24936,-0.16783 z m -9.79881,-2.54922 c -0.17705,-0.53117 -11.39233,-0.93112 -11.39215,-0.4063 2.5e-4,0.75712 1.06393,0.91703 6.1002,0.91703 3.65909,0 5.40599,-0.16863 5.29195,-0.51074 z m 11.89297,-0.20693 c 0.10083,-0.30402 -1.88673,-0.44659 -5.45226,-0.3911 -3.58248,0.056 -5.67444,0.27757 -5.78645,0.61362 -0.12265,0.36788 1.51853,0.48564 5.45226,0.3911 3.2026,-0.0769 5.69611,-0.34136 5.78645,-0.61362 z m -11.80246,-1.92895 c 0,-0.62399 -0.82919,-0.71281 -5.58263,-0.59804 -3.94132,0.0952 -5.64102,0.31062 -5.78116,0.73284 -0.15151,0.45642 1.17079,0.59805 5.58263,0.59805 4.87308,0 5.78116,-0.11513 5.78116,-0.73285 z m 11.84222,0.13478 c -0.23134,-0.69697 -11.36378,-1.1415 -11.36378,-0.45377 0,0.90553 0.84841,1.0518 6.10011,1.0518 4.15667,0 5.41474,-0.14296 5.26367,-0.59804 z m -11.84222,-3.70791 c 0,-0.90586 -0.31899,-0.95689 -5.98051,-0.95689 -5.66154,0 -5.9805,0.0509 -5.9805,0.95689 0,0.90584 0.31894,0.95688 5.9805,0.95688 5.66154,0 5.98051,-0.0509 5.98051,-0.95688 z m 12.61886,0.5752 c 0.12975,-0.20993 0.0715,-0.64766 -0.1294,-0.97277 -0.26481,-0.4285 -1.93259,-0.55385 -6.06278,-0.45557 -4.98251,0.11846 -5.71758,0.24056 -5.85791,0.97276 -0.14591,0.76136 0.38244,0.83729 5.82687,0.83729 3.29305,0 6.0935,-0.17175 6.22324,-0.38167 z m -12.61886,-2.48894 c 0,-0.2944 -2.3922,-0.47845 -6.21973,-0.47845 -3.82751,0 -6.21972,0.18399 -6.21972,0.47845 0,0.29441 2.39221,0.47847 6.21972,0.47847 3.82753,0 6.21973,-0.18399 6.21973,-0.47847 z m 13.15711,0 c 0.19156,-0.31 -1.98854,-0.47845 -6.1915,-0.47845 -4.00582,0 -6.48717,0.18298 -6.48717,0.47845 0,0.2943 2.38278,0.47847 6.19149,0.47847 3.61157,0 6.31469,-0.19936 6.48718,-0.47847 z m -13.15711,-2.3922 v -1.43531 h -6.45894 -6.45895 v 1.43531 1.43533 h 6.45895 6.45894 z m 13.63554,0 v -1.1961 h -6.45894 -6.45895 l -0.15268,1.32944 -0.15275,1.32942 6.61167,-0.1333 6.61165,-0.13331 z m -13.63554,-2.3922 c 0,-0.62431 -10.5165,-0.62431 -11.48257,0 -0.48416,0.31289 1.26717,0.46621 5.38246,0.47111 3.75265,0.005 6.10011,-0.17681 6.10011,-0.47111 z m 12.20022,0 c -0.17043,-0.27576 -2.71613,-0.47845 -6.00874,-0.47845 -3.48973,0 -5.71304,0.18619 -5.71304,0.47845 0,0.29356 2.32188,0.47846 6.00874,0.47846 3.88399,0 5.90417,-0.16918 5.71304,-0.47846 z m -12.20022,-4.7844 v -3.82747 h -5.26285 -5.26284 v 3.82752 3.82753 h 5.26284 5.26285 z m 11.24334,0 v -3.58831 h -5.26284 -5.26285 l -0.14002,3.72378 -0.14003,3.72378 5.40286,-0.13546 5.40287,-0.13545 z m -11.24334,-6.45894 v -2.15298 h -6.44452 -6.44453 l 1.18167,1.74131 c 0.64993,0.95771 1.18169,1.92655 1.18169,2.15297 0,0.22643 2.36828,0.41167 5.26284,0.41167 h 5.26285 z m 11.33622,1.31571 c 0.16613,-0.46049 0.71682,-1.43572 1.22376,-2.16717 l 0.9217,-1.32989 -6.38201,0.13382 -6.38202,0.13381 -0.14708,2.03337 -0.14715,2.03336 h 5.30536 c 4.6187,0 5.34447,-0.10835 5.60744,-0.83726 z m -11.33622,-7.05699 V 253.702 h -7.65504 -7.65506 v 2.15299 2.15297 h 7.65506 7.65504 z m 16.17486,0.11956 -0.14715,-2.03337 h -7.65504 -7.65504 l -0.14709,2.03337 -0.14715,2.03337 h 7.94928 7.94928 z m -2.62918,-3.67374 c 0.925,-0.35171 2.24284,-2.52212 2.24284,-3.69385 0,-0.0923 -10.44195,-0.16784 -23.20435,-0.16784 -12.76239,0 -23.20436,0.0975 -23.20436,0.21671 0,0.81587 1.23481,2.63791 2.08623,3.07835 1.12973,0.58442 6.14597,0.75334 26.94788,0.90746 7.72168,0.0572 14.48556,-0.0952 15.13176,-0.34081 z m 12.12542,-1.07497 c 0.56729,-0.52531 1.1392,-1.36721 1.27092,-1.8709 0.22541,-0.86205 -0.0765,-0.91582 -5.14206,-0.91582 h -5.38153 l -0.55419,1.84966 c -0.3048,1.01731 -0.55434,1.93234 -0.55452,2.03337 -2.1e-4,0.10108 2.09895,0.11057 4.6648,0.0215 3.85561,-0.13426 4.84415,-0.3282 5.69659,-1.11756 z m 4.59024,-0.42394 c 1.29999,-1.60467 1.05978,-2.3628 -0.74865,-2.3628 -1.60012,0 -1.64069,0.044 -3.56977,3.90237 -0.3963,0.7926 3.57649,-0.62376 4.31842,-1.53957 z m -58.48933,-11.5557 v -8.5094 h -1.1961 -1.1961 v 8.29296 c 0,4.56114 0.0974,8.39038 0.21643,8.50941 0.11907,0.11907 0.65729,0.21643 1.1961,0.21643 0.95054,0 0.97966,-0.25299 0.97966,-8.50941 z m 11.00414,-0.1649 v -8.34446 h -4.06675 -4.06674 v 8.35258 8.35257 l 3.70791,0.13975 c 2.03935,0.0769 3.86939,0.0732 4.06675,-0.007 0.19739,-0.0813 0.35883,-3.90287 0.35883,-8.49231 z m 3.34908,-1.43532 c 0,-8.37418 -0.10317,-9.77978 -0.71766,-9.77978 -0.61439,0 -0.71767,1.39987 -0.71767,9.72828 0,5.35056 0.13766,9.86597 0.30594,10.03424 0.90254,0.90253 1.12937,-1.10252 1.12937,-9.98274 z m 11.85243,1.49737 0.13066,-8.40651 h -5.75233 -5.75232 v 8.29296 c 0,4.56113 0.0896,8.38267 0.19913,8.49231 0.10958,0.10958 2.63929,0.16077 5.62167,0.11365 l 5.42253,-0.0858 z m 2.97921,-1.22991 c 0,-8.61193 -0.10255,-10.04724 -0.71766,-10.04724 -0.61448,0 -0.71766,1.40431 -0.71766,9.76815 0,9.40178 0.0628,9.89292 1.31572,10.28856 0.0658,0.021 0.11956,-4.48348 0.11956,-10.00947 z m 12.9179,1.15269 v -8.35966 l -5.62167,0.13477 -5.62169,0.13478 -0.13082,8.23732 -0.13081,8.23732 5.39368,0.13539 c 2.96653,0.0744 5.55516,0.0688 5.75251,-0.0125 0.19738,-0.0814 0.35883,-3.90969 0.35883,-8.5075 z m 1.91375,-1.42015 c 0,-8.37418 -0.10317,-9.77978 -0.71765,-9.77978 -0.61439,0 -0.71766,1.39987 -0.71766,9.72828 0,5.35056 0.13765,9.86597 0.30594,10.03424 0.90252,0.90253 1.12936,-1.10252 1.12936,-9.98274 z m 10.04726,1.68343 v -8.63126 l -3.94714,0.13895 -3.94713,0.13895 -0.13082,8.23356 -0.13082,8.23357 3.95835,0.16133 c 2.17709,0.0888 4.01217,0.20519 4.07796,0.25876 0.0658,0.0537 0.11956,-3.78669 0.11956,-8.53389 z m -52.27158,-6.31999 c -0.0853,-2.6972 -0.15506,-0.49038 -0.15506,4.90402 0,5.39441 0.0698,7.60122 0.15506,4.90401 0.0853,-2.6972 0.0853,-7.11081 0,-9.80803 z m 10.52569,0 c -0.0853,-2.6972 -0.15507,-0.49038 -0.15507,4.90402 0,5.39441 0.0698,7.60122 0.15507,4.90401 0.0853,-2.6972 0.0853,-7.11081 0,-9.80803 z m 33.13396,5.17147 c 0,-5.6848 -0.18603,-9.41631 -0.47847,-9.59704 -0.31288,-0.19337 -0.47845,3.02516 -0.47845,9.30135 0,6.07907 0.1754,9.59705 0.47845,9.59705 0.30255,0 0.47847,-3.41942 0.47847,-9.30136 z m 9.92566,-5.17147 c -0.0853,-2.6972 -0.15507,-0.49038 -0.15507,4.90402 0,5.39441 0.0698,7.60122 0.15507,4.90401 0.0853,-2.6972 0.0853,-7.11081 0,-9.80803 z m 3.9491,6.10012 v -8.3727 h -1.1961 -1.1961 v 8.3727 8.37271 h 1.1961 1.1961 z m -58.68064,-10.28645 c 0.67122,-1.34548 0.65843,-1.43531 -0.20417,-1.43531 -1.10226,0 -2.98697,1.75757 -2.58397,2.40964 0.58861,0.9524 2.08844,0.42829 2.78815,-0.97433 z m 10.37002,0.20807 c 0.25666,-0.67497 0.46659,-1.32087 0.46659,-1.43532 0,-0.11438 -1.64482,-0.20806 -3.65517,-0.20806 -2.92003,0 -3.783,0.1684 -4.29074,0.83727 -1.31391,1.73087 -0.84182,2.03337 3.17335,2.03337 3.68108,0 3.8586,-0.0509 4.30596,-1.22725 z m 15.21041,-0.32769 0.15139,-1.31572 h -5.47806 c -5.44948,0 -5.47925,0.006 -5.70457,1.18486 -0.12461,0.65168 -0.10711,1.30423 0.0389,1.45011 0.14591,0.1459 2.64483,0.20479 5.55319,0.13088 l 5.28792,-0.13438 z m 15.63979,1.07221 c 0.1641,-0.26547 0.1623,-0.91139 -0.004,-1.43532 -0.27887,-0.878 -0.73092,-0.95261 -5.77235,-0.95261 -5.41133,0 -5.46982,0.0123 -5.46982,1.11637 0,0.614 0.14353,1.2599 0.31893,1.43532 0.51971,0.51971 10.59798,0.36866 10.92704,-0.16376 z m 12.19759,-0.0271 c 0,-0.28046 -0.22287,-0.92634 -0.49531,-1.43533 -0.42579,-0.79555 -1.02793,-0.92541 -4.29094,-0.92541 -3.15461,0 -3.75781,0.12116 -3.57148,0.71765 0.1233,0.39471 0.3251,1.04061 0.44841,1.43532 0.17488,0.55972 1.06975,0.71767 4.06674,0.71767 2.40074,0 3.84253,-0.19134 3.84253,-0.50989 z m 5.26283,-0.0503 c 0,-0.89946 -1.50612,-2.31027 -2.46636,-2.31027 -1.07768,0 -1.10973,0.41986 -0.13793,1.80731 0.7807,1.11461 2.60429,1.46679 2.60429,0.50298 z m -7.41582,-3.26714 c 0.19563,-0.31652 -7.73923,-0.47847 -23.44358,-0.47847 -15.70435,0 -23.63918,0.16195 -23.44356,0.47847 0.19053,0.3083 8.52773,0.47845 23.44356,0.47845 14.91583,0 23.25304,-0.17015 23.44358,-0.47845 z m 5.50206,-3.34909 v -1.91377 h -28.94564 -28.94564 v 1.91377 1.91376 h 28.94564 28.94564 z m 5.39996,-9.92797 c 0.056,-4.0131 -0.0192,-7.2964 -0.16812,-7.29621 -0.14861,1.8e-4 -0.65477,0.8077 -1.12478,1.79448 -2.43949,5.12164 -7.42599,9.56878 -13.25751,11.82353 l -3.04978,1.1792 8.74905,-0.10218 8.74904,-0.10219 z m -18.58451,6.35991 c 8.76544,-1.67709 15.24887,-7.59324 17.96758,-16.39542 0.93534,-3.02827 0.95826,-4.42774 0.95826,-58.53289 V 89.154987 l -1.12213,-3.533623 C 179.68776,76.785953 172.23744,70.494455 163.39788,69.495862 158.05946,68.892784 100.81911,68.559936 71.421403,68.961029 l -26.314213,0.359 -3.745984,1.587035 c -6.267622,2.655361 -11.098313,7.83965 -13.334724,14.310817 l -1.100027,3.182976 v 56.455953 56.45596 l 1.078588,2.83201 c 3.058425,8.03046 9.684386,13.84622 17.543508,15.39837 2.153434,0.42529 17.510948,0.58642 59.201979,0.62113 47.46837,0.0396 56.86573,-0.0624 59.93929,-0.65054 z M 54.675993,218.22191 c -4.409491,-0.18129 -8.722828,-0.62008 -10.173554,-1.03496 -6.713894,-1.92001 -12.282928,-7.45828 -14.759556,-14.67807 -0.864193,-2.51927 -0.902665,-4.98652 -0.902665,-57.89128 V 89.357754 l 1.129806,-3.272476 c 2.144771,-6.21229 7.615559,-11.691807 13.941064,-13.963304 2.555582,-0.917718 4.258489,-0.948849 59.087382,-1.080328 38.33526,-0.09194 57.5309,0.02882 59.80503,0.376234 9.02563,1.378785 16.53657,8.382094 18.36751,17.126146 0.37076,1.77065 0.5309,18.808744 0.5309,56.488724 0,47.98728 -0.0844,54.24072 -0.7633,56.55202 -2.59285,8.82739 -9.37842,14.89992 -18.1351,16.22941 -3.80567,0.57781 -95.573986,0.92383 -108.127504,0.40772 z M 168.50372,215.2514 c 6.01447,-2.93842 9.97296,-7.58388 11.51845,-13.51743 0.58808,-2.25777 0.72128,-6.39152 0.71447,-22.17113 l -0.009,-19.39592 -2.36785,2.54513 c -1.93072,2.07529 -2.61366,2.5169 -3.69953,2.3922 -1.02165,-0.11735 -1.36482,-0.43726 -1.47397,-1.37419 -0.18975,-1.62889 5.16402,-6.91022 6.61926,-6.52966 0.84132,0.21999 0.93884,-0.005 0.93884,-2.1713 v -2.4168 l -2.60278,2.46159 c -2.88592,2.72939 -3.68918,2.96407 -4.78592,1.39826 -0.68499,-0.97797 -0.74481,-0.31542 -0.74506,8.2531 -3.7e-4,12.11741 -0.80849,26.14319 -1.74972,30.3678 -2.0359,9.13799 -5.7195,11.50548 -19.77982,12.71269 -9.19931,0.78987 -64.497247,1.12726 -79.89953,0.48751 -18.425288,-0.76531 -23.056955,-1.49554 -26.691119,-4.20809 -4.976507,-3.71447 -5.938489,-9.35406 -6.793669,-39.82756 -0.0033,-0.11846 -0.264403,0.0429 -0.580168,0.35882 -1.100389,1.1004 -2.522548,0.55741 -5.0325,-1.92133 l -2.526855,-2.49547 0.0085,18.64282 c 0.01072,23.8361 0.323174,25.55047 5.738832,31.47604 2.906734,3.18044 4.708785,4.35811 8.991697,5.87628 l 3.202676,1.13526 58.608936,-0.11426 58.60893,-0.11439 z m -26.75159,-7.96009 c 17.17104,-0.66247 21.931,-1.62519 25.20323,-5.09745 2.51971,-2.67371 3.2676,-5.76957 4.48934,-18.58337 0.17563,-1.84199 0.48683,-17.34346 0.6916,-34.4477 0.24977,-20.86553 0.55492,-31.80707 0.92727,-33.2516 0.30526,-1.18415 1.45873,-4.09067 2.56329,-6.45894 l 2.0083,-4.30597 v -8.611928 c 0,-8.587581 -0.004,-8.61979 -1.41157,-11.400161 -1.82848,-3.611764 -6.05996,-7.545154 -9.69563,-9.012589 l -2.76757,-1.117058 H 105.15145 46.542511 l -3.132526,1.484433 c -3.773385,1.78811 -6.106482,3.758444 -8.03053,6.781886 -2.474623,3.888607 -3.079254,6.975414 -2.867652,14.64003 l 0.186535,6.756957 2.034822,4.38622 c 3.544999,7.64156 3.488943,7.01642 3.918567,43.69702 0.221231,18.8865 0.616922,34.78621 0.933902,37.52406 0.580486,5.01384 1.829559,9.28652 3.296666,11.27685 2.765299,3.75151 8.642378,5.15081 23.987309,5.71122 14.689898,0.5365 61.252386,0.55395 74.882506,0.0282 z M 66.374147,170.92075 c -8.002988,-1.23263 -15.935775,-6.75905 -19.722485,-13.73979 -1.69526,-3.12518 -3.219017,-9.07216 -3.219017,-12.56332 0,-3.46693 1.514541,-9.40779 3.210841,-12.5947 0.724888,-1.3619 2.828752,-4.0071 4.675246,-5.87823 5.381934,-5.45378 11.508766,-8.02036 19.145792,-8.02036 7.618694,0 13.737207,2.55889 19.177269,8.02036 4.982938,5.00252 7.837988,11.73146 7.837988,18.47293 0,15.94264 -15.15702,28.7595 -31.105634,26.30311 z m 10.768659,-1.67835 c 10.238517,-2.6668 17.61654,-11.19673 19.126712,-22.11294 0.277291,-2.00438 0.260737,-2.03338 -1.159664,-2.03338 -1.320706,0 -1.440985,0.1362 -1.440985,1.63192 0,2.40086 -1.598194,7.12214 -3.318294,9.80269 -7.923443,12.3476 -24.868547,14.10469 -34.934148,3.62242 -3.186101,-3.318 -5.557184,-7.7228 -6.027223,-11.19687 -0.518128,-3.82973 -0.541297,-3.86016 -2.933259,-3.86016 H 44.28088 l 0.31854,2.27259 c 1.469333,10.48318 9.015658,19.16997 18.981474,21.85011 3.424032,0.92084 10.072799,0.93242 13.561923,0.0237 z m -2.080865,-3.58329 c 3.605611,-0.68379 8.105788,-2.90107 10.652618,-5.24866 13.204802,-12.17176 6.679458,-33.87997 -11.100585,-36.92891 -9.087006,-1.55824 -18.544273,3.60095 -22.705731,12.38658 -1.455805,3.07348 -1.538212,3.54355 -1.538212,8.77433 0,5.42296 0.03391,5.5952 1.795378,9.15959 4.333098,8.76742 13.676025,13.60571 22.896532,11.85707 z m -7.622932,-0.95161 c -5.184945,-1.09268 -11.04102,-5.27047 -13.656943,-9.74302 -3.928309,-6.7164 -3.460446,-16.25304 1.094805,-22.3155 7.490306,-9.96867 21.453165,-11.30047 30.341711,-2.89405 8.777253,8.30117 8.683561,21.66771 -0.20959,29.9012 -4.543408,4.2064 -11.74917,6.27805 -17.569983,5.05137 z m 12.43563,-2.27374 c 5.596198,-2.755 10.334949,-9.15889 11.147876,-15.06509 0.480377,-3.48997 -0.40382,-2.69579 -1.313323,1.17968 -1.075968,4.58469 -3.36999,8.22651 -6.880639,10.92319 -3.898592,2.99467 -7.234176,3.97951 -12.52226,3.69719 -4.91655,-0.26248 -8.224326,-1.57621 -11.660377,-4.63107 -2.658999,-2.36401 -5.474856,-7.62706 -5.934504,-11.09202 -0.318652,-2.40197 -1.145279,-3.27089 -1.145279,-1.20385 0,3.91618 3.816536,11.15214 7.264634,13.77338 4.228297,3.21435 7.58427,4.24022 13.346026,4.07973 4.047147,-0.11278 4.947072,-0.30696 7.697846,-1.66114 z m -1.037408,-1.1489 c 5.524883,-2.56827 9.418034,-7.63592 10.50713,-13.67696 1.423556,-7.89615 -2.95753,-16.15909 -10.423334,-19.65891 -2.37393,-1.11287 -3.317862,-1.27286 -7.509684,-1.27286 -4.449522,0 -5.02339,0.11266 -7.976411,1.56647 -14.923732,7.34693 -13.213264,28.64531 2.723628,33.91395 3.130006,1.03478 9.523004,0.59524 12.678671,-0.87169 z m -12.120579,-3.11452 c -3.088499,-1.06804 -6.668823,-4.3729 -8.259395,-7.62392 -1.704981,-3.48485 -1.780341,-7.8914 -0.197724,-11.56008 1.512783,-3.50672 5.438594,-7.03139 8.977524,-8.06019 5.355957,-1.55702 11.134287,0.14144 14.852701,4.3658 4.632309,5.26259 4.651304,13.36723 0.04351,18.60188 -3.729455,4.23688 -10.278198,6.05347 -15.41672,4.27651 z m 10.399816,-1.81777 c 3.622314,-1.76402 6.307923,-5.38813 7.222047,-9.74583 0.285313,-1.36018 0.211004,-1.5747 -0.497275,-1.43532 -0.543388,0.10687 -1.034568,0.95966 -1.413531,2.45396 -0.779861,3.07504 -2.859137,5.5673 -5.972845,7.15912 -6.90772,3.53145 -14.790638,-0.47094 -16.490435,-8.3727 -0.16478,-0.76593 -0.60135,-1.31572 -1.044824,-1.31572 -1.657513,0 0.871771,6.70447 3.439209,9.11646 0.604146,0.56756 2.136837,1.5519 3.405983,2.18743 1.943588,0.97324 2.873489,1.13235 5.89584,1.00877 2.291241,-0.0937 4.263361,-0.47546 5.455842,-1.05617 z m -2.517474,-1.28606 c 2.476239,-0.74189 5.599773,-3.48792 6.684916,-5.87697 1.083209,-2.38481 1.156772,-6.38422 0.161389,-8.77361 -1.821072,-4.3714 -6.640004,-7.19481 -11.33157,-6.63915 -9.353009,1.10772 -12.907666,12.2308 -6.021285,18.84154 2.779573,2.66834 6.71281,3.58483 10.506561,2.44819 z m -6.226739,-1.1182 c -5.327832,-1.66173 -8.247975,-8.0421 -6.068271,-13.25886 0.940525,-2.25099 4.098542,-4.99773 6.484819,-5.64029 7.882392,-2.12251 14.919766,6.21682 11.53503,13.66907 -1.121415,2.46904 -3.877412,4.75536 -6.540616,5.42597 -2.518412,0.63413 -2.780109,0.62466 -5.410962,-0.19586 z m 6.788514,-0.77719 c 2.551622,-1.31093 4.619874,-3.95216 5.292971,-6.75932 0.475747,-1.98409 -0.500666,-1.5809 -1.158676,0.47845 -1.135893,3.55505 -4.242888,5.86089 -7.897203,5.86089 -3.988853,0 -7.198813,-2.50211 -8.132686,-6.33933 -0.35058,-1.44042 -1.173358,-1.79796 -1.173358,-0.50987 0,1.88889 2.094947,5.07142 4.229359,6.42504 1.763337,1.11826 2.712084,1.38106 4.986129,1.38106 1.544637,0 3.278692,-0.24164 3.853464,-0.5369 z m 0.816986,-3.54055 c 3.085471,-2.95606 2.967277,-7.38644 -0.272937,-10.2314 -3.206309,-2.81517 -8.645446,-1.73859 -10.452193,2.06885 -1.500707,3.1625 -0.736857,6.18949 2.181597,8.64521 1.382915,1.16364 1.847089,1.28205 4.323634,1.10291 2.252911,-0.16296 3.046101,-0.461 4.21991,-1.58557 z m -12.71258,-6.80707 c 0.933873,-3.83722 4.143833,-6.33934 8.132686,-6.33934 3.654315,0 6.76131,2.30585 7.897203,5.8609 0.525304,1.64417 1.455924,2.47531 1.455924,1.30034 0,-2.17138 -2.924444,-6.17201 -5.490866,-7.51152 -4.848451,-2.53057 -11.885688,0.99419 -12.987901,6.50527 -0.373636,1.8681 0.541805,2.03804 0.992954,0.18434 z m -3.305963,-0.2392 c 0.805447,-3.73162 3.781218,-7.3522 7.225677,-8.7914 1.949612,-0.81459 5.405221,-0.8461 8.008531,-0.073 2.968865,0.88165 6.271205,4.41169 7.237882,7.73693 0.502193,1.72748 1.036714,2.68239 1.501509,2.68239 1.827059,0 -1.345889,-7.35686 -4.120822,-9.55465 -7.909957,-6.2648 -19.478627,-2.04207 -21.321777,7.78274 -0.265873,1.4171 -0.185631,1.77191 0.400478,1.77191 0.439016,0 0.867459,-0.62344 1.068516,-1.55493 z m -7.2478,-0.79463 c 0.459529,-3.46404 3.275477,-8.72779 5.934504,-11.09312 11.203183,-9.96579 28.180394,-4.16467 31.289586,10.69165 0.692968,3.31113 1.536452,3.68878 1.068622,0.47845 -0.961741,-6.5996 -4.980621,-12.03801 -11.134734,-15.06766 -2.99178,-1.47285 -3.453642,-1.55814 -8.437923,-1.55814 -4.923683,0 -5.478874,0.0991 -8.382767,1.49548 -3.952557,1.90072 -6.517966,4.15693 -8.523985,7.49665 -2.169653,3.61213 -3.784614,9.90626 -2.541779,9.90626 0.229256,0 0.557063,-1.0573 0.728476,-2.34956 z m -3.849163,1.51228 c 0.127202,-0.46049 0.369624,-1.85629 0.53881,-3.10174 0.169131,-1.24547 1.067975,-3.7845 1.997397,-5.64232 5.587682,-11.1691 18.831058,-15.55234 30.121073,-9.96932 2.921188,1.44456 7.530888,5.68987 9.116953,8.39627 1.519651,2.59311 3.032424,7.34352 3.032424,9.52247 0,1.50153 0.116976,1.63191 1.464639,1.63191 h 1.464639 l -0.331255,-2.27258 C 94.702571,131.1345 87.77395,123.10117 77.434712,120.03179 73.698098,118.9225 66.827703,119.0109 62.917724,120.21861 53.013197,123.2778 46.0518,131.50458 44.599442,141.86666 l -0.318539,2.27259 h 2.175042 c 1.664435,0 2.229352,-0.19654 2.406304,-0.83727 z m 85.928871,27.61881 c -8.34662,-1.28555 -16.4444,-7.13133 -20.05011,-14.47417 -5.08897,-10.36342 -3.15876,-22.14796 4.9632,-30.30187 5.44007,-5.46145 11.55859,-8.02036 19.17728,-8.02036 7.63702,0 13.76386,2.5666 19.1458,8.02036 1.84649,1.87113 3.95034,4.51634 4.67523,5.87823 1.6963,3.18691 3.21085,9.12778 3.21085,12.59472 0,3.48642 -1.5216,9.43073 -3.21902,12.5755 -3.00493,5.56712 -9.46752,10.81728 -15.67938,12.73779 -3.5814,1.10726 -8.74604,1.52545 -12.22385,0.9898 z m 10.76866,-1.67835 c 10.11867,-2.63557 17.70215,-11.28103 19.18683,-21.87372 l 0.31853,-2.27258 h -2.17506 c -2.39199,0 -2.4151,0.0304 -2.93326,3.86015 -1.05829,7.82188 -9.00977,15.87854 -17.39096,17.621 -11.19578,2.32761 -22.58187,-4.3794 -25.98228,-15.30495 -0.49852,-1.6018 -0.90643,-3.64674 -0.90643,-4.5443 0,-1.4957 -0.12031,-1.6319 -1.44098,-1.6319 -1.42042,0 -1.43696,0.0288 -1.15967,2.03336 1.49502,10.80672 8.83629,19.37711 18.92136,22.08932 3.42404,0.92084 10.0728,0.93243 13.56193,0.0238 z m -3.77591,-3.61801 c 6.59578,-1.21525 12.33083,-5.61888 15.39673,-11.82235 1.76162,-3.56439 1.79539,-3.73662 1.79539,-9.15957 0,-5.2308 -0.0823,-5.70087 -1.53822,-8.77434 -6.24027,-13.1744 -22.94799,-16.78885 -33.54885,-7.25775 -11.45733,10.30111 -8.88412,28.74355 4.91122,35.19916 4.75285,2.22412 8.17004,2.70177 12.98373,1.81485 z m -7.80473,-0.93944 c -5.49523,-1.08402 -11.48769,-5.58754 -14.01618,-10.5336 -4.26218,-8.3374 -2.61546,-17.98423 4.16447,-24.39641 12.86827,-12.17028 34.13089,-2.9339 34.13089,14.82627 0,5.97294 -2.03631,10.64303 -6.46842,14.83475 -4.89774,4.63207 -11.35533,6.54244 -17.81076,5.26899 z m 11.60051,-1.81609 c 3.75971,-1.68489 5.98688,-3.43528 8.21397,-6.4555 2.00248,-2.71564 3.98625,-7.77754 3.98625,-10.17156 0,-2.06704 -0.82664,-1.19811 -1.14527,1.20384 -0.45965,3.46496 -3.2755,8.72801 -5.9345,11.09202 -3.43605,3.05486 -6.74383,4.36859 -11.66038,4.63108 -5.28808,0.28232 -8.62367,-0.70251 -12.52226,-3.69719 -3.51064,-2.69669 -5.80468,-6.33851 -6.88064,-10.9232 -0.90952,-3.87547 -1.79368,-4.66965 -1.31332,-1.17967 0.95854,6.96417 6.90583,13.96622 13.75745,16.19736 3.13794,1.02182 10.51283,0.64091 13.4987,-0.69718 z m -0.18179,-1.59601 c 14.11429,-6.484 14.42039,-26.18377 0.51321,-33.03024 -2.95301,-1.45377 -3.52688,-1.56647 -7.9764,-1.56647 -4.19182,0 -5.13576,0.15997 -7.50968,1.27285 -7.45447,3.49452 -11.85054,11.77115 -10.42568,19.62877 1.2398,6.83703 5.63298,12.05492 12.08825,14.35749 3.64156,1.29895 9.69684,0.9976 13.31029,-0.6624 z m -11.85937,-3.18762 c -6.0816,-2.10165 -9.72785,-7.14025 -9.72785,-13.4425 0,-7.4213 5.42833,-13.43174 12.82953,-14.20532 4.17145,-0.43603 7.53464,0.70478 10.75511,3.64809 6.53164,5.96957 6.47917,15.25404 -0.11969,21.18704 -3.9041,3.51012 -8.81133,4.51489 -13.73702,2.81269 z m 10.13496,-1.77008 c 3.69806,-1.74947 6.40663,-5.31211 7.18235,-9.44716 0.27029,-1.44086 0.1901,-1.77189 -0.42935,-1.77189 -0.44348,0 -0.88006,0.54976 -1.04482,1.3157 -0.59174,2.75078 -1.89977,5.04347 -3.86371,6.7722 -3.65651,3.21859 -8.29857,3.80603 -12.64743,1.60051 -3.08102,-1.56254 -5.57791,-4.62238 -6.01805,-7.37489 -0.27412,-1.71424 -1.24182,-2.83764 -1.88786,-2.19161 -0.4992,0.49919 0.93231,4.75882 2.28605,6.80258 3.3997,5.13264 10.64587,7.02749 16.42284,4.29456 z m -2.10286,-1.43139 c 8.61623,-3.03996 9.85401,-15.05842 2.02472,-19.65919 -7.34336,-4.31522 -16.4606,0.95655 -16.42509,9.49733 0.0136,3.25449 1.28756,6.02298 3.70614,8.0535 3.33847,2.80281 6.7947,3.4842 10.69423,2.10836 z m -6.4073,-0.85369 c -2.54743,-0.79238 -5.08135,-2.9778 -6.12991,-5.28684 -3.39522,-7.4767 3.62636,-15.82064 11.52384,-13.69407 2.38628,0.64256 5.54429,3.3893 6.48481,5.64029 2.20488,5.27699 -0.77783,11.66041 -6.20095,13.27089 -2.7565,0.8186 -3.25077,0.82468 -5.67779,0.0698 z m 7.86156,-1.70311 c 2.13441,-1.35361 4.22935,-4.53615 4.22935,-6.42505 0,-1.28807 -0.8228,-0.93053 -1.17336,0.50989 -0.93387,3.8372 -4.14382,6.33933 -8.13268,6.33933 -3.65432,0 -6.7613,-2.30584 -7.8972,-5.86089 -0.65799,-2.05934 -1.63442,-2.46253 -1.15868,-0.47846 0.48355,2.01659 1.39687,3.58424 2.88952,4.95959 2.11918,1.95264 3.05909,2.30646 6.16877,2.32207 2.38627,0.0123 3.28023,-0.22875 5.07428,-1.36649 z m -1.05301,-2.26424 c 2.85737,-2.40431 3.61078,-5.45643 2.12157,-8.5947 -1.80023,-3.79368 -7.24529,-4.88454 -10.42889,-2.08931 -3.02349,2.65468 -3.39677,6.61253 -0.90311,9.57605 1.54743,1.83903 2.61296,2.29177 5.48533,2.33073 1.74173,0.0237 2.56501,-0.24661 3.7251,-1.22277 z m -11.92089,-7.71767 c 1.1359,-3.55505 4.24289,-5.8609 7.8972,-5.8609 3.98885,0 7.19881,2.50212 8.13269,6.33934 0.45117,1.85369 1.36658,1.68375 0.99296,-0.18434 -0.82232,-4.11161 -4.7518,-7.24856 -9.07983,-7.24856 -2.77729,0 -4.70797,0.82941 -6.62253,2.84501 -1.2157,1.27985 -2.77642,4.32089 -2.77642,5.4098 0,1.17497 0.9306,0.34385 1.45593,-1.30034 z m -3.13624,-0.88824 c 1.83711,-6.31941 9.38443,-10.11323 15.24642,-7.66393 3.44445,1.43918 6.42022,5.05976 7.22568,8.79138 0.20105,0.93151 0.62945,1.55493 1.06851,1.55493 1.53289,0 -0.34347,-5.41282 -2.95027,-8.51084 -4.01753,-4.77456 -12.62903,-5.27474 -17.97103,-1.0438 -2.77493,2.19778 -5.94787,9.55464 -4.12081,9.55464 0.46478,0 0.99932,-0.9549 1.5015,-2.68238 z m -7.5042,-0.0687 c 0.86286,-4.12291 2.65961,-7.53954 5.33576,-10.14617 7.27763,-7.08862 18.33695,-7.32107 25.95383,-0.54548 2.65902,2.36533 5.47497,7.62909 5.9345,11.09313 0.17144,1.29225 0.49924,2.34955 0.72848,2.34955 1.24284,0 -0.37211,-6.29413 -2.54177,-9.90626 -2.00603,-3.33973 -4.57144,-5.59593 -8.52399,-7.49665 -2.9039,-1.39644 -3.4591,-1.49549 -8.38277,-1.49549 -4.98428,0 -5.44615,0.0853 -8.43793,1.55815 -6.1541,3.02965 -10.17299,8.46806 -11.13474,15.06766 -0.46783,3.21034 0.37567,2.83269 1.06863,-0.47847 z m -3.73338,1.11912 c 0,-2.17894 1.51278,-6.92936 3.03243,-9.52246 1.58606,-2.7064 6.19577,-6.95172 9.11696,-8.39627 6.84358,-3.38423 15.12191,-3.15812 21.5135,0.5876 5.07081,2.97169 9.89664,9.80842 10.60496,15.02402 0.53237,3.91994 0.54661,3.93902 2.94509,3.93902 h 2.17506 l -0.31853,-2.27259 c -1.86465,-13.3036 -12.49339,-22.6063 -25.82868,-22.6063 -13.43961,0 -23.87435,9.12934 -25.83881,22.6063 l -0.33125,2.27259 h 1.46464 c 1.34762,0 1.46463,-0.13037 1.46463,-1.63191 z M 71.414186,113.0289 c -0.644391,-1.04265 0.372674,-3.38499 2.013037,-4.63617 l 1.688124,-1.28759 -0.192072,-4.32849 c -0.227788,-5.132444 -1.366867,-8.057297 -3.240939,-8.321743 -0.645916,-0.09109 -2.395692,0.204047 -3.888385,0.656013 -2.489559,0.753773 -2.906773,0.760368 -5.045323,0.07975 -3.83056,-1.21905 -5.419416,-1.422999 -6.178457,-0.793043 -0.918481,0.762265 -0.904902,3.283471 0.01978,3.638246 0.770575,0.2957 0.957946,2.402427 0.305204,3.431677 -0.262314,0.4136 -1.184123,0.57657 -2.706309,0.47847 -2.069321,-0.13342 -2.35639,-0.29323 -2.770576,-1.54243 -0.367534,-1.108457 -0.301757,-1.510807 0.321421,-1.966497 0.517225,-0.37821 0.785986,-1.286614 0.790822,-2.673142 0.0041,-1.155128 0.165514,-2.337125 0.35883,-2.626656 0.688372,-1.030941 2.476917,-1.626556 4.884289,-1.626556 3.032105,0 6.024924,-1.413449 6.325839,-2.987557 0.402172,-2.103779 0.0486,-2.316495 -3.284964,-1.974982 l -3.105554,0.318202 0.158168,-1.385733 c 0.168848,-1.479697 0.861079,-1.635746 3.900575,-0.879338 0.819314,0.203884 1.805357,0.09245 2.50772,-0.283448 0.875591,-0.468626 1.440378,-0.490608 2.318998,-0.09024 0.813624,0.370697 1.687661,0.38392 2.918223,0.04408 2.234065,-0.616854 3.215536,-0.247339 3.019004,1.136735 -0.14082,0.991595 -0.36075,1.064986 -2.725855,0.909663 -2.816885,-0.185007 -3.401664,0.22467 -3.037794,2.128147 0.305542,1.598465 1.286426,2.025754 5.43004,2.365489 6.159893,0.505018 7.441149,2.095409 8.276884,10.273883 0.554633,5.42771 0.702883,5.97919 1.879158,6.99099 1.338035,1.15092 2.224628,2.95093 2.224628,4.51658 0,0.86945 -0.391096,0.92574 -6.430706,0.92574 -3.873163,0 -6.551178,-0.1949 -6.733621,-0.4901 z m 56.223954,-1.20038 c 0,-1.28958 0.39166,-2.08216 1.65154,-3.34202 1.74468,-1.74468 1.94415,-2.43597 2.40016,-8.31785 0.33521,-4.323568 1.60109,-7.38619 3.44181,-8.326891 0.74671,-0.381607 2.95484,-0.826954 4.90697,-0.98966 4.01437,-0.334595 5.43236,-1.19112 5.20485,-3.14389 -0.13324,-1.143886 -0.3086,-1.221073 -2.77368,-1.221073 -2.36616,0 -2.64686,-0.108717 -2.78459,-1.078626 -0.20077,-1.413842 0.86521,-1.786754 3.04813,-1.066331 1.27178,0.419748 1.88058,0.431445 2.26839,0.04351 0.6818,-0.681801 2.57838,-0.685531 2.9984,-0.0057 0.19751,0.319613 1.00221,0.407372 2.06161,0.224904 3.79944,-0.654421 4.12984,-0.599512 4.12984,0.686242 0,1.15316 -0.11167,1.196092 -3.10985,1.196092 -2.19445,0 -3.09578,0.176031 -3.06202,0.598056 0.0266,0.328938 0.0801,1.023681 0.11956,1.543897 0.11476,1.512576 2.21769,2.506218 6.11078,2.887406 4.33357,0.424318 5.13171,1.050022 5.25378,4.118721 0.0486,1.218349 0.35426,2.379656 0.67947,2.580666 0.36917,0.22813 0.49789,0.96966 0.34256,1.973407 -0.1801,1.16421 0.001,1.88129 0.65826,2.5985 0.89396,0.9763 0.88972,1.00685 -0.29442,2.1193 l -1.20146,1.12871 1.05223,1.12005 c 0.98704,1.05065 1.00223,1.17004 0.24531,1.92695 -0.63024,0.63024 -0.93336,0.68046 -1.38446,0.22936 -0.73641,-0.73639 -2.42026,-0.74427 -3.14982,-0.0147 -0.43144,0.43146 -0.78883,0.35828 -1.53126,-0.31361 -0.96782,-0.87588 -0.96783,-0.87687 -0.0111,-1.54683 1.21393,-0.85028 1.21285,-1.67176 -0.004,-2.77264 -0.85759,-0.77611 -0.88409,-0.9542 -0.24673,-1.65846 0.54057,-0.59731 0.60779,-1.15941 0.27668,-2.31394 -0.32793,-1.143447 -0.26622,-1.696087 0.24671,-2.209037 0.37623,-0.37623 0.68409,-1.438511 0.68409,-2.360562 0,-2.286945 -1.1254,-2.552057 -5.36584,-1.264067 -3.33696,1.013561 -3.47068,1.017678 -6.61123,0.203149 -1.76296,-0.457266 -3.5445,-0.701238 -3.95899,-0.542205 -1.74898,0.67115 -2.46095,2.766115 -2.64687,7.788362 l -0.18082,4.88572 1.45767,1.07769 c 1.61142,1.19138 2.73604,3.39781 2.30475,4.52176 -0.23,0.59985 -1.40514,0.72625 -6.75247,0.72625 h -6.47396 z m 31.29871,-8.64717 c 1.32524,-0.50852 0.81513,-1.14491 -0.91775,-1.14491 -1.58325,0 -2.07059,0.40133 -1.35558,1.11637 0.39714,0.39713 1.28384,0.40826 2.27333,0.0288 z m -105.920652,4.62394 c -0.413927,-0.77348 -0.330464,-1.42676 0.385728,-3.01912 l 0.913982,-2.03207 0.562263,1.40841 c 1.196961,2.9982 -0.465915,6.25139 -1.861984,3.64278 z m 50.460712,-4.80648 c -3.22474,-0.72759 -6.385775,-3.251787 -7.385395,-5.897525 -0.279892,-0.740769 -0.508864,-2.60029 -0.508864,-4.13228 0,-8.743634 10.999019,-12.805004 16.922389,-6.248558 4.28798,4.746287 3.21926,11.906216 -2.24161,15.017773 -2.26315,1.28952 -4.67372,1.73729 -6.78651,1.26059 z m 5.97184,-1.43638 c 2.33993,-1.19375 4.09292,-3.458587 4.82418,-6.232818 1.69946,-6.447318 -4.86541,-12.785652 -11.41575,-11.021829 -6.019781,1.620963 -8.737257,9.001709 -5.25288,14.26697 2.41114,3.643477 7.86324,5.018727 11.84445,2.987677 z m -72.714267,62.13636 c 0,-0.26317 -0.179077,-0.36777 -0.397991,-0.23249 -0.218915,0.13529 -1.456851,-0.87394 -2.751029,-2.24272 -1.730766,-1.83052 -1.841602,-2.01463 -0.419125,-0.69617 2.580141,2.39147 3.299401,2.29837 0.936704,-0.12129 -2.037771,-2.08687 -2.070766,-2.10242 -3.090811,-1.45722 -0.55808,0.35301 -0.226995,0.85675 1.64637,2.50448 1.289743,1.13443 2.57296,2.30912 2.851593,2.61044 0.552203,0.59713 1.224272,0.39669 1.224272,-0.36511 z m 137.963827,0.2957 c -0.15144,-0.39471 -0.494,-0.71765 -0.76123,-0.71765 -0.28005,0 -0.23355,0.30401 0.1097,0.71765 0.32758,0.39471 0.67014,0.71766 0.76123,0.71766 0.0911,0 0.0418,-0.32295 -0.10982,-0.71766 z m 3.40443,-2.62039 c 1.28995,-1.30965 2.23807,-2.48846 2.10696,-2.61958 -0.13115,-0.13111 -1.40259,0.9404 -2.82546,2.38118 -1.42287,1.44076 -2.37101,2.61958 -2.10696,2.61958 0.26407,0 1.53551,-1.07153 2.82546,-2.38118 z M 37.691362,159.37515 c 0,-3.28606 -0.03503,-3.3915 -0.874942,-2.63141 -0.481228,0.43551 -1.067048,0.79181 -1.301835,0.79181 -0.234794,0 -1.671104,-1.23123 -3.191803,-2.73605 l -2.764904,-2.73607 v 2.74518 c 0,2.60725 0.05425,2.73171 1.076492,2.4773 0.854716,-0.2127 1.664797,0.32753 3.932157,2.6223 1.570613,1.58961 2.916227,2.89018 2.990248,2.89018 0.07403,0 0.134604,-1.54045 0.134604,-3.42324 z m 139.465348,1.03104 c 1.02781,-1.05257 1.65344,-1.91377 1.3903,-1.91377 -0.26316,0 -1.31937,0.8612 -2.34718,1.91377 -1.0278,1.05258 -1.65344,1.91376 -1.3903,1.91376 0.26316,0 1.31937,-0.86118 2.34718,-1.91376 z m -140.514631,-5.0363 c -0.147318,-0.14732 -0.414829,0.11821 -0.594499,0.59007 -0.259658,0.68188 -0.204674,0.73683 0.267852,0.26786 0.326959,-0.32453 0.473994,-0.7106 0.326676,-0.8579 z m 138.056231,0.49112 c -0.15144,-0.39471 -0.46088,-0.71766 -0.68763,-0.71766 -0.22672,0 -0.28831,0.32295 -0.13686,0.71766 0.15144,0.39471 0.46088,0.71766 0.68762,0.71766 0.22672,0 0.28831,-0.32295 0.13687,-0.71766 z M 35.298925,155.26294 c -2.88e-4,-0.44461 -4.582714,-4.42557 -5.094197,-4.42557 -0.204392,0 0.688643,1.07648 1.984574,2.3922 2.234105,2.26822 3.110154,2.84106 3.109623,2.03337 z M 178.1136,153.22957 c 1.29592,-1.31572 2.14093,-2.3922 1.87779,-2.3922 -0.26317,0 -1.53875,1.07648 -2.83468,2.3922 -1.29593,1.31571 -2.14094,2.3922 -1.87779,2.3922 0.26316,0 1.53875,-1.07649 2.83468,-2.3922 z M 37.691362,151.52086 c 0,-3.29316 -0.06833,-3.55413 -0.751831,-2.87064 -1.212881,1.21287 -2.111691,0.89564 -4.647705,-1.64038 -1.315714,-1.3157 -2.469097,-2.3922 -2.563077,-2.3922 -0.09398,0 -0.170882,1.091 -0.170882,2.42445 0,2.23234 0.07832,2.39959 0.988207,2.1108 0.784889,-0.2491 1.596981,0.32029 3.947132,2.76763 1.627411,1.69472 3.012751,3.11314 3.078538,3.15205 0.06577,0.0389 0.119626,-1.55935 0.119626,-3.55171 z m 142.077798,-2.46358 c 0.88839,0.2323 0.97585,0.0356 0.97585,-2.19549 v -2.45067 l -2.52685,2.49546 c -2.72316,2.68933 -3.38086,2.92613 -4.73169,1.70365 -0.84023,-0.76039 -0.87494,-0.64967 -0.87494,2.79092 v 3.5827 l 3.09089,-3.09089 c 2.33278,-2.33277 3.33022,-3.02828 4.06674,-2.83568 z m -0.9379,1.44125 c 0,-0.35928 -0.42959,0.0203 -2.4122,2.13299 l -2.13299,2.27259 2.27259,-2.13298 c 1.24993,-1.17315 2.2726,-2.19582 2.2726,-2.2726 z M 34.103059,152.2727 c -1.027802,-1.05258 -2.084034,-1.91377 -2.347179,-1.91377 -0.26316,0 0.362505,0.86119 1.3903,1.91377 1.027809,1.05256 2.084036,1.91375 2.34718,1.91375 0.26316,0 -0.362503,-0.86119 -1.390301,-1.91375 z m 2.53902,-5.03629 c -0.147318,-0.14732 -0.414829,0.11821 -0.594499,0.59007 -0.259658,0.68187 -0.204674,0.73682 0.267852,0.26785 0.326959,-0.32453 0.473994,-0.7106 0.326676,-0.85791 z m 138.056231,0.49111 c -0.15144,-0.39471 -0.46088,-0.71765 -0.68763,-0.71765 -0.22672,0 -0.28831,0.32294 -0.13686,0.71765 0.15144,0.39471 0.46088,0.71766 0.68762,0.71766 0.22672,0 0.28831,-0.32295 0.13687,-0.71766 z M 33.13532,145.08506 c -1.289953,-1.30964 -2.561409,-2.38118 -2.825452,-2.38118 -0.264065,0 0.684088,1.17882 2.106961,2.61959 1.422877,1.44077 2.694328,2.5123 2.825457,2.38118 0.1311,-0.13115 -0.817008,-1.30994 -2.106966,-2.61959 z m 144.97828,0.0111 c 1.29592,-1.31572 2.14093,-2.39221 1.87779,-2.39221 -0.26317,0 -1.53875,1.07649 -2.83468,2.39221 -1.29593,1.3157 -2.14094,2.3922 -1.87779,2.3922 0.26316,0 1.53875,-1.0765 2.83468,-2.3922 z M 37.740236,134.04545 c 0.04181,-14.8042 -0.396465,-17.8714 -3.502912,-24.51747 l -2.048022,-4.38167 v -8.372693 -8.372711 l 1.518756,-3.205885 c 1.718214,-3.626915 4.813671,-6.985797 7.884884,-8.555903 4.699772,-2.402676 3.006292,-2.340455 63.866938,-2.346518 55.51303,-0.0055 57.08312,0.01922 60.04426,0.943311 5.3853,1.680749 9.87089,5.95974 11.8819,11.334612 2.26966,6.066216 1.71112,16.955517 -1.17769,22.960127 -2.3496,4.88381 -3.10773,8.41794 -3.44706,16.06899 l -0.29176,6.57856 h 4.13774 4.13774 l 0.0468,-7.057 c 0.0254,-3.88134 0.13196,-12.87005 0.23627,-19.97489 0.11673,-7.949583 -0.007,-14.021949 -0.32233,-15.788519 -1.18574,-6.648893 -5.89105,-12.66773 -12.26244,-15.685634 L 165.19586,72.133939 106.3477,71.99668 c -44.496407,-0.103811 -59.373225,0.0023 -61.001145,0.434608 -5.221556,1.386921 -10.041161,5.01322 -12.829949,9.653307 -2.922183,4.86205 -2.946646,5.139575 -2.952902,33.500085 l -0.0057,25.7484 0.988207,-0.31361 c 0.782261,-0.2483 1.604853,0.31831 3.947133,2.71878 1.62741,1.66784 3.015733,3.01151 3.085165,2.98593 0.06945,-0.0254 0.142289,-5.73097 0.161841,-12.67867 z m 142.011854,6.97245 c 0.95533,0.30323 0.99292,0.15015 0.99292,-4.04241 v -4.35754 l -3.94713,0.13895 -3.94714,0.13896 -0.132,6.98964 -0.132,6.98967 3.0862,-3.08621 c 2.44461,-2.44461 3.29265,-3.02069 4.07916,-2.77107 z m -145.88825,3.36053 c -1.162146,-1.18415 -2.220638,-2.15299 -2.352213,-2.15299 -0.131551,0 0.711632,0.96884 1.873772,2.15299 1.162146,1.18414 2.220645,2.15298 2.352214,2.15298 0.131552,0 -0.711625,-0.96884 -1.873773,-2.15298 z m 144.96742,-2.01338 c 0,-0.35929 -0.42959,0.0203 -2.4122,2.13298 l -2.13299,2.2726 2.27259,-2.133 c 1.24993,-1.17313 2.2726,-2.1958 2.2726,-2.27258 z m 4.4375,-69.872065 -0.10761,-10.406292 H 152.40942 121.6577 l -0.14851,1.794151 -0.1485,1.794152 10.67418,0.106917 c 5.8708,0.05877 15.41073,0.128049 21.19986,0.153873 9.62895,0.04295 10.79063,0.139239 13.63555,1.129904 1.71042,0.595624 3.8634,1.534488 4.7844,2.086363 2.45937,1.473685 6.21973,4.663821 6.21973,5.276556 0,0.292037 -0.80737,-0.245418 -1.79416,-1.194401 -2.59103,-2.491724 -6.14083,-4.58758 -9.55969,-5.644196 -2.73633,-0.845682 -4.70072,-0.926161 -23.92201,-0.980065 -18.7554,-0.05255 -20.95702,0.02034 -21.09557,0.699278 -0.13917,0.682105 1.87282,0.758838 20.0945,0.766314 21.97905,0.009 24.59775,0.245192 29.34345,2.646285 1.3306,0.673223 3.47845,2.059567 4.77299,3.08077 1.29455,1.021202 2.50907,1.760716 2.69896,1.643364 0.44336,-0.274011 1.86824,1.752063 3.47497,4.941109 0.69603,1.381496 1.31572,2.511907 1.37708,2.512026 0.0614,1.13e-4 0.0631,-4.682621 0.004,-10.406076 z m -62.44853,-5.263057 c 0.15686,-0.470265 -3.12527,-0.598049 -15.36145,-0.598049 -14.039274,0 -16.70561,0.187666 -15.782511,1.110747 0.158047,0.158055 7.185179,0.241914 15.615901,0.186365 11.76458,-0.07753 15.37495,-0.240048 15.52806,-0.69904 z m 0.11969,-5.621671 V 57.06307 H 105.15138 89.36285 v 4.545187 4.545181 h 15.78853 15.78854 z m 63.06201,-2.272594 -0.1471,-2.033368 H 152.75622 121.6576 l -0.14715,2.033368 -0.14715,2.03337 h 31.39286 31.39286 z m -5.64918,-3.46869 c 0,-0.624935 -2.27728,-0.717661 -17.62482,-0.717661 -21.45925,0 -40.7449,0.489141 -40.7449,1.033409 0,0.221062 13.13319,0.40189 29.18486,0.40189 25.62314,0 29.18486,-0.08759 29.18486,-0.717661 z m 7.1766,-4.908639 v -3.234095 l -1.55493,0.0047 -1.55493,0.0047 -0.2392,-11.004124 c -0.13156,-6.052268 -0.39941,-10.681178 -0.59524,-10.286465 -0.19581,0.394713 -0.4111,5.346571 -0.47846,11.004125 l -0.1224,10.28643 h -2.3922 -2.3922 l -0.12862,-10.884544 c -0.12346,-10.452454 -0.16585,-10.884519 -1.0675,-10.884519 -0.90165,0 -0.94402,0.432065 -1.06752,10.884519 l -0.12861,10.884512 h -3.34908 -3.34909 l -0.12861,-10.884512 -0.12861,-10.884519 h -1.17814 -1.17813 l -0.12862,10.884519 -0.12862,10.884512 h -3.82751 -3.82753 l -0.12861,-10.884512 -0.12861,-10.884519 h -1.42633 -1.42634 v 10.755792 10.755792 l -1.09126,0.273897 c -0.60018,0.150653 -2.48404,0.208574 -4.18635,0.128727 l -3.0951,-0.145171 -0.12867,-10.914152 -0.12867,-10.914152 -1.54587,0.14924 -1.54588,0.14924 -0.23919,10.764906 -0.2392,10.764901 -3.27254,0.142459 c -2.00078,0.08708 -3.53469,-0.0751 -3.94713,-0.41743 -0.54288,-0.450544 -0.6746,-2.603526 -0.6746,-11.026965 V 25.964519 h -1.18711 -1.18712 l -0.12862,10.884518 -0.12861,10.884513 h -3.34909 -3.34908 l -0.12855,-10.884513 c -0.12348,-10.452452 -0.16587,-10.884518 -1.06752,-10.884518 -0.90165,0 -0.94403,0.432066 -1.06751,10.884518 l -0.12861,10.884513 h -2.3922 -2.39222 L 116.7444,36.849037 c -0.0775,-6.565214 -0.3113,-10.884518 -0.58907,-10.884518 -0.27775,0 -0.51151,4.319304 -0.58907,10.884518 l -0.12861,10.884513 -1.55493,-0.07052 -1.55493,-0.07052 v 3.300015 3.300018 h 36.60068 36.60068 z M 115.19863,34.741446 c 0,-12.244072 -0.002,-12.272243 -0.95688,-11.408411 -0.90592,0.819839 -0.95689,1.473578 -0.95689,12.274379 0,11.089453 0.0265,11.40841 0.95689,11.40841 0.93201,0 0.95688,-0.318935 0.95688,-12.274378 z m 6.10833,0.193768 c -0.12619,-11.92386 -0.1411,-12.082509 -1.14912,-12.226267 -0.65415,-0.0933 -1.38508,0.316844 -2.03336,1.141013 -0.96346,1.224854 -1.01209,1.8122 -1.01209,12.226266 V 47.01583 h 2.16119 2.1612 z m 9.20176,1.107639 c 0,-6.035141 -0.20999,-11.525243 -0.4666,-12.200228 -0.57842,-1.52139 -2.70361,-1.673295 -4.38441,-0.313397 -1.12123,0.907168 -1.13054,0.996389 -1.27367,12.200227 l -0.14422,11.286375 h 3.13445 3.13444 z m 10.52568,-0.475408 c 0,-9.76971 -0.11019,-11.558633 -0.75183,-12.200228 -0.96308,-0.963072 -3.51282,-0.966751 -4.88299,-0.0068 -1.04848,0.734382 -1.06333,0.904869 -1.06333,12.200229 v 11.45543 h 3.34907 3.34908 z m 11.48257,-0.0068 c 0,-11.29536 -0.0147,-11.465847 -1.06333,-12.200229 -1.49352,-1.046105 -4.00136,-0.942955 -5.1564,0.212078 -0.90258,0.90259 -0.95687,1.594799 -0.95687,12.200227 v 11.243342 h 3.5883 3.5883 V 35.560647 Z m 11.48257,0.429578 V 24.964368 l -1.17436,-1.174353 c -1.3858,-1.385802 -3.81818,-1.56728 -5.12731,-0.382563 -0.80102,0.724928 -0.87494,1.755555 -0.87494,12.200227 V 47.01609 h 3.58831 3.5883 V 35.99022 Z m 9.5688,0 V 24.964368 l -1.20406,-1.20407 c -0.88982,-0.889815 -1.60782,-1.165097 -2.75104,-1.054741 l -1.54696,0.149296 -0.12782,12.080615 -0.12782,12.080616 h 2.87886 2.87885 V 35.990215 Z m 7.17661,-0.217502 c 0,-10.605428 -0.0542,-11.297637 -0.95688,-12.200227 -1.14738,-1.147381 -2.65727,-1.246153 -3.05868,-0.200098 -0.15975,0.416243 -0.2904,5.906341 -0.2904,12.200228 v 11.443434 h 2.15299 2.15297 z m 4.30596,0.50095 c 0,-10.840306 -0.26492,-12.811714 -1.80086,-13.401111 -0.57498,-0.220666 -0.65571,0.01922 -0.41365,1.229585 0.1654,0.827044 0.30074,6.321016 0.30074,12.208822 0,10.38614 0.0282,10.705097 0.95688,10.705097 0.92846,0 0.95688,-0.318935 0.95688,-10.742393 z M 117.3615,23.912657 c 0.78655,-1.250063 1.2771,-1.536504 2.63143,-1.536504 1.52836,0 1.67692,0.127313 1.81457,1.554932 0.19766,2.050423 1.6864,2.119759 2.71714,0.126522 0.78703,-1.521959 2.14462,-2.092911 4.37135,-1.838436 1.07924,0.123358 1.47159,0.4901 1.83129,1.711897 0.60604,2.058595 2.31993,2.149727 3.33976,0.177607 0.82871,-1.60253 1.58926,-1.971741 4.06171,-1.971741 1.80948,0 2.92614,0.793319 3.53559,2.511811 0.3825,1.07861 3.19759,1.183914 3.19759,0.119626 0,-1.38916 1.82178,-2.631424 3.85898,-2.631424 2.40548,0 3.70813,0.663266 4.28557,2.182073 0.69329,1.823483 2.8907,1.594171 3.81646,-0.398274 0.62517,-1.345518 0.98474,-1.563788 2.79012,-1.693611 2.30601,-0.165797 4.12905,0.737189 4.62165,2.289269 0.50276,1.584125 2.34295,1.241897 3.14718,-0.585306 0.54532,-1.238879 1.00733,-1.585916 2.27318,-1.707381 1.81236,-0.173878 3.696,0.867114 4.14845,2.292687 0.16924,0.533272 0.7102,0.969627 1.20208,0.969627 0.65927,0 0.93373,-0.408671 1.04424,-1.554933 0.12642,-1.311177 0.36398,-1.579418 1.51546,-1.711129 1.44275,-0.165005 3.65809,1.428789 3.65809,2.631797 0,0.348828 0.1927,0.634265 0.42817,0.634265 0.43981,0 0.96851,-3.706676 0.58357,-4.091602 -0.46789,-0.467892 -66.50627,-0.206823 -66.7973,0.264065 -0.16263,0.263161 -0.0579,0.478458 0.23265,0.478458 0.3447,0 0.41918,0.582029 0.21423,1.67454 -0.39003,2.078977 0.20659,2.119856 1.47677,0.101211 z m 7.2843,-15.7459051 c -0.087,-2.4473749 -0.15863,-0.5744049 -0.15913,4.1621531 -4.8e-4,4.73656 0.0706,6.738956 0.15817,4.449773 0.0875,-2.289179 0.0879,-6.164545 9.6e-4,-8.6119261 z m 2.40526,4.0425471 c -0.11032,-7.1716991 -0.24224,-8.4923186 -0.8483,-8.4923186 -0.60352,0 -0.73865,1.2527069 -0.84961,7.8759006 -0.0726,4.331741 -0.0254,8.153283 0.10465,8.492313 0.13008,0.339051 0.57121,0.616419 0.98026,0.616419 0.64963,0 0.72718,-1.074286 0.61305,-8.492314 z m 1.91377,0.118726 c -0.17664,-11.3204883 -1.04454,-11.40507704 -1.21817,-0.118726 -0.11377,7.398752 -0.0356,8.492314 0.60909,8.492314 0.64415,0 0.72286,-1.081944 0.60908,-8.373588 z m 3.34909,-0.118726 -0.13065,-8.4923186 -1.31572,-0.151387 -1.3157,-0.151387 v 8.6437066 8.643706 h 1.44636 1.44635 z m 2.50077,-0.119626 c 0,-8.2929678 -0.0356,-8.6119249 -0.95689,-8.6119249 -0.92143,0 -0.95687,0.3189349 -0.95687,8.6119249 0,8.292963 0.0356,8.611926 0.95687,8.611926 0.92145,0 0.95689,-0.318936 0.95689,-8.611926 z m 4.30596,0 V 3.4777481 h -1.67455 -1.67453 v 8.6119249 8.611926 h 1.67453 1.67455 z m 3.24051,0.119626 c -0.12918,-8.3974856 -0.14269,-8.4940258 -1.20714,-8.6452033 l -1.07649,-0.1528562 v 8.6451985 8.645203 h 1.20715 1.20713 z m 4.7844,0 -0.13065,-8.4923186 -2.03337,-0.1470926 -2.03337,-0.147148 v 8.6394332 8.639435 h 2.16402 2.16403 z m 2.97921,-0.119626 V 3.4777481 h -1.1961 -1.1961 v 8.6119249 8.611926 h 1.1961 1.1961 z m 4.7844,0 V 3.4777481 h -1.91376 -1.91375 v 8.6119249 8.611926 h 1.91375 1.91376 z m 3.24052,0.119626 c -0.12918,-8.3974856 -0.14268,-8.4940258 -1.20714,-8.6452033 l -1.07649,-0.1528562 v 8.6451985 8.645203 h 1.20714 1.20713 z m 4.30597,0 -0.13066,-8.4923186 h -1.67455 -1.67453 l -0.13065,8.4923186 -0.13065,8.492314 h 1.93585 1.93583 z m 2.50076,-0.119626 c 0,-8.2929678 -0.0356,-8.6119249 -0.95688,-8.6119249 -0.92143,0 -0.95687,0.3189349 -0.95687,8.6119249 0,8.292963 0.0356,8.611926 0.95687,8.611926 0.92145,0 0.95688,-0.318936 0.95688,-8.611926 z m 3.34909,-0.03164 V 3.4143309 l -1.22382,0.151387 -1.22382,0.151387 0.0153,8.2530951 c 0.009,4.539203 0.021,8.360744 0.0277,8.49232 0.006,0.131551 0.55052,0.239201 1.20838,0.239201 h 1.1961 v -8.643707 z m 1.91376,0.03164 c 0,-5.4223267 -0.17722,-8.6119249 -0.47846,-8.6119249 -0.30125,0 -0.47846,3.1895982 -0.47846,8.6119249 0,5.42232 0.17721,8.611926 0.47846,8.611926 0.30124,0 0.47846,-3.189606 0.47846,-8.611926 z m 2.28363,0.159073 c -0.0965,-6.2417255 -0.28707,-8.5049166 -0.7287,-8.6517935 -0.46372,-0.1542121 -0.59805,1.7443163 -0.59805,8.4528765 0,7.42978 0.10293,8.651798 0.72869,8.651798 0.63008,0 0.71103,-1.144069 0.59806,-8.452881 z m 0.94324,-4.3453961 c -0.0876,-2.302497 -0.15947,-0.4186158 -0.15947,4.1863521 0,4.604989 0.0717,6.488848 0.15947,4.186351 0.0878,-2.302493 0.0878,-6.07021 0,-8.3727031 z"
       style="fill:#000000;stroke-width:0.47844025" />
  </g>
</svg>
