<?xml version="1.0" encoding="UTF-8" standalone="no"?>
<svg
   inkscape:version="1.1 (c68e22c387, 2021-05-23)"
   sodipodi:docname="icon.svg"
   xml:space="preserve"
   style="enable-background:new 0 0 667 666;"
   viewBox="0 0 667 666"
   y="0px"
   x="0px"
   id="Layer_1"
   version="1.1"
   xmlns:inkscape="http://www.inkscape.org/namespaces/inkscape"
   xmlns:sodipodi="http://sodipodi.sourceforge.net/DTD/sodipodi-0.dtd"
   xmlns="http://www.w3.org/2000/svg"
   xmlns:svg="http://www.w3.org/2000/svg"
   xmlns:rdf="http://www.w3.org/1999/02/22-rdf-syntax-ns#"
   xmlns:cc="http://creativecommons.org/ns#"
   xmlns:dc="http://purl.org/dc/elements/1.1/"><metadata
   id="metadata319"><rdf:RDF><cc:Work
       rdf:about=""><dc:format>image/svg+xml</dc:format><dc:type
         rdf:resource="http://purl.org/dc/dcmitype/StillImage" /></cc:Work></rdf:RDF></metadata><defs
   id="defs317"><marker
     inkscape:isstock="true"
     style="overflow:visible"
     id="Arrow1Send"
     refX="0"
     refY="0"
     orient="auto"
     inkscape:stockid="Arrow1Send"><path
       transform="matrix(-0.2,0,0,-0.2,-1.2,0)"
       style="fill:#000000;fill-opacity:1;fill-rule:evenodd;stroke:#000000;stroke-width:1.00000003pt;stroke-opacity:1"
       d="M 0,0 5,-5 -12.5,0 5,5 Z"
       id="path4714"
       inkscape:connector-curvature="0" /></marker><clipPath
     id="clipPath69-0"><path
       d="m 409.441,126.252 v -43.63 h 147.796 v 43.63"
       id="path71-2"
       inkscape:connector-curvature="0" /></clipPath><clipPath
     id="clipPath101-1"><path
       d="m 409.441,126.252 v -43.63 h 147.796 v 43.63"
       id="path103-6"
       inkscape:connector-curvature="0" /></clipPath><clipPath
     id="clipPath69"><path
       d="m 409.441,126.252 v -43.63 h 147.796 v 43.63"
       id="path71"
       inkscape:connector-curvature="0" /></clipPath><clipPath
     id="clipPath101"><path
       d="m 409.441,126.252 v -43.63 h 147.796 v 43.63"
       id="path103"
       inkscape:connector-curvature="0" /></clipPath></defs><sodipodi:namedview
   inkscape:document-rotation="0"
   inkscape:current-layer="Layer_1"
   inkscape:window-maximized="1"
   inkscape:window-y="-8"
   inkscape:window-x="-8"
   inkscape:cy="449.98058"
   inkscape:cx="430.02579"
   inkscape:zoom="0.50113274"
   showgrid="false"
   id="namedview315"
   inkscape:window-height="987"
   inkscape:window-width="1680"
   inkscape:pageshadow="2"
   inkscape:pageopacity="0"
   guidetolerance="10"
   gridtolerance="10"
   objecttolerance="10"
   borderopacity="1"
   bordercolor="#666666"
   pagecolor="#ffffff"
   inkscape:pagecheckerboard="0" />
<style
   id="style2"
   type="text/css">
	.st0{fill:none;stroke:#000000;stroke-width:2;stroke-linecap:round;stroke-linejoin:round;stroke-miterlimit:10;}
</style>


<path
   id="path3851"
   d="m 402.07829,640.45739 c -2.28491,-2.43215 -2.98874,-7.24679 -1.21928,-8.34038 0.63304,-0.3912 0.56034,-1.32102 -0.19816,-2.53582 -0.91639,-1.46741 -0.91665,-2.5352 -10e-4,-4.54489 0.65833,-1.44472 0.79573,-2.62685 0.30543,-2.62685 -0.86482,0 -1.60293,-3.58183 -2.76889,-13.43714 -0.51298,-4.33586 -0.31834,-4.92368 2.17062,-6.55452 2.70506,-1.77238 2.73048,-1.89918 2.38893,-11.90528 -0.33978,-9.95459 -0.39775,-10.16076 -3.67796,-13.08999 -1.83295,-1.63687 -3.9607,-2.97613 -4.72831,-2.97613 -1.68798,0 -2.62146,-3.12765 -2.64021,-8.84606 l -0.0128,-4.25388 -12.84234,-0.33831 -12.84234,-0.33833 -2.97526,-3.33269 -2.9753,-3.33272 v -22.24227 c 0,-20.97332 0.11817,-22.36966 2.08074,-24.47565 1.6004,-1.71784 3.24949,-2.23342 7.14345,-2.23342 6.46311,0 6.63886,-1.82803 0.21532,-2.24018 l -4.84734,-0.31111 -0.30954,-4.81178 -0.30962,-4.81178 -79.28872,-0.29966 c -78.53939,-0.29685 -79.34549,-0.32061 -85.10884,-2.5148 -16.1718,-6.15686 -27.30915,-17.34976 -32.65487,-32.81783 l -2.34614,-6.78915 V 329.5286 208.60043 l 2.33128,-6.74397 c 6.08967,-17.61637 20.90047,-30.78292 38.79371,-34.48695 3.43449,-0.71089 21.40176,-1.11949 49.23868,-1.11949 h 43.83088 v -12.24588 -12.2459 h 32.23052 c 25.32814,0 32.14051,-0.27324 31.81035,-1.27562 -0.25898,-0.78622 -3.12987,-1.47135 -7.48363,-1.78585 l -7.06343,-0.5102 -0.30399,-30.61473 c -0.18962,-19.091212 0.0951,-31.99262 0.75658,-34.275431 1.76103,-6.078706 4.21013,-7.496134 13.95224,-8.074931 l 8.58832,-0.510207 0.20797,-17.650679 c 0.11454,-9.707866 0.48114,-18.092713 0.81517,-18.632988 0.38003,-0.614948 20.99869,-0.883491 55.13754,-0.718122 l 54.53045,0.264203 0.27818,18.623947 0.27818,18.623964 h 7.68134 c 9.66272,0 13.21525,1.662405 14.73297,6.894257 0.72184,2.488457 1.00244,14.674925 0.80453,34.945857 l -0.30384,31.12498 -6.88831,0.3018 c -5.08526,0.22274 -6.88833,0.6763 -6.88833,1.73252 0,1.00655 1.58862,1.52225 5.35757,1.73924 l 5.35758,0.30844 0.25817,175.22052 0.25819,175.22053 -6.38098,0.30386 -6.38097,0.30384 -0.31096,4.84735 -0.31111,4.84731 h -5.61701 c -3.48482,0 -5.3776,0.38738 -4.98631,1.02053 0.34688,0.56131 2.84881,1.02056 5.55987,1.02056 3.3312,0 5.71019,0.63206 7.33833,1.94964 2.36769,1.91612 2.4151,2.30974 2.75375,22.87341 0.49562,30.09301 -0.32568,31.30393 -21.23188,31.30393 h -11.25818 v 6.17503 c 0,6.06966 -0.0601,6.2 -3.50346,7.63885 -5.70482,2.38364 -6.70144,4.73774 -6.70144,15.82952 0,9.21596 0.15698,9.94741 2.63388,12.27397 2.77132,2.60304 2.73408,2.02188 0.87734,13.69934 -0.35701,2.24513 -1.32051,4.61193 -2.1412,5.25963 -0.98089,0.77405 -1.12153,1.40674 -0.41066,1.84614 1.43644,0.88765 1.38651,5.34151 -0.07,6.24164 -0.7873,0.48658 -0.62592,1.00583 0.5102,1.64168 2.48097,1.3884 2.01074,4.94483 -1.08032,8.1713 l -2.74213,2.86218 h -22.59223 c -22.29594,0 -22.62134,-0.0316 -24.81111,-2.36189 z m 24.3139,-0.18939 c 0,-1.27564 -1.99822,-1.52531 -11.99079,-1.49828 -10.7661,0.0288 -11.78844,0.18556 -10.00986,1.53073 2.89365,2.18864 22.00065,2.16048 22.00065,-0.0327 z m 23.47127,0 c 1.11684,-1.34574 -0.16317,-1.53073 -10.5902,-1.53073 -10.85201,0 -13.08571,0.47574 -11.18028,2.38114 0.37414,0.3741 5.1398,0.68026 10.5902,0.68026 7.56384,0 10.21064,-0.36242 11.18028,-1.53073 z m -29.29667,-5.34671 c -3.4846,-0.19876 -9.45446,-0.20006 -13.26637,0 -3.81193,0.19685 -0.96087,0.35938 6.33562,0.36118 7.29653,0 10.41536,-0.15931 6.93075,-0.35796 z m 26.53275,0 c -3.48459,-0.19876 -9.45445,-0.20006 -13.26638,0 -3.81193,0.19685 -0.96087,0.35938 6.33564,0.36118 7.29652,0 10.41534,-0.15931 6.93074,-0.35796 z m -20.90041,-5.43734 c -0.37764,-1.13298 -24.2993,-1.98604 -24.29892,-0.8666 5.3e-4,1.61487 2.26931,1.95595 13.01144,1.95595 7.80467,0 11.53072,-0.35965 11.28748,-1.08935 z m 25.36715,-0.44137 c 0.21507,-0.64849 -4.02431,-0.95256 -11.62942,-0.83421 -7.64126,0.11947 -12.10331,0.59205 -12.34222,1.30882 -0.26161,0.78467 3.23895,1.03585 11.62941,0.83421 6.831,-0.16405 12.14954,-0.72811 12.34223,-1.30882 z m -25.17409,-4.11435 c 0,-1.33095 -1.76863,-1.5204 -11.9075,-1.27559 -8.40664,0.20305 -12.03203,0.66254 -12.33094,1.56312 -0.32316,0.9735 2.49724,1.27559 11.9075,1.27559 10.39405,0 12.33094,-0.24555 12.33094,-1.56312 z m 25.2589,0.28748 c -0.49344,-1.4866 -24.23841,-2.43481 -24.23841,-0.96791 0,1.93147 1.80961,2.24344 13.01125,2.24344 8.86598,0 11.54939,-0.30492 11.22716,-1.27559 z m -25.2589,-7.90883 c 0,-1.93215 -0.68039,-2.04101 -12.75615,-2.04101 -12.0758,0 -12.75613,0.10858 -12.75613,2.04101 0,1.93214 0.68028,2.041 12.75613,2.041 12.0758,0 12.75615,-0.10858 12.75615,-2.041 z m 26.91544,1.22688 c 0.27675,-0.44775 0.1525,-1.3814 -0.27601,-2.07487 -0.56483,-0.91395 -4.12212,-1.18134 -12.93163,-0.97168 -10.62746,0.25265 -12.19533,0.5131 -12.49464,2.07481 -0.31122,1.62395 0.81572,1.78592 12.42844,1.78592 7.02392,0 12.99715,-0.36632 13.27388,-0.81407 z m -26.91544,-5.30878 c 0,-0.62795 -5.10246,-1.0205 -13.2664,-1.0205 -8.1639,0 -13.26637,0.39244 -13.26637,1.0205 0,0.62794 5.10247,1.02056 13.26637,1.02056 8.16394,0 13.2664,-0.39245 13.2664,-1.02056 z m 28.0635,0 c 0.40858,-0.66124 -4.24146,-1.0205 -13.20618,-1.0205 -8.54423,0 -13.83683,0.3903 -13.83683,1.0205 0,0.62772 5.08236,1.02056 13.20615,1.02056 7.70332,0 13.46895,-0.42524 13.83686,-1.02056 z m -28.0635,-5.10246 v -3.06145 h -13.77662 -13.77664 v 3.06145 3.06151 h 13.77664 13.77662 z m 29.08397,0 v -2.55123 H 441.69954 427.9229 l -0.32566,2.83566 -0.3258,2.8356 14.10237,-0.28437 14.10235,-0.28432 z m -29.08397,-5.10246 c 0,-1.33163 -22.43121,-1.33163 -24.49179,0 -1.03269,0.66739 2.70281,0.99443 11.48053,1.00487 8.00423,0.0107 13.01126,-0.37715 13.01126,-1.00487 z m 26.0225,0 c -0.36352,-0.58816 -5.79338,-1.0205 -12.81636,-1.0205 -7.44344,0 -12.18565,0.39713 -12.18565,1.0205 0,0.62614 4.95246,1.02056 12.81636,1.02056 8.28437,0 12.59332,-0.36084 12.18565,-1.02056 z m -26.0225,-10.20486 v -8.16384 h -11.22542 -11.22539 v 8.1639 8.16396 h 11.22539 11.22542 z m 23.98152,0 v -7.65372 h -11.2254 -11.22541 l -0.29865,7.94266 -0.29868,7.94264 11.52405,-0.28895 11.52406,-0.28889 z m -23.98152,-13.77665 v -4.5922 h -13.74586 -13.74588 l 2.52044,3.71413 c 1.38627,2.04276 2.52049,4.10924 2.52049,4.59218 0,0.48297 5.05143,0.87808 11.22539,0.87808 h 11.22542 z m 24.17962,2.80635 c 0.35435,-0.9822 1.52895,-3.06232 2.61023,-4.62247 l 1.96594,-2.83659 -13.61253,0.28543 -13.61255,0.28541 -0.31372,4.33708 -0.31386,4.33706 h 11.31609 c 9.85147,0 11.3995,-0.2311 11.9604,-1.78583 z m -24.17962,-15.05222 v -4.59223 h -16.32785 -16.32788 v 4.59223 4.59218 h 16.32788 16.32785 z m 34.50022,0.25501 -0.31387,-4.33708 H 444.2507 427.92286 l -0.31374,4.33708 -0.31386,4.33708 h 16.95544 16.95545 z m -5.60792,-7.83592 c 1.97298,-0.75018 4.78388,-5.37956 4.78388,-7.8788 0,-0.19688 -22.2722,-0.358 -49.49381,-0.358 -27.22157,0 -49.49381,0.20796 -49.49381,0.46223 0,1.74022 2.6338,5.62654 4.44983,6.56598 2.40967,1.24654 13.10907,1.60684 57.47857,1.93557 16.46999,0.122 30.89703,-0.20306 32.27534,-0.72693 z m 25.86296,-2.29286 c 1.21,-1.12046 2.42986,-2.91619 2.71081,-3.99054 0.48079,-1.83871 -0.16317,-1.9534 -10.96778,-1.9534 h -11.47855 l -1.18206,3.94524 c -0.65012,2.16987 -1.18238,4.12159 -1.18276,4.33708 -4.5e-4,0.2156 4.47696,0.23584 9.9498,0.0459 8.22383,-0.28637 10.33234,-0.70003 12.15056,-2.3837 z m 9.79076,-0.90424 c 2.77282,-3.42269 2.26046,-5.03974 -1.59684,-5.03974 -3.41297,0 -3.49951,0.0938 -7.61415,8.32357 -0.84529,1.69058 7.62849,-1.33045 9.21099,-3.28383 z M 366.1832,531.3669 v -18.15016 h -2.55122 -2.55123 v 17.68851 c 0,9.72869 0.20775,17.89628 0.46164,18.15016 0.25397,0.25398 1.40197,0.46164 2.55122,0.46164 2.02746,0 2.08957,-0.53961 2.08957,-18.15017 z m 23.47132,-0.35173 v -17.79834 h -8.67419 -8.67417 v 17.81566 17.81565 l 7.9088,0.29808 c 4.34984,0.16402 8.25323,0.15613 8.67419,-0.015 0.42103,-0.1734 0.76537,-8.32463 0.76537,-18.1137 z m 7.14343,-3.06147 c 0,-17.86173 -0.22006,-20.85981 -1.53073,-20.85981 -1.31047,0 -1.53076,2.98586 -1.53076,20.74997 0,11.41249 0.29362,21.04365 0.65255,21.40256 1.92508,1.92506 2.4089,-2.35162 2.4089,-21.29272 z m 25.28068,3.19382 0.27869,-17.93069 h -12.26945 -12.26943 v 17.6885 c 0,9.72867 0.19112,17.87984 0.42474,18.1137 0.23373,0.23373 5.62948,0.34291 11.99075,0.24241 l 11.56601,-0.18301 z m 6.35452,-2.62334 c 0,-18.36884 -0.21874,-21.43029 -1.53074,-21.43029 -1.31065,0 -1.53074,2.99533 -1.53074,20.83501 0,20.05356 0.13396,21.10114 2.80637,21.94502 0.14035,0.0448 0.25502,-9.56306 0.25502,-21.34974 z m 27.55327,2.45864 v -17.83077 l -11.99075,0.28746 -11.99081,0.28748 -0.27903,17.56982 -0.27901,17.56982 11.50446,0.28878 c 6.32747,0.15869 11.8489,0.14675 12.26984,-0.0266 0.421,-0.17362 0.76537,-8.33919 0.76537,-18.1461 z m 4.08195,-3.02912 c 0,-17.86173 -0.22006,-20.85981 -1.53072,-20.85981 -1.31047,0 -1.53074,2.98586 -1.53074,20.74997 0,11.41249 0.2936,21.04365 0.65256,21.40256 1.92503,1.92506 2.40887,-2.35162 2.40887,-21.29272 z m 21.43033,3.59068 v -18.41007 l -8.41906,0.29637 -8.41905,0.29638 -0.27903,17.56179 -0.27904,17.56183 8.44298,0.3441 c 4.64363,0.18941 8.55777,0.43766 8.6981,0.55193 0.14035,0.11454 0.25501,-8.07684 0.25501,-18.20239 z M 370.00586,518.06414 c -0.18194,-5.753 -0.33074,-1.04596 -0.33074,10.46004 0,11.50603 0.14888,16.21305 0.33074,10.46003 0.18194,-5.753 0.18194,-15.16703 0,-20.92007 z m 22.45081,0 c -0.18194,-5.753 -0.33076,-1.04596 -0.33076,10.46004 0,11.50603 0.14888,16.21305 0.33076,10.46003 0.18193,-5.753 0.18193,-15.16703 0,-20.92007 z m 70.67318,11.0305 c 0,-12.12541 -0.39679,-20.08455 -1.02055,-20.47004 -0.66735,-0.41245 -1.02051,6.45253 -1.02051,19.83935 0,12.96637 0.37412,20.47006 1.02051,20.47006 0.64533,0 1.02055,-7.29347 1.02055,-19.83937 z m 21.17097,-11.0305 c -0.18193,-5.753 -0.33075,-1.04596 -0.33075,10.46004 0,11.50603 0.14888,16.21305 0.33075,10.46003 0.18194,-5.753 0.18194,-15.16703 0,-20.92007 z m 8.42325,13.01127 v -17.85858 h -2.55122 -2.55123 v 17.85858 17.8586 h 2.55123 2.55122 z M 367.56101,509.13489 c 1.43167,-2.86984 1.40439,-3.06145 -0.43549,-3.06145 -2.35107,0 -6.37107,3.74882 -5.51149,5.13965 1.25548,2.03142 4.45455,0.91353 5.94699,-2.0782 z m 22.11876,0.4438 c 0.54745,-1.43968 0.99522,-2.81735 0.99522,-3.06146 0,-0.24397 -3.50833,-0.44379 -7.79631,-0.44379 -6.22829,0 -8.06896,0.35919 -9.15195,1.78586 -2.8025,3.69187 -1.79556,4.33708 6.76861,4.33708 7.85157,0 8.23022,-0.10856 9.18441,-2.61766 z m 32.4431,-0.69894 0.32291,-2.80637 h -11.68445 c -11.62349,0 -11.68699,0.0128 -12.16758,2.52725 -0.26579,1.39 -0.22846,2.78186 0.083,3.09302 0.31122,0.31119 5.6413,0.4368 11.84469,0.27916 l 11.27889,-0.28663 z m 33.35894,2.28697 c 0.35001,-0.56624 0.34618,-1.94395 -0.009,-3.06147 -0.59482,-1.87273 -1.55903,-2.03187 -12.31216,-2.03187 -11.54211,0 -11.66687,0.0262 -11.66687,2.38116 0,1.30964 0.30614,2.68731 0.68026,3.06147 1.10852,1.10852 22.605,0.78634 23.30687,-0.34929 z m 26.01689,-0.0578 c 0,-0.59821 -0.47537,-1.97584 -1.05648,-3.06149 -0.90818,-1.69687 -2.19252,-1.97386 -9.15237,-1.97386 -6.72864,0 -8.01523,0.25843 -7.6178,1.53072 0.263,0.84189 0.69342,2.21957 0.95644,3.06147 0.37301,1.19385 2.28173,1.53075 8.67416,1.53075 5.12067,0 8.19594,-0.40812 8.19594,-1.08757 z m 11.22537,-0.10729 c 0,-1.9185 -3.21248,-4.9277 -5.26063,-4.9277 -2.29864,0 -2.367,0.89554 -0.2942,3.85491 1.6652,2.37741 5.55483,3.12859 5.55483,1.07284 z m -15.8176,-6.96866 c 0.41727,-0.67512 -16.50742,-1.02055 -50.00406,-1.02055 -33.49664,0 -50.42127,0.34543 -50.00402,1.02055 0.40639,0.65759 18.18925,1.02052 50.00402,1.02052 31.81477,0 49.59765,-0.36293 50.00406,-1.02052 z m 11.73564,-7.14345 v -4.08198 h -61.7397 -61.7397 v 4.08198 4.08196 h 61.7397 61.7397 z m 11.51786,-21.1759 c 0.11945,-8.55975 -0.041,-15.56288 -0.35859,-15.56247 -0.31698,3.8e-4 -1.39659,1.72279 -2.3991,3.82754 -5.20332,10.92422 -15.83929,20.40976 -28.27765,25.21904 l -6.50504,2.51518 18.66131,-0.21795 18.6613,-0.21797 z m -39.63989,13.56539 c 18.69628,-3.57715 32.52513,-16.19602 38.32401,-34.97066 1.99504,-6.45916 2.04392,-9.44416 2.04392,-124.84792 V 211.22935 l -2.39345,-7.53706 c -5.98457,-18.84551 -21.87576,-32.26498 -40.73013,-34.39494 -11.3866,-1.28633 -133.4776,-1.99628 -196.18153,-1.14077 l -56.12699,0.76573 -7.99001,3.38507 c -13.36854,5.66376 -23.67218,16.72161 -28.44234,30.5243 l -2.34631,6.78915 v 120.41791 120.41792 l 2.30058,6.04055 c 6.52348,17.1286 20.65635,29.53334 37.41948,32.84401 4.59318,0.90712 37.35004,1.2508 126.27506,1.32483 101.24782,0.0845 121.29195,-0.13309 127.84771,-1.38757 z m -234.65436,-2.75594 c -9.40524,-0.38668 -18.60539,-1.3226 -21.69972,-2.20752 -14.32041,-4.09529 -26.19891,-15.90816 -31.48144,-31.30764 -1.84328,-5.37349 -1.92534,-10.63602 -1.92534,-123.4794 V 211.66184 l 2.40982,-6.98004 c 4.5747,-13.25052 16.24364,-24.93808 29.73564,-29.78307 5.45094,-1.95745 9.08316,-2.02385 126.03063,-2.30429 81.76732,-0.19611 122.71073,0.0615 127.56133,0.80249 19.25125,2.94088 35.27174,17.87861 39.17705,36.52927 0.79081,3.77671 1.13239,40.11817 1.13239,120.48781 0,102.35462 -0.18003,115.69292 -1.62809,120.62281 -5.53043,18.82842 -20.00373,31.78084 -38.68132,34.61658 -8.11732,1.23244 -203.85485,1.97049 -230.63092,0.86965 z m 242.78923,-6.33596 c 12.82859,-6.26751 21.27186,-16.17606 24.56832,-28.83205 1.25435,-4.81571 1.53845,-13.63281 1.52393,-47.28998 l -0.0192,-41.37059 -5.05052,5.42864 c -4.11813,4.42649 -5.57481,5.36843 -7.89092,5.10245 -2.17913,-0.2503 -2.9111,-0.93265 -3.14391,-2.93109 -0.40473,-3.47434 11.01461,-14.73917 14.11857,-13.92746 1.7945,0.46923 2.0025,-0.0107 2.0025,-4.63127 v -5.15493 l -5.55161,5.25046 c -6.15553,5.82166 -7.86884,6.32223 -10.20814,2.98242 -1.46105,-2.08596 -1.58864,-0.67278 -1.58918,17.60348 -5.6e-4,25.84587 -1.72447,55.76221 -3.73207,64.7731 -4.34248,19.4909 -12.19942,24.54065 -42.18943,27.11557 -19.6217,1.68476 -137.56962,2.4044 -170.42197,1.03984 -39.30028,-1.63237 -49.17941,-3.18992 -56.93091,-8.97566 -10.61466,-7.92279 -12.66652,-19.95177 -14.49058,-84.95032 -0.007,-0.25268 -0.56396,0.0915 -1.23747,0.76534 -2.34708,2.3471 -5.38048,1.18893 -10.73408,-4.0981 l -5.38967,-5.32273 0.0181,39.76427 c 0.0229,50.84129 0.68931,54.49796 12.24066,67.13692 6.19993,6.78373 10.04362,9.29565 19.17887,12.53383 l 6.83116,2.42146 125.01012,-0.24371 125.01011,-0.24399 z m -57.05989,-16.9785 c 36.62502,-1.41301 46.7778,-3.46645 53.75731,-10.87262 5.37443,-5.7029 6.96964,-12.30622 9.57555,-39.63746 0.37462,-3.92888 1.03839,-36.9928 1.47515,-73.47534 0.53275,-44.5052 1.18363,-67.84299 1.97783,-70.92411 0.6511,-2.52574 3.1114,-8.72521 5.46738,-13.77662 l 4.2836,-9.18443 v -18.36884 c 0,-18.31691 -0.009,-18.38561 -3.01081,-24.31601 -3.90006,-7.70373 -12.92561,-16.09347 -20.68033,-19.22344 l -5.90309,-2.38263 H 333.52751 208.51738 l -6.68153,3.16623 c -8.04845,3.81396 -13.02484,8.01658 -17.12874,14.46544 -5.27826,8.29422 -6.56791,14.87824 -6.11657,31.22651 l 0.39787,14.41227 4.34018,9.3556 c 7.56132,16.29909 7.44175,14.9657 8.35812,93.2037 0.47188,40.28403 1.31587,74.19737 1.99197,80.03707 1.23815,10.69429 3.90236,19.80772 7.03164,24.053 5.89825,8.00179 18.43378,10.98644 51.1638,12.18176 31.33287,1.14434 130.64848,1.18155 159.7209,0.0602 z m -160.77772,-77.5767 c -17.07,-2.62915 -33.99026,-14.41674 -42.06714,-29.30634 -3.61591,-6.66586 -6.86601,-19.35049 -6.86601,-26.79697 0,-7.3948 3.23044,-20.06638 6.84857,-26.86391 1.54615,-2.90487 6.0336,-8.54695 9.97208,-12.53799 11.47941,-11.63266 24.54766,-17.10705 40.83708,-17.10705 16.25032,0 29.30082,5.45799 40.90422,17.10705 10.62838,10.67014 16.71806,25.02265 16.71806,39.4019 0,34.0049 -32.32921,61.34267 -66.34686,56.10331 z m 22.96904,-3.57985 c 21.83828,-5.68816 37.57526,-23.8821 40.79639,-47.16587 0.59145,-4.27525 0.55614,-4.3371 -2.47351,-4.3371 -2.817,0 -3.07355,0.2905 -3.07355,3.48081 0,5.12092 -3.40888,15.19119 -7.07777,20.90868 -16.90033,26.33685 -53.04345,30.08464 -74.51291,7.72645 -6.7958,-7.07714 -11.85321,-16.47237 -12.85578,-23.8824 -1.10514,-8.16864 -1.15456,-8.23354 -6.25651,-8.23354 h -4.63931 l 0.67943,4.84733 c 3.13402,22.36013 19.22998,40.88865 40.4866,46.60526 7.3033,1.96411 21.48481,1.98881 28.92695,0.0506 z m -4.43839,-7.64299 c 7.69061,-1.45849 17.28927,-6.18785 22.72155,-11.19514 28.16522,-25.9618 14.24696,-72.2644 -23.67704,-78.76765 -19.38216,-3.32365 -39.55406,7.68066 -48.43026,26.42 -3.10516,6.55559 -3.28093,7.55823 -3.28093,18.71524 0,11.56691 0.0723,11.9343 3.82945,19.53697 9.2423,18.7005 29.17032,29.02035 48.83723,25.29058 z m -16.25935,-2.02974 c -11.05925,-2.33064 -23.54998,-11.24167 -29.12962,-20.78141 -8.3789,-14.32577 -7.38097,-34.66697 2.33517,-47.59791 15.97647,-21.26272 45.75859,-24.10338 64.71745,-6.17288 18.72147,17.70601 18.52163,46.21621 -0.44705,63.77786 -9.69088,8.97206 -25.06043,13.39079 -37.47595,10.77434 z m 26.52462,-4.84978 c 11.93642,-5.87629 22.04396,-19.53548 23.77789,-32.13313 1.02463,-7.44395 -0.86132,-5.75 -2.80125,2.5162 -2.29499,9.77893 -7.18803,17.54676 -14.67608,23.29865 -8.31552,6.38749 -15.43016,8.48811 -26.7094,7.88594 -10.48677,-0.55986 -17.5421,-3.36199 -24.87104,-9.87786 -5.67152,-5.04233 -11.67761,-16.26816 -12.65802,-23.65876 -0.67967,-5.12329 -2.44283,-6.97666 -2.44283,-2.56775 0,8.35302 8.1405,23.78699 15.49513,29.37797 9.01876,6.85606 16.17689,9.04419 28.46645,8.70188 8.63238,-0.24056 10.55187,-0.65474 16.41915,-3.54314 z m -2.21274,-2.45055 c 11.78431,-5.478 20.08822,-16.28706 22.41121,-29.17232 3.03638,-16.84212 -6.30827,-34.46658 -22.23248,-41.93154 -5.06349,-2.3737 -7.07684,-2.71495 -16.01781,-2.71495 -9.49062,0 -10.71465,0.2403 -17.01331,3.34121 -31.83162,15.67066 -28.18327,61.09911 5.80937,72.33687 6.67616,2.20714 20.31213,1.26963 27.04302,-1.85927 z m -25.85264,-6.64313 c -6.58762,-2.27808 -14.22429,-9.32719 -17.6169,-16.26146 -3.63664,-7.43302 -3.79738,-16.83199 -0.42174,-24.65711 3.2267,-7.47967 11.60027,-14.99763 19.14864,-17.19201 11.42401,-3.32105 23.74892,0.30168 31.68012,9.31204 9.8805,11.22487 9.92101,28.51168 0.0928,39.67695 -7.95476,9.03707 -21.92292,12.91177 -32.88315,9.12159 z m 22.18233,-3.87721 c 7.72622,-3.76257 13.4545,-11.49264 15.40429,-20.78741 0.60856,-2.90119 0.45006,-3.35876 -1.06067,-3.06147 -1.15902,0.22795 -2.20668,2.04691 -3.01499,5.23418 -1.66341,6.55892 -6.09841,11.8748 -12.7398,15.27007 -14.73385,7.53243 -31.54774,-1.00449 -35.17333,-17.85858 -0.35147,-1.63369 -1.28265,-2.80636 -2.22856,-2.80636 -3.5354,0 1.85944,14.30032 7.33567,19.44498 1.28861,1.21058 4.55777,3.31013 7.2648,4.66569 4.14559,2.07587 6.12902,2.41524 12.57555,2.15166 4.88711,-0.19986 9.09355,-1.01414 11.63706,-2.25276 z m -5.36966,-2.74311 c 5.28171,-1.58242 11.94406,-7.43957 14.25862,-12.5353 2.31043,-5.08669 2.46734,-13.61725 0.34423,-18.7137 -3.88426,-9.324 -14.16282,-15.3462 -24.16971,-14.161 -19.94953,2.36272 -27.53145,26.08772 -12.84312,40.18813 5.9287,5.69144 14.31811,7.64627 22.41001,5.22187 z m -13.28134,-2.38507 c -11.36402,-3.54439 -17.59255,-17.15342 -12.94334,-28.28053 2.00609,-4.80126 8.742,-10.65992 13.83182,-12.03048 16.81277,-4.52721 31.82316,13.26019 24.60368,29.15549 -2.39193,5.26635 -8.27034,10.14296 -13.95083,11.57334 -5.37166,1.35257 -5.92985,1.33237 -11.54133,-0.41776 z m 14.47958,-1.65771 c 5.44249,-2.79615 9.85398,-8.42977 11.28966,-14.41732 1.01475,-4.23196 -1.06789,-3.37198 -2.4714,1.02052 -2.42281,7.58276 -9.04988,12.501 -16.84437,12.501 -8.50803,0 -15.35473,-5.33688 -17.34664,-13.52149 -0.74776,-3.07235 -2.50271,-3.83497 -2.50271,-1.08753 0,4.02891 4.46842,10.8171 9.02102,13.70431 3.76112,2.38519 5.78475,2.94573 10.63518,2.94573 3.29464,0 6.9933,-0.5154 8.21926,-1.14518 z m 1.7426,-7.55183 c 6.58116,-6.30514 6.32906,-15.75493 -0.58216,-21.8231 -6.83892,-6.00462 -18.44034,-3.70832 -22.29405,4.41276 -3.20093,6.74547 -1.57168,13.2019 4.65325,18.43983 2.94969,2.48199 3.93975,2.73456 9.22211,2.35246 4.80535,-0.34758 6.49719,-0.98329 9.00087,-3.38195 z m -27.11535,-14.51916 c 1.99191,-8.18461 8.83861,-13.52152 17.34664,-13.52152 7.79449,0 14.42156,4.91828 16.84437,12.50103 1.12045,3.50694 3.10542,5.27972 3.10542,2.77357 0,-4.63146 -6.2377,-13.16461 -11.71176,-16.02173 -10.34152,-5.39759 -25.35162,2.12056 -27.70259,13.87544 -0.79695,3.98457 1.15564,4.34705 2.11792,0.39319 z m -7.05146,-0.5102 c 1.71798,-7.95937 8.06516,-15.6819 15.41203,-18.75165 4.15843,-1.73748 11.52909,-1.80469 17.08182,-0.1557 6.33246,1.88052 13.3762,9.40992 15.43807,16.50251 1.07115,3.68463 2.21126,5.72141 3.20265,5.72141 3.89703,0 -2.87072,-15.69184 -8.78952,-20.37962 -16.87157,-13.36253 -41.54701,-4.35564 -45.47836,16.60022 -0.56709,3.02261 -0.39594,3.7794 0.85421,3.7794 0.93639,0 1.85024,-1.32977 2.27909,-3.3166 z m -15.45922,-1.69491 c 0.98016,-7.38864 6.98644,-18.61597 12.65802,-23.66111 23.89587,-21.25657 60.10747,-8.88304 66.73923,22.80479 1.47807,7.06249 3.27718,7.868 2.27932,1.02051 -2.05135,-14.07664 -10.62343,-25.67651 -23.74987,-32.13861 -6.38132,-3.14152 -7.36645,-3.32344 -17.99769,-3.32344 -10.50199,0 -11.68619,0.21138 -17.88005,3.18979 -8.43063,4.05415 -13.90252,8.86653 -18.18127,15.99 -4.62777,7.70451 -8.0724,21.12959 -5.42149,21.12959 0.48899,0 1.18818,-2.25517 1.5538,-5.0115 z m -8.21008,3.22562 c 0.27131,-0.9822 0.78839,-3.95938 1.14925,-6.61586 0.36075,-2.65653 2.27794,-8.07216 4.26036,-12.03481 11.91826,-23.82317 40.16576,-33.17241 64.24684,-21.2641 6.23076,3.08119 16.06304,12.13623 19.44604,17.90886 3.24134,5.53098 6.46801,15.66338 6.46801,20.31098 0,3.2027 0.24951,3.48079 3.12401,3.48079 h 3.12401 l -0.70655,-4.84731 c -3.3367,-22.89115 -18.11513,-40.02587 -40.16824,-46.57271 -7.97003,-2.36607 -22.62426,-2.17751 -30.96406,0.39848 -21.12589,6.5251 -35.97423,24.07244 -39.07204,46.17427 l -0.67943,4.84733 h 4.63926 c 3.55016,0 4.75511,-0.41921 5.13254,-1.78586 z m 183.28227,58.90963 c -17.80295,-2.74201 -35.07514,-15.21079 -42.76595,-30.87272 -10.85453,-22.10469 -6.73749,-47.24057 10.58627,-64.63248 11.60342,-11.64902 24.65394,-17.10705 40.90425,-17.10705 16.28941,0 29.35767,5.47444 40.8371,17.10705 3.93847,3.99103 8.42589,9.63314 9.97204,12.53799 3.61813,6.79753 6.84859,19.46913 6.84859,26.86395 0,7.43637 -3.24549,20.11531 -6.86601,26.82296 -6.40938,11.8744 -20.19378,23.07275 -33.44339,27.16911 -7.63896,2.36173 -18.6549,3.25371 -26.0729,2.11119 z m 22.96905,-3.57984 c 21.58265,-5.62155 37.75786,-24.06191 40.92461,-46.65562 l 0.67941,-4.84731 h -4.6393 c -5.10201,0 -5.1513,0.0648 -6.25651,8.23352 -2.25728,16.68371 -19.21741,33.86819 -37.0941,37.58477 -23.88008,4.96468 -48.16608,-9.34106 -55.419,-32.64475 -1.06332,-3.41656 -1.93337,-7.77832 -1.93337,-9.69277 0,-3.19026 -0.25661,-3.48077 -3.07354,-3.48077 -3.02969,0 -3.06497,0.0614 -2.47352,4.33707 3.18881,23.05022 18.84739,41.33047 40.35838,47.11548 7.30331,1.96411 21.4848,1.98883 28.92696,0.0507 z m -8.05384,-7.71705 c 14.06849,-2.59207 26.30108,-11.9848 32.8405,-25.21651 3.75746,-7.60268 3.82949,-7.97004 3.82949,-19.53694 0,-11.15705 -0.17555,-12.15969 -3.28095,-18.71526 -13.31021,-28.10038 -48.947,-35.80983 -71.55813,-15.48044 -24.43796,21.97179 -18.94942,61.30865 10.4754,75.07817 10.13761,4.74394 17.42631,5.76274 27.69369,3.87098 z m -16.64713,-2.00378 c -11.72107,-2.31216 -24.5027,-11.91796 -29.89586,-22.46768 -9.09102,-17.78328 -5.57865,-38.35952 8.88262,-52.0364 27.44742,-25.95864 72.7996,-6.25787 72.7996,31.62375 0,12.74 -4.34335,22.70108 -13.79684,31.64182 -10.44665,9.87999 -24.22038,13.95472 -37.98952,11.23851 z m 24.74335,-3.87363 c 8.01929,-3.5938 12.76974,-7.32729 17.52002,-13.76928 4.27119,-5.79233 8.50248,-16.58913 8.50248,-21.69546 0,-4.4089 -1.76318,-2.55552 -2.44281,2.56773 -0.98041,7.3906 -6.98649,18.61644 -12.65801,23.65876 -7.32893,6.51587 -14.38427,9.318 -24.87105,9.87788 -11.27922,0.60217 -18.39388,-1.49842 -26.70939,-7.88593 -7.48803,-5.75192 -12.38111,-13.51975 -14.67609,-23.29868 -1.93996,-8.2662 -3.82583,-9.96015 -2.80125,-2.51618 2.04453,14.85425 14.72981,29.78929 29.344,34.54821 6.69308,2.1795 22.42338,1.36703 28.7921,-1.48705 z m -0.38775,-3.40422 c 30.10512,-13.83007 30.75802,-55.84875 1.09465,-70.45195 -6.29863,-3.10083 -7.52267,-3.34121 -17.01328,-3.34121 -8.94096,0 -10.95434,0.3412 -16.01781,2.71492 -15.90003,7.45366 -25.27664,25.10732 -22.23748,41.86726 2.64443,14.58306 12.01488,25.71258 25.78367,30.62385 7.76728,2.7706 20.68291,2.12783 28.39023,-1.41287 z m -25.29548,-6.79904 c -12.97177,-4.48272 -20.74905,-15.22982 -20.74905,-28.67223 0,-15.82928 11.57837,-28.64927 27.36479,-30.29928 8.8975,-0.93003 16.07103,1.50326 22.94014,7.78121 13.93169,12.73281 13.81977,32.53615 -0.25529,45.19096 -8.32726,7.48693 -18.79415,9.63005 -29.30042,5.99934 z m 21.61739,-3.7755 c 7.88779,-3.73153 13.66505,-11.33048 15.31962,-20.15035 0.57652,-3.07329 0.40547,-3.77936 -0.91578,-3.77936 -0.94592,0 -1.87713,1.17261 -2.22855,2.80633 -1.26216,5.86728 -4.05213,10.75748 -8.24112,14.44479 -7.79916,6.8651 -17.70046,8.11808 -26.97638,3.41381 -6.57167,-3.33283 -11.89742,-9.85932 -12.83622,-15.7303 -0.58468,-3.65639 -2.64874,-6.05255 -4.02672,-4.6746 -1.06477,1.06475 1.98858,10.15034 4.87604,14.50959 7.2514,10.94768 22.70715,14.9893 35.02916,9.16009 z m -4.4853,-3.05309 c 18.37802,-6.48409 21.01815,-32.11891 4.31863,-41.93213 -15.66304,-9.20417 -35.10969,2.04027 -35.03395,20.25736 0.029,6.94167 2.74631,12.84674 7.90503,17.17774 7.1208,5.97826 14.49278,7.43163 22.81029,4.49703 z m -13.66647,-1.82088 c -5.43355,-1.69011 -10.83828,-6.3515 -13.07481,-11.27658 -7.24185,-15.94745 7.73485,-33.74469 24.57981,-29.20881 5.08983,1.37055 11.82571,7.22921 13.83179,12.03047 4.70291,11.25558 -1.65907,24.87111 -13.22633,28.30619 -5.87948,1.74604 -6.93374,1.75901 -12.11046,0.14888 z m 16.76834,-3.63265 c 4.55259,-2.88719 9.02101,-9.6754 9.02101,-13.70433 0,-2.7474 -1.755,-1.98478 -2.50273,1.08757 -1.9919,8.18456 -8.83857,13.52149 -17.34662,13.52149 -7.7945,0 -14.42154,-4.91824 -16.84436,-12.501 -1.40346,-4.39248 -3.48614,-5.25246 -2.47141,-1.02053 1.03138,4.30129 2.97945,7.64501 6.16321,10.57857 4.52011,4.16489 6.5249,4.91957 13.1577,4.95287 5.0898,0.0262 6.99657,-0.48792 10.8232,-2.91467 z m -2.24602,-4.82952 c 6.09464,-5.12828 7.70162,-11.63831 4.52521,-18.33209 -3.83981,-8.09175 -15.45387,-10.4185 -22.24434,-4.45641 -6.44896,5.66231 -7.24515,14.10422 -1.92629,20.42527 3.3006,3.92257 5.57332,4.88824 11.69995,4.97134 3.71503,0.0506 5.47105,-0.526 7.94547,-2.60811 z m -25.4267,-16.46143 c 2.42282,-7.58275 9.04988,-12.50103 16.84435,-12.50103 8.50803,0 15.35473,5.33691 17.34665,13.52152 0.96233,3.95384 2.91486,3.59136 2.11794,-0.39319 -1.75397,-8.76987 -10.13537,-15.46084 -19.36685,-15.46084 -5.92383,0 -10.04188,1.76909 -14.12555,6.06828 -2.59303,2.72986 -5.92198,9.21625 -5.92198,11.53885 0,2.50615 1.98493,0.73341 3.10544,-2.77357 z m -6.68946,-1.89457 c 3.91847,-13.47901 20.01656,-21.57105 32.51991,-16.34681 7.34685,3.06971 13.69403,10.79223 15.41204,18.7516 0.42882,1.98687 1.34258,3.3166 2.27908,3.3166 3.26958,0 -0.73261,-11.54529 -6.29279,-18.15323 -8.5692,-10.18391 -26.93714,-11.25077 -38.33137,-2.22638 -5.9188,4.68777 -12.68653,20.37961 -8.7895,20.37961 0.99136,0 2.13151,-2.03676 3.20263,-5.72139 z m -16.00611,-0.14654 c 1.84045,-8.79398 5.67283,-16.08148 11.38093,-21.6413 15.52285,-15.1197 39.11186,-15.61551 55.35831,-1.16349 5.67157,5.04514 11.67785,16.2725 12.65801,23.66113 0.36568,2.75631 1.06486,5.01148 1.55382,5.01148 2.65092,0 -0.7937,-13.42509 -5.42148,-21.12959 -4.27877,-7.12349 -9.75067,-11.93585 -18.18128,-15.99001 -6.19388,-2.97854 -7.37809,-3.1898 -17.88005,-3.1898 -10.63124,0 -11.61638,0.18194 -17.99771,3.32346 -13.12641,6.4621 -21.69851,18.06197 -23.74988,32.13861 -0.99786,6.84751 0.80128,6.042 2.27933,-1.02055 z m -7.96312,2.38703 c 0,-4.64757 3.22669,-14.78 6.46803,-20.31096 3.38299,-5.77262 13.21529,-14.8277 19.44605,-17.90885 14.59704,-7.21841 32.25433,-6.73612 45.88729,1.25332 10.81581,6.33848 21.10907,20.9209 22.61989,32.04554 1.13552,8.36105 1.16589,8.40174 6.28174,8.40174 h 4.6393 l -0.67941,-4.84733 c -3.97721,-28.37596 -26.64782,-48.21818 -55.09137,-48.21818 -28.66606,0 -50.92288,19.47245 -55.11298,48.21818 l -0.70654,4.84733 h 3.12401 c 2.87441,0 3.12399,-0.27807 3.12399,-3.48079 z m -94.4108,-62.87592 c -1.37445,-2.22392 0.7949,-7.22003 4.29372,-9.88874 l 3.60069,-2.74636 -0.40968,-9.23247 c -0.48586,-10.94726 -2.91547,-17.18584 -6.91278,-17.74989 -1.3777,-0.19429 -5.10989,0.43522 -8.29373,1.39924 -5.31012,1.60777 -6.20002,1.62184 -10.76144,0.17011 -8.17041,-2.60018 -11.55936,-3.03519 -13.17837,-1.69153 -1.95907,1.62588 -1.93011,7.00349 0.0422,7.76021 1.6436,0.63072 2.04325,5.12427 0.65099,7.31961 -0.55951,0.88219 -2.52569,1.22979 -5.77244,1.02055 -4.41376,-0.28457 -5.02607,-0.62544 -5.90951,-3.28993 -0.78393,-2.36429 -0.64363,-3.22248 0.68558,-4.19444 1.10321,-0.80671 1.67647,-2.74429 1.68678,-5.70169 0.009,-2.46384 0.35304,-4.98498 0.76537,-5.60254 1.46827,-2.19895 5.28315,-3.46936 10.41796,-3.46936 6.46734,0 12.85088,-3.01483 13.49272,-6.37232 0.85782,-4.48726 0.10366,-4.94098 -7.00667,-4.21255 l -6.624,0.67871 0.33736,-2.9557 c 0.36014,-3.15613 1.83664,-3.48897 8.31975,-1.87559 1.74755,0.43488 3.85074,0.19719 5.34885,-0.60458 1.86759,-0.99956 3.07225,-1.04644 4.94631,-0.19248 1.73542,0.79068 3.5997,0.81888 6.22443,0.094 4.76516,-1.31572 6.85859,-0.52756 6.4394,2.4246 -0.30037,2.11503 -0.76947,2.27157 -5.81412,1.94028 -6.00829,-0.39462 -7.25559,0.4792 -6.47947,4.53923 0.6517,3.40945 2.74388,4.32084 11.58201,5.04548 13.13877,1.07718 15.87163,4.46941 17.65421,21.91371 1.18301,11.57705 1.49922,12.75334 4.00816,14.91146 2.85396,2.45486 4.74503,6.29419 4.74503,9.63365 0,1.8545 -0.83419,1.97456 -13.7164,1.97456 -8.26127,0 -13.97335,-0.41571 -14.3625,-1.04536 z m 119.92308,-2.56036 c 0,-2.75061 0.83539,-4.44115 3.52265,-7.12837 3.72132,-3.72132 4.14679,-5.19581 5.11943,-17.74159 0.71499,-9.22196 3.41505,-15.7544 7.34123,-17.76086 1.59269,-0.81395 6.30253,-1.76386 10.46633,-2.1109 8.56247,-0.71368 11.58697,-2.54061 11.1017,-6.70577 -0.28419,-2.43986 -0.65822,-2.6045 -5.91613,-2.6045 -5.04691,0 -5.64562,-0.23188 -5.9394,-2.30065 -0.42823,-3.01566 1.84546,-3.81107 6.50152,-2.27444 2.71265,0.89531 4.01119,0.92025 4.83837,0.0928 1.45425,-1.45425 5.49957,-1.46221 6.39545,-0.0121 0.42128,0.68173 2.13766,0.86891 4.39731,0.47971 8.10403,-1.39584 8.80876,-1.27873 8.80876,1.46373 0,2.45964 -0.23818,2.55121 -6.63316,2.55121 -4.68066,0 -6.60316,0.37546 -6.53115,1.27562 0.0567,0.70161 0.17085,2.18347 0.25502,3.29306 0.24477,3.22626 4.73023,5.34565 13.03401,6.15871 9.2433,0.90505 10.9457,2.23965 11.20606,8.78504 0.10367,2.59868 0.75562,5.07569 1.44928,5.50444 0.78743,0.48659 1.06198,2.06823 0.73066,4.20918 -0.38414,2.48321 0.002,4.0127 1.40405,5.54248 1.90677,2.0824 1.89773,2.14756 -0.62799,4.52037 l -2.56266,2.40748 2.24436,2.38902 c 2.10531,2.24099 2.13771,2.49564 0.52323,4.11009 -1.34427,1.34428 -1.99081,1.45139 -2.95298,0.48922 -1.57073,-1.57069 -5.16231,-1.5875 -6.71842,-0.0314 -0.92024,0.92028 -1.68254,0.76419 -3.26611,-0.66892 -2.06431,-1.86821 -2.06434,-1.87032 -0.0236,-3.29931 2.58925,-1.81361 2.58695,-3.56579 -0.009,-5.91391 -1.8292,-1.65541 -1.88572,-2.03527 -0.52626,-3.53742 1.15301,-1.27404 1.29638,-2.47297 0.59014,-4.93553 -0.69946,-2.43892 -0.56783,-3.61767 0.52622,-4.71177 0.80248,-0.80248 1.45914,-3.06828 1.45914,-5.03497 0,-4.87794 -2.40043,-5.44342 -11.44509,-2.6962 -7.11758,2.16188 -7.4028,2.17066 -14.10145,0.43331 -3.7603,-0.97532 -7.56025,-1.49571 -8.44434,-1.1565 -3.73049,1.43154 -5.24909,5.9 -5.64565,16.61222 l -0.38568,10.42101 3.10914,2.29866 c 3.43709,2.54116 5.83585,7.24737 4.91593,9.64471 -0.49058,1.27945 -2.9971,1.54905 -14.4027,1.54905 h -13.8087 z m 66.75868,-18.444 c 2.82668,-1.08466 1.73864,-2.44204 -1.95752,-2.44204 -3.37699,0 -4.41647,0.85601 -2.89138,2.38116 0.84708,0.84706 2.73837,0.8708 4.8489,0.0614 z m -225.9238,9.86264 c -0.88289,-1.64979 -0.70487,-3.04321 0.82274,-6.43964 l 1.94948,-4.33431 1.19928,3.00407 c 2.55306,6.39503 -0.99378,13.33393 -3.97153,7.76988 z m 107.63034,-10.252 c -6.87822,-1.55191 -13.62056,-6.93591 -15.7527,-12.57914 -0.597,-1.58002 -1.08539,-5.5463 -1.08539,-8.81396 0,-18.64976 23.4604,-27.31248 36.09467,-13.32788 9.14606,10.1236 6.86653,25.3954 -4.78125,32.03221 -4.8272,2.75048 -9.96883,3.70555 -14.47531,2.68877 z m 12.73766,-3.06373 c 4.99096,-2.54621 8.73,-7.377 10.28975,-13.2943 3.62486,-13.75183 -10.37769,-27.27121 -24.34926,-23.50905 -12.83992,3.45743 -18.63617,19.20022 -11.20415,30.43078 5.14284,7.77137 16.77192,10.70471 25.26366,6.37257 z M 187.59732,370.2278 c 0,-0.56133 -0.38197,-0.78444 -0.8489,-0.49589 -0.46693,0.28857 -3.1074,-1.86407 -5.86782,-4.78362 -3.69163,-3.90441 -3.92804,-4.29711 -0.89397,-1.4849 5.50332,5.1009 7.03747,4.90232 1.99795,-0.2587 -4.34647,-4.4512 -4.41685,-4.48436 -6.59256,-3.10818 -1.19036,0.75295 -0.48417,1.8274 3.51163,5.34194 2.75096,2.41968 5.48801,4.92524 6.08232,5.56794 1.17782,1.27365 2.61131,0.84612 2.61131,-0.77876 z m 294.2704,0.63071 c -0.32301,-0.84189 -1.05368,-1.53071 -1.62366,-1.53071 -0.59734,0 -0.49816,0.64844 0.23398,1.53071 0.69871,0.8419 1.42937,1.53074 1.62367,1.53074 0.19431,0 0.0892,-0.68884 -0.23425,-1.53074 z m 7.26149,-5.58916 c 2.75141,-2.79343 4.7737,-5.30777 4.49405,-5.58745 -0.27974,-0.27965 -2.99166,2.00583 -6.02658,5.07895 -3.03491,3.07307 -5.05725,5.58744 -4.49404,5.58744 0.56325,0 3.27517,-2.28552 6.02657,-5.07894 z M 189.6383,361.00568 c 0,-7.00901 -0.0747,-7.23392 -1.86622,-5.61267 -1.02643,0.92892 -2.27596,1.68888 -2.77675,1.68888 -0.5008,0 -3.56438,-2.62615 -6.80796,-5.83586 l -5.89742,-5.83591 v 5.85534 c 0,5.56114 0.11572,5.82661 2.29611,5.28396 1.82307,-0.45367 3.55094,0.69861 8.38711,5.59325 3.35005,3.39056 6.22017,6.16462 6.37806,6.16462 0.1579,0 0.28711,-3.28571 0.28711,-7.30161 z m 297.47308,2.19916 c 2.19226,-2.24508 3.5267,-4.08198 2.96544,-4.08198 -0.56131,0 -2.81416,1.8369 -5.00643,4.08198 -2.19225,2.2451 -3.52671,4.08196 -2.96544,4.08196 0.56131,0 2.81415,-1.83686 5.00643,-4.08196 z m -299.71115,-10.7422 c -0.31423,-0.31422 -0.88482,0.25214 -1.26804,1.2586 -0.55384,1.45441 -0.43656,1.57162 0.57131,0.57133 0.69739,-0.69221 1.01101,-1.51568 0.69679,-1.82986 z m 294.46749,1.04754 c -0.32301,-0.84189 -0.98303,-1.53073 -1.46668,-1.53073 -0.48358,0 -0.61495,0.68884 -0.29192,1.53073 0.32302,0.8419 0.98304,1.53074 1.46666,1.53074 0.48359,0 0.61496,-0.68884 0.29194,-1.53074 z m -297.33238,-1.27566 c -5.6e-4,-0.94833 -9.77471,-9.43953 -10.86569,-9.43953 -0.43595,0 1.46885,2.29608 4.23301,5.10245 4.76524,4.83801 6.63381,6.05985 6.63268,4.33708 z m 304.61704,-4.33708 c 2.76414,-2.80637 4.5665,-5.10245 4.00524,-5.10245 -0.56134,0 -3.28209,2.29608 -6.04624,5.10245 -2.76417,2.80635 -4.56653,5.10245 -4.00524,5.10245 0.5613,0 3.28208,-2.2961 6.04624,-5.10245 z M 189.6383,344.25285 c 0,-7.02416 -0.14575,-7.5808 -1.60362,-6.12295 -2.58702,2.587 -4.50414,1.91036 -9.91334,-3.49885 -2.80636,-2.80633 -5.26647,-5.10245 -5.46692,-5.10245 -0.20046,0 -0.36449,2.32705 -0.36449,5.17123 0,4.76148 0.16706,5.11822 2.1078,4.50224 1.67413,-0.53131 3.40629,0.68317 8.41905,5.90323 3.47119,3.61476 6.42606,6.64018 6.56638,6.72317 0.14028,0.083 0.25515,-3.32601 0.25515,-7.57562 z m 303.04531,-5.25471 c 1.89489,0.49549 2.08144,0.0759 2.08144,-4.68288 v -5.22716 l -5.38965,5.3227 c -5.80837,5.73621 -7.21122,6.2413 -10.09248,3.63381 -1.79217,-1.62188 -1.86621,-1.38572 -1.86621,5.9529 v 7.64173 l 6.59273,-6.59272 c 4.97571,-4.97569 7.10321,-6.45919 8.67417,-6.04838 z m -2.0005,3.07412 c 0,-0.76633 -0.91629,0.0433 -5.14511,4.54957 l -4.54957,4.84733 4.84733,-4.54955 c 2.66605,-2.50228 4.84735,-4.68358 4.84735,-4.84735 z m -308.6985,3.78422 c -2.19225,-2.2451 -4.44514,-4.08198 -5.00642,-4.08198 -0.56131,0 0.77321,1.83688 2.96545,4.08198 2.19226,2.24507 4.44515,4.08194 5.00642,4.08194 0.56131,0 -0.7732,-1.83687 -2.96545,-4.08194 z m 5.41562,-10.74217 c -0.31423,-0.31423 -0.88482,0.25214 -1.26804,1.2586 -0.55384,1.45439 -0.43656,1.5716 0.57131,0.5713 0.69739,-0.6922 1.01101,-1.51567 0.69679,-1.82988 z m 294.46749,1.04751 c -0.32301,-0.84189 -0.98303,-1.53071 -1.46668,-1.53071 -0.48358,0 -0.61495,0.68882 -0.29192,1.53071 0.32302,0.8419 0.98304,1.53074 1.46666,1.53074 0.48359,0 0.61496,-0.68884 0.29194,-1.53074 z m -301.94725,-5.63624 c -2.75141,-2.7934 -5.46336,-5.07894 -6.02656,-5.07894 -0.56323,0 1.45913,2.51436 4.49405,5.58746 3.03493,3.07309 5.74688,5.35862 6.02657,5.07895 0.27963,-0.27974 -1.74264,-2.79405 -4.49406,-5.58747 z m 309.23191,0.0237 c 2.76414,-2.80637 4.5665,-5.10247 4.00524,-5.10247 -0.56134,0 -3.28209,2.2961 -6.04624,5.10247 -2.76417,2.80633 -4.56653,5.10245 -4.00524,5.10245 0.5613,0 3.28208,-2.29612 6.04624,-5.10245 z M 189.74254,306.97863 c 0.0892,-31.57667 -0.84564,-38.11886 -7.47154,-52.29462 l -4.36834,-9.34589 v -17.85857 -17.8586 l 3.23943,-6.838 c 3.66487,-7.73605 10.26734,-14.90038 16.81809,-18.24934 10.0244,-5.1248 6.41228,-4.99209 136.2252,-5.00502 118.4067,-0.0117 121.75563,0.041 128.07161,2.01204 11.48659,3.58496 21.05414,12.71185 25.34354,24.1762 4.84107,12.93895 3.64973,36.16532 -2.51197,48.97288 -5.01158,10.41693 -6.62864,17.95507 -7.35241,34.2744 l -0.62231,14.03176 h 8.8256 8.82561 l 0.0998,-15.05225 c 0.0542,-8.27872 0.28146,-27.45122 0.50396,-42.6055 0.24897,-16.95609 -0.015,-29.90817 -0.68752,-33.67618 -2.52912,-14.18178 -12.56533,-27.01968 -26.15521,-33.45672 l -6.92666,-3.28095 -125.52038,-0.29277 c -94.90876,-0.22142 -126.64032,0.005 -130.1126,0.927 -11.13733,2.95824 -21.41732,10.69296 -27.36568,20.59005 -6.23287,10.37053 -6.28505,10.96247 -6.2984,71.45412 l -0.0121,54.92014 2.1078,-0.66892 c 1.66852,-0.52961 3.42307,0.67894 8.41904,5.79903 3.4712,3.55742 6.43242,6.42341 6.58052,6.36885 0.14813,-0.0542 0.3035,-12.22389 0.3452,-27.04301 z m 302.90466,14.87191 c 2.03767,0.64678 2.11785,0.32027 2.11785,-8.62227 v -9.29445 l -8.41904,0.29637 -8.41907,0.2964 -0.28155,14.90857 -0.28155,14.90864 6.58272,-6.58274 c 5.21424,-5.21424 7.02307,-6.44299 8.70066,-5.91056 z m -311.17283,7.16786 c -2.4788,-2.52574 -4.73652,-4.59223 -5.01716,-4.59223 -0.28059,0 1.51788,2.06649 3.99667,4.59223 2.4788,2.52571 4.73653,4.5922 5.01716,4.5922 0.2806,0 -1.51786,-2.06649 -3.99667,-4.5922 z m 309.20874,-4.29445 c 0,-0.76635 -0.91629,0.0433 -5.14511,4.54955 l -4.54957,4.84735 4.84733,-4.54959 c 2.66605,-2.50224 4.84735,-4.68354 4.84735,-4.84731 z m 9.46498,-149.03386 -0.22953,-22.19613 h -65.592 -65.59198 l -0.31677,3.82684 -0.31674,3.82685 22.76753,0.22804 c 12.52214,0.12536 32.87036,0.27313 45.21831,0.32821 20.5381,0.0916 23.01591,0.29699 29.08399,2.41003 3.64824,1.27044 8.24045,3.27299 10.2049,4.45011 5.24572,3.1433 13.26639,9.94772 13.26639,11.25465 0,0.6229 -1.72208,-0.52347 -3.82685,-2.5476 -5.52655,-5.31473 -13.09811,-9.78509 -20.39037,-12.03881 -5.83647,-1.8038 -10.02643,-1.97546 -51.02454,-2.09043 -40.00439,-0.11208 -44.70035,0.0434 -44.99587,1.49153 -0.29684,1.4549 3.99465,1.61856 42.86064,1.63451 46.88028,0.0192 52.46585,0.52299 62.58821,5.6444 2.83811,1.43596 7.41937,4.39296 10.18056,6.57114 2.76122,2.17818 5.35173,3.75553 5.75676,3.50522 0.94566,-0.58445 3.98486,3.73707 7.41194,10.53916 1.48461,2.94666 2.80637,5.35778 2.93725,5.35803 0.13097,2.4e-4 0.13459,-9.98781 0.009,-22.19567 z m -133.1998,-11.22587 c 0.33458,-1.00305 -6.66606,-1.27561 -32.76525,-1.27561 -29.94512,0 -35.63229,0.40028 -33.66336,2.36917 0.3371,0.33713 15.32565,0.51599 33.30799,0.39751 25.09329,-0.16537 32.79405,-0.51201 33.12062,-1.49102 z m 0.25529,-11.99076 v -9.69467 h -33.67621 -33.6762 v 9.69467 9.69466 h 33.6762 33.67621 z m 134.50833,-4.84734 -0.31376,-4.33708 h -66.33188 -66.33191 l -0.31386,4.33708 -0.31386,4.33708 h 66.9595 66.95951 z m -12.04944,-7.39856 c 0,-1.33295 -4.85733,-1.53074 -37.59292,-1.53074 -45.77158,0 -86.90697,1.04332 -86.90697,2.20422 0,0.47151 28.01248,0.85721 62.24995,0.85721 54.65296,0 62.24994,-0.18682 62.24994,-1.53073 z m 15.30735,-10.46989 v -6.89818 l -3.31659,0.01 -3.31659,0.0101 -0.5102,-23.471292 c -0.28062,-12.9092 -0.85192,-22.782451 -1.26962,-21.940545 -0.41766,0.841905 -0.87686,11.403985 -1.02053,23.471287 l -0.26108,21.94048 h -5.10245 -5.10245 l -0.27434,-23.216232 c -0.26334,-22.294596 -0.35375,-23.216169 -2.27693,-23.216169 -1.92318,0 -2.01355,0.921573 -2.27697,23.216169 l -0.27432,23.216152 h -7.14343 -7.14345 l -0.27432,-23.216152 -0.27432,-23.216169 h -2.51292 -2.5129 l -0.27433,23.216169 -0.27434,23.216152 h -8.1639 -8.16395 l -0.27432,-23.216152 -0.27432,-23.216169 h -3.04229 -3.04232 v 22.941599 22.941612 l -2.32761,0.58421 c -1.28015,0.32133 -5.29834,0.44487 -8.92929,0.27457 l -6.6017,-0.30965 -0.27444,-23.279382 -0.27446,-23.279372 -3.29726,0.318318 -3.29729,0.318324 -0.51018,22.96104 -0.51021,22.961032 -6.98017,0.30386 c -4.26757,0.18574 -7.53933,-0.16018 -8.41904,-0.89036 -1.15794,-0.96099 -1.4389,-5.5532 -1.4389,-23.520002 V 76.447023 h -2.53204 -2.53208 l -0.27434,23.216165 -0.27431,23.216162 h -7.14346 -7.14343 l -0.27419,-23.216162 c -0.26338,-22.294588 -0.35379,-23.216165 -2.27697,-23.216165 -1.92318,0 -2.01357,0.921577 -2.27695,23.216165 L 368.734,122.87935 h -5.10245 -5.1025 l -0.27431,-23.216162 c -0.16531,-14.00329 -0.66399,-23.216165 -1.25646,-23.216165 -0.59243,0 -1.09103,9.212875 -1.25646,23.216165 l -0.27432,23.216162 -3.31659,-0.15041 -3.3166,-0.15042 v 7.03878 7.03878 h 78.06755 78.06754 z M 354.95768,95.167798 c 0,-26.116034 -0.005,-26.176119 -2.04098,-24.333604 -1.93229,1.748676 -2.041,3.143068 -2.041,26.180674 0,23.653292 0.0565,24.333612 2.041,24.333612 1.98793,0 2.04098,-0.68028 2.04098,-26.180682 z m 13.02879,0.4133 c -0.26916,-25.433039 -0.30096,-25.771431 -2.45102,-26.078056 -1.39528,-0.199005 -2.95432,0.675813 -4.33707,2.433727 -2.05501,2.612557 -2.15874,3.865339 -2.15874,26.078049 v 23.333672 h 4.60972 4.60974 z m 19.62692,2.36254 c 0,-12.87268 -0.4479,-24.582803 -0.99524,-26.022518 -1.23374,-3.245051 -5.76667,-3.569057 -9.35174,-0.668459 -2.39153,1.934949 -2.41139,2.125251 -2.71668,26.022517 l -0.30761,24.073312 h 6.68563 6.68562 z m 22.45078,-1.01402 c 0,-20.838335 -0.23502,-24.654028 -1.60361,-26.022517 -2.05421,-2.054189 -7.49269,-2.062033 -10.4152,-0.0145 -2.23635,1.566398 -2.26803,1.930039 -2.26803,26.022517 v 24.433892 h 7.14341 7.14343 z m 24.49179,-0.0145 c 0,-24.092481 -0.0314,-24.456122 -2.26803,-26.022526 -3.18561,-2.231291 -8.53472,-2.011276 -10.99837,0.452356 -1.92516,1.92518 -2.04096,3.401628 -2.04096,26.02251 v 23.981532 h 7.65368 7.65368 z m 24.49178,0.91626 V 74.313747 l -2.50485,-2.504841 c -2.95584,-2.955847 -8.144,-3.342931 -10.93631,-0.815985 -1.70854,1.546235 -1.86621,3.744512 -1.86621,26.022507 v 24.333622 h 7.6537 7.65367 z m 20.40981,0 V 74.313747 l -2.5682,-2.568222 c -1.89795,-1.897934 -3.42941,-2.4851 -5.86785,-2.249718 l -3.29959,0.318443 -0.27263,25.767388 -0.27264,25.767392 h 6.14048 6.14045 V 97.831368 Z m 15.30737,-0.46392 c 0,-22.620882 -0.1156,-24.09733 -2.04097,-26.02251 -2.44732,-2.447311 -5.66784,-2.657987 -6.52403,-0.426802 -0.34074,0.887826 -0.61941,12.597952 -0.61941,26.022512 v 24.408322 h 4.59223 4.59218 z m 9.18441,1.06851 c 0,-23.121871 -0.56506,-27.326792 -3.84115,-28.583947 -1.2264,-0.470674 -1.39859,0.04097 -0.88229,2.622647 0.35279,1.764043 0.64146,13.48243 0.64146,26.04085 0,22.153152 0.0602,22.833472 2.04098,22.833472 1.98036,0 2.04099,-0.68027 2.04099,-22.913022 z M 359.57098,72.070496 c 1.67768,-2.666321 2.724,-3.277291 5.61272,-3.277291 3.25992,0 3.57679,0.271556 3.87039,3.316598 0.4216,4.373456 3.59702,4.521348 5.79554,0.269869 1.67869,-3.24627 4.57437,-4.464084 9.32388,-3.921298 2.30197,0.263114 3.13883,1.045357 3.90606,3.651395 1.29265,4.390883 4.9483,4.585266 7.12355,0.378827 1.7676,-3.418124 3.38981,-4.205632 8.66344,-4.205632 3.85954,0 6.24131,1.692112 7.54125,5.357577 0.81585,2.300621 6.82031,2.52523 6.82031,0.255156 0,-2.963014 3.88577,-5.612704 8.23102,-5.612704 5.13078,0 7.90927,1.414714 9.14092,4.654257 1.47876,3.889407 6.16573,3.400296 8.14033,-0.849496 1.33346,-2.869931 2.10041,-3.335487 5.9512,-3.612393 4.91861,-0.353641 8.80707,1.572386 9.85776,4.8829 1.07237,3.378869 4.99741,2.648912 6.71279,-1.24843 1.16314,-2.642472 2.14859,-3.382683 4.84858,-3.641762 3.86569,-0.370875 7.8834,1.849513 8.84845,4.890192 0.36099,1.137447 1.51483,2.068169 2.56399,2.068169 1.40619,0 1.9916,-0.871675 2.22731,-3.316599 0.26965,-2.796679 0.77635,-3.368823 3.23241,-3.649759 3.07732,-0.351947 7.80253,3.047542 7.80253,5.613501 0,0.744037 0.41102,1.352857 0.91327,1.352857 0.93809,0 2.06579,-7.906165 1.24473,-8.727195 -0.99799,-0.997992 -141.85477,-0.441142 -142.47553,0.563238 -0.34688,0.561313 -0.12349,1.020531 0.49624,1.020531 0.73522,0 0.89409,1.241438 0.45694,3.571716 -0.83192,4.43436 0.44065,4.521551 3.14988,0.215878 z m 15.53708,-33.585279 c -0.18557,-5.220136 -0.33836,-1.225179 -0.33942,8.877677 -0.001,10.102862 0.15058,14.373879 0.33737,9.491158 0.18663,-4.882709 0.18748,-13.148688 0.002,-18.368835 z m 5.1303,8.622565 c -0.2353,-15.296902 -0.51669,-18.113718 -1.80938,-18.113718 -1.28728,0 -1.57551,2.671966 -1.81218,16.798927 -0.15485,9.239399 -0.0542,17.390573 0.22321,18.113707 0.27745,0.723178 1.21837,1.314791 2.09085,1.314791 1.38563,0 1.55104,-2.2914 1.30761,-18.113707 z m 4.08198,0.253238 c -0.37676,-24.146074 -2.22795,-24.326501 -2.5983,-0.253238 -0.24266,15.781195 -0.0759,18.113707 1.29916,18.113707 1.37395,0 1.54183,-2.307732 1.29914,-17.860469 z m 7.14346,-0.253238 -0.27868,-18.113718 -2.80636,-0.322906 -2.80633,-0.322901 v 18.436625 18.436624 h 3.08502 3.08499 z m 5.33402,-0.255156 c 0,-17.688514 -0.0759,-18.368836 -2.041,-18.368836 -1.96537,0 -2.04096,0.680272 -2.04096,18.368836 0,17.688501 0.0759,18.368835 2.04096,18.368835 1.96541,0 2.041,-0.680277 2.041,-18.368835 z m 9.18441,0 V 28.48379 h -3.57173 -3.5717 v 18.368836 18.368835 h 3.5717 3.57173 z m 6.91186,0.255156 c -0.27553,-17.911445 -0.30435,-18.117363 -2.57477,-18.439818 l -2.2961,-0.326033 v 18.439807 18.439813 h 2.57479 2.57475 z m 10.2049,0 -0.27867,-18.113718 -4.33708,-0.313747 -4.33708,-0.313859 v 18.42751 18.42751 h 4.61575 4.61577 z m 6.35452,-0.255156 V 28.48379 h -2.55123 -2.55122 v 18.368836 18.368835 h 2.55122 2.55123 z m 10.2049,0 V 28.48379 h -4.08196 -4.08194 v 18.368836 18.368835 h 4.08194 4.08196 z m 6.91188,0.255156 c -0.27554,-17.911445 -0.30433,-18.117363 -2.57478,-18.439818 l -2.2961,-0.326033 v 18.439807 18.439813 h 2.57478 2.57475 z m 9.18443,0 -0.27869,-18.113718 h -3.57174 -3.57169 l -0.27867,18.113718 -0.27867,18.113707 h 4.12908 4.12903 z m 5.33401,-0.255156 c 0,-17.688514 -0.0759,-18.368836 -2.04099,-18.368836 -1.96536,0 -2.04096,0.680272 -2.04096,18.368836 0,17.688501 0.0759,18.368835 2.04096,18.368835 1.96542,0 2.04099,-0.680277 2.04099,-18.368835 z m 7.14345,-0.06749 V 28.348523 l -2.61035,0.3229 -2.61035,0.322907 0.0326,17.603466 c 0.0192,9.681907 0.0448,17.833075 0.0591,18.113718 0.0128,0.280597 1.17423,0.510206 2.57742,0.510206 h 2.55122 V 46.785096 Z m 4.08196,0.06749 c 0,-11.565568 -0.37801,-18.368836 -1.02053,-18.368836 -0.64255,0 -1.02054,6.803268 -1.02054,18.368836 0,11.565556 0.37799,18.368835 1.02054,18.368835 0.64252,0 1.02053,-6.803279 1.02053,-18.368835 z m 4.87087,0.339294 c -0.20583,-13.313307 -0.6123,-18.140592 -1.55428,-18.45387 -0.98909,-0.328928 -1.27561,3.720544 -1.27561,18.029591 0,15.847375 0.21954,18.453882 1.55426,18.453882 1.34393,0 1.5166,-2.440246 1.27563,-18.029603 z m 2.01189,-9.268524 c -0.18684,-4.911124 -0.34014,-0.892888 -0.34014,8.929292 0,9.822225 0.15293,13.84041 0.34014,8.929291 0.18728,-4.911112 0.18728,-12.947476 0,-17.858583 z"
   style="fill:#000000;stroke-width:1.02049" /></svg>
