<?xml version="1.0" encoding="UTF-8" standalone="no"?>
<svg
   xmlns:dc="http://purl.org/dc/elements/1.1/"
   xmlns:cc="http://creativecommons.org/ns#"
   xmlns:rdf="http://www.w3.org/1999/02/22-rdf-syntax-ns#"
   xmlns:svg="http://www.w3.org/2000/svg"
   xmlns="http://www.w3.org/2000/svg"
   xmlns:sodipodi="http://sodipodi.sourceforge.net/DTD/sodipodi-0.dtd"
   xmlns:inkscape="http://www.inkscape.org/namespaces/inkscape"
   version="1.1"
   id="Layer_1"
   x="0px"
   y="0px"
   viewBox="0 0 667 666"
   style="enable-background:new 0 0 667 666;"
   xml:space="preserve"
   sodipodi:docname="learn.svg"
   inkscape:version="1.0 (4035a4fb49, 2020-05-01)"><metadata
   id="metadata319"><rdf:RDF><cc:Work
       rdf:about=""><dc:format>image/svg+xml</dc:format><dc:type
         rdf:resource="http://purl.org/dc/dcmitype/StillImage" /><dc:title></dc:title></cc:Work></rdf:RDF></metadata><defs
   id="defs317"><marker
     inkscape:stockid="Arrow1Send"
     orient="auto"
     refY="0"
     refX="0"
     id="Arrow1Send"
     style="overflow:visible"
     inkscape:isstock="true"><path
       inkscape:connector-curvature="0"
       id="path4714"
       d="M 0,0 5,-5 -12.5,0 5,5 Z"
       style="fill:#000000;fill-opacity:1;fill-rule:evenodd;stroke:#000000;stroke-width:1.00000003pt;stroke-opacity:1"
       transform="matrix(-0.2,0,0,-0.2,-1.2,0)" /></marker><clipPath
     id="clipPath69-0"><path
       inkscape:connector-curvature="0"
       id="path71-2"
       d="m 409.441,126.252 v -43.63 h 147.796 v 43.63" /></clipPath><clipPath
     id="clipPath101-1"><path
       inkscape:connector-curvature="0"
       id="path103-6"
       d="m 409.441,126.252 v -43.63 h 147.796 v 43.63" /></clipPath><clipPath
     id="clipPath69"><path
       inkscape:connector-curvature="0"
       id="path71"
       d="m 409.441,126.252 v -43.63 h 147.796 v 43.63" /></clipPath><clipPath
     id="clipPath101"><path
       inkscape:connector-curvature="0"
       id="path103"
       d="m 409.441,126.252 v -43.63 h 147.796 v 43.63" /></clipPath><pattern
     y="0"
     x="0"
     height="6"
     width="6"
     patternUnits="userSpaceOnUse"
     id="EMFhbasepattern" /><marker
     inkscape:isstock="true"
     style="overflow:visible"
     id="Arrow1Send-4"
     refX="0"
     refY="0"
     orient="auto"
     inkscape:stockid="Arrow1Send"><path
       transform="matrix(-0.2,0,0,-0.2,-1.2,0)"
       style="fill:#000000;fill-opacity:1;fill-rule:evenodd;stroke:#000000;stroke-width:1.00000003pt;stroke-opacity:1"
       d="M 0,0 5,-5 -12.5,0 5,5 Z"
       id="path4714-2"
       inkscape:connector-curvature="0" /></marker><clipPath
     id="clipPath69-0-5"><path
       d="m 409.441,126.252 v -43.63 h 147.796 v 43.63"
       id="path71-2-2"
       inkscape:connector-curvature="0" /></clipPath><clipPath
     id="clipPath101-1-4"><path
       d="m 409.441,126.252 v -43.63 h 147.796 v 43.63"
       id="path103-6-3"
       inkscape:connector-curvature="0" /></clipPath><clipPath
     id="clipPath69-2"><path
       d="m 409.441,126.252 v -43.63 h 147.796 v 43.63"
       id="path71-4"
       inkscape:connector-curvature="0" /></clipPath><clipPath
     id="clipPath101-3"><path
       d="m 409.441,126.252 v -43.63 h 147.796 v 43.63"
       id="path103-7"
       inkscape:connector-curvature="0" /></clipPath><pattern
     id="EMFhbasepattern-1"
     patternUnits="userSpaceOnUse"
     width="6"
     height="6"
     x="0"
     y="0" /><marker
     inkscape:isstock="true"
     style="overflow:visible"
     id="Arrow1Send-0"
     refX="0"
     refY="0"
     orient="auto"
     inkscape:stockid="Arrow1Send"><path
       transform="matrix(-0.2,0,0,-0.2,-1.2,0)"
       style="fill:#000000;fill-opacity:1;fill-rule:evenodd;stroke:#000000;stroke-width:1.00000003pt;stroke-opacity:1"
       d="M 0,0 5,-5 -12.5,0 5,5 Z"
       id="path4714-1"
       inkscape:connector-curvature="0" /></marker><clipPath
     id="clipPath69-0-3"><path
       d="m 409.441,126.252 v -43.63 h 147.796 v 43.63"
       id="path71-2-4"
       inkscape:connector-curvature="0" /></clipPath><clipPath
     id="clipPath101-1-9"><path
       d="m 409.441,126.252 v -43.63 h 147.796 v 43.63"
       id="path103-6-33"
       inkscape:connector-curvature="0" /></clipPath><clipPath
     id="clipPath69-3"><path
       d="m 409.441,126.252 v -43.63 h 147.796 v 43.63"
       id="path71-5"
       inkscape:connector-curvature="0" /></clipPath><clipPath
     id="clipPath101-0"><path
       d="m 409.441,126.252 v -43.63 h 147.796 v 43.63"
       id="path103-1"
       inkscape:connector-curvature="0" /></clipPath><pattern
     id="EMFhbasepattern-2"
     patternUnits="userSpaceOnUse"
     width="6"
     height="6"
     x="0"
     y="0" /></defs><sodipodi:namedview
   pagecolor="#ffffff"
   bordercolor="#666666"
   borderopacity="1"
   objecttolerance="10"
   gridtolerance="10"
   guidetolerance="10"
   inkscape:pageopacity="0"
   inkscape:pageshadow="2"
   inkscape:window-width="1680"
   inkscape:window-height="987"
   id="namedview315"
   showgrid="false"
   inkscape:zoom="1.4174175"
   inkscape:cx="402.1312"
   inkscape:cy="305.34876"
   inkscape:window-x="-8"
   inkscape:window-y="-8"
   inkscape:window-maximized="1"
   inkscape:current-layer="Layer_1"
   inkscape:document-rotation="0" />
<style
   type="text/css"
   id="style2">
	.st0{fill:none;stroke:#000000;stroke-width:2;stroke-linecap:round;stroke-linejoin:round;stroke-miterlimit:10;}
</style>


<style
   id="style2-2"
   type="text/css">
	.st0{fill:none;stroke:#000000;stroke-width:2;stroke-linecap:round;stroke-linejoin:round;stroke-miterlimit:10;}
</style><style
   id="style2-8"
   type="text/css">
	.st0{fill:none;stroke:#000000;stroke-width:2;stroke-linecap:round;stroke-linejoin:round;stroke-miterlimit:10;}
</style><path
   sodipodi:nodetypes="sssssssss"
   id="path1103"
   d="m 397.10037,175.60217 c -77.10491,-21.30198 -116.20168,-29.75872 -189.57053,-27.93671 -29.86565,0.74167 -56.84782,35.40165 -61.85985,64.85308 -14.37321,84.45903 -11.41546,122.58361 -3.99096,199.54792 2.86274,29.67595 28.25076,58.62368 55.87342,69.84178 66.39473,26.96421 81.9805,27.70074 156.64512,32.92541 45.85167,3.20848 82.75725,-18.97887 88.79882,-49.88699 18.79465,-96.15177 16.22125,-128.87722 13.96836,-189.57052 -1.88197,-50.70064 -17.60491,-88.09883 -59.86438,-99.77397 z"
   style="fill:none;stroke:#000000;stroke-width:2;stroke-linecap:butt;stroke-linejoin:miter;stroke-opacity:1;fill-opacity:1;stroke-miterlimit:4;stroke-dasharray:none" /><path
   style="fill:none;fill-opacity:1;stroke:#000000;stroke-width:3;stroke-linecap:butt;stroke-linejoin:miter;stroke-opacity:1;stroke-miterlimit:4;stroke-dasharray:none"
   d="M 415.59265,146.83939 C 324.2423,121.60178 277.92224,111.58263 190.9982,113.74126 c -35.38345,0.8787 -67.35069,41.94225 -73.28871,76.83495 -17.02872,100.06318 -13.52452,145.23143 -4.72831,236.41521 3.39164,35.1587 33.4702,69.45464 66.19626,82.74533 78.66143,31.94596 97.12673,32.81857 185.58595,39.00852 54.32295,3.80126 98.04699,-22.4853 105.20476,-59.10382 22.26704,-113.9162 19.21819,-152.68781 16.54907,-224.59444 -2.22967,-60.06779 -20.85749,-104.37545 -70.92457,-118.20762 z"
   id="path1105"
   sodipodi:nodetypes="sssssssss" /><path
   sodipodi:nodetypes="sssssssss"
   id="path1107"
   d="m 421.75674,137.2518 c -96.09883,-26.54949 -144.82665,-37.08944 -236.26909,-34.81861 -37.22271,0.92438 -70.85164,44.12245 -77.09833,80.82891 -17.913887,105.26456 -14.227535,152.7807 -4.97409,248.70431 3.56794,36.98628 35.21001,73.06496 69.63721,87.04651 82.75033,33.60654 102.17547,34.52451 195.23289,41.03622 57.14671,3.99886 103.14357,-23.65411 110.67341,-62.17609 23.4245,-119.83768 20.21717,-160.62468 17.4093,-236.26908 -2.34557,-63.19018 -21.94168,-109.80099 -74.6113,-124.35217 z"
   style="fill:none;fill-opacity:1;stroke:#000000;stroke-width:3;stroke-linecap:butt;stroke-linejoin:miter;stroke-opacity:1;stroke-miterlimit:4;stroke-dasharray:none" /><path
   style="fill:none;fill-opacity:1;stroke:#000000;stroke-width:3;stroke-linecap:butt;stroke-linejoin:miter;stroke-miterlimit:4;stroke-dasharray:none;stroke-opacity:1"
   d="m 463.41068,528.03659 c 65.30048,-21.65132 78.68148,-114.23328 80.72105,-191.77108 m 0.0117,-3.44583 c 0.47008,-29.18162 -0.38078,-58.63027 -0.4659,-78.96628 C 543.44853,199.12933 512.68997,135.75065 460.55003,119.40279 373.62281,92.147794 348.24921,88.964952 261.73163,86.700708 232.97916,85.94823 212.54475,92.758006 197.4792,102.30239"
   id="path1109"
   sodipodi:nodetypes="cccsssc" /><path
   d="m 537.77194,336.22607 a 3.1570613,3.1570613 0 0 1 -4.45765,-0.22822 3.1570613,3.1570613 0 0 1 0.22567,-4.45777 3.1570613,3.1570613 0 0 1 4.45791,0.22313 3.1570613,3.1570613 0 0 1 -0.22058,4.45803"
   sodipodi:arc-type="arc"
   sodipodi:open="true"
   sodipodi:end="0.83455187"
   sodipodi:start="0.83683651"
   sodipodi:ry="3.1570613"
   sodipodi:rx="3.1570613"
   sodipodi:cy="333.88187"
   sodipodi:cx="535.65729"
   sodipodi:type="arc"
   id="path1183"
   style="fill:#000000;fill-opacity:1;fill-rule:evenodd;stroke-width:3.5799" /><g
   id="g1101"
   transform="rotate(-169.802,659.88834,127.41398)"><path
     sodipodi:open="true"
     sodipodi:end="3.1441689"
     sodipodi:start="6.2744123"
     sodipodi:ry="22.978426"
     sodipodi:rx="20.546522"
     sodipodi:cy="-623.36279"
     sodipodi:cx="-31.097771"
     sodipodi:type="arc"
     id="path869"
     style="fill:none;fill-opacity:1;fill-rule:evenodd;stroke:#000000;stroke-width:2.69147;stroke-miterlimit:4;stroke-dasharray:none;stroke-opacity:1"
     sodipodi:arc-type="arc"
     transform="rotate(84.896858)"
     d="m -10.552039,-623.56438 a 20.546522,22.978426 0 0 1 -10.183809,20.04391 20.546522,22.978426 0 0 1 -20.613702,0.0714 20.546522,22.978426 0 0 1 -10.294675,-19.97295" /><path
     transform="matrix(0.08894892,0.99603619,0.99603619,-0.08894892,0,0)"
     style="fill:none;fill-opacity:1;fill-rule:evenodd;stroke:#000000;stroke-width:2.69147;stroke-miterlimit:4;stroke-dasharray:none;stroke-opacity:1"
     id="path871"
     sodipodi:type="arc"
     sodipodi:cx="-31.097771"
     sodipodi:cy="686.56885"
     sodipodi:rx="20.546522"
     sodipodi:ry="22.978426"
     sodipodi:start="6.2744123"
     sodipodi:end="1.5430552"
     sodipodi:open="true"
     sodipodi:arc-type="arc"
     d="M -10.552039,686.36726 A 20.546522,22.978426 0 0 1 -30.52786,709.53843" /><path
     inkscape:connector-curvature="0"
     id="path873"
     d="m 679.69471,-112.54841 c 0,0 -63.58751,5.67855 -63.58751,5.67855 v 0"
     style="fill:none;stroke:#000000;stroke-width:2.69147;stroke-linecap:butt;stroke-linejoin:miter;stroke-miterlimit:4;stroke-dasharray:none;stroke-opacity:1" /><path
     inkscape:connector-curvature="0"
     id="path875"
     d="m 683.20799,-71.60643 -63.3872,5.66066"
     style="fill:none;stroke:#000000;stroke-width:2.69147;stroke-linecap:butt;stroke-linejoin:miter;stroke-miterlimit:4;stroke-dasharray:none;stroke-opacity:1" /><g
     transform="matrix(0.05683054,0.63637959,-0.84328452,0.07530775,984.04678,-336.32455)"
     id="g891"><path
       sodipodi:open="true"
       sodipodi:end="3.1441689"
       sodipodi:start="6.2744123"
       sodipodi:ry="24.219294"
       sodipodi:rx="24.219294"
       sodipodi:cy="453.50793"
       sodipodi:cx="338.64407"
       sodipodi:type="arc"
       id="path879"
       style="fill:none;fill-opacity:1;fill-rule:evenodd;stroke:#000000;stroke-width:3;stroke-miterlimit:4;stroke-dasharray:none;stroke-opacity:1"
       sodipodi:arc-type="arc"
       d="m 362.86244,453.29546 a 24.219294,24.219294 0 0 1 -12.00421,21.12631 24.219294,24.219294 0 0 1 -24.29848,0.0753 24.219294,24.219294 0 0 1 -12.13489,-21.05152" /><path
       transform="scale(1,-1)"
       style="fill:none;fill-opacity:1;fill-rule:evenodd;stroke:#000000;stroke-width:3;stroke-miterlimit:4;stroke-dasharray:none;stroke-opacity:1"
       id="path881"
       sodipodi:type="arc"
       sodipodi:cx="338.64407"
       sodipodi:cy="-386.88879"
       sodipodi:rx="24.219294"
       sodipodi:ry="24.219294"
       sodipodi:start="6.2744123"
       sodipodi:end="3.1441689"
       sodipodi:open="true"
       sodipodi:arc-type="arc"
       d="m 362.86244,-387.10127 a 24.219294,24.219294 0 0 1 -12.00421,21.12631 24.219294,24.219294 0 0 1 -24.29848,0.0753 24.219294,24.219294 0 0 1 -12.13489,-21.05152" /><path
       inkscape:connector-curvature="0"
       id="path883"
       d="m 314.42486,386.42206 c 0,0 0,67.28805 0,67.28805 v 0"
       style="fill:none;stroke:#000000;stroke-width:3;stroke-linecap:butt;stroke-linejoin:miter;stroke-miterlimit:4;stroke-dasharray:none;stroke-opacity:1" /><path
       inkscape:connector-curvature="0"
       id="path885"
       d="m 362.86244,386.57214 v 67.07607"
       style="fill:none;stroke:#000000;stroke-width:3;stroke-linecap:butt;stroke-linejoin:miter;stroke-miterlimit:4;stroke-dasharray:none;stroke-opacity:1" /></g><path
     inkscape:connector-curvature="0"
     id="path897"
     d="m 746.06518,-99.36947 c 0,0 -43.51575,3.88608 -43.51575,3.88608 v 0"
     style="fill:none;stroke:#000000;stroke-width:1.96102;stroke-linecap:butt;stroke-linejoin:miter;stroke-miterlimit:4;stroke-dasharray:none;stroke-opacity:1" /><path
     inkscape:connector-curvature="0"
     id="path899"
     d="m 746.24048,-96.34081 -43.45735,3.88087"
     style="fill:none;stroke:#000000;stroke-width:1.9628;stroke-linecap:butt;stroke-linejoin:miter;stroke-miterlimit:4;stroke-dasharray:none;stroke-opacity:1" /><path
     sodipodi:open="true"
     sodipodi:end="3.1441689"
     sodipodi:start="1.5988399"
     sodipodi:ry="22.978426"
     sodipodi:rx="20.546522"
     sodipodi:cy="686.56885"
     sodipodi:cx="-31.097771"
     sodipodi:type="arc"
     id="path907"
     style="fill:none;fill-opacity:1;fill-rule:evenodd;stroke:#000000;stroke-width:2.69147;stroke-miterlimit:4;stroke-dasharray:none;stroke-opacity:1"
     transform="matrix(0.08894892,0.99603619,0.99603619,-0.08894892,0,0)"
     sodipodi:arc-type="arc"
     d="M -31.673893,709.53824 A 20.546522,22.978426 0 0 1 -51.644225,686.50965" /></g></svg>
