<?xml version="1.0" encoding="UTF-8" standalone="no"?>
<svg
   inkscape:version="1.1 (c68e22c387, 2021-05-23)"
   sodipodi:docname="icon.svg"
   xml:space="preserve"
   style="enable-background:new 0 0 667 666;"
   viewBox="0 0 667 666"
   y="0px"
   x="0px"
   id="Layer_1"
   version="1.1"
   xmlns:inkscape="http://www.inkscape.org/namespaces/inkscape"
   xmlns:sodipodi="http://sodipodi.sourceforge.net/DTD/sodipodi-0.dtd"
   xmlns="http://www.w3.org/2000/svg"
   xmlns:svg="http://www.w3.org/2000/svg"
   xmlns:rdf="http://www.w3.org/1999/02/22-rdf-syntax-ns#"
   xmlns:cc="http://creativecommons.org/ns#"
   xmlns:dc="http://purl.org/dc/elements/1.1/"><metadata
   id="metadata319"><rdf:RDF><cc:Work
       rdf:about=""><dc:format>image/svg+xml</dc:format><dc:type
         rdf:resource="http://purl.org/dc/dcmitype/StillImage" /></cc:Work></rdf:RDF></metadata><defs
   id="defs317"><marker
     inkscape:isstock="true"
     style="overflow:visible"
     id="Arrow1Send"
     refX="0"
     refY="0"
     orient="auto"
     inkscape:stockid="Arrow1Send"><path
       transform="matrix(-0.2,0,0,-0.2,-1.2,0)"
       style="fill:#000000;fill-opacity:1;fill-rule:evenodd;stroke:#000000;stroke-width:1.00000003pt;stroke-opacity:1"
       d="M 0,0 5,-5 -12.5,0 5,5 Z"
       id="path4714"
       inkscape:connector-curvature="0" /></marker><clipPath
     id="clipPath69-0"><path
       d="m 409.441,126.252 v -43.63 h 147.796 v 43.63"
       id="path71-2"
       inkscape:connector-curvature="0" /></clipPath><clipPath
     id="clipPath101-1"><path
       d="m 409.441,126.252 v -43.63 h 147.796 v 43.63"
       id="path103-6"
       inkscape:connector-curvature="0" /></clipPath><clipPath
     id="clipPath69"><path
       d="m 409.441,126.252 v -43.63 h 147.796 v 43.63"
       id="path71"
       inkscape:connector-curvature="0" /></clipPath><clipPath
     id="clipPath101"><path
       d="m 409.441,126.252 v -43.63 h 147.796 v 43.63"
       id="path103"
       inkscape:connector-curvature="0" /></clipPath></defs><sodipodi:namedview
   inkscape:document-rotation="0"
   inkscape:current-layer="Layer_1"
   inkscape:window-maximized="1"
   inkscape:window-y="-8"
   inkscape:window-x="1672"
   inkscape:cy="273.87953"
   inkscape:cx="404.58342"
   inkscape:zoom="1.0022655"
   showgrid="false"
   id="namedview315"
   inkscape:window-height="987"
   inkscape:window-width="1680"
   inkscape:pageshadow="2"
   inkscape:pageopacity="0"
   guidetolerance="10"
   gridtolerance="10"
   objecttolerance="10"
   borderopacity="1"
   bordercolor="#666666"
   pagecolor="#ffffff"
   inkscape:pagecheckerboard="0" />
<style
   id="style2"
   type="text/css">
	.st0{fill:none;stroke:#000000;stroke-width:2;stroke-linecap:round;stroke-linejoin:round;stroke-miterlimit:10;}
</style>


<path
   style="fill:none;stroke:#000000;stroke-width:2.9;stroke-linecap:butt;stroke-linejoin:miter;stroke-opacity:1;stroke-miterlimit:4;stroke-dasharray:none"
   d="m 149.66094,64.853076 c 144.67225,0 0,0 144.67225,0 36.79482,0 71.73476,47.015454 71.83725,83.810124 0.99774,358.18853 0,0 0.99774,358.18853 0.0885,31.79041 -32.06748,70.42668 -63.85533,70.83951 -153.65191,1.99548 0,0 -153.65191,1.99548 -36.26188,0.47093 -72.834989,-44.55198 -72.834989,-80.81691 0,-366.17044 0,0 0,-366.17044 0,-33.179738 39.655249,-67.846294 72.834989,-67.846294 z"
   id="path1061"
   sodipodi:nodetypes="sssssssss" /><path
   style="fill:none;stroke:#000000;stroke-width:2.9;stroke-linecap:butt;stroke-linejoin:miter;stroke-miterlimit:4;stroke-dasharray:none;stroke-opacity:1"
   d="m 287.34901,578.31482 c 0,0 -0.17243,21.54049 4.52528,31.72775 12.15798,26.3653 33.6533,35.98836 55.3391,34.49723 23.32272,-1.60369 45.10724,-23.22813 53.87794,-44.89829 8.52133,-21.05403 9.8283,-35.61388 9.97739,-53.87794 l 1.99548,-244.4462 c 0.10245,-12.54979 9.90442,-31.72935 22.77683,-31.22216 15.33081,0.60405 23.99849,23.1543 24.11694,39.20407 l 1.99548,270.38744 c 0.0938,12.71393 6.94117,38.58459 31.92766,40.90733 10.83393,1.00712 25.67683,-15.26025 25.94123,-40.90733 l 2.99322,-290.34223 -10.97513,-0.99774 -0.99774,293.33545 c -0.0376,11.07041 -7.0749,29.63211 -18.66483,29.34773 -14.3129,-0.3512 -21.19221,-23.29818 -21.24476,-37.32965 L 469.93536,307.3038 c -0.0788,-21.03405 -14.99026,-48.27613 -34.86036,-48.35492 -19.16024,-0.076 -33.901,26.43533 -33.98367,46.35944 l -0.99774,240.45525 c -0.0914,22.02303 -4.19664,45.90879 -16.96157,63.85534 -8.6743,12.19543 -22.24956,24.67886 -37.2086,25.12506 -16.12935,0.48111 -32.85363,-9.22711 -41.66297,-24.65126 0,0 -8.08723,-14.02344 -6.06102,-31.65317 0,0 -7.9495,0.6461 -10.85042,-0.12472 z"
   id="path1267"
   sodipodi:nodetypes="ssasssassssccsassassaasss" /><path
   style="fill:none;stroke:#000000;stroke-width:2.9;stroke-linecap:butt;stroke-linejoin:miter;stroke-opacity:1;stroke-miterlimit:4;stroke-dasharray:none"
   d="m 533.7907,258.41456 -14.96609,6.98418 -17.46045,-8.48079 0.99774,29.93219 20.45366,2.49435 10.97514,-1.49661 z"
   id="path5767"
   sodipodi:nodetypes="ccccccc" /><path
   style="fill:none;stroke:#000000;stroke-width:2.9;stroke-linecap:butt;stroke-linejoin:miter;stroke-opacity:1;stroke-miterlimit:4;stroke-dasharray:none"
   d="m 533.7907,258.41456 c 0,0 17.16019,-10.3831 23.44688,-17.95931 10.59016,-12.76239 22.44914,-29.89783 22.44914,-44.39941 V 92.789785 L 462.95119,89.796566 461.45458,199.54792 c -0.24448,17.92837 10.7147,28.56399 19.95479,40.40846 5.36963,6.88309 19.95479,16.96157 19.95479,16.96157"
   id="path5769"
   sodipodi:nodetypes="casscsac" /><path
   style="fill:none;stroke:#000000;stroke-width:2.9;stroke-linecap:butt;stroke-linejoin:miter;stroke-opacity:1;stroke-miterlimit:4;stroke-dasharray:none"
   d="m 477.91728,109.75136 87.30222,1.49661 -0.99774,102.26831 -87.80109,-1.49661 z"
   id="path6925"
   sodipodi:nodetypes="ccccc" /><path
   style="fill:none;fill-rule:evenodd;stroke:#000000;stroke-opacity:1;stroke-width:2.9;stroke-miterlimit:4;stroke-dasharray:none"
   id="path7082"
   sodipodi:type="arc"
   sodipodi:cx="519.82233"
   sodipodi:cy="164.12817"
   sodipodi:rx="11.243281"
   sodipodi:ry="11.243281"
   sodipodi:start="0.83683651"
   sodipodi:end="0.83455187"
   sodipodi:open="true"
   sodipodi:arc-type="arc"
   d="m 527.35325,172.47662 a 11.243281,11.243281 0 0 1 -15.87507,-0.81276 11.243281,11.243281 0 0 1 0.80369,-15.87553 11.243281,11.243281 0 0 1 15.87599,0.79463 11.243281,11.243281 0 0 1 -0.78556,15.87644" /><path
   style="fill:#000000;fill-rule:evenodd;stroke:#000000;stroke-opacity:1;fill-opacity:1;stroke-width:2.9;stroke-miterlimit:4;stroke-dasharray:none"
   id="path7200"
   sodipodi:type="arc"
   sodipodi:cx="519.82233"
   sodipodi:cy="228.98125"
   sodipodi:rx="3.8520355"
   sodipodi:ry="3.8520355"
   sodipodi:start="0.83683651"
   sodipodi:end="0.83455187"
   sodipodi:open="true"
   sodipodi:arc-type="arc"
   d="m 522.40248,231.84149 a 3.8520355,3.8520355 0 0 1 -5.43892,-0.27846 3.8520355,3.8520355 0 0 1 0.27535,-5.43908 3.8520355,3.8520355 0 0 1 5.43924,0.27225 3.8520355,3.8520355 0 0 1 -0.26914,5.43939" /><path
   style="fill:none;stroke:#000000;stroke-width:2.9;stroke-linecap:butt;stroke-linejoin:miter;stroke-opacity:1;stroke-miterlimit:4;stroke-dasharray:none"
   d="m 480.9105,90.295436 c 0,0 0,0 0,-9.478526 0,-3.597401 5.38564,-6.142407 8.97966,-5.986438 3.19132,0.138493 7.48304,2.792116 7.48304,5.986438 0,9.478526 0,9.478526 0,9.478526"
   id="path7325"
   sodipodi:nodetypes="csasc" /><path
   style="fill:none;stroke:#000000;stroke-width:2.9;stroke-linecap:butt;stroke-linejoin:miter;stroke-opacity:1;stroke-miterlimit:4;stroke-dasharray:none"
   d="m 544.76583,91.968422 v -8.158294 c 0,-3.507891 5.57054,-6.551598 9.33241,-6.369454 3.30897,0.160216 7.64065,3.140709 7.62917,6.369454 l -0.0303,8.511048"
   id="path7327"
   sodipodi:nodetypes="csasc" /><path
   style="fill:none;stroke:#000000;stroke-width:2.9;stroke-linecap:butt;stroke-linejoin:miter;stroke-opacity:1;stroke-miterlimit:4;stroke-dasharray:none"
   d="m 336.73712,242.45073 c 0.49887,160.63608 0,0 0.49887,160.63608 0.0146,4.70336 -5.27547,10.09486 -9.97739,9.97739 -4.7078,-0.11762 -9.47853,-5.76699 -9.47853,-10.47626 0,-158.6406 0,0 0,-158.6406 0,-6.3648 4.1135,-16.12466 10.47627,-15.96384 5.58813,0.14125 8.46342,8.87734 8.48078,14.46723 z"
   id="path8453"
   sodipodi:nodetypes="ssassas" /></svg>
