<?xml version="1.0" encoding="UTF-8"?>
<svg width="960px" height="960px" viewBox="0 0 960 960" version="1.1" xmlns="http://www.w3.org/2000/svg" xmlns:xlink="http://www.w3.org/1999/xlink">
    <!-- Generator: Sketch 60.1 (88133) - https://sketch.com -->
    <title>no.tjweb.opengarage/capability/distance</title>
    <desc>Created with Sketch.</desc>
    <g id="com.tuya.zigbee/capability/distance" stroke="none" stroke-width="1" fill="none" fill-rule="evenodd">
        <path d="M944.680511,333 C953.034134,333 959.826104,339.682706 960,347.991075 L960,348.311419 L960,612.688581 C960,621.037803 953.313772,627.826195 945.001024,627.996715 L944.680511,628 L16.3194888,628 C7.96586649,628 1.1738964,621.317294 1,613.008925 L1,612.688581 L1,348.311419 C1,339.962197 7.68622804,333.173805 15.9989764,333.003285 L16.3194888,333 L944.680511,333 Z M78.5106383,364 L54,364 L54,598 L246,598 L246,364 L211.276596,364 L211.276596,414.069869 C211.276596,419.713303 206.704185,424.28821 201.06383,424.28821 C195.519074,424.28821 191.006368,419.86707 190.854987,414.355885 L190.851064,414.069869 L190.851064,364 L155.106383,364 L155.106383,451.877729 C155.106383,457.521163 150.533972,462.09607 144.893617,462.09607 C139.348861,462.09607 134.836155,457.67493 134.684775,452.163746 L134.680851,451.877729 L134.680851,364 L98.9361702,364 L98.9361702,414.069869 C98.9361702,419.713303 94.3637591,424.28821 88.7234043,424.28821 C83.1786486,424.28821 78.6659421,419.86707 78.5145618,414.355885 L78.5106383,414.069869 L78.5106383,364 Z M300.708831,364 L267,364 L267,598 L695,598 L695,364 L662.312649,364 L662.312649,414.069869 C662.312649,419.713303 657.739329,424.28821 652.097852,424.28821 C646.551994,424.28821 642.03839,419.86707 641.886979,414.355885 L641.883055,414.069869 L641.883055,364 L606.131265,364 L606.131265,451.877729 C606.131265,457.521163 601.557944,462.09607 595.916468,462.09607 C590.370609,462.09607 585.857005,457.67493 585.705595,452.163746 L585.701671,451.877729 L585.701671,364 L549.949881,364 L549.949881,414.069869 C549.949881,419.713303 545.37656,424.28821 539.735084,424.28821 C539.390299,424.28821 539.049505,424.271122 538.713501,424.237746 C538.378392,424.271087 538.037257,424.28821 537.692124,424.28821 C532.146266,424.28821 527.632662,419.86707 527.481251,414.355885 L527.477327,414.069869 L527.477327,364 L491.725537,364 L491.725537,451.877729 C491.725537,457.521163 487.152217,462.09607 481.51074,462.09607 C475.964881,462.09607 471.451277,457.67493 471.299867,452.163746 L471.295943,451.877729 L471.295943,364 L435.544153,364 L435.544153,414.069869 C435.544153,419.713303 430.970832,424.28821 425.329356,424.28821 C424.984572,424.28821 424.643777,424.271122 424.307773,424.237746 C423.972664,424.271087 423.631529,424.28821 423.286396,424.28821 C417.740538,424.28821 413.226934,419.86707 413.075523,414.355885 L413.071599,414.069869 L413.071599,364 L377.319809,364 L377.319809,451.877729 C377.319809,457.521163 372.746489,462.09607 367.105012,462.09607 C361.559154,462.09607 357.045549,457.67493 356.894139,452.163746 L356.890215,451.877729 L356.890215,364 L321.138425,364 L321.138425,414.069869 C321.138425,419.713303 316.565104,424.28821 310.923628,424.28821 C305.377769,424.28821 300.864165,419.86707 300.712755,414.355885 L300.708831,414.069869 L300.708831,364 Z M747.680851,364 L715,364 L715,598 L907,598 L907,364 L880.446809,364 L880.446809,414.069869 C880.446809,419.713303 875.874397,424.28821 870.234043,424.28821 C864.689287,424.28821 860.17658,419.86707 860.0252,414.355885 L860.021277,414.069869 L860.021277,364 L824.276596,364 L824.276596,451.877729 C824.276596,457.521163 819.704185,462.09607 814.06383,462.09607 C808.519074,462.09607 804.006368,457.67493 803.854987,452.163746 L803.851064,451.877729 L803.851064,364 L768.106383,364 L768.106383,414.069869 C768.106383,419.713303 763.533972,424.28821 757.893617,424.28821 C752.348861,424.28821 747.836155,419.86707 747.684775,414.355885 L747.680851,414.069869 L747.680851,364 Z" id="Shape" fill="#000000" fill-rule="nonzero"></path>
    </g>
</svg>
