<svg height="960" viewBox="0 0 960 960" width="960" xmlns="http://www.w3.org/2000/svg"><path d="m490.498269 4.48529724c29.586285-2.71206224 60.442548-4.23981528 91.01394-3.96918986l.322666.0032983c9.877787.13829621 22.424239 3.20641194 34.722379 7.81839428l1.535763.58443851c.255675.09871316.511189.19807134.766516.298062l1.52951.60743354c1.27237.51235239 2.53875 1.03989019 3.79584 1.58104709l1.50384.6558251 1.493656.6682978c8.432812 3.8212238 16.314166 8.2142414 22.607379 12.68649l.545497.3907313c10.415001 7.5198524 16.584661 19.5842342 16.584661 32.4302621v846.7851896c0 12.665966-5.998854 24.583505-16.172322 32.128519-19.076629 14.147922-50.219496 23.484853-69.90292 23.330599l-1.442656-.003953c-26.345635-.113554-49.934687-1.793046-71.514027-4.760617l-2.743949-.385814c-8.654966-1.243769-16.986694-2.696106-25.044525-4.338655-6.265139-1.277118-12.147361-2.62476-18.054768-4.102798-.326079-.081585-.650666-.163165-.974595-.244943l-1.942353-.49466-1.966592-.509136-2.030856-.533343-5.851335-1.562226c-17.243314-4.833301-29.198934-20.562078-29.198934-38.514153l-.000431-794.0581-442.4480055 28.003734c-5.511819.348849-10.2628293-3.836564-10.6116786-9.348383-.2548298-4.026311 1.909872-7.646645 5.2436967-9.441621-2.4009885-1.682061-4.0430478-4.401498-4.2435277-7.555714-.3443838-5.418306 3.6932904-10.102546 9.0664514-10.592586l.2790974-.021589 442.7139663-28.1398408v-17.963l-440.4664026 27.0638813c-5.5124527.3386888-10.2557401-3.8554755-10.5944289-9.3679281-.3329483-5.4190213 3.7146026-10.0947297 9.0887857-10.5734291l.2791424-.0209998 443.6541644-27.2580359c.683981-2.0996383 1.537485-4.1262523 2.545541-6.062534l-444.9521417 28.2816105c-5.5117257.3503215-10.2638538-3.8338232-10.6141754-9.3455488-.3443838-5.4183066 3.6932904-10.1025465 9.0664514-10.5925866l.2790974-.0215888 472.0000003-29.99999996c1.38746-.08818602 2.726786.11096527 3.959881.54629957l1.703871-.23870178 4.193611-.55481117 3.478287-.43619032 2.883191-.34818837 2.188789-.25699795 3.371081-.38399462 2.3049-.25459719 2.350043-.25315967 2.394442-.25144946 3.673284-.37337101 2.502186-.24598088 2.543982-.24331624zm-28.498703 843.09855376.000087 57.962446 1.354039.361834 3.084908.816881 2.705098.70239 2.918661.738741 2.330673.573967 2.453296.587962 1.704182.398384 1.759475.402555c.297871.067395.598059.134929.90057.202586l1.843005.407275 1.899088.409398c.642412.136729 1.294224.273675 1.955489.410701l2.012204.411185 2.069238.410849c.699287.136802 1.408132.273412 2.126588.409694l2.184255.407719c18.721665 3.438282 43.666984 6.576662 75.698666 7.18325l.000565-64.478371-.402242-.004463c-.587757-.00741-1.174028-.015212-1.758803-.023405l-3.490625-.053829c-.578753-.009747-1.155992-.01988-1.731706-.030397l-3.435918-.067688c-.569579-.012042-1.137615-.024464-1.704097-.037263l-3.380186-.081294-3.34246-.090225c-.553908-.015776-1.106225-.031919-1.656942-.048427l-3.285019-.103413-3.246154-.112065-3.206834-.120604-3.167059-.129033-3.126826-.137349c-.51776-.023579-1.033824-.047499-1.548184-.071758l-3.065623-.149614-3.024252-.157651c-.500569-.026939-.999395-.054208-1.496469-.081805l-2.96134-.169496-2.918828-.177254-2.875861-.184899c-.475705-.031447-.9496-.063209-1.421676-.095282l-2.810556-.196158c-.929526-.066619-1.851701-.134467-2.766448-.203523l-2.721887-.210778c-.449908-.035728-.897941-.071754-1.344089-.108075l-2.654188-.221449-2.608485-.228424-2.562326-.235287c-.846366-.079561-1.684962-.160246-2.515713-.242038l-2.468643-.248678-2.421117-.255204c-.399533-.043072-.797068-.086411-1.192593-.130015l-2.348974-.264786-2.300308-.271034-2.251186-.27717-2.20161-.283194-2.151576-.289107-2.101087-.294907-2.050142-.300596c-1.012259-.151702-2.005243-.305495-2.978695-.461317l-1.920786-.314328-1.868246-.319627c-1.562397-.273351-3.06759-.552298-4.514328-.836537zm128.999728 8.21105.000359 63.543396.670308-.12899 1.017646-.207737 1.039359-.223233c.174945-.038495.350727-.077634.527312-.117418l1.068873-.246421c.359321-.084712.721582-.171995 1.086512-.261842l1.10252-.277233c.184997-.047486.370593-.095612.556754-.144378l1.123477-.300262 1.13541-.315577 1.145715-.330861c.575161-.169247 1.153576-.344214 1.734326-.524885l1.164343-.36894c.388971-.125512.778709-.253554 1.168942-.38412l1.17191-.399268 1.17325-.414386 1.172959-.429474c6.447486-2.403544 12.807812-5.490329 17.860647-9.237695l.000247-56.318578c-11.121081 4.126857-24.157671 6.421482-35.920869 7.087902zm-98.422057-778.0991258-4.329828.3831296-3.892717.3597596-2.54228.2430031-2.498973.2452056-3.665353.3713234-2.386896.2494822-2.34054.2507009-3.421993.3777213-3.312797.3788819-2.186207.2593144-.000207 746.3407598c.680107.152284 1.379191.303304 2.097025.453001l1.543083.314018 1.598308.309965c.270961.051317.544203.102459.819716.153425l1.680255.303658c1.138236.200999 2.312496.399093 3.522146.594118l1.840939.290216 1.893548.285489c.319949.047181.64207.09416.966354.140935l1.971571.278172 2.02299.27314 2.073936.267985c.349875.044228.701853.088237 1.055923.132022l2.149461.260025c.362402.042886.726878.085544 1.093418.127972l2.223915.251789 2.272956.246144c.382887.040547.767797.080853 1.154721.120917l2.345627.237449 2.39348.231498c.805749.076161 1.619394.151309 2.440856.225425l2.487758.219231 2.534183.212913 2.580133.206472 2.625606.199911 2.670605.193225 2.715127.186418 2.759175.179488 2.802745.172436c.470728.028144.943253.05599 1.417563.083535l2.86721.161627 2.909591.154269c.488438.025092.978621.049872 1.470541.074337l2.972272.143002 3.013465.135337 3.054182.12755 3.094423.119641 3.134189.111608c.525652.017926 1.052941.035511 1.581857.052755l3.192945.09933c.535385.015864 1.072378.031381 1.610968.046547l3.25063.086778c1.089881.027512 2.186071.053604 3.288493.078256l3.32588.069612c.557403.010874 1.116343.021384 1.676812.031526l3.381068.056415 3.417266.047466.005292-.000808.000924-761.8961946c-26.028462.0979261-52.57117 1.455456-78.42334 3.6906728zm98.422416-1.290478.000091 759.3409668c12.193368-.836018 26.072443-3.724573 35.348965-8.598693.188897-.099251.379521-.19186.571605-.277909l-.000469-734.8690537c-1.863743-.0132775-3.742121-.5465122-5.406587-1.6401452l-.24407-.1654774c-2.02475-1.4159221-4.494286-2.879608-7.226262-4.3215689l-1.036436-.5395813-1.058904-.5367302c-.356475-.1783444-.716338-.3560779-1.079234-.5330648l-1.097427-.5285852c-.184302-.087679-.369272-.1751374-.554868-.2623582l-1.12071-.5203388c-.187915-.0862028-.376366-.1721341-.565308-.2577769l-1.139185-.5102602-1.148832-.5025232-1.15634-.4939719c-.19323-.0815708-.386684-.1627514-.580318-.2435247l-1.163597-.4796181c-.194173-.0790767-.388436-.1577123-.582745-.2358898l-1.166045-.4634321c-.194314-.0762772-.388585-.1520625-.582768-.2273387l-1.163686-.4454138-1.159443-.4323838-1.153063-.4185393-1.144545-.4038807-1.13389-.3884076c-.187976-.0634-.375418-.1261213-.562282-.188147l-1.113903-.3636712-1.097906-.3461624zm.000257-34.3371229-.000587 13.6593662c.297714.071514.597224.1450068.898418.2204323l1.288776.3317698 1.307099.354218 1.323506.3758813c2.440298.7084937 4.953667 1.522248 7.487022 2.4194936l1.383492.497556c.230806.0842624.461698.1691821.692635.2547427l1.385848.5209244c.461919.176118.923701.3546689 1.385027.535522l1.38229.5493345 1.377639.5623619c.458226.189538.915357.3811164 1.371074.5746044l1.362594.5860617c.226286.0985881.452139.1976209.677519.297082l1.346285.6017757c4.005117 1.8132635 7.83246 3.7537633 11.251985 5.7271632l-.000616-11.8960766c-2.87371-2.0748796-6.595834-4.2640698-10.724476-6.3691652l-1.190292-.5989961c-.600296-.2981825-1.208028-.5942632-1.82191-.8876636l-1.23558-.5830557c-.207169-.0965232-.414927-.1927057-.623224-.2885262l-1.255882-.5704064c-.420533-.1885729-.842845-.375526-1.266554-.5606881l-1.274935-.5499415-1.281026-.5381665-1.284827-.5253632c-.642982-.2593094-1.28653-.5134319-1.929356-.7617891l-1.284308-.488856c-.641291-.240413-1.281001-.4746752-1.917842-.7022079l-1.269474-.4459216c-1.264886-.4366063-2.514859-.8447526-3.739613-1.2198114l-1.215966-.3638582c-.885013-.2584983-1.754615-.4983722-2.604741-.7177964zm-20.00099-1.5734308c-9.375575.0451462-18.516604.2612594-27.269448.5940952l-3.544657.1419448-3.49938.154049c-.579329.0266382-1.156675.0537468-1.731989.0813088l-3.427134.1706763c-.566999.0293075-1.13187.0590344-1.694566.0891637l-3.34969.1854688-3.295174.194311c-1.089048.0661534-2.168626.1336446-3.238347.2023377l-3.179211.2095489c-.524813.0354804-1.047065.0712273-1.566708.1072237l-3.086177.2188366-3.021266.224009-2.954047.2283658-2.884516.2319072-4.191353.3527169-2.700586.2371928-2.622972.2378798-2.543048.2377513-2.460814.2368074-2.376271.2350479-2.289417.2324729-3.266223.3420972-2.062178.2224675-2.914538.3232664-2.693133.3082981-1.668569.1958572-3.710598.4498342-2.475429.3121933-2.447661.3199453-.834167.114479v12.789l2.117658-.2443385 3.460856-.3866131 2.367353-.256684 3.639054-.3827331 3.742104-.3791344 2.550554-.2502865 2.594204-.2479812 3.971272-.3670317c.446494-.0404226.894717-.0807197 1.344651-.1208854 27.356828-2.4421501 55.53166-3.9333257 83.212976-4.0346989z"/></svg>