<?xml version="1.0" encoding="UTF-8" standalone="no"?>
<svg
   version="1.1"
   id="Layer_1"
   x="0px"
   y="0px"
   viewBox="0 0 667 666"
   style="enable-background:new 0 0 667 666;"
   xml:space="preserve"
   sodipodi:docname="icon.svg"
   inkscape:version="1.3.2 (091e20e, 2023-11-25, custom)"
   xmlns:inkscape="http://www.inkscape.org/namespaces/inkscape"
   xmlns:sodipodi="http://sodipodi.sourceforge.net/DTD/sodipodi-0.dtd"
   xmlns="http://www.w3.org/2000/svg"
   xmlns:svg="http://www.w3.org/2000/svg"
   xmlns:rdf="http://www.w3.org/1999/02/22-rdf-syntax-ns#"
   xmlns:cc="http://creativecommons.org/ns#"
   xmlns:dc="http://purl.org/dc/elements/1.1/"><metadata
   id="metadata319"><rdf:RDF><cc:Work
       rdf:about=""><dc:format>image/svg+xml</dc:format><dc:type
         rdf:resource="http://purl.org/dc/dcmitype/StillImage" /></cc:Work></rdf:RDF></metadata><defs
   id="defs317"><marker
     inkscape:stockid="Arrow1Send"
     orient="auto"
     refY="0"
     refX="0"
     id="Arrow1Send"
     style="overflow:visible"
     inkscape:isstock="true"><path
       inkscape:connector-curvature="0"
       id="path4714"
       d="M 0,0 5,-5 -12.5,0 5,5 Z"
       style="fill:#000000;fill-opacity:1;fill-rule:evenodd;stroke:#000000;stroke-width:1.00000003pt;stroke-opacity:1"
       transform="matrix(-0.2,0,0,-0.2,-1.2,0)" /></marker><clipPath
     id="clipPath69-0"><path
       inkscape:connector-curvature="0"
       id="path71-2"
       d="m 409.441,126.252 v -43.63 h 147.796 v 43.63" /></clipPath><clipPath
     id="clipPath101-1"><path
       inkscape:connector-curvature="0"
       id="path103-6"
       d="m 409.441,126.252 v -43.63 h 147.796 v 43.63" /></clipPath><clipPath
     id="clipPath69"><path
       inkscape:connector-curvature="0"
       id="path71"
       d="m 409.441,126.252 v -43.63 h 147.796 v 43.63" /></clipPath><clipPath
     id="clipPath101"><path
       inkscape:connector-curvature="0"
       id="path103"
       d="m 409.441,126.252 v -43.63 h 147.796 v 43.63" /></clipPath></defs><sodipodi:namedview
   pagecolor="#ffffff"
   bordercolor="#666666"
   borderopacity="1"
   objecttolerance="10"
   gridtolerance="10"
   guidetolerance="10"
   inkscape:pageopacity="0"
   inkscape:pageshadow="2"
   inkscape:window-width="1680"
   inkscape:window-height="987"
   id="namedview315"
   showgrid="false"
   inkscape:zoom="1.0022655"
   inkscape:cx="381.13654"
   inkscape:cy="308.80041"
   inkscape:window-x="1672"
   inkscape:window-y="-8"
   inkscape:window-maximized="1"
   inkscape:current-layer="Layer_1"
   inkscape:document-rotation="0"
   inkscape:showpageshadow="2"
   inkscape:pagecheckerboard="0"
   inkscape:deskcolor="#d1d1d1" />
<style
   type="text/css"
   id="style2">
	.st0{fill:none;stroke:#000000;stroke-width:2;stroke-linecap:round;stroke-linejoin:round;stroke-miterlimit:10;}
</style>


<path
   style="fill:none;stroke:#000000;stroke-width:8;stroke-linecap:butt;stroke-linejoin:miter;stroke-opacity:1;stroke-dasharray:none"
   d="m 134.69485,97.778483 c -16.36379,0.107607 -30.33337,22.552617 -29.93219,38.911847 3.54601,144.59895 4.20737,217.80137 3.99096,391.11393 -0.0193,15.43184 21.48512,27.79951 36.91636,27.93671 147.80043,1.31412 225.30373,-1.71231 382.13428,-1.99548 15.75809,-0.0285 33.7028,-17.16884 33.92315,-32.92541 2.1868,-156.37074 -0.1218,-228.59238 -0.99774,-379.14105 C 560.62479,123.6524 545.83092,98.676499 527.80426,98.776222 389.39985,99.541875 266.29466,96.913095 134.69485,97.778483 Z"
   id="path1"
   sodipodi:nodetypes="sssssssss" /><path
   style="fill:none;stroke:#000000;stroke-width:8;stroke-linecap:butt;stroke-linejoin:miter;stroke-opacity:1;stroke-dasharray:none"
   d="m 112.74458,57.868898 c 153.587,0.257442 294.01241,2.191792 451.97605,1.995479 20.74294,-0.02578 41.08366,26.151551 40.90732,46.893763 -1.40767,165.57703 0.59986,277.49352 0,456.96475 -0.0685,20.49069 -29.39641,35.82017 -49.88698,35.91862 -174.72738,0.8395 -277.72935,0.20338 -446.98735,0 -18.907379,-0.0227 -43.938916,-17.01126 -43.900545,-35.91862 0.337264,-166.18619 -0.421917,-265.04879 0,-458.96023 0.04861,-22.342287 25.549197,-46.931212 47.891505,-46.893762 z"
   id="path2"
   sodipodi:nodetypes="sssssssss" /><path
   style="fill:none;stroke:#000000;stroke-width:8;stroke-linecap:butt;stroke-linejoin:miter;stroke-opacity:1;stroke-dasharray:none"
   d="m 248.43717,164.62704 c -26.95984,-0.97224 -41.9901,23.92802 -40.90733,43.90054 1.0467,19.3071 15.59689,37.58179 43.90055,37.91411 26.79277,0.31458 39.26038,-22.09112 38.91184,-40.90733 -0.36152,-19.51713 -13.39156,-39.87905 -41.90506,-40.90732 z"
   id="path3"
   sodipodi:nodetypes="sasas" /><path
   style="fill:none;stroke:#000000;stroke-width:8;stroke-linecap:butt;stroke-linejoin:miter;stroke-opacity:1;stroke-dasharray:none"
   d="m 424.03482,161.63382 c -26.95984,-0.97224 -41.9901,23.92802 -40.90733,43.90054 1.0467,19.3071 15.59689,37.58179 43.90055,37.91411 26.79277,0.31458 39.26038,-22.09112 38.91184,-40.90733 -0.36152,-19.51713 -13.39156,-39.87905 -41.90506,-40.90732 z"
   id="path4"
   sodipodi:nodetypes="sasas" /><path
   style="fill:none;stroke:#000000;stroke-width:8;stroke-linecap:butt;stroke-linejoin:miter;stroke-opacity:1;stroke-dasharray:none"
   d="m 248.43717,290.34223 c -26.95984,-0.97224 -41.9901,23.92802 -40.90733,43.90054 1.0467,19.3071 15.59689,37.58179 43.90055,37.91411 26.79277,0.31458 39.26038,-22.09112 38.91184,-40.90733 -0.36152,-19.51713 -13.39156,-39.87905 -41.90506,-40.90732 z"
   id="path5"
   sodipodi:nodetypes="sasas" /><path
   style="fill:none;stroke:#000000;stroke-width:8;stroke-linecap:butt;stroke-linejoin:miter;stroke-opacity:1;stroke-dasharray:none"
   d="m 424.03482,287.34901 c -26.95984,-0.97224 -41.9901,23.92802 -40.90733,43.90054 1.0467,19.3071 15.59689,37.58179 43.90055,37.91411 26.79277,0.31458 39.26038,-22.09112 38.91184,-40.90733 -0.36152,-19.51713 -13.39156,-39.87905 -41.90506,-40.90732 z"
   id="path6"
   sodipodi:nodetypes="sasas" /><path
   style="fill:none;stroke:#000000;stroke-width:8;stroke-linecap:butt;stroke-linejoin:miter;stroke-opacity:1;stroke-dasharray:none"
   d="m 249.43491,417.05516 c -26.95984,-0.97224 -41.9901,23.92802 -40.90733,43.90054 1.0467,19.3071 15.59689,37.58179 43.90055,37.91411 26.79277,0.31458 39.26038,-22.09112 38.91184,-40.90733 -0.36152,-19.51713 -13.39156,-39.87905 -41.90506,-40.90732 z"
   id="path7"
   sodipodi:nodetypes="sasas" /><path
   style="fill:none;stroke:#000000;stroke-width:8;stroke-linecap:butt;stroke-linejoin:miter;stroke-opacity:1;stroke-dasharray:none"
   d="m 425.03256,414.06194 c -26.95984,-0.97224 -41.9901,23.92802 -40.90733,43.90054 1.0467,19.3071 15.59689,37.58179 43.90055,37.91411 26.79277,0.31458 39.26038,-22.09112 38.91184,-40.90733 -0.36152,-19.51713 -13.39156,-39.87905 -41.90506,-40.90732 z"
   id="path8"
   sodipodi:nodetypes="sasas" /><text
   xml:space="preserve"
   style="font-style:normal;font-variant:normal;font-weight:bold;font-stretch:normal;font-size:64px;line-height:1.25;font-family:Gadugi;-inkscape-font-specification:'Gadugi, Bold';font-variant-ligatures:normal;font-variant-caps:normal;font-variant-numeric:normal;font-variant-east-asian:normal;letter-spacing:0px;word-spacing:0px;fill:#000000;fill-opacity:1;stroke:none"
   x="231.48012"
   y="230.47784"
   id="text8"><tspan
     sodipodi:role="line"
     id="tspan8"
     x="231.48012"
     y="230.47784">1</tspan></text><text
   xml:space="preserve"
   style="font-style:normal;font-variant:normal;font-weight:bold;font-stretch:normal;font-size:64px;line-height:1.25;font-family:Gadugi;-inkscape-font-specification:'Gadugi, Bold';font-variant-ligatures:normal;font-variant-caps:normal;font-variant-numeric:normal;font-variant-east-asian:normal;letter-spacing:0px;word-spacing:0px;fill:#000000;fill-opacity:1;stroke:none"
   x="407.07324"
   y="227.48462"
   id="text9"><tspan
     sodipodi:role="line"
     id="tspan9"
     x="407.07324"
     y="227.48462">2</tspan></text><text
   xml:space="preserve"
   style="font-style:normal;font-variant:normal;font-weight:bold;font-stretch:normal;font-size:64px;line-height:1.25;font-family:Gadugi;-inkscape-font-specification:'Gadugi, Bold';font-variant-ligatures:normal;font-variant-caps:normal;font-variant-numeric:normal;font-variant-east-asian:normal;letter-spacing:0px;word-spacing:0px;fill:#000000;fill-opacity:1;stroke:none"
   x="233.48012"
   y="354.47784"
   id="text10"><tspan
     sodipodi:role="line"
     id="tspan10"
     x="233.48012"
     y="354.47784">3</tspan></text><text
   xml:space="preserve"
   style="font-style:normal;font-variant:normal;font-weight:bold;font-stretch:normal;font-size:64px;line-height:1.25;font-family:Gadugi;-inkscape-font-specification:'Gadugi, Bold';font-variant-ligatures:normal;font-variant-caps:normal;font-variant-numeric:normal;font-variant-east-asian:normal;letter-spacing:0px;word-spacing:0px;fill:#000000;fill-opacity:1;stroke:none"
   x="407.07324"
   y="351.48462"
   id="text11"><tspan
     sodipodi:role="line"
     id="tspan11"
     x="407.07324"
     y="351.48462">4</tspan></text><text
   xml:space="preserve"
   style="font-style:normal;font-variant:normal;font-weight:bold;font-stretch:normal;font-size:64px;line-height:1.25;font-family:Gadugi;-inkscape-font-specification:'Gadugi, Bold';font-variant-ligatures:normal;font-variant-caps:normal;font-variant-numeric:normal;font-variant-east-asian:normal;letter-spacing:0px;word-spacing:0px;fill:#000000;fill-opacity:1;stroke:none"
   x="233.48012"
   y="480.47784"
   id="text12"><tspan
     sodipodi:role="line"
     id="tspan12"
     x="233.48012"
     y="480.47784">5</tspan></text><text
   xml:space="preserve"
   style="font-style:normal;font-variant:normal;font-weight:bold;font-stretch:normal;font-size:64px;line-height:1.25;font-family:Gadugi;-inkscape-font-specification:'Gadugi, Bold';font-variant-ligatures:normal;font-variant-caps:normal;font-variant-numeric:normal;font-variant-east-asian:normal;letter-spacing:0px;word-spacing:0px;fill:#000000;fill-opacity:1;stroke:none"
   x="407.07324"
   y="477.48462"
   id="text13"><tspan
     sodipodi:role="line"
     id="tspan13"
     x="407.07324"
     y="477.48462">6</tspan></text><text
   xml:space="preserve"
   style="font-style:normal;font-weight:normal;font-size:40px;line-height:1.25;font-family:sans-serif;letter-spacing:0px;word-spacing:0px;fill:#000000;fill-opacity:1;stroke:none"
   x="417.05515"
   y="458.96024"
   id="text14"><tspan
     sodipodi:role="line"
     id="tspan14"
     x="417.05515"
     y="458.96024" /></text></svg>
