<?xml version="1.0" encoding="UTF-8" standalone="no"?>
<svg
   version="1.1"
   id="Layer_1"
   x="0px"
   y="0px"
   viewBox="0 0 667 666"
   style="enable-background:new 0 0 667 666;"
   xml:space="preserve"
   sodipodi:docname="icon.svg"
   inkscape:version="1.3.2 (091e20e, 2023-11-25, custom)"
   xmlns:inkscape="http://www.inkscape.org/namespaces/inkscape"
   xmlns:sodipodi="http://sodipodi.sourceforge.net/DTD/sodipodi-0.dtd"
   xmlns="http://www.w3.org/2000/svg"
   xmlns:svg="http://www.w3.org/2000/svg"
   xmlns:rdf="http://www.w3.org/1999/02/22-rdf-syntax-ns#"
   xmlns:cc="http://creativecommons.org/ns#"
   xmlns:dc="http://purl.org/dc/elements/1.1/"><metadata
   id="metadata319"><rdf:RDF><cc:Work
       rdf:about=""><dc:format>image/svg+xml</dc:format><dc:type
         rdf:resource="http://purl.org/dc/dcmitype/StillImage" /><dc:title /></cc:Work></rdf:RDF></metadata><defs
   id="defs317"><marker
     inkscape:stockid="Arrow1Send"
     orient="auto"
     refY="0"
     refX="0"
     id="Arrow1Send"
     style="overflow:visible"
     inkscape:isstock="true"><path
       inkscape:connector-curvature="0"
       id="path4714"
       d="M 0,0 5,-5 -12.5,0 5,5 Z"
       style="fill:#000000;fill-opacity:1;fill-rule:evenodd;stroke:#000000;stroke-width:1.00000003pt;stroke-opacity:1"
       transform="matrix(-0.2,0,0,-0.2,-1.2,0)" /></marker><clipPath
     id="clipPath69-0"><path
       inkscape:connector-curvature="0"
       id="path71-2"
       d="m 409.441,126.252 v -43.63 h 147.796 v 43.63" /></clipPath><clipPath
     id="clipPath101-1"><path
       inkscape:connector-curvature="0"
       id="path103-6"
       d="m 409.441,126.252 v -43.63 h 147.796 v 43.63" /></clipPath><clipPath
     id="clipPath69"><path
       inkscape:connector-curvature="0"
       id="path71"
       d="m 409.441,126.252 v -43.63 h 147.796 v 43.63" /></clipPath><clipPath
     id="clipPath101"><path
       inkscape:connector-curvature="0"
       id="path103"
       d="m 409.441,126.252 v -43.63 h 147.796 v 43.63" /></clipPath></defs><sodipodi:namedview
   pagecolor="#ffffff"
   bordercolor="#666666"
   borderopacity="1"
   objecttolerance="10"
   gridtolerance="10"
   guidetolerance="10"
   inkscape:pageopacity="0"
   inkscape:pageshadow="2"
   inkscape:window-width="1680"
   inkscape:window-height="987"
   id="namedview315"
   showgrid="false"
   inkscape:zoom="0.70870873"
   inkscape:cx="469.86863"
   inkscape:cy="284.31991"
   inkscape:window-x="1672"
   inkscape:window-y="-8"
   inkscape:window-maximized="1"
   inkscape:current-layer="Layer_1"
   inkscape:document-rotation="0"
   inkscape:showpageshadow="2"
   inkscape:pagecheckerboard="0"
   inkscape:deskcolor="#d1d1d1" />
<style
   type="text/css"
   id="style2">
	.st0{fill:none;stroke:#000000;stroke-width:2;stroke-linecap:round;stroke-linejoin:round;stroke-miterlimit:10;}
</style>


<path
   style="fill:none;stroke:#000000;stroke-width:3;stroke-linecap:butt;stroke-linejoin:miter;stroke-dasharray:none;stroke-opacity:1"
   d="m 266.88066,91.349397 21.20197,-3.242654 -1.24718,188.822227 -21.20197,8.73023 z"
   id="path1"
   sodipodi:nodetypes="ccccc" /><path
   style="fill:none;stroke:#000000;stroke-width:3;stroke-linecap:butt;stroke-linejoin:miter;stroke-dasharray:none;stroke-opacity:1"
   d="m 102.25363,96.338095 2.99321,203.538885 34.92089,1.99548 -0.99774,-205.534365 z"
   id="path2" /><path
   style="fill:none;stroke:#000000;stroke-width:3;stroke-linecap:butt;stroke-linejoin:miter;stroke-dasharray:none;stroke-opacity:1"
   d="m 138.92056,96.08866 60.61268,-4.988698 67.34742,0.249435"
   id="path3"
   sodipodi:nodetypes="ccc" /><path
   style="fill:none;stroke:#000000;stroke-width:3;stroke-linecap:butt;stroke-linejoin:miter;stroke-dasharray:none;stroke-opacity:1"
   d="m 288.33206,87.857309 -166.62251,0.498869 -24.195188,2.743784 v 22.948008 l 4.739268,-0.7483"
   id="path4" /><path
   style="fill:none;stroke:#000000;stroke-width:3;stroke-linecap:butt;stroke-linejoin:miter;stroke-dasharray:none;stroke-opacity:1"
   d="m 102.50306,96.08866 50.88472,-4.988698 H 97.514362"
   id="path5"
   sodipodi:nodetypes="ccc" /><path
   style="fill:none;stroke:#000000;stroke-width:3;stroke-linecap:butt;stroke-linejoin:miter;stroke-dasharray:none;stroke-opacity:1"
   d="m 265.63349,286.15806 -59.11608,-3.24265 46.89377,-19.20649 1.24717,-150.90812 -47.1432,6.23588 -58.36776,-0.99774 51.13415,-7.48306 53.87794,2.49435"
   id="path6" /><path
   style="fill:none;stroke:#000000;stroke-width:3;stroke-linecap:butt;stroke-linejoin:miter;stroke-dasharray:none;stroke-opacity:1"
   d="m 199.2838,91.099962 0.24944,19.455918"
   id="path7" /><path
   style="fill:none;stroke:#000000;stroke-width:3;stroke-linecap:butt;stroke-linejoin:miter;stroke-dasharray:none;stroke-opacity:1"
   d="m 207.26572,119.03668 -0.49887,164.3776 -57.61946,-6.23587 0.24943,-159.13947"
   id="path8" /><path
   style="fill:none;stroke:#000000;stroke-width:3;stroke-linecap:butt;stroke-linejoin:miter;stroke-dasharray:none;stroke-opacity:1"
   d="M 195.04341,281.91767 140.41717,302.1219"
   id="path9" /><path
   style="fill:none;stroke:#000000;stroke-width:3;stroke-linecap:butt;stroke-linejoin:miter;stroke-dasharray:none;stroke-opacity:1"
   d="m 97.264927,114.04797 -39.909585,4.73927 h 44.648848"
   id="path10" /><path
   style="fill:none;stroke:#000000;stroke-width:3;stroke-linecap:butt;stroke-linejoin:miter;stroke-dasharray:none;stroke-opacity:1"
   d="m 57.105908,118.53781 3.741523,152.15529 43.152239,2.74378"
   id="path11" /><path
   style="fill:none;stroke:#000000;stroke-width:3;stroke-linecap:butt;stroke-linejoin:miter;stroke-dasharray:none;stroke-opacity:1"
   d="m 420.48304,128.7553 v 13.75741 c 0,0 58.01921,5.74826 87.13029,5.99682 101.83023,0.86948 116.76165,-9.17161 116.76165,-9.17161 v -13.0519 c 0,0 -17.8116,5.93827 -119.93644,5.29131 -42.10429,-0.26673 -83.9555,-2.82203 -83.9555,-2.82203 z"
   id="path12"
   sodipodi:nodetypes="ccsccsc" /><path
   style="fill:none;stroke:#000000;stroke-width:3;stroke-linecap:butt;stroke-linejoin:miter;stroke-dasharray:none;stroke-opacity:1"
   d="m 420.48304,128.7553 c 0,0 44.8022,-8.07995 104.41525,-8.4661 103.41491,-0.66989 99.47669,5.99682 99.47669,5.99682"
   id="path13"
   sodipodi:nodetypes="csc" /><path
   style="fill:none;stroke:#000000;stroke-width:3;stroke-linecap:butt;stroke-linejoin:miter;stroke-dasharray:none;stroke-opacity:1"
   d="m 622.82427,140.23864 -0.49887,66.34969"
   id="path15" /><path
   style="fill:none;stroke:#000000;stroke-width:3;stroke-linecap:butt;stroke-linejoin:miter;stroke-dasharray:none;stroke-opacity:1"
   d="m 604.61552,203.09624 c 0,0 7.60808,-0.54657 11.47401,0.49887 5.34212,1.44463 8.48079,4.73927 8.48079,4.73927 0,0 -23.06228,26.16668 -106.50871,22.948 -32.63224,-1.25869 -87.43637,-4.80326 -96.78074,-15.21553 -3.02257,-3.368 26.4401,-11.97287 26.4401,-11.97287"
   id="path16"
   sodipodi:nodetypes="cscssc" /><path
   style="fill:none;stroke:#000000;stroke-width:3;stroke-linecap:butt;stroke-linejoin:miter;stroke-dasharray:none;stroke-opacity:1"
   d="m 420.782,215.81742 0.24943,10.97513 c 0,0 25.01755,14.24962 101.52001,15.7144 28.29857,0.54183 63.91474,-4.14359 81.56521,-10.22683 7.88002,-2.71585 20.7031,-14.21779 20.7031,-14.21779 v -9.72796"
   id="path17"
   sodipodi:nodetypes="ccsscc" /><path
   style="fill:none;stroke:#000000;stroke-width:3;stroke-linecap:butt;stroke-linejoin:miter;stroke-dasharray:none;stroke-opacity:1"
   d="m 445.97492,145.22734 1.74605,68.34516 c 0,0 20.75856,11.68259 83.81013,10.22684 47.49795,-1.09664 72.83499,-10.97514 72.83499,-10.97514 l 1.24717,-69.09347"
   id="path18"
   sodipodi:nodetypes="ccscc" /><path
   style="fill:none;stroke:#000000;stroke-width:3;stroke-linecap:butt;stroke-linejoin:miter;stroke-dasharray:none;stroke-opacity:1"
   d="m 604.86496,231.53182 -1.49661,65.60138 c 0,0 -15.75122,20.70609 -87.30222,17.95931 -64.2504,-2.46651 -66.84855,-18.20875 -66.84855,-18.20875 l -0.49887,-61.36098"
   id="path19"
   sodipodi:nodetypes="ccscc" /><path
   style="fill:none;stroke:#000000;stroke-width:3;stroke-linecap:butt;stroke-linejoin:miter;stroke-dasharray:none;stroke-opacity:1"
   d="m 449.46701,282.41654 c 0,0 -25.91768,8.52607 -26.4401,19.45592 -0.33301,6.96704 22.96043,16.1565 66.10025,19.9548 29.83258,2.62665 50.82289,6.39618 92.29091,-0.74831 25.06008,-4.31758 41.90507,-33.67371 41.90507,-33.67371 0,0 -1.94968,-4.28098 -6.73474,-7.48305 -3.56722,-2.38711 -12.72118,-2.99322 -12.72118,-2.99322"
   id="path20"
   sodipodi:nodetypes="cssscsc" /><path
   style="fill:none;stroke:#000000;stroke-width:3;stroke-linecap:butt;stroke-linejoin:miter;stroke-dasharray:none;stroke-opacity:1"
   d="m 622.3254,220.55668 v 54.12738 l -5.48757,4.73926"
   id="path21" /><path
   style="fill:none;stroke:#000000;stroke-width:3;stroke-linecap:butt;stroke-linejoin:miter;stroke-dasharray:none;stroke-opacity:1"
   d="m 423.02691,302.62077 0.24944,11.97287 c 0,0 10.91846,15.56968 99.2751,21.95027 24.37069,1.75991 50.87722,1.12602 72.83498,-9.72796 11.70048,-5.78369 27.68728,-27.68727 27.68728,-27.68727 l 0.49887,-11.47401"
   id="path22"
   sodipodi:nodetypes="ccsacc" /><path
   style="fill:none;stroke:#000000;stroke-width:3;stroke-linecap:butt;stroke-linejoin:miter;stroke-dasharray:none;stroke-opacity:1"
   d="m 388.02965,377.09427 -144.98199,-1.41102 c 0,0 -41.23251,4.85787 -56.79343,8.11335 -10.37373,2.17028 11.09788,4.41054 70.9036,4.58581 72.71299,0.21309 130.87182,-11.28814 130.87182,-11.28814 z"
   id="path23"
   sodipodi:nodetypes="ccssc" /><path
   style="fill:none;stroke:#000000;stroke-width:3;stroke-linecap:butt;stroke-linejoin:miter;stroke-dasharray:none;stroke-opacity:1"
   d="m 183.4322,384.85486 v 13.75742 c 0,0 15.73022,3.89067 89.24682,3.88029 48.22658,-0.007 92.77436,-2.82203 92.77436,-2.82203 l -0.70551,158.7394 c 0,0 -33.64103,28.64749 -114.64513,21.87077 -86.93744,-7.2731 -50.7966,-29.98411 -50.7966,-29.98411"
   id="path24"
   sodipodi:nodetypes="ccsccsc" /><path
   style="fill:none;stroke:#000000;stroke-width:3;stroke-linecap:butt;stroke-linejoin:miter;stroke-dasharray:none;stroke-opacity:1"
   d="m 210.24152,401.78707 0.0174,1.73012"
   id="path25" /><path
   style="fill:none;stroke:#000000;stroke-width:3;stroke-linecap:butt;stroke-linejoin:miter;stroke-dasharray:none;stroke-opacity:1"
   d="m 227.40759,402.08294 c 0,0 -11.97048,-0.87343 -29.24624,3.99095 -14.46658,4.07339 48.6617,5.12552 72.95971,3.55445 51.28336,-3.31591 83.06182,-8.97966 83.06182,-8.97966"
   id="path26"
   sodipodi:nodetypes="cssc" /><path
   style="fill:none;stroke:#000000;stroke-width:3;stroke-linecap:butt;stroke-linejoin:miter;stroke-dasharray:none;stroke-opacity:1"
   d="m 353.68401,399.90038 -1.24718,153.6519 c 0,0 -24.15407,17.28919 -90.046,15.96384 -70.3148,-1.41431 -62.85759,-19.70536 -62.85759,-19.70536"
   id="path27"
   sodipodi:nodetypes="ccsc" /><path
   style="fill:none;stroke:#000000;stroke-width:3;stroke-linecap:butt;stroke-linejoin:miter;stroke-dasharray:none;stroke-opacity:1"
   d="m 191.30189,559.78815 0.24943,16.71214 c 0,0 4.09996,14.86775 90.54487,14.9661 41.86765,0.0476 77.4659,-14.67445 94.40089,-22.44919 8.66203,-3.97668 9.8629,-3.74148 9.8629,-3.74148 l 1.99548,-188.07392"
   id="path28"
   sodipodi:nodetypes="ccsscc" /><path
   style="fill:none;stroke:#000000;stroke-width:3;stroke-linecap:butt;stroke-linejoin:miter;stroke-dasharray:none;stroke-opacity:1"
   d="m 196.07233,407.22753 3.42973,142.83266"
   id="path29"
   sodipodi:nodetypes="cc" /></svg>
