<?xml version="1.0" encoding="UTF-8" standalone="no"?>
<svg
   xmlns:dc="http://purl.org/dc/elements/1.1/"
   xmlns:cc="http://creativecommons.org/ns#"
   xmlns:rdf="http://www.w3.org/1999/02/22-rdf-syntax-ns#"
   xmlns:svg="http://www.w3.org/2000/svg"
   xmlns="http://www.w3.org/2000/svg"
   xmlns:sodipodi="http://sodipodi.sourceforge.net/DTD/sodipodi-0.dtd"
   xmlns:inkscape="http://www.inkscape.org/namespaces/inkscape"
   inkscape:version="1.0 (4035a4fb49, 2020-05-01)"
   sodipodi:docname="icon.svg"
   xml:space="preserve"
   style="enable-background:new 0 0 667 666;"
   viewBox="0 0 667 666"
   y="0px"
   x="0px"
   id="Layer_1"
   version="1.1"><metadata
   id="metadata319"><rdf:RDF><cc:Work
       rdf:about=""><dc:format>image/svg+xml</dc:format><dc:type
         rdf:resource="http://purl.org/dc/dcmitype/StillImage" /></cc:Work></rdf:RDF></metadata><defs
   id="defs317"><marker
     inkscape:isstock="true"
     style="overflow:visible"
     id="Arrow1Send"
     refX="0"
     refY="0"
     orient="auto"
     inkscape:stockid="Arrow1Send"><path
       transform="matrix(-0.2,0,0,-0.2,-1.2,0)"
       style="fill:#000000;fill-opacity:1;fill-rule:evenodd;stroke:#000000;stroke-width:1.00000003pt;stroke-opacity:1"
       d="M 0,0 5,-5 -12.5,0 5,5 Z"
       id="path4714"
       inkscape:connector-curvature="0" /></marker><clipPath
     id="clipPath69-0"><path
       d="m 409.441,126.252 v -43.63 h 147.796 v 43.63"
       id="path71-2"
       inkscape:connector-curvature="0" /></clipPath><clipPath
     id="clipPath101-1"><path
       d="m 409.441,126.252 v -43.63 h 147.796 v 43.63"
       id="path103-6"
       inkscape:connector-curvature="0" /></clipPath><clipPath
     id="clipPath69"><path
       d="m 409.441,126.252 v -43.63 h 147.796 v 43.63"
       id="path71"
       inkscape:connector-curvature="0" /></clipPath><clipPath
     id="clipPath101"><path
       d="m 409.441,126.252 v -43.63 h 147.796 v 43.63"
       id="path103"
       inkscape:connector-curvature="0" /></clipPath></defs><sodipodi:namedview
   inkscape:document-rotation="0"
   inkscape:current-layer="Layer_1"
   inkscape:window-maximized="1"
   inkscape:window-y="-8"
   inkscape:window-x="-8"
   inkscape:cy="320.27635"
   inkscape:cx="392.17183"
   inkscape:zoom="1.0022655"
   showgrid="false"
   id="namedview315"
   inkscape:window-height="987"
   inkscape:window-width="1680"
   inkscape:pageshadow="2"
   inkscape:pageopacity="0"
   guidetolerance="10"
   gridtolerance="10"
   objecttolerance="10"
   borderopacity="1"
   bordercolor="#666666"
   pagecolor="#ffffff" />
<style
   id="style2"
   type="text/css">
	.st0{fill:none;stroke:#000000;stroke-width:2;stroke-linecap:round;stroke-linejoin:round;stroke-miterlimit:10;}
</style>


<path
   sodipodi:arc-type="arc"
   sodipodi:open="true"
   d="m 275.81179,441.36761 a 8.337533,8.337533 0 0 1 8.31217,8.36248 8.337533,8.337533 0 0 1 -8.36213,8.31252 8.337533,8.337533 0 0 1 -8.31286,-8.3618 8.337533,8.337533 0 0 1 8.36146,-8.3132"
   sodipodi:end="4.7152625"
   sodipodi:start="4.7154259"
   sodipodi:ry="8.337533"
   sodipodi:rx="8.337533"
   sodipodi:cy="449.70511"
   sodipodi:cx="275.78647"
   sodipodi:type="arc"
   id="path884"
   style="fill:#000000;fill-opacity:1;fill-rule:evenodd;stroke:#000000;stroke-width:0.328272;stroke-miterlimit:4;stroke-dasharray:none;stroke-opacity:1" /><path
   sodipodi:nodetypes="sssssss"
   id="path857"
   d="m 416.03863,198.52171 c 0,110.91967 0,143.22866 0,259.85095 0,0 -10.2388,103.35474 -134.43054,103.35474 -142.05288,0 -151.23436,-110.33892 -151.23436,-110.33892 0,-95.80529 0,-149.82652 0,-248.31699 0,0 7.73019,-109.220127 138.57972,-109.220127 139.0368,0 147.08518,104.670347 147.08518,104.670347 z"
   style="fill:none;stroke:#000000;stroke-width:9.84951;stroke-linecap:butt;stroke-linejoin:miter;stroke-miterlimit:4;stroke-dasharray:none;stroke-opacity:1" /><path
   id="path873"
   d="M 365.1727,340.22921 384.12975,324.26538 365.1727,307.3038"
   style="fill:none;stroke:#000000;stroke-width:6;stroke-linecap:butt;stroke-linejoin:miter;stroke-opacity:1;stroke-miterlimit:4;stroke-dasharray:none" /><path
   style="fill:none;stroke:#000000;stroke-width:9;stroke-linecap:butt;stroke-linejoin:miter;stroke-miterlimit:4;stroke-dasharray:none;stroke-opacity:1"
   d="m 558.19948,238.50729 c 0,73.41447 0,109.03926 0,170.81378 0,28.85452 -4.08552,67.94057 -53.64075,67.94057 -56.68223,0 -60.34585,-41.08068 -60.34585,-72.53163 0,-71.16818 0,-92.75319 0,-163.23191 0,-30.20739 3.08452,-71.79618 55.29637,-71.79618 55.47874,0 58.69023,38.65994 58.69023,68.80537 z"
   id="path875"
   sodipodi:nodetypes="sssssss" /><path
   style="fill:none;stroke:#000000;stroke-width:6;stroke-linecap:butt;stroke-linejoin:miter;stroke-miterlimit:4;stroke-dasharray:none;stroke-opacity:1"
   d="M 472.53844,340.30383 455.157,324.26755 472.53844,307.229"
   id="path877" /></svg>
