<?xml version="1.0" encoding="UTF-8" standalone="no"?>
<svg
   xmlns:dc="http://purl.org/dc/elements/1.1/"
   xmlns:cc="http://creativecommons.org/ns#"
   xmlns:rdf="http://www.w3.org/1999/02/22-rdf-syntax-ns#"
   xmlns:svg="http://www.w3.org/2000/svg"
   xmlns="http://www.w3.org/2000/svg"
   xmlns:sodipodi="http://sodipodi.sourceforge.net/DTD/sodipodi-0.dtd"
   xmlns:inkscape="http://www.inkscape.org/namespaces/inkscape"
   version="1.1"
   id="Layer_1"
   x="0px"
   y="0px"
   viewBox="0 0 667 666"
   style="enable-background:new 0 0 667 666;"
   xml:space="preserve"
   sodipodi:docname="icon.svg"
   inkscape:version="1.0.2 (e86c870879, 2021-01-15, custom)"><metadata
   id="metadata319"><rdf:RDF><cc:Work
       rdf:about=""><dc:format>image/svg+xml</dc:format><dc:type
         rdf:resource="http://purl.org/dc/dcmitype/StillImage" /></cc:Work></rdf:RDF></metadata><defs
   id="defs317"><marker
     inkscape:stockid="Arrow1Send"
     orient="auto"
     refY="0"
     refX="0"
     id="Arrow1Send"
     style="overflow:visible"
     inkscape:isstock="true"><path
       inkscape:connector-curvature="0"
       id="path4714"
       d="M 0,0 5,-5 -12.5,0 5,5 Z"
       style="fill:#000000;fill-opacity:1;fill-rule:evenodd;stroke:#000000;stroke-width:1.00000003pt;stroke-opacity:1"
       transform="matrix(-0.2,0,0,-0.2,-1.2,0)" /></marker><clipPath
     id="clipPath69-0"><path
       inkscape:connector-curvature="0"
       id="path71-2"
       d="m 409.441,126.252 v -43.63 h 147.796 v 43.63" /></clipPath><clipPath
     id="clipPath101-1"><path
       inkscape:connector-curvature="0"
       id="path103-6"
       d="m 409.441,126.252 v -43.63 h 147.796 v 43.63" /></clipPath><clipPath
     id="clipPath69"><path
       inkscape:connector-curvature="0"
       id="path71"
       d="m 409.441,126.252 v -43.63 h 147.796 v 43.63" /></clipPath><clipPath
     id="clipPath101"><path
       inkscape:connector-curvature="0"
       id="path103"
       d="m 409.441,126.252 v -43.63 h 147.796 v 43.63" /></clipPath><marker
     inkscape:isstock="true"
     style="overflow:visible"
     id="Arrow1Send-4"
     refX="0"
     refY="0"
     orient="auto"
     inkscape:stockid="Arrow1Send"><path
       transform="matrix(-0.2,0,0,-0.2,-1.2,0)"
       style="fill:#000000;fill-opacity:1;fill-rule:evenodd;stroke:#000000;stroke-width:1.00000003pt;stroke-opacity:1"
       d="M 0,0 5,-5 -12.5,0 5,5 Z"
       id="path4714-7"
       inkscape:connector-curvature="0" /></marker><clipPath
     id="clipPath69-0-2"><path
       d="m 409.441,126.252 v -43.63 h 147.796 v 43.63"
       id="path71-2-4"
       inkscape:connector-curvature="0" /></clipPath><clipPath
     id="clipPath101-1-9"><path
       d="m 409.441,126.252 v -43.63 h 147.796 v 43.63"
       id="path103-6-8"
       inkscape:connector-curvature="0" /></clipPath><clipPath
     id="clipPath69-9"><path
       d="m 409.441,126.252 v -43.63 h 147.796 v 43.63"
       id="path71-3"
       inkscape:connector-curvature="0" /></clipPath><clipPath
     id="clipPath101-6"><path
       d="m 409.441,126.252 v -43.63 h 147.796 v 43.63"
       id="path103-3"
       inkscape:connector-curvature="0" /></clipPath><marker
     inkscape:stockid="Arrow1Send"
     orient="auto"
     refY="0"
     refX="0"
     id="Arrow1Send-5"
     style="overflow:visible"
     inkscape:isstock="true"><path
       inkscape:connector-curvature="0"
       id="path4714-0"
       d="M 0,0 5,-5 -12.5,0 5,5 Z"
       style="fill:#000000;fill-opacity:1;fill-rule:evenodd;stroke:#000000;stroke-width:1.00000003pt;stroke-opacity:1"
       transform="matrix(-0.2,0,0,-0.2,-1.2,0)" /></marker><clipPath
     id="clipPath69-0-7"><path
       inkscape:connector-curvature="0"
       id="path71-2-8"
       d="m 409.441,126.252 v -43.63 h 147.796 v 43.63" /></clipPath><clipPath
     id="clipPath101-1-0"><path
       inkscape:connector-curvature="0"
       id="path103-6-9"
       d="m 409.441,126.252 v -43.63 h 147.796 v 43.63" /></clipPath><clipPath
     id="clipPath69-2"><path
       inkscape:connector-curvature="0"
       id="path71-4"
       d="m 409.441,126.252 v -43.63 h 147.796 v 43.63" /></clipPath><clipPath
     id="clipPath101-0"><path
       inkscape:connector-curvature="0"
       id="path103-0"
       d="m 409.441,126.252 v -43.63 h 147.796 v 43.63" /></clipPath><marker
     inkscape:isstock="true"
     style="overflow:visible"
     id="Arrow1Send-4-9"
     refX="0"
     refY="0"
     orient="auto"
     inkscape:stockid="Arrow1Send"><path
       transform="matrix(-0.2,0,0,-0.2,-1.2,0)"
       style="fill:#000000;fill-opacity:1;fill-rule:evenodd;stroke:#000000;stroke-width:1.00000003pt;stroke-opacity:1"
       d="M 0,0 5,-5 -12.5,0 5,5 Z"
       id="path4714-7-2"
       inkscape:connector-curvature="0" /></marker><clipPath
     id="clipPath69-0-2-4"><path
       d="m 409.441,126.252 v -43.63 h 147.796 v 43.63"
       id="path71-2-4-2"
       inkscape:connector-curvature="0" /></clipPath><clipPath
     id="clipPath101-1-9-1"><path
       d="m 409.441,126.252 v -43.63 h 147.796 v 43.63"
       id="path103-6-8-6"
       inkscape:connector-curvature="0" /></clipPath><clipPath
     id="clipPath69-9-0"><path
       d="m 409.441,126.252 v -43.63 h 147.796 v 43.63"
       id="path71-3-8"
       inkscape:connector-curvature="0" /></clipPath><clipPath
     id="clipPath101-6-4"><path
       d="m 409.441,126.252 v -43.63 h 147.796 v 43.63"
       id="path103-3-8"
       inkscape:connector-curvature="0" /></clipPath></defs><sodipodi:namedview
   pagecolor="#ffffff"
   bordercolor="#666666"
   borderopacity="1"
   objecttolerance="10"
   gridtolerance="10"
   guidetolerance="10"
   inkscape:pageopacity="0"
   inkscape:pageshadow="2"
   inkscape:window-width="1680"
   inkscape:window-height="987"
   id="namedview315"
   showgrid="false"
   inkscape:zoom="0.50113276"
   inkscape:cx="2.5900781"
   inkscape:cy="401.54491"
   inkscape:window-x="-8"
   inkscape:window-y="-8"
   inkscape:window-maximized="1"
   inkscape:current-layer="Layer_1"
   inkscape:document-rotation="0" />
<style
   type="text/css"
   id="style2">
	.st0{fill:none;stroke:#000000;stroke-width:2;stroke-linecap:round;stroke-linejoin:round;stroke-miterlimit:10;}
</style>


<style
   id="style2-5"
   type="text/css">
	.st0{fill:none;stroke:#000000;stroke-width:2;stroke-linecap:round;stroke-linejoin:round;stroke-miterlimit:10;}
</style><path
   style="fill:none;stroke:#000000;stroke-width:6;stroke-linecap:butt;stroke-linejoin:miter;stroke-opacity:1;stroke-miterlimit:4;stroke-dasharray:none;fill-rule:evenodd"
   d="m 242.6949,87.483046 c 78.09531,-2.324681 139.00925,-6.559022 207.41948,3.527542 122.56473,18.071232 124.45231,92.138582 126.28601,142.512702 3.24538,89.15492 5.3059,122.75747 -1.41102,204.59745 C 566.07552,546.72849 476.53744,560.1028 433.88769,560.8792 349.53695,562.41473 320.99747,562.06658 242.6949,560.1737 126.15626,557.3565 96.224157,496.29045 93.832622,433.18218 89.782169,326.2981 89.655023,300.45846 94.53813,215.18007 101.05657,101.34233 194.72962,88.910839 242.6949,87.483046 Z"
   id="path949"
   sodipodi:nodetypes="sssssssss" /><path
   style="fill:none;stroke:#000000;stroke-width:6;stroke-linecap:butt;stroke-linejoin:miter;stroke-opacity:1;stroke-miterlimit:4;stroke-dasharray:none;fill-rule:evenodd"
   d="m 257.7243,116.03831 c 71.69773,-1.66008 114.19504,-1.70369 182.66042,2.43697 105.79285,6.39815 105.92817,73.61435 109.67822,124.83906 5.80266,79.26299 2.89712,94.41412 -1.25699,182.26298 -4.84441,102.4469 -91.23216,107.96062 -125.69859,109.35778 -75.09355,3.04405 -100.54984,0.0629 -170.32162,-0.62849 -110.87201,-1.09864 -130.48156,-56.90956 -132.61203,-113.12874 -3.60829,-95.2163 -3.04934,-114.54921 0.6285,-194.20435 4.87076,-105.4917 83.60933,-109.7008 136.92209,-110.93521 z"
   id="path951"
   sodipodi:nodetypes="sssssssss" /></svg>
