<?xml version="1.0" encoding="UTF-8" standalone="no"?>
<svg
   inkscape:version="1.3.2 (091e20e, 2023-11-25, custom)"
   sodipodi:docname="icon.svg"
   xml:space="preserve"
   style="enable-background:new 0 0 667 666;"
   viewBox="0 0 667 666"
   y="0px"
   x="0px"
   id="Layer_1"
   version="1.1"
   xmlns:inkscape="http://www.inkscape.org/namespaces/inkscape"
   xmlns:sodipodi="http://sodipodi.sourceforge.net/DTD/sodipodi-0.dtd"
   xmlns="http://www.w3.org/2000/svg"
   xmlns:svg="http://www.w3.org/2000/svg"
   xmlns:rdf="http://www.w3.org/1999/02/22-rdf-syntax-ns#"
   xmlns:cc="http://creativecommons.org/ns#"
   xmlns:dc="http://purl.org/dc/elements/1.1/"><metadata
   id="metadata319"><rdf:RDF><cc:Work
       rdf:about=""><dc:format>image/svg+xml</dc:format><dc:type
         rdf:resource="http://purl.org/dc/dcmitype/StillImage" /></cc:Work></rdf:RDF></metadata><defs
   id="defs317"><marker
     inkscape:isstock="true"
     style="overflow:visible"
     id="Arrow1Send"
     refX="0"
     refY="0"
     orient="auto"
     inkscape:stockid="Arrow1Send"><path
       transform="matrix(-0.2,0,0,-0.2,-1.2,0)"
       style="fill:#000000;fill-opacity:1;fill-rule:evenodd;stroke:#000000;stroke-width:1.00000003pt;stroke-opacity:1"
       d="M 0,0 5,-5 -12.5,0 5,5 Z"
       id="path4714"
       inkscape:connector-curvature="0" /></marker><clipPath
     id="clipPath69-0"><path
       d="m 409.441,126.252 v -43.63 h 147.796 v 43.63"
       id="path71-2"
       inkscape:connector-curvature="0" /></clipPath><clipPath
     id="clipPath101-1"><path
       d="m 409.441,126.252 v -43.63 h 147.796 v 43.63"
       id="path103-6"
       inkscape:connector-curvature="0" /></clipPath><clipPath
     id="clipPath69"><path
       d="m 409.441,126.252 v -43.63 h 147.796 v 43.63"
       id="path71"
       inkscape:connector-curvature="0" /></clipPath><clipPath
     id="clipPath101"><path
       d="m 409.441,126.252 v -43.63 h 147.796 v 43.63"
       id="path103"
       inkscape:connector-curvature="0" /></clipPath></defs><sodipodi:namedview
   inkscape:document-rotation="0"
   inkscape:current-layer="Layer_1"
   inkscape:window-maximized="1"
   inkscape:window-y="-8"
   inkscape:window-x="1672"
   inkscape:cy="41.012193"
   inkscape:cx="-339.41125"
   inkscape:zoom="0.35355339"
   showgrid="false"
   id="namedview315"
   inkscape:window-height="987"
   inkscape:window-width="1680"
   inkscape:pageshadow="2"
   inkscape:pageopacity="0"
   guidetolerance="10"
   gridtolerance="10"
   objecttolerance="10"
   borderopacity="1"
   bordercolor="#666666"
   pagecolor="#ffffff"
   inkscape:showpageshadow="2"
   inkscape:pagecheckerboard="0"
   inkscape:deskcolor="#d1d1d1" />
<style
   id="style2"
   type="text/css">
	.st0{fill:none;stroke:#000000;stroke-width:2;stroke-linecap:round;stroke-linejoin:round;stroke-miterlimit:10;}
</style>


<path
   style="fill:none;stroke:#000000;stroke-width:8;stroke-linecap:butt;stroke-linejoin:miter;stroke-dasharray:none;stroke-opacity:1"
   d="m 167.82832,501.15392 c -14.9188,-6.17901 -26.74868,-11.17039 -33.78171,-14.35309 -13.31126,-6.02382 -23.80092,-22.07681 -23.98729,-36.68644 -0.87558,-68.63801 -7.92163,-179.89273 -8.4661,-246.92796 -0.13365,-16.4546 11.33308,-33.78994 25.3983,-42.3305 63.79026,-38.73418 117.37705,-72.665961 180.61017,-110.059321 9.72478,-5.750817 23.27899,-5.359731 33.8644,-1.411017 89.94783,33.553582 150.29874,55.915258 232.81779,83.249998 14.74062,4.88288 27.1845,22.57368 26.80932,38.09746 -2.65429,109.82587 -3.4251,171.75245 -7.05508,251.16101 -0.49025,10.72449 -6.77924,21.9887 -15.52119,28.22033 -48.72712,34.73477 -100.17287,74.54361 -167.91101,126.99152 -9.40825,7.28457 -23.02412,16.19408 -33.86441,11.28814 C 334.64684,569.34346 259.74474,538.51839 203.59805,515.5326"
   id="path1"
   sodipodi:nodetypes="cssssssssssssc" /><path
   style="fill:none;stroke:#000000;stroke-width:8;stroke-linecap:butt;stroke-linejoin:miter;stroke-opacity:1;stroke-dasharray:none"
   d="M 125.5805,162.26694 380.97456,262.44914 574.28388,134.04661"
   id="path2" /><path
   style="fill:none;stroke:#000000;stroke-width:8;stroke-linecap:butt;stroke-linejoin:miter;stroke-opacity:1;stroke-dasharray:none"
   d="m 101.59322,203.18643 c 0,0 175.4913,73.58856 259.62711,103.00424 15.76618,5.51219 35.62283,0.99663 49.38559,-8.4661 88.59338,-60.91329 187.66525,-128.40254 187.66525,-128.40254"
   id="path3"
   sodipodi:nodetypes="cssc" /><path
   style="fill:none;stroke:#000000;stroke-width:8;stroke-linecap:butt;stroke-linejoin:miter;stroke-opacity:1;stroke-dasharray:none"
   d="M 407.78389,577.10591 409.1949,296.31355"
   id="path4" /><path
   style="fill:none;stroke:#000000;stroke-width:8;stroke-linecap:butt;stroke-linejoin:miter;stroke-opacity:1;stroke-dasharray:none"
   d="m 358.39829,303.36863 4.23306,276.55932"
   id="path5" /><path
   style="fill:none;stroke:#000000;stroke-width:8;stroke-linecap:butt;stroke-linejoin:miter;stroke-opacity:1;stroke-dasharray:none"
   d="m 203.18643,272.32626 -1.41101,-28.22034 70.55084,25.39831 -1.41101,79.01695 -26.80933,-7.05509"
   id="path6"
   sodipodi:nodetypes="ccccc" /><path
   style="fill:none;stroke:#000000;stroke-width:8;stroke-linecap:butt;stroke-linejoin:miter;stroke-opacity:1;stroke-dasharray:none"
   d="m 342.87711,111.47034 c -27.12176,1.0336 -72.63204,10.96427 -71.96186,38.09745 0.79492,32.1835 55.31517,42.19919 87.48304,40.91949 27.5723,-1.09688 73.42801,-13.36435 71.96187,-40.91949 -1.68994,-31.76126 -55.69994,-39.30869 -87.48305,-38.09745 z"
   id="path7"
   sodipodi:nodetypes="aaaaa" /><path
   style="fill:none;stroke:#000000;stroke-width:5;stroke-linecap:butt;stroke-linejoin:miter;stroke-dasharray:none;stroke-opacity:1"
   d="m 345.30278,123.79574 c -18.6591,0.7111 -49.96905,7.54315 -49.50798,26.21011 0.54688,22.14145 38.05547,29.032 60.18617,28.1516 18.96905,-0.75462 50.51666,-9.19434 49.50799,-28.1516 -1.16264,-21.85096 -38.32018,-27.04341 -60.18618,-26.21011 z"
   id="path8"
   sodipodi:nodetypes="aaaaa" /><path
   style="fill:none;stroke:#000000;stroke-width:5;stroke-linecap:butt;stroke-linejoin:miter;stroke-opacity:1;stroke-dasharray:none"
   d="m 348.61838,140.64287 c -7.09183,0.27027 -18.9919,2.86695 -18.81666,9.96176 0.20785,8.41538 14.46387,11.03429 22.87516,10.69968 7.20963,-0.28682 19.20003,-3.49453 18.81666,-10.69968 -0.44189,-8.30496 -14.56448,-10.27848 -22.87516,-9.96176 z"
   id="path9"
   sodipodi:nodetypes="aaaaa" /><path
   style="fill:none;stroke:#000000;stroke-width:8;stroke-linecap:butt;stroke-linejoin:miter;stroke-opacity:1;stroke-dasharray:none"
   d="m 166.62252,476.91954 0.99774,31.4288 c 0,0 -19.49795,6.00599 -19.9548,22.44914 -0.37317,13.43142 19.06012,22.57423 32.42654,23.94575 13.84114,1.42023 31.0033,-5.38423 37.91411,-17.46044 2.49018,-4.35144 -1.49661,-14.9661 -1.49661,-14.9661"
   id="path10"
   sodipodi:nodetypes="ccsaac" /><path
   style="fill:none;stroke:#000000;stroke-width:8;stroke-linecap:butt;stroke-linejoin:miter;stroke-opacity:1;stroke-dasharray:none"
   d="m 217.00837,526.30765 c 0,0 -10.37416,23.44194 -40.40846,16.96158 -9.20236,-1.98555 -21.42527,-6.1664 -22.94801,-16.46271 -1.72111,-11.63767 13.96836,-18.45818 13.96836,-18.45818"
   id="path11"
   sodipodi:nodetypes="cssc" /><path
   style="fill:none;stroke:#000000;stroke-width:8;stroke-linecap:butt;stroke-linejoin:miter;stroke-opacity:1;stroke-dasharray:none"
   d="m 192.06488,485.8992 1.49661,42.9028"
   id="path12" /><path
   style="fill:none;stroke:#000000;stroke-width:8;stroke-linecap:butt;stroke-linejoin:miter;stroke-dasharray:none;stroke-opacity:1"
   d="m 194,526 c 0,0 10.43079,-17.04576 17.25,-24.25 C 217.03845,495.63472 231,486 231,486 v -28.25"
   id="path13"
   sodipodi:nodetypes="cacc" /><path
   style="fill:none;stroke:#000000;stroke-width:8;stroke-linecap:butt;stroke-linejoin:miter;stroke-opacity:1;stroke-dasharray:none"
   d="m 167.75,508.25 0.5,13.75"
   id="path14"
   sodipodi:nodetypes="cc" /><path
   style="fill:none;stroke:#000000;stroke-width:8;stroke-linecap:butt;stroke-linejoin:miter;stroke-opacity:1;stroke-dasharray:none"
   d="m 271.5,319.25 -29.75,20 -7.25,18.25 1.75,96.5 -12.5,8.25 L 224,451.5 204.25,464 v 13.25 l -12,8.5 -57.75,-20 L 128,453 123.5,335 135,320 230.75,260.25"
   id="path15"
   sodipodi:nodetypes="cccccccccccccc" /><path
   style="fill:none;stroke:#000000;stroke-width:8;stroke-linecap:butt;stroke-linejoin:miter;stroke-opacity:1;stroke-dasharray:none"
   d="m 135.5,319.75 48.5,19 87,-59.25"
   id="path16" /><path
   style="fill:none;stroke:#000000;stroke-width:8;stroke-linecap:butt;stroke-linejoin:miter;stroke-opacity:1;stroke-dasharray:none"
   d="m 184.5,338.5 5,21 2.5,125.25"
   id="path17"
   sodipodi:nodetypes="ccc" /><path
   style="fill:none;stroke:#000000;stroke-width:8;stroke-linecap:butt;stroke-linejoin:miter;stroke-opacity:1;stroke-dasharray:none"
   d="m 205,362.5 c -2.62633,3.46484 -2.82913,8.92746 -2.75,12.75 0.50658,24.47279 0.43991,19.0054 0.5,51 0.006,3.3302 0.25163,9.39394 5.25,11.5 4.55902,1.92094 7.92043,-3.2014 12.25,-5.25 4.58936,-2.17154 6.23261,-8.92815 6,-14 -1.22661,-26.74466 -1.05256,-23.41566 -1,-51.75 0.008,-4.41666 -2.73645,-10.09715 -7,-11.25 -4.82197,-1.30385 -10.23259,3.01922 -13.25,7 z"
   id="path18"
   sodipodi:nodetypes="assssssaa" /><path
   style="fill:none;stroke:#000000;stroke-width:8;stroke-linecap:butt;stroke-linejoin:miter;stroke-opacity:1;stroke-dasharray:none"
   d="m 222.38508,529.62298 c 14.14214,3.53553 35.00179,13.78858 35.00179,13.78858 l -56.56854,50.55814 -90.50967,-38.53732 37.83021,-31.1127"
   id="path19" /><path
   style="fill:none;stroke:#000000;stroke-width:8;stroke-linecap:butt;stroke-linejoin:miter;stroke-dasharray:none;stroke-opacity:1"
   d="m 257.03332,543.41156 v 28.99138 l -56.21499,54.44722 -94.04521,-40.65863 0.35355,-30.05205"
   id="path20"
   sodipodi:nodetypes="ccccc" /><path
   style="fill:none;stroke:#000000;stroke-width:8;stroke-linecap:butt;stroke-linejoin:miter;stroke-opacity:1;stroke-dasharray:none"
   d="m 200.81832,593.61614 -0.35355,32.52692"
   id="path21"
   sodipodi:nodetypes="cc" /><path
   style="fill:none;stroke:#000000;stroke-width:5;stroke-linecap:butt;stroke-linejoin:miter;stroke-dasharray:none;stroke-opacity:1"
   d="m 154.50284,545.53288 c 0,0 -0.33657,7.33969 1.06066,10.60661 1.28179,2.997 6.36395,7.42462 6.36395,7.42462"
   id="path22"
   sodipodi:nodetypes="cac" /><path
   style="fill:none;stroke:#000000;stroke-width:5;stroke-linecap:butt;stroke-linejoin:miter;stroke-dasharray:none;stroke-opacity:1"
   d="m 176.06959,569.92806 c 0.14228,0.14228 19.18319,2.97209 28.28427,-6.0104 7.46456,-7.36729 6.71751,-17.32412 6.71751,-17.32412"
   id="path23"
   sodipodi:nodetypes="csc" /><path
   style="fill:none;stroke:#000000;stroke-width:5;stroke-linecap:butt;stroke-linejoin:miter;stroke-opacity:1;stroke-dasharray:none"
   d="m 176.42314,556.84659 -12.02081,15.2028"
   id="path24" /></svg>
