<?xml version="1.0" encoding="UTF-8" standalone="no"?>
<svg
   xmlns:dc="http://purl.org/dc/elements/1.1/"
   xmlns:cc="http://creativecommons.org/ns#"
   xmlns:rdf="http://www.w3.org/1999/02/22-rdf-syntax-ns#"
   xmlns:svg="http://www.w3.org/2000/svg"
   xmlns="http://www.w3.org/2000/svg"
   xmlns:sodipodi="http://sodipodi.sourceforge.net/DTD/sodipodi-0.dtd"
   xmlns:inkscape="http://www.inkscape.org/namespaces/inkscape"
   version="1.1"
   id="Layer_1"
   x="0px"
   y="0px"
   viewBox="0 0 667 666"
   style="enable-background:new 0 0 667 666;"
   xml:space="preserve"
   sodipodi:docname="icon.svg"
   inkscape:version="1.0.2 (e86c870879, 2021-01-15, custom)"><sodipodi:namedview
   pagecolor="#ffffff"
   bordercolor="#666666"
   borderopacity="1"
   objecttolerance="10"
   gridtolerance="10"
   guidetolerance="10"
   inkscape:pageopacity="0"
   inkscape:pageshadow="2"
   inkscape:window-width="1680"
   inkscape:window-height="987"
   id="namedview31"
   showgrid="false"
   inkscape:zoom="1.2312312"
   inkscape:cx="333.5"
   inkscape:cy="333"
   inkscape:window-x="-8"
   inkscape:window-y="-8"
   inkscape:window-maximized="1"
   inkscape:current-layer="Layer_1" /><metadata
   id="metadata319"><rdf:RDF><cc:Work
       rdf:about=""><dc:format>image/svg+xml</dc:format><dc:type
         rdf:resource="http://purl.org/dc/dcmitype/StillImage" /><dc:title /></cc:Work></rdf:RDF></metadata><defs
   id="defs317"><marker
     orient="auto"
     refY="0"
     refX="0"
     id="Arrow1Send"
     style="overflow:visible"><path
       id="path4714"
       d="M 0,0 5,-5 -12.5,0 5,5 Z"
       style="fill:#000000;fill-opacity:1;fill-rule:evenodd;stroke:#000000;stroke-width:1.00000003pt;stroke-opacity:1"
       transform="matrix(-0.2,0,0,-0.2,-1.2,0)" /></marker><clipPath
     id="clipPath69-0"><path
       id="path71-2"
       d="m 409.441,126.252 v -43.63 h 147.796 v 43.63" /></clipPath><clipPath
     id="clipPath101-1"><path
       id="path103-6"
       d="m 409.441,126.252 v -43.63 h 147.796 v 43.63" /></clipPath><clipPath
     id="clipPath69"><path
       id="path71"
       d="m 409.441,126.252 v -43.63 h 147.796 v 43.63" /></clipPath><clipPath
     id="clipPath101"><path
       id="path103"
       d="m 409.441,126.252 v -43.63 h 147.796 v 43.63" /></clipPath></defs>
<style
   type="text/css"
   id="style2">
	.st0{fill:none;stroke:#000000;stroke-width:2;stroke-linecap:round;stroke-linejoin:round;stroke-miterlimit:10;}
</style>


<g
   id="g874"
   style="fill-rule:evenodd"><path
     style="fill:none;stroke:#000000;stroke-width:6;stroke-linecap:butt;stroke-linejoin:miter;stroke-miterlimit:4;stroke-dasharray:none;stroke-opacity:1;fill-rule:evenodd"
     d="m 242.51347,42.481803 c 204.1699,0.794436 0,0 204.1699,0.794436 24.78625,0.09645 44.73623,34.797459 44.48838,59.582651 -4.76662,476.66123 0,0 -4.76662,476.66123 -0.20417,20.41698 -21.68707,44.48838 -42.10507,44.48838 -208.14207,0 0,0 -208.14207,0 -24.24294,0 -47.11491,-31.36875 -46.87169,-55.61048 4.76661,-475.072348 0,0 4.76661,-475.072348 0.23491,-23.411839 25.04772,-50.934969 48.46056,-50.843869 z"
     id="path863" /><path
     style="fill:#000000;fill-opacity:1;stroke:#000000;stroke-width:3;stroke-linecap:butt;stroke-linejoin:miter;stroke-opacity:1;stroke-miterlimit:4;stroke-dasharray:none;fill-rule:evenodd"
     d="m 243.51486,116.12359 c 62.91606,0 0,0 62.91606,0 11.65473,0 24.15529,13.62405 24.15529,25.27878 0,61.23082 0,0 0,61.23082 0,0 -9.01838,5.69954 -13.36605,10.0145 -4.99305,4.95549 -11.91273,13.57902 -11.91273,13.57902 -65.16308,0.56175 0,0 -65.16308,0.56175 -9.53654,0.0822 -20.86359,-10.12469 -20.78478,-19.66127 0.56175,-67.97183 0,0 0.56175,-67.97183 0.0909,-10.99011 12.60304,-23.03177 23.59354,-23.03177 z"
     id="path865" /><path
     style="fill:#000000;fill-opacity:1;stroke:#000000;stroke-width:3;stroke-linecap:butt;stroke-linejoin:miter;stroke-opacity:1;stroke-miterlimit:4;stroke-dasharray:none;fill-rule:evenodd"
     d="m 439.304,116.12359 c -62.91606,0 0,0 -62.91606,0 -11.65473,0 -24.15529,13.62405 -24.15529,25.27878 0,61.23082 0,0 0,61.23082 0,0 9.01839,5.69954 13.36605,10.0145 4.99305,4.95549 11.91273,13.57902 11.91273,13.57902 65.16308,0.56175 0,0 65.16308,0.56175 9.53654,0.0822 20.86359,-10.12469 20.78478,-19.66127 -0.56175,-67.97183 0,0 -0.56175,-67.97183 -0.0909,-10.99011 -12.60304,-23.03177 -23.59354,-23.03177 z"
     id="path867" /><path
     style="fill:#000000;fill-opacity:1;stroke:#000000;stroke-width:3;stroke-linecap:butt;stroke-linejoin:miter;stroke-opacity:1;stroke-miterlimit:4;stroke-dasharray:none;fill-rule:evenodd"
     d="m 243.51486,359.66245 c 62.91606,0 0,0 62.91606,0 11.65473,0 24.15529,-13.62405 24.15529,-25.27877 0,-61.23082 0,0 0,-61.23082 0,0 -9.01838,-5.69955 -13.36605,-10.01451 -4.99305,-4.95548 -11.91273,-13.57902 -11.91273,-13.57902 -65.16308,-0.56175 0,0 -65.16308,-0.56175 -9.53654,-0.0822 -20.86359,10.12469 -20.78478,19.66127 0.56175,67.97183 0,0 0.56175,67.97183 0.0909,10.99011 12.60304,23.03177 23.59354,23.03177 z"
     id="path869" /><path
     style="fill:#000000;fill-opacity:1;stroke:#000000;stroke-width:3;stroke-linecap:butt;stroke-linejoin:miter;stroke-opacity:1;stroke-miterlimit:4;stroke-dasharray:none;fill-rule:evenodd"
     d="m 439.304,359.66245 c -62.91606,0 0,0 -62.91606,0 -11.65473,0 -24.15529,-13.62405 -24.15529,-25.27877 0,-61.23082 0,0 0,-61.23082 0,0 9.01839,-5.69955 13.36605,-10.01451 4.99305,-4.95548 11.91273,-13.57902 11.91273,-13.57902 65.16308,-0.56175 0,0 65.16308,-0.56175 9.53654,-0.0822 20.86359,10.12469 20.78478,19.66127 -0.56175,67.97183 0,0 -0.56175,67.97183 -0.0909,10.99011 -12.60304,23.03177 -23.59354,23.03177 z"
     id="path871" /><path
     style="fill:#000000;fill-opacity:1;stroke:#000000;stroke-width:3;stroke-linecap:butt;stroke-linejoin:miter;stroke-opacity:1;stroke-miterlimit:4;stroke-dasharray:none;fill-rule:evenodd"
     d="m 341.68077,77.643672 c 3.40926,-0.04932 7.21668,3.753789 7.30277,7.162309 0.082,3.245615 -3.35861,6.988121 -6.60057,7.162332 -3.47835,0.186901 -7.71511,-3.40128 -7.86451,-6.88144 -0.14766,-3.440016 3.71948,-7.393385 7.16231,-7.443201 z"
     id="path873" /><text
     xml:space="preserve"
     style="font-style:normal;font-variant:normal;font-weight:normal;font-stretch:normal;font-size:72.067px;line-height:1.25;font-family:sans-serif;-inkscape-font-specification:'sans-serif, Normal';font-variant-ligatures:normal;font-variant-caps:normal;font-variant-numeric:normal;font-variant-east-asian:normal;letter-spacing:0px;word-spacing:0px;fill:#ffffff;fill-opacity:1;stroke:#000000;stroke-width:1;stroke-opacity:1;stroke-miterlimit:4;stroke-dasharray:none;fill-rule:evenodd"
     x="251.24507"
     y="197.39668"
     id="text877"><tspan
       id="tspan875"
       x="251.24507"
       y="197.39668"
       style="stroke-width:1;stroke:#000000;stroke-opacity:1;stroke-miterlimit:4;stroke-dasharray:none;fill-rule:evenodd">0</tspan></text><text
     xml:space="preserve"
     style="font-style:normal;font-variant:normal;font-weight:normal;font-stretch:normal;font-size:72.067px;line-height:1.25;font-family:sans-serif;-inkscape-font-specification:'sans-serif, Normal';font-variant-ligatures:normal;font-variant-caps:normal;font-variant-numeric:normal;font-variant-east-asian:normal;letter-spacing:0px;word-spacing:0px;fill:#ffffff;fill-opacity:1;stroke:#000000;stroke-width:1;stroke-opacity:1;stroke-miterlimit:4;stroke-dasharray:none;fill-rule:evenodd"
     x="399.88327"
     y="197.39668"
     id="text881"><tspan
       id="tspan879"
       x="399.88327"
       y="197.39668"
       style="stroke-width:1;stroke:#000000;stroke-opacity:1;stroke-miterlimit:4;stroke-dasharray:none;fill-rule:evenodd">l</tspan></text><text
     xml:space="preserve"
     style="font-style:normal;font-variant:normal;font-weight:normal;font-stretch:normal;font-size:72.067px;line-height:1.25;font-family:sans-serif;-inkscape-font-specification:'sans-serif, Normal';font-variant-ligatures:normal;font-variant-caps:normal;font-variant-numeric:normal;font-variant-east-asian:normal;letter-spacing:0px;word-spacing:0px;fill:#ffffff;fill-opacity:1;stroke:#000000;stroke-width:1;stroke-opacity:1;stroke-miterlimit:4;stroke-dasharray:none;fill-rule:evenodd"
     x="251.24507"
     y="330.27017"
     id="text885"><tspan
       id="tspan883"
       x="251.24507"
       y="330.27017"
       style="stroke-width:1;stroke:#000000;stroke-opacity:1;stroke-miterlimit:4;stroke-dasharray:none;fill-rule:evenodd">A</tspan></text><text
     xml:space="preserve"
     style="font-style:normal;font-variant:normal;font-weight:normal;font-stretch:normal;font-size:72.067px;line-height:1.25;font-family:sans-serif;-inkscape-font-specification:'sans-serif, Normal';font-variant-ligatures:normal;font-variant-caps:normal;font-variant-numeric:normal;font-variant-east-asian:normal;letter-spacing:0px;word-spacing:0px;fill:#ffffff;fill-opacity:1;stroke:#000000;stroke-width:1;stroke-opacity:1;stroke-miterlimit:4;stroke-dasharray:none;fill-rule:evenodd"
     x="384.11862"
     y="330.27017"
     id="text889"><tspan
       id="tspan887"
       x="384.11862"
       y="330.27017"
       style="stroke-width:1;stroke:#000000;stroke-opacity:1;stroke-miterlimit:4;stroke-dasharray:none;fill-rule:evenodd">B</tspan></text></g></svg>
