<?xml version="1.0" encoding="UTF-8" standalone="no"?>
<svg
   xmlns:dc="http://purl.org/dc/elements/1.1/"
   xmlns:cc="http://creativecommons.org/ns#"
   xmlns:rdf="http://www.w3.org/1999/02/22-rdf-syntax-ns#"
   xmlns:svg="http://www.w3.org/2000/svg"
   xmlns="http://www.w3.org/2000/svg"
   xmlns:sodipodi="http://sodipodi.sourceforge.net/DTD/sodipodi-0.dtd"
   xmlns:inkscape="http://www.inkscape.org/namespaces/inkscape"
   version="1.1"
   id="Layer_1"
   x="0px"
   y="0px"
   viewBox="0 0 667 666"
   style="enable-background:new 0 0 667 666;"
   xml:space="preserve"
   sodipodi:docname="icon.svg"
   inkscape:version="1.0 (4035a4fb49, 2020-05-01)"><metadata
   id="metadata319"><rdf:RDF><cc:Work
       rdf:about=""><dc:format>image/svg+xml</dc:format><dc:type
         rdf:resource="http://purl.org/dc/dcmitype/StillImage" /><dc:title></dc:title></cc:Work></rdf:RDF></metadata><defs
   id="defs317"><marker
     inkscape:stockid="Arrow1Send"
     orient="auto"
     refY="0"
     refX="0"
     id="Arrow1Send"
     style="overflow:visible"
     inkscape:isstock="true"><path
       inkscape:connector-curvature="0"
       id="path4714"
       d="M 0,0 5,-5 -12.5,0 5,5 Z"
       style="fill:#000000;fill-opacity:1;fill-rule:evenodd;stroke:#000000;stroke-width:1.00000003pt;stroke-opacity:1"
       transform="matrix(-0.2,0,0,-0.2,-1.2,0)" /></marker><clipPath
     id="clipPath69-0"><path
       inkscape:connector-curvature="0"
       id="path71-2"
       d="m 409.441,126.252 v -43.63 h 147.796 v 43.63" /></clipPath><clipPath
     id="clipPath101-1"><path
       inkscape:connector-curvature="0"
       id="path103-6"
       d="m 409.441,126.252 v -43.63 h 147.796 v 43.63" /></clipPath><clipPath
     id="clipPath69"><path
       inkscape:connector-curvature="0"
       id="path71"
       d="m 409.441,126.252 v -43.63 h 147.796 v 43.63" /></clipPath><clipPath
     id="clipPath101"><path
       inkscape:connector-curvature="0"
       id="path103"
       d="m 409.441,126.252 v -43.63 h 147.796 v 43.63" /></clipPath></defs><sodipodi:namedview
   pagecolor="#ffffff"
   bordercolor="#666666"
   borderopacity="1"
   objecttolerance="10"
   gridtolerance="10"
   guidetolerance="10"
   inkscape:pageopacity="0"
   inkscape:pageshadow="2"
   inkscape:window-width="1680"
   inkscape:window-height="987"
   id="namedview315"
   showgrid="false"
   inkscape:zoom="0.50113275"
   inkscape:cx="-121.76246"
   inkscape:cy="112.49946"
   inkscape:window-x="-8"
   inkscape:window-y="-8"
   inkscape:window-maximized="1"
   inkscape:current-layer="Layer_1"
   inkscape:document-rotation="0" />
<style
   type="text/css"
   id="style2">
	.st0{fill:none;stroke:#000000;stroke-width:2;stroke-linecap:round;stroke-linejoin:round;stroke-miterlimit:10;}
</style>


<path
   sodipodi:nodetypes="cassssssacssssssssssssssssssc"
   id="path880"
   d="m 343.40624,54.147774 c 0,0 17.13496,-2.558686 23.63453,1.940148 3.95723,2.739093 5.87567,5.948389 6.1732,13.051906 l 5.64407,134.752112 c 0.25588,6.10905 -0.9487,16.61906 -7.05509,16.93221 l -110.05931,5.64406 c -9.03528,0.46335 -12.43929,-14.94386 -12.69916,-23.98728 L 245.51694,79.722455 c -0.25428,-8.848846 3.62128,-14.160273 8.99523,-18.34322 5.16835,-4.022913 19.22511,-4.056673 19.22511,-4.056673 l 0.17638,9.700741 c 0.0342,1.881961 5.6841,1.705469 5.64406,-0.176377 l -0.17637,-8.289725 c -0.0738,-3.468463 10.25222,-3.642203 10.40625,-0.176377 l 0.35275,7.93697 c 0.0862,1.939127 5.90297,1.762909 5.82045,-0.176377 l -0.35276,-8.289724 c -0.1325,-3.113733 9.14068,-3.286026 9.34799,-0.176377 l 0.52913,7.93697 c 0.14475,2.171291 6.70667,2.521349 6.52595,0.352754 l -0.70551,-8.466101 c -0.26871,-3.22454 9.62372,-3.587556 9.70074,-0.352755 l 0.17638,7.40784 c 0.0532,2.234249 6.86156,2.052827 6.70233,-0.176377 l -0.52912,-7.40784 c -0.25146,-3.52053 10.40636,-3.877849 10.58262,-0.352754 l 0.35276,7.055085 c 0.094,1.879924 5.75045,1.70289 5.64407,-0.176377 z"
   style="fill:none;stroke:#000000;stroke-width:4;stroke-linecap:butt;stroke-linejoin:miter;stroke-opacity:1;stroke-miterlimit:4;stroke-dasharray:none" /><path
   sodipodi:nodetypes="cc"
   id="path884"
   d="m 273.91366,59.791841 c 1.96028,-1.599434 3.2056,-1.550416 5.46769,-0.352754"
   style="fill:none;stroke:#000000;stroke-width:4;stroke-linecap:butt;stroke-linejoin:miter;stroke-opacity:1;stroke-miterlimit:4;stroke-dasharray:none" /><path
   style="fill:none;stroke:#000000;stroke-width:4;stroke-linecap:butt;stroke-linejoin:miter;stroke-opacity:1;stroke-miterlimit:4;stroke-dasharray:none"
   d="m 289.96398,59.086333 c 1.96028,-1.599434 3.2056,-1.550416 5.46769,-0.352754"
   id="path886"
   sodipodi:nodetypes="cc" /><path
   sodipodi:nodetypes="cc"
   id="path888"
   d="m 304.80583,58.594152 c 2.40164,-1.959549 3.92734,-1.899494 6.69875,-0.432177"
   style="fill:none;stroke:#000000;stroke-width:4;stroke-linecap:butt;stroke-linejoin:miter;stroke-opacity:1;stroke-miterlimit:4;stroke-dasharray:none" /><path
   style="fill:none;stroke:#000000;stroke-width:4;stroke-linecap:butt;stroke-linejoin:miter;stroke-opacity:1;stroke-miterlimit:4;stroke-dasharray:none"
   d="m 320.83846,57.804959 c 2.33929,-1.908678 3.82539,-1.850183 6.52485,-0.420957"
   id="path890"
   sodipodi:nodetypes="cc" /><path
   sodipodi:nodetypes="cc"
   id="path892"
   d="m 337.93855,56.440677 c 1.96028,-1.599434 3.2056,-1.550416 5.46769,-0.352754"
   style="fill:none;stroke:#000000;stroke-width:4;stroke-linecap:butt;stroke-linejoin:miter;stroke-opacity:1;stroke-miterlimit:4;stroke-dasharray:none" /><path
   sodipodi:nodetypes="sssssss"
   id="path894"
   d="m 278.24464,207.65456 c -0.0292,-2.04362 6.08237,-2.54249 6.11115,-0.49887 0.12472,8.85494 0.12472,8.85494 0.12472,8.85494 0.023,1.63602 0,0 2.24491,4.36511 0.93183,1.8119 -5.1355,1.91342 -6.11115,0.12473 -2.24491,-4.11568 -2.22259,-2.55314 -2.24491,-4.11568 0,0 0,0 -0.12472,-8.73023 z"
   style="fill:none;stroke:#000000;stroke-width:4;stroke-linecap:butt;stroke-linejoin:miter;stroke-opacity:1;stroke-miterlimit:4;stroke-dasharray:none" /><path
   style="fill:none;stroke:#000000;stroke-width:4;stroke-linecap:butt;stroke-linejoin:miter;stroke-opacity:1;stroke-miterlimit:4;stroke-dasharray:none"
   d="m 294.24464,206.78153 c -0.0292,-2.04362 6.08237,-2.54249 6.11115,-0.49887 0.12472,8.85494 0.12472,8.85494 0.12472,8.85494 0.023,1.63602 0,0 2.24491,4.36511 0.93183,1.8119 -5.1355,1.91342 -6.11115,0.12473 -2.24491,-4.11568 -2.22259,-2.55314 -2.24491,-4.11568 0,0 0,0 -0.12472,-8.73023 z"
   id="path896"
   sodipodi:nodetypes="sssssss" /><path
   sodipodi:nodetypes="sssssss"
   id="path898"
   d="m 310.36936,205.90851 c -0.0292,-2.04362 6.08237,-2.54249 6.11115,-0.49887 0.12472,8.85494 0.12472,8.85494 0.12472,8.85494 0.023,1.63602 0,0 2.24491,4.36511 0.93183,1.8119 -5.1355,1.91342 -6.11115,0.12473 -2.24491,-4.11568 -2.22259,-2.55314 -2.24491,-4.11568 0,0 0,0 -0.12472,-8.73023 z"
   style="fill:none;stroke:#000000;stroke-width:4;stroke-linecap:butt;stroke-linejoin:miter;stroke-opacity:1;stroke-miterlimit:4;stroke-dasharray:none" /><path
   style="fill:none;stroke:#000000;stroke-width:4;stroke-linecap:butt;stroke-linejoin:miter;stroke-opacity:1;stroke-miterlimit:4;stroke-dasharray:none"
   d="m 326.99294,205.16021 c -0.0292,-2.04362 6.08237,-2.54249 6.11115,-0.49887 0.12472,8.85494 0.12472,8.85494 0.12472,8.85494 0.023,1.63602 0,0 2.24491,4.36511 0.93183,1.8119 -5.1355,1.91342 -6.11115,0.12473 -2.24491,-4.11568 -2.22259,-2.55314 -2.24491,-4.11568 0,0 0,0 -0.12472,-8.73023 z"
   id="path900"
   sodipodi:nodetypes="sssssss" /><path
   sodipodi:nodetypes="sssssss"
   id="path902"
   d="m 341.99521,204.78153 c -0.0292,-2.04362 6.08237,-2.54249 6.11115,-0.49887 0.12472,8.85494 0.12472,8.85494 0.12472,8.85494 0.023,1.63602 0,0 2.24491,4.36511 0.93183,1.8119 -5.1355,1.91342 -6.11115,0.12473 -2.24491,-4.11568 -2.22259,-2.55314 -2.24491,-4.11568 0,0 0,0 -0.12472,-8.73023 z"
   style="fill:none;stroke:#000000;stroke-width:4;stroke-linecap:butt;stroke-linejoin:miter;stroke-opacity:1;stroke-miterlimit:4;stroke-dasharray:none" /><path
   style="fill:none;stroke:#000000;stroke-width:1.33333333;stroke-linecap:butt;stroke-linejoin:miter;stroke-opacity:1;stroke-miterlimit:4;stroke-dasharray:none"
   d="m 284.45191,216.60563 c -2.20496,1.69819 -3.57281,1.60581 -6.02322,0.21895"
   id="path904"
   sodipodi:nodetypes="cc" /><path
   sodipodi:nodetypes="cc"
   id="path906"
   d="m 300.62419,215.46376 c -2.26693,1.74592 -3.67322,1.65094 -6.1925,0.22511"
   style="fill:none;stroke:#000000;stroke-width:1.33333333;stroke-linecap:butt;stroke-linejoin:miter;stroke-opacity:1;stroke-miterlimit:4;stroke-dasharray:none" /><path
   style="fill:none;stroke:#000000;stroke-width:1.33333333;stroke-linecap:butt;stroke-linejoin:miter;stroke-opacity:1;stroke-miterlimit:4;stroke-dasharray:none"
   d="m 316.82982,214.5636 c -2.35358,1.81265 -3.81363,1.71405 -6.4292,0.23371"
   id="path908"
   sodipodi:nodetypes="cc" /><path
   sodipodi:nodetypes="cc"
   id="path910"
   d="m 333.35948,213.9534 c -2.31083,1.77973 -3.74436,1.68291 -6.31243,0.22947"
   style="fill:none;stroke:#000000;stroke-width:1.33333333;stroke-linecap:butt;stroke-linejoin:miter;stroke-opacity:1;stroke-miterlimit:4;stroke-dasharray:none" /><path
   style="fill:none;stroke:#000000;stroke-width:1.33333333;stroke-linecap:butt;stroke-linejoin:miter;stroke-opacity:1;stroke-miterlimit:4;stroke-dasharray:none"
   d="m 348.245,213.72264 c -2.2512,1.73381 -3.64774,1.63949 -6.14954,0.22355"
   id="path912"
   sodipodi:nodetypes="cc" /><path
   sodipodi:nodetypes="ccsscccccsssscsc"
   id="path914"
   d="m 371.65801,60.612682 8.23135,21.950272 5.737,137.438636 c 0.15681,3.75668 -2.72589,9.16537 -6.4853,9.22909 l -14.71666,0.24943 -5.737,-2.99322 c 0,0 -6.23588,-0.001 -14.2178,0 v 2.99323 l -42.15449,1.99548 c 0,0 0.34905,-2.49436 -0.49887,-2.49436 -4.48983,-1e-5 -4.54848,0.50001 -4.48983,1.99547 l 0.49887,12.72119 c 0.35552,9.06566 -17.61176,8.06436 -17.46045,0.49887 l 0.24944,-12.47174 c 0,0 0.004,0.30971 -7.48305,0.24943 -4.21928,-0.034 -12.72118,-5.737 -12.72118,-5.737"
   style="fill:none;stroke:#000000;stroke-width:4;stroke-linecap:butt;stroke-linejoin:miter;stroke-opacity:1;stroke-miterlimit:4;stroke-dasharray:none" /><path
   sodipodi:nodetypes="cc"
   id="path916"
   d="m 280.61427,231.72503 16.71214,-0.24944"
   style="fill:none;stroke:#000000;stroke-width:4;stroke-linecap:butt;stroke-linejoin:miter;stroke-opacity:1;stroke-miterlimit:4;stroke-dasharray:none" /><path
   d="m 291.35174,244.23117 a 3.7415235,3.7415235 0 0 1 -5.28288,-0.27047 3.7415235,3.7415235 0 0 1 0.26745,-5.28303 3.7415235,3.7415235 0 0 1 5.28319,0.26443 3.7415235,3.7415235 0 0 1 -0.26142,5.28334"
   sodipodi:arc-type="arc"
   sodipodi:open="true"
   sodipodi:end="0.83455187"
   sodipodi:start="0.83683651"
   sodipodi:ry="3.7415235"
   sodipodi:rx="3.7415235"
   sodipodi:cy="241.45299"
   sodipodi:cx="288.84561"
   sodipodi:type="arc"
   id="path918"
   style="fill:#000000;fill-rule:evenodd;fill-opacity:1;stroke-width:4;stroke-miterlimit:4;stroke-dasharray:none" /><path
   sodipodi:nodetypes="ccccccccccccaccssssssssccssccccccccccc"
   id="path920"
   d="m 307.80267,231.22616 1.49661,10.22683 h 6.48531 v 3.24265 h -5.98644 l 0.74831,13.22005 6.73474,0.49887 0.24943,3.74152 -5.48756,1e-5 0.24943,3.74152 4.2404,0.49887 -1.40761,95.53395 c 0,0 -2.48385,78.32797 -1.63823,117.48397 0.41536,19.23322 3.2953,57.61895 3.2953,57.61895 l -4.9887,0.74831 c 0,0 1.77057,10.13934 0.49887,14.96609 -1.78744,6.78426 -11.15919,6.88106 -10.60098,16.64978 l 1.37189,24.00811 c 0.22847,3.99826 4.06154,9.79758 7.98192,8.97966 l 34.67145,-7.23362 c 3.8975,-0.81315 6.09746,-6.51119 5.737,-10.47626 l -2.24491,-24.69406 c -0.47953,-5.27479 -3.30261,-9.35566 -10.04786,-9.93201 -3.7693,-0.32207 -4.12714,-14.51261 -4.12714,-14.51261 l -5.53036,0.74831 c 0,0 -2.77803,-38.05526 -3.1377,-57.12086 -0.58278,-30.89217 0.0388,-79.03091 0.92321,-119.22346 1.13881,-51.75457 0.96732,-93.29482 0.96732,-93.29482 l 4.48983,-0.24943 0.24943,-4.73926 -6.98418,-0.7483 -0.24943,-2.99323 6.98417,-0.99774 v -11.97288 h -7.23361 l -0.24943,-4.48982 7.73248,0.49887 v -10.7257"
   style="fill:none;stroke:#000000;stroke-width:4;stroke-linecap:butt;stroke-linejoin:miter;stroke-opacity:1;stroke-miterlimit:4;stroke-dasharray:none" /><path
   sodipodi:nodetypes="cssc"
   id="path922"
   d="m 312.2925,551.99945 c 0,0 -13.0695,3.64235 -12.72118,11.72344 1.24718,28.93445 0.73027,14.70023 1.49661,31.67823 0.118,2.61426 5.67464,5.4252 5.67464,5.4252"
   style="fill:none;stroke:#000000;stroke-width:4;stroke-linecap:butt;stroke-linejoin:miter;stroke-opacity:1;stroke-miterlimit:4;stroke-dasharray:none" /></svg>
