<svg height="960" viewBox="0 0 960 960" width="960" xmlns="http://www.w3.org/2000/svg"><path d="m341.702405 58.9096579c15.541465-1.3664726 29.996048-1.2044684 43.384325.5590651 17.130067 2.2564104 35.337721 8.224709 54.806971 17.696895 25.885746 12.5939419 38.257535 42.543262 28.823362 69.713239l-.207804.586903-2.401449 6.61247-2.025132 5.602995-1.997479 5.553421-2.487314 6.953994-2.288083 6.436271c-1.136649 3.206954-2.262209 6.397134-3.37668 9.570534l-2.214158 6.324425c-16.128732 46.21501-29.872185 88.819415-41.231152 127.791728l-1.53417 5.291892c-.253232.878229-.505232 1.754581-.756001 2.629057l-1.489831 5.22433c-10.817048 38.14656-19.249701 72.658589-25.298751 103.514599-14.913027 76.070865-21.257926 166.142809-19.880557 251.741789l.004498.314735 1.547998-2.256229c39.055455-57.330967 73.644784-134.841299 99.797244-223.577272l1.100002-3.756062 1.643901-5.664419 2.467868-8.560969 2.066084-7.219308 1.664132-5.848333 2.947793-10.42959 2.142213-7.632132 2.622029-9.396939 3.145114-11.343767 3.256063-11.815937 3.488808-12.727638 2.971365-10.880956 10.111146-37.121654 2.815052-10.304644 2.780314-10.137723 1.2215-4.43659 2.391181-8.645608 2.324812-8.349876 1.70202-6.073887 1.667903-5.916627 2.173182-7.65094 2.118247-7.387524 1.5546-5.373331 1.526915-5.234248 1.003243-3.414154 1.483836-5.011101.975801-3.268996 1.444585-4.798773.95091-3.131051.941667-3.077893 1.396067-4.519693.92035-2.950047 1.366004-4.333334c.150853-.475486.301406-.948998.451667-1.420559l.898138-2.806154.891551-2.760498.885371-2.715996.879601-2.672648.874239-2.630455.869285-2.589415.864739-2.549531.860602-2.510799.856874-2.473222.853553-2.4368.85064-2.401531.848138-2.367416.846042-2.334457.844355-2.30265.843076-2.271999c.140429-.376176.280821-.751123.421186-1.124865l.841924-2.228185c.140288-.369018.280565-.73688.42084-1.103608l.841691-2.186968c.1403-.362293.280615-.723501.420953-1.083649l.842376-2.148348c.140465-.356.280971-.710988.421525-1.064988l.843981-2.112325.84556-2.089752.847549-2.068334.893493-2.151863c.15631-.373725.312648-.746054.469019-1.116991l.938657-2.208934c.15652-.365379.313082-.729372.46969-1.091982l.94023-2.159098c7.840402-17.854655 15.816687-32.269352 24.461872-43.6622166 12.752306-16.8053423 27.583502-27.8695566 45.535886-31.3204485 10.921173-2.0993193 23.640198-2.6192088 37.782084-1.8682495l1.982483.1130018c.33194.0201979.664641.0410753.998097.0626285l2.009761.1373959c.336459.0242403.673663.0491485 1.011609.0747207l2.036531.1613708c.340891.0282129.682515.057082 1.024865.0866035l2.062791.1849266c1.38096.128462 2.773403.2672381 4.177026.4160797l2.113782.2307806c.353683.0397113.708054.0800439 1.06311.120994l2.138514.2530789 1.075348.1320383 2.162737.2749579 2.178601.2893112c.72882.0988085 1.460246.1999782 2.194241.303478l2.209653.3174587 2.224839.3312529 2.239799.344861c.374534.0586004.749681.1177602 1.125438.1774752l2.261814.3649237c1.785611.2923695 3.568744.5953532 5.342842.9073019l2.653551.4744404c5.290273.9615036 10.469732 1.9962688 15.361354 3.0597621l2.421004.5339345c.39923.0893194.796256.1787867 1.190976.2683762l2.339826.5387971 1.147621.2701116 1.82691.4356802 2.278198.5528762 2.110111.526493 1.480232.381265 1.398701.372494.889928.2447411.857824.2427699.827374.2415692.798577.2411393.771432.2414801.745942.2425918c.122291.0405674.243589.0812133.363928.1219536l.710804.2457043.689446.2487428.66974.2525519c.110073.0424523.219394.0850953.327997.1279453l.643281.2597108c.21174.0874835.420885.175923.627709.2654469l.613789.2719537.302191.1386577.596008.283159c.098474.0478745.196539.0961005.294231.1446939l.581948.2960984c.096336.0501274.192368.1006545.28813.1515971l.571606.3107721.566778.3215178c.094153.0545246.188173.1095291.282095.1650295l.562636.3390817c23.465872 14.4169822 36.117012 41.7846146 31.356969 69.3015286l-1.559931 9.135675-5.309824 30.9565-4.467963 25.826729-3.88194 22.193425-2.861339 16.133197-2.520067 13.957347 2.194993-2.495467 2.747793-3.112671 2.749693-3.102421 2.751227-3.091772 2.752393-3.080725 2.753192-3.06928 2.753624-3.057437 2.753687-3.045195 2.753385-3.032556 2.752714-3.019519c.458709-.502144.917375-1.003729 1.37599-1.504745l2.75102-2.999215 2.749431-2.985183 2.747475-2.97075 2.745152-2.955922 2.742461-2.940694 2.739403-2.925068 2.735978-2.909045 2.732186-2.892622 2.728026-2.875802c.454304-.477877.908419-.955036 1.362338-1.43147l2.721097-2.849825 2.71602-2.83201 2.710574-2.813796 2.704761-2.795185 2.698581-2.776174 2.692034-2.756767 2.68512-2.73696 2.677838-2.716755 2.670188-2.696153 2.662172-2.675152 2.653789-2.653753 2.645037-2.631956c.44009-.436821.8798-.872717 1.319122-1.30768l2.631222-2.598514c.437742-.431197.87508-.861445 1.312008-1.290735l2.61658-2.564176c.435256-.425424.870085-.849874 1.304481-1.273341l2.601112-2.528942 2.590341-2.504955c.430805-.415472.861147-.829927 1.291016-1.243358l2.573496-2.468229 2.561806-2.443245c.851946-.810208 1.701883-1.616185 2.549749-2.417866l2.537325-2.392086 1.263889-1.186252 2.518-2.352673c.418565-.389891.836574-.778668 1.254019-1.16632l2.497849-2.312362c.415161-.383124.829743-.765107 1.243738-1.145942l2.476871-2.271155 2.462427-2.243188c.409181-.371511.817744-.741841 1.225682-1.110981l2.440072-2.200488 2.42471-2.171524 1.206479-1.074776 1.969206-1.745917c.117528-.103889.236536-.208124.357216-.312889l.745678-.636465.795007-.658186c.274246-.224013.558247-.453141.853537-.68888l.921271-.728541c21.144687-16.580328 52.073702-1.293169 51.751052 25.574953l-1.338323 108.201359c-.085175 6.926361-2.415541 13.638078-6.641021 19.12689l-1.751878 2.263811-1.19711 1.524963-50.117001 62.720735-.24618.337626-21.540128 29.66923-38.8288 53.631117-2.73293 3.808983-1.365672 2.000635c-42.824437 63.240596-101.102936 192.528369-173.670134 386.301839-3.601507 9.616971-8.882627 19.983186-15.836759 31.252692l-1.142361 1.83543c-1.157023 1.843396-2.358032 3.710765-3.602998 5.602763l-1.259617 1.900232c-.849511 1.272327-1.718555 2.555697-2.607123 3.850306-.695637 1.013517-1.449098 1.986108-2.256635 2.912936-14.753042 16.932382-36.710191 26.100864-59.551323 24.347351l-1.835002-.146397-2.000203-.171348-1.975891-.181867-1.951879-.192543-1.382998-.144345c-6.77121-.724383-13.019831-1.643533-18.767095-2.772107l-1.53532-.309299-1.676256-.354941-1.504911-.334769c-2.649569-.604405-5.203345-1.264038-7.717009-1.99803l-.780849-.231324-1.093385-.331889-1.426676-.447159-1.434829-.465127-.857452-.284753-.721048-.243661-1.319851-.455337-.856183-.301042-1.346392-.483336-1.483674-.545029-.857749-.320726-1.392541-.529961-1.718402-.668045-1.81301-.720996-1.937067-.78804-2.357841-.982253-2.395841-1.022402-2.359283-1.029346-1.648724-.731731-1.666874-.749722-1.753009-.798698-2.559594-1.184416-2.54219-1.196544-1.849387-.882273-.858318-.412759c-13.651427-6.581302-24.488104-16.880848-31.73816-29.18623l-.433447-.746695-.483926.530243c-16.527837 17.969251-34.549211 32.193714-54.098158 42.119154l-.552916.277603-.808207.48642c-31.063867 18.294996-81.698604 12.26493-140.719696-19.3013l-1.847127-.994759c-30.005616-16.270594-50.169985-47.439884-62.655517-90.392516-3.73596-12.85242-6.802172-26.840398-9.227393-41.898264l-.18706-1.171581-1.037235 1.210141c-1.612636 1.872097-3.221693 3.707109-4.827268 5.505059l-1.203531 1.341514-1.766584 1.946234-1.314387 1.431023c-4.531391 4.906659-9.039541 9.520339-13.52763 13.841139l-2.552356 2.450967c-.424206.406311-.84782.811531-1.270845 1.215665l-2.531091 2.411779-2.517057 2.385825c-.418346.395483-.836112.78989-1.253301 1.183224l-2.496218 2.347155-2.48247 2.321548-2.468833 2.296078c-.410342.380565-.820121.760074-1.229338 1.138531l-2.448593 2.258133-2.435242 2.233009-2.422004 2.208023-2.40888 2.183175-2.395871 2.158465-2.382975 2.133895-2.370193 2.10946-2.357524 2.085166-2.34497 2.061009-2.33253 2.036989c-.387724.337505-.774935.674014-1.161635 1.009531l-2.314082 2.001221-2.301926 1.977547c-.382648.327626-.764794.654272-1.14644.979939l-2.283906 1.942296-2.272034 1.918968-2.260277 1.895778-2.248634 1.872727-2.237103 1.849812-2.225687 1.827038-2.214385 1.8044-2.203197 1.781901-2.1921228 1.75954-2.1811619 1.737317-2.170315 1.715232c-.3608216.28404-.721196.567165-1.0811256.849378l-2.1542583 1.682365c-.3581597.278578-.7158793.556251-1.0731612.833021l-2.1384578 1.649808-2.1280663 1.628275-2.1177887 1.606882-2.107625 1.585626-2.0975751 1.564508c-.3487647.258999-.6971154.517124-1.0450544.774378l-2.0827137 1.533091-2.0729485 1.512319-2.0632969 1.491685c-.6861697.493805-1.3707499.984193-2.0537593 1.471189l-2.0443356 1.450831c-.3399436.240117-.6794993.479391-1.0186695.717825l-2.0304133 1.420554c-.3376375.235087-.6748942.469341-1.0117724.702764l-2.0167473 1.390587c-.335374.23011-.6703744.459395-1.0050034.687858l-2.0033373 1.360931c-.3331533.225185-.66594.449553-.9983625.673108l-1.9901836 1.331587-.9313692.617447-3.5489148 2.32966c-21.2728962 13.905075-49.48592474-1.342897-49.50832771-26.757199l-.0779009-88.357968c0-7.935803 2.93501715-15.591106 8.25487071-21.479754l5.8593775-6.510507c53.3920381-59.684731 92.5477238-113.478843 117.4843838-161.099264 18.566309-35.455251 35.241486-71.833766 50.368011-110.493315l.193388-.495772.393014-1.016596.605023-1.587188.623479-1.661411.85973-2.329641.891854-2.459115.689738-1.928453.947133-2.682291.978182-2.807875 1.00884-2.932042.776515-2.279665 1.06155-3.145931 1.091132-3.266206 1.404918-4.24974 1.745032-5.340946.89632-2.767776 2.151986-6.706286 1.910783-6.020144 1.638007-5.204862 2.019289-6.46739 2.076604-6.704576 2.49338-8.115409 2.878106-9.44763 2.070431-6.844676 2.005674-6.666029 2.430651-8.121112 2.450935-8.233457 2.474756-8.356335 2.502117-8.489744 2.533014-8.633686 3.215108-11.010571 3.275825-11.272509 2.669018-9.220424 11.99473-41.605118 35.939868-120.696274.090532-.288958c7.74227-24.3079951 29.332957-41.5839301 54.7491-43.8186271zm39.205313 32.2850144c-10.952936-1.4427451-23.087119-1.5787427-36.402548-.4079927-5.685798.4999198-10.983772 2.5220263-15.43509 5.6991805-1.012617 1.5118713-1.819564 3.1828372-2.377923 4.9774989-49.052842 157.61752-79.567957 287.172-91.558197 388.579384-.70921 5.998137-1.381426 11.96017-2.01614 17.882857l-.534845 5.066877c-7.972164 76.699194-9.582069 146.592097-3.714622 202.550987 5.36882 51.203394 16.83374 89.308384 34.209581 112.298411 4.997067 5.092667 10.466588 9.302671 16.436818 12.540038 40.279786 21.841779 70.017636 27.699261 89.724158 26.461635-2.566154-1.190869-5.055293-2.542019-7.495367-4.089416-19.492963-12.361652-31.90758-34.869434-35.009306-70.531457-.048564-.558371-.096771-1.11818-.144619-1.679413l-.282771-3.384347c-.046407-.566862-.092453-1.135115-.138137-1.704742l-.269744-3.434141-.260989-3.466375-.25218-3.49784-.243313-3.528538-.234392-3.558465-.225414-3.587624c-.036818-.600325-.073259-1.201832-.109323-1.804507l-.211844-3.629921-.202726-3.657158c-.033025-.611753-.065668-1.22461-.097927-1.838553l-.188946-3.696571c-.030721-.618226-.061057-1.237507-.091006-1.857827l-.17504-3.734256c-.028397-.62441-.056404-1.249828-.084021-1.876236l-.161009-3.770209c-.026052-.630307-.05171-1.261573-.076975-1.893781l-.146852-3.804433-.137345-3.826288-.127781-3.847374-.118162-3.867691c-.018889-.646265-.037375-1.293346-.055456-1.941224l-.103629-3.896725-.09387-3.91512-.084055-3.932746-.074184-3.949603c-.011539-.65963-.022664-1.319929-.033374-1.980883l-.059274-3.973448c-.009047-.663507-.017676-1.327636-.025887-1.992372l-.044239-3.995562-.034145-4.009343-.023996-4.022357-.013791-4.0346c-.001444-.673411-.002462-1.3473-.00305-2.021652l.001622-4.051525.011966-4.061846.022368-4.0714c.004597-.67932.009631-1.359006.015101-2.039042l.038073-4.084288c.007222-.681372.014883-1.363062.022985-2.045053l.053904-4.095446c.009867-.683136.020178-1.366541.030932-2.0502l.06986-4.104874c.012534-.684611.025514-1.369443.038942-2.054481l.085942-4.112572c.015222-.685798.030893-1.371769.047015-2.057898l.10215-4.11854c.035859-1.373393.073531-2.747288.113025-4.121558l.123955-4.123806c2.166684-69.042746 8.772124-135.717374 20.112442-195.074064 14.697833-76.930361 42.655255-174.137337 83.87012-291.681434l2.620672-7.450879 2.655927-7.504965 1.341184-3.772765c1.121539-3.150447 1.013998-6.470391-.103444-9.403018-2.064523-2.263314-4.579526-4.176522-7.485502-5.590338-16.57354-8.0633646-31.56897-12.9787264-44.986292-14.7460857zm280.856612 7.3862737-.924531.0300742c-2.322028.0852289-4.647728.2154497-6.977162.3906642-9.792573.7359221-17.73632 8.2204696-19.054009 17.9568366l-4.980958 36.499737-3.295493 25.055139-1.404907 10.503733-.721111 5.299145-.731081 5.317853c-.122723.88809-.245893 1.777128-.36953 2.667195l-.747535 5.353436-1.143996 8.08529-.778958 5.432801-.792926 5.471566-.807694 5.514345-.823262 5.561133c-.138552.930978-.277786 1.864072-.417719 2.799367l-.848113 5.63884-.430594 2.840476c-9.232695 60.746224-19.914898 120.878121-32.306915 178.652896l-1.456692 6.764508-1.476547 6.803147-1.496402 6.841788c-.251055 1.143518-.502937 2.288646-.755646 3.435384l-1.526184 6.899749-1.546039 6.938389c-.259328 1.159618-.519483 2.320847-.780465 3.483685l-1.575821 6.996352c-.264292 1.169278-.529411 2.340167-.795357 3.512666l-1.605603 7.054315-1.625458 7.092956-1.645313 7.1316c-.275874 1.19182-.552575 2.38525-.830103 3.580291l-1.675095 7.189564-1.69495 7.228208-1.714805 7.266853-1.73466 7.305496-1.754514 7.344142c-.294074 1.227244-.588975 2.456098-.884703 3.686562l-1.784296 7.402109-1.804152 7.440755-1.824006 7.479401-1.84386 7.518048-1.863716 7.556694c-.624547 2.525339-1.252404 5.057119-1.88357 7.595341l-1.903425 7.633989-1.923279 7.672636c-.322201 1.281994-.64523 2.565598-.969085 3.850812l-1.953062 7.730609-1.972916 7.769258-1.992771 7.807907-2.012625 7.846557-2.03248 7.885206c-.340401 1.317422-.68163 2.636454-1.023686 3.957097l-2.062262 7.943182-2.082116 7.981833-2.101971 8.020484c-.351983 1.339968-.704794 2.681547-1.058431 4.024736l-2.131753 8.078461c-.356947 1.349632-.714721 2.700873-1.073322 4.053726l-2.161535 8.136439-2.181389 8.175092-2.201244 8.213746-2.221098 8.252398-2.240953 8.291052-2.260808 8.329707-2.280662 8.36836-2.300516 8.407016-2.320371 8.445671c-.388383 1.410833-.777593 2.823276-1.167631 4.237331l-2.350152 8.503654-2.370007 8.54231c-.396656 1.42694-.794139 2.85549-1.192449 4.285651l-2.399789 8.600295c-.401619 1.436604-.804065 2.874819-1.207339 4.314644l-2.42957 8.658281c-.480219 1.708828-.795843 3.430574-.95502 5.146804 2.904674 11.970516 10.991238 22.472935 22.74293 28.138383l.829652.398956 1.641431.783193 1.617603.763572 2.381728 1.108566 2.328113 1.064417 1.522291.685084 1.498463.665462 1.83957.804234 1.802338.773575 2.113661.887819 2.060047.84367 2.006434.799521 1.307837.508486 1.601289.608014 1.564057.577355 1.224439.43981.603284.212546 1.188696.410377 1.164869.390755 1.14104.371132 1.117213.351511 1.093384.331889.537756.158586c2.122262.619613 4.399762 1.195325 6.8325 1.727134l1.342344.285724 1.373135.277015c5.091279.999761 10.803512 1.823911 17.1367 2.472453l1.742629.172521 1.77342.163813 1.804211.155105 1.835002.146397c7.951567.610392 15.59783-1.184288 22.164185-4.814648 3.39792-3.412634 5.891094-7.779808 7.02478-12.760971l-.019193.080124.017628-.081275 3.668699-16.128634 3.602073-15.868816 4.699124-20.75425 3.446611-15.262551 3.379981-15.002712 4.402996-19.599412 3.22451-14.396398 4.195695-18.790969 4.077236-18.328982 3.958771-17.866979 3.840306-17.404961 2.802485-12.750512 3.632984-16.596394 2.64699-12.144071 3.425653-15.787781 2.49149-11.537593 2.424844-11.277664 2.358198-11.017728 1.535106-7.200741 2.247119-10.584488 1.461052-6.911908 2.136036-10.151231 1.386996-6.623064 2.02495-9.717956 1.312938-6.334208 1.913862-9.284663 1.847207-9.024679 1.780551-8.764689 1.150002-5.698684 1.120377-5.583127 1.090751-5.46757 1.061124-5.352011 1.031498-5.236449 1.001871-5.120885 1.792451-9.234241 1.948043-10.085411 1.949806-10.142559 2.602483-13.612313 1.953919-10.275909 1.955683-10.333061 2.610319-13.866316 1.959796-10.466415 2.615805-14.044123 1.309078-7.060164 1.965087-10.637873 1.311037-7.123668 1.968026-10.73313 2.626779-14.399747 1.972142-10.866492 1.973906-10.923647 1.97567-10.980804 1.977434-11.03796 1.979199-11.095118 1.980963-11.152275 1.982727-11.209434 2.646382-15.034825 1.986845-11.342804 2.651872-15.212655 1.327113-7.644434 1.99214-11.514285 2.658932-15.441298 1.996259-11.647662c1.25844-7.361389-1.101016-14.511598-5.794262-19.620535-.873102-.653671-1.778055-1.269205-2.713516-1.843934-.37392-.229729-1.389055-.601139-2.948239-1.076903l-1.000019-.297683c-.177292-.051601-.35983-.104171-.547517-.157673l-1.187132-.331891c-.207894-.057078-.420743-.115014-.638449-.173769l-1.363751-.362068-1.475666-.379946-1.582918-.396033-1.685507-.410329-1.78343-.422832c-.305139-.071414-.614165-.143275-.926979-.215545l-1.921571-.438228-2.007835-.446252-2.089435-.452485-2.166371-.456927c-2.570498-.534975-5.288552-1.075359-8.120834-1.60835l-2.454866-.45474c-14.108665-2.571976-30.704427-4.8814491-45.928983-5.446273zm-40.827727 8.304504-.506908.397846c-24.909069 20.007052-45.493412 77.442455-68.074745 155.776611l-1.880252 6.553864c-1.256742 4.400812-2.520143 8.864296-3.791276 13.387645l-1.912634 6.829572c-.639567 2.291256-1.281201 4.597128-1.925037 6.917264l-1.938246 7.002854-1.952259 7.086338-2.774979 10.118298-2.806625 10.273853-10.104853 37.098585-2.976854 10.901082-3.020868 11.024295c-.322809 1.17557-.646398 2.35312-.97078 3.532617l-2.941165 10.667229-2.985925 10.767319c-.334328 1.20174-.669522 2.405239-1.005593 3.610465l-2.027048 7.25183c-.339628 1.212008-.680157 2.425681-1.0216 3.640986l-2.059713 7.31117-2.082215 7.348835c-.348943 1.22786-.698847 2.457227-1.049726 3.688068l-2.117053 7.402492-2.141004 7.436368c-.717723 2.484268-1.439536 4.973929-2.165533 7.468731-35.252324 121.140398-88.636684 231.418964-153.8758 295.814251l.043963.698907c.037821.588151.076012 1.175087.114569 1.76079l.235751 3.499312.244519 3.468976.253232 3.437874.261888 3.406002c.044367.564968.089091 1.128576.134173 1.690809l.274769 3.356752.283284 3.322959c2.689044 30.917212 12.585802 48.860099 27.638284 58.405777 4.235406 2.685924 8.752804 4.629248 13.849766 6.147432l.467718.135423.829959.227982.955089.251491 1.411848.359623 1.689019.418504 2.550696.616594 3.768588.88528.144989.040884c38.580587-20.58469 69.432769-62.386527 92.532348-110.234969l1.975776-7.239108c.379273-1.391639.75772-2.781666 1.135339-4.17008l2.255797-8.311136 2.235955-8.272437 2.216111-8.233738 2.196269-8.195037 2.176426-8.156337c.361085-1.356164.721342-2.710716 1.080773-4.063655l2.146662-8.098285 2.126819-8.059584 2.106977-8.020881 2.087134-7.982178 2.067291-7.943475 2.047448-7.904772c.339588-1.314237.678349-2.626861 1.016284-3.937872l2.017684-7.846715c.334627-1.304561.668427-2.607509 1.001401-3.908844l1.98792-7.788658c.329666-1.294884.658506-2.588155.986519-3.879814l1.958156-7.7306c.324705-1.285208.648584-2.568803.971637-3.850785l1.928391-7.67254c.319745-1.275531.638663-2.549449.956755-3.821755l1.898627-7.61448 1.878784-7.575772 1.858942-7.537064 1.839099-7.498355 1.819255-7.459646 1.799413-7.420937 1.77957-7.382227 1.759727-7.343517 1.739884-7.304805 1.720041-7.266095c.28502-1.207789.569213-2.413966.852579-3.61853l1.690277-7.208026c.280059-1.198112.559291-2.394611.837697-3.589496l1.660512-7.149957c.550197-2.376867 1.097086-4.747282 1.640669-7.111245l1.620826-7.07253c.268484-1.175529.536141-2.349445.802972-3.521747l1.591061-7.014459 1.571218-6.975744c.260217-1.159398.519606-2.317183.778168-3.473354l1.541454-6.917671 1.521611-6.878955 1.501767-6.840238c.248641-1.136813.496456-2.272013.743443-3.4056l1.472003-6.782163c.487361-2.254268.971414-4.502083 1.45216-6.743445 12.317653-57.428071 22.945197-117.252283 32.132766-177.701596.287291-1.89022.571602-3.770691.853066-5.642077l.835983-5.587575.819698-5.537068.804209-5.490558.789515-5.448044.775619-5.409526.762518-5.375004.750215-5.344478 1.103993-7.968223 1.080789-7.922019.724372-5.383668 3.756554-28.515189 5.200894-38.163149c.372622-2.753302 1.045068-5.404943 1.982765-7.922352zm-386.540179 285.492759-.733085 2.338831-1.669027 5.285493c-6.915196 21.812105-13.315865 40.888458-18.227606 53.441617-13.120288 33.532119-26.929597 64.238046-41.114991 92.722144l-1.936673 3.87048c-2.908419 5.785234-5.831977 11.478657-8.767998 17.085444-25.230203 48.18099-63.6871233 101.563286-115.37076 160.146889l-3.2818164 3.706933c-1.6497016 1.856924-3.3125933 3.719035-4.9886751 5.586333l-.3347817.372721-3.9710108 4.403661.0778885 88.357968 2.3311019-1.527481 2.772553-1.837237 1.7054019-1.145881c.2856055-.192796.5718992-.386504.858884-.58113l1.7302295-1.17884 1.7469718-1.20121 1.7638668-1.2239 1.7809142-1.246907 1.7981143-1.270236 1.8154669-1.293881 1.832972-1.317846 1.8506296-1.34213 1.8684399-1.366732 1.8864025-1.391653 1.9045179-1.416894 1.9227857-1.442453c.3219951-.242556.6447577-.486191.968291-.73091l1.9504735-1.481389 1.9691227-1.507745c.3297497-.253505.6602827-.508121.9916024-.763856l1.9973825-1.547876 2.0164131-1.57503 2.0355961-1.602502c.3408731-.269391.6825519-.539939 1.0250394-.811653l2.0646569-1.644307c.3457356-.276398.6922864-.553974 1.0396555-.832735l2.0940607-1.68683 2.113854-1.715578 2.1337999-1.744644c.3573039-.293214.7154453-.587652 1.0744272-.883321l2.1640046-1.788841 2.1843318-1.818704 2.2048114-1.848885 2.2254438-1.879387c.3726351-.31579.7461363-.632865 1.1205066-.951231l2.2566782-1.925735 2.2776923-1.957033c.381374-.328798.763631-.658914 1.146773-.990353l2.309498-2.004578c.386696-.336762.774282-.674861 1.162763-1.014305l2.341648-2.052839 2.363272-2.085413 2.385048-2.118305 2.406977-2.151515 2.429059-2.185046c.406691-.366986.814309-.735382 1.222857-1.105195l2.462467-2.235938 2.484929-2.270264c.832071-.762511 1.66791-1.530797 2.507545-2.304909l2.530313-2.339874 2.553233-2.375157 2.576306-2.410759 2.599531-2.44668 2.62291-2.482919c.439108-.416858.879197-.835239 1.320269-1.255149l2.658263-2.537877 2.682022-2.574913c4.395706-4.23186 8.843319-8.808003 13.342836-13.728426l1.689752-1.861297c5.922646-6.571022 11.934704-13.735122 18.036166-21.492295l1.745707-2.232473.874679-1.12834 1.673218-2.17651c5.864021-7.669251 11.809502-15.878884 17.836436-24.628895l7.977137-12.050353c-.834832-45.010806 1.771799-95.48325 7.4333-149.130548l.550917-5.141801c.56021-5.151338 1.148266-10.331064 1.763828-15.537177 3.499753-29.599138 8.550451-61.527071 15.151781-95.785808zm693.603576-236.320447-.513259.40493-.679276.545587-.570544.471417-.319954.273073-2.036098 1.80363c-59.689484 53.078438-136.217877 135.878197-201.33716 218.796658l-.882393 4.702213-1.959208 10.383589-2.609561 13.755935-2.606456 13.654392-1.952806 10.17416-2.601024 13.476701-1.795289 9.248856-1.014534 5.185476-1.578437 7.999006-1.646402 8.263961-1.714368 8.528924-1.180672 5.833153-1.210879 5.950919-1.241088 6.068686-1.918274 9.323849-1.986244 9.588837-1.361925 6.539776-1.392135 6.657554-2.144848 10.207167-1.467662 6.952006-2.258139 10.648854-2.326115 10.913875-3.207231 14.964098-1.648935 7.658739-2.530052 11.708976-1.724469 7.953231-2.643355 12.150724-1.800005 8.247736-3.690656 16.848891-3.811519 17.320127-2.937957 13.299353-3.005945 13.56444-3.073935 13.829531-3.141925 14.094631-4.294999 19.205228-4.415875 19.676541-3.391234 15.066715-4.627417 20.501378-4.43049 19.5708c.460877-1.106198.890677-2.191643 1.289399-3.256336 74.177016-198.072109 133.694236-329.768858 178.55166-395.090248l.095286-.13734 1.266244-1.778734 6.890081-9.558441 32.024639-44.210546 24.188129-33.305452 50.251423-62.888915.812241-1.030729 1.981076-2.556223z"/></svg>