<?xml version="1.0" encoding="UTF-8" standalone="no"?>
<svg
   xmlns:dc="http://purl.org/dc/elements/1.1/"
   xmlns:cc="http://creativecommons.org/ns#"
   xmlns:rdf="http://www.w3.org/1999/02/22-rdf-syntax-ns#"
   xmlns:svg="http://www.w3.org/2000/svg"
   xmlns="http://www.w3.org/2000/svg"
   xmlns:sodipodi="http://sodipodi.sourceforge.net/DTD/sodipodi-0.dtd"
   xmlns:inkscape="http://www.inkscape.org/namespaces/inkscape"
   version="1.1"
   id="Layer_1"
   x="0px"
   y="0px"
   viewBox="0 0 667 666"
   style="enable-background:new 0 0 667 666;"
   xml:space="preserve"
   sodipodi:docname="icon.svg"
   inkscape:version="1.0 (4035a4fb49, 2020-05-01)"><metadata
   id="metadata319"><rdf:RDF><cc:Work
       rdf:about=""><dc:format>image/svg+xml</dc:format><dc:type
         rdf:resource="http://purl.org/dc/dcmitype/StillImage" /></cc:Work></rdf:RDF></metadata><defs
   id="defs317"><marker
     inkscape:stockid="Arrow1Send"
     orient="auto"
     refY="0"
     refX="0"
     id="Arrow1Send"
     style="overflow:visible"
     inkscape:isstock="true"><path
       inkscape:connector-curvature="0"
       id="path4714"
       d="M 0,0 5,-5 -12.5,0 5,5 Z"
       style="fill:#000000;fill-opacity:1;fill-rule:evenodd;stroke:#000000;stroke-width:1.00000003pt;stroke-opacity:1"
       transform="matrix(-0.2,0,0,-0.2,-1.2,0)" /></marker><clipPath
     id="clipPath69-0"><path
       inkscape:connector-curvature="0"
       id="path71-2"
       d="m 409.441,126.252 v -43.63 h 147.796 v 43.63" /></clipPath><clipPath
     id="clipPath101-1"><path
       inkscape:connector-curvature="0"
       id="path103-6"
       d="m 409.441,126.252 v -43.63 h 147.796 v 43.63" /></clipPath><clipPath
     id="clipPath69"><path
       inkscape:connector-curvature="0"
       id="path71"
       d="m 409.441,126.252 v -43.63 h 147.796 v 43.63" /></clipPath><clipPath
     id="clipPath101"><path
       inkscape:connector-curvature="0"
       id="path103"
       d="m 409.441,126.252 v -43.63 h 147.796 v 43.63" /></clipPath></defs><sodipodi:namedview
   pagecolor="#ffffff"
   bordercolor="#666666"
   borderopacity="1"
   objecttolerance="10"
   gridtolerance="10"
   guidetolerance="10"
   inkscape:pageopacity="0"
   inkscape:pageshadow="2"
   inkscape:window-width="1680"
   inkscape:window-height="987"
   id="namedview315"
   showgrid="false"
   inkscape:zoom="0.70870873"
   inkscape:cx="320.94673"
   inkscape:cy="374.20472"
   inkscape:window-x="-8"
   inkscape:window-y="-8"
   inkscape:window-maximized="1"
   inkscape:current-layer="Layer_1"
   inkscape:document-rotation="0" />
<style
   type="text/css"
   id="style2">
	.st0{fill:none;stroke:#000000;stroke-width:2;stroke-linecap:round;stroke-linejoin:round;stroke-miterlimit:10;}
</style>


<path
   sodipodi:nodetypes="cssascssscc"
   id="path865"
   d="m 199.65889,336.52753 c 0,0 -27.50643,-31.01027 -31.04237,-39.50847 -1.50358,-3.61367 2.45626,-10.27899 6.34958,-9.87712 25.63282,2.64583 112.19092,13.02957 159.44491,40.91949 48.6946,28.74019 102.18053,94.01967 116.3233,123.46398 3.09264,6.43867 1.49661,11.99364 1.49661,11.99364 L 573.57837,255.39406 c 2.13543,-3.66251 2.50396,-8.85994 0.70551,-12.69915 C 563.79279,220.29928 517.56261,120.04536 455.46814,93.787524 408.68634,74.004943 303.31284,85.556172 303.31284,85.556172 L 170.02754,290.299"
   style="fill:none;stroke:#000000;stroke-width:4;stroke-linecap:butt;stroke-linejoin:miter;stroke-opacity:1;stroke-miterlimit:4;stroke-dasharray:none" /><path
   sodipodi:nodetypes="csccccccccccccsssc"
   id="path867"
   d="m 452.23092,463.51905 c 0,0 -3.4141,4.39104 -14.7221,1.92648 l -38.91184,-8.48078 -48.15347,80.72613 -2.96547,-0.26146 -20.21944,-21.59804 8.97965,1.49661 -13.46948,-12.47174 -9.9774,-1.99548 -22.44914,-24.44462 -102.0366,-54.68677 5.89716,8.4166 -14.05394,-3.03602 -6.79159,-9.56045 c 0,0 -19.42924,-9.665 -26.68954,1.99548 l 65.85082,-105.7604 c 20.44469,-32.83541 214.55228,87.16258 196.05583,126.21406 -2.626,5.54427 -9.97739,14.9661 -9.97739,14.9661"
   style="fill:none;stroke:#000000;stroke-width:4;stroke-linecap:butt;stroke-linejoin:miter;stroke-opacity:1;stroke-miterlimit:4;stroke-dasharray:none" /><path
   id="path869"
   d="m 290.34223,478.41615 54.87568,-91.29318 30.92993,30.43106 -53.37907,87.30222 13.46948,12.47174 53.37907,-86.80334 15.46497,16.96157"
   style="fill:none;stroke:#000000;stroke-width:4;stroke-linecap:butt;stroke-linejoin:miter;stroke-opacity:1;stroke-miterlimit:4;stroke-dasharray:none" /><path
   sodipodi:nodetypes="ccc"
   id="path871"
   d="M 376.14784,417.55403 365.1727,412.2731 312.79137,502.86077"
   style="fill:none;stroke:#000000;stroke-width:4;stroke-linecap:butt;stroke-linejoin:miter;stroke-opacity:1;stroke-miterlimit:4;stroke-dasharray:none" /><path
   sodipodi:nodetypes="ccc"
   id="path873"
   d="m 405.08229,447.48622 -5.39679,1.00293 -52.06402,88.84897"
   style="fill:none;stroke:#000000;stroke-width:4;stroke-linecap:butt;stroke-linejoin:miter;stroke-opacity:1;stroke-miterlimit:4;stroke-dasharray:none" /><path
   id="path875"
   d="M 365.1727,412.2731 344.11175,389.61704"
   style="fill:none;stroke:#000000;stroke-width:4;stroke-linecap:butt;stroke-linejoin:miter;stroke-opacity:1;stroke-miterlimit:4;stroke-dasharray:none" /><path
   id="path877"
   d="m 399.6855,448.48915 -12.53774,-12.6613"
   style="fill:none;stroke:#000000;stroke-width:4;stroke-linecap:butt;stroke-linejoin:miter;stroke-opacity:1;stroke-miterlimit:4;stroke-dasharray:none" /><path
   sodipodi:nodetypes="cscccc"
   id="path879"
   d="m 350.44351,537.69088 c 0,0 -4.98959,16.51104 -35.25761,5.19787 -3.77911,-1.4125 -8.28972,-8.81885 -8.28972,-8.81885 l -15.34481,-3.17479 4.5858,5.46769 3.17479,-3.70392"
   style="fill:none;stroke:#000000;stroke-width:4;stroke-linecap:butt;stroke-linejoin:miter;stroke-opacity:1;stroke-miterlimit:4;stroke-dasharray:none" /><path
   id="path881"
   d="m 296.13717,536.3628 -8.64248,-4.40943"
   style="fill:none;stroke:#000000;stroke-width:4;stroke-linecap:butt;stroke-linejoin:miter;stroke-opacity:1;stroke-miterlimit:4;stroke-dasharray:none" /><path
   sodipodi:nodetypes="csc"
   id="path883"
   d="m 146.66772,421.54499 c 0,0 0.88752,8.93401 3.79746,11.92173 14.68369,15.07615 38.85591,34.7226 38.85591,34.7226"
   style="fill:none;stroke:#000000;stroke-width:4;stroke-linecap:butt;stroke-linejoin:miter;stroke-opacity:1;stroke-miterlimit:4;stroke-dasharray:none" /><path
   sodipodi:nodetypes="csascac"
   id="path885"
   d="m 193.06262,462.70175 -58.36777,92.04148 c -3.478,5.48454 0.83818,14.84685 6.23587,18.45818 5.26331,3.52142 15.5609,4.09783 18.95705,-1.24717 l 59.11608,-93.03922 c 0,0 -5.90755,-8.71851 -10.22683,-11.47401 -4.61249,-2.94255 -15.7144,-4.73926 -15.7144,-4.73926 z"
   style="fill:none;stroke:#000000;stroke-width:4;stroke-linecap:butt;stroke-linejoin:miter;stroke-opacity:1;stroke-miterlimit:4;stroke-dasharray:none" /><path
   sodipodi:nodetypes="csascac"
   id="path887"
   d="m 275.87501,489.14185 -59.36551,98.77622 c -3.57732,5.95218 0.10231,16.26661 5.98644,19.95479 6.20797,3.89117 17.90305,2.77346 21.70083,-3.49208 l 59.11608,-97.52905 c 0,0 -7.43341,-8.02476 -11.97288,-10.97514 -4.71436,-3.06404 -15.46496,-6.73474 -15.46496,-6.73474 z"
   style="fill:none;stroke:#000000;stroke-width:4;stroke-linecap:butt;stroke-linejoin:miter;stroke-opacity:1;stroke-miterlimit:4;stroke-dasharray:none" /><path
   sodipodi:nodetypes="cac"
   id="path889"
   d="m 213.01741,488.89241 c 0,0 14.32418,10.07888 21.80262,14.62301 7.74509,4.70617 23.84397,13.06427 23.84397,13.06427"
   style="fill:none;stroke:#000000;stroke-width:4;stroke-linecap:butt;stroke-linejoin:miter;stroke-opacity:1;stroke-miterlimit:4;stroke-dasharray:none" /><path
   inkscape:transform-center-y="0.079334155"
   inkscape:transform-center-x="-0.43678514"
   transform="matrix(0.81544414,0.57883578,-0.79239777,0.61000474,0,0)"
   d="m 497.68377,260.00509 a 11.992131,4.6247659 0 0 1 0.853,-6.53158 11.992131,4.6247659 0 0 1 16.93671,0.32788 11.992131,4.6247659 0 0 1 -0.84739,6.53169 11.992131,4.6247659 0 0 1 -16.93699,-0.32571 l 8.89086,-3.10356 z"
   sodipodi:arc-type="slice"
   sodipodi:end="2.4059364"
   sodipodi:start="2.4065996"
   sodipodi:ry="4.6247659"
   sodipodi:rx="11.992131"
   sodipodi:cy="256.90381"
   sodipodi:cx="506.57996"
   sodipodi:type="arc"
   id="path891"
   style="fill:#000000;fill-opacity:1;fill-rule:evenodd;stroke-width:0.773015" /><path
   sodipodi:nodetypes="csc"
   id="path893"
   d="m 291.83884,102.76718 c 0,0 108.90514,-4.96949 151.15755,12.47175 68.86475,28.42646 122.72198,152.65416 122.72198,152.65416"
   style="fill:none;stroke:#000000;stroke-width:4;stroke-linecap:butt;stroke-linejoin:miter;stroke-opacity:1;stroke-miterlimit:4;stroke-dasharray:none" /><path
   sodipodi:open="true"
   transform="matrix(0.96393526,0.26613683,-0.23218841,0.97267083,0,0)"
   d="m 506.16462,219.16927 a 26.120689,39.43536 0 0 1 1.84382,-55.67547 26.120689,39.43536 0 0 1 36.87924,2.73377 26.120689,39.43536 0 0 1 -1.77769,55.68037 26.120689,39.43536 0 0 1 -36.88243,-2.63393"
   sodipodi:arc-type="arc"
   sodipodi:end="2.4030133"
   sodipodi:start="2.4065996"
   sodipodi:ry="39.43536"
   sodipodi:rx="26.120689"
   sodipodi:cy="192.72462"
   sodipodi:cx="525.54187"
   sodipodi:type="arc"
   id="path895"
   style="fill:none;fill-opacity:1;fill-rule:evenodd;stroke:#000000;stroke-width:3.33435781;stroke-opacity:1;stroke-miterlimit:4;stroke-dasharray:none" /><path
   style="fill:none;fill-opacity:1;fill-rule:evenodd;stroke:#000000;stroke-width:3.33435781;stroke-opacity:1;stroke-miterlimit:4;stroke-dasharray:none"
   id="path897"
   sodipodi:type="arc"
   sodipodi:cx="527.38141"
   sodipodi:cy="192.76529"
   sodipodi:rx="10.862219"
   sodipodi:ry="16.39909"
   sodipodi:start="5.6505424"
   sodipodi:end="4.6677083"
   sodipodi:arc-type="arc"
   d="m 536.14144,183.06886 a 10.862219,16.39909 0 0 1 -0.39952,20.16595 10.862219,16.39909 0 0 1 -13.05326,4.32019 10.862219,16.39909 0 0 1 -5.95073,-18.06422 10.862219,16.39909 0 0 1 10.15831,-13.10821"
   transform="matrix(0.96393526,0.26613683,-0.23218841,0.97267083,0,0)"
   sodipodi:open="true" /><path
   id="path899"
   d="m 475.68907,307.24893 -11.28813,18.34322"
   style="fill:none;stroke:#000000;stroke-width:3.33333333;stroke-linecap:butt;stroke-linejoin:miter;stroke-opacity:1;stroke-miterlimit:4;stroke-dasharray:none" /><path
   id="path901"
   d="m 173.35726,419.54951 62.35873,-98.77622 16.21326,1.99548 -63.62362,100.96061"
   style="fill:none;stroke:#000000;stroke-width:4;stroke-linecap:butt;stroke-linejoin:miter;stroke-opacity:1;stroke-miterlimit:4;stroke-dasharray:none" /><path
   id="path903"
   d="m 247.68886,329.00464 -6.23587,-0.99774 -63.10703,98.02792"
   style="fill:none;stroke:#000000;stroke-width:4;stroke-linecap:butt;stroke-linejoin:miter;stroke-opacity:1;stroke-miterlimit:4;stroke-dasharray:none" /><path
   id="path905"
   d="m 235.71599,320.77329 5.737,7.23361"
   style="fill:none;stroke:#000000;stroke-width:4;stroke-linecap:butt;stroke-linejoin:miter;stroke-opacity:1;stroke-miterlimit:4;stroke-dasharray:none" /></svg>
