<?xml version="1.0" encoding="UTF-8" standalone="no"?>
<svg
   version="1.1"
   id="Layer_1"
   x="0px"
   y="0px"
   viewBox="0 0 667 666"
   style="enable-background:new 0 0 667 666;"
   xml:space="preserve"
   sodipodi:docname="icon.svg"
   inkscape:version="1.2 (dc2aedaf03, 2022-05-15)"
   xmlns:inkscape="http://www.inkscape.org/namespaces/inkscape"
   xmlns:sodipodi="http://sodipodi.sourceforge.net/DTD/sodipodi-0.dtd"
   xmlns="http://www.w3.org/2000/svg"
   xmlns:svg="http://www.w3.org/2000/svg"
   xmlns:rdf="http://www.w3.org/1999/02/22-rdf-syntax-ns#"
   xmlns:cc="http://creativecommons.org/ns#"
   xmlns:dc="http://purl.org/dc/elements/1.1/"><metadata
   id="metadata319"><rdf:RDF><cc:Work
       rdf:about=""><dc:format>image/svg+xml</dc:format><dc:type
         rdf:resource="http://purl.org/dc/dcmitype/StillImage" /></cc:Work></rdf:RDF></metadata><defs
   id="defs317"><marker
     inkscape:stockid="Arrow1Send"
     orient="auto"
     refY="0"
     refX="0"
     id="Arrow1Send"
     style="overflow:visible"
     inkscape:isstock="true"><path
       inkscape:connector-curvature="0"
       id="path4714"
       d="M 0,0 5,-5 -12.5,0 5,5 Z"
       style="fill:#000000;fill-opacity:1;fill-rule:evenodd;stroke:#000000;stroke-width:1.00000003pt;stroke-opacity:1"
       transform="matrix(-0.2,0,0,-0.2,-1.2,0)" /></marker><clipPath
     id="clipPath69-0"><path
       inkscape:connector-curvature="0"
       id="path71-2"
       d="m 409.441,126.252 v -43.63 h 147.796 v 43.63" /></clipPath><clipPath
     id="clipPath101-1"><path
       inkscape:connector-curvature="0"
       id="path103-6"
       d="m 409.441,126.252 v -43.63 h 147.796 v 43.63" /></clipPath><clipPath
     id="clipPath69"><path
       inkscape:connector-curvature="0"
       id="path71"
       d="m 409.441,126.252 v -43.63 h 147.796 v 43.63" /></clipPath><clipPath
     id="clipPath101"><path
       inkscape:connector-curvature="0"
       id="path103"
       d="m 409.441,126.252 v -43.63 h 147.796 v 43.63" /></clipPath></defs><sodipodi:namedview
   pagecolor="#ffffff"
   bordercolor="#666666"
   borderopacity="1"
   objecttolerance="10"
   gridtolerance="10"
   guidetolerance="10"
   inkscape:pageopacity="0"
   inkscape:pageshadow="2"
   inkscape:window-width="1680"
   inkscape:window-height="987"
   id="namedview315"
   showgrid="false"
   inkscape:zoom="0.70870873"
   inkscape:cx="270.91525"
   inkscape:cy="359.80931"
   inkscape:window-x="-8"
   inkscape:window-y="-8"
   inkscape:window-maximized="1"
   inkscape:current-layer="Layer_1"
   inkscape:document-rotation="0"
   inkscape:showpageshadow="2"
   inkscape:pagecheckerboard="0"
   inkscape:deskcolor="#d1d1d1" />
<style
   type="text/css"
   id="style2">
	.st0{fill:none;stroke:#000000;stroke-width:2;stroke-linecap:round;stroke-linejoin:round;stroke-miterlimit:10;}
</style>


<path
   style="fill:none;stroke:#000000;stroke-width:3;stroke-linecap:butt;stroke-linejoin:miter;stroke-opacity:1;stroke-dasharray:none"
   d="m 54.324151,151.68432 c -0.552529,198.41729 -0.818225,100.46254 -0.705509,247.63346 0.0076,9.87992 8.463369,23.24537 18.34322,23.28178 202.851028,0.74764 224.945038,1.72666 509.377108,0 9.99936,-0.0607 19.728,-12.57676 19.75423,-22.57627 0.43811,-167.04476 -10e-4,-49.91835 0,-250.4555 5e-5,-7.98884 -8.23785,-17.62949 -16.22669,-17.63771 -485.658843,-0.49979 -49.45531,-0.17893 -509.377105,0 -9.650549,0.004 -21.13838,10.10373 -21.165254,19.75424 z"
   id="path412"
   sodipodi:nodetypes="sssssssss" /><path
   style="fill:none;fill-rule:evenodd;stroke-width:3;stroke:#000000;stroke-opacity:1;stroke-dasharray:none"
   id="path568"
   sodipodi:type="arc"
   sodipodi:cx="83.955505"
   sodipodi:cy="331.58896"
   sodipodi:rx="18.34322"
   sodipodi:ry="18.34322"
   sodipodi:start="2.4065996"
   sodipodi:end="2.4059364"
   sodipodi:open="true"
   sodipodi:arc-type="arc"
   d="m 70.347855,343.88959 a 18.34322,18.34322 0 0 1 1.304761,-25.90624 18.34322,18.34322 0 0 1 25.90646,1.30046 18.34322,18.34322 0 0 1 -1.296171,25.90668 18.34322,18.34322 0 0 1 -25.906889,-1.29188" /><path
   style="fill:none;fill-rule:evenodd;stroke-width:3;stroke:#000000;stroke-opacity:1;stroke-dasharray:none"
   id="path576"
   sodipodi:type="arc"
   sodipodi:cx="568.63983"
   sodipodi:cy="331.58896"
   sodipodi:rx="18.34322"
   sodipodi:ry="18.34322"
   sodipodi:start="2.4065996"
   sodipodi:end="2.4059364"
   sodipodi:open="true"
   sodipodi:arc-type="arc"
   d="m 555.03218,343.88959 a 18.34322,18.34322 0 0 1 1.30476,-25.90624 18.34322,18.34322 0 0 1 25.90646,1.30046 18.34322,18.34322 0 0 1 -1.29617,25.90668 18.34322,18.34322 0 0 1 -25.90689,-1.29188" /><path
   style="fill:none;fill-rule:evenodd;stroke-width:3;stroke:#000000;stroke-opacity:1;stroke-dasharray:none"
   id="path584"
   sodipodi:type="arc"
   sodipodi:cx="468.81039"
   sodipodi:cy="340.05505"
   sodipodi:rx="14.462924"
   sodipodi:ry="14.110169"
   sodipodi:start="2.4065996"
   sodipodi:end="2.4059364"
   sodipodi:open="true"
   sodipodi:arc-type="arc"
   d="m 458.08129,349.51708 a 14.462924,14.110169 0 0 1 1.02875,-19.92788 14.462924,14.110169 0 0 1 20.42625,1.00036 14.462924,14.110169 0 0 1 -1.02198,19.92821 14.462924,14.110169 0 0 1 -20.42659,-0.99375" /><path
   style="fill:none;fill-rule:evenodd;stroke-width:3;stroke:#000000;stroke-opacity:1;stroke-dasharray:none"
   id="path606"
   sodipodi:type="arc"
   sodipodi:cx="324.88666"
   sodipodi:cy="340.05505"
   sodipodi:rx="14.462924"
   sodipodi:ry="14.110169"
   sodipodi:start="2.4065996"
   sodipodi:end="2.4059364"
   sodipodi:open="true"
   sodipodi:arc-type="arc"
   d="m 314.15755,349.51708 a 14.462924,14.110169 0 0 1 1.02875,-19.92788 14.462924,14.110169 0 0 1 20.42625,1.00036 14.462924,14.110169 0 0 1 -1.02198,19.92821 14.462924,14.110169 0 0 1 -20.42659,-0.99375" /><path
   style="fill:none;fill-rule:evenodd;stroke-width:3;stroke:#000000;stroke-opacity:1;stroke-dasharray:none"
   id="path614"
   sodipodi:type="arc"
   sodipodi:cx="184.49048"
   sodipodi:cy="340.05505"
   sodipodi:rx="14.462924"
   sodipodi:ry="14.110169"
   sodipodi:start="2.4065996"
   sodipodi:end="2.4059364"
   sodipodi:open="true"
   sodipodi:arc-type="arc"
   d="m 173.76137,349.51708 a 14.462924,14.110169 0 0 1 1.02875,-19.92788 14.462924,14.110169 0 0 1 20.42625,1.00036 14.462924,14.110169 0 0 1 -1.02198,19.92821 14.462924,14.110169 0 0 1 -20.42659,-0.99375" /><path
   style="fill:none;stroke:#000000;stroke-width:3;stroke-linecap:butt;stroke-linejoin:miter;stroke-dasharray:none;stroke-opacity:1"
   d="m 53.618642,401.96863 9.877119,50.26229 c 0,0 1.637198,12.83618 5.644067,67.72881 0.94969,13.0104 21.524922,18.31601 34.569912,18.34322 82.75952,0.17262 313.67112,-1.80996 460.69702,-1.41102 14.06694,0.0382 33.24183,-12.03707 33.1589,-26.10381 -0.30876,-52.37308 0,-69.84534 0,-69.84534 l 3.27811,-38.14024"
   id="path1185"
   sodipodi:nodetypes="ccsssscc" /><path
   style="fill:none;stroke:#000000;stroke-width:2;stroke-linecap:butt;stroke-linejoin:miter;stroke-opacity:1;stroke-dasharray:none"
   d="m 90.305082,421.18855 5.644068,63.49576 7.76059,53.61864"
   id="path1193" /><path
   style="fill:none;stroke:#000000;stroke-width:2;stroke-linecap:butt;stroke-linejoin:miter;stroke-opacity:1;stroke-dasharray:none"
   d="m 570.05083,423.30507 -4.93856,60.67373 -2.11652,51.50212"
   id="path1201" /><path
   style="fill:none;stroke:#000000;stroke-width:3;stroke-linecap:butt;stroke-linejoin:miter;stroke-opacity:1;stroke-dasharray:none"
   d="m 161.63382,203.53888 c 31.5936,-0.33984 35.78445,0.13757 52.38133,0 7.25007,-0.0601 12.94227,7.21697 12.97061,14.46723 0.1409,36.04919 -0.0582,44.92736 -0.99774,76.32708 -0.18642,6.23031 -6.75097,14.05787 -12.97061,14.46722 -20.78389,1.36791 -27.4123,0.3946 -56.37229,0 -6.58833,-0.0898 -14.72827,-6.88571 -14.46722,-13.46948 1.2239,-30.86679 1.07237,-39.49453 1.99548,-79.3203 0.16574,-7.15048 10.30845,-12.39482 17.46044,-12.47175 z"
   id="path1209"
   sodipodi:nodetypes="sssssssss" /><path
   style="fill:none;stroke:#000000;stroke-width:3;stroke-linecap:butt;stroke-linejoin:miter;stroke-opacity:1;stroke-dasharray:none"
   d="m 444.493,203.04001 c 31.5936,-0.33984 35.78445,0.13757 52.38133,0 7.25007,-0.0601 12.94227,7.21697 12.97061,14.46723 0.1409,36.04919 0.44067,46.42397 -0.49887,77.82369 -0.18642,6.23031 -7.24984,12.56126 -13.46948,12.97061 -20.78389,1.36791 -23.42134,0.3946 -52.38133,0 -6.58833,-0.0898 -16.22488,-6.88571 -15.96383,-13.46948 1.2239,-30.86679 -1.42198,-39.49453 -0.49887,-79.3203 0.16574,-7.15048 10.30845,-12.39482 17.46044,-12.47175 z"
   id="path1217"
   sodipodi:nodetypes="sssssssss" /><path
   style="fill:none;stroke:#000000;stroke-width:2;stroke-linecap:butt;stroke-linejoin:miter;stroke-dasharray:none;stroke-opacity:1"
   d="m 130.57501,203.25874 c 4.3126,-0.34163 4.88467,0.1383 7.15019,0 0.98965,-0.0605 1.76664,7.25517 1.77051,14.54382 0.0192,36.24002 -0.007,45.16518 -0.13619,76.7311 -0.0254,6.2633 -0.92152,14.1323 -1.77051,14.5438 -2.83707,1.37515 -3.74185,0.39669 -7.69497,0 -0.89932,-0.0902 -2.01044,-6.92215 -1.97481,-13.54076 0.16707,-31.03019 0.14638,-39.7036 0.2724,-79.74018 0.0225,-7.18834 1.40712,-12.46043 2.38338,-12.53778 z"
   id="path1225"
   sodipodi:nodetypes="sssssssss" /><path
   style="fill:none;stroke:#000000;stroke-width:2;stroke-linecap:butt;stroke-linejoin:miter;stroke-dasharray:none;stroke-opacity:1"
   d="m 233.35123,203.75761 c 4.3126,-0.34163 4.88467,0.1383 7.15019,0 0.98965,-0.0605 1.76664,7.25517 1.77051,14.54382 0.0192,36.24002 -0.007,45.16518 -0.13619,76.7311 -0.0254,6.2633 -0.92152,14.1323 -1.77051,14.5438 -2.83707,1.37515 -3.74185,0.39669 -7.69497,0 -0.89932,-0.0902 -2.01044,-6.92215 -1.97481,-13.54076 0.16707,-31.03019 0.14638,-39.7036 0.2724,-79.74018 0.0225,-7.18834 1.40712,-12.46043 2.38338,-12.53778 z"
   id="path1233"
   sodipodi:nodetypes="sssssssss" /><path
   style="fill:none;stroke:#000000;stroke-width:2;stroke-linecap:butt;stroke-linejoin:miter;stroke-dasharray:none;stroke-opacity:1"
   d="m 413.93306,203.25874 c 4.3126,-0.34163 4.88467,0.1383 7.15019,0 0.98965,-0.0605 1.76664,7.25517 1.77051,14.54382 0.0192,36.24002 -0.007,45.16518 -0.13619,76.7311 -0.0254,6.2633 -0.92152,14.1323 -1.77051,14.5438 -2.83707,1.37515 -3.74185,0.39669 -7.69497,0 -0.89932,-0.0902 -2.01044,-6.92215 -1.97481,-13.54076 0.16707,-31.03019 0.14638,-39.7036 0.2724,-79.74018 0.0225,-7.18834 1.40712,-12.46043 2.38338,-12.53778 z"
   id="path1241"
   sodipodi:nodetypes="sssssssss" /><path
   style="fill:none;stroke:#000000;stroke-width:2;stroke-linecap:butt;stroke-linejoin:miter;stroke-dasharray:none;stroke-opacity:1"
   d="m 516.70928,203.75761 c 4.3126,-0.34163 4.88467,0.1383 7.15019,0 0.98965,-0.0605 1.76664,7.25517 1.77051,14.54382 0.0192,36.24002 -0.007,45.16518 -0.13619,76.7311 -0.0254,6.2633 -0.92152,14.1323 -1.77051,14.5438 -2.83707,1.37515 -3.74185,0.39669 -7.69497,0 -0.89932,-0.0902 -2.01044,-6.92215 -1.97481,-13.54076 0.16707,-31.03019 0.14638,-39.7036 0.2724,-79.74018 0.0225,-7.18834 1.40712,-12.46043 2.38338,-12.53778 z"
   id="path1243"
   sodipodi:nodetypes="sssssssss" /><path
   style="fill:none;stroke:#000000;stroke-width:1.88999;stroke-linecap:butt;stroke-linejoin:miter;stroke-dasharray:none;stroke-opacity:1"
   d="m 219.32397,440.08253 c 22.93735,25.39212 3.10442,3.14984 25.92382,28.81766 1.95562,2.19975 -0.55228,7.93823 -3.54905,8.02266 -39.73688,1.11955 -16.79615,0.0718 -53.13497,0.94454 -3.54189,0.0851 -8.51923,-5.29552 -6.51367,-8.13237 15.25506,-21.57837 7.36321,-10.76906 21.45398,-30.02375 3.05645,-4.17655 12.34729,-3.47298 15.81989,0.37126 z"
   id="path1251"
   sodipodi:nodetypes="sssssss" /><path
   style="fill:none;stroke:#000000;stroke-width:2;stroke-linecap:butt;stroke-linejoin:miter;stroke-opacity:1;stroke-dasharray:none"
   d="m 183.07944,437.59162 8.64248,3.52754 -14.6393,20.63612 -8.28972,-3.17478 z"
   id="path1259" /><path
   style="fill:none;stroke:#000000;stroke-width:2;stroke-linecap:butt;stroke-linejoin:miter;stroke-opacity:1;stroke-dasharray:none"
   d="m 181.31567,435.47509 15.34481,6.34958 -19.2251,27.69121 -15.69757,-7.23147 z"
   id="path1267" /><path
   style="fill:none;stroke:#000000;stroke-width:1px;stroke-linecap:butt;stroke-linejoin:miter;stroke-opacity:1"
   d="m 161.91419,462.10804 7.05508,-3.70392"
   id="path1275" /><path
   style="fill:none;stroke:#000000;stroke-width:1px;stroke-linecap:butt;stroke-linejoin:miter;stroke-opacity:1"
   d="M 177.259,469.16312 176.37711,448.527"
   id="path1283" /><path
   style="fill:none;stroke:#000000;stroke-width:1px;stroke-linecap:butt;stroke-linejoin:miter;stroke-opacity:1"
   d="m 195.24946,441.47192 -14.28654,0.17637"
   id="path1291" /><path
   style="fill:none;stroke:#000000;stroke-width:2;stroke-linecap:butt;stroke-linejoin:miter;stroke-dasharray:none;stroke-opacity:1"
   d="m 233.17055,440.23727 7.76059,-3.8803 17.63771,20.45975 -7.93697,3.52754 z"
   id="path1299" /><path
   style="fill:none;stroke:#000000;stroke-width:2;stroke-linecap:butt;stroke-linejoin:miter;stroke-dasharray:none;stroke-opacity:1"
   d="m 241.2839,434.06407 23.45815,27.86759 -16.05032,6.52595 -22.39989,-26.63294 z"
   id="path1307" /><path
   style="fill:none;stroke:#000000;stroke-width:1px;stroke-linecap:butt;stroke-linejoin:miter;stroke-opacity:1"
   d="m 226.46822,442.00104 17.28496,-0.70551"
   id="path1315" /><path
   style="fill:none;stroke:#000000;stroke-width:1px;stroke-linecap:butt;stroke-linejoin:miter;stroke-opacity:1"
   d="m 248.1626,468.45761 4.76219,-17.99047"
   id="path1323" /><path
   style="fill:none;stroke:#000000;stroke-width:1px;stroke-linecap:butt;stroke-linejoin:miter;stroke-opacity:1"
   d="m 210.77065,487.50634 h 8.81886 l 1.05826,22.04714 h -8.4661 z"
   id="path1331" /><path
   style="fill:none;stroke:#000000;stroke-width:1px;stroke-linecap:butt;stroke-linejoin:miter;stroke-opacity:1"
   d="m 211.82891,503.38028 h 8.64248"
   id="path1339" /><path
   style="fill:none;fill-rule:evenodd;stroke:#000000;stroke-width:1.89367;stroke-dasharray:none;stroke-opacity:1"
   id="path1347"
   sodipodi:type="arc"
   sodipodi:cx="215.97379"
   sodipodi:cy="499.14725"
   sodipodi:rx="28.185835"
   sodipodi:ry="18.927879"
   sodipodi:start="2.4065996"
   sodipodi:end="2.4059364"
   sodipodi:open="true"
   sodipodi:arc-type="arc"
   d="m 195.06453,511.83994 a 28.185835,18.927879 0 0 1 2.00488,-26.73196 28.185835,18.927879 0 0 1 39.80736,1.34192 28.185835,18.927879 0 0 1 -1.99167,26.7324 28.185835,18.927879 0 0 1 -39.80803,-1.33305" /><path
   style="fill:none;stroke:#000000;stroke-width:1.88999;stroke-linecap:butt;stroke-linejoin:miter;stroke-dasharray:none;stroke-opacity:1"
   d="m 452.79504,439.08479 c 22.93735,25.39212 3.10442,3.14984 25.92382,28.81766 1.95562,2.19975 -0.55228,7.93823 -3.54905,8.02266 -39.73688,1.11955 -16.79615,0.0718 -53.13497,0.94454 -3.54189,0.0851 -8.51923,-5.29552 -6.51367,-8.13237 15.25506,-21.57837 7.36321,-10.76906 21.45398,-30.02375 3.05645,-4.17655 12.34729,-3.47298 15.81989,0.37126 z"
   id="path1355"
   sodipodi:nodetypes="sssssss" /><path
   style="fill:none;stroke:#000000;stroke-width:2;stroke-linecap:butt;stroke-linejoin:miter;stroke-dasharray:none;stroke-opacity:1"
   d="m 416.55051,436.59388 8.64248,3.52754 -14.6393,20.63612 -8.28972,-3.17478 z"
   id="path1357" /><path
   style="fill:none;stroke:#000000;stroke-width:2;stroke-linecap:butt;stroke-linejoin:miter;stroke-dasharray:none;stroke-opacity:1"
   d="m 414.78674,434.47735 15.34481,6.34958 -19.2251,27.69121 -15.69757,-7.23147 z"
   id="path1359" /><path
   style="fill:none;stroke:#000000;stroke-width:1px;stroke-linecap:butt;stroke-linejoin:miter;stroke-opacity:1"
   d="m 395.38526,461.1103 7.05508,-3.70392"
   id="path1361" /><path
   style="fill:none;stroke:#000000;stroke-width:1px;stroke-linecap:butt;stroke-linejoin:miter;stroke-opacity:1"
   d="m 410.73007,468.16538 -0.88189,-20.63612"
   id="path1363" /><path
   style="fill:none;stroke:#000000;stroke-width:1px;stroke-linecap:butt;stroke-linejoin:miter;stroke-opacity:1"
   d="m 428.72053,440.47418 -14.28654,0.17637"
   id="path1365" /><path
   style="fill:none;stroke:#000000;stroke-width:2;stroke-linecap:butt;stroke-linejoin:miter;stroke-dasharray:none;stroke-opacity:1"
   d="m 466.64162,439.23953 7.76059,-3.8803 17.63771,20.45975 -7.93697,3.52754 z"
   id="path1367" /><path
   style="fill:none;stroke:#000000;stroke-width:2;stroke-linecap:butt;stroke-linejoin:miter;stroke-dasharray:none;stroke-opacity:1"
   d="m 474.75497,433.06633 23.45815,27.86759 -16.05032,6.52595 -22.39989,-26.63294 z"
   id="path1369" /><path
   style="fill:none;stroke:#000000;stroke-width:1px;stroke-linecap:butt;stroke-linejoin:miter;stroke-opacity:1"
   d="m 459.93929,441.0033 17.28496,-0.70551"
   id="path1371" /><path
   style="fill:none;stroke:#000000;stroke-width:1px;stroke-linecap:butt;stroke-linejoin:miter;stroke-opacity:1"
   d="m 481.63367,467.45987 4.76219,-17.99047"
   id="path1373" /><path
   style="fill:none;stroke:#000000;stroke-width:1px;stroke-linecap:butt;stroke-linejoin:miter;stroke-opacity:1"
   d="m 444.24172,486.5086 h 8.81886 l 1.05826,22.04714 h -8.4661 z"
   id="path1375" /><path
   style="fill:none;stroke:#000000;stroke-width:1px;stroke-linecap:butt;stroke-linejoin:miter;stroke-opacity:1"
   d="m 445.29998,502.38254 h 8.64248"
   id="path1377" /><path
   style="fill:none;fill-rule:evenodd;stroke:#000000;stroke-width:1.89367;stroke-dasharray:none;stroke-opacity:1"
   id="path1379"
   sodipodi:type="arc"
   sodipodi:cx="449.44485"
   sodipodi:cy="498.14951"
   sodipodi:rx="28.185835"
   sodipodi:ry="18.927879"
   sodipodi:start="2.4065996"
   sodipodi:end="2.4059364"
   sodipodi:open="true"
   sodipodi:arc-type="arc"
   d="m 428.5356,510.8422 a 28.185835,18.927879 0 0 1 2.00487,-26.73196 28.185835,18.927879 0 0 1 39.80737,1.34191 28.185835,18.927879 0 0 1 -1.99167,26.73241 28.185835,18.927879 0 0 1 -39.80803,-1.33305" /><path
   style="fill:none;fill-rule:evenodd;stroke:#000000;stroke-width:2;stroke-dasharray:none;stroke-opacity:1"
   id="path1399"
   sodipodi:type="arc"
   sodipodi:cx="94.890884"
   sodipodi:cy="338.9968"
   sodipodi:rx="4.9417644"
   sodipodi:ry="5.6472726"
   sodipodi:start="2.4065996"
   sodipodi:end="2.4059364"
   sodipodi:open="true"
   sodipodi:arc-type="arc"
   d="m 91.224909,342.78376 a 4.9417644,5.6472726 0 0 1 0.351509,-7.97568 4.9417644,5.6472726 0 0 1 6.979343,0.40037 4.9417644,5.6472726 0 0 1 -0.349195,7.97581 4.9417644,5.6472726 0 0 1 -6.979459,-0.39773" /><path
   style="fill:none;fill-rule:evenodd;stroke:#000000;stroke-width:2;stroke-dasharray:none;stroke-opacity:1"
   id="path1407"
   sodipodi:type="arc"
   sodipodi:cx="562.29022"
   sodipodi:cy="341.46606"
   sodipodi:rx="4.9417644"
   sodipodi:ry="5.6472726"
   sodipodi:start="2.4065996"
   sodipodi:end="2.4059364"
   sodipodi:open="true"
   sodipodi:arc-type="arc"
   d="m 558.62425,345.25302 a 4.9417644,5.6472726 0 0 1 0.35151,-7.97567 4.9417644,5.6472726 0 0 1 6.97934,0.40037 4.9417644,5.6472726 0 0 1 -0.3492,7.97581 4.9417644,5.6472726 0 0 1 -6.97946,-0.39773" /></svg>
